<?xml version="1.0" encoding="utf-8"?>
<svg xmlns="http://www.w3.org/2000/svg" xmlns:xlink="http://www.w3.org/1999/xlink" width="480" height="370" viewBox="0 0 1920 1480">
<defs>
  <clipPath id="clip100">
    <rect x="0" y="0" width="1920" height="1480"/>
  </clipPath>
</defs>
<path clip-path="url(#clip100)" d="M0 1480 L1920 1480 L1920 0 L0 0  Z" fill="#ffffff" fill-rule="evenodd" fill-opacity="1"/>
<defs>
  <clipPath id="clip101">
    <rect x="384" y="0" width="1345" height="1345"/>
  </clipPath>
</defs>
<path clip-path="url(#clip100)" d="M220.243 1291.55 L1872.76 1291.55 L1872.76 47.2441 L220.243 47.2441  Z" fill="#ffffff" fill-rule="evenodd" fill-opacity="1"/>
<defs>
  <clipPath id="clip102">
    <rect x="220" y="47" width="1654" height="1245"/>
  </clipPath>
</defs>
<polyline clip-path="url(#clip102)" style="stroke:#000000; stroke-linecap:round; stroke-linejoin:round; stroke-width:2; stroke-opacity:0.1; fill:none" points="251.265,1291.55 251.265,47.2441 "/>
<polyline clip-path="url(#clip102)" style="stroke:#000000; stroke-linecap:round; stroke-linejoin:round; stroke-width:2; stroke-opacity:0.1; fill:none" points="644.945,1291.55 644.945,47.2441 "/>
<polyline clip-path="url(#clip102)" style="stroke:#000000; stroke-linecap:round; stroke-linejoin:round; stroke-width:2; stroke-opacity:0.1; fill:none" points="1038.63,1291.55 1038.63,47.2441 "/>
<polyline clip-path="url(#clip102)" style="stroke:#000000; stroke-linecap:round; stroke-linejoin:round; stroke-width:2; stroke-opacity:0.1; fill:none" points="1432.31,1291.55 1432.31,47.2441 "/>
<polyline clip-path="url(#clip102)" style="stroke:#000000; stroke-linecap:round; stroke-linejoin:round; stroke-width:2; stroke-opacity:0.1; fill:none" points="1825.99,1291.55 1825.99,47.2441 "/>
<polyline clip-path="url(#clip100)" style="stroke:#000000; stroke-linecap:round; stroke-linejoin:round; stroke-width:4; stroke-opacity:1; fill:none" points="220.243,1291.55 1872.76,1291.55 "/>
<polyline clip-path="url(#clip100)" style="stroke:#000000; stroke-linecap:round; stroke-linejoin:round; stroke-width:4; stroke-opacity:1; fill:none" points="251.265,1291.55 251.265,1272.66 "/>
<polyline clip-path="url(#clip100)" style="stroke:#000000; stroke-linecap:round; stroke-linejoin:round; stroke-width:4; stroke-opacity:1; fill:none" points="644.945,1291.55 644.945,1272.66 "/>
<polyline clip-path="url(#clip100)" style="stroke:#000000; stroke-linecap:round; stroke-linejoin:round; stroke-width:4; stroke-opacity:1; fill:none" points="1038.63,1291.55 1038.63,1272.66 "/>
<polyline clip-path="url(#clip100)" style="stroke:#000000; stroke-linecap:round; stroke-linejoin:round; stroke-width:4; stroke-opacity:1; fill:none" points="1432.31,1291.55 1432.31,1272.66 "/>
<polyline clip-path="url(#clip100)" style="stroke:#000000; stroke-linecap:round; stroke-linejoin:round; stroke-width:4; stroke-opacity:1; fill:none" points="1825.99,1291.55 1825.99,1272.66 "/>
<path clip-path="url(#clip100)" d="M251.265 1318.63 Q247.654 1318.63 245.825 1322.2 Q244.019 1325.74 244.019 1332.87 Q244.019 1339.98 245.825 1343.54 Q247.654 1347.08 251.265 1347.08 Q254.899 1347.08 256.704 1343.54 Q258.533 1339.98 258.533 1332.87 Q258.533 1325.74 256.704 1322.2 Q254.899 1318.63 251.265 1318.63 M251.265 1314.93 Q257.075 1314.93 260.13 1319.54 Q263.209 1324.12 263.209 1332.87 Q263.209 1341.6 260.13 1346.2 Q257.075 1350.79 251.265 1350.79 Q245.454 1350.79 242.376 1346.2 Q239.32 1341.6 239.32 1332.87 Q239.32 1324.12 242.376 1319.54 Q245.454 1314.93 251.265 1314.93 Z" fill="#000000" fill-rule="nonzero" fill-opacity="1" /><path clip-path="url(#clip100)" d="M624.216 1346.18 L640.535 1346.18 L640.535 1350.11 L618.591 1350.11 L618.591 1346.18 Q621.253 1343.43 625.836 1338.8 Q630.443 1334.14 631.623 1332.8 Q633.869 1330.28 634.748 1328.54 Q635.651 1326.78 635.651 1325.09 Q635.651 1322.34 633.707 1320.6 Q631.785 1318.87 628.684 1318.87 Q626.485 1318.87 624.031 1319.63 Q621.6 1320.39 618.823 1321.94 L618.823 1317.22 Q621.647 1316.09 624.1 1315.51 Q626.554 1314.93 628.591 1314.93 Q633.961 1314.93 637.156 1317.62 Q640.35 1320.3 640.35 1324.79 Q640.35 1326.92 639.54 1328.84 Q638.753 1330.74 636.647 1333.33 Q636.068 1334 632.966 1337.22 Q629.864 1340.42 624.216 1346.18 Z" fill="#000000" fill-rule="nonzero" fill-opacity="1" /><path clip-path="url(#clip100)" d="M650.396 1315.55 L668.753 1315.55 L668.753 1319.49 L654.679 1319.49 L654.679 1327.96 Q655.697 1327.61 656.716 1327.45 Q657.734 1327.27 658.753 1327.27 Q664.54 1327.27 667.92 1330.44 Q671.299 1333.61 671.299 1339.03 Q671.299 1344.61 667.827 1347.71 Q664.355 1350.79 658.035 1350.79 Q655.859 1350.79 653.591 1350.42 Q651.346 1350.05 648.938 1349.3 L648.938 1344.61 Q651.021 1345.74 653.244 1346.3 Q655.466 1346.85 657.943 1346.85 Q661.947 1346.85 664.285 1344.74 Q666.623 1342.64 666.623 1339.03 Q666.623 1335.42 664.285 1333.31 Q661.947 1331.2 657.943 1331.2 Q656.068 1331.2 654.193 1331.62 Q652.341 1332.04 650.396 1332.92 L650.396 1315.55 Z" fill="#000000" fill-rule="nonzero" fill-opacity="1" /><path clip-path="url(#clip100)" d="M1013.32 1315.55 L1031.68 1315.55 L1031.68 1319.49 L1017.61 1319.49 L1017.61 1327.96 Q1018.63 1327.61 1019.64 1327.45 Q1020.66 1327.27 1021.68 1327.27 Q1027.47 1327.27 1030.85 1330.44 Q1034.23 1333.61 1034.23 1339.03 Q1034.23 1344.61 1030.76 1347.71 Q1027.28 1350.79 1020.96 1350.79 Q1018.79 1350.79 1016.52 1350.42 Q1014.27 1350.05 1011.87 1349.3 L1011.87 1344.61 Q1013.95 1345.74 1016.17 1346.3 Q1018.39 1346.85 1020.87 1346.85 Q1024.88 1346.85 1027.21 1344.74 Q1029.55 1342.64 1029.55 1339.03 Q1029.55 1335.42 1027.21 1333.31 Q1024.88 1331.2 1020.87 1331.2 Q1019 1331.2 1017.12 1331.62 Q1015.27 1332.04 1013.32 1332.92 L1013.32 1315.55 Z" fill="#000000" fill-rule="nonzero" fill-opacity="1" /><path clip-path="url(#clip100)" d="M1053.44 1318.63 Q1049.83 1318.63 1048 1322.2 Q1046.2 1325.74 1046.2 1332.87 Q1046.2 1339.98 1048 1343.54 Q1049.83 1347.08 1053.44 1347.08 Q1057.07 1347.08 1058.88 1343.54 Q1060.71 1339.98 1060.71 1332.87 Q1060.71 1325.74 1058.88 1322.2 Q1057.07 1318.63 1053.44 1318.63 M1053.44 1314.93 Q1059.25 1314.93 1062.31 1319.54 Q1065.38 1324.12 1065.38 1332.87 Q1065.38 1341.6 1062.31 1346.2 Q1059.25 1350.79 1053.44 1350.79 Q1047.63 1350.79 1044.55 1346.2 Q1041.5 1341.6 1041.5 1332.87 Q1041.5 1324.12 1044.55 1319.54 Q1047.63 1314.93 1053.44 1314.93 Z" fill="#000000" fill-rule="nonzero" fill-opacity="1" /><path clip-path="url(#clip100)" d="M1406.16 1315.55 L1428.38 1315.55 L1428.38 1317.55 L1415.84 1350.11 L1410.95 1350.11 L1422.76 1319.49 L1406.16 1319.49 L1406.16 1315.55 Z" fill="#000000" fill-rule="nonzero" fill-opacity="1" /><path clip-path="url(#clip100)" d="M1437.55 1315.55 L1455.91 1315.55 L1455.91 1319.49 L1441.83 1319.49 L1441.83 1327.96 Q1442.85 1327.61 1443.87 1327.45 Q1444.89 1327.27 1445.91 1327.27 Q1451.69 1327.27 1455.07 1330.44 Q1458.45 1333.61 1458.45 1339.03 Q1458.45 1344.61 1454.98 1347.71 Q1451.51 1350.79 1445.19 1350.79 Q1443.01 1350.79 1440.74 1350.42 Q1438.5 1350.05 1436.09 1349.3 L1436.09 1344.61 Q1438.17 1345.74 1440.4 1346.3 Q1442.62 1346.85 1445.1 1346.85 Q1449.1 1346.85 1451.44 1344.74 Q1453.78 1342.64 1453.78 1339.03 Q1453.78 1335.42 1451.44 1333.31 Q1449.1 1331.2 1445.1 1331.2 Q1443.22 1331.2 1441.35 1331.62 Q1439.49 1332.04 1437.55 1332.92 L1437.55 1315.55 Z" fill="#000000" fill-rule="nonzero" fill-opacity="1" /><path clip-path="url(#clip100)" d="M1785.59 1346.18 L1793.23 1346.18 L1793.23 1319.81 L1784.92 1321.48 L1784.92 1317.22 L1793.19 1315.55 L1797.86 1315.55 L1797.86 1346.18 L1805.5 1346.18 L1805.5 1350.11 L1785.59 1350.11 L1785.59 1346.18 Z" fill="#000000" fill-rule="nonzero" fill-opacity="1" /><path clip-path="url(#clip100)" d="M1824.94 1318.63 Q1821.33 1318.63 1819.51 1322.2 Q1817.7 1325.74 1817.7 1332.87 Q1817.7 1339.98 1819.51 1343.54 Q1821.33 1347.08 1824.94 1347.08 Q1828.58 1347.08 1830.38 1343.54 Q1832.21 1339.98 1832.21 1332.87 Q1832.21 1325.74 1830.38 1322.2 Q1828.58 1318.63 1824.94 1318.63 M1824.94 1314.93 Q1830.76 1314.93 1833.81 1319.54 Q1836.89 1324.12 1836.89 1332.87 Q1836.89 1341.6 1833.81 1346.2 Q1830.76 1350.79 1824.94 1350.79 Q1819.13 1350.79 1816.06 1346.2 Q1813 1341.6 1813 1332.87 Q1813 1324.12 1816.06 1319.54 Q1819.13 1314.93 1824.94 1314.93 Z" fill="#000000" fill-rule="nonzero" fill-opacity="1" /><path clip-path="url(#clip100)" d="M1855.11 1318.63 Q1851.5 1318.63 1849.67 1322.2 Q1847.86 1325.74 1847.86 1332.87 Q1847.86 1339.98 1849.67 1343.54 Q1851.5 1347.08 1855.11 1347.08 Q1858.74 1347.08 1860.55 1343.54 Q1862.38 1339.98 1862.38 1332.87 Q1862.38 1325.74 1860.55 1322.2 Q1858.74 1318.63 1855.11 1318.63 M1855.11 1314.93 Q1860.92 1314.93 1863.97 1319.54 Q1867.05 1324.12 1867.05 1332.87 Q1867.05 1341.6 1863.97 1346.2 Q1860.92 1350.79 1855.11 1350.79 Q1849.3 1350.79 1846.22 1346.2 Q1843.16 1341.6 1843.16 1332.87 Q1843.16 1324.12 1846.22 1319.54 Q1849.3 1314.93 1855.11 1314.93 Z" fill="#000000" fill-rule="nonzero" fill-opacity="1" /><path clip-path="url(#clip100)" d="M914.65 1393.57 L920.506 1393.57 L920.506 1429.22 L914.65 1429.22 L914.65 1393.57 M914.65 1379.69 L920.506 1379.69 L920.506 1387.11 L914.65 1387.11 L914.65 1379.69 Z" fill="#000000" fill-rule="nonzero" fill-opacity="1" /><path clip-path="url(#clip100)" d="M938.553 1383.45 L938.553 1393.57 L950.616 1393.57 L950.616 1398.12 L938.553 1398.12 L938.553 1417.47 Q938.553 1421.83 939.73 1423.08 Q940.94 1424.32 944.6 1424.32 L950.616 1424.32 L950.616 1429.22 L944.6 1429.22 Q937.821 1429.22 935.243 1426.7 Q932.665 1424.16 932.665 1417.47 L932.665 1398.12 L928.368 1398.12 L928.368 1393.57 L932.665 1393.57 L932.665 1383.45 L938.553 1383.45 Z" fill="#000000" fill-rule="nonzero" fill-opacity="1" /><path clip-path="url(#clip100)" d="M988.81 1409.93 L988.81 1412.8 L961.883 1412.8 Q962.265 1418.84 965.512 1422.03 Q968.79 1425.18 974.615 1425.18 Q977.988 1425.18 981.139 1424.35 Q984.322 1423.52 987.441 1421.87 L987.441 1427.4 Q984.29 1428.74 980.98 1429.44 Q977.67 1430.14 974.264 1430.14 Q965.734 1430.14 960.737 1425.18 Q955.772 1420.21 955.772 1411.74 Q955.772 1402.99 960.483 1397.87 Q965.225 1392.71 973.246 1392.71 Q980.439 1392.71 984.609 1397.36 Q988.81 1401.97 988.81 1409.93 M982.954 1408.21 Q982.89 1403.41 980.248 1400.54 Q977.638 1397.68 973.31 1397.68 Q968.408 1397.68 965.448 1400.45 Q962.52 1403.21 962.074 1408.24 L982.954 1408.21 Z" fill="#000000" fill-rule="nonzero" fill-opacity="1" /><path clip-path="url(#clip100)" d="M1019.08 1399.05 Q1018.09 1398.47 1016.91 1398.22 Q1015.77 1397.93 1014.37 1397.93 Q1009.4 1397.93 1006.73 1401.18 Q1004.09 1404.39 1004.09 1410.44 L1004.09 1429.22 L998.199 1429.22 L998.199 1393.57 L1004.09 1393.57 L1004.09 1399.11 Q1005.93 1395.86 1008.89 1394.3 Q1011.85 1392.71 1016.09 1392.71 Q1016.69 1392.71 1017.42 1392.81 Q1018.16 1392.87 1019.05 1393.03 L1019.08 1399.05 Z" fill="#000000" fill-rule="nonzero" fill-opacity="1" /><path clip-path="url(#clip100)" d="M1041.42 1411.3 Q1034.32 1411.3 1031.59 1412.92 Q1028.85 1414.55 1028.85 1418.46 Q1028.85 1421.58 1030.89 1423.43 Q1032.96 1425.24 1036.49 1425.24 Q1041.36 1425.24 1044.29 1421.8 Q1047.25 1418.33 1047.25 1412.6 L1047.25 1411.3 L1041.42 1411.3 M1053.1 1408.88 L1053.1 1429.22 L1047.25 1429.22 L1047.25 1423.81 Q1045.24 1427.05 1042.25 1428.61 Q1039.26 1430.14 1034.93 1430.14 Q1029.46 1430.14 1026.21 1427.09 Q1022.99 1424 1022.99 1418.84 Q1022.99 1412.83 1027 1409.77 Q1031.05 1406.72 1039.04 1406.72 L1047.25 1406.72 L1047.25 1406.14 Q1047.25 1402.1 1044.57 1399.9 Q1041.93 1397.68 1037.13 1397.68 Q1034.07 1397.68 1031.17 1398.41 Q1028.28 1399.14 1025.6 1400.6 L1025.6 1395.19 Q1028.82 1393.95 1031.84 1393.35 Q1034.87 1392.71 1037.73 1392.71 Q1045.46 1392.71 1049.28 1396.72 Q1053.1 1400.73 1053.1 1408.88 Z" fill="#000000" fill-rule="nonzero" fill-opacity="1" /><path clip-path="url(#clip100)" d="M1070.96 1383.45 L1070.96 1393.57 L1083.02 1393.57 L1083.02 1398.12 L1070.96 1398.12 L1070.96 1417.47 Q1070.96 1421.83 1072.14 1423.08 Q1073.35 1424.32 1077.01 1424.32 L1083.02 1424.32 L1083.02 1429.22 L1077.01 1429.22 Q1070.23 1429.22 1067.65 1426.7 Q1065.07 1424.16 1065.07 1417.47 L1065.07 1398.12 L1060.77 1398.12 L1060.77 1393.57 L1065.07 1393.57 L1065.07 1383.45 L1070.96 1383.45 Z" fill="#000000" fill-rule="nonzero" fill-opacity="1" /><path clip-path="url(#clip100)" d="M1090.73 1393.57 L1096.58 1393.57 L1096.58 1429.22 L1090.73 1429.22 L1090.73 1393.57 M1090.73 1379.69 L1096.58 1379.69 L1096.58 1387.11 L1090.73 1387.11 L1090.73 1379.69 Z" fill="#000000" fill-rule="nonzero" fill-opacity="1" /><path clip-path="url(#clip100)" d="M1122.65 1397.68 Q1117.94 1397.68 1115.2 1401.37 Q1112.46 1405.03 1112.46 1411.43 Q1112.46 1417.82 1115.17 1421.52 Q1117.91 1425.18 1122.65 1425.18 Q1127.33 1425.18 1130.07 1421.48 Q1132.8 1417.79 1132.8 1411.43 Q1132.8 1405.09 1130.07 1401.4 Q1127.33 1397.68 1122.65 1397.68 M1122.65 1392.71 Q1130.29 1392.71 1134.65 1397.68 Q1139.01 1402.64 1139.01 1411.43 Q1139.01 1420.18 1134.65 1425.18 Q1130.29 1430.14 1122.65 1430.14 Q1114.98 1430.14 1110.62 1425.18 Q1106.29 1420.18 1106.29 1411.43 Q1106.29 1402.64 1110.62 1397.68 Q1114.98 1392.71 1122.65 1392.71 Z" fill="#000000" fill-rule="nonzero" fill-opacity="1" /><path clip-path="url(#clip100)" d="M1178.35 1407.7 L1178.35 1429.22 L1172.49 1429.22 L1172.49 1407.89 Q1172.49 1402.83 1170.52 1400.32 Q1168.55 1397.8 1164.6 1397.8 Q1159.86 1397.8 1157.12 1400.83 Q1154.38 1403.85 1154.38 1409.07 L1154.38 1429.22 L1148.49 1429.22 L1148.49 1393.57 L1154.38 1393.57 L1154.38 1399.11 Q1156.48 1395.89 1159.32 1394.3 Q1162.18 1392.71 1165.9 1392.71 Q1172.05 1392.71 1175.2 1396.53 Q1178.35 1400.32 1178.35 1407.7 Z" fill="#000000" fill-rule="nonzero" fill-opacity="1" /><polyline clip-path="url(#clip102)" style="stroke:#000000; stroke-linecap:round; stroke-linejoin:round; stroke-width:2; stroke-opacity:0.1; fill:none" points="220.243,875.025 1872.76,875.025 "/>
<polyline clip-path="url(#clip102)" style="stroke:#000000; stroke-linecap:round; stroke-linejoin:round; stroke-width:2; stroke-opacity:0.1; fill:none" points="220.243,430.391 1872.76,430.391 "/>
<polyline clip-path="url(#clip100)" style="stroke:#000000; stroke-linecap:round; stroke-linejoin:round; stroke-width:4; stroke-opacity:1; fill:none" points="220.243,1291.55 220.243,47.2441 "/>
<polyline clip-path="url(#clip100)" style="stroke:#000000; stroke-linecap:round; stroke-linejoin:round; stroke-width:4; stroke-opacity:1; fill:none" points="220.243,875.025 239.14,875.025 "/>
<polyline clip-path="url(#clip100)" style="stroke:#000000; stroke-linecap:round; stroke-linejoin:round; stroke-width:4; stroke-opacity:1; fill:none" points="220.243,430.391 239.14,430.391 "/>
<path clip-path="url(#clip100)" d="M54.0634 894.818 L61.7023 894.818 L61.7023 868.452 L53.3921 870.119 L53.3921 865.86 L61.656 864.193 L66.3319 864.193 L66.3319 894.818 L73.9707 894.818 L73.9707 898.753 L54.0634 898.753 L54.0634 894.818 Z" fill="#000000" fill-rule="nonzero" fill-opacity="1" /><path clip-path="url(#clip100)" d="M93.4151 867.272 Q89.804 867.272 87.9753 870.836 Q86.1697 874.378 86.1697 881.508 Q86.1697 888.614 87.9753 892.179 Q89.804 895.721 93.4151 895.721 Q97.0493 895.721 98.8548 892.179 Q100.684 888.614 100.684 881.508 Q100.684 874.378 98.8548 870.836 Q97.0493 867.272 93.4151 867.272 M93.4151 863.568 Q99.2252 863.568 102.281 868.174 Q105.359 872.758 105.359 881.508 Q105.359 890.234 102.281 894.841 Q99.2252 899.424 93.4151 899.424 Q87.6049 899.424 84.5262 894.841 Q81.4707 890.234 81.4707 881.508 Q81.4707 872.758 84.5262 868.174 Q87.6049 863.568 93.4151 863.568 Z" fill="#000000" fill-rule="nonzero" fill-opacity="1" /><path clip-path="url(#clip100)" d="M105.359 857.669 L129.471 857.669 L129.471 860.867 L105.359 860.867 L105.359 857.669 Z" fill="#000000" fill-rule="nonzero" fill-opacity="1" /><path clip-path="url(#clip100)" d="M138.329 868.145 L144.536 868.145 L144.536 846.723 L137.784 848.077 L137.784 844.617 L144.498 843.263 L148.298 843.263 L148.298 868.145 L154.504 868.145 L154.504 871.343 L138.329 871.343 L138.329 868.145 Z" fill="#000000" fill-rule="nonzero" fill-opacity="1" /><path clip-path="url(#clip100)" d="M162.178 866.565 L166.146 866.565 L166.146 871.343 L162.178 871.343 L162.178 866.565 Z" fill="#000000" fill-rule="nonzero" fill-opacity="1" /><path clip-path="url(#clip100)" d="M174.459 843.263 L189.374 843.263 L189.374 846.46 L177.939 846.46 L177.939 853.344 Q178.766 853.061 179.594 852.93 Q180.421 852.779 181.249 852.779 Q185.951 852.779 188.697 855.356 Q191.443 857.933 191.443 862.334 Q191.443 866.866 188.621 869.387 Q185.8 871.888 180.666 871.888 Q178.898 871.888 177.055 871.587 Q175.23 871.286 173.274 870.684 L173.274 866.866 Q174.967 867.788 176.773 868.239 Q178.578 868.691 180.591 868.691 Q183.844 868.691 185.744 866.979 Q187.643 865.268 187.643 862.334 Q187.643 859.4 185.744 857.688 Q183.844 855.977 180.591 855.977 Q179.067 855.977 177.544 856.315 Q176.039 856.654 174.459 857.368 L174.459 843.263 Z" fill="#000000" fill-rule="nonzero" fill-opacity="1" /><path clip-path="url(#clip100)" d="M54.5524 450.183 L62.1913 450.183 L62.1913 423.818 L53.8811 425.484 L53.8811 421.225 L62.145 419.558 L66.8209 419.558 L66.8209 450.183 L74.4597 450.183 L74.4597 454.118 L54.5524 454.118 L54.5524 450.183 Z" fill="#000000" fill-rule="nonzero" fill-opacity="1" /><path clip-path="url(#clip100)" d="M93.9041 422.637 Q90.293 422.637 88.4643 426.202 Q86.6587 429.744 86.6587 436.873 Q86.6587 443.98 88.4643 447.544 Q90.293 451.086 93.9041 451.086 Q97.5383 451.086 99.3438 447.544 Q101.173 443.98 101.173 436.873 Q101.173 429.744 99.3438 426.202 Q97.5383 422.637 93.9041 422.637 M93.9041 418.933 Q99.7142 418.933 102.77 423.54 Q105.848 428.123 105.848 436.873 Q105.848 445.6 102.77 450.206 Q99.7142 454.79 93.9041 454.79 Q88.0939 454.79 85.0152 450.206 Q81.9597 445.6 81.9597 436.873 Q81.9597 428.123 85.0152 423.54 Q88.0939 418.933 93.9041 418.933 Z" fill="#000000" fill-rule="nonzero" fill-opacity="1" /><path clip-path="url(#clip100)" d="M105.848 413.035 L129.96 413.035 L129.96 416.232 L105.848 416.232 L105.848 413.035 Z" fill="#000000" fill-rule="nonzero" fill-opacity="1" /><path clip-path="url(#clip100)" d="M138.818 423.511 L145.025 423.511 L145.025 402.089 L138.273 403.443 L138.273 399.982 L144.987 398.628 L148.787 398.628 L148.787 423.511 L154.993 423.511 L154.993 426.708 L138.818 426.708 L138.818 423.511 Z" fill="#000000" fill-rule="nonzero" fill-opacity="1" /><path clip-path="url(#clip100)" d="M162.667 421.931 L166.635 421.931 L166.635 426.708 L162.667 426.708 L162.667 421.931 Z" fill="#000000" fill-rule="nonzero" fill-opacity="1" /><path clip-path="url(#clip100)" d="M178.183 423.511 L191.443 423.511 L191.443 426.708 L173.613 426.708 L173.613 423.511 Q175.776 421.273 179.5 417.511 Q183.242 413.731 184.202 412.64 Q186.026 410.59 186.741 409.179 Q187.474 407.75 187.474 406.377 Q187.474 404.139 185.894 402.728 Q184.333 401.318 181.813 401.318 Q180.026 401.318 178.033 401.938 Q176.058 402.559 173.801 403.819 L173.801 399.982 Q176.095 399.061 178.089 398.59 Q180.083 398.12 181.738 398.12 Q186.101 398.12 188.697 400.302 Q191.292 402.484 191.292 406.132 Q191.292 407.863 190.634 409.424 Q189.994 410.966 188.283 413.072 Q187.813 413.618 185.292 416.232 Q182.772 418.828 178.183 423.511 Z" fill="#000000" fill-rule="nonzero" fill-opacity="1" /><polyline clip-path="url(#clip102)" style="stroke:#009af9; stroke-linecap:round; stroke-linejoin:round; stroke-width:4; stroke-opacity:1; fill:none" points="267.012,82.4604 282.759,111.638 298.506,576.024 314.254,624.763 330.001,660.112 345.748,916.613 361.495,935.588 377.242,940.584 392.99,961.812 408.737,965.54 424.484,972.438 440.231,984.265 455.978,994.452 471.726,1001.62 487.473,1020.7 503.22,1039.45 518.967,1088.84 534.715,1103 550.462,1121.09 566.209,1139.73 581.956,1147.87 597.703,1160.42 613.451,1161.93 629.198,1162.58 644.945,1163.51 660.692,1167.27 676.44,1170.31 692.187,1179.72 707.934,1184.56 723.681,1187.03 739.428,1189.98 755.176,1194.82 770.923,1205.16 786.67,1205.63 802.417,1213.38 818.165,1219.88 833.912,1222.92 849.659,1223.64 865.406,1225.33 881.153,1226.95 896.901,1228.56 912.648,1229.35 928.395,1230.02 944.142,1230.77 959.89,1231.25 975.637,1231.97 991.384,1232.34 1007.13,1233.12 1022.88,1234.46 1038.63,1235.2 1054.37,1236.69 1070.12,1237.34 1085.87,1237.52 1101.61,1237.99 1117.36,1237.99 1133.11,1238.11 1148.86,1238.56 1164.6,1239.4 1180.35,1240.11 1196.1,1241.81 1211.85,1244.8 1227.59,1245.47 1243.34,1246.55 1259.09,1247.05 1274.83,1248.42 1290.58,1249.64 1306.33,1250.1 1322.08,1250.94 1337.82,1251.4 1353.57,1251.92 1369.32,1252.41 1385.06,1252.58 1400.81,1252.92 1416.56,1253.18 1432.31,1253.34 1448.05,1253.61 1463.8,1253.8 1479.55,1253.83 1495.3,1253.89 1511.04,1253.89 1526.79,1253.98 1542.54,1254.06 1558.28,1254.29 1574.03,1254.54 1589.78,1254.89 1605.53,1255.22 1621.27,1255.47 1637.02,1255.69 1652.77,1255.87 1668.51,1255.9 1684.26,1256.08 1700.01,1256.12 1715.76,1256.17 1731.5,1256.27 1747.25,1256.27 1763,1256.27 1778.74,1256.27 1794.49,1256.27 1810.24,1256.27 1825.99,1256.34 "/>
<polyline clip-path="url(#clip102)" style="stroke:#808080; stroke-linecap:round; stroke-linejoin:round; stroke-width:4; stroke-opacity:1; fill:none" points="550.462,2535.87 550.462,-1197.07 "/>
<path clip-path="url(#clip100)" d="M1540.27 192.401 L1817.67 192.401 L1817.67 88.7211 L1540.27 88.7211  Z" fill="#ffffff" fill-rule="evenodd" fill-opacity="1"/>
<polyline clip-path="url(#clip100)" style="stroke:#000000; stroke-linecap:round; stroke-linejoin:round; stroke-width:4; stroke-opacity:1; fill:none" points="1540.27,192.401 1817.67,192.401 1817.67,88.7211 1540.27,88.7211 1540.27,192.401 "/>
<polyline clip-path="url(#clip100)" style="stroke:#009af9; stroke-linecap:round; stroke-linejoin:round; stroke-width:4; stroke-opacity:1; fill:none" points="1558.63,140.561 1668.8,140.561 "/>
<path clip-path="url(#clip100)" d="M1711.19 143.813 L1711.19 145.897 L1691.6 145.897 Q1691.88 150.295 1694.24 152.61 Q1696.63 154.901 1700.86 154.901 Q1703.32 154.901 1705.61 154.299 Q1707.92 153.698 1710.19 152.494 L1710.19 156.522 Q1707.9 157.494 1705.49 158.003 Q1703.08 158.512 1700.61 158.512 Q1694.4 158.512 1690.77 154.901 Q1687.16 151.29 1687.16 145.133 Q1687.16 138.767 1690.58 135.04 Q1694.03 131.29 1699.87 131.29 Q1705.1 131.29 1708.13 134.67 Q1711.19 138.026 1711.19 143.813 M1706.93 142.563 Q1706.88 139.068 1704.96 136.985 Q1703.06 134.901 1699.91 134.901 Q1696.35 134.901 1694.2 136.915 Q1692.07 138.929 1691.74 142.587 L1706.93 142.563 Z" fill="#000000" fill-rule="nonzero" fill-opacity="1" /><path clip-path="url(#clip100)" d="M1733.2 135.897 Q1732.48 135.48 1731.63 135.295 Q1730.79 135.087 1729.77 135.087 Q1726.16 135.087 1724.22 137.448 Q1722.3 139.786 1722.3 144.184 L1722.3 157.841 L1718.02 157.841 L1718.02 131.915 L1722.3 131.915 L1722.3 135.943 Q1723.64 133.582 1725.79 132.448 Q1727.95 131.29 1731.02 131.29 Q1731.46 131.29 1732 131.36 Q1732.53 131.406 1733.18 131.522 L1733.2 135.897 Z" fill="#000000" fill-rule="nonzero" fill-opacity="1" /><path clip-path="url(#clip100)" d="M1751.86 135.897 Q1751.14 135.48 1750.28 135.295 Q1749.45 135.087 1748.43 135.087 Q1744.82 135.087 1742.88 137.448 Q1740.95 139.786 1740.95 144.184 L1740.95 157.841 L1736.67 157.841 L1736.67 131.915 L1740.95 131.915 L1740.95 135.943 Q1742.3 133.582 1744.45 132.448 Q1746.6 131.29 1749.68 131.29 Q1750.12 131.29 1750.65 131.36 Q1751.19 131.406 1751.83 131.522 L1751.86 135.897 Z" fill="#000000" fill-rule="nonzero" fill-opacity="1" /><path clip-path="url(#clip100)" d="M1765.33 134.901 Q1761.9 134.901 1759.91 137.587 Q1757.92 140.249 1757.92 144.901 Q1757.92 149.554 1759.89 152.239 Q1761.88 154.901 1765.33 154.901 Q1768.73 154.901 1770.72 152.216 Q1772.71 149.531 1772.71 144.901 Q1772.71 140.295 1770.72 137.61 Q1768.73 134.901 1765.33 134.901 M1765.33 131.29 Q1770.89 131.29 1774.06 134.901 Q1777.23 138.513 1777.23 144.901 Q1777.23 151.267 1774.06 154.901 Q1770.89 158.512 1765.33 158.512 Q1759.75 158.512 1756.58 154.901 Q1753.43 151.267 1753.43 144.901 Q1753.43 138.513 1756.58 134.901 Q1759.75 131.29 1765.33 131.29 Z" fill="#000000" fill-rule="nonzero" fill-opacity="1" /><path clip-path="url(#clip100)" d="M1799.31 135.897 Q1798.59 135.48 1797.74 135.295 Q1796.9 135.087 1795.88 135.087 Q1792.27 135.087 1790.33 137.448 Q1788.41 139.786 1788.41 144.184 L1788.41 157.841 L1784.13 157.841 L1784.13 131.915 L1788.41 131.915 L1788.41 135.943 Q1789.75 133.582 1791.9 132.448 Q1794.06 131.29 1797.13 131.29 Q1797.57 131.29 1798.11 131.36 Q1798.64 131.406 1799.29 131.522 L1799.31 135.897 Z" fill="#000000" fill-rule="nonzero" fill-opacity="1" /></svg>
