<?xml version="1.0" encoding="utf-8"?>
<svg xmlns="http://www.w3.org/2000/svg" xmlns:xlink="http://www.w3.org/1999/xlink" width="480" height="370" viewBox="0 0 1920 1480">
<defs>
  <clipPath id="clip760">
    <rect x="0" y="0" width="1920" height="1480"/>
  </clipPath>
</defs>
<path clip-path="url(#clip760)" d="M0 1480 L1920 1480 L1920 0 L0 0  Z" fill="#ffffff" fill-rule="evenodd" fill-opacity="1"/>
<defs>
  <clipPath id="clip761">
    <rect x="384" y="0" width="1345" height="1345"/>
  </clipPath>
</defs>
<path clip-path="url(#clip760)" d="M184.696 1291.55 L1872.76 1291.55 L1872.76 47.2441 L184.696 47.2441  Z" fill="#ffffff" fill-rule="evenodd" fill-opacity="1"/>
<defs>
  <clipPath id="clip762">
    <rect x="184" y="47" width="1689" height="1245"/>
  </clipPath>
</defs>
<polyline clip-path="url(#clip762)" style="stroke:#000000; stroke-linecap:round; stroke-linejoin:round; stroke-width:2; stroke-opacity:0.1; fill:none" points="224.469,1291.55 224.469,47.2441 "/>
<polyline clip-path="url(#clip762)" style="stroke:#000000; stroke-linecap:round; stroke-linejoin:round; stroke-width:2; stroke-opacity:0.1; fill:none" points="624.597,1291.55 624.597,47.2441 "/>
<polyline clip-path="url(#clip762)" style="stroke:#000000; stroke-linecap:round; stroke-linejoin:round; stroke-width:2; stroke-opacity:0.1; fill:none" points="1024.72,1291.55 1024.72,47.2441 "/>
<polyline clip-path="url(#clip762)" style="stroke:#000000; stroke-linecap:round; stroke-linejoin:round; stroke-width:2; stroke-opacity:0.1; fill:none" points="1424.85,1291.55 1424.85,47.2441 "/>
<polyline clip-path="url(#clip762)" style="stroke:#000000; stroke-linecap:round; stroke-linejoin:round; stroke-width:2; stroke-opacity:0.1; fill:none" points="1824.98,1291.55 1824.98,47.2441 "/>
<polyline clip-path="url(#clip760)" style="stroke:#000000; stroke-linecap:round; stroke-linejoin:round; stroke-width:4; stroke-opacity:1; fill:none" points="184.696,1291.55 1872.76,1291.55 "/>
<polyline clip-path="url(#clip760)" style="stroke:#000000; stroke-linecap:round; stroke-linejoin:round; stroke-width:4; stroke-opacity:1; fill:none" points="224.469,1291.55 224.469,1272.66 "/>
<polyline clip-path="url(#clip760)" style="stroke:#000000; stroke-linecap:round; stroke-linejoin:round; stroke-width:4; stroke-opacity:1; fill:none" points="624.597,1291.55 624.597,1272.66 "/>
<polyline clip-path="url(#clip760)" style="stroke:#000000; stroke-linecap:round; stroke-linejoin:round; stroke-width:4; stroke-opacity:1; fill:none" points="1024.72,1291.55 1024.72,1272.66 "/>
<polyline clip-path="url(#clip760)" style="stroke:#000000; stroke-linecap:round; stroke-linejoin:round; stroke-width:4; stroke-opacity:1; fill:none" points="1424.85,1291.55 1424.85,1272.66 "/>
<polyline clip-path="url(#clip760)" style="stroke:#000000; stroke-linecap:round; stroke-linejoin:round; stroke-width:4; stroke-opacity:1; fill:none" points="1824.98,1291.55 1824.98,1272.66 "/>
<path clip-path="url(#clip760)" d="M224.469 1318.63 Q220.858 1318.63 219.029 1322.2 Q217.223 1325.74 217.223 1332.87 Q217.223 1339.98 219.029 1343.54 Q220.858 1347.08 224.469 1347.08 Q228.103 1347.08 229.908 1343.54 Q231.737 1339.98 231.737 1332.87 Q231.737 1325.74 229.908 1322.2 Q228.103 1318.63 224.469 1318.63 M224.469 1314.93 Q230.279 1314.93 233.334 1319.54 Q236.413 1324.12 236.413 1332.87 Q236.413 1341.6 233.334 1346.2 Q230.279 1350.79 224.469 1350.79 Q218.658 1350.79 215.58 1346.2 Q212.524 1341.6 212.524 1332.87 Q212.524 1324.12 215.58 1319.54 Q218.658 1314.93 224.469 1314.93 Z" fill="#000000" fill-rule="nonzero" fill-opacity="1" /><path clip-path="url(#clip760)" d="M599.296 1315.55 L617.652 1315.55 L617.652 1319.49 L603.578 1319.49 L603.578 1327.96 Q604.597 1327.61 605.615 1327.45 Q606.634 1327.27 607.652 1327.27 Q613.439 1327.27 616.819 1330.44 Q620.199 1333.61 620.199 1339.03 Q620.199 1344.61 616.726 1347.71 Q613.254 1350.79 606.935 1350.79 Q604.759 1350.79 602.49 1350.42 Q600.245 1350.05 597.838 1349.3 L597.838 1344.61 Q599.921 1345.74 602.143 1346.3 Q604.365 1346.85 606.842 1346.85 Q610.847 1346.85 613.185 1344.74 Q615.523 1342.64 615.523 1339.03 Q615.523 1335.42 613.185 1333.31 Q610.847 1331.2 606.842 1331.2 Q604.967 1331.2 603.092 1331.62 Q601.24 1332.04 599.296 1332.92 L599.296 1315.55 Z" fill="#000000" fill-rule="nonzero" fill-opacity="1" /><path clip-path="url(#clip760)" d="M639.411 1318.63 Q635.8 1318.63 633.972 1322.2 Q632.166 1325.74 632.166 1332.87 Q632.166 1339.98 633.972 1343.54 Q635.8 1347.08 639.411 1347.08 Q643.046 1347.08 644.851 1343.54 Q646.68 1339.98 646.68 1332.87 Q646.68 1325.74 644.851 1322.2 Q643.046 1318.63 639.411 1318.63 M639.411 1314.93 Q645.222 1314.93 648.277 1319.54 Q651.356 1324.12 651.356 1332.87 Q651.356 1341.6 648.277 1346.2 Q645.222 1350.79 639.411 1350.79 Q633.601 1350.79 630.523 1346.2 Q627.467 1341.6 627.467 1332.87 Q627.467 1324.12 630.523 1319.54 Q633.601 1314.93 639.411 1314.93 Z" fill="#000000" fill-rule="nonzero" fill-opacity="1" /><path clip-path="url(#clip760)" d="M984.331 1346.18 L991.97 1346.18 L991.97 1319.81 L983.66 1321.48 L983.66 1317.22 L991.924 1315.55 L996.6 1315.55 L996.6 1346.18 L1004.24 1346.18 L1004.24 1350.11 L984.331 1350.11 L984.331 1346.18 Z" fill="#000000" fill-rule="nonzero" fill-opacity="1" /><path clip-path="url(#clip760)" d="M1023.68 1318.63 Q1020.07 1318.63 1018.24 1322.2 Q1016.44 1325.74 1016.44 1332.87 Q1016.44 1339.98 1018.24 1343.54 Q1020.07 1347.08 1023.68 1347.08 Q1027.32 1347.08 1029.12 1343.54 Q1030.95 1339.98 1030.95 1332.87 Q1030.95 1325.74 1029.12 1322.2 Q1027.32 1318.63 1023.68 1318.63 M1023.68 1314.93 Q1029.49 1314.93 1032.55 1319.54 Q1035.63 1324.12 1035.63 1332.87 Q1035.63 1341.6 1032.55 1346.2 Q1029.49 1350.79 1023.68 1350.79 Q1017.87 1350.79 1014.79 1346.2 Q1011.74 1341.6 1011.74 1332.87 Q1011.74 1324.12 1014.79 1319.54 Q1017.87 1314.93 1023.68 1314.93 Z" fill="#000000" fill-rule="nonzero" fill-opacity="1" /><path clip-path="url(#clip760)" d="M1053.84 1318.63 Q1050.23 1318.63 1048.41 1322.2 Q1046.6 1325.74 1046.6 1332.87 Q1046.6 1339.98 1048.41 1343.54 Q1050.23 1347.08 1053.84 1347.08 Q1057.48 1347.08 1059.28 1343.54 Q1061.11 1339.98 1061.11 1332.87 Q1061.11 1325.74 1059.28 1322.2 Q1057.48 1318.63 1053.84 1318.63 M1053.84 1314.93 Q1059.65 1314.93 1062.71 1319.54 Q1065.79 1324.12 1065.79 1332.87 Q1065.79 1341.6 1062.71 1346.2 Q1059.65 1350.79 1053.84 1350.79 Q1048.03 1350.79 1044.96 1346.2 Q1041.9 1341.6 1041.9 1332.87 Q1041.9 1324.12 1044.96 1319.54 Q1048.03 1314.93 1053.84 1314.93 Z" fill="#000000" fill-rule="nonzero" fill-opacity="1" /><path clip-path="url(#clip760)" d="M1384.46 1346.18 L1392.1 1346.18 L1392.1 1319.81 L1383.79 1321.48 L1383.79 1317.22 L1392.05 1315.55 L1396.73 1315.55 L1396.73 1346.18 L1404.37 1346.18 L1404.37 1350.11 L1384.46 1350.11 L1384.46 1346.18 Z" fill="#000000" fill-rule="nonzero" fill-opacity="1" /><path clip-path="url(#clip760)" d="M1413.86 1315.55 L1432.21 1315.55 L1432.21 1319.49 L1418.14 1319.49 L1418.14 1327.96 Q1419.16 1327.61 1420.18 1327.45 Q1421.2 1327.27 1422.21 1327.27 Q1428 1327.27 1431.38 1330.44 Q1434.76 1333.61 1434.76 1339.03 Q1434.76 1344.61 1431.29 1347.71 Q1427.82 1350.79 1421.5 1350.79 Q1419.32 1350.79 1417.05 1350.42 Q1414.81 1350.05 1412.4 1349.3 L1412.4 1344.61 Q1414.48 1345.74 1416.7 1346.3 Q1418.93 1346.85 1421.4 1346.85 Q1425.41 1346.85 1427.75 1344.74 Q1430.08 1342.64 1430.08 1339.03 Q1430.08 1335.42 1427.75 1333.31 Q1425.41 1331.2 1421.4 1331.2 Q1419.53 1331.2 1417.65 1331.62 Q1415.8 1332.04 1413.86 1332.92 L1413.86 1315.55 Z" fill="#000000" fill-rule="nonzero" fill-opacity="1" /><path clip-path="url(#clip760)" d="M1453.97 1318.63 Q1450.36 1318.63 1448.53 1322.2 Q1446.73 1325.74 1446.73 1332.87 Q1446.73 1339.98 1448.53 1343.54 Q1450.36 1347.08 1453.97 1347.08 Q1457.61 1347.08 1459.41 1343.54 Q1461.24 1339.98 1461.24 1332.87 Q1461.24 1325.74 1459.41 1322.2 Q1457.61 1318.63 1453.97 1318.63 M1453.97 1314.93 Q1459.78 1314.93 1462.84 1319.54 Q1465.92 1324.12 1465.92 1332.87 Q1465.92 1341.6 1462.84 1346.2 Q1459.78 1350.79 1453.97 1350.79 Q1448.16 1350.79 1445.08 1346.2 Q1442.03 1341.6 1442.03 1332.87 Q1442.03 1324.12 1445.08 1319.54 Q1448.16 1314.93 1453.97 1314.93 Z" fill="#000000" fill-rule="nonzero" fill-opacity="1" /><path clip-path="url(#clip760)" d="M1788.67 1346.18 L1804.99 1346.18 L1804.99 1350.11 L1783.05 1350.11 L1783.05 1346.18 Q1785.71 1343.43 1790.29 1338.8 Q1794.9 1334.14 1796.08 1332.8 Q1798.33 1330.28 1799.21 1328.54 Q1800.11 1326.78 1800.11 1325.09 Q1800.11 1322.34 1798.16 1320.6 Q1796.24 1318.87 1793.14 1318.87 Q1790.94 1318.87 1788.49 1319.63 Q1786.06 1320.39 1783.28 1321.94 L1783.28 1317.22 Q1786.1 1316.09 1788.56 1315.51 Q1791.01 1314.93 1793.05 1314.93 Q1798.42 1314.93 1801.61 1317.62 Q1804.81 1320.3 1804.81 1324.79 Q1804.81 1326.92 1804 1328.84 Q1803.21 1330.74 1801.1 1333.33 Q1800.52 1334 1797.42 1337.22 Q1794.32 1340.42 1788.67 1346.18 Z" fill="#000000" fill-rule="nonzero" fill-opacity="1" /><path clip-path="url(#clip760)" d="M1824.81 1318.63 Q1821.2 1318.63 1819.37 1322.2 Q1817.56 1325.74 1817.56 1332.87 Q1817.56 1339.98 1819.37 1343.54 Q1821.2 1347.08 1824.81 1347.08 Q1828.44 1347.08 1830.25 1343.54 Q1832.08 1339.98 1832.08 1332.87 Q1832.08 1325.74 1830.25 1322.2 Q1828.44 1318.63 1824.81 1318.63 M1824.81 1314.93 Q1830.62 1314.93 1833.67 1319.54 Q1836.75 1324.12 1836.75 1332.87 Q1836.75 1341.6 1833.67 1346.2 Q1830.62 1350.79 1824.81 1350.79 Q1819 1350.79 1815.92 1346.2 Q1812.86 1341.6 1812.86 1332.87 Q1812.86 1324.12 1815.92 1319.54 Q1819 1314.93 1824.81 1314.93 Z" fill="#000000" fill-rule="nonzero" fill-opacity="1" /><path clip-path="url(#clip760)" d="M1854.97 1318.63 Q1851.36 1318.63 1849.53 1322.2 Q1847.72 1325.74 1847.72 1332.87 Q1847.72 1339.98 1849.53 1343.54 Q1851.36 1347.08 1854.97 1347.08 Q1858.6 1347.08 1860.41 1343.54 Q1862.24 1339.98 1862.24 1332.87 Q1862.24 1325.74 1860.41 1322.2 Q1858.6 1318.63 1854.97 1318.63 M1854.97 1314.93 Q1860.78 1314.93 1863.83 1319.54 Q1866.91 1324.12 1866.91 1332.87 Q1866.91 1341.6 1863.83 1346.2 Q1860.78 1350.79 1854.97 1350.79 Q1849.16 1350.79 1846.08 1346.2 Q1843.02 1341.6 1843.02 1332.87 Q1843.02 1324.12 1846.08 1319.54 Q1849.16 1314.93 1854.97 1314.93 Z" fill="#000000" fill-rule="nonzero" fill-opacity="1" /><path clip-path="url(#clip760)" d="M896.876 1393.57 L902.733 1393.57 L902.733 1429.22 L896.876 1429.22 L896.876 1393.57 M896.876 1379.69 L902.733 1379.69 L902.733 1387.11 L896.876 1387.11 L896.876 1379.69 Z" fill="#000000" fill-rule="nonzero" fill-opacity="1" /><path clip-path="url(#clip760)" d="M920.779 1383.45 L920.779 1393.57 L932.842 1393.57 L932.842 1398.12 L920.779 1398.12 L920.779 1417.47 Q920.779 1421.83 921.957 1423.08 Q923.167 1424.32 926.827 1424.32 L932.842 1424.32 L932.842 1429.22 L926.827 1429.22 Q920.047 1429.22 917.469 1426.7 Q914.891 1424.16 914.891 1417.47 L914.891 1398.12 L910.594 1398.12 L910.594 1393.57 L914.891 1393.57 L914.891 1383.45 L920.779 1383.45 Z" fill="#000000" fill-rule="nonzero" fill-opacity="1" /><path clip-path="url(#clip760)" d="M971.037 1409.93 L971.037 1412.8 L944.11 1412.8 Q944.492 1418.84 947.738 1422.03 Q951.017 1425.18 956.841 1425.18 Q960.215 1425.18 963.366 1424.35 Q966.549 1423.52 969.668 1421.87 L969.668 1427.4 Q966.517 1428.74 963.207 1429.44 Q959.897 1430.14 956.491 1430.14 Q947.961 1430.14 942.964 1425.18 Q937.999 1420.21 937.999 1411.74 Q937.999 1402.99 942.709 1397.87 Q947.452 1392.71 955.473 1392.71 Q962.666 1392.71 966.835 1397.36 Q971.037 1401.97 971.037 1409.93 M965.18 1408.21 Q965.117 1403.41 962.475 1400.54 Q959.865 1397.68 955.536 1397.68 Q950.635 1397.68 947.675 1400.45 Q944.746 1403.21 944.301 1408.24 L965.18 1408.21 Z" fill="#000000" fill-rule="nonzero" fill-opacity="1" /><path clip-path="url(#clip760)" d="M1001.31 1399.05 Q1000.32 1398.47 999.141 1398.22 Q997.995 1397.93 996.595 1397.93 Q991.63 1397.93 988.956 1401.18 Q986.314 1404.39 986.314 1410.44 L986.314 1429.22 L980.426 1429.22 L980.426 1393.57 L986.314 1393.57 L986.314 1399.11 Q988.16 1395.86 991.12 1394.3 Q994.081 1392.71 998.314 1392.71 Q998.918 1392.71 999.651 1392.81 Q1000.38 1392.87 1001.27 1393.03 L1001.31 1399.05 Z" fill="#000000" fill-rule="nonzero" fill-opacity="1" /><path clip-path="url(#clip760)" d="M1023.65 1411.3 Q1016.55 1411.3 1013.81 1412.92 Q1011.08 1414.55 1011.08 1418.46 Q1011.08 1421.58 1013.11 1423.43 Q1015.18 1425.24 1018.72 1425.24 Q1023.59 1425.24 1026.51 1421.8 Q1029.47 1418.33 1029.47 1412.6 L1029.47 1411.3 L1023.65 1411.3 M1035.33 1408.88 L1035.33 1429.22 L1029.47 1429.22 L1029.47 1423.81 Q1027.47 1427.05 1024.48 1428.61 Q1021.48 1430.14 1017.16 1430.14 Q1011.68 1430.14 1008.44 1427.09 Q1005.22 1424 1005.22 1418.84 Q1005.22 1412.83 1009.23 1409.77 Q1013.27 1406.72 1021.26 1406.72 L1029.47 1406.72 L1029.47 1406.14 Q1029.47 1402.1 1026.8 1399.9 Q1024.16 1397.68 1019.35 1397.68 Q1016.3 1397.68 1013.4 1398.41 Q1010.5 1399.14 1007.83 1400.6 L1007.83 1395.19 Q1011.05 1393.95 1014.07 1393.35 Q1017.09 1392.71 1019.96 1392.71 Q1027.69 1392.71 1031.51 1396.72 Q1035.33 1400.73 1035.33 1408.88 Z" fill="#000000" fill-rule="nonzero" fill-opacity="1" /><path clip-path="url(#clip760)" d="M1053.19 1383.45 L1053.19 1393.57 L1065.25 1393.57 L1065.25 1398.12 L1053.19 1398.12 L1053.19 1417.47 Q1053.19 1421.83 1054.36 1423.08 Q1055.57 1424.32 1059.23 1424.32 L1065.25 1424.32 L1065.25 1429.22 L1059.23 1429.22 Q1052.45 1429.22 1049.88 1426.7 Q1047.3 1424.16 1047.3 1417.47 L1047.3 1398.12 L1043 1398.12 L1043 1393.57 L1047.3 1393.57 L1047.3 1383.45 L1053.19 1383.45 Z" fill="#000000" fill-rule="nonzero" fill-opacity="1" /><path clip-path="url(#clip760)" d="M1072.95 1393.57 L1078.81 1393.57 L1078.81 1429.22 L1072.95 1429.22 L1072.95 1393.57 M1072.95 1379.69 L1078.81 1379.69 L1078.81 1387.11 L1072.95 1387.11 L1072.95 1379.69 Z" fill="#000000" fill-rule="nonzero" fill-opacity="1" /><path clip-path="url(#clip760)" d="M1104.88 1397.68 Q1100.17 1397.68 1097.43 1401.37 Q1094.69 1405.03 1094.69 1411.43 Q1094.69 1417.82 1097.4 1421.52 Q1100.13 1425.18 1104.88 1425.18 Q1109.55 1425.18 1112.29 1421.48 Q1115.03 1417.79 1115.03 1411.43 Q1115.03 1405.09 1112.29 1401.4 Q1109.55 1397.68 1104.88 1397.68 M1104.88 1392.71 Q1112.51 1392.71 1116.88 1397.68 Q1121.24 1402.64 1121.24 1411.43 Q1121.24 1420.18 1116.88 1425.18 Q1112.51 1430.14 1104.88 1430.14 Q1097.21 1430.14 1092.84 1425.18 Q1088.52 1420.18 1088.52 1411.43 Q1088.52 1402.64 1092.84 1397.68 Q1097.21 1392.71 1104.88 1392.71 Z" fill="#000000" fill-rule="nonzero" fill-opacity="1" /><path clip-path="url(#clip760)" d="M1160.58 1407.7 L1160.58 1429.22 L1154.72 1429.22 L1154.72 1407.89 Q1154.72 1402.83 1152.75 1400.32 Q1150.77 1397.8 1146.83 1397.8 Q1142.08 1397.8 1139.35 1400.83 Q1136.61 1403.85 1136.61 1409.07 L1136.61 1429.22 L1130.72 1429.22 L1130.72 1393.57 L1136.61 1393.57 L1136.61 1399.11 Q1138.71 1395.89 1141.54 1394.3 Q1144.41 1392.71 1148.13 1392.71 Q1154.27 1392.71 1157.42 1396.53 Q1160.58 1400.32 1160.58 1407.7 Z" fill="#000000" fill-rule="nonzero" fill-opacity="1" /><polyline clip-path="url(#clip762)" style="stroke:#000000; stroke-linecap:round; stroke-linejoin:round; stroke-width:2; stroke-opacity:0.1; fill:none" points="184.696,1183.8 1872.76,1183.8 "/>
<polyline clip-path="url(#clip762)" style="stroke:#000000; stroke-linecap:round; stroke-linejoin:round; stroke-width:2; stroke-opacity:0.1; fill:none" points="184.696,455.646 1872.76,455.646 "/>
<polyline clip-path="url(#clip760)" style="stroke:#000000; stroke-linecap:round; stroke-linejoin:round; stroke-width:4; stroke-opacity:1; fill:none" points="184.696,1291.55 184.696,47.2441 "/>
<polyline clip-path="url(#clip760)" style="stroke:#000000; stroke-linecap:round; stroke-linejoin:round; stroke-width:4; stroke-opacity:1; fill:none" points="184.696,1183.8 203.594,1183.8 "/>
<polyline clip-path="url(#clip760)" style="stroke:#000000; stroke-linecap:round; stroke-linejoin:round; stroke-width:4; stroke-opacity:1; fill:none" points="184.696,455.646 203.594,455.646 "/>
<path clip-path="url(#clip760)" d="M54.0634 1203.59 L61.7023 1203.59 L61.7023 1177.22 L53.3921 1178.89 L53.3921 1174.63 L61.656 1172.97 L66.3319 1172.97 L66.3319 1203.59 L73.9707 1203.59 L73.9707 1207.53 L54.0634 1207.53 L54.0634 1203.59 Z" fill="#000000" fill-rule="nonzero" fill-opacity="1" /><path clip-path="url(#clip760)" d="M93.4151 1176.04 Q89.804 1176.04 87.9753 1179.61 Q86.1697 1183.15 86.1697 1190.28 Q86.1697 1197.39 87.9753 1200.95 Q89.804 1204.49 93.4151 1204.49 Q97.0493 1204.49 98.8548 1200.95 Q100.684 1197.39 100.684 1190.28 Q100.684 1183.15 98.8548 1179.61 Q97.0493 1176.04 93.4151 1176.04 M93.4151 1172.34 Q99.2252 1172.34 102.281 1176.95 Q105.359 1181.53 105.359 1190.28 Q105.359 1199.01 102.281 1203.61 Q99.2252 1208.2 93.4151 1208.2 Q87.6049 1208.2 84.5262 1203.61 Q81.4707 1199.01 81.4707 1190.28 Q81.4707 1181.53 84.5262 1176.95 Q87.6049 1172.34 93.4151 1172.34 Z" fill="#000000" fill-rule="nonzero" fill-opacity="1" /><path clip-path="url(#clip760)" d="M105.359 1166.44 L129.471 1166.44 L129.471 1169.64 L105.359 1169.64 L105.359 1166.44 Z" fill="#000000" fill-rule="nonzero" fill-opacity="1" /><path clip-path="url(#clip760)" d="M148.11 1155.35 L138.518 1170.34 L148.11 1170.34 L148.11 1155.35 M147.113 1152.04 L151.89 1152.04 L151.89 1170.34 L155.896 1170.34 L155.896 1173.49 L151.89 1173.49 L151.89 1180.12 L148.11 1180.12 L148.11 1173.49 L135.433 1173.49 L135.433 1169.83 L147.113 1152.04 Z" fill="#000000" fill-rule="nonzero" fill-opacity="1" /><path clip-path="url(#clip760)" d="M55.7561 475.438 L63.395 475.438 L63.395 449.072 L55.0848 450.739 L55.0848 446.48 L63.3487 444.813 L68.0246 444.813 L68.0246 475.438 L75.6634 475.438 L75.6634 479.373 L55.7561 479.373 L55.7561 475.438 Z" fill="#000000" fill-rule="nonzero" fill-opacity="1" /><path clip-path="url(#clip760)" d="M95.1078 447.892 Q91.4967 447.892 89.668 451.457 Q87.8624 454.998 87.8624 462.128 Q87.8624 469.234 89.668 472.799 Q91.4967 476.341 95.1078 476.341 Q98.742 476.341 100.548 472.799 Q102.376 469.234 102.376 462.128 Q102.376 454.998 100.548 451.457 Q98.742 447.892 95.1078 447.892 M95.1078 444.188 Q100.918 444.188 103.973 448.795 Q107.052 453.378 107.052 462.128 Q107.052 470.855 103.973 475.461 Q100.918 480.045 95.1078 480.045 Q89.2976 480.045 86.2189 475.461 Q83.1634 470.855 83.1634 462.128 Q83.1634 453.378 86.2189 448.795 Q89.2976 444.188 95.1078 444.188 Z" fill="#000000" fill-rule="nonzero" fill-opacity="1" /><path clip-path="url(#clip760)" d="M107.052 438.29 L131.164 438.29 L131.164 441.487 L107.052 441.487 L107.052 438.29 Z" fill="#000000" fill-rule="nonzero" fill-opacity="1" /><path clip-path="url(#clip760)" d="M142.636 448.766 L155.896 448.766 L155.896 451.963 L138.066 451.963 L138.066 448.766 Q140.229 446.527 143.953 442.766 Q147.696 438.985 148.655 437.895 Q150.479 435.845 151.194 434.434 Q151.927 433.005 151.927 431.632 Q151.927 429.394 150.348 427.983 Q148.787 426.572 146.266 426.572 Q144.48 426.572 142.486 427.193 Q140.511 427.814 138.254 429.074 L138.254 425.237 Q140.549 424.315 142.542 423.845 Q144.536 423.375 146.191 423.375 Q150.555 423.375 153.15 425.557 Q155.745 427.738 155.745 431.387 Q155.745 433.117 155.087 434.679 Q154.448 436.221 152.736 438.327 Q152.266 438.873 149.746 441.487 Q147.226 444.082 142.636 448.766 Z" fill="#000000" fill-rule="nonzero" fill-opacity="1" /><polyline clip-path="url(#clip762)" style="stroke:#009af9; stroke-linecap:round; stroke-linejoin:round; stroke-width:4; stroke-opacity:1; fill:none" points="232.471,82.4604 240.474,121.569 248.476,231.717 256.479,249.501 264.481,306.581 272.484,315.208 280.487,317.018 288.489,318.349 296.492,321.751 304.494,323.499 312.497,323.938 320.499,324.618 328.502,325.422 336.504,326.384 344.507,327.411 352.51,331.573 360.512,336.223 368.515,337.195 376.517,338.36 384.52,340.832 392.522,351.528 400.525,353.418 408.528,362.668 416.53,374.36 424.533,397.586 432.535,425.155 440.538,479.906 448.54,492.709 456.543,518.965 464.545,537.966 472.548,567.096 480.551,576.904 488.553,592.497 496.556,628.026 504.558,654.516 512.561,681.134 520.563,737.426 528.566,752.31 536.568,758.24 544.571,771.022 552.574,826.498 560.576,896.31 568.579,937.98 576.581,985.045 584.584,1007.03 592.586,1030.21 600.589,1047.74 608.592,1052.63 616.594,1059.71 624.597,1064.74 632.599,1068.23 640.602,1083.72 648.604,1094.28 656.607,1099.03 664.609,1100.68 672.612,1104.77 680.615,1121.42 688.617,1125.31 696.62,1130.83 704.622,1131.79 712.625,1132.82 720.627,1133.07 728.63,1134.71 736.632,1139.34 744.635,1144.04 752.638,1145.69 760.64,1145.91 768.643,1146.12 776.645,1146.78 784.648,1147.02 792.65,1147.41 800.653,1147.69 808.656,1148.28 816.658,1150.88 824.661,1158.75 832.663,1163.96 840.666,1165.91 848.668,1171.13 856.671,1172.08 864.673,1172.67 872.676,1173.32 880.679,1173.83 888.681,1174.39 896.684,1174.74 904.686,1175.05 912.689,1175.8 920.691,1176.86 928.694,1178.25 936.696,1178.96 944.699,1182.56 952.702,1185.44 960.704,1187.12 968.707,1189.25 976.709,1191.21 984.712,1192.44 992.714,1193.48 1000.72,1194.49 1008.72,1194.8 1016.72,1195.02 1024.72,1195.18 1032.73,1195.65 1040.73,1197.49 1048.73,1198.27 1056.73,1198.53 1064.74,1198.9 1072.74,1199.73 1080.74,1200.17 1088.75,1200.57 1096.75,1200.84 1104.75,1201.11 1112.75,1201.58 1120.76,1202.19 1128.76,1202.46 1136.76,1202.65 1144.76,1203.21 1152.77,1203.55 1160.77,1203.7 1168.77,1203.92 1176.77,1204.43 1184.78,1205.91 1192.78,1206.72 1200.78,1207.55 1208.78,1208.21 1216.79,1209.1 1224.79,1209.95 1232.79,1210.42 1240.79,1210.87 1248.8,1211.22 1256.8,1212.01 1264.8,1213.21 1272.8,1213.83 1280.81,1214.06 1288.81,1214.23 1296.81,1214.44 1304.81,1215.04 1312.82,1216.36 1320.82,1217.28 1328.82,1218.31 1336.82,1218.69 1344.83,1219.74 1352.83,1220.87 1360.83,1222.81 1368.83,1223.5 1376.84,1223.9 1384.84,1224.22 1392.84,1224.4 1400.84,1224.49 1408.85,1224.63 1416.85,1225.24 1424.85,1227.11 1432.86,1229.05 1440.86,1230 1448.86,1230.94 1456.86,1231.71 1464.87,1232.39 1472.87,1232.96 1480.87,1233.92 1488.87,1235.14 1496.88,1236.07 1504.88,1237.33 1512.88,1237.66 1520.88,1238.09 1528.89,1238.47 1536.89,1239.4 1544.89,1240.03 1552.89,1240.5 1560.9,1241.05 1568.9,1241.44 1576.9,1241.88 1584.9,1242.6 1592.91,1243.37 1600.91,1244.15 1608.91,1244.95 1616.91,1245.74 1624.92,1245.89 1632.92,1246.23 1640.92,1246.52 1648.92,1246.78 1656.93,1247.38 1664.93,1248.05 1672.93,1249.17 1680.93,1249.91 1688.94,1250.36 1696.94,1251.29 1704.94,1251.88 1712.94,1252.02 1720.95,1252.12 1728.95,1252.25 1736.95,1252.38 1744.96,1252.72 1752.96,1253.27 1760.96,1253.83 1768.96,1254.3 1776.97,1254.76 1784.97,1255.17 1792.97,1255.51 1800.97,1256.01 1808.98,1256.2 1816.98,1256.28 1824.98,1256.34 "/>
<polyline clip-path="url(#clip762)" style="stroke:#808080; stroke-linecap:round; stroke-linejoin:round; stroke-width:4; stroke-opacity:1; fill:none" points="464.545,2535.87 464.545,-1197.07 "/>
<path clip-path="url(#clip760)" d="M1535.53 192.401 L1816.49 192.401 L1816.49 88.7211 L1535.53 88.7211  Z" fill="#ffffff" fill-rule="evenodd" fill-opacity="1"/>
<polyline clip-path="url(#clip760)" style="stroke:#000000; stroke-linecap:round; stroke-linejoin:round; stroke-width:4; stroke-opacity:1; fill:none" points="1535.53,192.401 1816.49,192.401 1816.49,88.7211 1535.53,88.7211 1535.53,192.401 "/>
<polyline clip-path="url(#clip760)" style="stroke:#009af9; stroke-linecap:round; stroke-linejoin:round; stroke-width:4; stroke-opacity:1; fill:none" points="1554.29,140.561 1666.82,140.561 "/>
<path clip-path="url(#clip760)" d="M1709.61 143.813 L1709.61 145.897 L1690.02 145.897 Q1690.3 150.295 1692.66 152.61 Q1695.05 154.901 1699.28 154.901 Q1701.74 154.901 1704.03 154.299 Q1706.34 153.698 1708.61 152.494 L1708.61 156.522 Q1706.32 157.494 1703.91 158.003 Q1701.5 158.512 1699.03 158.512 Q1692.82 158.512 1689.19 154.901 Q1685.58 151.29 1685.58 145.133 Q1685.58 138.767 1689 135.04 Q1692.45 131.29 1698.29 131.29 Q1703.52 131.29 1706.55 134.67 Q1709.61 138.026 1709.61 143.813 M1705.35 142.563 Q1705.3 139.068 1703.38 136.985 Q1701.48 134.901 1698.33 134.901 Q1694.77 134.901 1692.62 136.915 Q1690.49 138.929 1690.16 142.587 L1705.35 142.563 Z" fill="#000000" fill-rule="nonzero" fill-opacity="1" /><path clip-path="url(#clip760)" d="M1731.62 135.897 Q1730.9 135.48 1730.05 135.295 Q1729.21 135.087 1728.19 135.087 Q1724.58 135.087 1722.64 137.448 Q1720.72 139.786 1720.72 144.184 L1720.72 157.841 L1716.44 157.841 L1716.44 131.915 L1720.72 131.915 L1720.72 135.943 Q1722.06 133.582 1724.21 132.448 Q1726.37 131.29 1729.44 131.29 Q1729.88 131.29 1730.42 131.36 Q1730.95 131.406 1731.6 131.522 L1731.62 135.897 Z" fill="#000000" fill-rule="nonzero" fill-opacity="1" /><path clip-path="url(#clip760)" d="M1750.28 135.897 Q1749.56 135.48 1748.7 135.295 Q1747.87 135.087 1746.85 135.087 Q1743.24 135.087 1741.3 137.448 Q1739.37 139.786 1739.37 144.184 L1739.37 157.841 L1735.09 157.841 L1735.09 131.915 L1739.37 131.915 L1739.37 135.943 Q1740.72 133.582 1742.87 132.448 Q1745.02 131.29 1748.1 131.29 Q1748.54 131.29 1749.07 131.36 Q1749.61 131.406 1750.25 131.522 L1750.28 135.897 Z" fill="#000000" fill-rule="nonzero" fill-opacity="1" /><path clip-path="url(#clip760)" d="M1763.75 134.901 Q1760.32 134.901 1758.33 137.587 Q1756.34 140.249 1756.34 144.901 Q1756.34 149.554 1758.31 152.239 Q1760.3 154.901 1763.75 154.901 Q1767.15 154.901 1769.14 152.216 Q1771.13 149.531 1771.13 144.901 Q1771.13 140.295 1769.14 137.61 Q1767.15 134.901 1763.75 134.901 M1763.75 131.29 Q1769.31 131.29 1772.48 134.901 Q1775.65 138.513 1775.65 144.901 Q1775.65 151.267 1772.48 154.901 Q1769.31 158.512 1763.75 158.512 Q1758.17 158.512 1755 154.901 Q1751.85 151.267 1751.85 144.901 Q1751.85 138.513 1755 134.901 Q1758.17 131.29 1763.75 131.29 Z" fill="#000000" fill-rule="nonzero" fill-opacity="1" /><path clip-path="url(#clip760)" d="M1797.73 135.897 Q1797.01 135.48 1796.16 135.295 Q1795.32 135.087 1794.31 135.087 Q1790.69 135.087 1788.75 137.448 Q1786.83 139.786 1786.83 144.184 L1786.83 157.841 L1782.55 157.841 L1782.55 131.915 L1786.83 131.915 L1786.83 135.943 Q1788.17 133.582 1790.32 132.448 Q1792.48 131.29 1795.56 131.29 Q1795.99 131.29 1796.53 131.36 Q1797.06 131.406 1797.71 131.522 L1797.73 135.897 Z" fill="#000000" fill-rule="nonzero" fill-opacity="1" /></svg>
