<?xml version="1.0" encoding="utf-8"?>
<svg xmlns="http://www.w3.org/2000/svg" xmlns:xlink="http://www.w3.org/1999/xlink" width="430" height="430" viewBox="0 0 1720 1720">
<defs>
  <clipPath id="clip160">
    <rect x="0" y="0" width="1720" height="1720"/>
  </clipPath>
</defs>
<path clip-path="url(#clip160)" d="M0 1720 L1720 1720 L1720 0 L0 0  Z" fill="#ffffff" fill-rule="evenodd" fill-opacity="1"/>
<defs>
  <clipPath id="clip161">
    <rect x="344" y="172" width="1205" height="1205"/>
  </clipPath>
</defs>
<path clip-path="url(#clip160)" d="M209.636 1500.94 L1609.76 1500.94 L1609.76 47.2441 L209.636 47.2441  Z" fill="#ffffff" fill-rule="evenodd" fill-opacity="1"/>
<defs>
  <clipPath id="clip162">
    <rect x="209" y="47" width="1401" height="1455"/>
  </clipPath>
</defs>
<polyline clip-path="url(#clip162)" style="stroke:#000000; stroke-linecap:round; stroke-linejoin:round; stroke-width:2; stroke-opacity:0.1; fill:none" points="249.262,1500.94 249.262,47.2441 "/>
<polyline clip-path="url(#clip162)" style="stroke:#000000; stroke-linecap:round; stroke-linejoin:round; stroke-width:2; stroke-opacity:0.1; fill:none" points="459.486,1500.94 459.486,47.2441 "/>
<polyline clip-path="url(#clip162)" style="stroke:#000000; stroke-linecap:round; stroke-linejoin:round; stroke-width:2; stroke-opacity:0.1; fill:none" points="669.71,1500.94 669.71,47.2441 "/>
<polyline clip-path="url(#clip162)" style="stroke:#000000; stroke-linecap:round; stroke-linejoin:round; stroke-width:2; stroke-opacity:0.1; fill:none" points="879.934,1500.94 879.934,47.2441 "/>
<polyline clip-path="url(#clip162)" style="stroke:#000000; stroke-linecap:round; stroke-linejoin:round; stroke-width:2; stroke-opacity:0.1; fill:none" points="1090.16,1500.94 1090.16,47.2441 "/>
<polyline clip-path="url(#clip162)" style="stroke:#000000; stroke-linecap:round; stroke-linejoin:round; stroke-width:2; stroke-opacity:0.1; fill:none" points="1300.38,1500.94 1300.38,47.2441 "/>
<polyline clip-path="url(#clip162)" style="stroke:#000000; stroke-linecap:round; stroke-linejoin:round; stroke-width:2; stroke-opacity:0.1; fill:none" points="1510.61,1500.94 1510.61,47.2441 "/>
<polyline clip-path="url(#clip160)" style="stroke:#000000; stroke-linecap:round; stroke-linejoin:round; stroke-width:4; stroke-opacity:1; fill:none" points="209.636,1500.94 1609.76,1500.94 "/>
<polyline clip-path="url(#clip160)" style="stroke:#000000; stroke-linecap:round; stroke-linejoin:round; stroke-width:4; stroke-opacity:1; fill:none" points="249.262,1500.94 249.262,1482.04 "/>
<polyline clip-path="url(#clip160)" style="stroke:#000000; stroke-linecap:round; stroke-linejoin:round; stroke-width:4; stroke-opacity:1; fill:none" points="459.486,1500.94 459.486,1482.04 "/>
<polyline clip-path="url(#clip160)" style="stroke:#000000; stroke-linecap:round; stroke-linejoin:round; stroke-width:4; stroke-opacity:1; fill:none" points="669.71,1500.94 669.71,1482.04 "/>
<polyline clip-path="url(#clip160)" style="stroke:#000000; stroke-linecap:round; stroke-linejoin:round; stroke-width:4; stroke-opacity:1; fill:none" points="879.934,1500.94 879.934,1482.04 "/>
<polyline clip-path="url(#clip160)" style="stroke:#000000; stroke-linecap:round; stroke-linejoin:round; stroke-width:4; stroke-opacity:1; fill:none" points="1090.16,1500.94 1090.16,1482.04 "/>
<polyline clip-path="url(#clip160)" style="stroke:#000000; stroke-linecap:round; stroke-linejoin:round; stroke-width:4; stroke-opacity:1; fill:none" points="1300.38,1500.94 1300.38,1482.04 "/>
<polyline clip-path="url(#clip160)" style="stroke:#000000; stroke-linecap:round; stroke-linejoin:round; stroke-width:4; stroke-opacity:1; fill:none" points="1510.61,1500.94 1510.61,1482.04 "/>
<path clip-path="url(#clip160)" d="M249.262 1526.42 Q245.651 1526.42 243.822 1529.98 Q242.017 1533.52 242.017 1540.65 Q242.017 1547.76 243.822 1551.33 Q245.651 1554.87 249.262 1554.87 Q252.896 1554.87 254.702 1551.33 Q256.531 1547.76 256.531 1540.65 Q256.531 1533.52 254.702 1529.98 Q252.896 1526.42 249.262 1526.42 M249.262 1522.71 Q255.072 1522.71 258.128 1527.32 Q261.207 1531.9 261.207 1540.65 Q261.207 1549.38 258.128 1553.99 Q255.072 1558.57 249.262 1558.57 Q243.452 1558.57 240.373 1553.99 Q237.318 1549.38 237.318 1540.65 Q237.318 1531.9 240.373 1527.32 Q243.452 1522.71 249.262 1522.71 Z" fill="#000000" fill-rule="nonzero" fill-opacity="1" /><path clip-path="url(#clip160)" d="M449.868 1553.96 L457.507 1553.96 L457.507 1527.6 L449.197 1529.27 L449.197 1525.01 L457.461 1523.34 L462.136 1523.34 L462.136 1553.96 L469.775 1553.96 L469.775 1557.9 L449.868 1557.9 L449.868 1553.96 Z" fill="#000000" fill-rule="nonzero" fill-opacity="1" /><path clip-path="url(#clip160)" d="M664.363 1553.96 L680.682 1553.96 L680.682 1557.9 L658.738 1557.9 L658.738 1553.96 Q661.4 1551.21 665.983 1546.58 Q670.589 1541.93 671.77 1540.59 Q674.015 1538.06 674.895 1536.33 Q675.798 1534.57 675.798 1532.88 Q675.798 1530.12 673.853 1528.39 Q671.932 1526.65 668.83 1526.65 Q666.631 1526.65 664.177 1527.41 Q661.747 1528.18 658.969 1529.73 L658.969 1525.01 Q661.793 1523.87 664.247 1523.29 Q666.701 1522.71 668.738 1522.71 Q674.108 1522.71 677.302 1525.4 Q680.497 1528.09 680.497 1532.58 Q680.497 1534.71 679.687 1536.63 Q678.9 1538.52 676.793 1541.12 Q676.214 1541.79 673.113 1545.01 Q670.011 1548.2 664.363 1553.96 Z" fill="#000000" fill-rule="nonzero" fill-opacity="1" /><path clip-path="url(#clip160)" d="M884.181 1539.27 Q887.538 1539.98 889.413 1542.25 Q891.311 1544.52 891.311 1547.85 Q891.311 1552.97 887.792 1555.77 Q884.274 1558.57 877.792 1558.57 Q875.617 1558.57 873.302 1558.13 Q871.01 1557.71 868.556 1556.86 L868.556 1552.34 Q870.501 1553.48 872.816 1554.06 Q875.13 1554.64 877.654 1554.64 Q882.052 1554.64 884.343 1552.9 Q886.658 1551.16 886.658 1547.85 Q886.658 1544.8 884.505 1543.09 Q882.376 1541.35 878.556 1541.35 L874.529 1541.35 L874.529 1537.51 L878.742 1537.51 Q882.191 1537.51 884.019 1536.14 Q885.848 1534.75 885.848 1532.16 Q885.848 1529.5 883.95 1528.09 Q882.075 1526.65 878.556 1526.65 Q876.635 1526.65 874.436 1527.07 Q872.237 1527.48 869.598 1528.36 L869.598 1524.2 Q872.26 1523.46 874.575 1523.09 Q876.913 1522.71 878.973 1522.71 Q884.297 1522.71 887.399 1525.15 Q890.501 1527.55 890.501 1531.67 Q890.501 1534.54 888.857 1536.53 Q887.214 1538.5 884.181 1539.27 Z" fill="#000000" fill-rule="nonzero" fill-opacity="1" /><path clip-path="url(#clip160)" d="M1093.17 1527.41 L1081.36 1545.86 L1093.17 1545.86 L1093.17 1527.41 M1091.94 1523.34 L1097.82 1523.34 L1097.82 1545.86 L1102.75 1545.86 L1102.75 1549.75 L1097.82 1549.75 L1097.82 1557.9 L1093.17 1557.9 L1093.17 1549.75 L1077.56 1549.75 L1077.56 1545.24 L1091.94 1523.34 Z" fill="#000000" fill-rule="nonzero" fill-opacity="1" /><path clip-path="url(#clip160)" d="M1290.66 1523.34 L1309.02 1523.34 L1309.02 1527.28 L1294.94 1527.28 L1294.94 1535.75 Q1295.96 1535.4 1296.98 1535.24 Q1298 1535.05 1299.02 1535.05 Q1304.8 1535.05 1308.18 1538.22 Q1311.56 1541.4 1311.56 1546.81 Q1311.56 1552.39 1308.09 1555.49 Q1304.62 1558.57 1298.3 1558.57 Q1296.12 1558.57 1293.85 1558.2 Q1291.61 1557.83 1289.2 1557.09 L1289.2 1552.39 Q1291.28 1553.52 1293.51 1554.08 Q1295.73 1554.64 1298.21 1554.64 Q1302.21 1554.64 1304.55 1552.53 Q1306.89 1550.42 1306.89 1546.81 Q1306.89 1543.2 1304.55 1541.09 Q1302.21 1538.99 1298.21 1538.99 Q1296.33 1538.99 1294.46 1539.4 Q1292.6 1539.82 1290.66 1540.7 L1290.66 1523.34 Z" fill="#000000" fill-rule="nonzero" fill-opacity="1" /><path clip-path="url(#clip160)" d="M1511.01 1538.76 Q1507.86 1538.76 1506.01 1540.91 Q1504.18 1543.06 1504.18 1546.81 Q1504.18 1550.54 1506.01 1552.71 Q1507.86 1554.87 1511.01 1554.87 Q1514.16 1554.87 1515.99 1552.71 Q1517.84 1550.54 1517.84 1546.81 Q1517.84 1543.06 1515.99 1540.91 Q1514.16 1538.76 1511.01 1538.76 M1520.29 1524.1 L1520.29 1528.36 Q1518.53 1527.53 1516.73 1527.09 Q1514.95 1526.65 1513.19 1526.65 Q1508.56 1526.65 1506.1 1529.77 Q1503.67 1532.9 1503.33 1539.22 Q1504.69 1537.21 1506.75 1536.14 Q1508.81 1535.05 1511.29 1535.05 Q1516.5 1535.05 1519.51 1538.22 Q1522.54 1541.37 1522.54 1546.81 Q1522.54 1552.14 1519.39 1555.35 Q1516.24 1558.57 1511.01 1558.57 Q1505.01 1558.57 1501.84 1553.99 Q1498.67 1549.38 1498.67 1540.65 Q1498.67 1532.46 1502.56 1527.6 Q1506.45 1522.71 1513 1522.71 Q1514.76 1522.71 1516.54 1523.06 Q1518.35 1523.41 1520.29 1524.1 Z" fill="#000000" fill-rule="nonzero" fill-opacity="1" /><path clip-path="url(#clip160)" d="M919.821 1613.01 L899.547 1613.01 Q900.024 1622.52 902.22 1626.56 Q904.957 1631.53 909.7 1631.53 Q914.474 1631.53 917.116 1626.53 Q919.439 1622.14 919.821 1613.01 M919.726 1607.59 Q918.835 1598.56 917.116 1595.37 Q914.379 1590.34 909.7 1590.34 Q904.83 1590.34 902.252 1595.31 Q900.215 1599.32 899.61 1607.59 L919.726 1607.59 M909.7 1585.57 Q917.339 1585.57 921.699 1592.32 Q926.06 1599.03 926.06 1610.94 Q926.06 1622.81 921.699 1629.56 Q917.339 1636.34 909.7 1636.34 Q902.029 1636.34 897.7 1629.56 Q893.34 1622.81 893.34 1610.94 Q893.34 1599.03 897.7 1592.32 Q902.029 1585.57 909.7 1585.57 Z" fill="#000000" fill-rule="nonzero" fill-opacity="1" /><polyline clip-path="url(#clip162)" style="stroke:#000000; stroke-linecap:round; stroke-linejoin:round; stroke-width:2; stroke-opacity:0.1; fill:none" points="209.636,1255.85 1609.76,1255.85 "/>
<polyline clip-path="url(#clip162)" style="stroke:#000000; stroke-linecap:round; stroke-linejoin:round; stroke-width:2; stroke-opacity:0.1; fill:none" points="209.636,962.101 1609.76,962.101 "/>
<polyline clip-path="url(#clip162)" style="stroke:#000000; stroke-linecap:round; stroke-linejoin:round; stroke-width:2; stroke-opacity:0.1; fill:none" points="209.636,668.355 1609.76,668.355 "/>
<polyline clip-path="url(#clip162)" style="stroke:#000000; stroke-linecap:round; stroke-linejoin:round; stroke-width:2; stroke-opacity:0.1; fill:none" points="209.636,374.609 1609.76,374.609 "/>
<polyline clip-path="url(#clip162)" style="stroke:#000000; stroke-linecap:round; stroke-linejoin:round; stroke-width:2; stroke-opacity:0.1; fill:none" points="209.636,80.8637 1609.76,80.8637 "/>
<polyline clip-path="url(#clip160)" style="stroke:#000000; stroke-linecap:round; stroke-linejoin:round; stroke-width:4; stroke-opacity:1; fill:none" points="209.636,1500.94 209.636,47.2441 "/>
<polyline clip-path="url(#clip160)" style="stroke:#000000; stroke-linecap:round; stroke-linejoin:round; stroke-width:4; stroke-opacity:1; fill:none" points="209.636,1255.85 228.534,1255.85 "/>
<polyline clip-path="url(#clip160)" style="stroke:#000000; stroke-linecap:round; stroke-linejoin:round; stroke-width:4; stroke-opacity:1; fill:none" points="209.636,962.101 228.534,962.101 "/>
<polyline clip-path="url(#clip160)" style="stroke:#000000; stroke-linecap:round; stroke-linejoin:round; stroke-width:4; stroke-opacity:1; fill:none" points="209.636,668.355 228.534,668.355 "/>
<polyline clip-path="url(#clip160)" style="stroke:#000000; stroke-linecap:round; stroke-linejoin:round; stroke-width:4; stroke-opacity:1; fill:none" points="209.636,374.609 228.534,374.609 "/>
<polyline clip-path="url(#clip160)" style="stroke:#000000; stroke-linecap:round; stroke-linejoin:round; stroke-width:4; stroke-opacity:1; fill:none" points="209.636,80.8637 228.534,80.8637 "/>
<path clip-path="url(#clip160)" d="M67.3319 1241.65 Q63.7208 1241.65 61.8921 1245.21 Q60.0865 1248.75 60.0865 1255.88 Q60.0865 1262.99 61.8921 1266.55 Q63.7208 1270.09 67.3319 1270.09 Q70.9661 1270.09 72.7717 1266.55 Q74.6004 1262.99 74.6004 1255.88 Q74.6004 1248.75 72.7717 1245.21 Q70.9661 1241.65 67.3319 1241.65 M67.3319 1237.94 Q73.142 1237.94 76.1976 1242.55 Q79.2763 1247.13 79.2763 1255.88 Q79.2763 1264.61 76.1976 1269.21 Q73.142 1273.8 67.3319 1273.8 Q61.5217 1273.8 58.443 1269.21 Q55.3875 1264.61 55.3875 1255.88 Q55.3875 1247.13 58.443 1242.55 Q61.5217 1237.94 67.3319 1237.94 Z" fill="#000000" fill-rule="nonzero" fill-opacity="1" /><path clip-path="url(#clip160)" d="M87.4938 1267.25 L92.378 1267.25 L92.378 1273.13 L87.4938 1273.13 L87.4938 1267.25 Z" fill="#000000" fill-rule="nonzero" fill-opacity="1" /><path clip-path="url(#clip160)" d="M112.563 1241.65 Q108.952 1241.65 107.123 1245.21 Q105.318 1248.75 105.318 1255.88 Q105.318 1262.99 107.123 1266.55 Q108.952 1270.09 112.563 1270.09 Q116.197 1270.09 118.003 1266.55 Q119.832 1262.99 119.832 1255.88 Q119.832 1248.75 118.003 1245.21 Q116.197 1241.65 112.563 1241.65 M112.563 1237.94 Q118.373 1237.94 121.429 1242.55 Q124.507 1247.13 124.507 1255.88 Q124.507 1264.61 121.429 1269.21 Q118.373 1273.8 112.563 1273.8 Q106.753 1273.8 103.674 1269.21 Q100.619 1264.61 100.619 1255.88 Q100.619 1247.13 103.674 1242.55 Q106.753 1237.94 112.563 1237.94 Z" fill="#000000" fill-rule="nonzero" fill-opacity="1" /><path clip-path="url(#clip160)" d="M142.725 1241.65 Q139.114 1241.65 137.285 1245.21 Q135.48 1248.75 135.48 1255.88 Q135.48 1262.99 137.285 1266.55 Q139.114 1270.09 142.725 1270.09 Q146.359 1270.09 148.165 1266.55 Q149.993 1262.99 149.993 1255.88 Q149.993 1248.75 148.165 1245.21 Q146.359 1241.65 142.725 1241.65 M142.725 1237.94 Q148.535 1237.94 151.591 1242.55 Q154.669 1247.13 154.669 1255.88 Q154.669 1264.61 151.591 1269.21 Q148.535 1273.8 142.725 1273.8 Q136.915 1273.8 133.836 1269.21 Q130.781 1264.61 130.781 1255.88 Q130.781 1247.13 133.836 1242.55 Q136.915 1237.94 142.725 1237.94 Z" fill="#000000" fill-rule="nonzero" fill-opacity="1" /><path clip-path="url(#clip160)" d="M162.933 1238.57 L181.29 1238.57 L181.29 1242.5 L167.216 1242.5 L167.216 1250.97 Q168.234 1250.63 169.253 1250.46 Q170.271 1250.28 171.29 1250.28 Q177.077 1250.28 180.456 1253.45 Q183.836 1256.62 183.836 1262.04 Q183.836 1267.62 180.364 1270.72 Q176.891 1273.8 170.572 1273.8 Q168.396 1273.8 166.128 1273.43 Q163.882 1273.06 161.475 1272.32 L161.475 1267.62 Q163.558 1268.75 165.78 1269.31 Q168.003 1269.86 170.479 1269.86 Q174.484 1269.86 176.822 1267.76 Q179.16 1265.65 179.16 1262.04 Q179.16 1258.43 176.822 1256.32 Q174.484 1254.21 170.479 1254.21 Q168.604 1254.21 166.729 1254.63 Q164.878 1255.05 162.933 1255.93 L162.933 1238.57 Z" fill="#000000" fill-rule="nonzero" fill-opacity="1" /><path clip-path="url(#clip160)" d="M66.3365 947.9 Q62.7254 947.9 60.8967 951.464 Q59.0912 955.006 59.0912 962.136 Q59.0912 969.242 60.8967 972.807 Q62.7254 976.349 66.3365 976.349 Q69.9707 976.349 71.7763 972.807 Q73.605 969.242 73.605 962.136 Q73.605 955.006 71.7763 951.464 Q69.9707 947.9 66.3365 947.9 M66.3365 944.196 Q72.1467 944.196 75.2022 948.802 Q78.2809 953.386 78.2809 962.136 Q78.2809 970.862 75.2022 975.469 Q72.1467 980.052 66.3365 980.052 Q60.5264 980.052 57.4477 975.469 Q54.3921 970.862 54.3921 962.136 Q54.3921 953.386 57.4477 948.802 Q60.5264 944.196 66.3365 944.196 Z" fill="#000000" fill-rule="nonzero" fill-opacity="1" /><path clip-path="url(#clip160)" d="M86.4984 973.501 L91.3827 973.501 L91.3827 979.381 L86.4984 979.381 L86.4984 973.501 Z" fill="#000000" fill-rule="nonzero" fill-opacity="1" /><path clip-path="url(#clip160)" d="M111.568 947.9 Q107.957 947.9 106.128 951.464 Q104.322 955.006 104.322 962.136 Q104.322 969.242 106.128 972.807 Q107.957 976.349 111.568 976.349 Q115.202 976.349 117.008 972.807 Q118.836 969.242 118.836 962.136 Q118.836 955.006 117.008 951.464 Q115.202 947.9 111.568 947.9 M111.568 944.196 Q117.378 944.196 120.433 948.802 Q123.512 953.386 123.512 962.136 Q123.512 970.862 120.433 975.469 Q117.378 980.052 111.568 980.052 Q105.758 980.052 102.679 975.469 Q99.6234 970.862 99.6234 962.136 Q99.6234 953.386 102.679 948.802 Q105.758 944.196 111.568 944.196 Z" fill="#000000" fill-rule="nonzero" fill-opacity="1" /><path clip-path="url(#clip160)" d="M132.54 975.446 L140.179 975.446 L140.179 949.08 L131.869 950.747 L131.869 946.488 L140.132 944.821 L144.808 944.821 L144.808 975.446 L152.447 975.446 L152.447 979.381 L132.54 979.381 L132.54 975.446 Z" fill="#000000" fill-rule="nonzero" fill-opacity="1" /><path clip-path="url(#clip160)" d="M171.891 947.9 Q168.28 947.9 166.452 951.464 Q164.646 955.006 164.646 962.136 Q164.646 969.242 166.452 972.807 Q168.28 976.349 171.891 976.349 Q175.526 976.349 177.331 972.807 Q179.16 969.242 179.16 962.136 Q179.16 955.006 177.331 951.464 Q175.526 947.9 171.891 947.9 M171.891 944.196 Q177.702 944.196 180.757 948.802 Q183.836 953.386 183.836 962.136 Q183.836 970.862 180.757 975.469 Q177.702 980.052 171.891 980.052 Q166.081 980.052 163.003 975.469 Q159.947 970.862 159.947 962.136 Q159.947 953.386 163.003 948.802 Q166.081 944.196 171.891 944.196 Z" fill="#000000" fill-rule="nonzero" fill-opacity="1" /><path clip-path="url(#clip160)" d="M67.3319 654.154 Q63.7208 654.154 61.8921 657.719 Q60.0865 661.26 60.0865 668.39 Q60.0865 675.496 61.8921 679.061 Q63.7208 682.603 67.3319 682.603 Q70.9661 682.603 72.7717 679.061 Q74.6004 675.496 74.6004 668.39 Q74.6004 661.26 72.7717 657.719 Q70.9661 654.154 67.3319 654.154 M67.3319 650.45 Q73.142 650.45 76.1976 655.057 Q79.2763 659.64 79.2763 668.39 Q79.2763 677.117 76.1976 681.723 Q73.142 686.306 67.3319 686.306 Q61.5217 686.306 58.443 681.723 Q55.3875 677.117 55.3875 668.39 Q55.3875 659.64 58.443 655.057 Q61.5217 650.45 67.3319 650.45 Z" fill="#000000" fill-rule="nonzero" fill-opacity="1" /><path clip-path="url(#clip160)" d="M87.4938 679.756 L92.378 679.756 L92.378 685.635 L87.4938 685.635 L87.4938 679.756 Z" fill="#000000" fill-rule="nonzero" fill-opacity="1" /><path clip-path="url(#clip160)" d="M112.563 654.154 Q108.952 654.154 107.123 657.719 Q105.318 661.26 105.318 668.39 Q105.318 675.496 107.123 679.061 Q108.952 682.603 112.563 682.603 Q116.197 682.603 118.003 679.061 Q119.832 675.496 119.832 668.39 Q119.832 661.26 118.003 657.719 Q116.197 654.154 112.563 654.154 M112.563 650.45 Q118.373 650.45 121.429 655.057 Q124.507 659.64 124.507 668.39 Q124.507 677.117 121.429 681.723 Q118.373 686.306 112.563 686.306 Q106.753 686.306 103.674 681.723 Q100.619 677.117 100.619 668.39 Q100.619 659.64 103.674 655.057 Q106.753 650.45 112.563 650.45 Z" fill="#000000" fill-rule="nonzero" fill-opacity="1" /><path clip-path="url(#clip160)" d="M133.535 681.7 L141.174 681.7 L141.174 655.334 L132.864 657.001 L132.864 652.742 L141.128 651.075 L145.804 651.075 L145.804 681.7 L153.443 681.7 L153.443 685.635 L133.535 685.635 L133.535 681.7 Z" fill="#000000" fill-rule="nonzero" fill-opacity="1" /><path clip-path="url(#clip160)" d="M162.933 651.075 L181.29 651.075 L181.29 655.01 L167.216 655.01 L167.216 663.483 Q168.234 663.135 169.253 662.973 Q170.271 662.788 171.29 662.788 Q177.077 662.788 180.456 665.959 Q183.836 669.131 183.836 674.547 Q183.836 680.126 180.364 683.228 Q176.891 686.306 170.572 686.306 Q168.396 686.306 166.128 685.936 Q163.882 685.566 161.475 684.825 L161.475 680.126 Q163.558 681.26 165.78 681.816 Q168.003 682.371 170.479 682.371 Q174.484 682.371 176.822 680.265 Q179.16 678.158 179.16 674.547 Q179.16 670.936 176.822 668.83 Q174.484 666.723 170.479 666.723 Q168.604 666.723 166.729 667.14 Q164.878 667.557 162.933 668.436 L162.933 651.075 Z" fill="#000000" fill-rule="nonzero" fill-opacity="1" /><path clip-path="url(#clip160)" d="M66.3365 360.408 Q62.7254 360.408 60.8967 363.973 Q59.0912 367.515 59.0912 374.644 Q59.0912 381.751 60.8967 385.315 Q62.7254 388.857 66.3365 388.857 Q69.9707 388.857 71.7763 385.315 Q73.605 381.751 73.605 374.644 Q73.605 367.515 71.7763 363.973 Q69.9707 360.408 66.3365 360.408 M66.3365 356.704 Q72.1467 356.704 75.2022 361.311 Q78.2809 365.894 78.2809 374.644 Q78.2809 383.371 75.2022 387.977 Q72.1467 392.561 66.3365 392.561 Q60.5264 392.561 57.4477 387.977 Q54.3921 383.371 54.3921 374.644 Q54.3921 365.894 57.4477 361.311 Q60.5264 356.704 66.3365 356.704 Z" fill="#000000" fill-rule="nonzero" fill-opacity="1" /><path clip-path="url(#clip160)" d="M86.4984 386.01 L91.3827 386.01 L91.3827 391.889 L86.4984 391.889 L86.4984 386.01 Z" fill="#000000" fill-rule="nonzero" fill-opacity="1" /><path clip-path="url(#clip160)" d="M111.568 360.408 Q107.957 360.408 106.128 363.973 Q104.322 367.515 104.322 374.644 Q104.322 381.751 106.128 385.315 Q107.957 388.857 111.568 388.857 Q115.202 388.857 117.008 385.315 Q118.836 381.751 118.836 374.644 Q118.836 367.515 117.008 363.973 Q115.202 360.408 111.568 360.408 M111.568 356.704 Q117.378 356.704 120.433 361.311 Q123.512 365.894 123.512 374.644 Q123.512 383.371 120.433 387.977 Q117.378 392.561 111.568 392.561 Q105.758 392.561 102.679 387.977 Q99.6234 383.371 99.6234 374.644 Q99.6234 365.894 102.679 361.311 Q105.758 356.704 111.568 356.704 Z" fill="#000000" fill-rule="nonzero" fill-opacity="1" /><path clip-path="url(#clip160)" d="M135.757 387.954 L152.077 387.954 L152.077 391.889 L130.132 391.889 L130.132 387.954 Q132.794 385.2 137.378 380.57 Q141.984 375.917 143.165 374.575 Q145.41 372.052 146.29 370.315 Q147.193 368.556 147.193 366.866 Q147.193 364.112 145.248 362.376 Q143.327 360.64 140.225 360.64 Q138.026 360.64 135.572 361.403 Q133.142 362.167 130.364 363.718 L130.364 358.996 Q133.188 357.862 135.642 357.283 Q138.095 356.704 140.132 356.704 Q145.503 356.704 148.697 359.39 Q151.892 362.075 151.892 366.565 Q151.892 368.695 151.081 370.616 Q150.294 372.515 148.188 375.107 Q147.609 375.778 144.507 378.996 Q141.406 382.19 135.757 387.954 Z" fill="#000000" fill-rule="nonzero" fill-opacity="1" /><path clip-path="url(#clip160)" d="M171.891 360.408 Q168.28 360.408 166.452 363.973 Q164.646 367.515 164.646 374.644 Q164.646 381.751 166.452 385.315 Q168.28 388.857 171.891 388.857 Q175.526 388.857 177.331 385.315 Q179.16 381.751 179.16 374.644 Q179.16 367.515 177.331 363.973 Q175.526 360.408 171.891 360.408 M171.891 356.704 Q177.702 356.704 180.757 361.311 Q183.836 365.894 183.836 374.644 Q183.836 383.371 180.757 387.977 Q177.702 392.561 171.891 392.561 Q166.081 392.561 163.003 387.977 Q159.947 383.371 159.947 374.644 Q159.947 365.894 163.003 361.311 Q166.081 356.704 171.891 356.704 Z" fill="#000000" fill-rule="nonzero" fill-opacity="1" /><path clip-path="url(#clip160)" d="M67.3319 66.6623 Q63.7208 66.6623 61.8921 70.2271 Q60.0865 73.7688 60.0865 80.8984 Q60.0865 88.0048 61.8921 91.5696 Q63.7208 95.1113 67.3319 95.1113 Q70.9661 95.1113 72.7717 91.5696 Q74.6004 88.0048 74.6004 80.8984 Q74.6004 73.7688 72.7717 70.2271 Q70.9661 66.6623 67.3319 66.6623 M67.3319 62.9587 Q73.142 62.9587 76.1976 67.5651 Q79.2763 72.1484 79.2763 80.8984 Q79.2763 89.6252 76.1976 94.2316 Q73.142 98.815 67.3319 98.815 Q61.5217 98.815 58.443 94.2316 Q55.3875 89.6252 55.3875 80.8984 Q55.3875 72.1484 58.443 67.5651 Q61.5217 62.9587 67.3319 62.9587 Z" fill="#000000" fill-rule="nonzero" fill-opacity="1" /><path clip-path="url(#clip160)" d="M87.4938 92.2641 L92.378 92.2641 L92.378 98.1437 L87.4938 98.1437 L87.4938 92.2641 Z" fill="#000000" fill-rule="nonzero" fill-opacity="1" /><path clip-path="url(#clip160)" d="M112.563 66.6623 Q108.952 66.6623 107.123 70.2271 Q105.318 73.7688 105.318 80.8984 Q105.318 88.0048 107.123 91.5696 Q108.952 95.1113 112.563 95.1113 Q116.197 95.1113 118.003 91.5696 Q119.832 88.0048 119.832 80.8984 Q119.832 73.7688 118.003 70.2271 Q116.197 66.6623 112.563 66.6623 M112.563 62.9587 Q118.373 62.9587 121.429 67.5651 Q124.507 72.1484 124.507 80.8984 Q124.507 89.6252 121.429 94.2316 Q118.373 98.815 112.563 98.815 Q106.753 98.815 103.674 94.2316 Q100.619 89.6252 100.619 80.8984 Q100.619 72.1484 103.674 67.5651 Q106.753 62.9587 112.563 62.9587 Z" fill="#000000" fill-rule="nonzero" fill-opacity="1" /><path clip-path="url(#clip160)" d="M136.753 94.2085 L153.072 94.2085 L153.072 98.1437 L131.128 98.1437 L131.128 94.2085 Q133.79 91.4539 138.373 86.8243 Q142.98 82.1715 144.16 80.8289 Q146.406 78.3058 147.285 76.5697 Q148.188 74.8105 148.188 73.1206 Q148.188 70.366 146.243 68.6299 Q144.322 66.8938 141.22 66.8938 Q139.021 66.8938 136.568 67.6577 Q134.137 68.4216 131.359 69.9725 L131.359 65.2503 Q134.183 64.1161 136.637 63.5374 Q139.091 62.9587 141.128 62.9587 Q146.498 62.9587 149.693 65.6438 Q152.887 68.329 152.887 72.8197 Q152.887 74.9493 152.077 76.8706 Q151.29 78.7688 149.183 81.3613 Q148.605 82.0326 145.503 85.2502 Q142.401 88.4446 136.753 94.2085 Z" fill="#000000" fill-rule="nonzero" fill-opacity="1" /><path clip-path="url(#clip160)" d="M162.933 63.5837 L181.29 63.5837 L181.29 67.5188 L167.216 67.5188 L167.216 75.991 Q168.234 75.6438 169.253 75.4817 Q170.271 75.2966 171.29 75.2966 Q177.077 75.2966 180.456 78.4678 Q183.836 81.6391 183.836 87.0558 Q183.836 92.6344 180.364 95.7363 Q176.891 98.815 170.572 98.815 Q168.396 98.815 166.128 98.4446 Q163.882 98.0742 161.475 97.3335 L161.475 92.6344 Q163.558 93.7687 165.78 94.3242 Q168.003 94.8798 170.479 94.8798 Q174.484 94.8798 176.822 92.7733 Q179.16 90.6669 179.16 87.0558 Q179.16 83.4447 176.822 81.3382 Q174.484 79.2317 170.479 79.2317 Q168.604 79.2317 166.729 79.6484 Q164.878 80.0651 162.933 80.9447 L162.933 63.5837 Z" fill="#000000" fill-rule="nonzero" fill-opacity="1" /><polyline clip-path="url(#clip162)" style="stroke:#009af9; stroke-linecap:round; stroke-linejoin:round; stroke-width:4; stroke-opacity:1; fill:none" points="249.262,355.48 250.915,371.15 252.568,387.025 254.222,403.079 255.875,419.284 257.528,435.612 259.181,452.036 260.834,468.531 262.487,485.069 264.141,501.625 265.794,518.173 267.447,534.689 269.1,551.15 270.753,567.531 272.406,583.811 274.06,599.97 275.713,615.986 277.366,631.84 279.019,647.515 280.672,662.994 282.325,678.261 283.979,693.302 285.632,708.104 287.285,722.654 288.938,736.942 290.591,750.958 292.244,764.694 293.897,778.143 295.551,791.3 297.204,804.158 298.857,816.716 300.51,828.97 302.163,840.918 303.816,852.562 305.47,863.9 307.123,874.935 308.776,885.668 310.429,896.103 312.082,906.245 313.735,916.096 315.389,925.663 317.042,934.952 318.695,943.968 320.348,952.719 322.001,961.211 323.654,969.452 325.308,977.451 326.961,985.214 328.614,992.75 330.267,1000.07 331.92,1007.18 333.573,1014.08 335.226,1020.8 336.88,1027.32 338.533,1033.68 340.186,1039.86 341.839,1045.89 343.492,1051.76 345.145,1057.49 346.799,1063.08 348.452,1068.55 350.105,1073.89 351.758,1079.12 353.411,1084.23 355.064,1089.25 356.718,1094.17 358.371,1099 360.024,1103.74 361.677,1108.41 363.33,1113 364.983,1117.52 366.637,1121.97 368.29,1126.36 369.943,1130.69 371.596,1134.96 373.249,1139.19 374.902,1143.36 376.556,1147.49 378.209,1151.57 379.862,1155.61 381.515,1159.61 383.168,1163.57 384.821,1167.5 386.474,1171.38 388.128,1175.24 389.781,1179.06 391.434,1182.85 393.087,1186.61 394.74,1190.33 396.393,1194.03 398.047,1197.7 399.7,1201.34 401.353,1204.95 403.006,1208.53 404.659,1212.08 406.312,1215.6 407.966,1219.09 409.619,1222.56 411.272,1226 412.925,1229.41 414.578,1232.79 416.231,1236.14 417.885,1239.46 419.538,1242.75 421.191,1246.02 422.844,1249.25 424.497,1252.46 426.15,1255.63 427.803,1258.78 429.457,1261.89 431.11,1264.98 432.763,1268.03 434.416,1271.05 436.069,1274.05 437.722,1277.01 439.376,1279.94 441.029,1282.84 442.682,1285.71 444.335,1288.55 445.988,1291.36 447.641,1294.13 449.295,1296.88 450.948,1299.59 452.601,1302.27 454.254,1304.92 455.907,1307.54 457.56,1310.13 459.214,1312.69 460.867,1315.22 462.52,1317.71 464.173,1320.18 465.826,1322.61 467.479,1325.02 469.133,1327.39 470.786,1329.74 472.439,1332.05 474.092,1334.33 475.745,1336.59 477.398,1338.81 479.051,1341.01 480.705,1343.17 482.358,1345.31 484.011,1347.42 485.664,1349.5 487.317,1351.55 488.97,1353.58 490.624,1355.58 492.277,1357.54 493.93,1359.49 495.583,1361.4 497.236,1363.29 498.889,1365.15 500.543,1366.99 502.196,1368.8 503.849,1370.58 505.502,1372.34 507.155,1374.07 508.808,1375.78 510.462,1377.46 512.115,1379.12 513.768,1380.76 515.421,1382.37 517.074,1383.96 518.727,1385.52 520.38,1387.06 522.034,1388.58 523.687,1390.08 525.34,1391.55 526.993,1393 528.646,1394.43 530.299,1395.84 531.953,1397.23 533.606,1398.59 535.259,1399.94 536.912,1401.26 538.565,1402.57 540.218,1403.85 541.872,1405.11 543.525,1406.36 545.178,1407.58 546.831,1408.79 548.484,1409.98 550.137,1411.15 551.791,1412.3 553.444,1413.43 555.097,1414.54 556.75,1415.64 558.403,1416.72 560.056,1417.78 561.71,1418.82 563.363,1419.85 565.016,1420.86 566.669,1421.85 568.322,1422.83 569.975,1423.79 571.628,1424.73 573.282,1425.66 574.935,1426.57 576.588,1427.47 578.241,1428.35 579.894,1429.22 581.547,1430.07 583.201,1430.91 584.854,1431.73 586.507,1432.54 588.16,1433.34 589.813,1434.11 591.466,1434.88 593.12,1435.63 594.773,1436.37 596.426,1437.09 598.079,1437.8 599.732,1438.5 601.385,1439.18 603.039,1439.85 604.692,1440.51 606.345,1441.16 607.998,1441.79 609.651,1442.41 611.304,1443.01 612.957,1443.61 614.611,1444.19 616.264,1444.76 617.917,1445.32 619.57,1445.86 621.223,1446.4 622.876,1446.92 624.53,1447.43 626.183,1447.93 627.836,1448.41 629.489,1448.89 631.142,1449.35 632.795,1449.8 634.449,1450.25 636.102,1450.68 637.755,1451.09 639.408,1451.5 641.061,1451.9 642.714,1452.29 644.368,1452.66 646.021,1453.03 647.674,1453.38 649.327,1453.73 650.98,1454.06 652.633,1454.39 654.287,1454.7 655.94,1455 657.593,1455.29 659.246,1455.58 660.899,1455.85 662.552,1456.11 664.205,1456.37 665.859,1456.61 667.512,1456.84 669.165,1457.07 670.818,1457.28 672.471,1457.49 674.124,1457.68 675.778,1457.87 677.431,1458.05 679.084,1458.22 680.737,1458.38 682.39,1458.53 684.043,1458.67 685.697,1458.8 687.35,1458.92 689.003,1459.04 690.656,1459.15 692.309,1459.24 693.962,1459.33 695.616,1459.41 697.269,1459.49 698.922,1459.55 700.575,1459.61 702.228,1459.66 703.881,1459.7 705.534,1459.74 707.188,1459.76 708.841,1459.78 710.494,1459.79 712.147,1459.8 713.8,1459.8 715.453,1459.79 717.107,1459.77 718.76,1459.75 720.413,1459.72 722.066,1459.68 723.719,1459.64 725.372,1459.59 727.026,1459.54 728.679,1459.48 730.332,1459.41 731.985,1459.34 733.638,1459.27 735.291,1459.18 736.945,1459.1 738.598,1459.01 740.251,1458.91 741.904,1458.81 743.557,1458.7 745.21,1458.59 746.864,1458.48 748.517,1458.36 750.17,1458.24 751.823,1458.11 753.476,1457.98 755.129,1457.85 756.782,1457.71 758.436,1457.57 760.089,1457.42 761.742,1457.27 763.395,1457.12 765.048,1456.96 766.701,1456.8 768.355,1456.64 770.008,1456.47 771.661,1456.29 773.314,1456.12 774.967,1455.94 776.62,1455.75 778.274,1455.56 779.927,1455.36 781.58,1455.16 783.233,1454.95 784.886,1454.73 786.539,1454.51 788.193,1454.28 789.846,1454.04 791.499,1453.8 793.152,1453.54 794.805,1453.27 796.458,1453 798.111,1452.71 799.765,1452.4 801.418,1452.09 803.071,1451.75 804.724,1451.41 806.377,1451.04 808.03,1450.65 809.684,1450.25 811.337,1449.82 812.99,1449.38 814.643,1448.9 816.296,1448.4 817.949,1447.88 819.603,1447.32 821.256,1446.73 822.909,1446.12 824.562,1445.46 826.215,1444.77 827.868,1444.05 829.522,1443.28 831.175,1442.47 832.828,1441.62 834.481,1440.72 836.134,1439.78 837.787,1438.79 839.44,1437.75 841.094,1436.65 842.747,1435.5 844.4,1434.3 846.053,1433.03 847.706,1431.71 849.359,1430.33 851.013,1428.89 852.666,1427.39 854.319,1425.82 855.972,1424.19 857.625,1422.5 859.278,1420.73 860.932,1418.91 862.585,1417.01 864.238,1415.05 865.891,1413.02 867.544,1410.93 869.197,1408.77 870.851,1406.54 872.504,1404.25 874.157,1401.9 875.81,1399.48 877.463,1397.01 879.116,1394.47 880.77,1391.88 882.423,1389.23 884.076,1386.53 885.729,1383.77 887.382,1380.97 889.035,1378.12 890.688,1375.23 892.342,1372.3 893.995,1369.34 895.648,1366.34 897.301,1363.31 898.954,1360.26 900.607,1357.18 902.261,1354.09 903.914,1350.98 905.567,1347.86 907.22,1344.74 908.873,1341.61 910.526,1338.49 912.18,1335.37 913.833,1332.26 915.486,1329.16 917.139,1326.09 918.792,1323.03 920.445,1320 922.099,1317 923.752,1314.04 925.405,1311.11 927.058,1308.22 928.711,1305.37 930.364,1302.57 932.017,1299.82 933.671,1297.12 935.324,1294.48 936.977,1291.89 938.63,1289.37 940.283,1286.9 941.936,1284.5 943.59,1282.16 945.243,1279.89 946.896,1277.68 948.549,1275.55 950.202,1273.48 951.855,1271.48 953.509,1269.55 955.162,1267.69 956.815,1265.91 958.468,1264.19 960.121,1262.54 961.774,1260.96 963.428,1259.44 965.081,1258 966.734,1256.62 968.387,1255.3 970.04,1254.05 971.693,1252.86 973.347,1251.73 975,1250.66 976.653,1249.65 978.306,1248.69 979.959,1247.79 981.612,1246.93 983.265,1246.13 984.919,1245.37 986.572,1244.66 988.225,1243.99 989.878,1243.37 991.531,1242.78 993.184,1242.22 994.838,1241.71 996.491,1241.22 998.144,1240.77 999.797,1240.34 1001.45,1239.94 1003.1,1239.56 1004.76,1239.21 1006.41,1238.88 1008.06,1238.56 1009.72,1238.26 1011.37,1237.98 1013.02,1237.71 1014.68,1237.45 1016.33,1237.2 1017.98,1236.96 1019.64,1236.73 1021.29,1236.5 1022.94,1236.28 1024.59,1236.06 1026.25,1235.84 1027.9,1235.62 1029.55,1235.4 1031.21,1235.18 1032.86,1234.95 1034.51,1234.73 1036.17,1234.49 1037.82,1234.25 1039.47,1234.01 1041.13,1233.76 1042.78,1233.5 1044.43,1233.23 1046.09,1232.95 1047.74,1232.67 1049.39,1232.37 1051.05,1232.06 1052.7,1231.74 1054.35,1231.41 1056,1231.06 1057.66,1230.71 1059.31,1230.34 1060.96,1229.95 1062.62,1229.56 1064.27,1229.15 1065.92,1228.72 1067.58,1228.28 1069.23,1227.82 1070.88,1227.35 1072.54,1226.87 1074.19,1226.36 1075.84,1225.84 1077.5,1225.31 1079.15,1224.76 1080.8,1224.19 1082.46,1223.6 1084.11,1223 1085.76,1222.38 1087.41,1221.74 1089.07,1221.09 1090.72,1220.41 1092.37,1219.72 1094.03,1219.01 1095.68,1218.28 1097.33,1217.54 1098.99,1216.77 1100.64,1215.98 1102.29,1215.18 1103.95,1214.36 1105.6,1213.51 1107.25,1212.65 1108.91,1211.76 1110.56,1210.86 1112.21,1209.93 1113.87,1208.99 1115.52,1208.02 1117.17,1207.03 1118.82,1206.02 1120.48,1204.99 1122.13,1203.94 1123.78,1202.86 1125.44,1201.76 1127.09,1200.64 1128.74,1199.49 1130.4,1198.32 1132.05,1197.13 1133.7,1195.91 1135.36,1194.67 1137.01,1193.4 1138.66,1192.11 1140.32,1190.79 1141.97,1189.44 1143.62,1188.07 1145.28,1186.67 1146.93,1185.24 1148.58,1183.78 1150.23,1182.3 1151.89,1180.78 1153.54,1179.23 1155.19,1177.66 1156.85,1176.05 1158.5,1174.41 1160.15,1172.73 1161.81,1171.02 1163.46,1169.28 1165.11,1167.5 1166.77,1165.69 1168.42,1163.83 1170.07,1161.94 1171.73,1160.01 1173.38,1158.04 1175.03,1156.03 1176.69,1153.97 1178.34,1151.87 1179.99,1149.73 1181.64,1147.53 1183.3,1145.29 1184.95,1143 1186.6,1140.66 1188.26,1138.26 1189.91,1135.81 1191.56,1133.3 1193.22,1130.73 1194.87,1128.11 1196.52,1125.41 1198.18,1122.66 1199.83,1119.83 1201.48,1116.94 1203.14,1113.97 1204.79,1110.93 1206.44,1107.81 1208.1,1104.61 1209.75,1101.33 1211.4,1097.95 1213.05,1094.49 1214.71,1090.94 1216.36,1087.29 1218.01,1083.55 1219.67,1079.7 1221.32,1075.74 1222.97,1071.68 1224.63,1067.5 1226.28,1063.2 1227.93,1058.79 1229.59,1054.25 1231.24,1049.59 1232.89,1044.79 1234.55,1039.86 1236.2,1034.79 1237.85,1029.58 1239.51,1024.23 1241.16,1018.73 1242.81,1013.07 1244.46,1007.26 1246.12,1001.3 1247.77,995.174 1249.42,988.887 1251.08,982.435 1252.73,975.817 1254.38,969.031 1256.04,962.076 1257.69,954.95 1259.34,947.654 1261,940.185 1262.65,932.546 1264.3,924.736 1265.96,916.757 1267.61,908.61 1269.26,900.298 1270.92,891.822 1272.57,883.187 1274.22,874.396 1275.87,865.453 1277.53,856.364 1279.18,847.133 1280.83,837.768 1282.49,828.275 1284.14,818.662 1285.79,808.937 1287.45,799.109 1289.1,789.186 1290.75,779.18 1292.41,769.1 1294.06,758.959 1295.71,748.767 1297.37,738.537 1299.02,728.282 1300.67,718.015 1302.33,707.75 1303.98,697.501 1305.63,687.282 1307.28,677.108 1308.94,666.994 1310.59,656.955 1312.24,647.006 1313.9,637.162 1315.55,627.439 1317.2,617.853 1318.86,608.417 1320.51,599.148 1322.16,590.059 1323.82,581.165 1325.47,572.479 1327.12,564.016 1328.78,555.788 1330.43,547.806 1332.08,540.083 1333.74,532.63 1335.39,525.456 1337.04,518.57 1338.7,511.981 1340.35,505.695 1342,499.719 1343.65,494.059 1345.31,488.717 1346.96,483.697 1348.61,479.001 1350.27,474.629 1351.92,470.58 1353.57,466.853 1355.23,463.445 1356.88,460.351 1358.53,457.565 1360.19,455.082 1361.84,452.893 1363.49,450.99 1365.15,449.362 1366.8,447.998 1368.45,446.887 1370.11,446.014 1371.76,445.367 1373.41,444.93 1375.06,444.687 1376.72,444.622 1378.37,444.719 1380.02,444.959 1381.68,445.324 1383.33,445.796 1384.98,446.355 1386.64,446.984 1388.29,447.661 1389.94,448.368 1391.6,449.085 1393.25,449.793 1394.9,450.471 1396.56,451.102 1398.21,451.666 1399.86,452.144 1401.52,452.519 1403.17,452.773 1404.82,452.888 1406.47,452.849 1408.13,452.64 1409.78,452.246 1411.43,451.652 1413.09,450.845 1414.74,449.813 1416.39,448.544 1418.05,447.028 1419.7,445.255 1421.35,443.217 1423.01,440.906 1424.66,438.315 1426.31,435.44 1427.97,432.277 1429.62,428.821 1431.27,425.071 1432.93,421.026 1434.58,416.686 1436.23,412.053 1437.88,407.129 1439.54,401.917 1441.19,396.423 1442.84,390.651 1444.5,384.608 1446.15,378.302 1447.8,371.741 1449.46,364.936 1451.11,357.897 1452.76,350.636 1454.42,343.164 1456.07,335.495 1457.72,327.645 1459.38,319.626 1461.03,311.457 1462.68,303.152 1464.34,294.729 1465.99,286.207 1467.64,277.604 1469.29,268.938 1470.95,260.231 1472.6,251.503 1474.25,242.774 1475.91,234.065 1477.56,225.4 1479.21,216.798 1480.87,208.284 1482.52,199.88 1484.17,191.608 1485.83,183.493 1487.48,175.556 1489.13,167.822 1490.79,160.313 1492.44,153.054 1494.09,146.066 1495.75,139.373 1497.4,132.997 1499.05,126.961 1500.7,121.286 1502.36,115.995 1504.01,111.107 1505.66,106.644 1507.32,102.624 1508.97,99.0675 1510.62,95.9913 1512.28,93.4129 1513.93,91.3487 1515.58,89.8136 1517.24,88.8219 1518.89,88.3864 1520.54,88.5189 1522.2,89.2297 1523.85,90.528 1525.5,92.4215 1527.16,94.9164 1528.81,98.0177 1530.46,101.729 1532.11,106.051 1533.77,110.985 1535.42,116.529 1537.07,122.681 1538.73,129.436 1540.38,136.788 1542.03,144.728 1543.69,153.249 1545.34,162.339 1546.99,171.985 1548.65,182.175 1550.3,192.892 1551.95,204.121 1553.61,215.843 1555.26,228.04 1556.91,240.691 1558.57,253.774 1560.22,267.267 1561.87,281.147 1563.52,295.39 1565.18,309.971 1566.83,324.863 1568.48,340.042 1570.14,355.48 "/>
<path clip-path="url(#clip160)" d="M737.436 1452.48 L1563.09 1452.48 L1563.09 1348.8 L737.436 1348.8  Z" fill="#ffffff" fill-rule="evenodd" fill-opacity="1"/>
<polyline clip-path="url(#clip160)" style="stroke:#000000; stroke-linecap:round; stroke-linejoin:round; stroke-width:4; stroke-opacity:1; fill:none" points="737.436,1452.48 1563.09,1452.48 1563.09,1348.8 737.436,1348.8 737.436,1452.48 "/>
<polyline clip-path="url(#clip160)" style="stroke:#009af9; stroke-linecap:round; stroke-linejoin:round; stroke-width:4; stroke-opacity:1; fill:none" points="752.993,1400.64 846.334,1400.64 "/>
<path clip-path="url(#clip160)" d="M882.239 1396.97 Q883.836 1394.1 886.058 1392.74 Q888.28 1391.37 891.289 1391.37 Q895.34 1391.37 897.539 1394.22 Q899.738 1397.04 899.738 1402.28 L899.738 1417.92 L895.456 1417.92 L895.456 1402.41 Q895.456 1398.69 894.137 1396.88 Q892.817 1395.08 890.109 1395.08 Q886.799 1395.08 884.877 1397.28 Q882.956 1399.47 882.956 1403.27 L882.956 1417.92 L878.674 1417.92 L878.674 1402.41 Q878.674 1398.66 877.354 1396.88 Q876.035 1395.08 873.28 1395.08 Q870.016 1395.08 868.095 1397.3 Q866.174 1399.5 866.174 1403.27 L866.174 1417.92 L861.891 1417.92 L861.891 1392 L866.174 1392 L866.174 1396.03 Q867.632 1393.64 869.669 1392.51 Q871.706 1391.37 874.507 1391.37 Q877.331 1391.37 879.299 1392.81 Q881.289 1394.24 882.239 1396.97 Z" fill="#000000" fill-rule="nonzero" fill-opacity="1" /><path clip-path="url(#clip160)" d="M930.41 1403.9 L930.41 1405.98 L910.826 1405.98 Q911.104 1410.38 913.465 1412.69 Q915.849 1414.98 920.086 1414.98 Q922.539 1414.98 924.831 1414.38 Q927.146 1413.78 929.414 1412.58 L929.414 1416.6 Q927.123 1417.58 924.715 1418.09 Q922.308 1418.59 919.831 1418.59 Q913.627 1418.59 909.993 1414.98 Q906.382 1411.37 906.382 1405.22 Q906.382 1398.85 909.808 1395.12 Q913.257 1391.37 919.09 1391.37 Q924.322 1391.37 927.354 1394.75 Q930.41 1398.11 930.41 1403.9 M926.15 1402.65 Q926.104 1399.15 924.183 1397.07 Q922.285 1394.98 919.136 1394.98 Q915.572 1394.98 913.419 1397 Q911.289 1399.01 910.965 1402.67 L926.15 1402.65 Z" fill="#000000" fill-rule="nonzero" fill-opacity="1" /><path clip-path="url(#clip160)" d="M949.183 1404.89 Q944.021 1404.89 942.03 1406.07 Q940.039 1407.25 940.039 1410.1 Q940.039 1412.37 941.521 1413.71 Q943.025 1415.03 945.595 1415.03 Q949.136 1415.03 951.266 1412.53 Q953.419 1410.01 953.419 1405.84 L953.419 1404.89 L949.183 1404.89 M957.678 1403.13 L957.678 1417.92 L953.419 1417.92 L953.419 1413.99 Q951.96 1416.35 949.784 1417.48 Q947.609 1418.59 944.46 1418.59 Q940.479 1418.59 938.118 1416.37 Q935.78 1414.13 935.78 1410.38 Q935.78 1406 938.697 1403.78 Q941.636 1401.56 947.446 1401.56 L953.419 1401.56 L953.419 1401.14 Q953.419 1398.2 951.474 1396.6 Q949.553 1394.98 946.058 1394.98 Q943.835 1394.98 941.729 1395.52 Q939.622 1396.05 937.678 1397.11 L937.678 1393.18 Q940.016 1392.28 942.215 1391.84 Q944.414 1391.37 946.497 1391.37 Q952.122 1391.37 954.9 1394.29 Q957.678 1397.21 957.678 1403.13 Z" fill="#000000" fill-rule="nonzero" fill-opacity="1" /><path clip-path="url(#clip160)" d="M982.979 1392.76 L982.979 1396.79 Q981.173 1395.86 979.229 1395.4 Q977.284 1394.94 975.201 1394.94 Q972.03 1394.94 970.432 1395.91 Q968.858 1396.88 968.858 1398.83 Q968.858 1400.31 969.993 1401.16 Q971.127 1402 974.553 1402.76 L976.011 1403.09 Q980.548 1404.06 982.446 1405.84 Q984.368 1407.6 984.368 1410.77 Q984.368 1414.38 981.497 1416.49 Q978.65 1418.59 973.65 1418.59 Q971.567 1418.59 969.298 1418.18 Q967.053 1417.78 964.553 1416.97 L964.553 1412.58 Q966.914 1413.8 969.206 1414.43 Q971.497 1415.03 973.743 1415.03 Q976.752 1415.03 978.372 1414.01 Q979.993 1412.97 979.993 1411.09 Q979.993 1409.36 978.812 1408.43 Q977.655 1407.51 973.696 1406.65 L972.215 1406.3 Q968.257 1405.47 966.497 1403.76 Q964.738 1402.02 964.738 1399.01 Q964.738 1395.35 967.331 1393.36 Q969.923 1391.37 974.692 1391.37 Q977.053 1391.37 979.136 1391.72 Q981.219 1392.07 982.979 1392.76 Z" fill="#000000" fill-rule="nonzero" fill-opacity="1" /><path clip-path="url(#clip160)" d="M990.71 1407.69 L990.71 1392 L994.969 1392 L994.969 1407.53 Q994.969 1411.21 996.405 1413.06 Q997.84 1414.89 1000.71 1414.89 Q1004.16 1414.89 1006.15 1412.69 Q1008.16 1410.49 1008.16 1406.7 L1008.16 1392 L1012.42 1392 L1012.42 1417.92 L1008.16 1417.92 L1008.16 1413.94 Q1006.61 1416.3 1004.55 1417.46 Q1002.52 1418.59 999.807 1418.59 Q995.34 1418.59 993.025 1415.82 Q990.71 1413.04 990.71 1407.69 M1001.43 1391.37 L1001.43 1391.37 Z" fill="#000000" fill-rule="nonzero" fill-opacity="1" /><path clip-path="url(#clip160)" d="M1036.22 1395.98 Q1035.5 1395.56 1034.65 1395.38 Q1033.81 1395.17 1032.79 1395.17 Q1029.18 1395.17 1027.24 1397.53 Q1025.32 1399.87 1025.32 1404.27 L1025.32 1417.92 L1021.03 1417.92 L1021.03 1392 L1025.32 1392 L1025.32 1396.03 Q1026.66 1393.66 1028.81 1392.53 Q1030.96 1391.37 1034.04 1391.37 Q1034.48 1391.37 1035.02 1391.44 Q1035.55 1391.49 1036.2 1391.6 L1036.22 1395.98 Z" fill="#000000" fill-rule="nonzero" fill-opacity="1" /><path clip-path="url(#clip160)" d="M1061.82 1403.9 L1061.82 1405.98 L1042.24 1405.98 Q1042.52 1410.38 1044.88 1412.69 Q1047.26 1414.98 1051.5 1414.98 Q1053.95 1414.98 1056.24 1414.38 Q1058.56 1413.78 1060.83 1412.58 L1060.83 1416.6 Q1058.53 1417.58 1056.13 1418.09 Q1053.72 1418.59 1051.24 1418.59 Q1045.04 1418.59 1041.4 1414.98 Q1037.79 1411.37 1037.79 1405.22 Q1037.79 1398.85 1041.22 1395.12 Q1044.67 1391.37 1050.5 1391.37 Q1055.73 1391.37 1058.77 1394.75 Q1061.82 1398.11 1061.82 1403.9 M1057.56 1402.65 Q1057.52 1399.15 1055.59 1397.07 Q1053.7 1394.98 1050.55 1394.98 Q1046.98 1394.98 1044.83 1397 Q1042.7 1399.01 1042.38 1402.67 L1057.56 1402.65 Z" fill="#000000" fill-rule="nonzero" fill-opacity="1" /><path clip-path="url(#clip160)" d="M1089 1396.97 Q1090.59 1394.1 1092.82 1392.74 Q1095.04 1391.37 1098.05 1391.37 Q1102.1 1391.37 1104.3 1394.22 Q1106.5 1397.04 1106.5 1402.28 L1106.5 1417.92 L1102.21 1417.92 L1102.21 1402.41 Q1102.21 1398.69 1100.89 1396.88 Q1099.58 1395.08 1096.87 1395.08 Q1093.56 1395.08 1091.64 1397.28 Q1089.71 1399.47 1089.71 1403.27 L1089.71 1417.92 L1085.43 1417.92 L1085.43 1402.41 Q1085.43 1398.66 1084.11 1396.88 Q1082.79 1395.08 1080.04 1395.08 Q1076.77 1395.08 1074.85 1397.3 Q1072.93 1399.5 1072.93 1403.27 L1072.93 1417.92 L1068.65 1417.92 L1068.65 1392 L1072.93 1392 L1072.93 1396.03 Q1074.39 1393.64 1076.43 1392.51 Q1078.46 1391.37 1081.27 1391.37 Q1084.09 1391.37 1086.06 1392.81 Q1088.05 1394.24 1089 1396.97 Z" fill="#000000" fill-rule="nonzero" fill-opacity="1" /><path clip-path="url(#clip160)" d="M1137.17 1403.9 L1137.17 1405.98 L1117.58 1405.98 Q1117.86 1410.38 1120.22 1412.69 Q1122.61 1414.98 1126.84 1414.98 Q1129.3 1414.98 1131.59 1414.38 Q1133.9 1413.78 1136.17 1412.58 L1136.17 1416.6 Q1133.88 1417.58 1131.47 1418.09 Q1129.07 1418.59 1126.59 1418.59 Q1120.39 1418.59 1116.75 1414.98 Q1113.14 1411.37 1113.14 1405.22 Q1113.14 1398.85 1116.57 1395.12 Q1120.02 1391.37 1125.85 1391.37 Q1131.08 1391.37 1134.11 1394.75 Q1137.17 1398.11 1137.17 1403.9 M1132.91 1402.65 Q1132.86 1399.15 1130.94 1397.07 Q1129.04 1394.98 1125.89 1394.98 Q1122.33 1394.98 1120.18 1397 Q1118.05 1399.01 1117.72 1402.67 L1132.91 1402.65 Z" fill="#000000" fill-rule="nonzero" fill-opacity="1" /><path clip-path="url(#clip160)" d="M1165.71 1402.28 L1165.71 1417.92 L1161.45 1417.92 L1161.45 1402.41 Q1161.45 1398.73 1160.01 1396.9 Q1158.58 1395.08 1155.71 1395.08 Q1152.26 1395.08 1150.27 1397.28 Q1148.28 1399.47 1148.28 1403.27 L1148.28 1417.92 L1144 1417.92 L1144 1392 L1148.28 1392 L1148.28 1396.03 Q1149.81 1393.69 1151.87 1392.53 Q1153.95 1391.37 1156.66 1391.37 Q1161.13 1391.37 1163.42 1394.15 Q1165.71 1396.9 1165.71 1402.28 Z" fill="#000000" fill-rule="nonzero" fill-opacity="1" /><path clip-path="url(#clip160)" d="M1178.42 1384.64 L1178.42 1392 L1187.19 1392 L1187.19 1395.31 L1178.42 1395.31 L1178.42 1409.38 Q1178.42 1412.55 1179.27 1413.46 Q1180.15 1414.36 1182.82 1414.36 L1187.19 1414.36 L1187.19 1417.92 L1182.82 1417.92 Q1177.89 1417.92 1176.01 1416.09 Q1174.14 1414.24 1174.14 1409.38 L1174.14 1395.31 L1171.01 1395.31 L1171.01 1392 L1174.14 1392 L1174.14 1384.64 L1178.42 1384.64 Z" fill="#000000" fill-rule="nonzero" fill-opacity="1" /><path clip-path="url(#clip160)" d="M1209.32 1392.76 L1209.32 1396.79 Q1207.51 1395.86 1205.57 1395.4 Q1203.63 1394.94 1201.54 1394.94 Q1198.37 1394.94 1196.77 1395.91 Q1195.2 1396.88 1195.2 1398.83 Q1195.2 1400.31 1196.33 1401.16 Q1197.47 1402 1200.89 1402.76 L1202.35 1403.09 Q1206.89 1404.06 1208.79 1405.84 Q1210.71 1407.6 1210.71 1410.77 Q1210.71 1414.38 1207.84 1416.49 Q1204.99 1418.59 1199.99 1418.59 Q1197.91 1418.59 1195.64 1418.18 Q1193.39 1417.78 1190.89 1416.97 L1190.89 1412.58 Q1193.26 1413.8 1195.55 1414.43 Q1197.84 1415.03 1200.08 1415.03 Q1203.09 1415.03 1204.71 1414.01 Q1206.33 1412.97 1206.33 1411.09 Q1206.33 1409.36 1205.15 1408.43 Q1204 1407.51 1200.04 1406.65 L1198.56 1406.3 Q1194.6 1405.47 1192.84 1403.76 Q1191.08 1402.02 1191.08 1399.01 Q1191.08 1395.35 1193.67 1393.36 Q1196.26 1391.37 1201.03 1391.37 Q1203.39 1391.37 1205.48 1391.72 Q1207.56 1392.07 1209.32 1392.76 Z" fill="#000000" fill-rule="nonzero" fill-opacity="1" /><path clip-path="url(#clip160)" d="M1242.79 1381.95 Q1239.69 1387.28 1238.19 1392.48 Q1236.68 1397.69 1236.68 1403.04 Q1236.68 1408.39 1238.19 1413.64 Q1239.71 1418.87 1242.79 1424.17 L1239.09 1424.17 Q1235.62 1418.73 1233.88 1413.48 Q1232.17 1408.22 1232.17 1403.04 Q1232.17 1397.88 1233.88 1392.65 Q1235.59 1387.41 1239.09 1381.95 L1242.79 1381.95 Z" fill="#000000" fill-rule="nonzero" fill-opacity="1" /><path clip-path="url(#clip160)" d="M1273.23 1403.9 L1273.23 1405.98 L1253.65 1405.98 Q1253.93 1410.38 1256.29 1412.69 Q1258.67 1414.98 1262.91 1414.98 Q1265.36 1414.98 1267.65 1414.38 Q1269.97 1413.78 1272.24 1412.58 L1272.24 1416.6 Q1269.94 1417.58 1267.54 1418.09 Q1265.13 1418.59 1262.65 1418.59 Q1256.45 1418.59 1252.82 1414.98 Q1249.2 1411.37 1249.2 1405.22 Q1249.2 1398.85 1252.63 1395.12 Q1256.08 1391.37 1261.91 1391.37 Q1267.14 1391.37 1270.18 1394.75 Q1273.23 1398.11 1273.23 1403.9 M1268.97 1402.65 Q1268.93 1399.15 1267 1397.07 Q1265.11 1394.98 1261.96 1394.98 Q1258.39 1394.98 1256.24 1397 Q1254.11 1399.01 1253.79 1402.67 L1268.97 1402.65 Z" fill="#000000" fill-rule="nonzero" fill-opacity="1" /><path clip-path="url(#clip160)" d="M1300.94 1392 L1291.57 1404.61 L1301.43 1417.92 L1296.4 1417.92 L1288.86 1407.74 L1281.31 1417.92 L1276.29 1417.92 L1286.36 1404.36 L1277.14 1392 L1282.17 1392 L1289.04 1401.23 L1295.92 1392 L1300.94 1392 Z" fill="#000000" fill-rule="nonzero" fill-opacity="1" /><path clip-path="url(#clip160)" d="M1311.66 1384.64 L1311.66 1392 L1320.43 1392 L1320.43 1395.31 L1311.66 1395.31 L1311.66 1409.38 Q1311.66 1412.55 1312.51 1413.46 Q1313.39 1414.36 1316.06 1414.36 L1320.43 1414.36 L1320.43 1417.92 L1316.06 1417.92 Q1311.13 1417.92 1309.25 1416.09 Q1307.38 1414.24 1307.38 1409.38 L1307.38 1395.31 L1304.25 1395.31 L1304.25 1392 L1307.38 1392 L1307.38 1384.64 L1311.66 1384.64 Z" fill="#000000" fill-rule="nonzero" fill-opacity="1" /><path clip-path="url(#clip160)" d="M1341.06 1395.98 Q1340.34 1395.56 1339.48 1395.38 Q1338.65 1395.17 1337.63 1395.17 Q1334.02 1395.17 1332.07 1397.53 Q1330.15 1399.87 1330.15 1404.27 L1330.15 1417.92 L1325.87 1417.92 L1325.87 1392 L1330.15 1392 L1330.15 1396.03 Q1331.5 1393.66 1333.65 1392.53 Q1335.8 1391.37 1338.88 1391.37 Q1339.32 1391.37 1339.85 1391.44 Q1340.38 1391.49 1341.03 1391.6 L1341.06 1395.98 Z" fill="#000000" fill-rule="nonzero" fill-opacity="1" /><path clip-path="url(#clip160)" d="M1357.31 1404.89 Q1352.14 1404.89 1350.15 1406.07 Q1348.16 1407.25 1348.16 1410.1 Q1348.16 1412.37 1349.64 1413.71 Q1351.15 1415.03 1353.72 1415.03 Q1357.26 1415.03 1359.39 1412.53 Q1361.54 1410.01 1361.54 1405.84 L1361.54 1404.89 L1357.31 1404.89 M1365.8 1403.13 L1365.8 1417.92 L1361.54 1417.92 L1361.54 1413.99 Q1360.08 1416.35 1357.91 1417.48 Q1355.73 1418.59 1352.58 1418.59 Q1348.6 1418.59 1346.24 1416.37 Q1343.9 1414.13 1343.9 1410.38 Q1343.9 1406 1346.82 1403.78 Q1349.76 1401.56 1355.57 1401.56 L1361.54 1401.56 L1361.54 1401.14 Q1361.54 1398.2 1359.6 1396.6 Q1357.68 1394.98 1354.18 1394.98 Q1351.96 1394.98 1349.85 1395.52 Q1347.75 1396.05 1345.8 1397.11 L1345.8 1393.18 Q1348.14 1392.28 1350.34 1391.84 Q1352.54 1391.37 1354.62 1391.37 Q1360.25 1391.37 1363.02 1394.29 Q1365.8 1397.21 1365.8 1403.13 Z" fill="#000000" fill-rule="nonzero" fill-opacity="1" /><path clip-path="url(#clip160)" d="M1393.23 1392.99 L1393.23 1396.97 Q1391.43 1395.98 1389.6 1395.49 Q1387.79 1394.98 1385.94 1394.98 Q1381.8 1394.98 1379.5 1397.62 Q1377.21 1400.24 1377.21 1404.98 Q1377.21 1409.73 1379.5 1412.37 Q1381.8 1414.98 1385.94 1414.98 Q1387.79 1414.98 1389.6 1414.5 Q1391.43 1413.99 1393.23 1412.99 L1393.23 1416.93 Q1391.45 1417.76 1389.53 1418.18 Q1387.63 1418.59 1385.48 1418.59 Q1379.62 1418.59 1376.17 1414.91 Q1372.72 1411.23 1372.72 1404.98 Q1372.72 1398.64 1376.19 1395.01 Q1379.69 1391.37 1385.75 1391.37 Q1387.72 1391.37 1389.6 1391.79 Q1391.47 1392.18 1393.23 1392.99 Z" fill="#000000" fill-rule="nonzero" fill-opacity="1" /><path clip-path="url(#clip160)" d="M1404.85 1384.64 L1404.85 1392 L1413.62 1392 L1413.62 1395.31 L1404.85 1395.31 L1404.85 1409.38 Q1404.85 1412.55 1405.71 1413.46 Q1406.59 1414.36 1409.25 1414.36 L1413.62 1414.36 L1413.62 1417.92 L1409.25 1417.92 Q1404.32 1417.92 1402.44 1416.09 Q1400.57 1414.24 1400.57 1409.38 L1400.57 1395.31 L1397.44 1395.31 L1397.44 1392 L1400.57 1392 L1400.57 1384.64 L1404.85 1384.64 Z" fill="#000000" fill-rule="nonzero" fill-opacity="1" /><path clip-path="url(#clip160)" d="M1419.23 1392 L1423.49 1392 L1423.49 1417.92 L1419.23 1417.92 L1419.23 1392 M1419.23 1381.9 L1423.49 1381.9 L1423.49 1387.3 L1419.23 1387.3 L1419.23 1381.9 Z" fill="#000000" fill-rule="nonzero" fill-opacity="1" /><path clip-path="url(#clip160)" d="M1442.44 1394.98 Q1439.02 1394.98 1437.03 1397.67 Q1435.04 1400.33 1435.04 1404.98 Q1435.04 1409.64 1437 1412.32 Q1438.99 1414.98 1442.44 1414.98 Q1445.85 1414.98 1447.84 1412.3 Q1449.83 1409.61 1449.83 1404.98 Q1449.83 1400.38 1447.84 1397.69 Q1445.85 1394.98 1442.44 1394.98 M1442.44 1391.37 Q1448 1391.37 1451.17 1394.98 Q1454.34 1398.59 1454.34 1404.98 Q1454.34 1411.35 1451.17 1414.98 Q1448 1418.59 1442.44 1418.59 Q1436.87 1418.59 1433.69 1414.98 Q1430.55 1411.35 1430.55 1404.98 Q1430.55 1398.59 1433.69 1394.98 Q1436.87 1391.37 1442.44 1391.37 Z" fill="#000000" fill-rule="nonzero" fill-opacity="1" /><path clip-path="url(#clip160)" d="M1482.95 1402.28 L1482.95 1417.92 L1478.69 1417.92 L1478.69 1402.41 Q1478.69 1398.73 1477.26 1396.9 Q1475.82 1395.08 1472.95 1395.08 Q1469.5 1395.08 1467.51 1397.28 Q1465.52 1399.47 1465.52 1403.27 L1465.52 1417.92 L1461.24 1417.92 L1461.24 1392 L1465.52 1392 L1465.52 1396.03 Q1467.05 1393.69 1469.11 1392.53 Q1471.19 1391.37 1473.9 1391.37 Q1478.37 1391.37 1480.66 1394.15 Q1482.95 1396.9 1482.95 1402.28 Z" fill="#000000" fill-rule="nonzero" fill-opacity="1" /><path clip-path="url(#clip160)" d="M1492.54 1412.04 L1497.42 1412.04 L1497.42 1417.92 L1492.54 1417.92 L1492.54 1412.04 M1492.54 1393.41 L1497.42 1393.41 L1497.42 1399.29 L1492.54 1399.29 L1492.54 1393.41 Z" fill="#000000" fill-rule="nonzero" fill-opacity="1" /><path clip-path="url(#clip160)" d="M1508.83 1413.99 L1516.47 1413.99 L1516.47 1387.62 L1508.16 1389.29 L1508.16 1385.03 L1516.42 1383.36 L1521.1 1383.36 L1521.1 1413.99 L1528.74 1413.99 L1528.74 1417.92 L1508.83 1417.92 L1508.83 1413.99 Z" fill="#000000" fill-rule="nonzero" fill-opacity="1" /><path clip-path="url(#clip160)" d="M1536.91 1381.95 L1540.61 1381.95 Q1544.09 1387.41 1545.8 1392.65 Q1547.54 1397.88 1547.54 1403.04 Q1547.54 1408.22 1545.8 1413.48 Q1544.09 1418.73 1540.61 1424.17 L1536.91 1424.17 Q1539.99 1418.87 1541.49 1413.64 Q1543.02 1408.39 1543.02 1403.04 Q1543.02 1397.69 1541.49 1392.48 Q1539.99 1387.28 1536.91 1381.95 Z" fill="#000000" fill-rule="nonzero" fill-opacity="1" /></svg>
