<?xml version="1.0" encoding="utf-8"?>
<svg xmlns="http://www.w3.org/2000/svg" xmlns:xlink="http://www.w3.org/1999/xlink" width="430" height="430" viewBox="0 0 1720 1720">
<defs>
  <clipPath id="clip270">
    <rect x="0" y="0" width="1720" height="1720"/>
  </clipPath>
</defs>
<path clip-path="url(#clip270)" d="M0 1720 L1720 1720 L1720 0 L0 0  Z" fill="#ffffff" fill-rule="evenodd" fill-opacity="1"/>
<defs>
  <clipPath id="clip271">
    <rect x="344" y="172" width="1205" height="1205"/>
  </clipPath>
</defs>
<path clip-path="url(#clip270)" d="M209.636 1500.94 L1672.76 1500.94 L1672.76 47.2441 L209.636 47.2441  Z" fill="#ffffff" fill-rule="evenodd" fill-opacity="1"/>
<defs>
  <clipPath id="clip272">
    <rect x="209" y="47" width="1464" height="1455"/>
  </clipPath>
</defs>
<polyline clip-path="url(#clip272)" style="stroke:#000000; stroke-linecap:round; stroke-linejoin:round; stroke-width:2; stroke-opacity:0.1; fill:none" points="251.045,1500.94 251.045,47.2441 "/>
<polyline clip-path="url(#clip272)" style="stroke:#000000; stroke-linecap:round; stroke-linejoin:round; stroke-width:2; stroke-opacity:0.1; fill:none" points="470.727,1500.94 470.727,47.2441 "/>
<polyline clip-path="url(#clip272)" style="stroke:#000000; stroke-linecap:round; stroke-linejoin:round; stroke-width:2; stroke-opacity:0.1; fill:none" points="690.409,1500.94 690.409,47.2441 "/>
<polyline clip-path="url(#clip272)" style="stroke:#000000; stroke-linecap:round; stroke-linejoin:round; stroke-width:2; stroke-opacity:0.1; fill:none" points="910.091,1500.94 910.091,47.2441 "/>
<polyline clip-path="url(#clip272)" style="stroke:#000000; stroke-linecap:round; stroke-linejoin:round; stroke-width:2; stroke-opacity:0.1; fill:none" points="1129.77,1500.94 1129.77,47.2441 "/>
<polyline clip-path="url(#clip272)" style="stroke:#000000; stroke-linecap:round; stroke-linejoin:round; stroke-width:2; stroke-opacity:0.1; fill:none" points="1349.45,1500.94 1349.45,47.2441 "/>
<polyline clip-path="url(#clip272)" style="stroke:#000000; stroke-linecap:round; stroke-linejoin:round; stroke-width:2; stroke-opacity:0.1; fill:none" points="1569.14,1500.94 1569.14,47.2441 "/>
<polyline clip-path="url(#clip270)" style="stroke:#000000; stroke-linecap:round; stroke-linejoin:round; stroke-width:4; stroke-opacity:1; fill:none" points="209.636,1500.94 1672.76,1500.94 "/>
<polyline clip-path="url(#clip270)" style="stroke:#000000; stroke-linecap:round; stroke-linejoin:round; stroke-width:4; stroke-opacity:1; fill:none" points="251.045,1500.94 251.045,1482.04 "/>
<polyline clip-path="url(#clip270)" style="stroke:#000000; stroke-linecap:round; stroke-linejoin:round; stroke-width:4; stroke-opacity:1; fill:none" points="470.727,1500.94 470.727,1482.04 "/>
<polyline clip-path="url(#clip270)" style="stroke:#000000; stroke-linecap:round; stroke-linejoin:round; stroke-width:4; stroke-opacity:1; fill:none" points="690.409,1500.94 690.409,1482.04 "/>
<polyline clip-path="url(#clip270)" style="stroke:#000000; stroke-linecap:round; stroke-linejoin:round; stroke-width:4; stroke-opacity:1; fill:none" points="910.091,1500.94 910.091,1482.04 "/>
<polyline clip-path="url(#clip270)" style="stroke:#000000; stroke-linecap:round; stroke-linejoin:round; stroke-width:4; stroke-opacity:1; fill:none" points="1129.77,1500.94 1129.77,1482.04 "/>
<polyline clip-path="url(#clip270)" style="stroke:#000000; stroke-linecap:round; stroke-linejoin:round; stroke-width:4; stroke-opacity:1; fill:none" points="1349.45,1500.94 1349.45,1482.04 "/>
<polyline clip-path="url(#clip270)" style="stroke:#000000; stroke-linecap:round; stroke-linejoin:round; stroke-width:4; stroke-opacity:1; fill:none" points="1569.14,1500.94 1569.14,1482.04 "/>
<path clip-path="url(#clip270)" d="M251.045 1526.42 Q247.434 1526.42 245.605 1529.98 Q243.8 1533.52 243.8 1540.65 Q243.8 1547.76 245.605 1551.33 Q247.434 1554.87 251.045 1554.87 Q254.679 1554.87 256.485 1551.33 Q258.313 1547.76 258.313 1540.65 Q258.313 1533.52 256.485 1529.98 Q254.679 1526.42 251.045 1526.42 M251.045 1522.71 Q256.855 1522.71 259.911 1527.32 Q262.989 1531.9 262.989 1540.65 Q262.989 1549.38 259.911 1553.99 Q256.855 1558.57 251.045 1558.57 Q245.235 1558.57 242.156 1553.99 Q239.101 1549.38 239.101 1540.65 Q239.101 1531.9 242.156 1527.32 Q245.235 1522.71 251.045 1522.71 Z" fill="#000000" fill-rule="nonzero" fill-opacity="1" /><path clip-path="url(#clip270)" d="M461.109 1553.96 L468.748 1553.96 L468.748 1527.6 L460.438 1529.27 L460.438 1525.01 L468.701 1523.34 L473.377 1523.34 L473.377 1553.96 L481.016 1553.96 L481.016 1557.9 L461.109 1557.9 L461.109 1553.96 Z" fill="#000000" fill-rule="nonzero" fill-opacity="1" /><path clip-path="url(#clip270)" d="M685.061 1553.96 L701.381 1553.96 L701.381 1557.9 L679.437 1557.9 L679.437 1553.96 Q682.099 1551.21 686.682 1546.58 Q691.288 1541.93 692.469 1540.59 Q694.714 1538.06 695.594 1536.33 Q696.497 1534.57 696.497 1532.88 Q696.497 1530.12 694.552 1528.39 Q692.631 1526.65 689.529 1526.65 Q687.33 1526.65 684.876 1527.41 Q682.446 1528.18 679.668 1529.73 L679.668 1525.01 Q682.492 1523.87 684.946 1523.29 Q687.399 1522.71 689.436 1522.71 Q694.807 1522.71 698.001 1525.4 Q701.196 1528.09 701.196 1532.58 Q701.196 1534.71 700.385 1536.63 Q699.598 1538.52 697.492 1541.12 Q696.913 1541.79 693.811 1545.01 Q690.71 1548.2 685.061 1553.96 Z" fill="#000000" fill-rule="nonzero" fill-opacity="1" /><path clip-path="url(#clip270)" d="M914.338 1539.27 Q917.695 1539.98 919.57 1542.25 Q921.468 1544.52 921.468 1547.85 Q921.468 1552.97 917.949 1555.77 Q914.431 1558.57 907.949 1558.57 Q905.773 1558.57 903.459 1558.13 Q901.167 1557.71 898.713 1556.86 L898.713 1552.34 Q900.658 1553.48 902.973 1554.06 Q905.287 1554.64 907.81 1554.64 Q912.209 1554.64 914.5 1552.9 Q916.815 1551.16 916.815 1547.85 Q916.815 1544.8 914.662 1543.09 Q912.533 1541.35 908.713 1541.35 L904.685 1541.35 L904.685 1537.51 L908.898 1537.51 Q912.347 1537.51 914.176 1536.14 Q916.005 1534.75 916.005 1532.16 Q916.005 1529.5 914.107 1528.09 Q912.232 1526.65 908.713 1526.65 Q906.792 1526.65 904.593 1527.07 Q902.394 1527.48 899.755 1528.36 L899.755 1524.2 Q902.417 1523.46 904.732 1523.09 Q907.07 1522.71 909.13 1522.71 Q914.454 1522.71 917.556 1525.15 Q920.658 1527.55 920.658 1531.67 Q920.658 1534.54 919.014 1536.53 Q917.371 1538.5 914.338 1539.27 Z" fill="#000000" fill-rule="nonzero" fill-opacity="1" /><path clip-path="url(#clip270)" d="M1132.78 1527.41 L1120.98 1545.86 L1132.78 1545.86 L1132.78 1527.41 M1131.55 1523.34 L1137.43 1523.34 L1137.43 1545.86 L1142.36 1545.86 L1142.36 1549.75 L1137.43 1549.75 L1137.43 1557.9 L1132.78 1557.9 L1132.78 1549.75 L1117.18 1549.75 L1117.18 1545.24 L1131.55 1523.34 Z" fill="#000000" fill-rule="nonzero" fill-opacity="1" /><path clip-path="url(#clip270)" d="M1339.73 1523.34 L1358.09 1523.34 L1358.09 1527.28 L1344.01 1527.28 L1344.01 1535.75 Q1345.03 1535.4 1346.05 1535.24 Q1347.07 1535.05 1348.09 1535.05 Q1353.88 1535.05 1357.26 1538.22 Q1360.63 1541.4 1360.63 1546.81 Q1360.63 1552.39 1357.16 1555.49 Q1353.69 1558.57 1347.37 1558.57 Q1345.2 1558.57 1342.93 1558.2 Q1340.68 1557.83 1338.27 1557.09 L1338.27 1552.39 Q1340.36 1553.52 1342.58 1554.08 Q1344.8 1554.64 1347.28 1554.64 Q1351.28 1554.64 1353.62 1552.53 Q1355.96 1550.42 1355.96 1546.81 Q1355.96 1543.2 1353.62 1541.09 Q1351.28 1538.99 1347.28 1538.99 Q1345.4 1538.99 1343.53 1539.4 Q1341.68 1539.82 1339.73 1540.7 L1339.73 1523.34 Z" fill="#000000" fill-rule="nonzero" fill-opacity="1" /><path clip-path="url(#clip270)" d="M1569.54 1538.76 Q1566.39 1538.76 1564.54 1540.91 Q1562.71 1543.06 1562.71 1546.81 Q1562.71 1550.54 1564.54 1552.71 Q1566.39 1554.87 1569.54 1554.87 Q1572.69 1554.87 1574.52 1552.71 Q1576.37 1550.54 1576.37 1546.81 Q1576.37 1543.06 1574.52 1540.91 Q1572.69 1538.76 1569.54 1538.76 M1578.82 1524.1 L1578.82 1528.36 Q1577.06 1527.53 1575.26 1527.09 Q1573.48 1526.65 1571.72 1526.65 Q1567.09 1526.65 1564.63 1529.77 Q1562.2 1532.9 1561.86 1539.22 Q1563.22 1537.21 1565.28 1536.14 Q1567.34 1535.05 1569.82 1535.05 Q1575.03 1535.05 1578.04 1538.22 Q1581.07 1541.37 1581.07 1546.81 Q1581.07 1552.14 1577.92 1555.35 Q1574.77 1558.57 1569.54 1558.57 Q1563.55 1558.57 1560.37 1553.99 Q1557.2 1549.38 1557.2 1540.65 Q1557.2 1532.46 1561.09 1527.6 Q1564.98 1522.71 1571.53 1522.71 Q1573.29 1522.71 1575.07 1523.06 Q1576.88 1523.41 1578.82 1524.1 Z" fill="#000000" fill-rule="nonzero" fill-opacity="1" /><path clip-path="url(#clip270)" d="M951.317 1613.01 L931.043 1613.01 Q931.52 1622.52 933.716 1626.56 Q936.453 1631.53 941.196 1631.53 Q945.97 1631.53 948.612 1626.53 Q950.935 1622.14 951.317 1613.01 M951.222 1607.59 Q950.331 1598.56 948.612 1595.37 Q945.875 1590.34 941.196 1590.34 Q936.326 1590.34 933.748 1595.31 Q931.711 1599.32 931.106 1607.59 L951.222 1607.59 M941.196 1585.57 Q948.835 1585.57 953.195 1592.32 Q957.556 1599.03 957.556 1610.94 Q957.556 1622.81 953.195 1629.56 Q948.835 1636.34 941.196 1636.34 Q933.525 1636.34 929.197 1629.56 Q924.836 1622.81 924.836 1610.94 Q924.836 1599.03 929.197 1592.32 Q933.525 1585.57 941.196 1585.57 Z" fill="#000000" fill-rule="nonzero" fill-opacity="1" /><polyline clip-path="url(#clip272)" style="stroke:#000000; stroke-linecap:round; stroke-linejoin:round; stroke-width:2; stroke-opacity:0.1; fill:none" points="209.636,1255.85 1672.76,1255.85 "/>
<polyline clip-path="url(#clip272)" style="stroke:#000000; stroke-linecap:round; stroke-linejoin:round; stroke-width:2; stroke-opacity:0.1; fill:none" points="209.636,962.101 1672.76,962.101 "/>
<polyline clip-path="url(#clip272)" style="stroke:#000000; stroke-linecap:round; stroke-linejoin:round; stroke-width:2; stroke-opacity:0.1; fill:none" points="209.636,668.355 1672.76,668.355 "/>
<polyline clip-path="url(#clip272)" style="stroke:#000000; stroke-linecap:round; stroke-linejoin:round; stroke-width:2; stroke-opacity:0.1; fill:none" points="209.636,374.609 1672.76,374.609 "/>
<polyline clip-path="url(#clip272)" style="stroke:#000000; stroke-linecap:round; stroke-linejoin:round; stroke-width:2; stroke-opacity:0.1; fill:none" points="209.636,80.8636 1672.76,80.8636 "/>
<polyline clip-path="url(#clip270)" style="stroke:#000000; stroke-linecap:round; stroke-linejoin:round; stroke-width:4; stroke-opacity:1; fill:none" points="209.636,1500.94 209.636,47.2441 "/>
<polyline clip-path="url(#clip270)" style="stroke:#000000; stroke-linecap:round; stroke-linejoin:round; stroke-width:4; stroke-opacity:1; fill:none" points="209.636,1255.85 228.534,1255.85 "/>
<polyline clip-path="url(#clip270)" style="stroke:#000000; stroke-linecap:round; stroke-linejoin:round; stroke-width:4; stroke-opacity:1; fill:none" points="209.636,962.101 228.534,962.101 "/>
<polyline clip-path="url(#clip270)" style="stroke:#000000; stroke-linecap:round; stroke-linejoin:round; stroke-width:4; stroke-opacity:1; fill:none" points="209.636,668.355 228.534,668.355 "/>
<polyline clip-path="url(#clip270)" style="stroke:#000000; stroke-linecap:round; stroke-linejoin:round; stroke-width:4; stroke-opacity:1; fill:none" points="209.636,374.609 228.534,374.609 "/>
<polyline clip-path="url(#clip270)" style="stroke:#000000; stroke-linecap:round; stroke-linejoin:round; stroke-width:4; stroke-opacity:1; fill:none" points="209.636,80.8636 228.534,80.8636 "/>
<path clip-path="url(#clip270)" d="M67.3319 1241.65 Q63.7208 1241.65 61.8921 1245.21 Q60.0865 1248.75 60.0865 1255.88 Q60.0865 1262.99 61.8921 1266.55 Q63.7208 1270.09 67.3319 1270.09 Q70.9661 1270.09 72.7717 1266.55 Q74.6004 1262.99 74.6004 1255.88 Q74.6004 1248.75 72.7717 1245.21 Q70.9661 1241.65 67.3319 1241.65 M67.3319 1237.94 Q73.142 1237.94 76.1976 1242.55 Q79.2763 1247.13 79.2763 1255.88 Q79.2763 1264.61 76.1976 1269.21 Q73.142 1273.8 67.3319 1273.8 Q61.5217 1273.8 58.443 1269.21 Q55.3875 1264.61 55.3875 1255.88 Q55.3875 1247.13 58.443 1242.55 Q61.5217 1237.94 67.3319 1237.94 Z" fill="#000000" fill-rule="nonzero" fill-opacity="1" /><path clip-path="url(#clip270)" d="M87.4938 1267.25 L92.378 1267.25 L92.378 1273.13 L87.4938 1273.13 L87.4938 1267.25 Z" fill="#000000" fill-rule="nonzero" fill-opacity="1" /><path clip-path="url(#clip270)" d="M112.563 1241.65 Q108.952 1241.65 107.123 1245.21 Q105.318 1248.75 105.318 1255.88 Q105.318 1262.99 107.123 1266.55 Q108.952 1270.09 112.563 1270.09 Q116.197 1270.09 118.003 1266.55 Q119.832 1262.99 119.832 1255.88 Q119.832 1248.75 118.003 1245.21 Q116.197 1241.65 112.563 1241.65 M112.563 1237.94 Q118.373 1237.94 121.429 1242.55 Q124.507 1247.13 124.507 1255.88 Q124.507 1264.61 121.429 1269.21 Q118.373 1273.8 112.563 1273.8 Q106.753 1273.8 103.674 1269.21 Q100.619 1264.61 100.619 1255.88 Q100.619 1247.13 103.674 1242.55 Q106.753 1237.94 112.563 1237.94 Z" fill="#000000" fill-rule="nonzero" fill-opacity="1" /><path clip-path="url(#clip270)" d="M142.725 1241.65 Q139.114 1241.65 137.285 1245.21 Q135.48 1248.75 135.48 1255.88 Q135.48 1262.99 137.285 1266.55 Q139.114 1270.09 142.725 1270.09 Q146.359 1270.09 148.165 1266.55 Q149.993 1262.99 149.993 1255.88 Q149.993 1248.75 148.165 1245.21 Q146.359 1241.65 142.725 1241.65 M142.725 1237.94 Q148.535 1237.94 151.591 1242.55 Q154.669 1247.13 154.669 1255.88 Q154.669 1264.61 151.591 1269.21 Q148.535 1273.8 142.725 1273.8 Q136.915 1273.8 133.836 1269.21 Q130.781 1264.61 130.781 1255.88 Q130.781 1247.13 133.836 1242.55 Q136.915 1237.94 142.725 1237.94 Z" fill="#000000" fill-rule="nonzero" fill-opacity="1" /><path clip-path="url(#clip270)" d="M162.933 1238.57 L181.29 1238.57 L181.29 1242.5 L167.216 1242.5 L167.216 1250.97 Q168.234 1250.63 169.253 1250.46 Q170.271 1250.28 171.29 1250.28 Q177.077 1250.28 180.456 1253.45 Q183.836 1256.62 183.836 1262.04 Q183.836 1267.62 180.364 1270.72 Q176.891 1273.8 170.572 1273.8 Q168.396 1273.8 166.128 1273.43 Q163.882 1273.06 161.475 1272.32 L161.475 1267.62 Q163.558 1268.75 165.78 1269.31 Q168.003 1269.86 170.479 1269.86 Q174.484 1269.86 176.822 1267.76 Q179.16 1265.65 179.16 1262.04 Q179.16 1258.43 176.822 1256.32 Q174.484 1254.21 170.479 1254.21 Q168.604 1254.21 166.729 1254.63 Q164.878 1255.05 162.933 1255.93 L162.933 1238.57 Z" fill="#000000" fill-rule="nonzero" fill-opacity="1" /><path clip-path="url(#clip270)" d="M66.3365 947.9 Q62.7254 947.9 60.8967 951.464 Q59.0912 955.006 59.0912 962.136 Q59.0912 969.242 60.8967 972.807 Q62.7254 976.349 66.3365 976.349 Q69.9707 976.349 71.7763 972.807 Q73.605 969.242 73.605 962.136 Q73.605 955.006 71.7763 951.464 Q69.9707 947.9 66.3365 947.9 M66.3365 944.196 Q72.1467 944.196 75.2022 948.802 Q78.2809 953.386 78.2809 962.136 Q78.2809 970.862 75.2022 975.469 Q72.1467 980.052 66.3365 980.052 Q60.5264 980.052 57.4477 975.469 Q54.3921 970.862 54.3921 962.136 Q54.3921 953.386 57.4477 948.802 Q60.5264 944.196 66.3365 944.196 Z" fill="#000000" fill-rule="nonzero" fill-opacity="1" /><path clip-path="url(#clip270)" d="M86.4984 973.501 L91.3827 973.501 L91.3827 979.381 L86.4984 979.381 L86.4984 973.501 Z" fill="#000000" fill-rule="nonzero" fill-opacity="1" /><path clip-path="url(#clip270)" d="M111.568 947.9 Q107.957 947.9 106.128 951.464 Q104.322 955.006 104.322 962.136 Q104.322 969.242 106.128 972.807 Q107.957 976.349 111.568 976.349 Q115.202 976.349 117.008 972.807 Q118.836 969.242 118.836 962.136 Q118.836 955.006 117.008 951.464 Q115.202 947.9 111.568 947.9 M111.568 944.196 Q117.378 944.196 120.433 948.802 Q123.512 953.386 123.512 962.136 Q123.512 970.862 120.433 975.469 Q117.378 980.052 111.568 980.052 Q105.758 980.052 102.679 975.469 Q99.6234 970.862 99.6234 962.136 Q99.6234 953.386 102.679 948.802 Q105.758 944.196 111.568 944.196 Z" fill="#000000" fill-rule="nonzero" fill-opacity="1" /><path clip-path="url(#clip270)" d="M132.54 975.446 L140.179 975.446 L140.179 949.08 L131.869 950.747 L131.869 946.488 L140.132 944.821 L144.808 944.821 L144.808 975.446 L152.447 975.446 L152.447 979.381 L132.54 979.381 L132.54 975.446 Z" fill="#000000" fill-rule="nonzero" fill-opacity="1" /><path clip-path="url(#clip270)" d="M171.891 947.9 Q168.28 947.9 166.452 951.464 Q164.646 955.006 164.646 962.136 Q164.646 969.242 166.452 972.807 Q168.28 976.349 171.891 976.349 Q175.526 976.349 177.331 972.807 Q179.16 969.242 179.16 962.136 Q179.16 955.006 177.331 951.464 Q175.526 947.9 171.891 947.9 M171.891 944.196 Q177.702 944.196 180.757 948.802 Q183.836 953.386 183.836 962.136 Q183.836 970.862 180.757 975.469 Q177.702 980.052 171.891 980.052 Q166.081 980.052 163.003 975.469 Q159.947 970.862 159.947 962.136 Q159.947 953.386 163.003 948.802 Q166.081 944.196 171.891 944.196 Z" fill="#000000" fill-rule="nonzero" fill-opacity="1" /><path clip-path="url(#clip270)" d="M67.3319 654.154 Q63.7208 654.154 61.8921 657.719 Q60.0865 661.26 60.0865 668.39 Q60.0865 675.496 61.8921 679.061 Q63.7208 682.603 67.3319 682.603 Q70.9661 682.603 72.7717 679.061 Q74.6004 675.496 74.6004 668.39 Q74.6004 661.26 72.7717 657.719 Q70.9661 654.154 67.3319 654.154 M67.3319 650.45 Q73.142 650.45 76.1976 655.057 Q79.2763 659.64 79.2763 668.39 Q79.2763 677.117 76.1976 681.723 Q73.142 686.306 67.3319 686.306 Q61.5217 686.306 58.443 681.723 Q55.3875 677.117 55.3875 668.39 Q55.3875 659.64 58.443 655.057 Q61.5217 650.45 67.3319 650.45 Z" fill="#000000" fill-rule="nonzero" fill-opacity="1" /><path clip-path="url(#clip270)" d="M87.4938 679.756 L92.378 679.756 L92.378 685.635 L87.4938 685.635 L87.4938 679.756 Z" fill="#000000" fill-rule="nonzero" fill-opacity="1" /><path clip-path="url(#clip270)" d="M112.563 654.154 Q108.952 654.154 107.123 657.719 Q105.318 661.26 105.318 668.39 Q105.318 675.496 107.123 679.061 Q108.952 682.603 112.563 682.603 Q116.197 682.603 118.003 679.061 Q119.832 675.496 119.832 668.39 Q119.832 661.26 118.003 657.719 Q116.197 654.154 112.563 654.154 M112.563 650.45 Q118.373 650.45 121.429 655.057 Q124.507 659.64 124.507 668.39 Q124.507 677.117 121.429 681.723 Q118.373 686.306 112.563 686.306 Q106.753 686.306 103.674 681.723 Q100.619 677.117 100.619 668.39 Q100.619 659.64 103.674 655.057 Q106.753 650.45 112.563 650.45 Z" fill="#000000" fill-rule="nonzero" fill-opacity="1" /><path clip-path="url(#clip270)" d="M133.535 681.7 L141.174 681.7 L141.174 655.334 L132.864 657.001 L132.864 652.742 L141.128 651.075 L145.804 651.075 L145.804 681.7 L153.443 681.7 L153.443 685.635 L133.535 685.635 L133.535 681.7 Z" fill="#000000" fill-rule="nonzero" fill-opacity="1" /><path clip-path="url(#clip270)" d="M162.933 651.075 L181.29 651.075 L181.29 655.01 L167.216 655.01 L167.216 663.482 Q168.234 663.135 169.253 662.973 Q170.271 662.788 171.29 662.788 Q177.077 662.788 180.456 665.959 Q183.836 669.131 183.836 674.547 Q183.836 680.126 180.364 683.228 Q176.891 686.306 170.572 686.306 Q168.396 686.306 166.128 685.936 Q163.882 685.566 161.475 684.825 L161.475 680.126 Q163.558 681.26 165.78 681.816 Q168.003 682.371 170.479 682.371 Q174.484 682.371 176.822 680.265 Q179.16 678.158 179.16 674.547 Q179.16 670.936 176.822 668.83 Q174.484 666.723 170.479 666.723 Q168.604 666.723 166.729 667.14 Q164.878 667.557 162.933 668.436 L162.933 651.075 Z" fill="#000000" fill-rule="nonzero" fill-opacity="1" /><path clip-path="url(#clip270)" d="M66.3365 360.408 Q62.7254 360.408 60.8967 363.973 Q59.0912 367.515 59.0912 374.644 Q59.0912 381.751 60.8967 385.315 Q62.7254 388.857 66.3365 388.857 Q69.9707 388.857 71.7763 385.315 Q73.605 381.751 73.605 374.644 Q73.605 367.515 71.7763 363.973 Q69.9707 360.408 66.3365 360.408 M66.3365 356.704 Q72.1467 356.704 75.2022 361.311 Q78.2809 365.894 78.2809 374.644 Q78.2809 383.371 75.2022 387.977 Q72.1467 392.561 66.3365 392.561 Q60.5264 392.561 57.4477 387.977 Q54.3921 383.371 54.3921 374.644 Q54.3921 365.894 57.4477 361.311 Q60.5264 356.704 66.3365 356.704 Z" fill="#000000" fill-rule="nonzero" fill-opacity="1" /><path clip-path="url(#clip270)" d="M86.4984 386.01 L91.3827 386.01 L91.3827 391.889 L86.4984 391.889 L86.4984 386.01 Z" fill="#000000" fill-rule="nonzero" fill-opacity="1" /><path clip-path="url(#clip270)" d="M111.568 360.408 Q107.957 360.408 106.128 363.973 Q104.322 367.515 104.322 374.644 Q104.322 381.751 106.128 385.315 Q107.957 388.857 111.568 388.857 Q115.202 388.857 117.008 385.315 Q118.836 381.751 118.836 374.644 Q118.836 367.515 117.008 363.973 Q115.202 360.408 111.568 360.408 M111.568 356.704 Q117.378 356.704 120.433 361.311 Q123.512 365.894 123.512 374.644 Q123.512 383.371 120.433 387.977 Q117.378 392.561 111.568 392.561 Q105.758 392.561 102.679 387.977 Q99.6234 383.371 99.6234 374.644 Q99.6234 365.894 102.679 361.311 Q105.758 356.704 111.568 356.704 Z" fill="#000000" fill-rule="nonzero" fill-opacity="1" /><path clip-path="url(#clip270)" d="M135.757 387.954 L152.077 387.954 L152.077 391.889 L130.132 391.889 L130.132 387.954 Q132.794 385.2 137.378 380.57 Q141.984 375.917 143.165 374.575 Q145.41 372.052 146.29 370.315 Q147.193 368.556 147.193 366.866 Q147.193 364.112 145.248 362.376 Q143.327 360.64 140.225 360.64 Q138.026 360.64 135.572 361.403 Q133.142 362.167 130.364 363.718 L130.364 358.996 Q133.188 357.862 135.642 357.283 Q138.095 356.704 140.132 356.704 Q145.503 356.704 148.697 359.39 Q151.892 362.075 151.892 366.565 Q151.892 368.695 151.081 370.616 Q150.294 372.515 148.188 375.107 Q147.609 375.778 144.507 378.996 Q141.406 382.19 135.757 387.954 Z" fill="#000000" fill-rule="nonzero" fill-opacity="1" /><path clip-path="url(#clip270)" d="M171.891 360.408 Q168.28 360.408 166.452 363.973 Q164.646 367.515 164.646 374.644 Q164.646 381.751 166.452 385.315 Q168.28 388.857 171.891 388.857 Q175.526 388.857 177.331 385.315 Q179.16 381.751 179.16 374.644 Q179.16 367.515 177.331 363.973 Q175.526 360.408 171.891 360.408 M171.891 356.704 Q177.702 356.704 180.757 361.311 Q183.836 365.894 183.836 374.644 Q183.836 383.371 180.757 387.977 Q177.702 392.561 171.891 392.561 Q166.081 392.561 163.003 387.977 Q159.947 383.371 159.947 374.644 Q159.947 365.894 163.003 361.311 Q166.081 356.704 171.891 356.704 Z" fill="#000000" fill-rule="nonzero" fill-opacity="1" /><path clip-path="url(#clip270)" d="M67.3319 66.6623 Q63.7208 66.6623 61.8921 70.2271 Q60.0865 73.7688 60.0865 80.8984 Q60.0865 88.0048 61.8921 91.5696 Q63.7208 95.1113 67.3319 95.1113 Q70.9661 95.1113 72.7717 91.5696 Q74.6004 88.0048 74.6004 80.8984 Q74.6004 73.7688 72.7717 70.2271 Q70.9661 66.6623 67.3319 66.6623 M67.3319 62.9587 Q73.142 62.9587 76.1976 67.5651 Q79.2763 72.1484 79.2763 80.8984 Q79.2763 89.6252 76.1976 94.2316 Q73.142 98.8149 67.3319 98.8149 Q61.5217 98.8149 58.443 94.2316 Q55.3875 89.6252 55.3875 80.8984 Q55.3875 72.1484 58.443 67.5651 Q61.5217 62.9587 67.3319 62.9587 Z" fill="#000000" fill-rule="nonzero" fill-opacity="1" /><path clip-path="url(#clip270)" d="M87.4938 92.264 L92.378 92.264 L92.378 98.1436 L87.4938 98.1436 L87.4938 92.264 Z" fill="#000000" fill-rule="nonzero" fill-opacity="1" /><path clip-path="url(#clip270)" d="M112.563 66.6623 Q108.952 66.6623 107.123 70.2271 Q105.318 73.7688 105.318 80.8984 Q105.318 88.0048 107.123 91.5696 Q108.952 95.1113 112.563 95.1113 Q116.197 95.1113 118.003 91.5696 Q119.832 88.0048 119.832 80.8984 Q119.832 73.7688 118.003 70.2271 Q116.197 66.6623 112.563 66.6623 M112.563 62.9587 Q118.373 62.9587 121.429 67.5651 Q124.507 72.1484 124.507 80.8984 Q124.507 89.6252 121.429 94.2316 Q118.373 98.8149 112.563 98.8149 Q106.753 98.8149 103.674 94.2316 Q100.619 89.6252 100.619 80.8984 Q100.619 72.1484 103.674 67.5651 Q106.753 62.9587 112.563 62.9587 Z" fill="#000000" fill-rule="nonzero" fill-opacity="1" /><path clip-path="url(#clip270)" d="M136.753 94.2085 L153.072 94.2085 L153.072 98.1436 L131.128 98.1436 L131.128 94.2085 Q133.79 91.4539 138.373 86.8243 Q142.98 82.1715 144.16 80.8289 Q146.406 78.3058 147.285 76.5697 Q148.188 74.8104 148.188 73.1206 Q148.188 70.366 146.243 68.6299 Q144.322 66.8938 141.22 66.8938 Q139.021 66.8938 136.568 67.6577 Q134.137 68.4216 131.359 69.9725 L131.359 65.2503 Q134.183 64.1161 136.637 63.5374 Q139.091 62.9587 141.128 62.9587 Q146.498 62.9587 149.693 65.6438 Q152.887 68.329 152.887 72.8197 Q152.887 74.9493 152.077 76.8706 Q151.29 78.7688 149.183 81.3613 Q148.605 82.0326 145.503 85.2502 Q142.401 88.4446 136.753 94.2085 Z" fill="#000000" fill-rule="nonzero" fill-opacity="1" /><path clip-path="url(#clip270)" d="M162.933 63.5836 L181.29 63.5836 L181.29 67.5188 L167.216 67.5188 L167.216 75.991 Q168.234 75.6438 169.253 75.4817 Q170.271 75.2965 171.29 75.2965 Q177.077 75.2965 180.456 78.4678 Q183.836 81.6391 183.836 87.0557 Q183.836 92.6344 180.364 95.7363 Q176.891 98.8149 170.572 98.8149 Q168.396 98.8149 166.128 98.4446 Q163.882 98.0742 161.475 97.3335 L161.475 92.6344 Q163.558 93.7687 165.78 94.3242 Q168.003 94.8798 170.479 94.8798 Q174.484 94.8798 176.822 92.7733 Q179.16 90.6668 179.16 87.0557 Q179.16 83.4447 176.822 81.3382 Q174.484 79.2317 170.479 79.2317 Q168.604 79.2317 166.729 79.6484 Q164.878 80.065 162.933 80.9447 L162.933 63.5836 Z" fill="#000000" fill-rule="nonzero" fill-opacity="1" /><polyline clip-path="url(#clip272)" style="stroke:#009af9; stroke-linecap:round; stroke-linejoin:round; stroke-width:4; stroke-opacity:1; fill:none" points="251.045,355.48 252.772,371.15 254.5,387.025 256.228,403.079 257.955,419.284 259.683,435.612 261.41,452.036 263.138,468.531 264.865,485.069 266.593,501.625 268.32,518.173 270.048,534.689 271.775,551.15 273.503,567.531 275.23,583.811 276.958,599.97 278.686,615.986 280.413,631.84 282.141,647.515 283.868,662.994 285.596,678.261 287.323,693.302 289.051,708.104 290.778,722.654 292.506,736.942 294.233,750.958 295.961,764.694 297.688,778.143 299.416,791.3 301.144,804.158 302.871,816.716 304.599,828.97 306.326,840.918 308.054,852.562 309.781,863.9 311.509,874.935 313.236,885.668 314.964,896.103 316.691,906.245 318.419,916.096 320.146,925.663 321.874,934.952 323.601,943.968 325.329,952.719 327.057,961.211 328.784,969.452 330.512,977.451 332.239,985.214 333.967,992.75 335.694,1000.07 337.422,1007.18 339.149,1014.08 340.877,1020.8 342.604,1027.32 344.332,1033.68 346.059,1039.86 347.787,1045.89 349.515,1051.76 351.242,1057.49 352.97,1063.08 354.697,1068.55 356.425,1073.89 358.152,1079.12 359.88,1084.23 361.607,1089.25 363.335,1094.17 365.062,1099 366.79,1103.74 368.517,1108.41 370.245,1113 371.973,1117.52 373.7,1121.97 375.428,1126.36 377.155,1130.69 378.883,1134.96 380.61,1139.19 382.338,1143.36 384.065,1147.49 385.793,1151.57 387.52,1155.61 389.248,1159.61 390.975,1163.57 392.703,1167.5 394.43,1171.38 396.158,1175.24 397.886,1179.06 399.613,1182.85 401.341,1186.61 403.068,1190.33 404.796,1194.03 406.523,1197.7 408.251,1201.34 409.978,1204.94 411.706,1208.53 413.433,1212.08 415.161,1215.6 416.888,1219.09 418.616,1222.56 420.344,1226 422.071,1229.41 423.799,1232.79 425.526,1236.14 427.254,1239.46 428.981,1242.75 430.709,1246.02 432.436,1249.25 434.164,1252.46 435.891,1255.63 437.619,1258.78 439.346,1261.89 441.074,1264.98 442.802,1268.03 444.529,1271.05 446.257,1274.05 447.984,1277.01 449.712,1279.94 451.439,1282.84 453.167,1285.71 454.894,1288.55 456.622,1291.36 458.349,1294.13 460.077,1296.88 461.804,1299.59 463.532,1302.27 465.259,1304.92 466.987,1307.54 468.715,1310.13 470.442,1312.69 472.17,1315.22 473.897,1317.71 475.625,1320.18 477.352,1322.61 479.08,1325.02 480.807,1327.39 482.535,1329.74 484.262,1332.05 485.99,1334.33 487.717,1336.59 489.445,1338.81 491.173,1341.01 492.9,1343.17 494.628,1345.31 496.355,1347.42 498.083,1349.5 499.81,1351.55 501.538,1353.58 503.265,1355.58 504.993,1357.54 506.72,1359.49 508.448,1361.4 510.175,1363.29 511.903,1365.15 513.631,1366.99 515.358,1368.8 517.086,1370.58 518.813,1372.34 520.541,1374.07 522.268,1375.78 523.996,1377.46 525.723,1379.12 527.451,1380.76 529.178,1382.37 530.906,1383.96 532.633,1385.52 534.361,1387.06 536.089,1388.58 537.816,1390.08 539.544,1391.55 541.271,1393 542.999,1394.43 544.726,1395.84 546.454,1397.23 548.181,1398.59 549.909,1399.94 551.636,1401.26 553.364,1402.57 555.091,1403.85 556.819,1405.11 558.546,1406.36 560.274,1407.58 562.002,1408.79 563.729,1409.98 565.457,1411.15 567.184,1412.3 568.912,1413.43 570.639,1414.54 572.367,1415.64 574.094,1416.72 575.822,1417.78 577.549,1418.82 579.277,1419.85 581.004,1420.86 582.732,1421.85 584.46,1422.83 586.187,1423.79 587.915,1424.73 589.642,1425.66 591.37,1426.57 593.097,1427.47 594.825,1428.35 596.552,1429.22 598.28,1430.07 600.007,1430.91 601.735,1431.73 603.462,1432.54 605.19,1433.34 606.918,1434.11 608.645,1434.88 610.373,1435.63 612.1,1436.37 613.828,1437.09 615.555,1437.8 617.283,1438.5 619.01,1439.18 620.738,1439.85 622.465,1440.51 624.193,1441.16 625.92,1441.79 627.648,1442.41 629.375,1443.01 631.103,1443.61 632.831,1444.19 634.558,1444.76 636.286,1445.32 638.013,1445.86 639.741,1446.4 641.468,1446.92 643.196,1447.43 644.923,1447.93 646.651,1448.41 648.378,1448.89 650.106,1449.35 651.833,1449.8 653.561,1450.25 655.289,1450.68 657.016,1451.09 658.744,1451.5 660.471,1451.9 662.199,1452.29 663.926,1452.66 665.654,1453.03 667.381,1453.38 669.109,1453.73 670.836,1454.06 672.564,1454.39 674.291,1454.7 676.019,1455 677.747,1455.29 679.474,1455.58 681.202,1455.85 682.929,1456.11 684.657,1456.37 686.384,1456.61 688.112,1456.84 689.839,1457.07 691.567,1457.28 693.294,1457.49 695.022,1457.68 696.749,1457.87 698.477,1458.05 700.205,1458.22 701.932,1458.38 703.66,1458.53 705.387,1458.67 707.115,1458.8 708.842,1458.92 710.57,1459.04 712.297,1459.15 714.025,1459.24 715.752,1459.33 717.48,1459.41 719.207,1459.49 720.935,1459.55 722.662,1459.61 724.39,1459.66 726.118,1459.7 727.845,1459.74 729.573,1459.76 731.3,1459.78 733.028,1459.79 734.755,1459.8 736.483,1459.8 738.21,1459.79 739.938,1459.77 741.665,1459.75 743.393,1459.72 745.12,1459.68 746.848,1459.64 748.576,1459.59 750.303,1459.54 752.031,1459.48 753.758,1459.41 755.486,1459.34 757.213,1459.27 758.941,1459.18 760.668,1459.1 762.396,1459.01 764.123,1458.91 765.851,1458.81 767.578,1458.7 769.306,1458.59 771.034,1458.48 772.761,1458.36 774.489,1458.24 776.216,1458.11 777.944,1457.98 779.671,1457.85 781.399,1457.71 783.126,1457.57 784.854,1457.42 786.581,1457.27 788.309,1457.12 790.036,1456.96 791.764,1456.8 793.491,1456.64 795.219,1456.47 796.947,1456.29 798.674,1456.12 800.402,1455.94 802.129,1455.75 803.857,1455.56 805.584,1455.36 807.312,1455.16 809.039,1454.95 810.767,1454.73 812.494,1454.51 814.222,1454.28 815.949,1454.04 817.677,1453.8 819.405,1453.54 821.132,1453.27 822.86,1453 824.587,1452.71 826.315,1452.4 828.042,1452.09 829.77,1451.75 831.497,1451.41 833.225,1451.04 834.952,1450.65 836.68,1450.25 838.407,1449.82 840.135,1449.38 841.863,1448.9 843.59,1448.4 845.318,1447.88 847.045,1447.32 848.773,1446.73 850.5,1446.12 852.228,1445.46 853.955,1444.77 855.683,1444.05 857.41,1443.28 859.138,1442.47 860.865,1441.62 862.593,1440.72 864.321,1439.78 866.048,1438.79 867.776,1437.75 869.503,1436.65 871.231,1435.5 872.958,1434.3 874.686,1433.03 876.413,1431.71 878.141,1430.33 879.868,1428.89 881.596,1427.39 883.323,1425.82 885.051,1424.19 886.778,1422.5 888.506,1420.73 890.234,1418.91 891.961,1417.01 893.689,1415.05 895.416,1413.02 897.144,1410.93 898.871,1408.77 900.599,1406.54 902.326,1404.25 904.054,1401.9 905.781,1399.48 907.509,1397.01 909.236,1394.47 910.964,1391.88 912.692,1389.23 914.419,1386.53 916.147,1383.77 917.874,1380.97 919.602,1378.12 921.329,1375.23 923.057,1372.3 924.784,1369.34 926.512,1366.34 928.239,1363.31 929.967,1360.26 931.694,1357.18 933.422,1354.09 935.15,1350.98 936.877,1347.86 938.605,1344.74 940.332,1341.61 942.06,1338.49 943.787,1335.37 945.515,1332.26 947.242,1329.16 948.97,1326.09 950.697,1323.03 952.425,1320 954.152,1317 955.88,1314.04 957.607,1311.11 959.335,1308.22 961.063,1305.37 962.79,1302.57 964.518,1299.82 966.245,1297.12 967.973,1294.48 969.7,1291.89 971.428,1289.37 973.155,1286.9 974.883,1284.5 976.61,1282.16 978.338,1279.89 980.065,1277.68 981.793,1275.55 983.521,1273.48 985.248,1271.48 986.976,1269.55 988.703,1267.69 990.431,1265.91 992.158,1264.19 993.886,1262.54 995.613,1260.96 997.341,1259.44 999.068,1258 1000.8,1256.62 1002.52,1255.3 1004.25,1254.05 1005.98,1252.86 1007.71,1251.73 1009.43,1250.66 1011.16,1249.65 1012.89,1248.69 1014.62,1247.79 1016.34,1246.93 1018.07,1246.13 1019.8,1245.37 1021.53,1244.66 1023.25,1243.99 1024.98,1243.37 1026.71,1242.78 1028.44,1242.22 1030.16,1241.71 1031.89,1241.22 1033.62,1240.77 1035.35,1240.34 1037.07,1239.94 1038.8,1239.56 1040.53,1239.21 1042.26,1238.88 1043.98,1238.56 1045.71,1238.26 1047.44,1237.98 1049.17,1237.71 1050.89,1237.45 1052.62,1237.2 1054.35,1236.96 1056.08,1236.73 1057.8,1236.5 1059.53,1236.28 1061.26,1236.06 1062.99,1235.84 1064.71,1235.62 1066.44,1235.4 1068.17,1235.18 1069.9,1234.95 1071.62,1234.73 1073.35,1234.49 1075.08,1234.25 1076.81,1234.01 1078.54,1233.76 1080.26,1233.5 1081.99,1233.23 1083.72,1232.95 1085.45,1232.67 1087.17,1232.37 1088.9,1232.06 1090.63,1231.74 1092.36,1231.41 1094.08,1231.06 1095.81,1230.71 1097.54,1230.34 1099.27,1229.95 1100.99,1229.56 1102.72,1229.15 1104.45,1228.72 1106.18,1228.28 1107.9,1227.82 1109.63,1227.35 1111.36,1226.87 1113.09,1226.36 1114.81,1225.84 1116.54,1225.31 1118.27,1224.76 1120,1224.19 1121.72,1223.6 1123.45,1223 1125.18,1222.38 1126.91,1221.74 1128.63,1221.09 1130.36,1220.41 1132.09,1219.72 1133.82,1219.01 1135.54,1218.28 1137.27,1217.54 1139,1216.77 1140.73,1215.98 1142.45,1215.18 1144.18,1214.36 1145.91,1213.51 1147.64,1212.65 1149.36,1211.76 1151.09,1210.86 1152.82,1209.93 1154.55,1208.99 1156.27,1208.02 1158,1207.03 1159.73,1206.02 1161.46,1204.99 1163.18,1203.94 1164.91,1202.86 1166.64,1201.76 1168.37,1200.64 1170.09,1199.49 1171.82,1198.32 1173.55,1197.13 1175.28,1195.91 1177,1194.67 1178.73,1193.4 1180.46,1192.11 1182.19,1190.79 1183.91,1189.44 1185.64,1188.07 1187.37,1186.67 1189.1,1185.24 1190.82,1183.78 1192.55,1182.3 1194.28,1180.78 1196.01,1179.23 1197.74,1177.66 1199.46,1176.05 1201.19,1174.41 1202.92,1172.73 1204.65,1171.02 1206.37,1169.28 1208.1,1167.5 1209.83,1165.69 1211.56,1163.83 1213.28,1161.94 1215.01,1160.01 1216.74,1158.04 1218.47,1156.03 1220.19,1153.97 1221.92,1151.87 1223.65,1149.73 1225.38,1147.53 1227.1,1145.29 1228.83,1143 1230.56,1140.66 1232.29,1138.26 1234.01,1135.81 1235.74,1133.3 1237.47,1130.73 1239.2,1128.11 1240.92,1125.41 1242.65,1122.66 1244.38,1119.83 1246.11,1116.94 1247.83,1113.97 1249.56,1110.93 1251.29,1107.81 1253.02,1104.61 1254.74,1101.33 1256.47,1097.95 1258.2,1094.49 1259.93,1090.94 1261.65,1087.29 1263.38,1083.55 1265.11,1079.7 1266.84,1075.74 1268.56,1071.68 1270.29,1067.5 1272.02,1063.2 1273.75,1058.79 1275.47,1054.25 1277.2,1049.59 1278.93,1044.79 1280.66,1039.86 1282.38,1034.79 1284.11,1029.58 1285.84,1024.23 1287.57,1018.73 1289.29,1013.07 1291.02,1007.26 1292.75,1001.3 1294.48,995.174 1296.2,988.887 1297.93,982.435 1299.66,975.817 1301.39,969.031 1303.11,962.076 1304.84,954.95 1306.57,947.654 1308.3,940.185 1310.03,932.546 1311.75,924.736 1313.48,916.757 1315.21,908.61 1316.94,900.298 1318.66,891.822 1320.39,883.187 1322.12,874.396 1323.85,865.453 1325.57,856.364 1327.3,847.133 1329.03,837.768 1330.76,828.275 1332.48,818.662 1334.21,808.937 1335.94,799.109 1337.67,789.186 1339.39,779.18 1341.12,769.1 1342.85,758.959 1344.58,748.767 1346.3,738.537 1348.03,728.282 1349.76,718.015 1351.49,707.75 1353.21,697.501 1354.94,687.282 1356.67,677.108 1358.4,666.994 1360.12,656.955 1361.85,647.006 1363.58,637.162 1365.31,627.439 1367.03,617.853 1368.76,608.417 1370.49,599.148 1372.22,590.059 1373.94,581.165 1375.67,572.479 1377.4,564.016 1379.13,555.788 1380.85,547.806 1382.58,540.083 1384.31,532.63 1386.04,525.456 1387.76,518.57 1389.49,511.981 1391.22,505.695 1392.95,499.719 1394.67,494.059 1396.4,488.717 1398.13,483.697 1399.86,479.001 1401.58,474.629 1403.31,470.58 1405.04,466.853 1406.77,463.445 1408.49,460.351 1410.22,457.565 1411.95,455.082 1413.68,452.893 1415.4,450.99 1417.13,449.362 1418.86,447.998 1420.59,446.887 1422.31,446.014 1424.04,445.367 1425.77,444.93 1427.5,444.687 1429.23,444.622 1430.95,444.719 1432.68,444.959 1434.41,445.324 1436.14,445.796 1437.86,446.355 1439.59,446.984 1441.32,447.661 1443.05,448.368 1444.77,449.085 1446.5,449.793 1448.23,450.471 1449.96,451.102 1451.68,451.666 1453.41,452.144 1455.14,452.519 1456.87,452.773 1458.59,452.888 1460.32,452.849 1462.05,452.64 1463.78,452.246 1465.5,451.652 1467.23,450.845 1468.96,449.813 1470.69,448.544 1472.41,447.028 1474.14,445.255 1475.87,443.217 1477.6,440.906 1479.32,438.315 1481.05,435.44 1482.78,432.277 1484.51,428.821 1486.23,425.071 1487.96,421.026 1489.69,416.686 1491.42,412.053 1493.14,407.129 1494.87,401.917 1496.6,396.423 1498.33,390.651 1500.05,384.608 1501.78,378.302 1503.51,371.741 1505.24,364.936 1506.96,357.897 1508.69,350.636 1510.42,343.164 1512.15,335.495 1513.87,327.645 1515.6,319.626 1517.33,311.457 1519.06,303.152 1520.78,294.729 1522.51,286.207 1524.24,277.604 1525.97,268.938 1527.69,260.231 1529.42,251.503 1531.15,242.774 1532.88,234.065 1534.6,225.4 1536.33,216.798 1538.06,208.284 1539.79,199.88 1541.51,191.608 1543.24,183.493 1544.97,175.556 1546.7,167.822 1548.43,160.313 1550.15,153.054 1551.88,146.066 1553.61,139.373 1555.34,132.997 1557.06,126.961 1558.79,121.286 1560.52,115.995 1562.25,111.107 1563.97,106.644 1565.7,102.624 1567.43,99.0675 1569.16,95.9913 1570.88,93.4129 1572.61,91.3487 1574.34,89.8136 1576.07,88.8219 1577.79,88.3864 1579.52,88.5189 1581.25,89.2297 1582.98,90.528 1584.7,92.4215 1586.43,94.9164 1588.16,98.0177 1589.89,101.729 1591.61,106.051 1593.34,110.985 1595.07,116.529 1596.8,122.681 1598.52,129.436 1600.25,136.788 1601.98,144.728 1603.71,153.249 1605.43,162.339 1607.16,171.985 1608.89,182.175 1610.62,192.892 1612.34,204.121 1614.07,215.843 1615.8,228.04 1617.53,240.691 1619.25,253.774 1620.98,267.267 1622.71,281.147 1624.44,295.39 1626.16,309.971 1627.89,324.863 1629.62,340.042 1631.35,355.48 "/>
<path clip-path="url(#clip270)" d="M792.029 1452.48 L1623.99 1452.48 L1623.99 1348.8 L792.029 1348.8  Z" fill="#ffffff" fill-rule="evenodd" fill-opacity="1"/>
<polyline clip-path="url(#clip270)" style="stroke:#000000; stroke-linecap:round; stroke-linejoin:round; stroke-width:4; stroke-opacity:1; fill:none" points="792.029,1452.48 1623.99,1452.48 1623.99,1348.8 792.029,1348.8 792.029,1452.48 "/>
<polyline clip-path="url(#clip270)" style="stroke:#009af9; stroke-linecap:round; stroke-linejoin:round; stroke-width:4; stroke-opacity:1; fill:none" points="808.286,1400.64 905.827,1400.64 "/>
<path clip-path="url(#clip270)" d="M942.431 1396.97 Q944.028 1394.1 946.25 1392.74 Q948.473 1391.37 951.482 1391.37 Q955.533 1391.37 957.732 1394.22 Q959.931 1397.04 959.931 1402.28 L959.931 1417.92 L955.649 1417.92 L955.649 1402.41 Q955.649 1398.69 954.329 1396.88 Q953.01 1395.08 950.301 1395.08 Q946.991 1395.08 945.07 1397.28 Q943.149 1399.47 943.149 1403.27 L943.149 1417.92 L938.866 1417.92 L938.866 1402.41 Q938.866 1398.66 937.547 1396.88 Q936.227 1395.08 933.473 1395.08 Q930.209 1395.08 928.288 1397.3 Q926.366 1399.5 926.366 1403.27 L926.366 1417.92 L922.084 1417.92 L922.084 1392 L926.366 1392 L926.366 1396.03 Q927.825 1393.64 929.862 1392.51 Q931.899 1391.37 934.7 1391.37 Q937.524 1391.37 939.491 1392.81 Q941.482 1394.24 942.431 1396.97 Z" fill="#000000" fill-rule="nonzero" fill-opacity="1" /><path clip-path="url(#clip270)" d="M990.602 1403.9 L990.602 1405.98 L971.019 1405.98 Q971.297 1410.38 973.658 1412.69 Q976.042 1414.98 980.278 1414.98 Q982.732 1414.98 985.023 1414.38 Q987.338 1413.78 989.607 1412.58 L989.607 1416.6 Q987.315 1417.58 984.908 1418.09 Q982.5 1418.59 980.023 1418.59 Q973.82 1418.59 970.185 1414.98 Q966.574 1411.37 966.574 1405.22 Q966.574 1398.85 970 1395.12 Q973.449 1391.37 979.283 1391.37 Q984.514 1391.37 987.546 1394.75 Q990.602 1398.11 990.602 1403.9 M986.343 1402.65 Q986.296 1399.15 984.375 1397.07 Q982.477 1394.98 979.329 1394.98 Q975.764 1394.98 973.611 1397 Q971.482 1399.01 971.158 1402.67 L986.343 1402.65 Z" fill="#000000" fill-rule="nonzero" fill-opacity="1" /><path clip-path="url(#clip270)" d="M1009.38 1404.89 Q1004.21 1404.89 1002.22 1406.07 Q1000.23 1407.25 1000.23 1410.1 Q1000.23 1412.37 1001.71 1413.71 Q1003.22 1415.03 1005.79 1415.03 Q1009.33 1415.03 1011.46 1412.53 Q1013.61 1410.01 1013.61 1405.84 L1013.61 1404.89 L1009.38 1404.89 M1017.87 1403.13 L1017.87 1417.92 L1013.61 1417.92 L1013.61 1413.99 Q1012.15 1416.35 1009.98 1417.48 Q1007.8 1418.59 1004.65 1418.59 Q1000.67 1418.59 998.31 1416.37 Q995.972 1414.13 995.972 1410.38 Q995.972 1406 998.889 1403.78 Q1001.83 1401.56 1007.64 1401.56 L1013.61 1401.56 L1013.61 1401.14 Q1013.61 1398.2 1011.67 1396.6 Q1009.75 1394.98 1006.25 1394.98 Q1004.03 1394.98 1001.92 1395.52 Q999.815 1396.05 997.871 1397.11 L997.871 1393.18 Q1000.21 1392.28 1002.41 1391.84 Q1004.61 1391.37 1006.69 1391.37 Q1012.31 1391.37 1015.09 1394.29 Q1017.87 1397.21 1017.87 1403.13 Z" fill="#000000" fill-rule="nonzero" fill-opacity="1" /><path clip-path="url(#clip270)" d="M1043.17 1392.76 L1043.17 1396.79 Q1041.37 1395.86 1039.42 1395.4 Q1037.48 1394.94 1035.39 1394.94 Q1032.22 1394.94 1030.62 1395.91 Q1029.05 1396.88 1029.05 1398.83 Q1029.05 1400.31 1030.19 1401.16 Q1031.32 1402 1034.75 1402.76 L1036.2 1403.09 Q1040.74 1404.06 1042.64 1405.84 Q1044.56 1407.6 1044.56 1410.77 Q1044.56 1414.38 1041.69 1416.49 Q1038.84 1418.59 1033.84 1418.59 Q1031.76 1418.59 1029.49 1418.18 Q1027.25 1417.78 1024.75 1416.97 L1024.75 1412.58 Q1027.11 1413.8 1029.4 1414.43 Q1031.69 1415.03 1033.94 1415.03 Q1036.94 1415.03 1038.56 1414.01 Q1040.19 1412.97 1040.19 1411.09 Q1040.19 1409.36 1039 1408.43 Q1037.85 1407.51 1033.89 1406.65 L1032.41 1406.3 Q1028.45 1405.47 1026.69 1403.76 Q1024.93 1402.02 1024.93 1399.01 Q1024.93 1395.35 1027.52 1393.36 Q1030.12 1391.37 1034.88 1391.37 Q1037.25 1391.37 1039.33 1391.72 Q1041.41 1392.07 1043.17 1392.76 Z" fill="#000000" fill-rule="nonzero" fill-opacity="1" /><path clip-path="url(#clip270)" d="M1050.9 1407.69 L1050.9 1392 L1055.16 1392 L1055.16 1407.53 Q1055.16 1411.21 1056.6 1413.06 Q1058.03 1414.89 1060.9 1414.89 Q1064.35 1414.89 1066.34 1412.69 Q1068.36 1410.49 1068.36 1406.7 L1068.36 1392 L1072.62 1392 L1072.62 1417.92 L1068.36 1417.92 L1068.36 1413.94 Q1066.81 1416.3 1064.75 1417.46 Q1062.71 1418.59 1060 1418.59 Q1055.53 1418.59 1053.22 1415.82 Q1050.9 1413.04 1050.9 1407.69 M1061.62 1391.37 L1061.62 1391.37 Z" fill="#000000" fill-rule="nonzero" fill-opacity="1" /><path clip-path="url(#clip270)" d="M1096.41 1395.98 Q1095.69 1395.56 1094.84 1395.38 Q1094 1395.17 1092.99 1395.17 Q1089.37 1395.17 1087.43 1397.53 Q1085.51 1399.87 1085.51 1404.27 L1085.51 1417.92 L1081.23 1417.92 L1081.23 1392 L1085.51 1392 L1085.51 1396.03 Q1086.85 1393.66 1089 1392.53 Q1091.16 1391.37 1094.24 1391.37 Q1094.68 1391.37 1095.21 1391.44 Q1095.74 1391.49 1096.39 1391.6 L1096.41 1395.98 Z" fill="#000000" fill-rule="nonzero" fill-opacity="1" /><path clip-path="url(#clip270)" d="M1122.01 1403.9 L1122.01 1405.98 L1102.43 1405.98 Q1102.71 1410.38 1105.07 1412.69 Q1107.45 1414.98 1111.69 1414.98 Q1114.14 1414.98 1116.43 1414.38 Q1118.75 1413.78 1121.02 1412.58 L1121.02 1416.6 Q1118.73 1417.58 1116.32 1418.09 Q1113.91 1418.59 1111.43 1418.59 Q1105.23 1418.59 1101.6 1414.98 Q1097.99 1411.37 1097.99 1405.22 Q1097.99 1398.85 1101.41 1395.12 Q1104.86 1391.37 1110.69 1391.37 Q1115.93 1391.37 1118.96 1394.75 Q1122.01 1398.11 1122.01 1403.9 M1117.75 1402.65 Q1117.71 1399.15 1115.79 1397.07 Q1113.89 1394.98 1110.74 1394.98 Q1107.18 1394.98 1105.02 1397 Q1102.89 1399.01 1102.57 1402.67 L1117.75 1402.65 Z" fill="#000000" fill-rule="nonzero" fill-opacity="1" /><path clip-path="url(#clip270)" d="M1149.19 1396.97 Q1150.79 1394.1 1153.01 1392.74 Q1155.23 1391.37 1158.24 1391.37 Q1162.29 1391.37 1164.49 1394.22 Q1166.69 1397.04 1166.69 1402.28 L1166.69 1417.92 L1162.41 1417.92 L1162.41 1402.41 Q1162.41 1398.69 1161.09 1396.88 Q1159.77 1395.08 1157.06 1395.08 Q1153.75 1395.08 1151.83 1397.28 Q1149.91 1399.47 1149.91 1403.27 L1149.91 1417.92 L1145.62 1417.92 L1145.62 1402.41 Q1145.62 1398.66 1144.3 1396.88 Q1142.99 1395.08 1140.23 1395.08 Q1136.97 1395.08 1135.05 1397.3 Q1133.12 1399.5 1133.12 1403.27 L1133.12 1417.92 L1128.84 1417.92 L1128.84 1392 L1133.12 1392 L1133.12 1396.03 Q1134.58 1393.64 1136.62 1392.51 Q1138.66 1391.37 1141.46 1391.37 Q1144.28 1391.37 1146.25 1392.81 Q1148.24 1394.24 1149.19 1396.97 Z" fill="#000000" fill-rule="nonzero" fill-opacity="1" /><path clip-path="url(#clip270)" d="M1197.36 1403.9 L1197.36 1405.98 L1177.78 1405.98 Q1178.05 1410.38 1180.42 1412.69 Q1182.8 1414.98 1187.04 1414.98 Q1189.49 1414.98 1191.78 1414.38 Q1194.1 1413.78 1196.36 1412.58 L1196.36 1416.6 Q1194.07 1417.58 1191.67 1418.09 Q1189.26 1418.59 1186.78 1418.59 Q1180.58 1418.59 1176.94 1414.98 Q1173.33 1411.37 1173.33 1405.22 Q1173.33 1398.85 1176.76 1395.12 Q1180.21 1391.37 1186.04 1391.37 Q1191.27 1391.37 1194.3 1394.75 Q1197.36 1398.11 1197.36 1403.9 M1193.1 1402.65 Q1193.05 1399.15 1191.13 1397.07 Q1189.24 1394.98 1186.09 1394.98 Q1182.52 1394.98 1180.37 1397 Q1178.24 1399.01 1177.92 1402.67 L1193.1 1402.65 Z" fill="#000000" fill-rule="nonzero" fill-opacity="1" /><path clip-path="url(#clip270)" d="M1225.9 1402.28 L1225.9 1417.92 L1221.64 1417.92 L1221.64 1402.41 Q1221.64 1398.73 1220.21 1396.9 Q1218.77 1395.08 1215.9 1395.08 Q1212.45 1395.08 1210.46 1397.28 Q1208.47 1399.47 1208.47 1403.27 L1208.47 1417.92 L1204.19 1417.92 L1204.19 1392 L1208.47 1392 L1208.47 1396.03 Q1210 1393.69 1212.06 1392.53 Q1214.14 1391.37 1216.85 1391.37 Q1221.32 1391.37 1223.61 1394.15 Q1225.9 1396.9 1225.9 1402.28 Z" fill="#000000" fill-rule="nonzero" fill-opacity="1" /><path clip-path="url(#clip270)" d="M1238.61 1384.64 L1238.61 1392 L1247.38 1392 L1247.38 1395.31 L1238.61 1395.31 L1238.61 1409.38 Q1238.61 1412.55 1239.47 1413.46 Q1240.35 1414.36 1243.01 1414.36 L1247.38 1414.36 L1247.38 1417.92 L1243.01 1417.92 Q1238.08 1417.92 1236.2 1416.09 Q1234.33 1414.24 1234.33 1409.38 L1234.33 1395.31 L1231.2 1395.31 L1231.2 1392 L1234.33 1392 L1234.33 1384.64 L1238.61 1384.64 Z" fill="#000000" fill-rule="nonzero" fill-opacity="1" /><path clip-path="url(#clip270)" d="M1269.51 1392.76 L1269.51 1396.79 Q1267.71 1395.86 1265.76 1395.4 Q1263.82 1394.94 1261.73 1394.94 Q1258.56 1394.94 1256.97 1395.91 Q1255.39 1396.88 1255.39 1398.83 Q1255.39 1400.31 1256.53 1401.16 Q1257.66 1402 1261.09 1402.76 L1262.55 1403.09 Q1267.08 1404.06 1268.98 1405.84 Q1270.9 1407.6 1270.9 1410.77 Q1270.9 1414.38 1268.03 1416.49 Q1265.18 1418.59 1260.18 1418.59 Q1258.1 1418.59 1255.83 1418.18 Q1253.59 1417.78 1251.09 1416.97 L1251.09 1412.58 Q1253.45 1413.8 1255.74 1414.43 Q1258.03 1415.03 1260.28 1415.03 Q1263.29 1415.03 1264.91 1414.01 Q1266.53 1412.97 1266.53 1411.09 Q1266.53 1409.36 1265.35 1408.43 Q1264.19 1407.51 1260.23 1406.65 L1258.75 1406.3 Q1254.79 1405.47 1253.03 1403.76 Q1251.27 1402.02 1251.27 1399.01 Q1251.27 1395.35 1253.86 1393.36 Q1256.46 1391.37 1261.23 1391.37 Q1263.59 1391.37 1265.67 1391.72 Q1267.75 1392.07 1269.51 1392.76 Z" fill="#000000" fill-rule="nonzero" fill-opacity="1" /><path clip-path="url(#clip270)" d="M1302.98 1381.95 Q1299.88 1387.28 1298.38 1392.48 Q1296.87 1397.69 1296.87 1403.04 Q1296.87 1408.39 1298.38 1413.64 Q1299.91 1418.87 1302.98 1424.17 L1299.28 1424.17 Q1295.81 1418.73 1294.07 1413.48 Q1292.36 1408.22 1292.36 1403.04 Q1292.36 1397.88 1294.07 1392.65 Q1295.79 1387.41 1299.28 1381.95 L1302.98 1381.95 Z" fill="#000000" fill-rule="nonzero" fill-opacity="1" /><path clip-path="url(#clip270)" d="M1333.42 1403.9 L1333.42 1405.98 L1313.84 1405.98 Q1314.12 1410.38 1316.48 1412.69 Q1318.86 1414.98 1323.1 1414.98 Q1325.55 1414.98 1327.85 1414.38 Q1330.16 1413.78 1332.43 1412.58 L1332.43 1416.6 Q1330.14 1417.58 1327.73 1418.09 Q1325.32 1418.59 1322.85 1418.59 Q1316.64 1418.59 1313.01 1414.98 Q1309.4 1411.37 1309.4 1405.22 Q1309.4 1398.85 1312.82 1395.12 Q1316.27 1391.37 1322.1 1391.37 Q1327.34 1391.37 1330.37 1394.75 Q1333.42 1398.11 1333.42 1403.9 M1329.17 1402.65 Q1329.12 1399.15 1327.2 1397.07 Q1325.3 1394.98 1322.15 1394.98 Q1318.59 1394.98 1316.43 1397 Q1314.3 1399.01 1313.98 1402.67 L1329.17 1402.65 Z" fill="#000000" fill-rule="nonzero" fill-opacity="1" /><path clip-path="url(#clip270)" d="M1361.13 1392 L1351.76 1404.61 L1361.62 1417.92 L1356.6 1417.92 L1349.05 1407.74 L1341.5 1417.92 L1336.48 1417.92 L1346.55 1404.36 L1337.34 1392 L1342.36 1392 L1349.23 1401.23 L1356.11 1392 L1361.13 1392 Z" fill="#000000" fill-rule="nonzero" fill-opacity="1" /><path clip-path="url(#clip270)" d="M1371.85 1384.64 L1371.85 1392 L1380.62 1392 L1380.62 1395.31 L1371.85 1395.31 L1371.85 1409.38 Q1371.85 1412.55 1372.71 1413.46 Q1373.59 1414.36 1376.25 1414.36 L1380.62 1414.36 L1380.62 1417.92 L1376.25 1417.92 Q1371.32 1417.92 1369.44 1416.09 Q1367.57 1414.24 1367.57 1409.38 L1367.57 1395.31 L1364.44 1395.31 L1364.44 1392 L1367.57 1392 L1367.57 1384.64 L1371.85 1384.64 Z" fill="#000000" fill-rule="nonzero" fill-opacity="1" /><path clip-path="url(#clip270)" d="M1401.25 1395.98 Q1400.53 1395.56 1399.67 1395.38 Q1398.84 1395.17 1397.82 1395.17 Q1394.21 1395.17 1392.27 1397.53 Q1390.35 1399.87 1390.35 1404.27 L1390.35 1417.92 L1386.06 1417.92 L1386.06 1392 L1390.35 1392 L1390.35 1396.03 Q1391.69 1393.66 1393.84 1392.53 Q1395.99 1391.37 1399.07 1391.37 Q1399.51 1391.37 1400.04 1391.44 Q1400.58 1391.49 1401.22 1391.6 L1401.25 1395.98 Z" fill="#000000" fill-rule="nonzero" fill-opacity="1" /><path clip-path="url(#clip270)" d="M1417.5 1404.89 Q1412.34 1404.89 1410.35 1406.07 Q1408.35 1407.25 1408.35 1410.1 Q1408.35 1412.37 1409.84 1413.71 Q1411.34 1415.03 1413.91 1415.03 Q1417.45 1415.03 1419.58 1412.53 Q1421.73 1410.01 1421.73 1405.84 L1421.73 1404.89 L1417.5 1404.89 M1425.99 1403.13 L1425.99 1417.92 L1421.73 1417.92 L1421.73 1413.99 Q1420.28 1416.35 1418.1 1417.48 Q1415.92 1418.59 1412.78 1418.59 Q1408.79 1418.59 1406.43 1416.37 Q1404.1 1414.13 1404.1 1410.38 Q1404.1 1406 1407.01 1403.78 Q1409.95 1401.56 1415.76 1401.56 L1421.73 1401.56 L1421.73 1401.14 Q1421.73 1398.2 1419.79 1396.6 Q1417.87 1394.98 1414.37 1394.98 Q1412.15 1394.98 1410.04 1395.52 Q1407.94 1396.05 1405.99 1397.11 L1405.99 1393.18 Q1408.33 1392.28 1410.53 1391.84 Q1412.73 1391.37 1414.81 1391.37 Q1420.44 1391.37 1423.22 1394.29 Q1425.99 1397.21 1425.99 1403.13 Z" fill="#000000" fill-rule="nonzero" fill-opacity="1" /><path clip-path="url(#clip270)" d="M1453.42 1392.99 L1453.42 1396.97 Q1451.62 1395.98 1449.79 1395.49 Q1447.98 1394.98 1446.13 1394.98 Q1441.99 1394.98 1439.7 1397.62 Q1437.41 1400.24 1437.41 1404.98 Q1437.41 1409.73 1439.7 1412.37 Q1441.99 1414.98 1446.13 1414.98 Q1447.98 1414.98 1449.79 1414.5 Q1451.62 1413.99 1453.42 1412.99 L1453.42 1416.93 Q1451.64 1417.76 1449.72 1418.18 Q1447.82 1418.59 1445.67 1418.59 Q1439.81 1418.59 1436.36 1414.91 Q1432.91 1411.23 1432.91 1404.98 Q1432.91 1398.64 1436.39 1395.01 Q1439.88 1391.37 1445.95 1391.37 Q1447.91 1391.37 1449.79 1391.79 Q1451.66 1392.18 1453.42 1392.99 Z" fill="#000000" fill-rule="nonzero" fill-opacity="1" /><path clip-path="url(#clip270)" d="M1465.04 1384.64 L1465.04 1392 L1473.82 1392 L1473.82 1395.31 L1465.04 1395.31 L1465.04 1409.38 Q1465.04 1412.55 1465.9 1413.46 Q1466.78 1414.36 1469.44 1414.36 L1473.82 1414.36 L1473.82 1417.92 L1469.44 1417.92 Q1464.51 1417.92 1462.64 1416.09 Q1460.76 1414.24 1460.76 1409.38 L1460.76 1395.31 L1457.64 1395.31 L1457.64 1392 L1460.76 1392 L1460.76 1384.64 L1465.04 1384.64 Z" fill="#000000" fill-rule="nonzero" fill-opacity="1" /><path clip-path="url(#clip270)" d="M1479.42 1392 L1483.68 1392 L1483.68 1417.92 L1479.42 1417.92 L1479.42 1392 M1479.42 1381.9 L1483.68 1381.9 L1483.68 1387.3 L1479.42 1387.3 L1479.42 1381.9 Z" fill="#000000" fill-rule="nonzero" fill-opacity="1" /><path clip-path="url(#clip270)" d="M1502.64 1394.98 Q1499.21 1394.98 1497.22 1397.67 Q1495.23 1400.33 1495.23 1404.98 Q1495.23 1409.64 1497.2 1412.32 Q1499.19 1414.98 1502.64 1414.98 Q1506.04 1414.98 1508.03 1412.3 Q1510.02 1409.61 1510.02 1404.98 Q1510.02 1400.38 1508.03 1397.69 Q1506.04 1394.98 1502.64 1394.98 M1502.64 1391.37 Q1508.19 1391.37 1511.36 1394.98 Q1514.53 1398.59 1514.53 1404.98 Q1514.53 1411.35 1511.36 1414.98 Q1508.19 1418.59 1502.64 1418.59 Q1497.06 1418.59 1493.89 1414.98 Q1490.74 1411.35 1490.74 1404.98 Q1490.74 1398.59 1493.89 1394.98 Q1497.06 1391.37 1502.64 1391.37 Z" fill="#000000" fill-rule="nonzero" fill-opacity="1" /><path clip-path="url(#clip270)" d="M1543.15 1402.28 L1543.15 1417.92 L1538.89 1417.92 L1538.89 1402.41 Q1538.89 1398.73 1537.45 1396.9 Q1536.02 1395.08 1533.15 1395.08 Q1529.7 1395.08 1527.71 1397.28 Q1525.71 1399.47 1525.71 1403.27 L1525.71 1417.92 L1521.43 1417.92 L1521.43 1392 L1525.71 1392 L1525.71 1396.03 Q1527.24 1393.69 1529.3 1392.53 Q1531.39 1391.37 1534.09 1391.37 Q1538.56 1391.37 1540.85 1394.15 Q1543.15 1396.9 1543.15 1402.28 Z" fill="#000000" fill-rule="nonzero" fill-opacity="1" /><path clip-path="url(#clip270)" d="M1552.73 1412.04 L1557.61 1412.04 L1557.61 1417.92 L1552.73 1417.92 L1552.73 1412.04 M1552.73 1393.41 L1557.61 1393.41 L1557.61 1399.29 L1552.73 1399.29 L1552.73 1393.41 Z" fill="#000000" fill-rule="nonzero" fill-opacity="1" /><path clip-path="url(#clip270)" d="M1569.02 1413.99 L1576.66 1413.99 L1576.66 1387.62 L1568.35 1389.29 L1568.35 1385.03 L1576.62 1383.36 L1581.29 1383.36 L1581.29 1413.99 L1588.93 1413.99 L1588.93 1417.92 L1569.02 1417.92 L1569.02 1413.99 Z" fill="#000000" fill-rule="nonzero" fill-opacity="1" /><path clip-path="url(#clip270)" d="M1597.1 1381.95 L1600.81 1381.95 Q1604.28 1387.41 1605.99 1392.65 Q1607.73 1397.88 1607.73 1403.04 Q1607.73 1408.22 1605.99 1413.48 Q1604.28 1418.73 1600.81 1424.17 L1597.1 1424.17 Q1600.18 1418.87 1601.69 1413.64 Q1603.21 1408.39 1603.21 1403.04 Q1603.21 1397.69 1601.69 1392.48 Q1600.18 1387.28 1597.1 1381.95 Z" fill="#000000" fill-rule="nonzero" fill-opacity="1" /></svg>
