<?xml version="1.0" encoding="utf-8"?>
<svg xmlns="http://www.w3.org/2000/svg" xmlns:xlink="http://www.w3.org/1999/xlink" width="430" height="430" viewBox="0 0 1720 1720">
<defs>
  <clipPath id="clip950">
    <rect x="0" y="0" width="1720" height="1720"/>
  </clipPath>
</defs>
<path clip-path="url(#clip950)" d="M0 1720 L1720 1720 L1720 0 L0 0  Z" fill="#ffffff" fill-rule="evenodd" fill-opacity="1"/>
<defs>
  <clipPath id="clip951">
    <rect x="344" y="172" width="1205" height="1205"/>
  </clipPath>
</defs>
<path clip-path="url(#clip950)" d="M209.636 1500.94 L1672.76 1500.94 L1672.76 47.2441 L209.636 47.2441  Z" fill="#ffffff" fill-rule="evenodd" fill-opacity="1"/>
<defs>
  <clipPath id="clip952">
    <rect x="209" y="47" width="1464" height="1455"/>
  </clipPath>
</defs>
<polyline clip-path="url(#clip952)" style="stroke:#000000; stroke-linecap:round; stroke-linejoin:round; stroke-width:2; stroke-opacity:0.1; fill:none" points="251.045,1500.94 251.045,47.2441 "/>
<polyline clip-path="url(#clip952)" style="stroke:#000000; stroke-linecap:round; stroke-linejoin:round; stroke-width:2; stroke-opacity:0.1; fill:none" points="470.727,1500.94 470.727,47.2441 "/>
<polyline clip-path="url(#clip952)" style="stroke:#000000; stroke-linecap:round; stroke-linejoin:round; stroke-width:2; stroke-opacity:0.1; fill:none" points="690.409,1500.94 690.409,47.2441 "/>
<polyline clip-path="url(#clip952)" style="stroke:#000000; stroke-linecap:round; stroke-linejoin:round; stroke-width:2; stroke-opacity:0.1; fill:none" points="910.091,1500.94 910.091,47.2441 "/>
<polyline clip-path="url(#clip952)" style="stroke:#000000; stroke-linecap:round; stroke-linejoin:round; stroke-width:2; stroke-opacity:0.1; fill:none" points="1129.77,1500.94 1129.77,47.2441 "/>
<polyline clip-path="url(#clip952)" style="stroke:#000000; stroke-linecap:round; stroke-linejoin:round; stroke-width:2; stroke-opacity:0.1; fill:none" points="1349.45,1500.94 1349.45,47.2441 "/>
<polyline clip-path="url(#clip952)" style="stroke:#000000; stroke-linecap:round; stroke-linejoin:round; stroke-width:2; stroke-opacity:0.1; fill:none" points="1569.14,1500.94 1569.14,47.2441 "/>
<polyline clip-path="url(#clip950)" style="stroke:#000000; stroke-linecap:round; stroke-linejoin:round; stroke-width:4; stroke-opacity:1; fill:none" points="209.636,1500.94 1672.76,1500.94 "/>
<polyline clip-path="url(#clip950)" style="stroke:#000000; stroke-linecap:round; stroke-linejoin:round; stroke-width:4; stroke-opacity:1; fill:none" points="251.045,1500.94 251.045,1482.04 "/>
<polyline clip-path="url(#clip950)" style="stroke:#000000; stroke-linecap:round; stroke-linejoin:round; stroke-width:4; stroke-opacity:1; fill:none" points="470.727,1500.94 470.727,1482.04 "/>
<polyline clip-path="url(#clip950)" style="stroke:#000000; stroke-linecap:round; stroke-linejoin:round; stroke-width:4; stroke-opacity:1; fill:none" points="690.409,1500.94 690.409,1482.04 "/>
<polyline clip-path="url(#clip950)" style="stroke:#000000; stroke-linecap:round; stroke-linejoin:round; stroke-width:4; stroke-opacity:1; fill:none" points="910.091,1500.94 910.091,1482.04 "/>
<polyline clip-path="url(#clip950)" style="stroke:#000000; stroke-linecap:round; stroke-linejoin:round; stroke-width:4; stroke-opacity:1; fill:none" points="1129.77,1500.94 1129.77,1482.04 "/>
<polyline clip-path="url(#clip950)" style="stroke:#000000; stroke-linecap:round; stroke-linejoin:round; stroke-width:4; stroke-opacity:1; fill:none" points="1349.45,1500.94 1349.45,1482.04 "/>
<polyline clip-path="url(#clip950)" style="stroke:#000000; stroke-linecap:round; stroke-linejoin:round; stroke-width:4; stroke-opacity:1; fill:none" points="1569.14,1500.94 1569.14,1482.04 "/>
<path clip-path="url(#clip950)" d="M251.045 1526.42 Q247.434 1526.42 245.605 1529.98 Q243.8 1533.52 243.8 1540.65 Q243.8 1547.76 245.605 1551.33 Q247.434 1554.87 251.045 1554.87 Q254.679 1554.87 256.485 1551.33 Q258.313 1547.76 258.313 1540.65 Q258.313 1533.52 256.485 1529.98 Q254.679 1526.42 251.045 1526.42 M251.045 1522.71 Q256.855 1522.71 259.911 1527.32 Q262.989 1531.9 262.989 1540.65 Q262.989 1549.38 259.911 1553.99 Q256.855 1558.57 251.045 1558.57 Q245.235 1558.57 242.156 1553.99 Q239.101 1549.38 239.101 1540.65 Q239.101 1531.9 242.156 1527.32 Q245.235 1522.71 251.045 1522.71 Z" fill="#000000" fill-rule="nonzero" fill-opacity="1" /><path clip-path="url(#clip950)" d="M461.109 1553.96 L468.748 1553.96 L468.748 1527.6 L460.438 1529.27 L460.438 1525.01 L468.701 1523.34 L473.377 1523.34 L473.377 1553.96 L481.016 1553.96 L481.016 1557.9 L461.109 1557.9 L461.109 1553.96 Z" fill="#000000" fill-rule="nonzero" fill-opacity="1" /><path clip-path="url(#clip950)" d="M685.061 1553.96 L701.381 1553.96 L701.381 1557.9 L679.437 1557.9 L679.437 1553.96 Q682.099 1551.21 686.682 1546.58 Q691.288 1541.93 692.469 1540.59 Q694.714 1538.06 695.594 1536.33 Q696.497 1534.57 696.497 1532.88 Q696.497 1530.12 694.552 1528.39 Q692.631 1526.65 689.529 1526.65 Q687.33 1526.65 684.876 1527.41 Q682.446 1528.18 679.668 1529.73 L679.668 1525.01 Q682.492 1523.87 684.946 1523.29 Q687.399 1522.71 689.436 1522.71 Q694.807 1522.71 698.001 1525.4 Q701.196 1528.09 701.196 1532.58 Q701.196 1534.71 700.385 1536.63 Q699.598 1538.52 697.492 1541.12 Q696.913 1541.79 693.811 1545.01 Q690.71 1548.2 685.061 1553.96 Z" fill="#000000" fill-rule="nonzero" fill-opacity="1" /><path clip-path="url(#clip950)" d="M914.338 1539.27 Q917.695 1539.98 919.57 1542.25 Q921.468 1544.52 921.468 1547.85 Q921.468 1552.97 917.949 1555.77 Q914.431 1558.57 907.949 1558.57 Q905.773 1558.57 903.459 1558.13 Q901.167 1557.71 898.713 1556.86 L898.713 1552.34 Q900.658 1553.48 902.973 1554.06 Q905.287 1554.64 907.81 1554.64 Q912.209 1554.64 914.5 1552.9 Q916.815 1551.16 916.815 1547.85 Q916.815 1544.8 914.662 1543.09 Q912.533 1541.35 908.713 1541.35 L904.685 1541.35 L904.685 1537.51 L908.898 1537.51 Q912.347 1537.51 914.176 1536.14 Q916.005 1534.75 916.005 1532.16 Q916.005 1529.5 914.107 1528.09 Q912.232 1526.65 908.713 1526.65 Q906.792 1526.65 904.593 1527.07 Q902.394 1527.48 899.755 1528.36 L899.755 1524.2 Q902.417 1523.46 904.732 1523.09 Q907.07 1522.71 909.13 1522.71 Q914.454 1522.71 917.556 1525.15 Q920.658 1527.55 920.658 1531.67 Q920.658 1534.54 919.014 1536.53 Q917.371 1538.5 914.338 1539.27 Z" fill="#000000" fill-rule="nonzero" fill-opacity="1" /><path clip-path="url(#clip950)" d="M1132.78 1527.41 L1120.98 1545.86 L1132.78 1545.86 L1132.78 1527.41 M1131.55 1523.34 L1137.43 1523.34 L1137.43 1545.86 L1142.36 1545.86 L1142.36 1549.75 L1137.43 1549.75 L1137.43 1557.9 L1132.78 1557.9 L1132.78 1549.75 L1117.18 1549.75 L1117.18 1545.24 L1131.55 1523.34 Z" fill="#000000" fill-rule="nonzero" fill-opacity="1" /><path clip-path="url(#clip950)" d="M1339.73 1523.34 L1358.09 1523.34 L1358.09 1527.28 L1344.01 1527.28 L1344.01 1535.75 Q1345.03 1535.4 1346.05 1535.24 Q1347.07 1535.05 1348.09 1535.05 Q1353.88 1535.05 1357.26 1538.22 Q1360.63 1541.4 1360.63 1546.81 Q1360.63 1552.39 1357.16 1555.49 Q1353.69 1558.57 1347.37 1558.57 Q1345.2 1558.57 1342.93 1558.2 Q1340.68 1557.83 1338.27 1557.09 L1338.27 1552.39 Q1340.36 1553.52 1342.58 1554.08 Q1344.8 1554.64 1347.28 1554.64 Q1351.28 1554.64 1353.62 1552.53 Q1355.96 1550.42 1355.96 1546.81 Q1355.96 1543.2 1353.62 1541.09 Q1351.28 1538.99 1347.28 1538.99 Q1345.4 1538.99 1343.53 1539.4 Q1341.68 1539.82 1339.73 1540.7 L1339.73 1523.34 Z" fill="#000000" fill-rule="nonzero" fill-opacity="1" /><path clip-path="url(#clip950)" d="M1569.54 1538.76 Q1566.39 1538.76 1564.54 1540.91 Q1562.71 1543.06 1562.71 1546.81 Q1562.71 1550.54 1564.54 1552.71 Q1566.39 1554.87 1569.54 1554.87 Q1572.69 1554.87 1574.52 1552.71 Q1576.37 1550.54 1576.37 1546.81 Q1576.37 1543.06 1574.52 1540.91 Q1572.69 1538.76 1569.54 1538.76 M1578.82 1524.1 L1578.82 1528.36 Q1577.06 1527.53 1575.26 1527.09 Q1573.48 1526.65 1571.72 1526.65 Q1567.09 1526.65 1564.63 1529.77 Q1562.2 1532.9 1561.86 1539.22 Q1563.22 1537.21 1565.28 1536.14 Q1567.34 1535.05 1569.82 1535.05 Q1575.03 1535.05 1578.04 1538.22 Q1581.07 1541.37 1581.07 1546.81 Q1581.07 1552.14 1577.92 1555.35 Q1574.77 1558.57 1569.54 1558.57 Q1563.55 1558.57 1560.37 1553.99 Q1557.2 1549.38 1557.2 1540.65 Q1557.2 1532.46 1561.09 1527.6 Q1564.98 1522.71 1571.53 1522.71 Q1573.29 1522.71 1575.07 1523.06 Q1576.88 1523.41 1578.82 1524.1 Z" fill="#000000" fill-rule="nonzero" fill-opacity="1" /><path clip-path="url(#clip950)" d="M951.317 1613.01 L931.043 1613.01 Q931.52 1622.52 933.716 1626.56 Q936.453 1631.53 941.196 1631.53 Q945.97 1631.53 948.612 1626.53 Q950.935 1622.14 951.317 1613.01 M951.222 1607.59 Q950.331 1598.56 948.612 1595.37 Q945.875 1590.34 941.196 1590.34 Q936.326 1590.34 933.748 1595.31 Q931.711 1599.32 931.106 1607.59 L951.222 1607.59 M941.196 1585.57 Q948.835 1585.57 953.195 1592.32 Q957.556 1599.03 957.556 1610.94 Q957.556 1622.81 953.195 1629.56 Q948.835 1636.34 941.196 1636.34 Q933.525 1636.34 929.197 1629.56 Q924.836 1622.81 924.836 1610.94 Q924.836 1599.03 929.197 1592.32 Q933.525 1585.57 941.196 1585.57 Z" fill="#000000" fill-rule="nonzero" fill-opacity="1" /><polyline clip-path="url(#clip952)" style="stroke:#000000; stroke-linecap:round; stroke-linejoin:round; stroke-width:2; stroke-opacity:0.1; fill:none" points="209.636,1289.61 1672.76,1289.61 "/>
<polyline clip-path="url(#clip952)" style="stroke:#000000; stroke-linecap:round; stroke-linejoin:round; stroke-width:2; stroke-opacity:0.1; fill:none" points="209.636,892.609 1672.76,892.609 "/>
<polyline clip-path="url(#clip952)" style="stroke:#000000; stroke-linecap:round; stroke-linejoin:round; stroke-width:2; stroke-opacity:0.1; fill:none" points="209.636,495.607 1672.76,495.607 "/>
<polyline clip-path="url(#clip952)" style="stroke:#000000; stroke-linecap:round; stroke-linejoin:round; stroke-width:2; stroke-opacity:0.1; fill:none" points="209.636,98.6053 1672.76,98.6053 "/>
<polyline clip-path="url(#clip950)" style="stroke:#000000; stroke-linecap:round; stroke-linejoin:round; stroke-width:4; stroke-opacity:1; fill:none" points="209.636,1500.94 209.636,47.2441 "/>
<polyline clip-path="url(#clip950)" style="stroke:#000000; stroke-linecap:round; stroke-linejoin:round; stroke-width:4; stroke-opacity:1; fill:none" points="209.636,1289.61 228.534,1289.61 "/>
<polyline clip-path="url(#clip950)" style="stroke:#000000; stroke-linecap:round; stroke-linejoin:round; stroke-width:4; stroke-opacity:1; fill:none" points="209.636,892.609 228.534,892.609 "/>
<polyline clip-path="url(#clip950)" style="stroke:#000000; stroke-linecap:round; stroke-linejoin:round; stroke-width:4; stroke-opacity:1; fill:none" points="209.636,495.607 228.534,495.607 "/>
<polyline clip-path="url(#clip950)" style="stroke:#000000; stroke-linecap:round; stroke-linejoin:round; stroke-width:4; stroke-opacity:1; fill:none" points="209.636,98.6053 228.534,98.6053 "/>
<path clip-path="url(#clip950)" d="M67.3319 1275.41 Q63.7208 1275.41 61.8921 1278.97 Q60.0865 1282.52 60.0865 1289.65 Q60.0865 1296.75 61.8921 1300.32 Q63.7208 1303.86 67.3319 1303.86 Q70.9661 1303.86 72.7717 1300.32 Q74.6004 1296.75 74.6004 1289.65 Q74.6004 1282.52 72.7717 1278.97 Q70.9661 1275.41 67.3319 1275.41 M67.3319 1271.71 Q73.142 1271.71 76.1976 1276.31 Q79.2763 1280.9 79.2763 1289.65 Q79.2763 1298.37 76.1976 1302.98 Q73.142 1307.56 67.3319 1307.56 Q61.5217 1307.56 58.443 1302.98 Q55.3875 1298.37 55.3875 1289.65 Q55.3875 1280.9 58.443 1276.31 Q61.5217 1271.71 67.3319 1271.71 Z" fill="#000000" fill-rule="nonzero" fill-opacity="1" /><path clip-path="url(#clip950)" d="M87.4938 1301.01 L92.378 1301.01 L92.378 1306.89 L87.4938 1306.89 L87.4938 1301.01 Z" fill="#000000" fill-rule="nonzero" fill-opacity="1" /><path clip-path="url(#clip950)" d="M112.563 1275.41 Q108.952 1275.41 107.123 1278.97 Q105.318 1282.52 105.318 1289.65 Q105.318 1296.75 107.123 1300.32 Q108.952 1303.86 112.563 1303.86 Q116.197 1303.86 118.003 1300.32 Q119.832 1296.75 119.832 1289.65 Q119.832 1282.52 118.003 1278.97 Q116.197 1275.41 112.563 1275.41 M112.563 1271.71 Q118.373 1271.71 121.429 1276.31 Q124.507 1280.9 124.507 1289.65 Q124.507 1298.37 121.429 1302.98 Q118.373 1307.56 112.563 1307.56 Q106.753 1307.56 103.674 1302.98 Q100.619 1298.37 100.619 1289.65 Q100.619 1280.9 103.674 1276.31 Q106.753 1271.71 112.563 1271.71 Z" fill="#000000" fill-rule="nonzero" fill-opacity="1" /><path clip-path="url(#clip950)" d="M142.725 1275.41 Q139.114 1275.41 137.285 1278.97 Q135.48 1282.52 135.48 1289.65 Q135.48 1296.75 137.285 1300.32 Q139.114 1303.86 142.725 1303.86 Q146.359 1303.86 148.165 1300.32 Q149.993 1296.75 149.993 1289.65 Q149.993 1282.52 148.165 1278.97 Q146.359 1275.41 142.725 1275.41 M142.725 1271.71 Q148.535 1271.71 151.591 1276.31 Q154.669 1280.9 154.669 1289.65 Q154.669 1298.37 151.591 1302.98 Q148.535 1307.56 142.725 1307.56 Q136.915 1307.56 133.836 1302.98 Q130.781 1298.37 130.781 1289.65 Q130.781 1280.9 133.836 1276.31 Q136.915 1271.71 142.725 1271.71 Z" fill="#000000" fill-rule="nonzero" fill-opacity="1" /><path clip-path="url(#clip950)" d="M162.933 1272.33 L181.29 1272.33 L181.29 1276.27 L167.216 1276.27 L167.216 1284.74 Q168.234 1284.39 169.253 1284.23 Q170.271 1284.04 171.29 1284.04 Q177.077 1284.04 180.456 1287.22 Q183.836 1290.39 183.836 1295.8 Q183.836 1301.38 180.364 1304.48 Q176.891 1307.56 170.572 1307.56 Q168.396 1307.56 166.128 1307.19 Q163.882 1306.82 161.475 1306.08 L161.475 1301.38 Q163.558 1302.52 165.78 1303.07 Q168.003 1303.63 170.479 1303.63 Q174.484 1303.63 176.822 1301.52 Q179.16 1299.41 179.16 1295.8 Q179.16 1292.19 176.822 1290.09 Q174.484 1287.98 170.479 1287.98 Q168.604 1287.98 166.729 1288.4 Q164.878 1288.81 162.933 1289.69 L162.933 1272.33 Z" fill="#000000" fill-rule="nonzero" fill-opacity="1" /><path clip-path="url(#clip950)" d="M66.3365 878.408 Q62.7254 878.408 60.8967 881.973 Q59.0912 885.515 59.0912 892.644 Q59.0912 899.751 60.8967 903.315 Q62.7254 906.857 66.3365 906.857 Q69.9707 906.857 71.7763 903.315 Q73.605 899.751 73.605 892.644 Q73.605 885.515 71.7763 881.973 Q69.9707 878.408 66.3365 878.408 M66.3365 874.704 Q72.1467 874.704 75.2022 879.311 Q78.2809 883.894 78.2809 892.644 Q78.2809 901.371 75.2022 905.977 Q72.1467 910.561 66.3365 910.561 Q60.5264 910.561 57.4477 905.977 Q54.3921 901.371 54.3921 892.644 Q54.3921 883.894 57.4477 879.311 Q60.5264 874.704 66.3365 874.704 Z" fill="#000000" fill-rule="nonzero" fill-opacity="1" /><path clip-path="url(#clip950)" d="M86.4984 904.01 L91.3827 904.01 L91.3827 909.889 L86.4984 909.889 L86.4984 904.01 Z" fill="#000000" fill-rule="nonzero" fill-opacity="1" /><path clip-path="url(#clip950)" d="M111.568 878.408 Q107.957 878.408 106.128 881.973 Q104.322 885.515 104.322 892.644 Q104.322 899.751 106.128 903.315 Q107.957 906.857 111.568 906.857 Q115.202 906.857 117.008 903.315 Q118.836 899.751 118.836 892.644 Q118.836 885.515 117.008 881.973 Q115.202 878.408 111.568 878.408 M111.568 874.704 Q117.378 874.704 120.433 879.311 Q123.512 883.894 123.512 892.644 Q123.512 901.371 120.433 905.977 Q117.378 910.561 111.568 910.561 Q105.758 910.561 102.679 905.977 Q99.6234 901.371 99.6234 892.644 Q99.6234 883.894 102.679 879.311 Q105.758 874.704 111.568 874.704 Z" fill="#000000" fill-rule="nonzero" fill-opacity="1" /><path clip-path="url(#clip950)" d="M132.54 905.954 L140.179 905.954 L140.179 879.589 L131.869 881.255 L131.869 876.996 L140.132 875.329 L144.808 875.329 L144.808 905.954 L152.447 905.954 L152.447 909.889 L132.54 909.889 L132.54 905.954 Z" fill="#000000" fill-rule="nonzero" fill-opacity="1" /><path clip-path="url(#clip950)" d="M171.891 878.408 Q168.28 878.408 166.452 881.973 Q164.646 885.515 164.646 892.644 Q164.646 899.751 166.452 903.315 Q168.28 906.857 171.891 906.857 Q175.526 906.857 177.331 903.315 Q179.16 899.751 179.16 892.644 Q179.16 885.515 177.331 881.973 Q175.526 878.408 171.891 878.408 M171.891 874.704 Q177.702 874.704 180.757 879.311 Q183.836 883.894 183.836 892.644 Q183.836 901.371 180.757 905.977 Q177.702 910.561 171.891 910.561 Q166.081 910.561 163.003 905.977 Q159.947 901.371 159.947 892.644 Q159.947 883.894 163.003 879.311 Q166.081 874.704 171.891 874.704 Z" fill="#000000" fill-rule="nonzero" fill-opacity="1" /><path clip-path="url(#clip950)" d="M67.3319 481.406 Q63.7208 481.406 61.8921 484.971 Q60.0865 488.513 60.0865 495.642 Q60.0865 502.749 61.8921 506.313 Q63.7208 509.855 67.3319 509.855 Q70.9661 509.855 72.7717 506.313 Q74.6004 502.749 74.6004 495.642 Q74.6004 488.513 72.7717 484.971 Q70.9661 481.406 67.3319 481.406 M67.3319 477.702 Q73.142 477.702 76.1976 482.309 Q79.2763 486.892 79.2763 495.642 Q79.2763 504.369 76.1976 508.975 Q73.142 513.559 67.3319 513.559 Q61.5217 513.559 58.443 508.975 Q55.3875 504.369 55.3875 495.642 Q55.3875 486.892 58.443 482.309 Q61.5217 477.702 67.3319 477.702 Z" fill="#000000" fill-rule="nonzero" fill-opacity="1" /><path clip-path="url(#clip950)" d="M87.4938 507.008 L92.378 507.008 L92.378 512.887 L87.4938 512.887 L87.4938 507.008 Z" fill="#000000" fill-rule="nonzero" fill-opacity="1" /><path clip-path="url(#clip950)" d="M112.563 481.406 Q108.952 481.406 107.123 484.971 Q105.318 488.513 105.318 495.642 Q105.318 502.749 107.123 506.313 Q108.952 509.855 112.563 509.855 Q116.197 509.855 118.003 506.313 Q119.832 502.749 119.832 495.642 Q119.832 488.513 118.003 484.971 Q116.197 481.406 112.563 481.406 M112.563 477.702 Q118.373 477.702 121.429 482.309 Q124.507 486.892 124.507 495.642 Q124.507 504.369 121.429 508.975 Q118.373 513.559 112.563 513.559 Q106.753 513.559 103.674 508.975 Q100.619 504.369 100.619 495.642 Q100.619 486.892 103.674 482.309 Q106.753 477.702 112.563 477.702 Z" fill="#000000" fill-rule="nonzero" fill-opacity="1" /><path clip-path="url(#clip950)" d="M133.535 508.952 L141.174 508.952 L141.174 482.587 L132.864 484.253 L132.864 479.994 L141.128 478.327 L145.804 478.327 L145.804 508.952 L153.443 508.952 L153.443 512.887 L133.535 512.887 L133.535 508.952 Z" fill="#000000" fill-rule="nonzero" fill-opacity="1" /><path clip-path="url(#clip950)" d="M162.933 478.327 L181.29 478.327 L181.29 482.263 L167.216 482.263 L167.216 490.735 Q168.234 490.387 169.253 490.225 Q170.271 490.04 171.29 490.04 Q177.077 490.04 180.456 493.212 Q183.836 496.383 183.836 501.799 Q183.836 507.378 180.364 510.48 Q176.891 513.559 170.572 513.559 Q168.396 513.559 166.128 513.188 Q163.882 512.818 161.475 512.077 L161.475 507.378 Q163.558 508.512 165.78 509.068 Q168.003 509.624 170.479 509.624 Q174.484 509.624 176.822 507.517 Q179.16 505.411 179.16 501.799 Q179.16 498.188 176.822 496.082 Q174.484 493.975 170.479 493.975 Q168.604 493.975 166.729 494.392 Q164.878 494.809 162.933 495.688 L162.933 478.327 Z" fill="#000000" fill-rule="nonzero" fill-opacity="1" /><path clip-path="url(#clip950)" d="M66.3365 84.404 Q62.7254 84.404 60.8967 87.9688 Q59.0912 91.5105 59.0912 98.6401 Q59.0912 105.747 60.8967 109.311 Q62.7254 112.853 66.3365 112.853 Q69.9707 112.853 71.7763 109.311 Q73.605 105.747 73.605 98.6401 Q73.605 91.5105 71.7763 87.9688 Q69.9707 84.404 66.3365 84.404 M66.3365 80.7003 Q72.1467 80.7003 75.2022 85.3068 Q78.2809 89.8901 78.2809 98.6401 Q78.2809 107.367 75.2022 111.973 Q72.1467 116.557 66.3365 116.557 Q60.5264 116.557 57.4477 111.973 Q54.3921 107.367 54.3921 98.6401 Q54.3921 89.8901 57.4477 85.3068 Q60.5264 80.7003 66.3365 80.7003 Z" fill="#000000" fill-rule="nonzero" fill-opacity="1" /><path clip-path="url(#clip950)" d="M86.4984 110.006 L91.3827 110.006 L91.3827 115.885 L86.4984 115.885 L86.4984 110.006 Z" fill="#000000" fill-rule="nonzero" fill-opacity="1" /><path clip-path="url(#clip950)" d="M111.568 84.404 Q107.957 84.404 106.128 87.9688 Q104.322 91.5105 104.322 98.6401 Q104.322 105.747 106.128 109.311 Q107.957 112.853 111.568 112.853 Q115.202 112.853 117.008 109.311 Q118.836 105.747 118.836 98.6401 Q118.836 91.5105 117.008 87.9688 Q115.202 84.404 111.568 84.404 M111.568 80.7003 Q117.378 80.7003 120.433 85.3068 Q123.512 89.8901 123.512 98.6401 Q123.512 107.367 120.433 111.973 Q117.378 116.557 111.568 116.557 Q105.758 116.557 102.679 111.973 Q99.6234 107.367 99.6234 98.6401 Q99.6234 89.8901 102.679 85.3068 Q105.758 80.7003 111.568 80.7003 Z" fill="#000000" fill-rule="nonzero" fill-opacity="1" /><path clip-path="url(#clip950)" d="M135.757 111.95 L152.077 111.95 L152.077 115.885 L130.132 115.885 L130.132 111.95 Q132.794 109.196 137.378 104.566 Q141.984 99.9132 143.165 98.5706 Q145.41 96.0475 146.29 94.3114 Q147.193 92.5521 147.193 90.8623 Q147.193 88.1077 145.248 86.3716 Q143.327 84.6355 140.225 84.6355 Q138.026 84.6355 135.572 85.3994 Q133.142 86.1633 130.364 87.7142 L130.364 82.992 Q133.188 81.8578 135.642 81.279 Q138.095 80.7003 140.132 80.7003 Q145.503 80.7003 148.697 83.3855 Q151.892 86.0707 151.892 90.5614 Q151.892 92.691 151.081 94.6123 Q150.294 96.5104 148.188 99.103 Q147.609 99.7743 144.507 102.992 Q141.406 106.186 135.757 111.95 Z" fill="#000000" fill-rule="nonzero" fill-opacity="1" /><path clip-path="url(#clip950)" d="M171.891 84.404 Q168.28 84.404 166.452 87.9688 Q164.646 91.5105 164.646 98.6401 Q164.646 105.747 166.452 109.311 Q168.28 112.853 171.891 112.853 Q175.526 112.853 177.331 109.311 Q179.16 105.747 179.16 98.6401 Q179.16 91.5105 177.331 87.9688 Q175.526 84.404 171.891 84.404 M171.891 80.7003 Q177.702 80.7003 180.757 85.3068 Q183.836 89.8901 183.836 98.6401 Q183.836 107.367 180.757 111.973 Q177.702 116.557 171.891 116.557 Q166.081 116.557 163.003 111.973 Q159.947 107.367 159.947 98.6401 Q159.947 89.8901 163.003 85.3068 Q166.081 80.7003 171.891 80.7003 Z" fill="#000000" fill-rule="nonzero" fill-opacity="1" /><polyline clip-path="url(#clip952)" style="stroke:#009af9; stroke-linecap:round; stroke-linejoin:round; stroke-width:4; stroke-opacity:1; fill:none" points="251.045,1082.37 252.772,1083.25 254.5,1084.02 256.228,1084.69 257.955,1085.23 259.683,1085.63 261.41,1085.89 263.138,1086 264.865,1085.94 266.593,1085.69 268.32,1085.26 270.048,1084.64 271.775,1083.8 273.503,1082.75 275.23,1081.47 276.958,1079.96 278.686,1078.2 280.413,1076.2 282.141,1073.95 283.868,1071.43 285.596,1068.65 287.323,1065.59 289.051,1062.27 290.778,1058.66 292.506,1054.77 294.233,1050.6 295.961,1046.15 297.688,1041.41 299.416,1036.38 301.144,1031.07 302.871,1025.47 304.599,1019.58 306.326,1013.42 308.054,1006.97 309.781,1000.25 311.509,993.246 313.236,985.976 314.964,978.439 316.691,970.639 318.419,962.582 320.146,954.273 321.874,945.717 323.601,936.92 325.329,927.888 327.057,918.627 328.784,909.145 330.512,899.448 332.239,889.542 333.967,879.436 335.694,869.136 337.422,858.651 339.149,847.986 340.877,837.151 342.604,826.153 344.332,815 346.059,803.699 347.787,792.259 349.515,780.687 351.242,768.992 352.97,757.182 354.697,745.263 356.425,733.245 358.152,721.136 359.88,708.943 361.607,696.674 363.335,684.337 365.062,671.941 366.79,659.493 368.517,647 370.245,634.471 371.973,621.914 373.7,609.336 375.428,596.745 377.155,584.148 378.883,571.555 380.61,558.971 382.338,546.405 384.065,533.865 385.793,521.357 387.52,508.891 389.248,496.473 390.975,484.11 392.703,471.811 394.43,459.583 396.158,447.433 397.886,435.369 399.613,423.399 401.341,411.529 403.068,399.768 404.796,388.122 406.523,376.6 408.251,365.207 409.978,353.953 411.706,342.843 413.433,331.885 415.161,321.086 416.888,310.454 418.616,299.995 420.344,289.716 422.071,279.625 423.799,269.727 425.526,260.031 427.254,250.541 428.981,241.266 430.709,232.211 432.436,223.382 434.164,214.787 435.891,206.43 437.619,198.319 439.346,190.458 441.074,182.853 442.802,175.509 444.529,168.433 446.257,161.629 447.984,155.102 449.712,148.857 451.439,142.898 453.167,137.229 454.894,131.855 456.622,126.78 458.349,122.007 460.077,117.54 461.804,113.382 463.532,109.535 465.259,106.003 466.987,102.788 468.715,99.8922 470.442,97.3173 472.17,95.0651 473.897,93.137 475.625,91.5341 477.352,90.2571 479.08,89.3067 480.807,88.6832 482.535,88.3864 484.262,88.4162 485.99,88.772 487.717,89.4529 489.445,90.4579 491.173,91.7855 492.9,93.434 494.628,95.4017 496.355,97.6861 498.083,100.285 499.81,103.196 501.538,106.415 503.265,109.94 504.993,113.767 506.72,117.892 508.448,122.311 510.175,127.021 511.903,132.017 513.631,137.295 515.358,142.849 517.086,148.674 518.813,154.766 520.541,161.12 522.268,167.729 523.996,174.588 525.723,181.692 527.451,189.034 529.178,196.608 530.906,204.409 532.633,212.43 534.361,220.664 536.089,229.105 537.816,237.747 539.544,246.583 541.271,255.606 542.999,264.81 544.726,274.187 546.454,283.732 548.181,293.436 549.909,303.295 551.636,313.299 553.364,323.443 555.091,333.721 556.819,344.124 558.546,354.646 560.274,365.281 562.002,376.022 563.729,386.862 565.457,397.794 567.184,408.813 568.912,419.911 570.639,431.082 572.367,442.32 574.094,453.619 575.822,464.972 577.549,476.374 579.277,487.818 581.004,499.299 582.732,510.811 584.46,522.349 586.187,533.906 587.915,545.478 589.642,557.059 591.37,568.644 593.097,580.229 594.825,591.807 596.552,603.375 598.28,614.928 600.007,626.462 601.735,637.971 603.462,649.452 605.19,660.901 606.918,672.314 608.645,683.687 610.373,695.015 612.1,706.297 613.828,717.528 615.555,728.705 617.283,739.825 619.01,750.884 620.738,761.881 622.465,772.811 624.193,783.673 625.92,794.464 627.648,805.182 629.375,815.824 631.103,826.387 632.831,836.871 634.558,847.273 636.286,857.591 638.013,867.824 639.741,877.969 641.468,888.026 643.196,897.993 644.923,907.868 646.651,917.651 648.378,927.34 650.106,936.935 651.833,946.433 653.561,955.835 655.289,965.14 657.016,974.347 658.744,983.455 660.471,992.463 662.199,1001.37 663.926,1010.18 665.654,1018.89 667.381,1027.5 669.109,1036 670.836,1044.41 672.564,1052.71 674.291,1060.91 676.019,1069.01 677.747,1077.01 679.474,1084.91 681.202,1092.71 682.929,1100.41 684.657,1108 686.384,1115.5 688.112,1122.89 689.839,1130.18 691.567,1137.38 693.294,1144.48 695.022,1151.47 696.749,1158.37 698.477,1165.17 700.205,1171.88 701.932,1178.48 703.66,1184.99 705.387,1191.41 707.115,1197.73 708.842,1203.95 710.57,1210.08 712.297,1216.12 714.025,1222.06 715.752,1227.92 717.48,1233.68 719.207,1239.35 720.935,1244.93 722.662,1250.42 724.39,1255.82 726.118,1261.14 727.845,1266.37 729.573,1271.51 731.3,1276.57 733.028,1281.54 734.755,1286.42 736.483,1291.23 738.21,1295.95 739.938,1300.59 741.665,1305.15 743.393,1309.63 745.12,1314.03 746.848,1318.36 748.576,1322.6 750.303,1326.77 752.031,1330.86 753.758,1334.88 755.486,1338.82 757.213,1342.7 758.941,1346.49 760.668,1350.22 762.396,1353.88 764.123,1357.47 765.851,1360.98 767.578,1364.43 769.306,1367.82 771.034,1371.13 772.761,1374.38 774.489,1377.57 776.216,1380.69 777.944,1383.75 779.671,1386.74 781.399,1389.68 783.126,1392.55 784.854,1395.36 786.581,1398.11 788.309,1400.81 790.036,1403.44 791.764,1406.02 793.491,1408.53 795.219,1411 796.947,1413.4 798.674,1415.75 800.402,1418.04 802.129,1420.28 803.857,1422.46 805.584,1424.59 807.312,1426.66 809.039,1428.67 810.767,1430.63 812.494,1432.54 814.222,1434.39 815.949,1436.18 817.677,1437.92 819.405,1439.6 821.132,1441.22 822.86,1442.78 824.587,1444.28 826.315,1445.73 828.042,1447.11 829.77,1448.43 831.497,1449.68 833.225,1450.88 834.952,1452 836.68,1453.06 838.407,1454.05 840.135,1454.97 841.863,1455.81 843.59,1456.58 845.318,1457.27 847.045,1457.89 848.773,1458.42 850.5,1458.87 852.228,1459.24 853.955,1459.52 855.683,1459.7 857.41,1459.8 859.138,1459.8 860.865,1459.7 862.593,1459.5 864.321,1459.2 866.048,1458.8 867.776,1458.29 869.503,1457.67 871.231,1456.94 872.958,1456.1 874.686,1455.14 876.413,1454.07 878.141,1452.88 879.868,1451.57 881.596,1450.13 883.323,1448.58 885.051,1446.9 886.778,1445.09 888.506,1443.17 890.234,1441.11 891.961,1438.94 893.689,1436.64 895.416,1434.21 897.144,1431.66 898.871,1429 900.599,1426.21 902.326,1423.3 904.054,1420.28 905.781,1417.15 907.509,1413.9 909.236,1410.55 910.964,1407.1 912.692,1403.54 914.419,1399.89 916.147,1396.15 917.874,1392.33 919.602,1388.42 921.329,1384.44 923.057,1380.39 924.784,1376.27 926.512,1372.1 928.239,1367.87 929.967,1363.61 931.694,1359.3 933.422,1354.96 935.15,1350.6 936.877,1346.22 938.605,1341.83 940.332,1337.44 942.06,1333.05 943.787,1328.68 945.515,1324.32 947.242,1319.99 948.97,1315.69 950.697,1311.43 952.425,1307.22 954.152,1303.06 955.88,1298.96 957.607,1294.92 959.335,1290.96 961.063,1287.08 962.79,1283.27 964.518,1279.56 966.245,1275.94 967.973,1272.41 969.7,1268.99 971.428,1265.67 973.155,1262.46 974.883,1259.37 976.61,1256.38 978.338,1253.52 980.065,1250.77 981.793,1248.15 983.521,1245.65 985.248,1243.27 986.976,1241.01 988.703,1238.88 990.431,1236.88 992.158,1234.99 993.886,1233.24 995.613,1231.6 997.341,1230.08 999.068,1228.69 1000.8,1227.41 1002.52,1226.25 1004.25,1225.2 1005.98,1224.27 1007.71,1223.44 1009.43,1222.72 1011.16,1222.1 1012.89,1221.59 1014.62,1221.16 1016.34,1220.84 1018.07,1220.6 1019.8,1220.45 1021.53,1220.38 1023.25,1220.4 1024.98,1220.48 1026.71,1220.65 1028.44,1220.87 1030.16,1221.17 1031.89,1221.53 1033.62,1221.94 1035.35,1222.41 1037.07,1222.93 1038.8,1223.5 1040.53,1224.12 1042.26,1224.77 1043.98,1225.47 1045.71,1226.2 1047.44,1226.96 1049.17,1227.75 1050.89,1228.56 1052.62,1229.41 1054.35,1230.27 1056.08,1231.15 1057.8,1232.05 1059.53,1232.96 1061.26,1233.89 1062.99,1234.82 1064.71,1235.76 1066.44,1236.71 1068.17,1237.67 1069.9,1238.63 1071.62,1239.59 1073.35,1240.54 1075.08,1241.5 1076.81,1242.46 1078.54,1243.41 1080.26,1244.35 1081.99,1245.29 1083.72,1246.22 1085.45,1247.15 1087.17,1248.06 1088.9,1248.97 1090.63,1249.86 1092.36,1250.75 1094.08,1251.62 1095.81,1252.48 1097.54,1253.33 1099.27,1254.16 1100.99,1254.98 1102.72,1255.78 1104.45,1256.57 1106.18,1257.35 1107.9,1258.11 1109.63,1258.85 1111.36,1259.58 1113.09,1260.29 1114.81,1260.99 1116.54,1261.67 1118.27,1262.33 1120,1262.98 1121.72,1263.61 1123.45,1264.22 1125.18,1264.81 1126.91,1265.39 1128.63,1265.95 1130.36,1266.49 1132.09,1267.01 1133.82,1267.52 1135.54,1268.01 1137.27,1268.47 1139,1268.93 1140.73,1269.36 1142.45,1269.77 1144.18,1270.17 1145.91,1270.55 1147.64,1270.91 1149.36,1271.25 1151.09,1271.57 1152.82,1271.88 1154.55,1272.16 1156.27,1272.43 1158,1272.68 1159.73,1272.91 1161.46,1273.12 1163.18,1273.31 1164.91,1273.48 1166.64,1273.63 1168.37,1273.76 1170.09,1273.87 1171.82,1273.97 1173.55,1274.04 1175.28,1274.09 1177,1274.12 1178.73,1274.13 1180.46,1274.13 1182.19,1274.1 1183.91,1274.04 1185.64,1273.97 1187.37,1273.88 1189.1,1273.76 1190.82,1273.62 1192.55,1273.46 1194.28,1273.28 1196.01,1273.08 1197.74,1272.85 1199.46,1272.59 1201.19,1272.32 1202.92,1272.01 1204.65,1271.69 1206.37,1271.33 1208.1,1270.95 1209.83,1270.55 1211.56,1270.12 1213.28,1269.65 1215.01,1269.17 1216.74,1268.65 1218.47,1268.1 1220.19,1267.52 1221.92,1266.91 1223.65,1266.27 1225.38,1265.59 1227.1,1264.88 1228.83,1264.14 1230.56,1263.35 1232.29,1262.54 1234.01,1261.68 1235.74,1260.78 1237.47,1259.84 1239.2,1258.86 1240.92,1257.84 1242.65,1256.77 1244.38,1255.65 1246.11,1254.49 1247.83,1253.27 1249.56,1252.01 1251.29,1250.69 1253.02,1249.31 1254.74,1247.88 1256.47,1246.39 1258.2,1244.83 1259.93,1243.22 1261.65,1241.54 1263.38,1239.79 1265.11,1237.97 1266.84,1236.07 1268.56,1234.11 1270.29,1232.07 1272.02,1229.94 1273.75,1227.74 1275.47,1225.45 1277.2,1223.08 1278.93,1220.62 1280.66,1218.06 1282.38,1215.42 1284.11,1212.68 1285.84,1209.84 1287.57,1206.9 1289.29,1203.87 1291.02,1200.73 1292.75,1197.48 1294.48,1194.13 1296.2,1190.67 1297.93,1187.1 1299.66,1183.42 1301.39,1179.64 1303.11,1175.74 1304.84,1171.73 1306.57,1167.61 1308.3,1163.38 1310.03,1159.04 1311.75,1154.59 1313.48,1150.04 1315.21,1145.38 1316.94,1140.61 1318.66,1135.75 1320.39,1130.78 1322.12,1125.73 1323.85,1120.58 1325.57,1115.35 1327.3,1110.03 1329.03,1104.64 1330.76,1099.18 1332.48,1093.65 1334.21,1088.07 1335.94,1082.43 1337.67,1076.75 1339.39,1071.04 1341.12,1065.3 1342.85,1059.54 1344.58,1053.77 1346.3,1048 1348.03,1042.25 1349.76,1036.51 1351.49,1030.8 1353.21,1025.14 1354.94,1019.53 1356.67,1013.98 1358.4,1008.51 1360.12,1003.13 1361.85,997.842 1363.58,992.666 1365.31,987.611 1367.03,982.689 1368.76,977.912 1370.49,973.289 1372.22,968.833 1373.94,964.554 1375.67,960.462 1377.4,956.568 1379.13,952.88 1380.85,949.409 1382.58,946.162 1384.31,943.148 1386.04,940.374 1387.76,937.848 1389.49,935.574 1391.22,933.56 1392.95,931.808 1394.67,930.325 1396.4,929.112 1398.13,928.172 1399.86,927.506 1401.58,927.116 1403.31,927.002 1405.04,927.161 1406.77,927.593 1408.49,928.294 1410.22,929.262 1411.95,930.491 1413.68,931.977 1415.4,933.714 1417.13,935.694 1418.86,937.911 1420.59,940.356 1422.31,943.02 1424.04,945.894 1425.77,948.968 1427.5,952.23 1429.23,955.671 1430.95,959.277 1432.68,963.037 1434.41,966.939 1436.14,970.969 1437.86,975.115 1439.59,979.363 1441.32,983.701 1443.05,988.114 1444.77,992.589 1446.5,997.113 1448.23,1001.67 1449.96,1006.25 1451.68,1010.84 1453.41,1015.42 1455.14,1019.99 1456.87,1024.53 1458.59,1029.02 1460.32,1033.47 1462.05,1037.84 1463.78,1042.14 1465.5,1046.36 1467.23,1050.48 1468.96,1054.49 1470.69,1058.39 1472.41,1062.16 1474.14,1065.81 1475.87,1069.32 1477.6,1072.68 1479.32,1075.89 1481.05,1078.95 1482.78,1081.85 1484.51,1084.59 1486.23,1087.15 1487.96,1089.55 1489.69,1091.78 1491.42,1093.83 1493.14,1095.7 1494.87,1097.4 1496.6,1098.93 1498.33,1100.28 1500.05,1101.46 1501.78,1102.46 1503.51,1103.3 1505.24,1103.97 1506.96,1104.48 1508.69,1104.82 1510.42,1105.01 1512.15,1105.05 1513.87,1104.94 1515.6,1104.7 1517.33,1104.31 1519.06,1103.8 1520.78,1103.16 1522.51,1102.4 1524.24,1101.53 1525.97,1100.56 1527.69,1099.49 1529.42,1098.34 1531.15,1097.1 1532.88,1095.78 1534.6,1094.4 1536.33,1092.96 1538.06,1091.47 1539.79,1089.94 1541.51,1088.37 1543.24,1086.78 1544.97,1085.17 1546.7,1083.55 1548.43,1081.92 1550.15,1080.3 1551.88,1078.7 1553.61,1077.12 1555.34,1075.56 1557.06,1074.04 1558.79,1072.56 1560.52,1071.14 1562.25,1069.77 1563.97,1068.46 1565.7,1067.22 1567.43,1066.06 1569.16,1064.98 1570.88,1063.98 1572.61,1063.07 1574.34,1062.26 1576.07,1061.54 1577.79,1060.92 1579.52,1060.41 1581.25,1060 1582.98,1059.7 1584.7,1059.5 1586.43,1059.42 1588.16,1059.44 1589.89,1059.57 1591.61,1059.81 1593.34,1060.15 1595.07,1060.59 1596.8,1061.13 1598.52,1061.76 1600.25,1062.48 1601.98,1063.29 1603.71,1064.17 1605.43,1065.13 1607.16,1066.16 1608.89,1067.24 1610.62,1068.37 1612.34,1069.54 1614.07,1070.75 1615.8,1071.98 1617.53,1073.22 1619.25,1074.47 1620.98,1075.71 1622.71,1076.93 1624.44,1078.12 1626.16,1079.28 1627.89,1080.38 1629.62,1081.41 1631.35,1082.37 "/>
<path clip-path="url(#clip950)" d="M792.029 199.381 L1623.99 199.381 L1623.99 95.7006 L792.029 95.7006  Z" fill="#ffffff" fill-rule="evenodd" fill-opacity="1"/>
<polyline clip-path="url(#clip950)" style="stroke:#000000; stroke-linecap:round; stroke-linejoin:round; stroke-width:4; stroke-opacity:1; fill:none" points="792.029,199.381 1623.99,199.381 1623.99,95.7006 792.029,95.7006 792.029,199.381 "/>
<polyline clip-path="url(#clip950)" style="stroke:#009af9; stroke-linecap:round; stroke-linejoin:round; stroke-width:4; stroke-opacity:1; fill:none" points="808.286,147.541 905.827,147.541 "/>
<path clip-path="url(#clip950)" d="M942.431 143.872 Q944.028 141.001 946.25 139.636 Q948.473 138.27 951.482 138.27 Q955.533 138.27 957.732 141.117 Q959.931 143.941 959.931 149.173 L959.931 164.821 L955.649 164.821 L955.649 149.311 Q955.649 145.585 954.329 143.779 Q953.01 141.974 950.301 141.974 Q946.991 141.974 945.07 144.173 Q943.149 146.372 943.149 150.168 L943.149 164.821 L938.866 164.821 L938.866 149.311 Q938.866 145.561 937.547 143.779 Q936.227 141.974 933.473 141.974 Q930.209 141.974 928.288 144.196 Q926.366 146.395 926.366 150.168 L926.366 164.821 L922.084 164.821 L922.084 138.895 L926.366 138.895 L926.366 142.923 Q927.825 140.538 929.862 139.404 Q931.899 138.27 934.7 138.27 Q937.524 138.27 939.491 139.705 Q941.482 141.14 942.431 143.872 Z" fill="#000000" fill-rule="nonzero" fill-opacity="1" /><path clip-path="url(#clip950)" d="M990.602 150.793 L990.602 152.876 L971.019 152.876 Q971.297 157.274 973.658 159.589 Q976.042 161.881 980.278 161.881 Q982.732 161.881 985.023 161.279 Q987.338 160.677 989.607 159.473 L989.607 163.501 Q987.315 164.473 984.908 164.983 Q982.5 165.492 980.023 165.492 Q973.82 165.492 970.185 161.881 Q966.574 158.27 966.574 152.112 Q966.574 145.747 970 142.02 Q973.449 138.27 979.283 138.27 Q984.514 138.27 987.546 141.649 Q990.602 145.006 990.602 150.793 M986.343 149.543 Q986.296 146.048 984.375 143.964 Q982.477 141.881 979.329 141.881 Q975.764 141.881 973.611 143.895 Q971.482 145.909 971.158 149.566 L986.343 149.543 Z" fill="#000000" fill-rule="nonzero" fill-opacity="1" /><path clip-path="url(#clip950)" d="M1009.38 151.788 Q1004.21 151.788 1002.22 152.969 Q1000.23 154.149 1000.23 156.997 Q1000.23 159.265 1001.71 160.608 Q1003.22 161.927 1005.79 161.927 Q1009.33 161.927 1011.46 159.427 Q1013.61 156.904 1013.61 152.737 L1013.61 151.788 L1009.38 151.788 M1017.87 150.029 L1017.87 164.821 L1013.61 164.821 L1013.61 160.885 Q1012.15 163.247 1009.98 164.381 Q1007.8 165.492 1004.65 165.492 Q1000.67 165.492 998.31 163.27 Q995.972 161.024 995.972 157.274 Q995.972 152.899 998.889 150.677 Q1001.83 148.455 1007.64 148.455 L1013.61 148.455 L1013.61 148.038 Q1013.61 145.099 1011.67 143.501 Q1009.75 141.881 1006.25 141.881 Q1004.03 141.881 1001.92 142.413 Q999.815 142.946 997.871 144.011 L997.871 140.075 Q1000.21 139.173 1002.41 138.733 Q1004.61 138.27 1006.69 138.27 Q1012.31 138.27 1015.09 141.186 Q1017.87 144.103 1017.87 150.029 Z" fill="#000000" fill-rule="nonzero" fill-opacity="1" /><path clip-path="url(#clip950)" d="M1043.17 139.659 L1043.17 143.686 Q1041.37 142.761 1039.42 142.298 Q1037.48 141.835 1035.39 141.835 Q1032.22 141.835 1030.62 142.807 Q1029.05 143.779 1029.05 145.723 Q1029.05 147.205 1030.19 148.061 Q1031.32 148.895 1034.75 149.659 L1036.2 149.983 Q1040.74 150.955 1042.64 152.737 Q1044.56 154.497 1044.56 157.668 Q1044.56 161.279 1041.69 163.385 Q1038.84 165.492 1033.84 165.492 Q1031.76 165.492 1029.49 165.075 Q1027.25 164.682 1024.75 163.872 L1024.75 159.473 Q1027.11 160.7 1029.4 161.325 Q1031.69 161.927 1033.94 161.927 Q1036.94 161.927 1038.56 160.909 Q1040.19 159.867 1040.19 157.992 Q1040.19 156.256 1039 155.33 Q1037.85 154.404 1033.89 153.548 L1032.41 153.2 Q1028.45 152.367 1026.69 150.654 Q1024.93 148.918 1024.93 145.909 Q1024.93 142.251 1027.52 140.261 Q1030.12 138.27 1034.88 138.27 Q1037.25 138.27 1039.33 138.617 Q1041.41 138.964 1043.17 139.659 Z" fill="#000000" fill-rule="nonzero" fill-opacity="1" /><path clip-path="url(#clip950)" d="M1050.9 154.589 L1050.9 138.895 L1055.16 138.895 L1055.16 154.427 Q1055.16 158.108 1056.6 159.96 Q1058.03 161.788 1060.9 161.788 Q1064.35 161.788 1066.34 159.589 Q1068.36 157.39 1068.36 153.594 L1068.36 138.895 L1072.62 138.895 L1072.62 164.821 L1068.36 164.821 L1068.36 160.839 Q1066.81 163.2 1064.75 164.358 Q1062.71 165.492 1060 165.492 Q1055.53 165.492 1053.22 162.714 Q1050.9 159.936 1050.9 154.589 M1061.62 138.27 L1061.62 138.27 Z" fill="#000000" fill-rule="nonzero" fill-opacity="1" /><path clip-path="url(#clip950)" d="M1096.41 142.876 Q1095.69 142.46 1094.84 142.274 Q1094 142.066 1092.99 142.066 Q1089.37 142.066 1087.43 144.427 Q1085.51 146.765 1085.51 151.163 L1085.51 164.821 L1081.23 164.821 L1081.23 138.895 L1085.51 138.895 L1085.51 142.923 Q1086.85 140.561 1089 139.427 Q1091.16 138.27 1094.24 138.27 Q1094.68 138.27 1095.21 138.339 Q1095.74 138.386 1096.39 138.501 L1096.41 142.876 Z" fill="#000000" fill-rule="nonzero" fill-opacity="1" /><path clip-path="url(#clip950)" d="M1122.01 150.793 L1122.01 152.876 L1102.43 152.876 Q1102.71 157.274 1105.07 159.589 Q1107.45 161.881 1111.69 161.881 Q1114.14 161.881 1116.43 161.279 Q1118.75 160.677 1121.02 159.473 L1121.02 163.501 Q1118.73 164.473 1116.32 164.983 Q1113.91 165.492 1111.43 165.492 Q1105.23 165.492 1101.6 161.881 Q1097.99 158.27 1097.99 152.112 Q1097.99 145.747 1101.41 142.02 Q1104.86 138.27 1110.69 138.27 Q1115.93 138.27 1118.96 141.649 Q1122.01 145.006 1122.01 150.793 M1117.75 149.543 Q1117.71 146.048 1115.79 143.964 Q1113.89 141.881 1110.74 141.881 Q1107.18 141.881 1105.02 143.895 Q1102.89 145.909 1102.57 149.566 L1117.75 149.543 Z" fill="#000000" fill-rule="nonzero" fill-opacity="1" /><path clip-path="url(#clip950)" d="M1149.19 143.872 Q1150.79 141.001 1153.01 139.636 Q1155.23 138.27 1158.24 138.27 Q1162.29 138.27 1164.49 141.117 Q1166.69 143.941 1166.69 149.173 L1166.69 164.821 L1162.41 164.821 L1162.41 149.311 Q1162.41 145.585 1161.09 143.779 Q1159.77 141.974 1157.06 141.974 Q1153.75 141.974 1151.83 144.173 Q1149.91 146.372 1149.91 150.168 L1149.91 164.821 L1145.62 164.821 L1145.62 149.311 Q1145.62 145.561 1144.3 143.779 Q1142.99 141.974 1140.23 141.974 Q1136.97 141.974 1135.05 144.196 Q1133.12 146.395 1133.12 150.168 L1133.12 164.821 L1128.84 164.821 L1128.84 138.895 L1133.12 138.895 L1133.12 142.923 Q1134.58 140.538 1136.62 139.404 Q1138.66 138.27 1141.46 138.27 Q1144.28 138.27 1146.25 139.705 Q1148.24 141.14 1149.19 143.872 Z" fill="#000000" fill-rule="nonzero" fill-opacity="1" /><path clip-path="url(#clip950)" d="M1197.36 150.793 L1197.36 152.876 L1177.78 152.876 Q1178.05 157.274 1180.42 159.589 Q1182.8 161.881 1187.04 161.881 Q1189.49 161.881 1191.78 161.279 Q1194.1 160.677 1196.36 159.473 L1196.36 163.501 Q1194.07 164.473 1191.67 164.983 Q1189.26 165.492 1186.78 165.492 Q1180.58 165.492 1176.94 161.881 Q1173.33 158.27 1173.33 152.112 Q1173.33 145.747 1176.76 142.02 Q1180.21 138.27 1186.04 138.27 Q1191.27 138.27 1194.3 141.649 Q1197.36 145.006 1197.36 150.793 M1193.1 149.543 Q1193.05 146.048 1191.13 143.964 Q1189.24 141.881 1186.09 141.881 Q1182.52 141.881 1180.37 143.895 Q1178.24 145.909 1177.92 149.566 L1193.1 149.543 Z" fill="#000000" fill-rule="nonzero" fill-opacity="1" /><path clip-path="url(#clip950)" d="M1225.9 149.173 L1225.9 164.821 L1221.64 164.821 L1221.64 149.311 Q1221.64 145.631 1220.21 143.802 Q1218.77 141.974 1215.9 141.974 Q1212.45 141.974 1210.46 144.173 Q1208.47 146.372 1208.47 150.168 L1208.47 164.821 L1204.19 164.821 L1204.19 138.895 L1208.47 138.895 L1208.47 142.923 Q1210 140.585 1212.06 139.427 Q1214.14 138.27 1216.85 138.27 Q1221.32 138.27 1223.61 141.048 Q1225.9 143.802 1225.9 149.173 Z" fill="#000000" fill-rule="nonzero" fill-opacity="1" /><path clip-path="url(#clip950)" d="M1238.61 131.534 L1238.61 138.895 L1247.38 138.895 L1247.38 142.205 L1238.61 142.205 L1238.61 156.279 Q1238.61 159.45 1239.47 160.353 Q1240.35 161.256 1243.01 161.256 L1247.38 161.256 L1247.38 164.821 L1243.01 164.821 Q1238.08 164.821 1236.2 162.992 Q1234.33 161.14 1234.33 156.279 L1234.33 142.205 L1231.2 142.205 L1231.2 138.895 L1234.33 138.895 L1234.33 131.534 L1238.61 131.534 Z" fill="#000000" fill-rule="nonzero" fill-opacity="1" /><path clip-path="url(#clip950)" d="M1269.51 139.659 L1269.51 143.686 Q1267.71 142.761 1265.76 142.298 Q1263.82 141.835 1261.73 141.835 Q1258.56 141.835 1256.97 142.807 Q1255.39 143.779 1255.39 145.723 Q1255.39 147.205 1256.53 148.061 Q1257.66 148.895 1261.09 149.659 L1262.55 149.983 Q1267.08 150.955 1268.98 152.737 Q1270.9 154.497 1270.9 157.668 Q1270.9 161.279 1268.03 163.385 Q1265.18 165.492 1260.18 165.492 Q1258.1 165.492 1255.83 165.075 Q1253.59 164.682 1251.09 163.872 L1251.09 159.473 Q1253.45 160.7 1255.74 161.325 Q1258.03 161.927 1260.28 161.927 Q1263.29 161.927 1264.91 160.909 Q1266.53 159.867 1266.53 157.992 Q1266.53 156.256 1265.35 155.33 Q1264.19 154.404 1260.23 153.548 L1258.75 153.2 Q1254.79 152.367 1253.03 150.654 Q1251.27 148.918 1251.27 145.909 Q1251.27 142.251 1253.86 140.261 Q1256.46 138.27 1261.23 138.27 Q1263.59 138.27 1265.67 138.617 Q1267.75 138.964 1269.51 139.659 Z" fill="#000000" fill-rule="nonzero" fill-opacity="1" /><path clip-path="url(#clip950)" d="M1302.98 128.849 Q1299.88 134.173 1298.38 139.381 Q1296.87 144.589 1296.87 149.936 Q1296.87 155.284 1298.38 160.538 Q1299.91 165.77 1302.98 171.071 L1299.28 171.071 Q1295.81 165.631 1294.07 160.376 Q1292.36 155.122 1292.36 149.936 Q1292.36 144.774 1294.07 139.543 Q1295.79 134.312 1299.28 128.849 L1302.98 128.849 Z" fill="#000000" fill-rule="nonzero" fill-opacity="1" /><path clip-path="url(#clip950)" d="M1333.42 150.793 L1333.42 152.876 L1313.84 152.876 Q1314.12 157.274 1316.48 159.589 Q1318.86 161.881 1323.1 161.881 Q1325.55 161.881 1327.85 161.279 Q1330.16 160.677 1332.43 159.473 L1332.43 163.501 Q1330.14 164.473 1327.73 164.983 Q1325.32 165.492 1322.85 165.492 Q1316.64 165.492 1313.01 161.881 Q1309.4 158.27 1309.4 152.112 Q1309.4 145.747 1312.82 142.02 Q1316.27 138.27 1322.1 138.27 Q1327.34 138.27 1330.37 141.649 Q1333.42 145.006 1333.42 150.793 M1329.17 149.543 Q1329.12 146.048 1327.2 143.964 Q1325.3 141.881 1322.15 141.881 Q1318.59 141.881 1316.43 143.895 Q1314.3 145.909 1313.98 149.566 L1329.17 149.543 Z" fill="#000000" fill-rule="nonzero" fill-opacity="1" /><path clip-path="url(#clip950)" d="M1361.13 138.895 L1351.76 151.511 L1361.62 164.821 L1356.6 164.821 L1349.05 154.635 L1341.5 164.821 L1336.48 164.821 L1346.55 151.256 L1337.34 138.895 L1342.36 138.895 L1349.23 148.131 L1356.11 138.895 L1361.13 138.895 Z" fill="#000000" fill-rule="nonzero" fill-opacity="1" /><path clip-path="url(#clip950)" d="M1371.85 131.534 L1371.85 138.895 L1380.62 138.895 L1380.62 142.205 L1371.85 142.205 L1371.85 156.279 Q1371.85 159.45 1372.71 160.353 Q1373.59 161.256 1376.25 161.256 L1380.62 161.256 L1380.62 164.821 L1376.25 164.821 Q1371.32 164.821 1369.44 162.992 Q1367.57 161.14 1367.57 156.279 L1367.57 142.205 L1364.44 142.205 L1364.44 138.895 L1367.57 138.895 L1367.57 131.534 L1371.85 131.534 Z" fill="#000000" fill-rule="nonzero" fill-opacity="1" /><path clip-path="url(#clip950)" d="M1401.25 142.876 Q1400.53 142.46 1399.67 142.274 Q1398.84 142.066 1397.82 142.066 Q1394.21 142.066 1392.27 144.427 Q1390.35 146.765 1390.35 151.163 L1390.35 164.821 L1386.06 164.821 L1386.06 138.895 L1390.35 138.895 L1390.35 142.923 Q1391.69 140.561 1393.84 139.427 Q1395.99 138.27 1399.07 138.27 Q1399.51 138.27 1400.04 138.339 Q1400.58 138.386 1401.22 138.501 L1401.25 142.876 Z" fill="#000000" fill-rule="nonzero" fill-opacity="1" /><path clip-path="url(#clip950)" d="M1417.5 151.788 Q1412.34 151.788 1410.35 152.969 Q1408.35 154.149 1408.35 156.997 Q1408.35 159.265 1409.84 160.608 Q1411.34 161.927 1413.91 161.927 Q1417.45 161.927 1419.58 159.427 Q1421.73 156.904 1421.73 152.737 L1421.73 151.788 L1417.5 151.788 M1425.99 150.029 L1425.99 164.821 L1421.73 164.821 L1421.73 160.885 Q1420.28 163.247 1418.1 164.381 Q1415.92 165.492 1412.78 165.492 Q1408.79 165.492 1406.43 163.27 Q1404.1 161.024 1404.1 157.274 Q1404.1 152.899 1407.01 150.677 Q1409.95 148.455 1415.76 148.455 L1421.73 148.455 L1421.73 148.038 Q1421.73 145.099 1419.79 143.501 Q1417.87 141.881 1414.37 141.881 Q1412.15 141.881 1410.04 142.413 Q1407.94 142.946 1405.99 144.011 L1405.99 140.075 Q1408.33 139.173 1410.53 138.733 Q1412.73 138.27 1414.81 138.27 Q1420.44 138.27 1423.22 141.186 Q1425.99 144.103 1425.99 150.029 Z" fill="#000000" fill-rule="nonzero" fill-opacity="1" /><path clip-path="url(#clip950)" d="M1453.42 139.89 L1453.42 143.872 Q1451.62 142.876 1449.79 142.39 Q1447.98 141.881 1446.13 141.881 Q1441.99 141.881 1439.7 144.52 Q1437.41 147.136 1437.41 151.881 Q1437.41 156.626 1439.7 159.265 Q1441.99 161.881 1446.13 161.881 Q1447.98 161.881 1449.79 161.395 Q1451.62 160.885 1453.42 159.89 L1453.42 163.825 Q1451.64 164.659 1449.72 165.075 Q1447.82 165.492 1445.67 165.492 Q1439.81 165.492 1436.36 161.811 Q1432.91 158.131 1432.91 151.881 Q1432.91 145.538 1436.39 141.904 Q1439.88 138.27 1445.95 138.27 Q1447.91 138.27 1449.79 138.687 Q1451.66 139.08 1453.42 139.89 Z" fill="#000000" fill-rule="nonzero" fill-opacity="1" /><path clip-path="url(#clip950)" d="M1465.04 131.534 L1465.04 138.895 L1473.82 138.895 L1473.82 142.205 L1465.04 142.205 L1465.04 156.279 Q1465.04 159.45 1465.9 160.353 Q1466.78 161.256 1469.44 161.256 L1473.82 161.256 L1473.82 164.821 L1469.44 164.821 Q1464.51 164.821 1462.64 162.992 Q1460.76 161.14 1460.76 156.279 L1460.76 142.205 L1457.64 142.205 L1457.64 138.895 L1460.76 138.895 L1460.76 131.534 L1465.04 131.534 Z" fill="#000000" fill-rule="nonzero" fill-opacity="1" /><path clip-path="url(#clip950)" d="M1479.42 138.895 L1483.68 138.895 L1483.68 164.821 L1479.42 164.821 L1479.42 138.895 M1479.42 128.802 L1483.68 128.802 L1483.68 134.196 L1479.42 134.196 L1479.42 128.802 Z" fill="#000000" fill-rule="nonzero" fill-opacity="1" /><path clip-path="url(#clip950)" d="M1502.64 141.881 Q1499.21 141.881 1497.22 144.566 Q1495.23 147.228 1495.23 151.881 Q1495.23 156.534 1497.2 159.219 Q1499.19 161.881 1502.64 161.881 Q1506.04 161.881 1508.03 159.196 Q1510.02 156.51 1510.02 151.881 Q1510.02 147.274 1508.03 144.589 Q1506.04 141.881 1502.64 141.881 M1502.64 138.27 Q1508.19 138.27 1511.36 141.881 Q1514.53 145.492 1514.53 151.881 Q1514.53 158.247 1511.36 161.881 Q1508.19 165.492 1502.64 165.492 Q1497.06 165.492 1493.89 161.881 Q1490.74 158.247 1490.74 151.881 Q1490.74 145.492 1493.89 141.881 Q1497.06 138.27 1502.64 138.27 Z" fill="#000000" fill-rule="nonzero" fill-opacity="1" /><path clip-path="url(#clip950)" d="M1543.15 149.173 L1543.15 164.821 L1538.89 164.821 L1538.89 149.311 Q1538.89 145.631 1537.45 143.802 Q1536.02 141.974 1533.15 141.974 Q1529.7 141.974 1527.71 144.173 Q1525.71 146.372 1525.71 150.168 L1525.71 164.821 L1521.43 164.821 L1521.43 138.895 L1525.71 138.895 L1525.71 142.923 Q1527.24 140.585 1529.3 139.427 Q1531.39 138.27 1534.09 138.27 Q1538.56 138.27 1540.85 141.048 Q1543.15 143.802 1543.15 149.173 Z" fill="#000000" fill-rule="nonzero" fill-opacity="1" /><path clip-path="url(#clip950)" d="M1552.73 158.941 L1557.61 158.941 L1557.61 164.821 L1552.73 164.821 L1552.73 158.941 M1552.73 140.307 L1557.61 140.307 L1557.61 146.186 L1552.73 146.186 L1552.73 140.307 Z" fill="#000000" fill-rule="nonzero" fill-opacity="1" /><path clip-path="url(#clip950)" d="M1572.24 160.885 L1588.56 160.885 L1588.56 164.821 L1566.62 164.821 L1566.62 160.885 Q1569.28 158.131 1573.86 153.501 Q1578.47 148.848 1579.65 147.506 Q1581.9 144.983 1582.77 143.247 Q1583.68 141.487 1583.68 139.798 Q1583.68 137.043 1581.73 135.307 Q1579.81 133.571 1576.71 133.571 Q1574.51 133.571 1572.06 134.335 Q1569.63 135.099 1566.85 136.649 L1566.85 131.927 Q1569.67 130.793 1572.13 130.214 Q1574.58 129.636 1576.62 129.636 Q1581.99 129.636 1585.18 132.321 Q1588.38 135.006 1588.38 139.497 Q1588.38 141.626 1587.57 143.548 Q1586.78 145.446 1584.67 148.038 Q1584.09 148.71 1580.99 151.927 Q1577.89 155.122 1572.24 160.885 Z" fill="#000000" fill-rule="nonzero" fill-opacity="1" /><path clip-path="url(#clip950)" d="M1597.1 128.849 L1600.81 128.849 Q1604.28 134.312 1605.99 139.543 Q1607.73 144.774 1607.73 149.936 Q1607.73 155.122 1605.99 160.376 Q1604.28 165.631 1600.81 171.071 L1597.1 171.071 Q1600.18 165.77 1601.69 160.538 Q1603.21 155.284 1603.21 149.936 Q1603.21 144.589 1601.69 139.381 Q1600.18 134.173 1597.1 128.849 Z" fill="#000000" fill-rule="nonzero" fill-opacity="1" /></svg>
