<?xml version="1.0" encoding="utf-8"?>
<svg xmlns="http://www.w3.org/2000/svg" xmlns:xlink="http://www.w3.org/1999/xlink" width="430" height="430" viewBox="0 0 1720 1720">
<defs>
  <clipPath id="clip200">
    <rect x="0" y="0" width="1720" height="1720"/>
  </clipPath>
</defs>
<path clip-path="url(#clip200)" d="M0 1720 L1720 1720 L1720 0 L0 0  Z" fill="#ffffff" fill-rule="evenodd" fill-opacity="1"/>
<defs>
  <clipPath id="clip201">
    <rect x="344" y="172" width="1205" height="1205"/>
  </clipPath>
</defs>
<path clip-path="url(#clip200)" d="M209.636 1500.94 L1609.76 1500.94 L1609.76 47.2441 L209.636 47.2441  Z" fill="#ffffff" fill-rule="evenodd" fill-opacity="1"/>
<defs>
  <clipPath id="clip202">
    <rect x="209" y="47" width="1401" height="1455"/>
  </clipPath>
</defs>
<polyline clip-path="url(#clip202)" style="stroke:#000000; stroke-linecap:round; stroke-linejoin:round; stroke-width:2; stroke-opacity:0.1; fill:none" points="249.262,1500.94 249.262,47.2441 "/>
<polyline clip-path="url(#clip202)" style="stroke:#000000; stroke-linecap:round; stroke-linejoin:round; stroke-width:2; stroke-opacity:0.1; fill:none" points="459.486,1500.94 459.486,47.2441 "/>
<polyline clip-path="url(#clip202)" style="stroke:#000000; stroke-linecap:round; stroke-linejoin:round; stroke-width:2; stroke-opacity:0.1; fill:none" points="669.71,1500.94 669.71,47.2441 "/>
<polyline clip-path="url(#clip202)" style="stroke:#000000; stroke-linecap:round; stroke-linejoin:round; stroke-width:2; stroke-opacity:0.1; fill:none" points="879.934,1500.94 879.934,47.2441 "/>
<polyline clip-path="url(#clip202)" style="stroke:#000000; stroke-linecap:round; stroke-linejoin:round; stroke-width:2; stroke-opacity:0.1; fill:none" points="1090.16,1500.94 1090.16,47.2441 "/>
<polyline clip-path="url(#clip202)" style="stroke:#000000; stroke-linecap:round; stroke-linejoin:round; stroke-width:2; stroke-opacity:0.1; fill:none" points="1300.38,1500.94 1300.38,47.2441 "/>
<polyline clip-path="url(#clip202)" style="stroke:#000000; stroke-linecap:round; stroke-linejoin:round; stroke-width:2; stroke-opacity:0.1; fill:none" points="1510.61,1500.94 1510.61,47.2441 "/>
<polyline clip-path="url(#clip200)" style="stroke:#000000; stroke-linecap:round; stroke-linejoin:round; stroke-width:4; stroke-opacity:1; fill:none" points="209.636,1500.94 1609.76,1500.94 "/>
<polyline clip-path="url(#clip200)" style="stroke:#000000; stroke-linecap:round; stroke-linejoin:round; stroke-width:4; stroke-opacity:1; fill:none" points="249.262,1500.94 249.262,1482.04 "/>
<polyline clip-path="url(#clip200)" style="stroke:#000000; stroke-linecap:round; stroke-linejoin:round; stroke-width:4; stroke-opacity:1; fill:none" points="459.486,1500.94 459.486,1482.04 "/>
<polyline clip-path="url(#clip200)" style="stroke:#000000; stroke-linecap:round; stroke-linejoin:round; stroke-width:4; stroke-opacity:1; fill:none" points="669.71,1500.94 669.71,1482.04 "/>
<polyline clip-path="url(#clip200)" style="stroke:#000000; stroke-linecap:round; stroke-linejoin:round; stroke-width:4; stroke-opacity:1; fill:none" points="879.934,1500.94 879.934,1482.04 "/>
<polyline clip-path="url(#clip200)" style="stroke:#000000; stroke-linecap:round; stroke-linejoin:round; stroke-width:4; stroke-opacity:1; fill:none" points="1090.16,1500.94 1090.16,1482.04 "/>
<polyline clip-path="url(#clip200)" style="stroke:#000000; stroke-linecap:round; stroke-linejoin:round; stroke-width:4; stroke-opacity:1; fill:none" points="1300.38,1500.94 1300.38,1482.04 "/>
<polyline clip-path="url(#clip200)" style="stroke:#000000; stroke-linecap:round; stroke-linejoin:round; stroke-width:4; stroke-opacity:1; fill:none" points="1510.61,1500.94 1510.61,1482.04 "/>
<path clip-path="url(#clip200)" d="M249.262 1526.42 Q245.651 1526.42 243.822 1529.98 Q242.017 1533.52 242.017 1540.65 Q242.017 1547.76 243.822 1551.33 Q245.651 1554.87 249.262 1554.87 Q252.896 1554.87 254.702 1551.33 Q256.531 1547.76 256.531 1540.65 Q256.531 1533.52 254.702 1529.98 Q252.896 1526.42 249.262 1526.42 M249.262 1522.71 Q255.072 1522.71 258.128 1527.32 Q261.207 1531.9 261.207 1540.65 Q261.207 1549.38 258.128 1553.99 Q255.072 1558.57 249.262 1558.57 Q243.452 1558.57 240.373 1553.99 Q237.318 1549.38 237.318 1540.65 Q237.318 1531.9 240.373 1527.32 Q243.452 1522.71 249.262 1522.71 Z" fill="#000000" fill-rule="nonzero" fill-opacity="1" /><path clip-path="url(#clip200)" d="M449.868 1553.96 L457.507 1553.96 L457.507 1527.6 L449.197 1529.27 L449.197 1525.01 L457.461 1523.34 L462.136 1523.34 L462.136 1553.96 L469.775 1553.96 L469.775 1557.9 L449.868 1557.9 L449.868 1553.96 Z" fill="#000000" fill-rule="nonzero" fill-opacity="1" /><path clip-path="url(#clip200)" d="M664.363 1553.96 L680.682 1553.96 L680.682 1557.9 L658.738 1557.9 L658.738 1553.96 Q661.4 1551.21 665.983 1546.58 Q670.589 1541.93 671.77 1540.59 Q674.015 1538.06 674.895 1536.33 Q675.798 1534.57 675.798 1532.88 Q675.798 1530.12 673.853 1528.39 Q671.932 1526.65 668.83 1526.65 Q666.631 1526.65 664.177 1527.41 Q661.747 1528.18 658.969 1529.73 L658.969 1525.01 Q661.793 1523.87 664.247 1523.29 Q666.701 1522.71 668.738 1522.71 Q674.108 1522.71 677.302 1525.4 Q680.497 1528.09 680.497 1532.58 Q680.497 1534.71 679.687 1536.63 Q678.9 1538.52 676.793 1541.12 Q676.214 1541.79 673.113 1545.01 Q670.011 1548.2 664.363 1553.96 Z" fill="#000000" fill-rule="nonzero" fill-opacity="1" /><path clip-path="url(#clip200)" d="M884.181 1539.27 Q887.538 1539.98 889.413 1542.25 Q891.311 1544.52 891.311 1547.85 Q891.311 1552.97 887.792 1555.77 Q884.274 1558.57 877.792 1558.57 Q875.617 1558.57 873.302 1558.13 Q871.01 1557.71 868.556 1556.86 L868.556 1552.34 Q870.501 1553.48 872.816 1554.06 Q875.13 1554.64 877.654 1554.64 Q882.052 1554.64 884.343 1552.9 Q886.658 1551.16 886.658 1547.85 Q886.658 1544.8 884.505 1543.09 Q882.376 1541.35 878.556 1541.35 L874.529 1541.35 L874.529 1537.51 L878.742 1537.51 Q882.191 1537.51 884.019 1536.14 Q885.848 1534.75 885.848 1532.16 Q885.848 1529.5 883.95 1528.09 Q882.075 1526.65 878.556 1526.65 Q876.635 1526.65 874.436 1527.07 Q872.237 1527.48 869.598 1528.36 L869.598 1524.2 Q872.26 1523.46 874.575 1523.09 Q876.913 1522.71 878.973 1522.71 Q884.297 1522.71 887.399 1525.15 Q890.501 1527.55 890.501 1531.67 Q890.501 1534.54 888.857 1536.53 Q887.214 1538.5 884.181 1539.27 Z" fill="#000000" fill-rule="nonzero" fill-opacity="1" /><path clip-path="url(#clip200)" d="M1093.17 1527.41 L1081.36 1545.86 L1093.17 1545.86 L1093.17 1527.41 M1091.94 1523.34 L1097.82 1523.34 L1097.82 1545.86 L1102.75 1545.86 L1102.75 1549.75 L1097.82 1549.75 L1097.82 1557.9 L1093.17 1557.9 L1093.17 1549.75 L1077.56 1549.75 L1077.56 1545.24 L1091.94 1523.34 Z" fill="#000000" fill-rule="nonzero" fill-opacity="1" /><path clip-path="url(#clip200)" d="M1290.66 1523.34 L1309.02 1523.34 L1309.02 1527.28 L1294.94 1527.28 L1294.94 1535.75 Q1295.96 1535.4 1296.98 1535.24 Q1298 1535.05 1299.02 1535.05 Q1304.8 1535.05 1308.18 1538.22 Q1311.56 1541.4 1311.56 1546.81 Q1311.56 1552.39 1308.09 1555.49 Q1304.62 1558.57 1298.3 1558.57 Q1296.12 1558.57 1293.85 1558.2 Q1291.61 1557.83 1289.2 1557.09 L1289.2 1552.39 Q1291.28 1553.52 1293.51 1554.08 Q1295.73 1554.64 1298.21 1554.64 Q1302.21 1554.64 1304.55 1552.53 Q1306.89 1550.42 1306.89 1546.81 Q1306.89 1543.2 1304.55 1541.09 Q1302.21 1538.99 1298.21 1538.99 Q1296.33 1538.99 1294.46 1539.4 Q1292.6 1539.82 1290.66 1540.7 L1290.66 1523.34 Z" fill="#000000" fill-rule="nonzero" fill-opacity="1" /><path clip-path="url(#clip200)" d="M1511.01 1538.76 Q1507.86 1538.76 1506.01 1540.91 Q1504.18 1543.06 1504.18 1546.81 Q1504.18 1550.54 1506.01 1552.71 Q1507.86 1554.87 1511.01 1554.87 Q1514.16 1554.87 1515.99 1552.71 Q1517.84 1550.54 1517.84 1546.81 Q1517.84 1543.06 1515.99 1540.91 Q1514.16 1538.76 1511.01 1538.76 M1520.29 1524.1 L1520.29 1528.36 Q1518.53 1527.53 1516.73 1527.09 Q1514.95 1526.65 1513.19 1526.65 Q1508.56 1526.65 1506.1 1529.77 Q1503.67 1532.9 1503.33 1539.22 Q1504.69 1537.21 1506.75 1536.14 Q1508.81 1535.05 1511.29 1535.05 Q1516.5 1535.05 1519.51 1538.22 Q1522.54 1541.37 1522.54 1546.81 Q1522.54 1552.14 1519.39 1555.35 Q1516.24 1558.57 1511.01 1558.57 Q1505.01 1558.57 1501.84 1553.99 Q1498.67 1549.38 1498.67 1540.65 Q1498.67 1532.46 1502.56 1527.6 Q1506.45 1522.71 1513 1522.71 Q1514.76 1522.71 1516.54 1523.06 Q1518.35 1523.41 1520.29 1524.1 Z" fill="#000000" fill-rule="nonzero" fill-opacity="1" /><path clip-path="url(#clip200)" d="M919.821 1613.01 L899.547 1613.01 Q900.024 1622.52 902.22 1626.56 Q904.957 1631.53 909.7 1631.53 Q914.474 1631.53 917.116 1626.53 Q919.439 1622.14 919.821 1613.01 M919.726 1607.59 Q918.835 1598.56 917.116 1595.37 Q914.379 1590.34 909.7 1590.34 Q904.83 1590.34 902.252 1595.31 Q900.215 1599.32 899.61 1607.59 L919.726 1607.59 M909.7 1585.57 Q917.339 1585.57 921.699 1592.32 Q926.06 1599.03 926.06 1610.94 Q926.06 1622.81 921.699 1629.56 Q917.339 1636.34 909.7 1636.34 Q902.029 1636.34 897.7 1629.56 Q893.34 1622.81 893.34 1610.94 Q893.34 1599.03 897.7 1592.32 Q902.029 1585.57 909.7 1585.57 Z" fill="#000000" fill-rule="nonzero" fill-opacity="1" /><polyline clip-path="url(#clip202)" style="stroke:#000000; stroke-linecap:round; stroke-linejoin:round; stroke-width:2; stroke-opacity:0.1; fill:none" points="209.636,1289.61 1609.76,1289.61 "/>
<polyline clip-path="url(#clip202)" style="stroke:#000000; stroke-linecap:round; stroke-linejoin:round; stroke-width:2; stroke-opacity:0.1; fill:none" points="209.636,892.609 1609.76,892.609 "/>
<polyline clip-path="url(#clip202)" style="stroke:#000000; stroke-linecap:round; stroke-linejoin:round; stroke-width:2; stroke-opacity:0.1; fill:none" points="209.636,495.607 1609.76,495.607 "/>
<polyline clip-path="url(#clip202)" style="stroke:#000000; stroke-linecap:round; stroke-linejoin:round; stroke-width:2; stroke-opacity:0.1; fill:none" points="209.636,98.6053 1609.76,98.6053 "/>
<polyline clip-path="url(#clip200)" style="stroke:#000000; stroke-linecap:round; stroke-linejoin:round; stroke-width:4; stroke-opacity:1; fill:none" points="209.636,1500.94 209.636,47.2441 "/>
<polyline clip-path="url(#clip200)" style="stroke:#000000; stroke-linecap:round; stroke-linejoin:round; stroke-width:4; stroke-opacity:1; fill:none" points="209.636,1289.61 228.534,1289.61 "/>
<polyline clip-path="url(#clip200)" style="stroke:#000000; stroke-linecap:round; stroke-linejoin:round; stroke-width:4; stroke-opacity:1; fill:none" points="209.636,892.609 228.534,892.609 "/>
<polyline clip-path="url(#clip200)" style="stroke:#000000; stroke-linecap:round; stroke-linejoin:round; stroke-width:4; stroke-opacity:1; fill:none" points="209.636,495.607 228.534,495.607 "/>
<polyline clip-path="url(#clip200)" style="stroke:#000000; stroke-linecap:round; stroke-linejoin:round; stroke-width:4; stroke-opacity:1; fill:none" points="209.636,98.6053 228.534,98.6053 "/>
<path clip-path="url(#clip200)" d="M67.3319 1275.41 Q63.7208 1275.41 61.8921 1278.97 Q60.0865 1282.52 60.0865 1289.65 Q60.0865 1296.75 61.8921 1300.32 Q63.7208 1303.86 67.3319 1303.86 Q70.9661 1303.86 72.7717 1300.32 Q74.6004 1296.75 74.6004 1289.65 Q74.6004 1282.52 72.7717 1278.97 Q70.9661 1275.41 67.3319 1275.41 M67.3319 1271.71 Q73.142 1271.71 76.1976 1276.31 Q79.2763 1280.9 79.2763 1289.65 Q79.2763 1298.37 76.1976 1302.98 Q73.142 1307.56 67.3319 1307.56 Q61.5217 1307.56 58.443 1302.98 Q55.3875 1298.37 55.3875 1289.65 Q55.3875 1280.9 58.443 1276.31 Q61.5217 1271.71 67.3319 1271.71 Z" fill="#000000" fill-rule="nonzero" fill-opacity="1" /><path clip-path="url(#clip200)" d="M87.4938 1301.01 L92.378 1301.01 L92.378 1306.89 L87.4938 1306.89 L87.4938 1301.01 Z" fill="#000000" fill-rule="nonzero" fill-opacity="1" /><path clip-path="url(#clip200)" d="M112.563 1275.41 Q108.952 1275.41 107.123 1278.97 Q105.318 1282.52 105.318 1289.65 Q105.318 1296.75 107.123 1300.32 Q108.952 1303.86 112.563 1303.86 Q116.197 1303.86 118.003 1300.32 Q119.832 1296.75 119.832 1289.65 Q119.832 1282.52 118.003 1278.97 Q116.197 1275.41 112.563 1275.41 M112.563 1271.71 Q118.373 1271.71 121.429 1276.31 Q124.507 1280.9 124.507 1289.65 Q124.507 1298.37 121.429 1302.98 Q118.373 1307.56 112.563 1307.56 Q106.753 1307.56 103.674 1302.98 Q100.619 1298.37 100.619 1289.65 Q100.619 1280.9 103.674 1276.31 Q106.753 1271.71 112.563 1271.71 Z" fill="#000000" fill-rule="nonzero" fill-opacity="1" /><path clip-path="url(#clip200)" d="M142.725 1275.41 Q139.114 1275.41 137.285 1278.97 Q135.48 1282.52 135.48 1289.65 Q135.48 1296.75 137.285 1300.32 Q139.114 1303.86 142.725 1303.86 Q146.359 1303.86 148.165 1300.32 Q149.993 1296.75 149.993 1289.65 Q149.993 1282.52 148.165 1278.97 Q146.359 1275.41 142.725 1275.41 M142.725 1271.71 Q148.535 1271.71 151.591 1276.31 Q154.669 1280.9 154.669 1289.65 Q154.669 1298.37 151.591 1302.98 Q148.535 1307.56 142.725 1307.56 Q136.915 1307.56 133.836 1302.98 Q130.781 1298.37 130.781 1289.65 Q130.781 1280.9 133.836 1276.31 Q136.915 1271.71 142.725 1271.71 Z" fill="#000000" fill-rule="nonzero" fill-opacity="1" /><path clip-path="url(#clip200)" d="M162.933 1272.33 L181.29 1272.33 L181.29 1276.27 L167.216 1276.27 L167.216 1284.74 Q168.234 1284.39 169.253 1284.23 Q170.271 1284.04 171.29 1284.04 Q177.077 1284.04 180.456 1287.22 Q183.836 1290.39 183.836 1295.8 Q183.836 1301.38 180.364 1304.48 Q176.891 1307.56 170.572 1307.56 Q168.396 1307.56 166.128 1307.19 Q163.882 1306.82 161.475 1306.08 L161.475 1301.38 Q163.558 1302.52 165.78 1303.07 Q168.003 1303.63 170.479 1303.63 Q174.484 1303.63 176.822 1301.52 Q179.16 1299.41 179.16 1295.8 Q179.16 1292.19 176.822 1290.09 Q174.484 1287.98 170.479 1287.98 Q168.604 1287.98 166.729 1288.4 Q164.878 1288.81 162.933 1289.69 L162.933 1272.33 Z" fill="#000000" fill-rule="nonzero" fill-opacity="1" /><path clip-path="url(#clip200)" d="M66.3365 878.408 Q62.7254 878.408 60.8967 881.973 Q59.0912 885.515 59.0912 892.644 Q59.0912 899.751 60.8967 903.315 Q62.7254 906.857 66.3365 906.857 Q69.9707 906.857 71.7763 903.315 Q73.605 899.751 73.605 892.644 Q73.605 885.515 71.7763 881.973 Q69.9707 878.408 66.3365 878.408 M66.3365 874.704 Q72.1467 874.704 75.2022 879.311 Q78.2809 883.894 78.2809 892.644 Q78.2809 901.371 75.2022 905.977 Q72.1467 910.561 66.3365 910.561 Q60.5264 910.561 57.4477 905.977 Q54.3921 901.371 54.3921 892.644 Q54.3921 883.894 57.4477 879.311 Q60.5264 874.704 66.3365 874.704 Z" fill="#000000" fill-rule="nonzero" fill-opacity="1" /><path clip-path="url(#clip200)" d="M86.4984 904.01 L91.3827 904.01 L91.3827 909.889 L86.4984 909.889 L86.4984 904.01 Z" fill="#000000" fill-rule="nonzero" fill-opacity="1" /><path clip-path="url(#clip200)" d="M111.568 878.408 Q107.957 878.408 106.128 881.973 Q104.322 885.515 104.322 892.644 Q104.322 899.751 106.128 903.315 Q107.957 906.857 111.568 906.857 Q115.202 906.857 117.008 903.315 Q118.836 899.751 118.836 892.644 Q118.836 885.515 117.008 881.973 Q115.202 878.408 111.568 878.408 M111.568 874.704 Q117.378 874.704 120.433 879.311 Q123.512 883.894 123.512 892.644 Q123.512 901.371 120.433 905.977 Q117.378 910.561 111.568 910.561 Q105.758 910.561 102.679 905.977 Q99.6234 901.371 99.6234 892.644 Q99.6234 883.894 102.679 879.311 Q105.758 874.704 111.568 874.704 Z" fill="#000000" fill-rule="nonzero" fill-opacity="1" /><path clip-path="url(#clip200)" d="M132.54 905.954 L140.179 905.954 L140.179 879.589 L131.869 881.255 L131.869 876.996 L140.132 875.329 L144.808 875.329 L144.808 905.954 L152.447 905.954 L152.447 909.889 L132.54 909.889 L132.54 905.954 Z" fill="#000000" fill-rule="nonzero" fill-opacity="1" /><path clip-path="url(#clip200)" d="M171.891 878.408 Q168.28 878.408 166.452 881.973 Q164.646 885.515 164.646 892.644 Q164.646 899.751 166.452 903.315 Q168.28 906.857 171.891 906.857 Q175.526 906.857 177.331 903.315 Q179.16 899.751 179.16 892.644 Q179.16 885.515 177.331 881.973 Q175.526 878.408 171.891 878.408 M171.891 874.704 Q177.702 874.704 180.757 879.311 Q183.836 883.894 183.836 892.644 Q183.836 901.371 180.757 905.977 Q177.702 910.561 171.891 910.561 Q166.081 910.561 163.003 905.977 Q159.947 901.371 159.947 892.644 Q159.947 883.894 163.003 879.311 Q166.081 874.704 171.891 874.704 Z" fill="#000000" fill-rule="nonzero" fill-opacity="1" /><path clip-path="url(#clip200)" d="M67.3319 481.406 Q63.7208 481.406 61.8921 484.971 Q60.0865 488.513 60.0865 495.642 Q60.0865 502.749 61.8921 506.313 Q63.7208 509.855 67.3319 509.855 Q70.9661 509.855 72.7717 506.313 Q74.6004 502.749 74.6004 495.642 Q74.6004 488.513 72.7717 484.971 Q70.9661 481.406 67.3319 481.406 M67.3319 477.702 Q73.142 477.702 76.1976 482.309 Q79.2763 486.892 79.2763 495.642 Q79.2763 504.369 76.1976 508.975 Q73.142 513.559 67.3319 513.559 Q61.5217 513.559 58.443 508.975 Q55.3875 504.369 55.3875 495.642 Q55.3875 486.892 58.443 482.309 Q61.5217 477.702 67.3319 477.702 Z" fill="#000000" fill-rule="nonzero" fill-opacity="1" /><path clip-path="url(#clip200)" d="M87.4938 507.008 L92.378 507.008 L92.378 512.887 L87.4938 512.887 L87.4938 507.008 Z" fill="#000000" fill-rule="nonzero" fill-opacity="1" /><path clip-path="url(#clip200)" d="M112.563 481.406 Q108.952 481.406 107.123 484.971 Q105.318 488.513 105.318 495.642 Q105.318 502.749 107.123 506.313 Q108.952 509.855 112.563 509.855 Q116.197 509.855 118.003 506.313 Q119.832 502.749 119.832 495.642 Q119.832 488.513 118.003 484.971 Q116.197 481.406 112.563 481.406 M112.563 477.702 Q118.373 477.702 121.429 482.309 Q124.507 486.892 124.507 495.642 Q124.507 504.369 121.429 508.975 Q118.373 513.559 112.563 513.559 Q106.753 513.559 103.674 508.975 Q100.619 504.369 100.619 495.642 Q100.619 486.892 103.674 482.309 Q106.753 477.702 112.563 477.702 Z" fill="#000000" fill-rule="nonzero" fill-opacity="1" /><path clip-path="url(#clip200)" d="M133.535 508.952 L141.174 508.952 L141.174 482.587 L132.864 484.253 L132.864 479.994 L141.128 478.327 L145.804 478.327 L145.804 508.952 L153.443 508.952 L153.443 512.887 L133.535 512.887 L133.535 508.952 Z" fill="#000000" fill-rule="nonzero" fill-opacity="1" /><path clip-path="url(#clip200)" d="M162.933 478.327 L181.29 478.327 L181.29 482.263 L167.216 482.263 L167.216 490.735 Q168.234 490.387 169.253 490.225 Q170.271 490.04 171.29 490.04 Q177.077 490.04 180.456 493.212 Q183.836 496.383 183.836 501.799 Q183.836 507.378 180.364 510.48 Q176.891 513.559 170.572 513.559 Q168.396 513.559 166.128 513.188 Q163.882 512.818 161.475 512.077 L161.475 507.378 Q163.558 508.512 165.78 509.068 Q168.003 509.623 170.479 509.623 Q174.484 509.623 176.822 507.517 Q179.16 505.411 179.16 501.799 Q179.16 498.188 176.822 496.082 Q174.484 493.975 170.479 493.975 Q168.604 493.975 166.729 494.392 Q164.878 494.809 162.933 495.688 L162.933 478.327 Z" fill="#000000" fill-rule="nonzero" fill-opacity="1" /><path clip-path="url(#clip200)" d="M66.3365 84.404 Q62.7254 84.404 60.8967 87.9688 Q59.0912 91.5105 59.0912 98.6401 Q59.0912 105.747 60.8967 109.311 Q62.7254 112.853 66.3365 112.853 Q69.9707 112.853 71.7763 109.311 Q73.605 105.747 73.605 98.6401 Q73.605 91.5105 71.7763 87.9688 Q69.9707 84.404 66.3365 84.404 M66.3365 80.7003 Q72.1467 80.7003 75.2022 85.3068 Q78.2809 89.8901 78.2809 98.6401 Q78.2809 107.367 75.2022 111.973 Q72.1467 116.557 66.3365 116.557 Q60.5264 116.557 57.4477 111.973 Q54.3921 107.367 54.3921 98.6401 Q54.3921 89.8901 57.4477 85.3068 Q60.5264 80.7003 66.3365 80.7003 Z" fill="#000000" fill-rule="nonzero" fill-opacity="1" /><path clip-path="url(#clip200)" d="M86.4984 110.006 L91.3827 110.006 L91.3827 115.885 L86.4984 115.885 L86.4984 110.006 Z" fill="#000000" fill-rule="nonzero" fill-opacity="1" /><path clip-path="url(#clip200)" d="M111.568 84.404 Q107.957 84.404 106.128 87.9688 Q104.322 91.5105 104.322 98.6401 Q104.322 105.747 106.128 109.311 Q107.957 112.853 111.568 112.853 Q115.202 112.853 117.008 109.311 Q118.836 105.747 118.836 98.6401 Q118.836 91.5105 117.008 87.9688 Q115.202 84.404 111.568 84.404 M111.568 80.7003 Q117.378 80.7003 120.433 85.3068 Q123.512 89.8901 123.512 98.6401 Q123.512 107.367 120.433 111.973 Q117.378 116.557 111.568 116.557 Q105.758 116.557 102.679 111.973 Q99.6234 107.367 99.6234 98.6401 Q99.6234 89.8901 102.679 85.3068 Q105.758 80.7003 111.568 80.7003 Z" fill="#000000" fill-rule="nonzero" fill-opacity="1" /><path clip-path="url(#clip200)" d="M135.757 111.95 L152.077 111.95 L152.077 115.885 L130.132 115.885 L130.132 111.95 Q132.794 109.196 137.378 104.566 Q141.984 99.9132 143.165 98.5706 Q145.41 96.0475 146.29 94.3114 Q147.193 92.5521 147.193 90.8623 Q147.193 88.1077 145.248 86.3716 Q143.327 84.6355 140.225 84.6355 Q138.026 84.6355 135.572 85.3994 Q133.142 86.1633 130.364 87.7142 L130.364 82.992 Q133.188 81.8577 135.642 81.279 Q138.095 80.7003 140.132 80.7003 Q145.503 80.7003 148.697 83.3855 Q151.892 86.0707 151.892 90.5614 Q151.892 92.691 151.081 94.6123 Q150.294 96.5104 148.188 99.103 Q147.609 99.7743 144.507 102.992 Q141.406 106.186 135.757 111.95 Z" fill="#000000" fill-rule="nonzero" fill-opacity="1" /><path clip-path="url(#clip200)" d="M171.891 84.404 Q168.28 84.404 166.452 87.9688 Q164.646 91.5105 164.646 98.6401 Q164.646 105.747 166.452 109.311 Q168.28 112.853 171.891 112.853 Q175.526 112.853 177.331 109.311 Q179.16 105.747 179.16 98.6401 Q179.16 91.5105 177.331 87.9688 Q175.526 84.404 171.891 84.404 M171.891 80.7003 Q177.702 80.7003 180.757 85.3068 Q183.836 89.8901 183.836 98.6401 Q183.836 107.367 180.757 111.973 Q177.702 116.557 171.891 116.557 Q166.081 116.557 163.003 111.973 Q159.947 107.367 159.947 98.6401 Q159.947 89.8901 163.003 85.3068 Q166.081 80.7003 171.891 80.7003 Z" fill="#000000" fill-rule="nonzero" fill-opacity="1" /><polyline clip-path="url(#clip202)" style="stroke:#009af9; stroke-linecap:round; stroke-linejoin:round; stroke-width:4; stroke-opacity:1; fill:none" points="249.262,1082.37 250.915,1083.25 252.568,1084.02 254.222,1084.69 255.875,1085.23 257.528,1085.63 259.181,1085.89 260.834,1086 262.487,1085.94 264.141,1085.69 265.794,1085.26 267.447,1084.64 269.1,1083.8 270.753,1082.75 272.406,1081.47 274.06,1079.96 275.713,1078.2 277.366,1076.2 279.019,1073.95 280.672,1071.43 282.325,1068.65 283.979,1065.59 285.632,1062.27 287.285,1058.66 288.938,1054.77 290.591,1050.6 292.244,1046.15 293.897,1041.41 295.551,1036.38 297.204,1031.07 298.857,1025.47 300.51,1019.58 302.163,1013.42 303.816,1006.97 305.47,1000.25 307.123,993.246 308.776,985.976 310.429,978.439 312.082,970.639 313.735,962.582 315.389,954.273 317.042,945.717 318.695,936.92 320.348,927.888 322.001,918.627 323.654,909.145 325.308,899.448 326.961,889.542 328.614,879.436 330.267,869.136 331.92,858.651 333.573,847.986 335.226,837.151 336.88,826.153 338.533,815 340.186,803.699 341.839,792.259 343.492,780.687 345.145,768.992 346.799,757.181 348.452,745.263 350.105,733.245 351.758,721.136 353.411,708.943 355.064,696.674 356.718,684.337 358.371,671.941 360.024,659.493 361.677,647 363.33,634.471 364.983,621.914 366.637,609.336 368.29,596.745 369.943,584.148 371.596,571.555 373.249,558.971 374.902,546.405 376.556,533.865 378.209,521.357 379.862,508.891 381.515,496.473 383.168,484.11 384.821,471.811 386.474,459.583 388.128,447.433 389.781,435.369 391.434,423.399 393.087,411.529 394.74,399.768 396.393,388.122 398.047,376.6 399.7,365.207 401.353,353.952 403.006,342.843 404.659,331.885 406.312,321.086 407.966,310.454 409.619,299.995 411.272,289.716 412.925,279.625 414.578,269.727 416.231,260.03 417.885,250.541 419.538,241.266 421.191,232.211 422.844,223.382 424.497,214.787 426.15,206.43 427.803,198.319 429.457,190.458 431.11,182.853 432.763,175.509 434.416,168.433 436.069,161.629 437.722,155.102 439.376,148.857 441.029,142.898 442.682,137.229 444.335,131.855 445.988,126.78 447.641,122.007 449.295,117.54 450.948,113.382 452.601,109.535 454.254,106.003 455.907,102.788 457.56,99.8922 459.214,97.3173 460.867,95.0651 462.52,93.137 464.173,91.5341 465.826,90.2571 467.479,89.3067 469.133,88.6832 470.786,88.3864 472.439,88.4162 474.092,88.772 475.745,89.4529 477.398,90.4579 479.051,91.7855 480.705,93.434 482.358,95.4017 484.011,97.6861 485.664,100.285 487.317,103.196 488.97,106.415 490.624,109.94 492.277,113.767 493.93,117.892 495.583,122.311 497.236,127.021 498.889,132.017 500.543,137.295 502.196,142.849 503.849,148.674 505.502,154.766 507.155,161.12 508.808,167.729 510.462,174.588 512.115,181.692 513.768,189.034 515.421,196.608 517.074,204.409 518.727,212.43 520.38,220.664 522.034,229.105 523.687,237.747 525.34,246.583 526.993,255.606 528.646,264.81 530.299,274.187 531.953,283.732 533.606,293.436 535.259,303.295 536.912,313.299 538.565,323.443 540.218,333.721 541.872,344.124 543.525,354.646 545.178,365.281 546.831,376.022 548.484,386.862 550.137,397.794 551.791,408.813 553.444,419.911 555.097,431.082 556.75,442.32 558.403,453.619 560.056,464.972 561.71,476.374 563.363,487.818 565.016,499.299 566.669,510.811 568.322,522.349 569.975,533.906 571.628,545.478 573.282,557.059 574.935,568.644 576.588,580.229 578.241,591.807 579.894,603.375 581.547,614.928 583.201,626.462 584.854,637.971 586.507,649.452 588.16,660.901 589.813,672.314 591.466,683.687 593.12,695.015 594.773,706.297 596.426,717.528 598.079,728.705 599.732,739.825 601.385,750.884 603.039,761.881 604.692,772.811 606.345,783.673 607.998,794.464 609.651,805.182 611.304,815.824 612.957,826.387 614.611,836.871 616.264,847.273 617.917,857.591 619.57,867.824 621.223,877.969 622.876,888.026 624.53,897.993 626.183,907.868 627.836,917.651 629.489,927.34 631.142,936.935 632.795,946.433 634.449,955.835 636.102,965.14 637.755,974.347 639.408,983.455 641.061,992.463 642.714,1001.37 644.368,1010.18 646.021,1018.89 647.674,1027.5 649.327,1036 650.98,1044.41 652.633,1052.71 654.287,1060.91 655.94,1069.01 657.593,1077.01 659.246,1084.91 660.899,1092.71 662.552,1100.41 664.205,1108 665.859,1115.5 667.512,1122.89 669.165,1130.18 670.818,1137.38 672.471,1144.48 674.124,1151.47 675.778,1158.37 677.431,1165.17 679.084,1171.88 680.737,1178.48 682.39,1184.99 684.043,1191.41 685.697,1197.73 687.35,1203.95 689.003,1210.08 690.656,1216.12 692.309,1222.06 693.962,1227.92 695.616,1233.68 697.269,1239.35 698.922,1244.93 700.575,1250.42 702.228,1255.82 703.881,1261.14 705.534,1266.37 707.188,1271.51 708.841,1276.57 710.494,1281.54 712.147,1286.42 713.8,1291.23 715.453,1295.95 717.107,1300.59 718.76,1305.15 720.413,1309.63 722.066,1314.03 723.719,1318.36 725.372,1322.6 727.026,1326.77 728.679,1330.86 730.332,1334.88 731.985,1338.82 733.638,1342.7 735.291,1346.49 736.945,1350.22 738.598,1353.88 740.251,1357.47 741.904,1360.98 743.557,1364.43 745.21,1367.82 746.864,1371.13 748.517,1374.38 750.17,1377.57 751.823,1380.69 753.476,1383.75 755.129,1386.74 756.782,1389.68 758.436,1392.55 760.089,1395.36 761.742,1398.11 763.395,1400.81 765.048,1403.44 766.701,1406.02 768.355,1408.54 770.008,1411 771.661,1413.4 773.314,1415.75 774.967,1418.04 776.62,1420.28 778.274,1422.46 779.927,1424.59 781.58,1426.66 783.233,1428.67 784.886,1430.63 786.539,1432.54 788.193,1434.39 789.846,1436.18 791.499,1437.92 793.152,1439.6 794.805,1441.22 796.458,1442.78 798.111,1444.28 799.765,1445.73 801.418,1447.11 803.071,1448.43 804.724,1449.68 806.377,1450.88 808.03,1452 809.684,1453.06 811.337,1454.05 812.99,1454.97 814.643,1455.81 816.296,1456.58 817.949,1457.27 819.603,1457.89 821.256,1458.42 822.909,1458.87 824.562,1459.24 826.215,1459.52 827.868,1459.7 829.522,1459.8 831.175,1459.8 832.828,1459.7 834.481,1459.5 836.134,1459.2 837.787,1458.8 839.44,1458.29 841.094,1457.67 842.747,1456.94 844.4,1456.1 846.053,1455.14 847.706,1454.07 849.359,1452.88 851.013,1451.57 852.666,1450.13 854.319,1448.58 855.972,1446.9 857.625,1445.09 859.278,1443.17 860.932,1441.11 862.585,1438.94 864.238,1436.64 865.891,1434.21 867.544,1431.66 869.197,1429 870.851,1426.21 872.504,1423.3 874.157,1420.28 875.81,1417.15 877.463,1413.9 879.116,1410.55 880.77,1407.1 882.423,1403.54 884.076,1399.89 885.729,1396.15 887.382,1392.33 889.035,1388.42 890.688,1384.44 892.342,1380.39 893.995,1376.27 895.648,1372.1 897.301,1367.87 898.954,1363.61 900.607,1359.3 902.261,1354.96 903.914,1350.6 905.567,1346.22 907.22,1341.83 908.873,1337.44 910.526,1333.05 912.18,1328.68 913.833,1324.32 915.486,1319.99 917.139,1315.69 918.792,1311.43 920.445,1307.22 922.099,1303.06 923.752,1298.96 925.405,1294.92 927.058,1290.96 928.711,1287.08 930.364,1283.27 932.017,1279.56 933.671,1275.94 935.324,1272.41 936.977,1268.99 938.63,1265.67 940.283,1262.46 941.936,1259.37 943.59,1256.38 945.243,1253.52 946.896,1250.77 948.549,1248.15 950.202,1245.65 951.855,1243.27 953.509,1241.01 955.162,1238.88 956.815,1236.88 958.468,1234.99 960.121,1233.24 961.774,1231.6 963.428,1230.08 965.081,1228.69 966.734,1227.41 968.387,1226.25 970.04,1225.2 971.693,1224.27 973.347,1223.44 975,1222.72 976.653,1222.1 978.306,1221.59 979.959,1221.16 981.612,1220.84 983.265,1220.6 984.919,1220.45 986.572,1220.38 988.225,1220.4 989.878,1220.48 991.531,1220.65 993.184,1220.87 994.838,1221.17 996.491,1221.53 998.144,1221.94 999.797,1222.41 1001.45,1222.93 1003.1,1223.5 1004.76,1224.12 1006.41,1224.77 1008.06,1225.47 1009.72,1226.2 1011.37,1226.96 1013.02,1227.75 1014.68,1228.56 1016.33,1229.41 1017.98,1230.27 1019.64,1231.15 1021.29,1232.05 1022.94,1232.96 1024.59,1233.89 1026.25,1234.82 1027.9,1235.76 1029.55,1236.71 1031.21,1237.67 1032.86,1238.63 1034.51,1239.59 1036.17,1240.54 1037.82,1241.5 1039.47,1242.46 1041.13,1243.41 1042.78,1244.35 1044.43,1245.29 1046.09,1246.22 1047.74,1247.15 1049.39,1248.06 1051.05,1248.97 1052.7,1249.86 1054.35,1250.75 1056,1251.62 1057.66,1252.48 1059.31,1253.33 1060.96,1254.16 1062.62,1254.98 1064.27,1255.78 1065.92,1256.57 1067.58,1257.35 1069.23,1258.11 1070.88,1258.85 1072.54,1259.58 1074.19,1260.29 1075.84,1260.99 1077.5,1261.67 1079.15,1262.33 1080.8,1262.98 1082.46,1263.61 1084.11,1264.22 1085.76,1264.81 1087.41,1265.39 1089.07,1265.95 1090.72,1266.49 1092.37,1267.01 1094.03,1267.52 1095.68,1268.01 1097.33,1268.47 1098.99,1268.93 1100.64,1269.36 1102.29,1269.77 1103.95,1270.17 1105.6,1270.55 1107.25,1270.91 1108.91,1271.25 1110.56,1271.57 1112.21,1271.88 1113.87,1272.16 1115.52,1272.43 1117.17,1272.68 1118.82,1272.91 1120.48,1273.12 1122.13,1273.31 1123.78,1273.48 1125.44,1273.63 1127.09,1273.76 1128.74,1273.87 1130.4,1273.97 1132.05,1274.04 1133.7,1274.09 1135.36,1274.12 1137.01,1274.13 1138.66,1274.13 1140.32,1274.1 1141.97,1274.04 1143.62,1273.97 1145.28,1273.88 1146.93,1273.76 1148.58,1273.62 1150.23,1273.46 1151.89,1273.28 1153.54,1273.08 1155.19,1272.85 1156.85,1272.59 1158.5,1272.32 1160.15,1272.01 1161.81,1271.69 1163.46,1271.33 1165.11,1270.95 1166.77,1270.55 1168.42,1270.12 1170.07,1269.65 1171.73,1269.17 1173.38,1268.65 1175.03,1268.1 1176.69,1267.52 1178.34,1266.91 1179.99,1266.27 1181.64,1265.59 1183.3,1264.88 1184.95,1264.14 1186.6,1263.35 1188.26,1262.54 1189.91,1261.68 1191.56,1260.78 1193.22,1259.84 1194.87,1258.86 1196.52,1257.84 1198.18,1256.77 1199.83,1255.65 1201.48,1254.49 1203.14,1253.27 1204.79,1252.01 1206.44,1250.69 1208.1,1249.31 1209.75,1247.88 1211.4,1246.39 1213.05,1244.83 1214.71,1243.22 1216.36,1241.54 1218.01,1239.79 1219.67,1237.97 1221.32,1236.07 1222.97,1234.11 1224.63,1232.07 1226.28,1229.94 1227.93,1227.74 1229.59,1225.45 1231.24,1223.08 1232.89,1220.62 1234.55,1218.06 1236.2,1215.42 1237.85,1212.68 1239.51,1209.84 1241.16,1206.9 1242.81,1203.87 1244.46,1200.73 1246.12,1197.48 1247.77,1194.13 1249.42,1190.67 1251.08,1187.1 1252.73,1183.42 1254.38,1179.64 1256.04,1175.74 1257.69,1171.73 1259.34,1167.61 1261,1163.38 1262.65,1159.04 1264.3,1154.59 1265.96,1150.04 1267.61,1145.38 1269.26,1140.61 1270.92,1135.75 1272.57,1130.78 1274.22,1125.73 1275.87,1120.58 1277.53,1115.35 1279.18,1110.03 1280.83,1104.64 1282.49,1099.18 1284.14,1093.65 1285.79,1088.07 1287.45,1082.43 1289.1,1076.75 1290.75,1071.04 1292.41,1065.3 1294.06,1059.54 1295.71,1053.77 1297.37,1048 1299.02,1042.25 1300.67,1036.51 1302.33,1030.8 1303.98,1025.14 1305.63,1019.53 1307.28,1013.98 1308.94,1008.51 1310.59,1003.13 1312.24,997.842 1313.9,992.666 1315.55,987.611 1317.2,982.689 1318.86,977.912 1320.51,973.289 1322.16,968.833 1323.82,964.554 1325.47,960.462 1327.12,956.568 1328.78,952.88 1330.43,949.409 1332.08,946.162 1333.74,943.148 1335.39,940.374 1337.04,937.848 1338.7,935.574 1340.35,933.56 1342,931.808 1343.65,930.325 1345.31,929.112 1346.96,928.172 1348.61,927.506 1350.27,927.116 1351.92,927.002 1353.57,927.161 1355.23,927.593 1356.88,928.294 1358.53,929.262 1360.19,930.491 1361.84,931.977 1363.49,933.714 1365.15,935.694 1366.8,937.911 1368.45,940.356 1370.11,943.02 1371.76,945.894 1373.41,948.968 1375.06,952.23 1376.72,955.671 1378.37,959.277 1380.02,963.037 1381.68,966.939 1383.33,970.969 1384.98,975.115 1386.64,979.363 1388.29,983.701 1389.94,988.114 1391.6,992.589 1393.25,997.113 1394.9,1001.67 1396.56,1006.25 1398.21,1010.84 1399.86,1015.42 1401.52,1019.99 1403.17,1024.53 1404.82,1029.02 1406.47,1033.47 1408.13,1037.84 1409.78,1042.14 1411.43,1046.36 1413.09,1050.48 1414.74,1054.49 1416.39,1058.39 1418.05,1062.16 1419.7,1065.81 1421.35,1069.32 1423.01,1072.68 1424.66,1075.89 1426.31,1078.95 1427.97,1081.85 1429.62,1084.59 1431.27,1087.15 1432.93,1089.55 1434.58,1091.78 1436.23,1093.83 1437.88,1095.7 1439.54,1097.4 1441.19,1098.93 1442.84,1100.28 1444.5,1101.46 1446.15,1102.46 1447.8,1103.3 1449.46,1103.97 1451.11,1104.48 1452.76,1104.82 1454.42,1105.01 1456.07,1105.05 1457.72,1104.94 1459.38,1104.7 1461.03,1104.31 1462.68,1103.8 1464.34,1103.16 1465.99,1102.4 1467.64,1101.53 1469.29,1100.56 1470.95,1099.49 1472.6,1098.34 1474.25,1097.1 1475.91,1095.78 1477.56,1094.4 1479.21,1092.96 1480.87,1091.47 1482.52,1089.94 1484.17,1088.37 1485.83,1086.78 1487.48,1085.17 1489.13,1083.55 1490.79,1081.92 1492.44,1080.3 1494.09,1078.7 1495.75,1077.12 1497.4,1075.56 1499.05,1074.04 1500.7,1072.56 1502.36,1071.14 1504.01,1069.77 1505.66,1068.46 1507.32,1067.22 1508.97,1066.06 1510.62,1064.98 1512.28,1063.98 1513.93,1063.07 1515.58,1062.26 1517.24,1061.54 1518.89,1060.92 1520.54,1060.41 1522.2,1060 1523.85,1059.7 1525.5,1059.5 1527.16,1059.42 1528.81,1059.44 1530.46,1059.57 1532.11,1059.81 1533.77,1060.15 1535.42,1060.59 1537.07,1061.13 1538.73,1061.76 1540.38,1062.48 1542.03,1063.29 1543.69,1064.17 1545.34,1065.13 1546.99,1066.16 1548.65,1067.24 1550.3,1068.37 1551.95,1069.54 1553.61,1070.75 1555.26,1071.98 1556.91,1073.22 1558.57,1074.47 1560.22,1075.71 1561.87,1076.93 1563.52,1078.12 1565.18,1079.28 1566.83,1080.38 1568.48,1081.41 1570.14,1082.37 "/>
<path clip-path="url(#clip200)" d="M737.436 199.381 L1563.09 199.381 L1563.09 95.7006 L737.436 95.7006  Z" fill="#ffffff" fill-rule="evenodd" fill-opacity="1"/>
<polyline clip-path="url(#clip200)" style="stroke:#000000; stroke-linecap:round; stroke-linejoin:round; stroke-width:4; stroke-opacity:1; fill:none" points="737.436,199.381 1563.09,199.381 1563.09,95.7006 737.436,95.7006 737.436,199.381 "/>
<polyline clip-path="url(#clip200)" style="stroke:#009af9; stroke-linecap:round; stroke-linejoin:round; stroke-width:4; stroke-opacity:1; fill:none" points="752.993,147.541 846.334,147.541 "/>
<path clip-path="url(#clip200)" d="M882.239 143.872 Q883.836 141.001 886.058 139.636 Q888.28 138.27 891.289 138.27 Q895.34 138.27 897.539 141.117 Q899.738 143.941 899.738 149.173 L899.738 164.821 L895.456 164.821 L895.456 149.311 Q895.456 145.585 894.137 143.779 Q892.817 141.974 890.109 141.974 Q886.799 141.974 884.877 144.173 Q882.956 146.372 882.956 150.168 L882.956 164.821 L878.674 164.821 L878.674 149.311 Q878.674 145.561 877.354 143.779 Q876.035 141.974 873.28 141.974 Q870.016 141.974 868.095 144.196 Q866.174 146.395 866.174 150.168 L866.174 164.821 L861.891 164.821 L861.891 138.895 L866.174 138.895 L866.174 142.923 Q867.632 140.538 869.669 139.404 Q871.706 138.27 874.507 138.27 Q877.331 138.27 879.299 139.705 Q881.289 141.14 882.239 143.872 Z" fill="#000000" fill-rule="nonzero" fill-opacity="1" /><path clip-path="url(#clip200)" d="M930.41 150.793 L930.41 152.876 L910.826 152.876 Q911.104 157.274 913.465 159.589 Q915.849 161.881 920.086 161.881 Q922.539 161.881 924.831 161.279 Q927.146 160.677 929.414 159.473 L929.414 163.501 Q927.123 164.473 924.715 164.983 Q922.308 165.492 919.831 165.492 Q913.627 165.492 909.993 161.881 Q906.382 158.27 906.382 152.112 Q906.382 145.747 909.808 142.02 Q913.257 138.27 919.09 138.27 Q924.322 138.27 927.354 141.649 Q930.41 145.006 930.41 150.793 M926.15 149.543 Q926.104 146.048 924.183 143.964 Q922.285 141.881 919.136 141.881 Q915.572 141.881 913.419 143.895 Q911.289 145.909 910.965 149.566 L926.15 149.543 Z" fill="#000000" fill-rule="nonzero" fill-opacity="1" /><path clip-path="url(#clip200)" d="M949.183 151.788 Q944.021 151.788 942.03 152.969 Q940.039 154.149 940.039 156.997 Q940.039 159.265 941.521 160.608 Q943.025 161.927 945.595 161.927 Q949.136 161.927 951.266 159.427 Q953.419 156.904 953.419 152.737 L953.419 151.788 L949.183 151.788 M957.678 150.029 L957.678 164.821 L953.419 164.821 L953.419 160.885 Q951.96 163.247 949.784 164.381 Q947.609 165.492 944.46 165.492 Q940.479 165.492 938.118 163.27 Q935.78 161.024 935.78 157.274 Q935.78 152.899 938.697 150.677 Q941.636 148.455 947.446 148.455 L953.419 148.455 L953.419 148.038 Q953.419 145.099 951.474 143.501 Q949.553 141.881 946.058 141.881 Q943.835 141.881 941.729 142.413 Q939.622 142.946 937.678 144.011 L937.678 140.075 Q940.016 139.173 942.215 138.733 Q944.414 138.27 946.497 138.27 Q952.122 138.27 954.9 141.186 Q957.678 144.103 957.678 150.029 Z" fill="#000000" fill-rule="nonzero" fill-opacity="1" /><path clip-path="url(#clip200)" d="M982.979 139.659 L982.979 143.686 Q981.173 142.761 979.229 142.298 Q977.284 141.835 975.201 141.835 Q972.03 141.835 970.432 142.807 Q968.858 143.779 968.858 145.723 Q968.858 147.205 969.993 148.061 Q971.127 148.895 974.553 149.659 L976.011 149.983 Q980.548 150.955 982.446 152.737 Q984.368 154.497 984.368 157.668 Q984.368 161.279 981.497 163.385 Q978.65 165.492 973.65 165.492 Q971.567 165.492 969.298 165.075 Q967.053 164.682 964.553 163.872 L964.553 159.473 Q966.914 160.7 969.206 161.325 Q971.497 161.927 973.743 161.927 Q976.752 161.927 978.372 160.909 Q979.993 159.867 979.993 157.992 Q979.993 156.256 978.812 155.33 Q977.655 154.404 973.696 153.548 L972.215 153.2 Q968.257 152.367 966.497 150.654 Q964.738 148.918 964.738 145.909 Q964.738 142.251 967.331 140.261 Q969.923 138.27 974.692 138.27 Q977.053 138.27 979.136 138.617 Q981.219 138.964 982.979 139.659 Z" fill="#000000" fill-rule="nonzero" fill-opacity="1" /><path clip-path="url(#clip200)" d="M990.71 154.589 L990.71 138.895 L994.969 138.895 L994.969 154.427 Q994.969 158.108 996.405 159.96 Q997.84 161.788 1000.71 161.788 Q1004.16 161.788 1006.15 159.589 Q1008.16 157.39 1008.16 153.594 L1008.16 138.895 L1012.42 138.895 L1012.42 164.821 L1008.16 164.821 L1008.16 160.839 Q1006.61 163.2 1004.55 164.358 Q1002.52 165.492 999.807 165.492 Q995.34 165.492 993.025 162.714 Q990.71 159.936 990.71 154.589 M1001.43 138.27 L1001.43 138.27 Z" fill="#000000" fill-rule="nonzero" fill-opacity="1" /><path clip-path="url(#clip200)" d="M1036.22 142.876 Q1035.5 142.46 1034.65 142.274 Q1033.81 142.066 1032.79 142.066 Q1029.18 142.066 1027.24 144.427 Q1025.32 146.765 1025.32 151.163 L1025.32 164.821 L1021.03 164.821 L1021.03 138.895 L1025.32 138.895 L1025.32 142.923 Q1026.66 140.561 1028.81 139.427 Q1030.96 138.27 1034.04 138.27 Q1034.48 138.27 1035.02 138.339 Q1035.55 138.386 1036.2 138.501 L1036.22 142.876 Z" fill="#000000" fill-rule="nonzero" fill-opacity="1" /><path clip-path="url(#clip200)" d="M1061.82 150.793 L1061.82 152.876 L1042.24 152.876 Q1042.52 157.274 1044.88 159.589 Q1047.26 161.881 1051.5 161.881 Q1053.95 161.881 1056.24 161.279 Q1058.56 160.677 1060.83 159.473 L1060.83 163.501 Q1058.53 164.473 1056.13 164.983 Q1053.72 165.492 1051.24 165.492 Q1045.04 165.492 1041.4 161.881 Q1037.79 158.27 1037.79 152.112 Q1037.79 145.747 1041.22 142.02 Q1044.67 138.27 1050.5 138.27 Q1055.73 138.27 1058.77 141.649 Q1061.82 145.006 1061.82 150.793 M1057.56 149.543 Q1057.52 146.048 1055.59 143.964 Q1053.7 141.881 1050.55 141.881 Q1046.98 141.881 1044.83 143.895 Q1042.7 145.909 1042.38 149.566 L1057.56 149.543 Z" fill="#000000" fill-rule="nonzero" fill-opacity="1" /><path clip-path="url(#clip200)" d="M1089 143.872 Q1090.59 141.001 1092.82 139.636 Q1095.04 138.27 1098.05 138.27 Q1102.1 138.27 1104.3 141.117 Q1106.5 143.941 1106.5 149.173 L1106.5 164.821 L1102.21 164.821 L1102.21 149.311 Q1102.21 145.585 1100.89 143.779 Q1099.58 141.974 1096.87 141.974 Q1093.56 141.974 1091.64 144.173 Q1089.71 146.372 1089.71 150.168 L1089.71 164.821 L1085.43 164.821 L1085.43 149.311 Q1085.43 145.561 1084.11 143.779 Q1082.79 141.974 1080.04 141.974 Q1076.77 141.974 1074.85 144.196 Q1072.93 146.395 1072.93 150.168 L1072.93 164.821 L1068.65 164.821 L1068.65 138.895 L1072.93 138.895 L1072.93 142.923 Q1074.39 140.538 1076.43 139.404 Q1078.46 138.27 1081.27 138.27 Q1084.09 138.27 1086.06 139.705 Q1088.05 141.14 1089 143.872 Z" fill="#000000" fill-rule="nonzero" fill-opacity="1" /><path clip-path="url(#clip200)" d="M1137.17 150.793 L1137.17 152.876 L1117.58 152.876 Q1117.86 157.274 1120.22 159.589 Q1122.61 161.881 1126.84 161.881 Q1129.3 161.881 1131.59 161.279 Q1133.9 160.677 1136.17 159.473 L1136.17 163.501 Q1133.88 164.473 1131.47 164.983 Q1129.07 165.492 1126.59 165.492 Q1120.39 165.492 1116.75 161.881 Q1113.14 158.27 1113.14 152.112 Q1113.14 145.747 1116.57 142.02 Q1120.02 138.27 1125.85 138.27 Q1131.08 138.27 1134.11 141.649 Q1137.17 145.006 1137.17 150.793 M1132.91 149.543 Q1132.86 146.048 1130.94 143.964 Q1129.04 141.881 1125.89 141.881 Q1122.33 141.881 1120.18 143.895 Q1118.05 145.909 1117.72 149.566 L1132.91 149.543 Z" fill="#000000" fill-rule="nonzero" fill-opacity="1" /><path clip-path="url(#clip200)" d="M1165.71 149.173 L1165.71 164.821 L1161.45 164.821 L1161.45 149.311 Q1161.45 145.631 1160.01 143.802 Q1158.58 141.974 1155.71 141.974 Q1152.26 141.974 1150.27 144.173 Q1148.28 146.372 1148.28 150.168 L1148.28 164.821 L1144 164.821 L1144 138.895 L1148.28 138.895 L1148.28 142.923 Q1149.81 140.585 1151.87 139.427 Q1153.95 138.27 1156.66 138.27 Q1161.13 138.27 1163.42 141.048 Q1165.71 143.802 1165.71 149.173 Z" fill="#000000" fill-rule="nonzero" fill-opacity="1" /><path clip-path="url(#clip200)" d="M1178.42 131.534 L1178.42 138.895 L1187.19 138.895 L1187.19 142.205 L1178.42 142.205 L1178.42 156.279 Q1178.42 159.45 1179.27 160.353 Q1180.15 161.256 1182.82 161.256 L1187.19 161.256 L1187.19 164.821 L1182.82 164.821 Q1177.89 164.821 1176.01 162.992 Q1174.14 161.14 1174.14 156.279 L1174.14 142.205 L1171.01 142.205 L1171.01 138.895 L1174.14 138.895 L1174.14 131.534 L1178.42 131.534 Z" fill="#000000" fill-rule="nonzero" fill-opacity="1" /><path clip-path="url(#clip200)" d="M1209.32 139.659 L1209.32 143.686 Q1207.51 142.761 1205.57 142.298 Q1203.63 141.835 1201.54 141.835 Q1198.37 141.835 1196.77 142.807 Q1195.2 143.779 1195.2 145.723 Q1195.2 147.205 1196.33 148.061 Q1197.47 148.895 1200.89 149.659 L1202.35 149.983 Q1206.89 150.955 1208.79 152.737 Q1210.71 154.497 1210.71 157.668 Q1210.71 161.279 1207.84 163.385 Q1204.99 165.492 1199.99 165.492 Q1197.91 165.492 1195.64 165.075 Q1193.39 164.682 1190.89 163.872 L1190.89 159.473 Q1193.26 160.7 1195.55 161.325 Q1197.84 161.927 1200.08 161.927 Q1203.09 161.927 1204.71 160.909 Q1206.33 159.867 1206.33 157.992 Q1206.33 156.256 1205.15 155.33 Q1204 154.404 1200.04 153.548 L1198.56 153.2 Q1194.6 152.367 1192.84 150.654 Q1191.08 148.918 1191.08 145.909 Q1191.08 142.251 1193.67 140.261 Q1196.26 138.27 1201.03 138.27 Q1203.39 138.27 1205.48 138.617 Q1207.56 138.964 1209.32 139.659 Z" fill="#000000" fill-rule="nonzero" fill-opacity="1" /><path clip-path="url(#clip200)" d="M1242.79 128.849 Q1239.69 134.173 1238.19 139.381 Q1236.68 144.589 1236.68 149.936 Q1236.68 155.284 1238.19 160.538 Q1239.71 165.77 1242.79 171.071 L1239.09 171.071 Q1235.62 165.631 1233.88 160.376 Q1232.17 155.122 1232.17 149.936 Q1232.17 144.774 1233.88 139.543 Q1235.59 134.312 1239.09 128.849 L1242.79 128.849 Z" fill="#000000" fill-rule="nonzero" fill-opacity="1" /><path clip-path="url(#clip200)" d="M1273.23 150.793 L1273.23 152.876 L1253.65 152.876 Q1253.93 157.274 1256.29 159.589 Q1258.67 161.881 1262.91 161.881 Q1265.36 161.881 1267.65 161.279 Q1269.97 160.677 1272.24 159.473 L1272.24 163.501 Q1269.94 164.473 1267.54 164.983 Q1265.13 165.492 1262.65 165.492 Q1256.45 165.492 1252.82 161.881 Q1249.2 158.27 1249.2 152.112 Q1249.2 145.747 1252.63 142.02 Q1256.08 138.27 1261.91 138.27 Q1267.14 138.27 1270.18 141.649 Q1273.23 145.006 1273.23 150.793 M1268.97 149.543 Q1268.93 146.048 1267 143.964 Q1265.11 141.881 1261.96 141.881 Q1258.39 141.881 1256.24 143.895 Q1254.11 145.909 1253.79 149.566 L1268.97 149.543 Z" fill="#000000" fill-rule="nonzero" fill-opacity="1" /><path clip-path="url(#clip200)" d="M1300.94 138.895 L1291.57 151.511 L1301.43 164.821 L1296.4 164.821 L1288.86 154.635 L1281.31 164.821 L1276.29 164.821 L1286.36 151.256 L1277.14 138.895 L1282.17 138.895 L1289.04 148.131 L1295.92 138.895 L1300.94 138.895 Z" fill="#000000" fill-rule="nonzero" fill-opacity="1" /><path clip-path="url(#clip200)" d="M1311.66 131.534 L1311.66 138.895 L1320.43 138.895 L1320.43 142.205 L1311.66 142.205 L1311.66 156.279 Q1311.66 159.45 1312.51 160.353 Q1313.39 161.256 1316.06 161.256 L1320.43 161.256 L1320.43 164.821 L1316.06 164.821 Q1311.13 164.821 1309.25 162.992 Q1307.38 161.14 1307.38 156.279 L1307.38 142.205 L1304.25 142.205 L1304.25 138.895 L1307.38 138.895 L1307.38 131.534 L1311.66 131.534 Z" fill="#000000" fill-rule="nonzero" fill-opacity="1" /><path clip-path="url(#clip200)" d="M1341.06 142.876 Q1340.34 142.46 1339.48 142.274 Q1338.65 142.066 1337.63 142.066 Q1334.02 142.066 1332.07 144.427 Q1330.15 146.765 1330.15 151.163 L1330.15 164.821 L1325.87 164.821 L1325.87 138.895 L1330.15 138.895 L1330.15 142.923 Q1331.5 140.561 1333.65 139.427 Q1335.8 138.27 1338.88 138.27 Q1339.32 138.27 1339.85 138.339 Q1340.38 138.386 1341.03 138.501 L1341.06 142.876 Z" fill="#000000" fill-rule="nonzero" fill-opacity="1" /><path clip-path="url(#clip200)" d="M1357.31 151.788 Q1352.14 151.788 1350.15 152.969 Q1348.16 154.149 1348.16 156.997 Q1348.16 159.265 1349.64 160.608 Q1351.15 161.927 1353.72 161.927 Q1357.26 161.927 1359.39 159.427 Q1361.54 156.904 1361.54 152.737 L1361.54 151.788 L1357.31 151.788 M1365.8 150.029 L1365.8 164.821 L1361.54 164.821 L1361.54 160.885 Q1360.08 163.247 1357.91 164.381 Q1355.73 165.492 1352.58 165.492 Q1348.6 165.492 1346.24 163.27 Q1343.9 161.024 1343.9 157.274 Q1343.9 152.899 1346.82 150.677 Q1349.76 148.455 1355.57 148.455 L1361.54 148.455 L1361.54 148.038 Q1361.54 145.099 1359.6 143.501 Q1357.68 141.881 1354.18 141.881 Q1351.96 141.881 1349.85 142.413 Q1347.75 142.946 1345.8 144.011 L1345.8 140.075 Q1348.14 139.173 1350.34 138.733 Q1352.54 138.27 1354.62 138.27 Q1360.25 138.27 1363.02 141.186 Q1365.8 144.103 1365.8 150.029 Z" fill="#000000" fill-rule="nonzero" fill-opacity="1" /><path clip-path="url(#clip200)" d="M1393.23 139.89 L1393.23 143.872 Q1391.43 142.876 1389.6 142.39 Q1387.79 141.881 1385.94 141.881 Q1381.8 141.881 1379.5 144.52 Q1377.21 147.136 1377.21 151.881 Q1377.21 156.626 1379.5 159.265 Q1381.8 161.881 1385.94 161.881 Q1387.79 161.881 1389.6 161.395 Q1391.43 160.885 1393.23 159.89 L1393.23 163.825 Q1391.45 164.659 1389.53 165.075 Q1387.63 165.492 1385.48 165.492 Q1379.62 165.492 1376.17 161.811 Q1372.72 158.131 1372.72 151.881 Q1372.72 145.538 1376.19 141.904 Q1379.69 138.27 1385.75 138.27 Q1387.72 138.27 1389.6 138.687 Q1391.47 139.08 1393.23 139.89 Z" fill="#000000" fill-rule="nonzero" fill-opacity="1" /><path clip-path="url(#clip200)" d="M1404.85 131.534 L1404.85 138.895 L1413.62 138.895 L1413.62 142.205 L1404.85 142.205 L1404.85 156.279 Q1404.85 159.45 1405.71 160.353 Q1406.59 161.256 1409.25 161.256 L1413.62 161.256 L1413.62 164.821 L1409.25 164.821 Q1404.32 164.821 1402.44 162.992 Q1400.57 161.14 1400.57 156.279 L1400.57 142.205 L1397.44 142.205 L1397.44 138.895 L1400.57 138.895 L1400.57 131.534 L1404.85 131.534 Z" fill="#000000" fill-rule="nonzero" fill-opacity="1" /><path clip-path="url(#clip200)" d="M1419.23 138.895 L1423.49 138.895 L1423.49 164.821 L1419.23 164.821 L1419.23 138.895 M1419.23 128.802 L1423.49 128.802 L1423.49 134.196 L1419.23 134.196 L1419.23 128.802 Z" fill="#000000" fill-rule="nonzero" fill-opacity="1" /><path clip-path="url(#clip200)" d="M1442.44 141.881 Q1439.02 141.881 1437.03 144.566 Q1435.04 147.228 1435.04 151.881 Q1435.04 156.534 1437 159.219 Q1438.99 161.881 1442.44 161.881 Q1445.85 161.881 1447.84 159.196 Q1449.83 156.51 1449.83 151.881 Q1449.83 147.274 1447.84 144.589 Q1445.85 141.881 1442.44 141.881 M1442.44 138.27 Q1448 138.27 1451.17 141.881 Q1454.34 145.492 1454.34 151.881 Q1454.34 158.247 1451.17 161.881 Q1448 165.492 1442.44 165.492 Q1436.87 165.492 1433.69 161.881 Q1430.55 158.247 1430.55 151.881 Q1430.55 145.492 1433.69 141.881 Q1436.87 138.27 1442.44 138.27 Z" fill="#000000" fill-rule="nonzero" fill-opacity="1" /><path clip-path="url(#clip200)" d="M1482.95 149.173 L1482.95 164.821 L1478.69 164.821 L1478.69 149.311 Q1478.69 145.631 1477.26 143.802 Q1475.82 141.974 1472.95 141.974 Q1469.5 141.974 1467.51 144.173 Q1465.52 146.372 1465.52 150.168 L1465.52 164.821 L1461.24 164.821 L1461.24 138.895 L1465.52 138.895 L1465.52 142.923 Q1467.05 140.585 1469.11 139.427 Q1471.19 138.27 1473.9 138.27 Q1478.37 138.27 1480.66 141.048 Q1482.95 143.802 1482.95 149.173 Z" fill="#000000" fill-rule="nonzero" fill-opacity="1" /><path clip-path="url(#clip200)" d="M1492.54 158.941 L1497.42 158.941 L1497.42 164.821 L1492.54 164.821 L1492.54 158.941 M1492.54 140.307 L1497.42 140.307 L1497.42 146.186 L1492.54 146.186 L1492.54 140.307 Z" fill="#000000" fill-rule="nonzero" fill-opacity="1" /><path clip-path="url(#clip200)" d="M1512.05 160.885 L1528.37 160.885 L1528.37 164.821 L1506.42 164.821 L1506.42 160.885 Q1509.09 158.131 1513.67 153.501 Q1518.28 148.848 1519.46 147.506 Q1521.7 144.983 1522.58 143.247 Q1523.49 141.487 1523.49 139.798 Q1523.49 137.043 1521.54 135.307 Q1519.62 133.571 1516.52 133.571 Q1514.32 133.571 1511.86 134.335 Q1509.43 135.099 1506.66 136.649 L1506.66 131.927 Q1509.48 130.793 1511.93 130.214 Q1514.39 129.636 1516.42 129.636 Q1521.8 129.636 1524.99 132.321 Q1528.18 135.006 1528.18 139.497 Q1528.18 141.626 1527.37 143.548 Q1526.59 145.446 1524.48 148.038 Q1523.9 148.71 1520.8 151.927 Q1517.7 155.122 1512.05 160.885 Z" fill="#000000" fill-rule="nonzero" fill-opacity="1" /><path clip-path="url(#clip200)" d="M1536.91 128.849 L1540.61 128.849 Q1544.09 134.312 1545.8 139.543 Q1547.54 144.774 1547.54 149.936 Q1547.54 155.122 1545.8 160.376 Q1544.09 165.631 1540.61 171.071 L1536.91 171.071 Q1539.99 165.77 1541.49 160.538 Q1543.02 155.284 1543.02 149.936 Q1543.02 144.589 1541.49 139.381 Q1539.99 134.173 1536.91 128.849 Z" fill="#000000" fill-rule="nonzero" fill-opacity="1" /></svg>
