<?xml version="1.0" encoding="utf-8"?>
<svg xmlns="http://www.w3.org/2000/svg" xmlns:xlink="http://www.w3.org/1999/xlink" width="430" height="430" viewBox="0 0 1720 1720">
<defs>
  <clipPath id="clip350">
    <rect x="0" y="0" width="1720" height="1720"/>
  </clipPath>
</defs>
<path clip-path="url(#clip350)" d="M0 1720 L1720 1720 L1720 0 L0 0  Z" fill="#ffffff" fill-rule="evenodd" fill-opacity="1"/>
<defs>
  <clipPath id="clip351">
    <rect x="344" y="172" width="1205" height="1205"/>
  </clipPath>
</defs>
<path clip-path="url(#clip350)" d="M239.798 1500.94 L1672.76 1500.94 L1672.76 47.2441 L239.798 47.2441  Z" fill="#ffffff" fill-rule="evenodd" fill-opacity="1"/>
<defs>
  <clipPath id="clip352">
    <rect x="239" y="47" width="1434" height="1455"/>
  </clipPath>
</defs>
<polyline clip-path="url(#clip352)" style="stroke:#000000; stroke-linecap:round; stroke-linejoin:round; stroke-width:2; stroke-opacity:0.1; fill:none" points="280.353,1500.94 280.353,47.2441 "/>
<polyline clip-path="url(#clip352)" style="stroke:#000000; stroke-linecap:round; stroke-linejoin:round; stroke-width:2; stroke-opacity:0.1; fill:none" points="495.506,1500.94 495.506,47.2441 "/>
<polyline clip-path="url(#clip352)" style="stroke:#000000; stroke-linecap:round; stroke-linejoin:round; stroke-width:2; stroke-opacity:0.1; fill:none" points="710.66,1500.94 710.66,47.2441 "/>
<polyline clip-path="url(#clip352)" style="stroke:#000000; stroke-linecap:round; stroke-linejoin:round; stroke-width:2; stroke-opacity:0.1; fill:none" points="925.813,1500.94 925.813,47.2441 "/>
<polyline clip-path="url(#clip352)" style="stroke:#000000; stroke-linecap:round; stroke-linejoin:round; stroke-width:2; stroke-opacity:0.1; fill:none" points="1140.97,1500.94 1140.97,47.2441 "/>
<polyline clip-path="url(#clip352)" style="stroke:#000000; stroke-linecap:round; stroke-linejoin:round; stroke-width:2; stroke-opacity:0.1; fill:none" points="1356.12,1500.94 1356.12,47.2441 "/>
<polyline clip-path="url(#clip352)" style="stroke:#000000; stroke-linecap:round; stroke-linejoin:round; stroke-width:2; stroke-opacity:0.1; fill:none" points="1571.27,1500.94 1571.27,47.2441 "/>
<polyline clip-path="url(#clip350)" style="stroke:#000000; stroke-linecap:round; stroke-linejoin:round; stroke-width:4; stroke-opacity:1; fill:none" points="239.798,1500.94 1672.76,1500.94 "/>
<polyline clip-path="url(#clip350)" style="stroke:#000000; stroke-linecap:round; stroke-linejoin:round; stroke-width:4; stroke-opacity:1; fill:none" points="280.353,1500.94 280.353,1482.04 "/>
<polyline clip-path="url(#clip350)" style="stroke:#000000; stroke-linecap:round; stroke-linejoin:round; stroke-width:4; stroke-opacity:1; fill:none" points="495.506,1500.94 495.506,1482.04 "/>
<polyline clip-path="url(#clip350)" style="stroke:#000000; stroke-linecap:round; stroke-linejoin:round; stroke-width:4; stroke-opacity:1; fill:none" points="710.66,1500.94 710.66,1482.04 "/>
<polyline clip-path="url(#clip350)" style="stroke:#000000; stroke-linecap:round; stroke-linejoin:round; stroke-width:4; stroke-opacity:1; fill:none" points="925.813,1500.94 925.813,1482.04 "/>
<polyline clip-path="url(#clip350)" style="stroke:#000000; stroke-linecap:round; stroke-linejoin:round; stroke-width:4; stroke-opacity:1; fill:none" points="1140.97,1500.94 1140.97,1482.04 "/>
<polyline clip-path="url(#clip350)" style="stroke:#000000; stroke-linecap:round; stroke-linejoin:round; stroke-width:4; stroke-opacity:1; fill:none" points="1356.12,1500.94 1356.12,1482.04 "/>
<polyline clip-path="url(#clip350)" style="stroke:#000000; stroke-linecap:round; stroke-linejoin:round; stroke-width:4; stroke-opacity:1; fill:none" points="1571.27,1500.94 1571.27,1482.04 "/>
<path clip-path="url(#clip350)" d="M280.353 1526.42 Q276.742 1526.42 274.913 1529.98 Q273.108 1533.52 273.108 1540.65 Q273.108 1547.76 274.913 1551.33 Q276.742 1554.87 280.353 1554.87 Q283.987 1554.87 285.793 1551.33 Q287.622 1547.76 287.622 1540.65 Q287.622 1533.52 285.793 1529.98 Q283.987 1526.42 280.353 1526.42 M280.353 1522.71 Q286.163 1522.71 289.219 1527.32 Q292.298 1531.9 292.298 1540.65 Q292.298 1549.38 289.219 1553.99 Q286.163 1558.57 280.353 1558.57 Q274.543 1558.57 271.464 1553.99 Q268.409 1549.38 268.409 1540.65 Q268.409 1531.9 271.464 1527.32 Q274.543 1522.71 280.353 1522.71 Z" fill="#000000" fill-rule="nonzero" fill-opacity="1" /><path clip-path="url(#clip350)" d="M485.888 1553.96 L493.527 1553.96 L493.527 1527.6 L485.217 1529.27 L485.217 1525.01 L493.481 1523.34 L498.157 1523.34 L498.157 1553.96 L505.796 1553.96 L505.796 1557.9 L485.888 1557.9 L485.888 1553.96 Z" fill="#000000" fill-rule="nonzero" fill-opacity="1" /><path clip-path="url(#clip350)" d="M705.312 1553.96 L721.632 1553.96 L721.632 1557.9 L699.687 1557.9 L699.687 1553.96 Q702.349 1551.21 706.933 1546.58 Q711.539 1541.93 712.72 1540.59 Q714.965 1538.06 715.845 1536.33 Q716.747 1534.57 716.747 1532.88 Q716.747 1530.12 714.803 1528.39 Q712.882 1526.65 709.78 1526.65 Q707.581 1526.65 705.127 1527.41 Q702.697 1528.18 699.919 1529.73 L699.919 1525.01 Q702.743 1523.87 705.197 1523.29 Q707.65 1522.71 709.687 1522.71 Q715.058 1522.71 718.252 1525.4 Q721.447 1528.09 721.447 1532.58 Q721.447 1534.71 720.636 1536.63 Q719.849 1538.52 717.743 1541.12 Q717.164 1541.79 714.062 1545.01 Q710.96 1548.2 705.312 1553.96 Z" fill="#000000" fill-rule="nonzero" fill-opacity="1" /><path clip-path="url(#clip350)" d="M930.06 1539.27 Q933.417 1539.98 935.292 1542.25 Q937.19 1544.52 937.19 1547.85 Q937.19 1552.97 933.671 1555.77 Q930.153 1558.57 923.672 1558.57 Q921.496 1558.57 919.181 1558.13 Q916.889 1557.71 914.435 1556.86 L914.435 1552.34 Q916.38 1553.48 918.695 1554.06 Q921.01 1554.64 923.533 1554.64 Q927.931 1554.64 930.222 1552.9 Q932.537 1551.16 932.537 1547.85 Q932.537 1544.8 930.384 1543.09 Q928.255 1541.35 924.435 1541.35 L920.408 1541.35 L920.408 1537.51 L924.621 1537.51 Q928.07 1537.51 929.898 1536.14 Q931.727 1534.75 931.727 1532.16 Q931.727 1529.5 929.829 1528.09 Q927.954 1526.65 924.435 1526.65 Q922.514 1526.65 920.315 1527.07 Q918.116 1527.48 915.477 1528.36 L915.477 1524.2 Q918.139 1523.46 920.454 1523.09 Q922.792 1522.71 924.852 1522.71 Q930.176 1522.71 933.278 1525.15 Q936.38 1527.55 936.38 1531.67 Q936.38 1534.54 934.736 1536.53 Q933.093 1538.5 930.06 1539.27 Z" fill="#000000" fill-rule="nonzero" fill-opacity="1" /><path clip-path="url(#clip350)" d="M1143.98 1527.41 L1132.17 1545.86 L1143.98 1545.86 L1143.98 1527.41 M1142.75 1523.34 L1148.63 1523.34 L1148.63 1545.86 L1153.56 1545.86 L1153.56 1549.75 L1148.63 1549.75 L1148.63 1557.9 L1143.98 1557.9 L1143.98 1549.75 L1128.37 1549.75 L1128.37 1545.24 L1142.75 1523.34 Z" fill="#000000" fill-rule="nonzero" fill-opacity="1" /><path clip-path="url(#clip350)" d="M1346.4 1523.34 L1364.75 1523.34 L1364.75 1527.28 L1350.68 1527.28 L1350.68 1535.75 Q1351.7 1535.4 1352.72 1535.24 Q1353.73 1535.05 1354.75 1535.05 Q1360.54 1535.05 1363.92 1538.22 Q1367.3 1541.4 1367.3 1546.81 Q1367.3 1552.39 1363.83 1555.49 Q1360.36 1558.57 1354.04 1558.57 Q1351.86 1558.57 1349.59 1558.2 Q1347.35 1557.83 1344.94 1557.09 L1344.94 1552.39 Q1347.02 1553.52 1349.24 1554.08 Q1351.47 1554.64 1353.94 1554.64 Q1357.95 1554.64 1360.29 1552.53 Q1362.62 1550.42 1362.62 1546.81 Q1362.62 1543.2 1360.29 1541.09 Q1357.95 1538.99 1353.94 1538.99 Q1352.07 1538.99 1350.19 1539.4 Q1348.34 1539.82 1346.4 1540.7 L1346.4 1523.34 Z" fill="#000000" fill-rule="nonzero" fill-opacity="1" /><path clip-path="url(#clip350)" d="M1571.68 1538.76 Q1568.53 1538.76 1566.68 1540.91 Q1564.85 1543.06 1564.85 1546.81 Q1564.85 1550.54 1566.68 1552.71 Q1568.53 1554.87 1571.68 1554.87 Q1574.83 1554.87 1576.65 1552.71 Q1578.51 1550.54 1578.51 1546.81 Q1578.51 1543.06 1576.65 1540.91 Q1574.83 1538.76 1571.68 1538.76 M1580.96 1524.1 L1580.96 1528.36 Q1579.2 1527.53 1577.39 1527.09 Q1575.61 1526.65 1573.85 1526.65 Q1569.22 1526.65 1566.77 1529.77 Q1564.34 1532.9 1563.99 1539.22 Q1565.36 1537.21 1567.42 1536.14 Q1569.48 1535.05 1571.96 1535.05 Q1577.16 1535.05 1580.17 1538.22 Q1583.21 1541.37 1583.21 1546.81 Q1583.21 1552.14 1580.06 1555.35 Q1576.91 1558.57 1571.68 1558.57 Q1565.68 1558.57 1562.51 1553.99 Q1559.34 1549.38 1559.34 1540.65 Q1559.34 1532.46 1563.23 1527.6 Q1567.12 1522.71 1573.67 1522.71 Q1575.43 1522.71 1577.21 1523.06 Q1579.02 1523.41 1580.96 1524.1 Z" fill="#000000" fill-rule="nonzero" fill-opacity="1" /><path clip-path="url(#clip350)" d="M966.398 1613.01 L946.124 1613.01 Q946.601 1622.52 948.797 1626.56 Q951.534 1631.53 956.277 1631.53 Q961.051 1631.53 963.693 1626.53 Q966.016 1622.14 966.398 1613.01 M966.303 1607.59 Q965.412 1598.56 963.693 1595.37 Q960.956 1590.34 956.277 1590.34 Q951.407 1590.34 948.829 1595.31 Q946.792 1599.32 946.187 1607.59 L966.303 1607.59 M956.277 1585.57 Q963.916 1585.57 968.276 1592.32 Q972.637 1599.03 972.637 1610.94 Q972.637 1622.81 968.276 1629.56 Q963.916 1636.34 956.277 1636.34 Q948.606 1636.34 944.277 1629.56 Q939.917 1622.81 939.917 1610.94 Q939.917 1599.03 944.277 1592.32 Q948.606 1585.57 956.277 1585.57 Z" fill="#000000" fill-rule="nonzero" fill-opacity="1" /><polyline clip-path="url(#clip352)" style="stroke:#000000; stroke-linecap:round; stroke-linejoin:round; stroke-width:2; stroke-opacity:0.1; fill:none" points="239.798,1441.77 1672.76,1441.77 "/>
<polyline clip-path="url(#clip352)" style="stroke:#000000; stroke-linecap:round; stroke-linejoin:round; stroke-width:2; stroke-opacity:0.1; fill:none" points="239.798,1193.38 1672.76,1193.38 "/>
<polyline clip-path="url(#clip352)" style="stroke:#000000; stroke-linecap:round; stroke-linejoin:round; stroke-width:2; stroke-opacity:0.1; fill:none" points="239.798,944.997 1672.76,944.997 "/>
<polyline clip-path="url(#clip352)" style="stroke:#000000; stroke-linecap:round; stroke-linejoin:round; stroke-width:2; stroke-opacity:0.1; fill:none" points="239.798,696.612 1672.76,696.612 "/>
<polyline clip-path="url(#clip352)" style="stroke:#000000; stroke-linecap:round; stroke-linejoin:round; stroke-width:2; stroke-opacity:0.1; fill:none" points="239.798,448.227 1672.76,448.227 "/>
<polyline clip-path="url(#clip352)" style="stroke:#000000; stroke-linecap:round; stroke-linejoin:round; stroke-width:2; stroke-opacity:0.1; fill:none" points="239.798,199.843 1672.76,199.843 "/>
<polyline clip-path="url(#clip350)" style="stroke:#000000; stroke-linecap:round; stroke-linejoin:round; stroke-width:4; stroke-opacity:1; fill:none" points="239.798,1500.94 239.798,47.2441 "/>
<polyline clip-path="url(#clip350)" style="stroke:#000000; stroke-linecap:round; stroke-linejoin:round; stroke-width:4; stroke-opacity:1; fill:none" points="239.798,1441.77 258.695,1441.77 "/>
<polyline clip-path="url(#clip350)" style="stroke:#000000; stroke-linecap:round; stroke-linejoin:round; stroke-width:4; stroke-opacity:1; fill:none" points="239.798,1193.38 258.695,1193.38 "/>
<polyline clip-path="url(#clip350)" style="stroke:#000000; stroke-linecap:round; stroke-linejoin:round; stroke-width:4; stroke-opacity:1; fill:none" points="239.798,944.997 258.695,944.997 "/>
<polyline clip-path="url(#clip350)" style="stroke:#000000; stroke-linecap:round; stroke-linejoin:round; stroke-width:4; stroke-opacity:1; fill:none" points="239.798,696.612 258.695,696.612 "/>
<polyline clip-path="url(#clip350)" style="stroke:#000000; stroke-linecap:round; stroke-linejoin:round; stroke-width:4; stroke-opacity:1; fill:none" points="239.798,448.227 258.695,448.227 "/>
<polyline clip-path="url(#clip350)" style="stroke:#000000; stroke-linecap:round; stroke-linejoin:round; stroke-width:4; stroke-opacity:1; fill:none" points="239.798,199.843 258.695,199.843 "/>
<path clip-path="url(#clip350)" d="M67.3319 1427.57 Q63.7208 1427.57 61.8921 1431.13 Q60.0865 1434.67 60.0865 1441.8 Q60.0865 1448.91 61.8921 1452.47 Q63.7208 1456.01 67.3319 1456.01 Q70.9661 1456.01 72.7717 1452.47 Q74.6004 1448.91 74.6004 1441.8 Q74.6004 1434.67 72.7717 1431.13 Q70.9661 1427.57 67.3319 1427.57 M67.3319 1423.86 Q73.142 1423.86 76.1976 1428.47 Q79.2763 1433.05 79.2763 1441.8 Q79.2763 1450.53 76.1976 1455.13 Q73.142 1459.72 67.3319 1459.72 Q61.5217 1459.72 58.443 1455.13 Q55.3875 1450.53 55.3875 1441.8 Q55.3875 1433.05 58.443 1428.47 Q61.5217 1423.86 67.3319 1423.86 Z" fill="#000000" fill-rule="nonzero" fill-opacity="1" /><path clip-path="url(#clip350)" d="M87.4938 1453.17 L92.378 1453.17 L92.378 1459.05 L87.4938 1459.05 L87.4938 1453.17 Z" fill="#000000" fill-rule="nonzero" fill-opacity="1" /><path clip-path="url(#clip350)" d="M112.563 1427.57 Q108.952 1427.57 107.123 1431.13 Q105.318 1434.67 105.318 1441.8 Q105.318 1448.91 107.123 1452.47 Q108.952 1456.01 112.563 1456.01 Q116.197 1456.01 118.003 1452.47 Q119.832 1448.91 119.832 1441.8 Q119.832 1434.67 118.003 1431.13 Q116.197 1427.57 112.563 1427.57 M112.563 1423.86 Q118.373 1423.86 121.429 1428.47 Q124.507 1433.05 124.507 1441.8 Q124.507 1450.53 121.429 1455.13 Q118.373 1459.72 112.563 1459.72 Q106.753 1459.72 103.674 1455.13 Q100.619 1450.53 100.619 1441.8 Q100.619 1433.05 103.674 1428.47 Q106.753 1423.86 112.563 1423.86 Z" fill="#000000" fill-rule="nonzero" fill-opacity="1" /><path clip-path="url(#clip350)" d="M142.725 1427.57 Q139.114 1427.57 137.285 1431.13 Q135.48 1434.67 135.48 1441.8 Q135.48 1448.91 137.285 1452.47 Q139.114 1456.01 142.725 1456.01 Q146.359 1456.01 148.165 1452.47 Q149.993 1448.91 149.993 1441.8 Q149.993 1434.67 148.165 1431.13 Q146.359 1427.57 142.725 1427.57 M142.725 1423.86 Q148.535 1423.86 151.591 1428.47 Q154.669 1433.05 154.669 1441.8 Q154.669 1450.53 151.591 1455.13 Q148.535 1459.72 142.725 1459.72 Q136.915 1459.72 133.836 1455.13 Q130.781 1450.53 130.781 1441.8 Q130.781 1433.05 133.836 1428.47 Q136.915 1423.86 142.725 1423.86 Z" fill="#000000" fill-rule="nonzero" fill-opacity="1" /><path clip-path="url(#clip350)" d="M166.915 1455.11 L183.234 1455.11 L183.234 1459.05 L161.29 1459.05 L161.29 1455.11 Q163.952 1452.36 168.535 1447.73 Q173.141 1443.07 174.322 1441.73 Q176.567 1439.21 177.447 1437.47 Q178.35 1435.71 178.35 1434.02 Q178.35 1431.27 176.405 1429.53 Q174.484 1427.8 171.382 1427.8 Q169.183 1427.8 166.729 1428.56 Q164.299 1429.32 161.521 1430.88 L161.521 1426.15 Q164.345 1425.02 166.799 1424.44 Q169.253 1423.86 171.29 1423.86 Q176.66 1423.86 179.854 1426.55 Q183.049 1429.23 183.049 1433.72 Q183.049 1435.85 182.239 1437.77 Q181.452 1439.67 179.345 1442.26 Q178.766 1442.94 175.665 1446.15 Q172.563 1449.35 166.915 1455.11 Z" fill="#000000" fill-rule="nonzero" fill-opacity="1" /><path clip-path="url(#clip350)" d="M193.095 1424.49 L211.451 1424.49 L211.451 1428.42 L197.377 1428.42 L197.377 1436.89 Q198.396 1436.55 199.414 1436.38 Q200.433 1436.2 201.452 1436.2 Q207.239 1436.2 210.618 1439.37 Q213.998 1442.54 213.998 1447.96 Q213.998 1453.54 210.526 1456.64 Q207.053 1459.72 200.734 1459.72 Q198.558 1459.72 196.29 1459.35 Q194.044 1458.98 191.637 1458.24 L191.637 1453.54 Q193.72 1454.67 195.942 1455.23 Q198.165 1455.78 200.641 1455.78 Q204.646 1455.78 206.984 1453.68 Q209.322 1451.57 209.322 1447.96 Q209.322 1444.35 206.984 1442.24 Q204.646 1440.13 200.641 1440.13 Q198.766 1440.13 196.891 1440.55 Q195.04 1440.97 193.095 1441.85 L193.095 1424.49 Z" fill="#000000" fill-rule="nonzero" fill-opacity="1" /><path clip-path="url(#clip350)" d="M66.3365 1179.18 Q62.7254 1179.18 60.8967 1182.75 Q59.0912 1186.29 59.0912 1193.42 Q59.0912 1200.52 60.8967 1204.09 Q62.7254 1207.63 66.3365 1207.63 Q69.9707 1207.63 71.7763 1204.09 Q73.605 1200.52 73.605 1193.42 Q73.605 1186.29 71.7763 1182.75 Q69.9707 1179.18 66.3365 1179.18 M66.3365 1175.48 Q72.1467 1175.48 75.2022 1180.08 Q78.2809 1184.67 78.2809 1193.42 Q78.2809 1202.14 75.2022 1206.75 Q72.1467 1211.33 66.3365 1211.33 Q60.5264 1211.33 57.4477 1206.75 Q54.3921 1202.14 54.3921 1193.42 Q54.3921 1184.67 57.4477 1180.08 Q60.5264 1175.48 66.3365 1175.48 Z" fill="#000000" fill-rule="nonzero" fill-opacity="1" /><path clip-path="url(#clip350)" d="M86.4984 1204.78 L91.3827 1204.78 L91.3827 1210.66 L86.4984 1210.66 L86.4984 1204.78 Z" fill="#000000" fill-rule="nonzero" fill-opacity="1" /><path clip-path="url(#clip350)" d="M111.568 1179.18 Q107.957 1179.18 106.128 1182.75 Q104.322 1186.29 104.322 1193.42 Q104.322 1200.52 106.128 1204.09 Q107.957 1207.63 111.568 1207.63 Q115.202 1207.63 117.008 1204.09 Q118.836 1200.52 118.836 1193.42 Q118.836 1186.29 117.008 1182.75 Q115.202 1179.18 111.568 1179.18 M111.568 1175.48 Q117.378 1175.48 120.433 1180.08 Q123.512 1184.67 123.512 1193.42 Q123.512 1202.14 120.433 1206.75 Q117.378 1211.33 111.568 1211.33 Q105.758 1211.33 102.679 1206.75 Q99.6234 1202.14 99.6234 1193.42 Q99.6234 1184.67 102.679 1180.08 Q105.758 1175.48 111.568 1175.48 Z" fill="#000000" fill-rule="nonzero" fill-opacity="1" /><path clip-path="url(#clip350)" d="M141.73 1179.18 Q138.119 1179.18 136.29 1182.75 Q134.484 1186.29 134.484 1193.42 Q134.484 1200.52 136.29 1204.09 Q138.119 1207.63 141.73 1207.63 Q145.364 1207.63 147.169 1204.09 Q148.998 1200.52 148.998 1193.42 Q148.998 1186.29 147.169 1182.75 Q145.364 1179.18 141.73 1179.18 M141.73 1175.48 Q147.54 1175.48 150.595 1180.08 Q153.674 1184.67 153.674 1193.42 Q153.674 1202.14 150.595 1206.75 Q147.54 1211.33 141.73 1211.33 Q135.919 1211.33 132.841 1206.75 Q129.785 1202.14 129.785 1193.42 Q129.785 1184.67 132.841 1180.08 Q135.919 1175.48 141.73 1175.48 Z" fill="#000000" fill-rule="nonzero" fill-opacity="1" /><path clip-path="url(#clip350)" d="M161.938 1176.1 L180.294 1176.1 L180.294 1180.04 L166.22 1180.04 L166.22 1188.51 Q167.239 1188.16 168.257 1188 Q169.276 1187.81 170.294 1187.81 Q176.081 1187.81 179.461 1190.99 Q182.841 1194.16 182.841 1199.57 Q182.841 1205.15 179.368 1208.25 Q175.896 1211.33 169.577 1211.33 Q167.401 1211.33 165.132 1210.96 Q162.887 1210.59 160.48 1209.85 L160.48 1205.15 Q162.563 1206.29 164.785 1206.84 Q167.007 1207.4 169.484 1207.4 Q173.489 1207.4 175.827 1205.29 Q178.165 1203.18 178.165 1199.57 Q178.165 1195.96 175.827 1193.86 Q173.489 1191.75 169.484 1191.75 Q167.609 1191.75 165.734 1192.17 Q163.882 1192.58 161.938 1193.46 L161.938 1176.1 Z" fill="#000000" fill-rule="nonzero" fill-opacity="1" /><path clip-path="url(#clip350)" d="M202.053 1179.18 Q198.442 1179.18 196.614 1182.75 Q194.808 1186.29 194.808 1193.42 Q194.808 1200.52 196.614 1204.09 Q198.442 1207.63 202.053 1207.63 Q205.688 1207.63 207.493 1204.09 Q209.322 1200.52 209.322 1193.42 Q209.322 1186.29 207.493 1182.75 Q205.688 1179.18 202.053 1179.18 M202.053 1175.48 Q207.864 1175.48 210.919 1180.08 Q213.998 1184.67 213.998 1193.42 Q213.998 1202.14 210.919 1206.75 Q207.864 1211.33 202.053 1211.33 Q196.243 1211.33 193.165 1206.75 Q190.109 1202.14 190.109 1193.42 Q190.109 1184.67 193.165 1180.08 Q196.243 1175.48 202.053 1175.48 Z" fill="#000000" fill-rule="nonzero" fill-opacity="1" /><path clip-path="url(#clip350)" d="M67.3319 930.796 Q63.7208 930.796 61.8921 934.36 Q60.0865 937.902 60.0865 945.032 Q60.0865 952.138 61.8921 955.703 Q63.7208 959.245 67.3319 959.245 Q70.9661 959.245 72.7717 955.703 Q74.6004 952.138 74.6004 945.032 Q74.6004 937.902 72.7717 934.36 Q70.9661 930.796 67.3319 930.796 M67.3319 927.092 Q73.142 927.092 76.1976 931.698 Q79.2763 936.282 79.2763 945.032 Q79.2763 953.758 76.1976 958.365 Q73.142 962.948 67.3319 962.948 Q61.5217 962.948 58.443 958.365 Q55.3875 953.758 55.3875 945.032 Q55.3875 936.282 58.443 931.698 Q61.5217 927.092 67.3319 927.092 Z" fill="#000000" fill-rule="nonzero" fill-opacity="1" /><path clip-path="url(#clip350)" d="M87.4938 956.397 L92.378 956.397 L92.378 962.277 L87.4938 962.277 L87.4938 956.397 Z" fill="#000000" fill-rule="nonzero" fill-opacity="1" /><path clip-path="url(#clip350)" d="M112.563 930.796 Q108.952 930.796 107.123 934.36 Q105.318 937.902 105.318 945.032 Q105.318 952.138 107.123 955.703 Q108.952 959.245 112.563 959.245 Q116.197 959.245 118.003 955.703 Q119.832 952.138 119.832 945.032 Q119.832 937.902 118.003 934.36 Q116.197 930.796 112.563 930.796 M112.563 927.092 Q118.373 927.092 121.429 931.698 Q124.507 936.282 124.507 945.032 Q124.507 953.758 121.429 958.365 Q118.373 962.948 112.563 962.948 Q106.753 962.948 103.674 958.365 Q100.619 953.758 100.619 945.032 Q100.619 936.282 103.674 931.698 Q106.753 927.092 112.563 927.092 Z" fill="#000000" fill-rule="nonzero" fill-opacity="1" /><path clip-path="url(#clip350)" d="M142.725 930.796 Q139.114 930.796 137.285 934.36 Q135.48 937.902 135.48 945.032 Q135.48 952.138 137.285 955.703 Q139.114 959.245 142.725 959.245 Q146.359 959.245 148.165 955.703 Q149.993 952.138 149.993 945.032 Q149.993 937.902 148.165 934.36 Q146.359 930.796 142.725 930.796 M142.725 927.092 Q148.535 927.092 151.591 931.698 Q154.669 936.282 154.669 945.032 Q154.669 953.758 151.591 958.365 Q148.535 962.948 142.725 962.948 Q136.915 962.948 133.836 958.365 Q130.781 953.758 130.781 945.032 Q130.781 936.282 133.836 931.698 Q136.915 927.092 142.725 927.092 Z" fill="#000000" fill-rule="nonzero" fill-opacity="1" /><path clip-path="url(#clip350)" d="M161.706 927.717 L183.928 927.717 L183.928 929.708 L171.382 962.277 L166.498 962.277 L178.303 931.652 L161.706 931.652 L161.706 927.717 Z" fill="#000000" fill-rule="nonzero" fill-opacity="1" /><path clip-path="url(#clip350)" d="M193.095 927.717 L211.451 927.717 L211.451 931.652 L197.377 931.652 L197.377 940.124 Q198.396 939.777 199.414 939.615 Q200.433 939.43 201.452 939.43 Q207.239 939.43 210.618 942.601 Q213.998 945.772 213.998 951.189 Q213.998 956.768 210.526 959.87 Q207.053 962.948 200.734 962.948 Q198.558 962.948 196.29 962.578 Q194.044 962.207 191.637 961.467 L191.637 956.768 Q193.72 957.902 195.942 958.458 Q198.165 959.013 200.641 959.013 Q204.646 959.013 206.984 956.907 Q209.322 954.8 209.322 951.189 Q209.322 947.578 206.984 945.471 Q204.646 943.365 200.641 943.365 Q198.766 943.365 196.891 943.782 Q195.04 944.198 193.095 945.078 L193.095 927.717 Z" fill="#000000" fill-rule="nonzero" fill-opacity="1" /><path clip-path="url(#clip350)" d="M66.3365 682.411 Q62.7254 682.411 60.8967 685.976 Q59.0912 689.517 59.0912 696.647 Q59.0912 703.753 60.8967 707.318 Q62.7254 710.86 66.3365 710.86 Q69.9707 710.86 71.7763 707.318 Q73.605 703.753 73.605 696.647 Q73.605 689.517 71.7763 685.976 Q69.9707 682.411 66.3365 682.411 M66.3365 678.707 Q72.1467 678.707 75.2022 683.314 Q78.2809 687.897 78.2809 696.647 Q78.2809 705.374 75.2022 709.98 Q72.1467 714.563 66.3365 714.563 Q60.5264 714.563 57.4477 709.98 Q54.3921 705.374 54.3921 696.647 Q54.3921 687.897 57.4477 683.314 Q60.5264 678.707 66.3365 678.707 Z" fill="#000000" fill-rule="nonzero" fill-opacity="1" /><path clip-path="url(#clip350)" d="M86.4984 708.013 L91.3827 708.013 L91.3827 713.892 L86.4984 713.892 L86.4984 708.013 Z" fill="#000000" fill-rule="nonzero" fill-opacity="1" /><path clip-path="url(#clip350)" d="M111.568 682.411 Q107.957 682.411 106.128 685.976 Q104.322 689.517 104.322 696.647 Q104.322 703.753 106.128 707.318 Q107.957 710.86 111.568 710.86 Q115.202 710.86 117.008 707.318 Q118.836 703.753 118.836 696.647 Q118.836 689.517 117.008 685.976 Q115.202 682.411 111.568 682.411 M111.568 678.707 Q117.378 678.707 120.433 683.314 Q123.512 687.897 123.512 696.647 Q123.512 705.374 120.433 709.98 Q117.378 714.563 111.568 714.563 Q105.758 714.563 102.679 709.98 Q99.6234 705.374 99.6234 696.647 Q99.6234 687.897 102.679 683.314 Q105.758 678.707 111.568 678.707 Z" fill="#000000" fill-rule="nonzero" fill-opacity="1" /><path clip-path="url(#clip350)" d="M132.54 709.957 L140.179 709.957 L140.179 683.591 L131.869 685.258 L131.869 680.999 L140.132 679.332 L144.808 679.332 L144.808 709.957 L152.447 709.957 L152.447 713.892 L132.54 713.892 L132.54 709.957 Z" fill="#000000" fill-rule="nonzero" fill-opacity="1" /><path clip-path="url(#clip350)" d="M171.891 682.411 Q168.28 682.411 166.452 685.976 Q164.646 689.517 164.646 696.647 Q164.646 703.753 166.452 707.318 Q168.28 710.86 171.891 710.86 Q175.526 710.86 177.331 707.318 Q179.16 703.753 179.16 696.647 Q179.16 689.517 177.331 685.976 Q175.526 682.411 171.891 682.411 M171.891 678.707 Q177.702 678.707 180.757 683.314 Q183.836 687.897 183.836 696.647 Q183.836 705.374 180.757 709.98 Q177.702 714.563 171.891 714.563 Q166.081 714.563 163.003 709.98 Q159.947 705.374 159.947 696.647 Q159.947 687.897 163.003 683.314 Q166.081 678.707 171.891 678.707 Z" fill="#000000" fill-rule="nonzero" fill-opacity="1" /><path clip-path="url(#clip350)" d="M202.053 682.411 Q198.442 682.411 196.614 685.976 Q194.808 689.517 194.808 696.647 Q194.808 703.753 196.614 707.318 Q198.442 710.86 202.053 710.86 Q205.688 710.86 207.493 707.318 Q209.322 703.753 209.322 696.647 Q209.322 689.517 207.493 685.976 Q205.688 682.411 202.053 682.411 M202.053 678.707 Q207.864 678.707 210.919 683.314 Q213.998 687.897 213.998 696.647 Q213.998 705.374 210.919 709.98 Q207.864 714.563 202.053 714.563 Q196.243 714.563 193.165 709.98 Q190.109 705.374 190.109 696.647 Q190.109 687.897 193.165 683.314 Q196.243 678.707 202.053 678.707 Z" fill="#000000" fill-rule="nonzero" fill-opacity="1" /><path clip-path="url(#clip350)" d="M67.3319 434.026 Q63.7208 434.026 61.8921 437.591 Q60.0865 441.132 60.0865 448.262 Q60.0865 455.369 61.8921 458.933 Q63.7208 462.475 67.3319 462.475 Q70.9661 462.475 72.7717 458.933 Q74.6004 455.369 74.6004 448.262 Q74.6004 441.132 72.7717 437.591 Q70.9661 434.026 67.3319 434.026 M67.3319 430.322 Q73.142 430.322 76.1976 434.929 Q79.2763 439.512 79.2763 448.262 Q79.2763 456.989 76.1976 461.595 Q73.142 466.179 67.3319 466.179 Q61.5217 466.179 58.443 461.595 Q55.3875 456.989 55.3875 448.262 Q55.3875 439.512 58.443 434.929 Q61.5217 430.322 67.3319 430.322 Z" fill="#000000" fill-rule="nonzero" fill-opacity="1" /><path clip-path="url(#clip350)" d="M87.4938 459.628 L92.378 459.628 L92.378 465.507 L87.4938 465.507 L87.4938 459.628 Z" fill="#000000" fill-rule="nonzero" fill-opacity="1" /><path clip-path="url(#clip350)" d="M112.563 434.026 Q108.952 434.026 107.123 437.591 Q105.318 441.132 105.318 448.262 Q105.318 455.369 107.123 458.933 Q108.952 462.475 112.563 462.475 Q116.197 462.475 118.003 458.933 Q119.832 455.369 119.832 448.262 Q119.832 441.132 118.003 437.591 Q116.197 434.026 112.563 434.026 M112.563 430.322 Q118.373 430.322 121.429 434.929 Q124.507 439.512 124.507 448.262 Q124.507 456.989 121.429 461.595 Q118.373 466.179 112.563 466.179 Q106.753 466.179 103.674 461.595 Q100.619 456.989 100.619 448.262 Q100.619 439.512 103.674 434.929 Q106.753 430.322 112.563 430.322 Z" fill="#000000" fill-rule="nonzero" fill-opacity="1" /><path clip-path="url(#clip350)" d="M133.535 461.572 L141.174 461.572 L141.174 435.207 L132.864 436.873 L132.864 432.614 L141.128 430.947 L145.804 430.947 L145.804 461.572 L153.443 461.572 L153.443 465.507 L133.535 465.507 L133.535 461.572 Z" fill="#000000" fill-rule="nonzero" fill-opacity="1" /><path clip-path="url(#clip350)" d="M166.915 461.572 L183.234 461.572 L183.234 465.507 L161.29 465.507 L161.29 461.572 Q163.952 458.818 168.535 454.188 Q173.141 449.535 174.322 448.193 Q176.567 445.67 177.447 443.933 Q178.35 442.174 178.35 440.484 Q178.35 437.73 176.405 435.994 Q174.484 434.258 171.382 434.258 Q169.183 434.258 166.729 435.021 Q164.299 435.785 161.521 437.336 L161.521 432.614 Q164.345 431.48 166.799 430.901 Q169.253 430.322 171.29 430.322 Q176.66 430.322 179.854 433.008 Q183.049 435.693 183.049 440.183 Q183.049 442.313 182.239 444.234 Q181.452 446.132 179.345 448.725 Q178.766 449.396 175.665 452.614 Q172.563 455.808 166.915 461.572 Z" fill="#000000" fill-rule="nonzero" fill-opacity="1" /><path clip-path="url(#clip350)" d="M193.095 430.947 L211.451 430.947 L211.451 434.883 L197.377 434.883 L197.377 443.355 Q198.396 443.007 199.414 442.845 Q200.433 442.66 201.452 442.66 Q207.239 442.66 210.618 445.832 Q213.998 449.003 213.998 454.419 Q213.998 459.998 210.526 463.1 Q207.053 466.179 200.734 466.179 Q198.558 466.179 196.29 465.808 Q194.044 465.438 191.637 464.697 L191.637 459.998 Q193.72 461.132 195.942 461.688 Q198.165 462.243 200.641 462.243 Q204.646 462.243 206.984 460.137 Q209.322 458.031 209.322 454.419 Q209.322 450.808 206.984 448.702 Q204.646 446.595 200.641 446.595 Q198.766 446.595 196.891 447.012 Q195.04 447.429 193.095 448.308 L193.095 430.947 Z" fill="#000000" fill-rule="nonzero" fill-opacity="1" /><path clip-path="url(#clip350)" d="M66.3365 185.641 Q62.7254 185.641 60.8967 189.206 Q59.0912 192.748 59.0912 199.877 Q59.0912 206.984 60.8967 210.549 Q62.7254 214.09 66.3365 214.09 Q69.9707 214.09 71.7763 210.549 Q73.605 206.984 73.605 199.877 Q73.605 192.748 71.7763 189.206 Q69.9707 185.641 66.3365 185.641 M66.3365 181.938 Q72.1467 181.938 75.2022 186.544 Q78.2809 191.127 78.2809 199.877 Q78.2809 208.604 75.2022 213.211 Q72.1467 217.794 66.3365 217.794 Q60.5264 217.794 57.4477 213.211 Q54.3921 208.604 54.3921 199.877 Q54.3921 191.127 57.4477 186.544 Q60.5264 181.938 66.3365 181.938 Z" fill="#000000" fill-rule="nonzero" fill-opacity="1" /><path clip-path="url(#clip350)" d="M86.4984 211.243 L91.3827 211.243 L91.3827 217.123 L86.4984 217.123 L86.4984 211.243 Z" fill="#000000" fill-rule="nonzero" fill-opacity="1" /><path clip-path="url(#clip350)" d="M111.568 185.641 Q107.957 185.641 106.128 189.206 Q104.322 192.748 104.322 199.877 Q104.322 206.984 106.128 210.549 Q107.957 214.09 111.568 214.09 Q115.202 214.09 117.008 210.549 Q118.836 206.984 118.836 199.877 Q118.836 192.748 117.008 189.206 Q115.202 185.641 111.568 185.641 M111.568 181.938 Q117.378 181.938 120.433 186.544 Q123.512 191.127 123.512 199.877 Q123.512 208.604 120.433 213.211 Q117.378 217.794 111.568 217.794 Q105.758 217.794 102.679 213.211 Q99.6234 208.604 99.6234 199.877 Q99.6234 191.127 102.679 186.544 Q105.758 181.938 111.568 181.938 Z" fill="#000000" fill-rule="nonzero" fill-opacity="1" /><path clip-path="url(#clip350)" d="M132.54 213.187 L140.179 213.187 L140.179 186.822 L131.869 188.488 L131.869 184.229 L140.132 182.563 L144.808 182.563 L144.808 213.187 L152.447 213.187 L152.447 217.123 L132.54 217.123 L132.54 213.187 Z" fill="#000000" fill-rule="nonzero" fill-opacity="1" /><path clip-path="url(#clip350)" d="M161.938 182.563 L180.294 182.563 L180.294 186.498 L166.22 186.498 L166.22 194.97 Q167.239 194.623 168.257 194.461 Q169.276 194.275 170.294 194.275 Q176.081 194.275 179.461 197.447 Q182.841 200.618 182.841 206.035 Q182.841 211.613 179.368 214.715 Q175.896 217.794 169.577 217.794 Q167.401 217.794 165.132 217.424 Q162.887 217.053 160.48 216.312 L160.48 211.613 Q162.563 212.748 164.785 213.303 Q167.007 213.859 169.484 213.859 Q173.489 213.859 175.827 211.752 Q178.165 209.646 178.165 206.035 Q178.165 202.424 175.827 200.317 Q173.489 198.211 169.484 198.211 Q167.609 198.211 165.734 198.627 Q163.882 199.044 161.938 199.924 L161.938 182.563 Z" fill="#000000" fill-rule="nonzero" fill-opacity="1" /><path clip-path="url(#clip350)" d="M202.053 185.641 Q198.442 185.641 196.614 189.206 Q194.808 192.748 194.808 199.877 Q194.808 206.984 196.614 210.549 Q198.442 214.09 202.053 214.09 Q205.688 214.09 207.493 210.549 Q209.322 206.984 209.322 199.877 Q209.322 192.748 207.493 189.206 Q205.688 185.641 202.053 185.641 M202.053 181.938 Q207.864 181.938 210.919 186.544 Q213.998 191.127 213.998 199.877 Q213.998 208.604 210.919 213.211 Q207.864 217.794 202.053 217.794 Q196.243 217.794 193.165 213.211 Q190.109 208.604 190.109 199.877 Q190.109 191.127 193.165 186.544 Q196.243 181.938 202.053 181.938 Z" fill="#000000" fill-rule="nonzero" fill-opacity="1" /><polyline clip-path="url(#clip352)" style="stroke:#009af9; stroke-linecap:round; stroke-linejoin:round; stroke-width:4; stroke-opacity:1; fill:none" points="280.353,1353.57 282.045,1358.03 283.737,1362.46 285.429,1366.85 287.121,1371.2 288.813,1375.51 290.505,1379.75 292.197,1383.93 293.889,1388.05 295.58,1392.09 297.272,1396.05 298.964,1399.92 300.656,1403.7 302.348,1407.39 304.04,1410.98 305.732,1414.46 307.424,1417.83 309.116,1421.08 310.808,1424.22 312.5,1427.24 314.192,1430.13 315.884,1432.89 317.576,1435.53 319.267,1438.03 320.959,1440.4 322.651,1442.63 324.343,1444.73 326.035,1446.69 327.727,1448.51 329.419,1450.19 331.111,1451.74 332.803,1453.14 334.495,1454.41 336.187,1455.54 337.879,1456.53 339.571,1457.39 341.262,1458.12 342.954,1458.71 344.646,1459.17 346.338,1459.51 348.03,1459.71 349.722,1459.8 351.414,1459.76 353.106,1459.6 354.798,1459.33 356.49,1458.94 358.182,1458.44 359.874,1457.83 361.566,1457.11 363.257,1456.29 364.949,1455.37 366.641,1454.35 368.333,1453.24 370.025,1452.03 371.717,1450.73 373.409,1449.35 375.101,1447.88 376.793,1446.32 378.485,1444.69 380.177,1442.98 381.869,1441.19 383.561,1439.33 385.252,1437.4 386.944,1435.4 388.636,1433.33 390.328,1431.19 392.02,1428.99 393.712,1426.73 395.404,1424.4 397.096,1422.02 398.788,1419.58 400.48,1417.08 402.172,1414.52 403.864,1411.91 405.556,1409.25 407.247,1406.53 408.939,1403.76 410.631,1400.93 412.323,1398.06 414.015,1395.13 415.707,1392.15 417.399,1389.12 419.091,1386.04 420.783,1382.91 422.475,1379.73 424.167,1376.5 425.859,1373.22 427.551,1369.9 429.242,1366.52 430.934,1363.08 432.626,1359.6 434.318,1356.07 436.01,1352.49 437.702,1348.85 439.394,1345.16 441.086,1341.42 442.778,1337.63 444.47,1333.78 446.162,1329.88 447.854,1325.92 449.546,1321.91 451.238,1317.84 452.929,1313.71 454.621,1309.53 456.313,1305.29 458.005,1300.99 459.697,1296.63 461.389,1292.21 463.081,1287.72 464.773,1283.18 466.465,1278.57 468.157,1273.9 469.849,1269.16 471.541,1264.36 473.233,1259.49 474.924,1254.55 476.616,1249.55 478.308,1244.48 480,1239.33 481.692,1234.12 483.384,1228.83 485.076,1223.47 486.768,1218.04 488.46,1212.54 490.152,1206.95 491.844,1201.3 493.536,1195.56 495.228,1189.75 496.919,1183.86 498.611,1177.88 500.303,1171.83 501.995,1165.7 503.687,1159.48 505.379,1153.18 507.071,1146.8 508.763,1140.33 510.455,1133.78 512.147,1127.14 513.839,1120.41 515.531,1113.6 517.223,1106.69 518.914,1099.7 520.606,1092.62 522.298,1085.45 523.99,1078.18 525.682,1070.83 527.374,1063.38 529.066,1055.84 530.758,1048.2 532.45,1040.47 534.142,1032.65 535.834,1024.73 537.526,1016.72 539.218,1008.61 540.909,1000.41 542.601,992.111 544.293,983.716 545.985,975.225 547.677,966.638 549.369,957.955 551.061,949.176 552.753,940.302 554.445,931.332 556.137,922.267 557.829,913.108 559.521,903.854 561.213,894.506 562.904,885.066 564.596,875.533 566.288,865.908 567.98,856.194 569.672,846.389 571.364,836.497 573.056,826.517 574.748,816.451 576.44,806.302 578.132,796.069 579.824,785.756 581.516,775.363 583.208,764.894 584.9,754.349 586.591,743.732 588.283,733.044 589.975,722.288 591.667,711.467 593.359,700.584 595.051,689.64 596.743,678.641 598.435,667.588 600.127,656.486 601.819,645.337 603.511,634.145 605.203,622.915 606.895,611.65 608.586,600.354 610.278,589.033 611.97,577.689 613.662,566.328 615.354,554.955 617.046,543.574 618.738,532.191 620.43,520.811 622.122,509.439 623.814,498.081 625.506,486.743 627.198,475.429 628.89,464.147 630.581,452.902 632.273,441.701 633.965,430.549 635.657,419.454 637.349,408.422 639.041,397.459 640.733,386.572 642.425,375.769 644.117,365.056 645.809,354.439 647.501,343.927 649.193,333.527 650.885,323.245 652.576,313.089 654.268,303.066 655.96,293.184 657.652,283.449 659.344,273.87 661.036,264.454 662.728,255.207 664.42,246.138 666.112,237.254 667.804,228.562 669.496,220.069 671.188,211.782 672.88,203.709 674.571,195.856 676.263,188.23 677.955,180.839 679.647,173.688 681.339,166.785 683.031,160.136 684.723,153.747 686.415,147.624 688.107,141.773 689.799,136.199 691.491,130.909 693.183,125.908 694.875,121.2 696.566,116.791 698.258,112.685 699.95,108.887 701.642,105.4 703.334,102.229 705.026,99.3774 706.718,96.848 708.41,94.6441 710.102,92.7685 711.794,91.2234 713.486,90.011 715.178,89.1332 716.87,88.5913 718.562,88.3864 720.253,88.5195 721.945,88.9909 723.637,89.8009 725.329,90.9492 727.021,92.4353 728.713,94.2583 730.405,96.417 732.097,98.9099 733.789,101.735 735.481,104.89 737.173,108.373 738.865,112.18 740.557,116.309 742.248,120.756 743.94,125.516 745.632,130.587 747.324,135.963 749.016,141.64 750.708,147.613 752.4,153.876 754.092,160.423 755.784,167.25 757.476,174.349 759.168,181.715 760.86,189.341 762.552,197.22 764.243,205.346 765.935,213.71 767.627,222.305 769.319,231.125 771.011,240.161 772.703,249.405 774.395,258.85 776.087,268.487 777.779,278.307 779.471,288.304 781.163,298.467 782.855,308.789 784.547,319.26 786.238,329.873 787.93,340.619 789.622,351.488 791.314,362.472 793.006,373.562 794.698,384.749 796.39,396.024 798.082,407.38 799.774,418.805 801.466,430.293 803.158,441.834 804.85,453.419 806.542,465.039 808.233,476.687 809.925,488.352 811.617,500.028 813.309,511.704 815.001,523.372 816.693,535.025 818.385,546.652 820.077,558.247 821.769,569.8 823.461,581.303 825.153,592.748 826.845,604.126 828.537,615.43 830.228,626.65 831.92,637.778 833.612,648.807 835.304,659.728 836.996,670.532 838.688,681.211 840.38,691.757 842.072,702.162 843.764,712.416 845.456,722.513 847.148,732.442 848.84,742.196 850.532,751.767 852.223,761.145 853.915,770.322 855.607,779.29 857.299,788.039 858.991,796.562 860.683,804.848 862.375,812.891 864.067,820.681 865.759,828.209 867.451,835.467 869.143,842.446 870.835,849.138 872.527,855.534 874.219,861.627 875.91,867.407 877.602,872.867 879.294,877.999 880.986,882.796 882.678,887.25 884.37,891.354 886.062,895.102 887.754,898.487 889.446,901.503 891.138,904.145 892.83,906.407 894.522,908.286 896.214,909.777 897.905,910.877 899.597,911.583 901.289,911.893 902.981,911.806 904.673,911.321 906.365,910.437 908.057,909.157 909.749,907.481 911.441,905.413 913.133,902.955 914.825,900.112 916.517,896.89 918.209,893.294 919.9,889.331 921.592,885.01 923.284,880.34 924.976,875.329 926.668,869.99 928.36,864.333 930.052,858.372 931.744,852.119 933.436,845.589 935.128,838.796 936.82,831.757 938.512,824.488 940.204,817.006 941.895,809.329 943.587,801.475 945.279,793.463 946.971,785.311 948.663,777.04 950.355,768.67 952.047,760.22 953.739,751.711 955.431,743.163 957.123,734.597 958.815,726.033 960.507,717.49 962.199,708.991 963.89,700.553 965.582,692.196 967.274,683.94 968.966,675.802 970.658,667.802 972.35,659.956 974.042,652.281 975.734,644.793 977.426,637.508 979.118,630.439 980.81,623.602 982.502,617.007 984.194,610.668 985.885,604.595 987.577,598.798 989.269,593.287 990.961,588.068 992.653,583.15 994.345,578.538 996.037,574.237 997.729,570.251 999.421,566.584 1001.11,563.238 1002.8,560.213 1004.5,557.51 1006.19,555.129 1007.88,553.067 1009.57,551.323 1011.26,549.894 1012.96,548.776 1014.65,547.964 1016.34,547.453 1018.03,547.238 1019.72,547.311 1021.42,547.667 1023.11,548.298 1024.8,549.196 1026.49,550.353 1028.18,551.761 1029.88,553.41 1031.57,555.292 1033.26,557.398 1034.95,559.718 1036.64,562.243 1038.34,564.963 1040.03,567.869 1041.72,570.951 1043.41,574.199 1045.1,577.604 1046.79,581.157 1048.49,584.848 1050.18,588.669 1051.87,592.609 1053.56,596.661 1055.25,600.815 1056.95,605.064 1058.64,609.4 1060.33,613.814 1062.02,618.298 1063.71,622.846 1065.41,627.45 1067.1,632.104 1068.79,636.801 1070.48,641.534 1072.17,646.299 1073.87,651.088 1075.56,655.897 1077.25,660.721 1078.94,665.554 1080.63,670.392 1082.33,675.232 1084.02,680.068 1085.71,684.897 1087.4,689.715 1089.09,694.519 1090.78,699.306 1092.48,704.072 1094.17,708.816 1095.86,713.535 1097.55,718.225 1099.24,722.886 1100.94,727.515 1102.63,732.111 1104.32,736.671 1106.01,741.194 1107.7,745.679 1109.4,750.124 1111.09,754.529 1112.78,758.892 1114.47,763.213 1116.16,767.49 1117.86,771.722 1119.55,775.91 1121.24,780.053 1122.93,784.149 1124.62,788.2 1126.32,792.203 1128.01,796.16 1129.7,800.069 1131.39,803.931 1133.08,807.745 1134.77,811.511 1136.47,815.229 1138.16,818.9 1139.85,822.522 1141.54,826.097 1143.23,829.623 1144.93,833.102 1146.62,836.533 1148.31,839.916 1150,843.251 1151.69,846.539 1153.39,849.779 1155.08,852.972 1156.77,856.118 1158.46,859.216 1160.15,862.268 1161.85,865.273 1163.54,868.231 1165.23,871.143 1166.92,874.008 1168.61,876.827 1170.31,879.6 1172,882.326 1173.69,885.007 1175.38,887.642 1177.07,890.231 1178.76,892.775 1180.46,895.273 1182.15,897.725 1183.84,900.132 1185.53,902.493 1187.22,904.809 1188.92,907.08 1190.61,909.305 1192.3,911.484 1193.99,913.618 1195.68,915.707 1197.38,917.749 1199.07,919.746 1200.76,921.697 1202.45,923.601 1204.14,925.459 1205.84,927.271 1207.53,929.035 1209.22,930.753 1210.91,932.423 1212.6,934.045 1214.3,935.618 1215.99,937.143 1217.68,938.619 1219.37,940.045 1221.06,941.421 1222.75,942.746 1224.45,944.019 1226.14,945.24 1227.83,946.407 1229.52,947.521 1231.21,948.58 1232.91,949.583 1234.6,950.529 1236.29,951.417 1237.98,952.246 1239.67,953.015 1241.37,953.722 1243.06,954.365 1244.75,954.945 1246.44,955.458 1248.13,955.903 1249.83,956.279 1251.52,956.583 1253.21,956.815 1254.9,956.971 1256.59,957.05 1258.29,957.049 1259.98,956.967 1261.67,956.801 1263.36,956.549 1265.05,956.207 1266.74,955.775 1268.44,955.248 1270.13,954.625 1271.82,953.902 1273.51,953.077 1275.2,952.147 1276.9,951.11 1278.59,949.961 1280.28,948.698 1281.97,947.319 1283.66,945.82 1285.36,944.199 1287.05,942.452 1288.74,940.578 1290.43,938.572 1292.12,936.433 1293.82,934.157 1295.51,931.744 1297.2,929.189 1298.89,926.492 1300.58,923.65 1302.28,920.662 1303.97,917.526 1305.66,914.24 1307.35,910.806 1309.04,907.22 1310.73,903.485 1312.43,899.598 1314.12,895.562 1315.81,891.378 1317.5,887.045 1319.19,882.568 1320.89,877.947 1322.58,873.186 1324.27,868.288 1325.96,863.258 1327.65,858.099 1329.35,852.817 1331.04,847.419 1332.73,841.909 1334.42,836.295 1336.11,830.585 1337.81,824.787 1339.5,818.91 1341.19,812.963 1342.88,806.957 1344.57,800.901 1346.27,794.808 1347.96,788.689 1349.65,782.557 1351.34,776.424 1353.03,770.304 1354.72,764.211 1356.42,758.159 1358.11,752.162 1359.8,746.236 1361.49,740.397 1363.18,734.659 1364.88,729.038 1366.57,723.55 1368.26,718.211 1369.95,713.038 1371.64,708.045 1373.34,703.248 1375.03,698.664 1376.72,694.307 1378.41,690.193 1380.1,686.336 1381.8,682.75 1383.49,679.45 1385.18,676.447 1386.87,673.755 1388.56,671.386 1390.26,669.35 1391.95,667.657 1393.64,666.318 1395.33,665.34 1397.02,664.731 1398.71,664.497 1400.41,664.644 1402.1,665.177 1403.79,666.098 1405.48,667.41 1407.17,669.114 1408.87,671.209 1410.56,673.696 1412.25,676.57 1413.94,679.83 1415.63,683.47 1417.33,687.485 1419.02,691.868 1420.71,696.611 1422.4,701.705 1424.09,707.141 1425.79,712.909 1427.48,718.995 1429.17,725.388 1430.86,732.076 1432.55,739.043 1434.25,746.275 1435.94,753.757 1437.63,761.474 1439.32,769.409 1441.01,777.546 1442.7,785.868 1444.4,794.357 1446.09,802.997 1447.78,811.77 1449.47,820.659 1451.16,829.645 1452.86,838.713 1454.55,847.844 1456.24,857.022 1457.93,866.23 1459.62,875.451 1461.32,884.671 1463.01,893.873 1464.7,903.042 1466.39,912.164 1468.08,921.225 1469.78,930.211 1471.47,939.111 1473.16,947.912 1474.85,956.603 1476.54,965.174 1478.24,973.614 1479.93,981.914 1481.62,990.067 1483.31,998.065 1485,1005.9 1486.7,1013.57 1488.39,1021.06 1490.08,1028.38 1491.77,1035.52 1493.46,1042.47 1495.15,1049.24 1496.85,1055.81 1498.54,1062.2 1500.23,1068.4 1501.92,1074.41 1503.61,1080.23 1505.31,1085.87 1507,1091.32 1508.69,1096.59 1510.38,1101.68 1512.07,1106.6 1513.77,1111.34 1515.46,1115.92 1517.15,1120.34 1518.84,1124.6 1520.53,1128.71 1522.23,1132.68 1523.92,1136.5 1525.61,1140.19 1527.3,1143.76 1528.99,1147.21 1530.69,1150.54 1532.38,1153.77 1534.07,1156.89 1535.76,1159.93 1537.45,1162.88 1539.14,1165.76 1540.84,1168.56 1542.53,1171.31 1544.22,1174 1545.91,1176.64 1547.6,1179.23 1549.3,1181.8 1550.99,1184.34 1552.68,1186.86 1554.37,1189.37 1556.06,1191.87 1557.76,1194.37 1559.45,1196.88 1561.14,1199.4 1562.83,1201.94 1564.52,1204.5 1566.22,1207.1 1567.91,1209.73 1569.6,1212.4 1571.29,1215.11 1572.98,1217.88 1574.68,1220.7 1576.37,1223.57 1578.06,1226.51 1579.75,1229.51 1581.44,1232.57 1583.13,1235.71 1584.83,1238.91 1586.52,1242.19 1588.21,1245.54 1589.9,1248.97 1591.59,1252.47 1593.29,1256.05 1594.98,1259.7 1596.67,1263.42 1598.36,1267.22 1600.05,1271.09 1601.75,1275.03 1603.44,1279.03 1605.13,1283.1 1606.82,1287.24 1608.51,1291.43 1610.21,1295.67 1611.9,1299.96 1613.59,1304.3 1615.28,1308.69 1616.97,1313.1 1618.67,1317.55 1620.36,1322.03 1622.05,1326.52 1623.74,1331.03 1625.43,1335.54 1627.12,1340.06 1628.82,1344.58 1630.51,1349.08 1632.2,1353.57 "/>
<path clip-path="url(#clip350)" d="M796.05 199.381 L1624.99 199.381 L1624.99 95.7006 L796.05 95.7006  Z" fill="#ffffff" fill-rule="evenodd" fill-opacity="1"/>
<polyline clip-path="url(#clip350)" style="stroke:#000000; stroke-linecap:round; stroke-linejoin:round; stroke-width:4; stroke-opacity:1; fill:none" points="796.05,199.381 1624.99,199.381 1624.99,95.7006 796.05,95.7006 796.05,199.381 "/>
<polyline clip-path="url(#clip350)" style="stroke:#009af9; stroke-linecap:round; stroke-linejoin:round; stroke-width:4; stroke-opacity:1; fill:none" points="811.972,147.541 907.503,147.541 "/>
<path clip-path="url(#clip350)" d="M943.772 143.872 Q945.369 141.001 947.591 139.636 Q949.813 138.27 952.822 138.27 Q956.873 138.27 959.072 141.117 Q961.271 143.941 961.271 149.173 L961.271 164.821 L956.989 164.821 L956.989 149.311 Q956.989 145.585 955.67 143.779 Q954.35 141.974 951.642 141.974 Q948.332 141.974 946.41 144.173 Q944.489 146.372 944.489 150.168 L944.489 164.821 L940.207 164.821 L940.207 149.311 Q940.207 145.561 938.887 143.779 Q937.568 141.974 934.813 141.974 Q931.549 141.974 929.628 144.196 Q927.707 146.395 927.707 150.168 L927.707 164.821 L923.424 164.821 L923.424 138.895 L927.707 138.895 L927.707 142.923 Q929.165 140.538 931.202 139.404 Q933.239 138.27 936.04 138.27 Q938.864 138.27 940.832 139.705 Q942.822 141.14 943.772 143.872 Z" fill="#000000" fill-rule="nonzero" fill-opacity="1" /><path clip-path="url(#clip350)" d="M991.943 150.793 L991.943 152.876 L972.359 152.876 Q972.637 157.274 974.998 159.589 Q977.382 161.881 981.619 161.881 Q984.072 161.881 986.364 161.279 Q988.679 160.677 990.947 159.473 L990.947 163.501 Q988.656 164.473 986.248 164.983 Q983.841 165.492 981.364 165.492 Q975.16 165.492 971.526 161.881 Q967.915 158.27 967.915 152.112 Q967.915 145.747 971.341 142.02 Q974.79 138.27 980.623 138.27 Q985.855 138.27 988.887 141.649 Q991.943 145.006 991.943 150.793 M987.683 149.543 Q987.637 146.048 985.716 143.964 Q983.818 141.881 980.669 141.881 Q977.105 141.881 974.952 143.895 Q972.822 145.909 972.498 149.566 L987.683 149.543 Z" fill="#000000" fill-rule="nonzero" fill-opacity="1" /><path clip-path="url(#clip350)" d="M1010.72 151.788 Q1005.55 151.788 1003.56 152.969 Q1001.57 154.149 1001.57 156.997 Q1001.57 159.265 1003.05 160.608 Q1004.56 161.927 1007.13 161.927 Q1010.67 161.927 1012.8 159.427 Q1014.95 156.904 1014.95 152.737 L1014.95 151.788 L1010.72 151.788 M1019.21 150.029 L1019.21 164.821 L1014.95 164.821 L1014.95 160.885 Q1013.49 163.247 1011.32 164.381 Q1009.14 165.492 1005.99 165.492 Q1002.01 165.492 999.651 163.27 Q997.313 161.024 997.313 157.274 Q997.313 152.899 1000.23 150.677 Q1003.17 148.455 1008.98 148.455 L1014.95 148.455 L1014.95 148.038 Q1014.95 145.099 1013.01 143.501 Q1011.09 141.881 1007.59 141.881 Q1005.37 141.881 1003.26 142.413 Q1001.16 142.946 999.211 144.011 L999.211 140.075 Q1001.55 139.173 1003.75 138.733 Q1005.95 138.27 1008.03 138.27 Q1013.66 138.27 1016.43 141.186 Q1019.21 144.103 1019.21 150.029 Z" fill="#000000" fill-rule="nonzero" fill-opacity="1" /><path clip-path="url(#clip350)" d="M1044.51 139.659 L1044.51 143.686 Q1042.71 142.761 1040.76 142.298 Q1038.82 141.835 1036.73 141.835 Q1033.56 141.835 1031.97 142.807 Q1030.39 143.779 1030.39 145.723 Q1030.39 147.205 1031.53 148.061 Q1032.66 148.895 1036.09 149.659 L1037.54 149.983 Q1042.08 150.955 1043.98 152.737 Q1045.9 154.497 1045.9 157.668 Q1045.9 161.279 1043.03 163.385 Q1040.18 165.492 1035.18 165.492 Q1033.1 165.492 1030.83 165.075 Q1028.59 164.682 1026.09 163.872 L1026.09 159.473 Q1028.45 160.7 1030.74 161.325 Q1033.03 161.927 1035.28 161.927 Q1038.28 161.927 1039.91 160.909 Q1041.53 159.867 1041.53 157.992 Q1041.53 156.256 1040.35 155.33 Q1039.19 154.404 1035.23 153.548 L1033.75 153.2 Q1029.79 152.367 1028.03 150.654 Q1026.27 148.918 1026.27 145.909 Q1026.27 142.251 1028.86 140.261 Q1031.46 138.27 1036.22 138.27 Q1038.59 138.27 1040.67 138.617 Q1042.75 138.964 1044.51 139.659 Z" fill="#000000" fill-rule="nonzero" fill-opacity="1" /><path clip-path="url(#clip350)" d="M1052.24 154.589 L1052.24 138.895 L1056.5 138.895 L1056.5 154.427 Q1056.5 158.108 1057.94 159.96 Q1059.37 161.788 1062.24 161.788 Q1065.69 161.788 1067.68 159.589 Q1069.7 157.39 1069.7 153.594 L1069.7 138.895 L1073.96 138.895 L1073.96 164.821 L1069.7 164.821 L1069.7 160.839 Q1068.15 163.2 1066.09 164.358 Q1064.05 165.492 1061.34 165.492 Q1056.87 165.492 1054.56 162.714 Q1052.24 159.936 1052.24 154.589 M1062.96 138.27 L1062.96 138.27 Z" fill="#000000" fill-rule="nonzero" fill-opacity="1" /><path clip-path="url(#clip350)" d="M1097.75 142.876 Q1097.03 142.46 1096.18 142.274 Q1095.34 142.066 1094.33 142.066 Q1090.72 142.066 1088.77 144.427 Q1086.85 146.765 1086.85 151.163 L1086.85 164.821 L1082.57 164.821 L1082.57 138.895 L1086.85 138.895 L1086.85 142.923 Q1088.19 140.561 1090.34 139.427 Q1092.5 138.27 1095.58 138.27 Q1096.02 138.27 1096.55 138.339 Q1097.08 138.386 1097.73 138.501 L1097.75 142.876 Z" fill="#000000" fill-rule="nonzero" fill-opacity="1" /><path clip-path="url(#clip350)" d="M1123.35 150.793 L1123.35 152.876 L1103.77 152.876 Q1104.05 157.274 1106.41 159.589 Q1108.79 161.881 1113.03 161.881 Q1115.48 161.881 1117.78 161.279 Q1120.09 160.677 1122.36 159.473 L1122.36 163.501 Q1120.07 164.473 1117.66 164.983 Q1115.25 165.492 1112.78 165.492 Q1106.57 165.492 1102.94 161.881 Q1099.33 158.27 1099.33 152.112 Q1099.33 145.747 1102.75 142.02 Q1106.2 138.27 1112.03 138.27 Q1117.27 138.27 1120.3 141.649 Q1123.35 145.006 1123.35 150.793 M1119.09 149.543 Q1119.05 146.048 1117.13 143.964 Q1115.23 141.881 1112.08 141.881 Q1108.52 141.881 1106.36 143.895 Q1104.23 145.909 1103.91 149.566 L1119.09 149.543 Z" fill="#000000" fill-rule="nonzero" fill-opacity="1" /><path clip-path="url(#clip350)" d="M1150.53 143.872 Q1152.13 141.001 1154.35 139.636 Q1156.57 138.27 1159.58 138.27 Q1163.63 138.27 1165.83 141.117 Q1168.03 143.941 1168.03 149.173 L1168.03 164.821 L1163.75 164.821 L1163.75 149.311 Q1163.75 145.585 1162.43 143.779 Q1161.11 141.974 1158.4 141.974 Q1155.09 141.974 1153.17 144.173 Q1151.25 146.372 1151.25 150.168 L1151.25 164.821 L1146.96 164.821 L1146.96 149.311 Q1146.96 145.561 1145.65 143.779 Q1144.33 141.974 1141.57 141.974 Q1138.31 141.974 1136.39 144.196 Q1134.46 146.395 1134.46 150.168 L1134.46 164.821 L1130.18 164.821 L1130.18 138.895 L1134.46 138.895 L1134.46 142.923 Q1135.92 140.538 1137.96 139.404 Q1140 138.27 1142.8 138.27 Q1145.62 138.27 1147.59 139.705 Q1149.58 141.14 1150.53 143.872 Z" fill="#000000" fill-rule="nonzero" fill-opacity="1" /><path clip-path="url(#clip350)" d="M1198.7 150.793 L1198.7 152.876 L1179.12 152.876 Q1179.4 157.274 1181.76 159.589 Q1184.14 161.881 1188.38 161.881 Q1190.83 161.881 1193.12 161.279 Q1195.44 160.677 1197.71 159.473 L1197.71 163.501 Q1195.41 164.473 1193.01 164.983 Q1190.6 165.492 1188.12 165.492 Q1181.92 165.492 1178.28 161.881 Q1174.67 158.27 1174.67 152.112 Q1174.67 145.747 1178.1 142.02 Q1181.55 138.27 1187.38 138.27 Q1192.61 138.27 1195.65 141.649 Q1198.7 145.006 1198.7 150.793 M1194.44 149.543 Q1194.4 146.048 1192.47 143.964 Q1190.58 141.881 1187.43 141.881 Q1183.86 141.881 1181.71 143.895 Q1179.58 145.909 1179.26 149.566 L1194.44 149.543 Z" fill="#000000" fill-rule="nonzero" fill-opacity="1" /><path clip-path="url(#clip350)" d="M1227.24 149.173 L1227.24 164.821 L1222.98 164.821 L1222.98 149.311 Q1222.98 145.631 1221.55 143.802 Q1220.11 141.974 1217.24 141.974 Q1213.79 141.974 1211.8 144.173 Q1209.81 146.372 1209.81 150.168 L1209.81 164.821 L1205.53 164.821 L1205.53 138.895 L1209.81 138.895 L1209.81 142.923 Q1211.34 140.585 1213.4 139.427 Q1215.48 138.27 1218.19 138.27 Q1222.66 138.27 1224.95 141.048 Q1227.24 143.802 1227.24 149.173 Z" fill="#000000" fill-rule="nonzero" fill-opacity="1" /><path clip-path="url(#clip350)" d="M1239.95 131.534 L1239.95 138.895 L1248.72 138.895 L1248.72 142.205 L1239.95 142.205 L1239.95 156.279 Q1239.95 159.45 1240.81 160.353 Q1241.69 161.256 1244.35 161.256 L1248.72 161.256 L1248.72 164.821 L1244.35 164.821 Q1239.42 164.821 1237.54 162.992 Q1235.67 161.14 1235.67 156.279 L1235.67 142.205 L1232.54 142.205 L1232.54 138.895 L1235.67 138.895 L1235.67 131.534 L1239.95 131.534 Z" fill="#000000" fill-rule="nonzero" fill-opacity="1" /><path clip-path="url(#clip350)" d="M1270.85 139.659 L1270.85 143.686 Q1269.05 142.761 1267.1 142.298 Q1265.16 141.835 1263.08 141.835 Q1259.9 141.835 1258.31 142.807 Q1256.73 143.779 1256.73 145.723 Q1256.73 147.205 1257.87 148.061 Q1259 148.895 1262.43 149.659 L1263.89 149.983 Q1268.42 150.955 1270.32 152.737 Q1272.24 154.497 1272.24 157.668 Q1272.24 161.279 1269.37 163.385 Q1266.52 165.492 1261.52 165.492 Q1259.44 165.492 1257.17 165.075 Q1254.93 164.682 1252.43 163.872 L1252.43 159.473 Q1254.79 160.7 1257.08 161.325 Q1259.37 161.927 1261.62 161.927 Q1264.63 161.927 1266.25 160.909 Q1267.87 159.867 1267.87 157.992 Q1267.87 156.256 1266.69 155.33 Q1265.53 154.404 1261.57 153.548 L1260.09 153.2 Q1256.13 152.367 1254.37 150.654 Q1252.61 148.918 1252.61 145.909 Q1252.61 142.251 1255.21 140.261 Q1257.8 138.27 1262.57 138.27 Q1264.93 138.27 1267.01 138.617 Q1269.09 138.964 1270.85 139.659 Z" fill="#000000" fill-rule="nonzero" fill-opacity="1" /><path clip-path="url(#clip350)" d="M1304.33 128.849 Q1301.22 134.173 1299.72 139.381 Q1298.21 144.589 1298.21 149.936 Q1298.21 155.284 1299.72 160.538 Q1301.25 165.77 1304.33 171.071 L1300.62 171.071 Q1297.15 165.631 1295.41 160.376 Q1293.7 155.122 1293.7 149.936 Q1293.7 144.774 1295.41 139.543 Q1297.13 134.312 1300.62 128.849 L1304.33 128.849 Z" fill="#000000" fill-rule="nonzero" fill-opacity="1" /><path clip-path="url(#clip350)" d="M1334.76 150.793 L1334.76 152.876 L1315.18 152.876 Q1315.46 157.274 1317.82 159.589 Q1320.2 161.881 1324.44 161.881 Q1326.89 161.881 1329.19 161.279 Q1331.5 160.677 1333.77 159.473 L1333.77 163.501 Q1331.48 164.473 1329.07 164.983 Q1326.66 165.492 1324.19 165.492 Q1317.98 165.492 1314.35 161.881 Q1310.74 158.27 1310.74 152.112 Q1310.74 145.747 1314.16 142.02 Q1317.61 138.27 1323.45 138.27 Q1328.68 138.27 1331.71 141.649 Q1334.76 145.006 1334.76 150.793 M1330.51 149.543 Q1330.46 146.048 1328.54 143.964 Q1326.64 141.881 1323.49 141.881 Q1319.93 141.881 1317.77 143.895 Q1315.64 145.909 1315.32 149.566 L1330.51 149.543 Z" fill="#000000" fill-rule="nonzero" fill-opacity="1" /><path clip-path="url(#clip350)" d="M1362.47 138.895 L1353.1 151.511 L1362.96 164.821 L1357.94 164.821 L1350.39 154.635 L1342.84 164.821 L1337.82 164.821 L1347.89 151.256 L1338.68 138.895 L1343.7 138.895 L1350.57 148.131 L1357.45 138.895 L1362.47 138.895 Z" fill="#000000" fill-rule="nonzero" fill-opacity="1" /><path clip-path="url(#clip350)" d="M1373.19 131.534 L1373.19 138.895 L1381.96 138.895 L1381.96 142.205 L1373.19 142.205 L1373.19 156.279 Q1373.19 159.45 1374.05 160.353 Q1374.93 161.256 1377.59 161.256 L1381.96 161.256 L1381.96 164.821 L1377.59 164.821 Q1372.66 164.821 1370.78 162.992 Q1368.91 161.14 1368.91 156.279 L1368.91 142.205 L1365.78 142.205 L1365.78 138.895 L1368.91 138.895 L1368.91 131.534 L1373.19 131.534 Z" fill="#000000" fill-rule="nonzero" fill-opacity="1" /><path clip-path="url(#clip350)" d="M1402.59 142.876 Q1401.87 142.46 1401.01 142.274 Q1400.18 142.066 1399.16 142.066 Q1395.55 142.066 1393.61 144.427 Q1391.69 146.765 1391.69 151.163 L1391.69 164.821 L1387.4 164.821 L1387.4 138.895 L1391.69 138.895 L1391.69 142.923 Q1393.03 140.561 1395.18 139.427 Q1397.33 138.27 1400.41 138.27 Q1400.85 138.27 1401.38 138.339 Q1401.92 138.386 1402.57 138.501 L1402.59 142.876 Z" fill="#000000" fill-rule="nonzero" fill-opacity="1" /><path clip-path="url(#clip350)" d="M1418.84 151.788 Q1413.68 151.788 1411.69 152.969 Q1409.69 154.149 1409.69 156.997 Q1409.69 159.265 1411.18 160.608 Q1412.68 161.927 1415.25 161.927 Q1418.79 161.927 1420.92 159.427 Q1423.07 156.904 1423.07 152.737 L1423.07 151.788 L1418.84 151.788 M1427.33 150.029 L1427.33 164.821 L1423.07 164.821 L1423.07 160.885 Q1421.62 163.247 1419.44 164.381 Q1417.26 165.492 1414.12 165.492 Q1410.13 165.492 1407.77 163.27 Q1405.44 161.024 1405.44 157.274 Q1405.44 152.899 1408.35 150.677 Q1411.29 148.455 1417.1 148.455 L1423.07 148.455 L1423.07 148.038 Q1423.07 145.099 1421.13 143.501 Q1419.21 141.881 1415.71 141.881 Q1413.49 141.881 1411.38 142.413 Q1409.28 142.946 1407.33 144.011 L1407.33 140.075 Q1409.67 139.173 1411.87 138.733 Q1414.07 138.27 1416.15 138.27 Q1421.78 138.27 1424.56 141.186 Q1427.33 144.103 1427.33 150.029 Z" fill="#000000" fill-rule="nonzero" fill-opacity="1" /><path clip-path="url(#clip350)" d="M1454.76 139.89 L1454.76 143.872 Q1452.96 142.876 1451.13 142.39 Q1449.32 141.881 1447.47 141.881 Q1443.33 141.881 1441.04 144.52 Q1438.75 147.136 1438.75 151.881 Q1438.75 156.626 1441.04 159.265 Q1443.33 161.881 1447.47 161.881 Q1449.32 161.881 1451.13 161.395 Q1452.96 160.885 1454.76 159.89 L1454.76 163.825 Q1452.98 164.659 1451.06 165.075 Q1449.16 165.492 1447.01 165.492 Q1441.15 165.492 1437.7 161.811 Q1434.25 158.131 1434.25 151.881 Q1434.25 145.538 1437.73 141.904 Q1441.22 138.27 1447.29 138.27 Q1449.25 138.27 1451.13 138.687 Q1453 139.08 1454.76 139.89 Z" fill="#000000" fill-rule="nonzero" fill-opacity="1" /><path clip-path="url(#clip350)" d="M1466.38 131.534 L1466.38 138.895 L1475.16 138.895 L1475.16 142.205 L1466.38 142.205 L1466.38 156.279 Q1466.38 159.45 1467.24 160.353 Q1468.12 161.256 1470.78 161.256 L1475.16 161.256 L1475.16 164.821 L1470.78 164.821 Q1465.85 164.821 1463.98 162.992 Q1462.1 161.14 1462.1 156.279 L1462.1 142.205 L1458.98 142.205 L1458.98 138.895 L1462.1 138.895 L1462.1 131.534 L1466.38 131.534 Z" fill="#000000" fill-rule="nonzero" fill-opacity="1" /><path clip-path="url(#clip350)" d="M1480.76 138.895 L1485.02 138.895 L1485.02 164.821 L1480.76 164.821 L1480.76 138.895 M1480.76 128.802 L1485.02 128.802 L1485.02 134.196 L1480.76 134.196 L1480.76 128.802 Z" fill="#000000" fill-rule="nonzero" fill-opacity="1" /><path clip-path="url(#clip350)" d="M1503.98 141.881 Q1500.55 141.881 1498.56 144.566 Q1496.57 147.228 1496.57 151.881 Q1496.57 156.534 1498.54 159.219 Q1500.53 161.881 1503.98 161.881 Q1507.38 161.881 1509.37 159.196 Q1511.36 156.51 1511.36 151.881 Q1511.36 147.274 1509.37 144.589 Q1507.38 141.881 1503.98 141.881 M1503.98 138.27 Q1509.53 138.27 1512.7 141.881 Q1515.87 145.492 1515.87 151.881 Q1515.87 158.247 1512.7 161.881 Q1509.53 165.492 1503.98 165.492 Q1498.4 165.492 1495.23 161.881 Q1492.08 158.247 1492.08 151.881 Q1492.08 145.492 1495.23 141.881 Q1498.4 138.27 1503.98 138.27 Z" fill="#000000" fill-rule="nonzero" fill-opacity="1" /><path clip-path="url(#clip350)" d="M1544.49 149.173 L1544.49 164.821 L1540.23 164.821 L1540.23 149.311 Q1540.23 145.631 1538.79 143.802 Q1537.36 141.974 1534.49 141.974 Q1531.04 141.974 1529.05 144.173 Q1527.06 146.372 1527.06 150.168 L1527.06 164.821 L1522.77 164.821 L1522.77 138.895 L1527.06 138.895 L1527.06 142.923 Q1528.58 140.585 1530.64 139.427 Q1532.73 138.27 1535.44 138.27 Q1539.9 138.27 1542.19 141.048 Q1544.49 143.802 1544.49 149.173 Z" fill="#000000" fill-rule="nonzero" fill-opacity="1" /><path clip-path="url(#clip350)" d="M1554.07 158.941 L1558.95 158.941 L1558.95 164.821 L1554.07 164.821 L1554.07 158.941 M1554.07 140.307 L1558.95 140.307 L1558.95 146.186 L1554.07 146.186 L1554.07 140.307 Z" fill="#000000" fill-rule="nonzero" fill-opacity="1" /><path clip-path="url(#clip350)" d="M1583.72 146.186 Q1587.08 146.904 1588.95 149.173 Q1590.85 151.441 1590.85 154.774 Q1590.85 159.89 1587.33 162.691 Q1583.81 165.492 1577.33 165.492 Q1575.16 165.492 1572.84 165.052 Q1570.55 164.635 1568.1 163.779 L1568.1 159.265 Q1570.04 160.399 1572.36 160.978 Q1574.67 161.557 1577.19 161.557 Q1581.59 161.557 1583.88 159.821 Q1586.2 158.085 1586.2 154.774 Q1586.2 151.719 1584.05 150.006 Q1581.92 148.27 1578.1 148.27 L1574.07 148.27 L1574.07 144.427 L1578.28 144.427 Q1581.73 144.427 1583.56 143.061 Q1585.39 141.673 1585.39 139.08 Q1585.39 136.418 1583.49 135.006 Q1581.62 133.571 1578.1 133.571 Q1576.18 133.571 1573.98 133.987 Q1571.78 134.404 1569.14 135.284 L1569.14 131.117 Q1571.8 130.376 1574.12 130.006 Q1576.45 129.636 1578.51 129.636 Q1583.84 129.636 1586.94 132.066 Q1590.04 134.474 1590.04 138.594 Q1590.04 141.464 1588.4 143.455 Q1586.75 145.423 1583.72 146.186 Z" fill="#000000" fill-rule="nonzero" fill-opacity="1" /><path clip-path="url(#clip350)" d="M1598.44 128.849 L1602.15 128.849 Q1605.62 134.312 1607.33 139.543 Q1609.07 144.774 1609.07 149.936 Q1609.07 155.122 1607.33 160.376 Q1605.62 165.631 1602.15 171.071 L1598.44 171.071 Q1601.52 165.77 1603.03 160.538 Q1604.56 155.284 1604.56 149.936 Q1604.56 144.589 1603.03 139.381 Q1601.52 134.173 1598.44 128.849 Z" fill="#000000" fill-rule="nonzero" fill-opacity="1" /></svg>
