<?xml version="1.0" encoding="utf-8"?>
<svg xmlns="http://www.w3.org/2000/svg" xmlns:xlink="http://www.w3.org/1999/xlink" width="430" height="430" viewBox="0 0 1720 1720">
<defs>
  <clipPath id="clip240">
    <rect x="0" y="0" width="1720" height="1720"/>
  </clipPath>
</defs>
<path clip-path="url(#clip240)" d="M0 1720 L1720 1720 L1720 0 L0 0  Z" fill="#ffffff" fill-rule="evenodd" fill-opacity="1"/>
<defs>
  <clipPath id="clip241">
    <rect x="344" y="172" width="1205" height="1205"/>
  </clipPath>
</defs>
<path clip-path="url(#clip240)" d="M239.798 1500.94 L1609.76 1500.94 L1609.76 47.2441 L239.798 47.2441  Z" fill="#ffffff" fill-rule="evenodd" fill-opacity="1"/>
<defs>
  <clipPath id="clip242">
    <rect x="239" y="47" width="1371" height="1455"/>
  </clipPath>
</defs>
<polyline clip-path="url(#clip242)" style="stroke:#000000; stroke-linecap:round; stroke-linejoin:round; stroke-width:2; stroke-opacity:0.1; fill:none" points="278.57,1500.94 278.57,47.2441 "/>
<polyline clip-path="url(#clip242)" style="stroke:#000000; stroke-linecap:round; stroke-linejoin:round; stroke-width:2; stroke-opacity:0.1; fill:none" points="484.266,1500.94 484.266,47.2441 "/>
<polyline clip-path="url(#clip242)" style="stroke:#000000; stroke-linecap:round; stroke-linejoin:round; stroke-width:2; stroke-opacity:0.1; fill:none" points="689.961,1500.94 689.961,47.2441 "/>
<polyline clip-path="url(#clip242)" style="stroke:#000000; stroke-linecap:round; stroke-linejoin:round; stroke-width:2; stroke-opacity:0.1; fill:none" points="895.656,1500.94 895.656,47.2441 "/>
<polyline clip-path="url(#clip242)" style="stroke:#000000; stroke-linecap:round; stroke-linejoin:round; stroke-width:2; stroke-opacity:0.1; fill:none" points="1101.35,1500.94 1101.35,47.2441 "/>
<polyline clip-path="url(#clip242)" style="stroke:#000000; stroke-linecap:round; stroke-linejoin:round; stroke-width:2; stroke-opacity:0.1; fill:none" points="1307.05,1500.94 1307.05,47.2441 "/>
<polyline clip-path="url(#clip242)" style="stroke:#000000; stroke-linecap:round; stroke-linejoin:round; stroke-width:2; stroke-opacity:0.1; fill:none" points="1512.74,1500.94 1512.74,47.2441 "/>
<polyline clip-path="url(#clip240)" style="stroke:#000000; stroke-linecap:round; stroke-linejoin:round; stroke-width:4; stroke-opacity:1; fill:none" points="239.798,1500.94 1609.76,1500.94 "/>
<polyline clip-path="url(#clip240)" style="stroke:#000000; stroke-linecap:round; stroke-linejoin:round; stroke-width:4; stroke-opacity:1; fill:none" points="278.57,1500.94 278.57,1482.04 "/>
<polyline clip-path="url(#clip240)" style="stroke:#000000; stroke-linecap:round; stroke-linejoin:round; stroke-width:4; stroke-opacity:1; fill:none" points="484.266,1500.94 484.266,1482.04 "/>
<polyline clip-path="url(#clip240)" style="stroke:#000000; stroke-linecap:round; stroke-linejoin:round; stroke-width:4; stroke-opacity:1; fill:none" points="689.961,1500.94 689.961,1482.04 "/>
<polyline clip-path="url(#clip240)" style="stroke:#000000; stroke-linecap:round; stroke-linejoin:round; stroke-width:4; stroke-opacity:1; fill:none" points="895.656,1500.94 895.656,1482.04 "/>
<polyline clip-path="url(#clip240)" style="stroke:#000000; stroke-linecap:round; stroke-linejoin:round; stroke-width:4; stroke-opacity:1; fill:none" points="1101.35,1500.94 1101.35,1482.04 "/>
<polyline clip-path="url(#clip240)" style="stroke:#000000; stroke-linecap:round; stroke-linejoin:round; stroke-width:4; stroke-opacity:1; fill:none" points="1307.05,1500.94 1307.05,1482.04 "/>
<polyline clip-path="url(#clip240)" style="stroke:#000000; stroke-linecap:round; stroke-linejoin:round; stroke-width:4; stroke-opacity:1; fill:none" points="1512.74,1500.94 1512.74,1482.04 "/>
<path clip-path="url(#clip240)" d="M278.57 1526.42 Q274.959 1526.42 273.131 1529.98 Q271.325 1533.52 271.325 1540.65 Q271.325 1547.76 273.131 1551.33 Q274.959 1554.87 278.57 1554.87 Q282.205 1554.87 284.01 1551.33 Q285.839 1547.76 285.839 1540.65 Q285.839 1533.52 284.01 1529.98 Q282.205 1526.42 278.57 1526.42 M278.57 1522.71 Q284.381 1522.71 287.436 1527.32 Q290.515 1531.9 290.515 1540.65 Q290.515 1549.38 287.436 1553.99 Q284.381 1558.57 278.57 1558.57 Q272.76 1558.57 269.682 1553.99 Q266.626 1549.38 266.626 1540.65 Q266.626 1531.9 269.682 1527.32 Q272.76 1522.71 278.57 1522.71 Z" fill="#000000" fill-rule="nonzero" fill-opacity="1" /><path clip-path="url(#clip240)" d="M474.648 1553.96 L482.286 1553.96 L482.286 1527.6 L473.976 1529.27 L473.976 1525.01 L482.24 1523.34 L486.916 1523.34 L486.916 1553.96 L494.555 1553.96 L494.555 1557.9 L474.648 1557.9 L474.648 1553.96 Z" fill="#000000" fill-rule="nonzero" fill-opacity="1" /><path clip-path="url(#clip240)" d="M684.613 1553.96 L700.933 1553.96 L700.933 1557.9 L678.989 1557.9 L678.989 1553.96 Q681.651 1551.21 686.234 1546.58 Q690.84 1541.93 692.021 1540.59 Q694.266 1538.06 695.146 1536.33 Q696.049 1534.57 696.049 1532.88 Q696.049 1530.12 694.104 1528.39 Q692.183 1526.65 689.081 1526.65 Q686.882 1526.65 684.428 1527.41 Q681.998 1528.18 679.22 1529.73 L679.22 1525.01 Q682.044 1523.87 684.498 1523.29 Q686.951 1522.71 688.988 1522.71 Q694.359 1522.71 697.553 1525.4 Q700.748 1528.09 700.748 1532.58 Q700.748 1534.71 699.937 1536.63 Q699.15 1538.52 697.044 1541.12 Q696.465 1541.79 693.363 1545.01 Q690.262 1548.2 684.613 1553.96 Z" fill="#000000" fill-rule="nonzero" fill-opacity="1" /><path clip-path="url(#clip240)" d="M899.904 1539.27 Q903.26 1539.98 905.135 1542.25 Q907.033 1544.52 907.033 1547.85 Q907.033 1552.97 903.515 1555.77 Q899.996 1558.57 893.515 1558.57 Q891.339 1558.57 889.024 1558.13 Q886.732 1557.71 884.279 1556.86 L884.279 1552.34 Q886.223 1553.48 888.538 1554.06 Q890.853 1554.64 893.376 1554.64 Q897.774 1554.64 900.066 1552.9 Q902.38 1551.16 902.38 1547.85 Q902.38 1544.8 900.228 1543.09 Q898.098 1541.35 894.279 1541.35 L890.251 1541.35 L890.251 1537.51 L894.464 1537.51 Q897.913 1537.51 899.741 1536.14 Q901.57 1534.75 901.57 1532.16 Q901.57 1529.5 899.672 1528.09 Q897.797 1526.65 894.279 1526.65 Q892.357 1526.65 890.158 1527.07 Q887.959 1527.48 885.32 1528.36 L885.32 1524.2 Q887.982 1523.46 890.297 1523.09 Q892.635 1522.71 894.695 1522.71 Q900.019 1522.71 903.121 1525.15 Q906.223 1527.55 906.223 1531.67 Q906.223 1534.54 904.579 1536.53 Q902.936 1538.5 899.904 1539.27 Z" fill="#000000" fill-rule="nonzero" fill-opacity="1" /><path clip-path="url(#clip240)" d="M1104.36 1527.41 L1092.55 1545.86 L1104.36 1545.86 L1104.36 1527.41 M1103.13 1523.34 L1109.01 1523.34 L1109.01 1545.86 L1113.94 1545.86 L1113.94 1549.75 L1109.01 1549.75 L1109.01 1557.9 L1104.36 1557.9 L1104.36 1549.75 L1088.76 1549.75 L1088.76 1545.24 L1103.13 1523.34 Z" fill="#000000" fill-rule="nonzero" fill-opacity="1" /><path clip-path="url(#clip240)" d="M1297.32 1523.34 L1315.68 1523.34 L1315.68 1527.28 L1301.61 1527.28 L1301.61 1535.75 Q1302.62 1535.4 1303.64 1535.24 Q1304.66 1535.05 1305.68 1535.05 Q1311.47 1535.05 1314.85 1538.22 Q1318.23 1541.4 1318.23 1546.81 Q1318.23 1552.39 1314.75 1555.49 Q1311.28 1558.57 1304.96 1558.57 Q1302.79 1558.57 1300.52 1558.2 Q1298.27 1557.83 1295.87 1557.09 L1295.87 1552.39 Q1297.95 1553.52 1300.17 1554.08 Q1302.39 1554.64 1304.87 1554.64 Q1308.87 1554.64 1311.21 1552.53 Q1313.55 1550.42 1313.55 1546.81 Q1313.55 1543.2 1311.21 1541.09 Q1308.87 1538.99 1304.87 1538.99 Q1303 1538.99 1301.12 1539.4 Q1299.27 1539.82 1297.32 1540.7 L1297.32 1523.34 Z" fill="#000000" fill-rule="nonzero" fill-opacity="1" /><path clip-path="url(#clip240)" d="M1513.15 1538.76 Q1510 1538.76 1508.15 1540.91 Q1506.32 1543.06 1506.32 1546.81 Q1506.32 1550.54 1508.15 1552.71 Q1510 1554.87 1513.15 1554.87 Q1516.29 1554.87 1518.12 1552.71 Q1519.98 1550.54 1519.98 1546.81 Q1519.98 1543.06 1518.12 1540.91 Q1516.29 1538.76 1513.15 1538.76 M1522.43 1524.1 L1522.43 1528.36 Q1520.67 1527.53 1518.86 1527.09 Q1517.08 1526.65 1515.32 1526.65 Q1510.69 1526.65 1508.24 1529.77 Q1505.81 1532.9 1505.46 1539.22 Q1506.83 1537.21 1508.89 1536.14 Q1510.95 1535.05 1513.42 1535.05 Q1518.63 1535.05 1521.64 1538.22 Q1524.67 1541.37 1524.67 1546.81 Q1524.67 1552.14 1521.53 1555.35 Q1518.38 1558.57 1513.15 1558.57 Q1507.15 1558.57 1503.98 1553.99 Q1500.81 1549.38 1500.81 1540.65 Q1500.81 1532.46 1504.7 1527.6 Q1508.59 1522.71 1515.14 1522.71 Q1516.9 1522.71 1518.68 1523.06 Q1520.48 1523.41 1522.43 1524.1 Z" fill="#000000" fill-rule="nonzero" fill-opacity="1" /><path clip-path="url(#clip240)" d="M934.902 1613.01 L914.627 1613.01 Q915.105 1622.52 917.301 1626.56 Q920.038 1631.53 924.781 1631.53 Q929.555 1631.53 932.197 1626.53 Q934.52 1622.14 934.902 1613.01 M934.807 1607.59 Q933.916 1598.56 932.197 1595.37 Q929.46 1590.34 924.781 1590.34 Q919.911 1590.34 917.333 1595.31 Q915.296 1599.32 914.691 1607.59 L934.807 1607.59 M924.781 1585.57 Q932.42 1585.57 936.78 1592.32 Q941.141 1599.03 941.141 1610.94 Q941.141 1622.81 936.78 1629.56 Q932.42 1636.34 924.781 1636.34 Q917.11 1636.34 912.781 1629.56 Q908.421 1622.81 908.421 1610.94 Q908.421 1599.03 912.781 1592.32 Q917.11 1585.57 924.781 1585.57 Z" fill="#000000" fill-rule="nonzero" fill-opacity="1" /><polyline clip-path="url(#clip242)" style="stroke:#000000; stroke-linecap:round; stroke-linejoin:round; stroke-width:2; stroke-opacity:0.1; fill:none" points="239.798,1441.77 1609.76,1441.77 "/>
<polyline clip-path="url(#clip242)" style="stroke:#000000; stroke-linecap:round; stroke-linejoin:round; stroke-width:2; stroke-opacity:0.1; fill:none" points="239.798,1193.38 1609.76,1193.38 "/>
<polyline clip-path="url(#clip242)" style="stroke:#000000; stroke-linecap:round; stroke-linejoin:round; stroke-width:2; stroke-opacity:0.1; fill:none" points="239.798,944.997 1609.76,944.997 "/>
<polyline clip-path="url(#clip242)" style="stroke:#000000; stroke-linecap:round; stroke-linejoin:round; stroke-width:2; stroke-opacity:0.1; fill:none" points="239.798,696.612 1609.76,696.612 "/>
<polyline clip-path="url(#clip242)" style="stroke:#000000; stroke-linecap:round; stroke-linejoin:round; stroke-width:2; stroke-opacity:0.1; fill:none" points="239.798,448.227 1609.76,448.227 "/>
<polyline clip-path="url(#clip242)" style="stroke:#000000; stroke-linecap:round; stroke-linejoin:round; stroke-width:2; stroke-opacity:0.1; fill:none" points="239.798,199.843 1609.76,199.843 "/>
<polyline clip-path="url(#clip240)" style="stroke:#000000; stroke-linecap:round; stroke-linejoin:round; stroke-width:4; stroke-opacity:1; fill:none" points="239.798,1500.94 239.798,47.2441 "/>
<polyline clip-path="url(#clip240)" style="stroke:#000000; stroke-linecap:round; stroke-linejoin:round; stroke-width:4; stroke-opacity:1; fill:none" points="239.798,1441.77 258.695,1441.77 "/>
<polyline clip-path="url(#clip240)" style="stroke:#000000; stroke-linecap:round; stroke-linejoin:round; stroke-width:4; stroke-opacity:1; fill:none" points="239.798,1193.38 258.695,1193.38 "/>
<polyline clip-path="url(#clip240)" style="stroke:#000000; stroke-linecap:round; stroke-linejoin:round; stroke-width:4; stroke-opacity:1; fill:none" points="239.798,944.997 258.695,944.997 "/>
<polyline clip-path="url(#clip240)" style="stroke:#000000; stroke-linecap:round; stroke-linejoin:round; stroke-width:4; stroke-opacity:1; fill:none" points="239.798,696.612 258.695,696.612 "/>
<polyline clip-path="url(#clip240)" style="stroke:#000000; stroke-linecap:round; stroke-linejoin:round; stroke-width:4; stroke-opacity:1; fill:none" points="239.798,448.227 258.695,448.227 "/>
<polyline clip-path="url(#clip240)" style="stroke:#000000; stroke-linecap:round; stroke-linejoin:round; stroke-width:4; stroke-opacity:1; fill:none" points="239.798,199.843 258.695,199.843 "/>
<path clip-path="url(#clip240)" d="M67.3319 1427.57 Q63.7208 1427.57 61.8921 1431.13 Q60.0865 1434.67 60.0865 1441.8 Q60.0865 1448.91 61.8921 1452.47 Q63.7208 1456.01 67.3319 1456.01 Q70.9661 1456.01 72.7717 1452.47 Q74.6004 1448.91 74.6004 1441.8 Q74.6004 1434.67 72.7717 1431.13 Q70.9661 1427.57 67.3319 1427.57 M67.3319 1423.86 Q73.142 1423.86 76.1976 1428.47 Q79.2763 1433.05 79.2763 1441.8 Q79.2763 1450.53 76.1976 1455.13 Q73.142 1459.72 67.3319 1459.72 Q61.5217 1459.72 58.443 1455.13 Q55.3875 1450.53 55.3875 1441.8 Q55.3875 1433.05 58.443 1428.47 Q61.5217 1423.86 67.3319 1423.86 Z" fill="#000000" fill-rule="nonzero" fill-opacity="1" /><path clip-path="url(#clip240)" d="M87.4938 1453.17 L92.378 1453.17 L92.378 1459.05 L87.4938 1459.05 L87.4938 1453.17 Z" fill="#000000" fill-rule="nonzero" fill-opacity="1" /><path clip-path="url(#clip240)" d="M112.563 1427.57 Q108.952 1427.57 107.123 1431.13 Q105.318 1434.67 105.318 1441.8 Q105.318 1448.91 107.123 1452.47 Q108.952 1456.01 112.563 1456.01 Q116.197 1456.01 118.003 1452.47 Q119.832 1448.91 119.832 1441.8 Q119.832 1434.67 118.003 1431.13 Q116.197 1427.57 112.563 1427.57 M112.563 1423.86 Q118.373 1423.86 121.429 1428.47 Q124.507 1433.05 124.507 1441.8 Q124.507 1450.53 121.429 1455.13 Q118.373 1459.72 112.563 1459.72 Q106.753 1459.72 103.674 1455.13 Q100.619 1450.53 100.619 1441.8 Q100.619 1433.05 103.674 1428.47 Q106.753 1423.86 112.563 1423.86 Z" fill="#000000" fill-rule="nonzero" fill-opacity="1" /><path clip-path="url(#clip240)" d="M142.725 1427.57 Q139.114 1427.57 137.285 1431.13 Q135.48 1434.67 135.48 1441.8 Q135.48 1448.91 137.285 1452.47 Q139.114 1456.01 142.725 1456.01 Q146.359 1456.01 148.165 1452.47 Q149.993 1448.91 149.993 1441.8 Q149.993 1434.67 148.165 1431.13 Q146.359 1427.57 142.725 1427.57 M142.725 1423.86 Q148.535 1423.86 151.591 1428.47 Q154.669 1433.05 154.669 1441.8 Q154.669 1450.53 151.591 1455.13 Q148.535 1459.72 142.725 1459.72 Q136.915 1459.72 133.836 1455.13 Q130.781 1450.53 130.781 1441.8 Q130.781 1433.05 133.836 1428.47 Q136.915 1423.86 142.725 1423.86 Z" fill="#000000" fill-rule="nonzero" fill-opacity="1" /><path clip-path="url(#clip240)" d="M166.915 1455.11 L183.234 1455.11 L183.234 1459.05 L161.29 1459.05 L161.29 1455.11 Q163.952 1452.36 168.535 1447.73 Q173.141 1443.07 174.322 1441.73 Q176.567 1439.21 177.447 1437.47 Q178.35 1435.71 178.35 1434.02 Q178.35 1431.27 176.405 1429.53 Q174.484 1427.8 171.382 1427.8 Q169.183 1427.8 166.729 1428.56 Q164.299 1429.32 161.521 1430.88 L161.521 1426.15 Q164.345 1425.02 166.799 1424.44 Q169.253 1423.86 171.29 1423.86 Q176.66 1423.86 179.854 1426.55 Q183.049 1429.23 183.049 1433.72 Q183.049 1435.85 182.239 1437.77 Q181.452 1439.67 179.345 1442.26 Q178.766 1442.94 175.665 1446.15 Q172.563 1449.35 166.915 1455.11 Z" fill="#000000" fill-rule="nonzero" fill-opacity="1" /><path clip-path="url(#clip240)" d="M193.095 1424.49 L211.451 1424.49 L211.451 1428.42 L197.377 1428.42 L197.377 1436.89 Q198.396 1436.55 199.414 1436.38 Q200.433 1436.2 201.452 1436.2 Q207.239 1436.2 210.618 1439.37 Q213.998 1442.54 213.998 1447.96 Q213.998 1453.54 210.526 1456.64 Q207.053 1459.72 200.734 1459.72 Q198.558 1459.72 196.29 1459.35 Q194.044 1458.98 191.637 1458.24 L191.637 1453.54 Q193.72 1454.67 195.942 1455.23 Q198.165 1455.78 200.641 1455.78 Q204.646 1455.78 206.984 1453.68 Q209.322 1451.57 209.322 1447.96 Q209.322 1444.35 206.984 1442.24 Q204.646 1440.13 200.641 1440.13 Q198.766 1440.13 196.891 1440.55 Q195.04 1440.97 193.095 1441.85 L193.095 1424.49 Z" fill="#000000" fill-rule="nonzero" fill-opacity="1" /><path clip-path="url(#clip240)" d="M66.3365 1179.18 Q62.7254 1179.18 60.8967 1182.75 Q59.0912 1186.29 59.0912 1193.42 Q59.0912 1200.52 60.8967 1204.09 Q62.7254 1207.63 66.3365 1207.63 Q69.9707 1207.63 71.7763 1204.09 Q73.605 1200.52 73.605 1193.42 Q73.605 1186.29 71.7763 1182.75 Q69.9707 1179.18 66.3365 1179.18 M66.3365 1175.48 Q72.1467 1175.48 75.2022 1180.08 Q78.2809 1184.67 78.2809 1193.42 Q78.2809 1202.14 75.2022 1206.75 Q72.1467 1211.33 66.3365 1211.33 Q60.5264 1211.33 57.4477 1206.75 Q54.3921 1202.14 54.3921 1193.42 Q54.3921 1184.67 57.4477 1180.08 Q60.5264 1175.48 66.3365 1175.48 Z" fill="#000000" fill-rule="nonzero" fill-opacity="1" /><path clip-path="url(#clip240)" d="M86.4984 1204.78 L91.3827 1204.78 L91.3827 1210.66 L86.4984 1210.66 L86.4984 1204.78 Z" fill="#000000" fill-rule="nonzero" fill-opacity="1" /><path clip-path="url(#clip240)" d="M111.568 1179.18 Q107.957 1179.18 106.128 1182.75 Q104.322 1186.29 104.322 1193.42 Q104.322 1200.52 106.128 1204.09 Q107.957 1207.63 111.568 1207.63 Q115.202 1207.63 117.008 1204.09 Q118.836 1200.52 118.836 1193.42 Q118.836 1186.29 117.008 1182.75 Q115.202 1179.18 111.568 1179.18 M111.568 1175.48 Q117.378 1175.48 120.433 1180.08 Q123.512 1184.67 123.512 1193.42 Q123.512 1202.14 120.433 1206.75 Q117.378 1211.33 111.568 1211.33 Q105.758 1211.33 102.679 1206.75 Q99.6234 1202.14 99.6234 1193.42 Q99.6234 1184.67 102.679 1180.08 Q105.758 1175.48 111.568 1175.48 Z" fill="#000000" fill-rule="nonzero" fill-opacity="1" /><path clip-path="url(#clip240)" d="M141.73 1179.18 Q138.119 1179.18 136.29 1182.75 Q134.484 1186.29 134.484 1193.42 Q134.484 1200.52 136.29 1204.09 Q138.119 1207.63 141.73 1207.63 Q145.364 1207.63 147.169 1204.09 Q148.998 1200.52 148.998 1193.42 Q148.998 1186.29 147.169 1182.75 Q145.364 1179.18 141.73 1179.18 M141.73 1175.48 Q147.54 1175.48 150.595 1180.08 Q153.674 1184.67 153.674 1193.42 Q153.674 1202.14 150.595 1206.75 Q147.54 1211.33 141.73 1211.33 Q135.919 1211.33 132.841 1206.75 Q129.785 1202.14 129.785 1193.42 Q129.785 1184.67 132.841 1180.08 Q135.919 1175.48 141.73 1175.48 Z" fill="#000000" fill-rule="nonzero" fill-opacity="1" /><path clip-path="url(#clip240)" d="M161.938 1176.1 L180.294 1176.1 L180.294 1180.04 L166.22 1180.04 L166.22 1188.51 Q167.239 1188.16 168.257 1188 Q169.276 1187.81 170.294 1187.81 Q176.081 1187.81 179.461 1190.99 Q182.841 1194.16 182.841 1199.57 Q182.841 1205.15 179.368 1208.25 Q175.896 1211.33 169.577 1211.33 Q167.401 1211.33 165.132 1210.96 Q162.887 1210.59 160.48 1209.85 L160.48 1205.15 Q162.563 1206.29 164.785 1206.84 Q167.007 1207.4 169.484 1207.4 Q173.489 1207.4 175.827 1205.29 Q178.165 1203.18 178.165 1199.57 Q178.165 1195.96 175.827 1193.86 Q173.489 1191.75 169.484 1191.75 Q167.609 1191.75 165.734 1192.17 Q163.882 1192.58 161.938 1193.46 L161.938 1176.1 Z" fill="#000000" fill-rule="nonzero" fill-opacity="1" /><path clip-path="url(#clip240)" d="M202.053 1179.18 Q198.442 1179.18 196.614 1182.75 Q194.808 1186.29 194.808 1193.42 Q194.808 1200.52 196.614 1204.09 Q198.442 1207.63 202.053 1207.63 Q205.688 1207.63 207.493 1204.09 Q209.322 1200.52 209.322 1193.42 Q209.322 1186.29 207.493 1182.75 Q205.688 1179.18 202.053 1179.18 M202.053 1175.48 Q207.864 1175.48 210.919 1180.08 Q213.998 1184.67 213.998 1193.42 Q213.998 1202.14 210.919 1206.75 Q207.864 1211.33 202.053 1211.33 Q196.243 1211.33 193.165 1206.75 Q190.109 1202.14 190.109 1193.42 Q190.109 1184.67 193.165 1180.08 Q196.243 1175.48 202.053 1175.48 Z" fill="#000000" fill-rule="nonzero" fill-opacity="1" /><path clip-path="url(#clip240)" d="M67.3319 930.796 Q63.7208 930.796 61.8921 934.36 Q60.0865 937.902 60.0865 945.032 Q60.0865 952.138 61.8921 955.703 Q63.7208 959.245 67.3319 959.245 Q70.9661 959.245 72.7717 955.703 Q74.6004 952.138 74.6004 945.032 Q74.6004 937.902 72.7717 934.36 Q70.9661 930.796 67.3319 930.796 M67.3319 927.092 Q73.142 927.092 76.1976 931.698 Q79.2763 936.282 79.2763 945.032 Q79.2763 953.758 76.1976 958.365 Q73.142 962.948 67.3319 962.948 Q61.5217 962.948 58.443 958.365 Q55.3875 953.758 55.3875 945.032 Q55.3875 936.282 58.443 931.698 Q61.5217 927.092 67.3319 927.092 Z" fill="#000000" fill-rule="nonzero" fill-opacity="1" /><path clip-path="url(#clip240)" d="M87.4938 956.397 L92.378 956.397 L92.378 962.277 L87.4938 962.277 L87.4938 956.397 Z" fill="#000000" fill-rule="nonzero" fill-opacity="1" /><path clip-path="url(#clip240)" d="M112.563 930.796 Q108.952 930.796 107.123 934.36 Q105.318 937.902 105.318 945.032 Q105.318 952.138 107.123 955.703 Q108.952 959.245 112.563 959.245 Q116.197 959.245 118.003 955.703 Q119.832 952.138 119.832 945.032 Q119.832 937.902 118.003 934.36 Q116.197 930.796 112.563 930.796 M112.563 927.092 Q118.373 927.092 121.429 931.698 Q124.507 936.282 124.507 945.032 Q124.507 953.758 121.429 958.365 Q118.373 962.948 112.563 962.948 Q106.753 962.948 103.674 958.365 Q100.619 953.758 100.619 945.032 Q100.619 936.282 103.674 931.698 Q106.753 927.092 112.563 927.092 Z" fill="#000000" fill-rule="nonzero" fill-opacity="1" /><path clip-path="url(#clip240)" d="M142.725 930.796 Q139.114 930.796 137.285 934.36 Q135.48 937.902 135.48 945.032 Q135.48 952.138 137.285 955.703 Q139.114 959.245 142.725 959.245 Q146.359 959.245 148.165 955.703 Q149.993 952.138 149.993 945.032 Q149.993 937.902 148.165 934.36 Q146.359 930.796 142.725 930.796 M142.725 927.092 Q148.535 927.092 151.591 931.698 Q154.669 936.282 154.669 945.032 Q154.669 953.758 151.591 958.365 Q148.535 962.948 142.725 962.948 Q136.915 962.948 133.836 958.365 Q130.781 953.758 130.781 945.032 Q130.781 936.282 133.836 931.698 Q136.915 927.092 142.725 927.092 Z" fill="#000000" fill-rule="nonzero" fill-opacity="1" /><path clip-path="url(#clip240)" d="M161.706 927.717 L183.928 927.717 L183.928 929.708 L171.382 962.277 L166.498 962.277 L178.303 931.652 L161.706 931.652 L161.706 927.717 Z" fill="#000000" fill-rule="nonzero" fill-opacity="1" /><path clip-path="url(#clip240)" d="M193.095 927.717 L211.451 927.717 L211.451 931.652 L197.377 931.652 L197.377 940.124 Q198.396 939.777 199.414 939.615 Q200.433 939.43 201.452 939.43 Q207.239 939.43 210.618 942.601 Q213.998 945.772 213.998 951.189 Q213.998 956.768 210.526 959.87 Q207.053 962.948 200.734 962.948 Q198.558 962.948 196.29 962.578 Q194.044 962.207 191.637 961.467 L191.637 956.768 Q193.72 957.902 195.942 958.458 Q198.165 959.013 200.641 959.013 Q204.646 959.013 206.984 956.907 Q209.322 954.8 209.322 951.189 Q209.322 947.578 206.984 945.471 Q204.646 943.365 200.641 943.365 Q198.766 943.365 196.891 943.782 Q195.04 944.198 193.095 945.078 L193.095 927.717 Z" fill="#000000" fill-rule="nonzero" fill-opacity="1" /><path clip-path="url(#clip240)" d="M66.3365 682.411 Q62.7254 682.411 60.8967 685.976 Q59.0912 689.517 59.0912 696.647 Q59.0912 703.753 60.8967 707.318 Q62.7254 710.86 66.3365 710.86 Q69.9707 710.86 71.7763 707.318 Q73.605 703.753 73.605 696.647 Q73.605 689.517 71.7763 685.976 Q69.9707 682.411 66.3365 682.411 M66.3365 678.707 Q72.1467 678.707 75.2022 683.314 Q78.2809 687.897 78.2809 696.647 Q78.2809 705.374 75.2022 709.98 Q72.1467 714.563 66.3365 714.563 Q60.5264 714.563 57.4477 709.98 Q54.3921 705.374 54.3921 696.647 Q54.3921 687.897 57.4477 683.314 Q60.5264 678.707 66.3365 678.707 Z" fill="#000000" fill-rule="nonzero" fill-opacity="1" /><path clip-path="url(#clip240)" d="M86.4984 708.013 L91.3827 708.013 L91.3827 713.892 L86.4984 713.892 L86.4984 708.013 Z" fill="#000000" fill-rule="nonzero" fill-opacity="1" /><path clip-path="url(#clip240)" d="M111.568 682.411 Q107.957 682.411 106.128 685.976 Q104.322 689.517 104.322 696.647 Q104.322 703.753 106.128 707.318 Q107.957 710.86 111.568 710.86 Q115.202 710.86 117.008 707.318 Q118.836 703.753 118.836 696.647 Q118.836 689.517 117.008 685.976 Q115.202 682.411 111.568 682.411 M111.568 678.707 Q117.378 678.707 120.433 683.314 Q123.512 687.897 123.512 696.647 Q123.512 705.374 120.433 709.98 Q117.378 714.563 111.568 714.563 Q105.758 714.563 102.679 709.98 Q99.6234 705.374 99.6234 696.647 Q99.6234 687.897 102.679 683.314 Q105.758 678.707 111.568 678.707 Z" fill="#000000" fill-rule="nonzero" fill-opacity="1" /><path clip-path="url(#clip240)" d="M132.54 709.957 L140.179 709.957 L140.179 683.591 L131.869 685.258 L131.869 680.999 L140.132 679.332 L144.808 679.332 L144.808 709.957 L152.447 709.957 L152.447 713.892 L132.54 713.892 L132.54 709.957 Z" fill="#000000" fill-rule="nonzero" fill-opacity="1" /><path clip-path="url(#clip240)" d="M171.891 682.411 Q168.28 682.411 166.452 685.976 Q164.646 689.517 164.646 696.647 Q164.646 703.753 166.452 707.318 Q168.28 710.86 171.891 710.86 Q175.526 710.86 177.331 707.318 Q179.16 703.753 179.16 696.647 Q179.16 689.517 177.331 685.976 Q175.526 682.411 171.891 682.411 M171.891 678.707 Q177.702 678.707 180.757 683.314 Q183.836 687.897 183.836 696.647 Q183.836 705.374 180.757 709.98 Q177.702 714.563 171.891 714.563 Q166.081 714.563 163.003 709.98 Q159.947 705.374 159.947 696.647 Q159.947 687.897 163.003 683.314 Q166.081 678.707 171.891 678.707 Z" fill="#000000" fill-rule="nonzero" fill-opacity="1" /><path clip-path="url(#clip240)" d="M202.053 682.411 Q198.442 682.411 196.614 685.976 Q194.808 689.517 194.808 696.647 Q194.808 703.753 196.614 707.318 Q198.442 710.86 202.053 710.86 Q205.688 710.86 207.493 707.318 Q209.322 703.753 209.322 696.647 Q209.322 689.517 207.493 685.976 Q205.688 682.411 202.053 682.411 M202.053 678.707 Q207.864 678.707 210.919 683.314 Q213.998 687.897 213.998 696.647 Q213.998 705.374 210.919 709.98 Q207.864 714.563 202.053 714.563 Q196.243 714.563 193.165 709.98 Q190.109 705.374 190.109 696.647 Q190.109 687.897 193.165 683.314 Q196.243 678.707 202.053 678.707 Z" fill="#000000" fill-rule="nonzero" fill-opacity="1" /><path clip-path="url(#clip240)" d="M67.3319 434.026 Q63.7208 434.026 61.8921 437.591 Q60.0865 441.132 60.0865 448.262 Q60.0865 455.369 61.8921 458.933 Q63.7208 462.475 67.3319 462.475 Q70.9661 462.475 72.7717 458.933 Q74.6004 455.369 74.6004 448.262 Q74.6004 441.132 72.7717 437.591 Q70.9661 434.026 67.3319 434.026 M67.3319 430.322 Q73.142 430.322 76.1976 434.929 Q79.2763 439.512 79.2763 448.262 Q79.2763 456.989 76.1976 461.595 Q73.142 466.179 67.3319 466.179 Q61.5217 466.179 58.443 461.595 Q55.3875 456.989 55.3875 448.262 Q55.3875 439.512 58.443 434.929 Q61.5217 430.322 67.3319 430.322 Z" fill="#000000" fill-rule="nonzero" fill-opacity="1" /><path clip-path="url(#clip240)" d="M87.4938 459.628 L92.378 459.628 L92.378 465.507 L87.4938 465.507 L87.4938 459.628 Z" fill="#000000" fill-rule="nonzero" fill-opacity="1" /><path clip-path="url(#clip240)" d="M112.563 434.026 Q108.952 434.026 107.123 437.591 Q105.318 441.132 105.318 448.262 Q105.318 455.369 107.123 458.933 Q108.952 462.475 112.563 462.475 Q116.197 462.475 118.003 458.933 Q119.832 455.369 119.832 448.262 Q119.832 441.132 118.003 437.591 Q116.197 434.026 112.563 434.026 M112.563 430.322 Q118.373 430.322 121.429 434.929 Q124.507 439.512 124.507 448.262 Q124.507 456.989 121.429 461.595 Q118.373 466.179 112.563 466.179 Q106.753 466.179 103.674 461.595 Q100.619 456.989 100.619 448.262 Q100.619 439.512 103.674 434.929 Q106.753 430.322 112.563 430.322 Z" fill="#000000" fill-rule="nonzero" fill-opacity="1" /><path clip-path="url(#clip240)" d="M133.535 461.572 L141.174 461.572 L141.174 435.207 L132.864 436.873 L132.864 432.614 L141.128 430.947 L145.804 430.947 L145.804 461.572 L153.443 461.572 L153.443 465.507 L133.535 465.507 L133.535 461.572 Z" fill="#000000" fill-rule="nonzero" fill-opacity="1" /><path clip-path="url(#clip240)" d="M166.915 461.572 L183.234 461.572 L183.234 465.507 L161.29 465.507 L161.29 461.572 Q163.952 458.818 168.535 454.188 Q173.141 449.535 174.322 448.193 Q176.567 445.669 177.447 443.933 Q178.35 442.174 178.35 440.484 Q178.35 437.73 176.405 435.994 Q174.484 434.258 171.382 434.258 Q169.183 434.258 166.729 435.021 Q164.299 435.785 161.521 437.336 L161.521 432.614 Q164.345 431.48 166.799 430.901 Q169.253 430.322 171.29 430.322 Q176.66 430.322 179.854 433.008 Q183.049 435.693 183.049 440.183 Q183.049 442.313 182.239 444.234 Q181.452 446.132 179.345 448.725 Q178.766 449.396 175.665 452.614 Q172.563 455.808 166.915 461.572 Z" fill="#000000" fill-rule="nonzero" fill-opacity="1" /><path clip-path="url(#clip240)" d="M193.095 430.947 L211.451 430.947 L211.451 434.883 L197.377 434.883 L197.377 443.355 Q198.396 443.007 199.414 442.845 Q200.433 442.66 201.452 442.66 Q207.239 442.66 210.618 445.832 Q213.998 449.003 213.998 454.419 Q213.998 459.998 210.526 463.1 Q207.053 466.179 200.734 466.179 Q198.558 466.179 196.29 465.808 Q194.044 465.438 191.637 464.697 L191.637 459.998 Q193.72 461.132 195.942 461.688 Q198.165 462.243 200.641 462.243 Q204.646 462.243 206.984 460.137 Q209.322 458.031 209.322 454.419 Q209.322 450.808 206.984 448.702 Q204.646 446.595 200.641 446.595 Q198.766 446.595 196.891 447.012 Q195.04 447.429 193.095 448.308 L193.095 430.947 Z" fill="#000000" fill-rule="nonzero" fill-opacity="1" /><path clip-path="url(#clip240)" d="M66.3365 185.641 Q62.7254 185.641 60.8967 189.206 Q59.0912 192.748 59.0912 199.877 Q59.0912 206.984 60.8967 210.549 Q62.7254 214.09 66.3365 214.09 Q69.9707 214.09 71.7763 210.549 Q73.605 206.984 73.605 199.877 Q73.605 192.748 71.7763 189.206 Q69.9707 185.641 66.3365 185.641 M66.3365 181.938 Q72.1467 181.938 75.2022 186.544 Q78.2809 191.127 78.2809 199.877 Q78.2809 208.604 75.2022 213.211 Q72.1467 217.794 66.3365 217.794 Q60.5264 217.794 57.4477 213.211 Q54.3921 208.604 54.3921 199.877 Q54.3921 191.127 57.4477 186.544 Q60.5264 181.938 66.3365 181.938 Z" fill="#000000" fill-rule="nonzero" fill-opacity="1" /><path clip-path="url(#clip240)" d="M86.4984 211.243 L91.3827 211.243 L91.3827 217.123 L86.4984 217.123 L86.4984 211.243 Z" fill="#000000" fill-rule="nonzero" fill-opacity="1" /><path clip-path="url(#clip240)" d="M111.568 185.641 Q107.957 185.641 106.128 189.206 Q104.322 192.748 104.322 199.877 Q104.322 206.984 106.128 210.549 Q107.957 214.09 111.568 214.09 Q115.202 214.09 117.008 210.549 Q118.836 206.984 118.836 199.877 Q118.836 192.748 117.008 189.206 Q115.202 185.641 111.568 185.641 M111.568 181.938 Q117.378 181.938 120.433 186.544 Q123.512 191.127 123.512 199.877 Q123.512 208.604 120.433 213.211 Q117.378 217.794 111.568 217.794 Q105.758 217.794 102.679 213.211 Q99.6234 208.604 99.6234 199.877 Q99.6234 191.127 102.679 186.544 Q105.758 181.938 111.568 181.938 Z" fill="#000000" fill-rule="nonzero" fill-opacity="1" /><path clip-path="url(#clip240)" d="M132.54 213.187 L140.179 213.187 L140.179 186.822 L131.869 188.488 L131.869 184.229 L140.132 182.563 L144.808 182.563 L144.808 213.187 L152.447 213.187 L152.447 217.123 L132.54 217.123 L132.54 213.187 Z" fill="#000000" fill-rule="nonzero" fill-opacity="1" /><path clip-path="url(#clip240)" d="M161.938 182.563 L180.294 182.563 L180.294 186.498 L166.22 186.498 L166.22 194.97 Q167.239 194.623 168.257 194.461 Q169.276 194.275 170.294 194.275 Q176.081 194.275 179.461 197.447 Q182.841 200.618 182.841 206.035 Q182.841 211.613 179.368 214.715 Q175.896 217.794 169.577 217.794 Q167.401 217.794 165.132 217.423 Q162.887 217.053 160.48 216.312 L160.48 211.613 Q162.563 212.748 164.785 213.303 Q167.007 213.859 169.484 213.859 Q173.489 213.859 175.827 211.752 Q178.165 209.646 178.165 206.035 Q178.165 202.424 175.827 200.317 Q173.489 198.211 169.484 198.211 Q167.609 198.211 165.734 198.627 Q163.882 199.044 161.938 199.924 L161.938 182.563 Z" fill="#000000" fill-rule="nonzero" fill-opacity="1" /><path clip-path="url(#clip240)" d="M202.053 185.641 Q198.442 185.641 196.614 189.206 Q194.808 192.748 194.808 199.877 Q194.808 206.984 196.614 210.549 Q198.442 214.09 202.053 214.09 Q205.688 214.09 207.493 210.549 Q209.322 206.984 209.322 199.877 Q209.322 192.748 207.493 189.206 Q205.688 185.641 202.053 185.641 M202.053 181.938 Q207.864 181.938 210.919 186.544 Q213.998 191.127 213.998 199.877 Q213.998 208.604 210.919 213.211 Q207.864 217.794 202.053 217.794 Q196.243 217.794 193.165 213.211 Q190.109 208.604 190.109 199.877 Q190.109 191.127 193.165 186.544 Q196.243 181.938 202.053 181.938 Z" fill="#000000" fill-rule="nonzero" fill-opacity="1" /><polyline clip-path="url(#clip242)" style="stroke:#009af9; stroke-linecap:round; stroke-linejoin:round; stroke-width:4; stroke-opacity:1; fill:none" points="278.57,1353.57 280.188,1358.03 281.805,1362.46 283.423,1366.85 285.041,1371.2 286.658,1375.51 288.276,1379.75 289.893,1383.93 291.511,1388.05 293.128,1392.09 294.746,1396.05 296.363,1399.92 297.981,1403.7 299.598,1407.39 301.216,1410.98 302.834,1414.46 304.451,1417.83 306.069,1421.08 307.686,1424.22 309.304,1427.24 310.921,1430.13 312.539,1432.89 314.156,1435.53 315.774,1438.03 317.392,1440.4 319.009,1442.63 320.627,1444.73 322.244,1446.69 323.862,1448.51 325.479,1450.19 327.097,1451.74 328.714,1453.14 330.332,1454.41 331.949,1455.54 333.567,1456.53 335.185,1457.39 336.802,1458.12 338.42,1458.71 340.037,1459.17 341.655,1459.51 343.272,1459.71 344.89,1459.8 346.507,1459.76 348.125,1459.6 349.742,1459.33 351.36,1458.94 352.978,1458.44 354.595,1457.83 356.213,1457.11 357.83,1456.29 359.448,1455.37 361.065,1454.35 362.683,1453.24 364.3,1452.03 365.918,1450.73 367.536,1449.35 369.153,1447.88 370.771,1446.32 372.388,1444.69 374.006,1442.98 375.623,1441.19 377.241,1439.33 378.858,1437.4 380.476,1435.4 382.093,1433.33 383.711,1431.19 385.329,1428.99 386.946,1426.73 388.564,1424.4 390.181,1422.02 391.799,1419.58 393.416,1417.08 395.034,1414.52 396.651,1411.91 398.269,1409.25 399.886,1406.53 401.504,1403.76 403.122,1400.93 404.739,1398.06 406.357,1395.13 407.974,1392.15 409.592,1389.12 411.209,1386.04 412.827,1382.91 414.444,1379.73 416.062,1376.5 417.679,1373.22 419.297,1369.9 420.915,1366.52 422.532,1363.08 424.15,1359.6 425.767,1356.07 427.385,1352.49 429.002,1348.85 430.62,1345.16 432.237,1341.42 433.855,1337.63 435.473,1333.78 437.09,1329.88 438.708,1325.92 440.325,1321.91 441.943,1317.84 443.56,1313.71 445.178,1309.53 446.795,1305.29 448.413,1300.99 450.03,1296.63 451.648,1292.21 453.266,1287.72 454.883,1283.18 456.501,1278.57 458.118,1273.9 459.736,1269.16 461.353,1264.36 462.971,1259.49 464.588,1254.55 466.206,1249.55 467.823,1244.48 469.441,1239.33 471.059,1234.12 472.676,1228.83 474.294,1223.47 475.911,1218.04 477.529,1212.54 479.146,1206.95 480.764,1201.3 482.381,1195.56 483.999,1189.75 485.617,1183.86 487.234,1177.88 488.852,1171.83 490.469,1165.7 492.087,1159.48 493.704,1153.18 495.322,1146.8 496.939,1140.33 498.557,1133.78 500.174,1127.14 501.792,1120.41 503.41,1113.6 505.027,1106.69 506.645,1099.7 508.262,1092.62 509.88,1085.45 511.497,1078.18 513.115,1070.83 514.732,1063.38 516.35,1055.84 517.967,1048.2 519.585,1040.47 521.203,1032.65 522.82,1024.73 524.438,1016.72 526.055,1008.61 527.673,1000.41 529.29,992.111 530.908,983.716 532.525,975.225 534.143,966.638 535.76,957.955 537.378,949.176 538.996,940.302 540.613,931.332 542.231,922.267 543.848,913.108 545.466,903.854 547.083,894.506 548.701,885.066 550.318,875.533 551.936,865.908 553.554,856.194 555.171,846.389 556.789,836.497 558.406,826.517 560.024,816.451 561.641,806.302 563.259,796.069 564.876,785.756 566.494,775.363 568.111,764.894 569.729,754.349 571.347,743.732 572.964,733.044 574.582,722.288 576.199,711.467 577.817,700.584 579.434,689.64 581.052,678.641 582.669,667.588 584.287,656.486 585.904,645.337 587.522,634.145 589.14,622.915 590.757,611.65 592.375,600.354 593.992,589.033 595.61,577.689 597.227,566.328 598.845,554.955 600.462,543.574 602.08,532.191 603.698,520.811 605.315,509.439 606.933,498.081 608.55,486.743 610.168,475.429 611.785,464.147 613.403,452.902 615.02,441.701 616.638,430.549 618.255,419.454 619.873,408.422 621.491,397.459 623.108,386.572 624.726,375.769 626.343,365.056 627.961,354.439 629.578,343.927 631.196,333.527 632.813,323.245 634.431,313.089 636.048,303.066 637.666,293.184 639.284,283.449 640.901,273.87 642.519,264.454 644.136,255.207 645.754,246.138 647.371,237.254 648.989,228.562 650.606,220.069 652.224,211.782 653.841,203.709 655.459,195.856 657.077,188.23 658.694,180.839 660.312,173.688 661.929,166.785 663.547,160.136 665.164,153.747 666.782,147.624 668.399,141.773 670.017,136.199 671.635,130.909 673.252,125.908 674.87,121.2 676.487,116.791 678.105,112.685 679.722,108.887 681.34,105.4 682.957,102.229 684.575,99.3774 686.192,96.848 687.81,94.6441 689.428,92.7685 691.045,91.2234 692.663,90.011 694.28,89.1332 695.898,88.5913 697.515,88.3864 699.133,88.5195 700.75,88.9909 702.368,89.8009 703.985,90.9492 705.603,92.4353 707.221,94.2583 708.838,96.417 710.456,98.9099 712.073,101.735 713.691,104.89 715.308,108.373 716.926,112.18 718.543,116.309 720.161,120.756 721.779,125.516 723.396,130.587 725.014,135.963 726.631,141.64 728.249,147.613 729.866,153.876 731.484,160.423 733.101,167.25 734.719,174.349 736.336,181.715 737.954,189.341 739.572,197.22 741.189,205.346 742.807,213.71 744.424,222.305 746.042,231.125 747.659,240.161 749.277,249.405 750.894,258.85 752.512,268.487 754.129,278.307 755.747,288.304 757.365,298.467 758.982,308.789 760.6,319.26 762.217,329.873 763.835,340.619 765.452,351.488 767.07,362.472 768.687,373.562 770.305,384.749 771.922,396.024 773.54,407.38 775.158,418.805 776.775,430.293 778.393,441.834 780.01,453.419 781.628,465.039 783.245,476.687 784.863,488.352 786.48,500.028 788.098,511.704 789.716,523.372 791.333,535.025 792.951,546.652 794.568,558.247 796.186,569.8 797.803,581.303 799.421,592.748 801.038,604.126 802.656,615.43 804.273,626.65 805.891,637.778 807.509,648.807 809.126,659.728 810.744,670.532 812.361,681.211 813.979,691.757 815.596,702.162 817.214,712.416 818.831,722.513 820.449,732.442 822.066,742.196 823.684,751.767 825.302,761.145 826.919,770.322 828.537,779.29 830.154,788.039 831.772,796.562 833.389,804.848 835.007,812.891 836.624,820.681 838.242,828.209 839.86,835.467 841.477,842.446 843.095,849.138 844.712,855.534 846.33,861.627 847.947,867.407 849.565,872.867 851.182,877.999 852.8,882.796 854.417,887.25 856.035,891.354 857.653,895.102 859.27,898.487 860.888,901.503 862.505,904.145 864.123,906.407 865.74,908.286 867.358,909.777 868.975,910.877 870.593,911.583 872.21,911.893 873.828,911.806 875.446,911.321 877.063,910.437 878.681,909.157 880.298,907.481 881.916,905.413 883.533,902.955 885.151,900.112 886.768,896.89 888.386,893.294 890.003,889.331 891.621,885.01 893.239,880.34 894.856,875.329 896.474,869.99 898.091,864.333 899.709,858.372 901.326,852.119 902.944,845.589 904.561,838.796 906.179,831.757 907.797,824.488 909.414,817.006 911.032,809.329 912.649,801.475 914.267,793.463 915.884,785.311 917.502,777.04 919.119,768.67 920.737,760.22 922.354,751.711 923.972,743.163 925.59,734.597 927.207,726.033 928.825,717.49 930.442,708.991 932.06,700.553 933.677,692.196 935.295,683.94 936.912,675.802 938.53,667.802 940.147,659.956 941.765,652.281 943.383,644.793 945,637.508 946.618,630.439 948.235,623.602 949.853,617.007 951.47,610.668 953.088,604.595 954.705,598.798 956.323,593.287 957.94,588.068 959.558,583.15 961.176,578.538 962.793,574.237 964.411,570.251 966.028,566.584 967.646,563.238 969.263,560.213 970.881,557.51 972.498,555.129 974.116,553.067 975.734,551.323 977.351,549.894 978.969,548.776 980.586,547.964 982.204,547.453 983.821,547.238 985.439,547.311 987.056,547.667 988.674,548.298 990.291,549.196 991.909,550.353 993.527,551.761 995.144,553.41 996.762,555.292 998.379,557.398 999.997,559.718 1001.61,562.243 1003.23,564.963 1004.85,567.869 1006.47,570.951 1008.08,574.199 1009.7,577.604 1011.32,581.157 1012.94,584.848 1014.55,588.669 1016.17,592.609 1017.79,596.661 1019.41,600.815 1021.02,605.064 1022.64,609.4 1024.26,613.814 1025.88,618.298 1027.5,622.846 1029.11,627.45 1030.73,632.104 1032.35,636.801 1033.97,641.534 1035.58,646.299 1037.2,651.088 1038.82,655.897 1040.44,660.721 1042.05,665.554 1043.67,670.392 1045.29,675.232 1046.91,680.068 1048.52,684.896 1050.14,689.715 1051.76,694.519 1053.38,699.306 1054.99,704.072 1056.61,708.816 1058.23,713.535 1059.85,718.225 1061.46,722.886 1063.08,727.515 1064.7,732.111 1066.32,736.671 1067.93,741.194 1069.55,745.679 1071.17,750.124 1072.79,754.529 1074.4,758.892 1076.02,763.213 1077.64,767.489 1079.26,771.722 1080.87,775.91 1082.49,780.053 1084.11,784.149 1085.73,788.2 1087.34,792.203 1088.96,796.16 1090.58,800.069 1092.2,803.931 1093.81,807.745 1095.43,811.511 1097.05,815.229 1098.67,818.9 1100.28,822.522 1101.9,826.097 1103.52,829.623 1105.14,833.102 1106.75,836.533 1108.37,839.916 1109.99,843.251 1111.61,846.539 1113.23,849.779 1114.84,852.972 1116.46,856.118 1118.08,859.216 1119.7,862.268 1121.31,865.273 1122.93,868.231 1124.55,871.143 1126.17,874.008 1127.78,876.827 1129.4,879.6 1131.02,882.326 1132.64,885.007 1134.25,887.642 1135.87,890.231 1137.49,892.775 1139.11,895.273 1140.72,897.725 1142.34,900.132 1143.96,902.493 1145.58,904.809 1147.19,907.08 1148.81,909.305 1150.43,911.484 1152.05,913.618 1153.66,915.707 1155.28,917.749 1156.9,919.746 1158.52,921.697 1160.13,923.601 1161.75,925.459 1163.37,927.271 1164.99,929.035 1166.6,930.753 1168.22,932.423 1169.84,934.045 1171.46,935.618 1173.07,937.143 1174.69,938.619 1176.31,940.045 1177.93,941.421 1179.54,942.746 1181.16,944.019 1182.78,945.24 1184.4,946.407 1186.01,947.521 1187.63,948.58 1189.25,949.583 1190.87,950.529 1192.48,951.417 1194.1,952.246 1195.72,953.015 1197.34,953.722 1198.96,954.365 1200.57,954.945 1202.19,955.458 1203.81,955.903 1205.43,956.279 1207.04,956.583 1208.66,956.815 1210.28,956.971 1211.9,957.05 1213.51,957.049 1215.13,956.967 1216.75,956.801 1218.37,956.549 1219.98,956.207 1221.6,955.775 1223.22,955.248 1224.84,954.625 1226.45,953.902 1228.07,953.077 1229.69,952.147 1231.31,951.11 1232.92,949.961 1234.54,948.698 1236.16,947.319 1237.78,945.82 1239.39,944.199 1241.01,942.452 1242.63,940.578 1244.25,938.572 1245.86,936.433 1247.48,934.158 1249.1,931.744 1250.72,929.189 1252.33,926.492 1253.95,923.65 1255.57,920.662 1257.19,917.526 1258.8,914.24 1260.42,910.806 1262.04,907.22 1263.66,903.485 1265.27,899.598 1266.89,895.562 1268.51,891.378 1270.13,887.045 1271.74,882.568 1273.36,877.947 1274.98,873.186 1276.6,868.288 1278.21,863.258 1279.83,858.099 1281.45,852.817 1283.07,847.419 1284.69,841.909 1286.3,836.295 1287.92,830.585 1289.54,824.787 1291.16,818.91 1292.77,812.963 1294.39,806.957 1296.01,800.901 1297.63,794.808 1299.24,788.689 1300.86,782.557 1302.48,776.424 1304.1,770.304 1305.71,764.211 1307.33,758.159 1308.95,752.162 1310.57,746.236 1312.18,740.397 1313.8,734.659 1315.42,729.038 1317.04,723.55 1318.65,718.211 1320.27,713.038 1321.89,708.045 1323.51,703.248 1325.12,698.664 1326.74,694.307 1328.36,690.193 1329.98,686.336 1331.59,682.75 1333.21,679.45 1334.83,676.447 1336.45,673.755 1338.06,671.386 1339.68,669.35 1341.3,667.657 1342.92,666.318 1344.53,665.34 1346.15,664.731 1347.77,664.497 1349.39,664.644 1351,665.177 1352.62,666.098 1354.24,667.41 1355.86,669.114 1357.47,671.209 1359.09,673.696 1360.71,676.57 1362.33,679.83 1363.95,683.47 1365.56,687.485 1367.18,691.868 1368.8,696.611 1370.42,701.705 1372.03,707.141 1373.65,712.909 1375.27,718.995 1376.89,725.388 1378.5,732.076 1380.12,739.043 1381.74,746.275 1383.36,753.757 1384.97,761.474 1386.59,769.409 1388.21,777.546 1389.83,785.868 1391.44,794.357 1393.06,802.997 1394.68,811.77 1396.3,820.659 1397.91,829.645 1399.53,838.713 1401.15,847.844 1402.77,857.022 1404.38,866.23 1406,875.451 1407.62,884.671 1409.24,893.873 1410.85,903.042 1412.47,912.164 1414.09,921.225 1415.71,930.211 1417.32,939.111 1418.94,947.912 1420.56,956.603 1422.18,965.174 1423.79,973.614 1425.41,981.914 1427.03,990.067 1428.65,998.065 1430.26,1005.9 1431.88,1013.57 1433.5,1021.06 1435.12,1028.38 1436.73,1035.52 1438.35,1042.47 1439.97,1049.24 1441.59,1055.81 1443.2,1062.2 1444.82,1068.4 1446.44,1074.41 1448.06,1080.23 1449.68,1085.87 1451.29,1091.32 1452.91,1096.59 1454.53,1101.68 1456.15,1106.6 1457.76,1111.34 1459.38,1115.92 1461,1120.34 1462.62,1124.6 1464.23,1128.71 1465.85,1132.68 1467.47,1136.5 1469.09,1140.19 1470.7,1143.76 1472.32,1147.21 1473.94,1150.54 1475.56,1153.77 1477.17,1156.89 1478.79,1159.93 1480.41,1162.88 1482.03,1165.76 1483.64,1168.56 1485.26,1171.31 1486.88,1174 1488.5,1176.64 1490.11,1179.23 1491.73,1181.8 1493.35,1184.34 1494.97,1186.86 1496.58,1189.37 1498.2,1191.87 1499.82,1194.37 1501.44,1196.88 1503.05,1199.4 1504.67,1201.94 1506.29,1204.5 1507.91,1207.1 1509.52,1209.73 1511.14,1212.4 1512.76,1215.11 1514.38,1217.88 1515.99,1220.7 1517.61,1223.57 1519.23,1226.51 1520.85,1229.51 1522.46,1232.57 1524.08,1235.71 1525.7,1238.91 1527.32,1242.19 1528.93,1245.54 1530.55,1248.97 1532.17,1252.47 1533.79,1256.05 1535.41,1259.7 1537.02,1263.42 1538.64,1267.22 1540.26,1271.09 1541.88,1275.03 1543.49,1279.03 1545.11,1283.1 1546.73,1287.24 1548.35,1291.43 1549.96,1295.67 1551.58,1299.96 1553.2,1304.3 1554.82,1308.69 1556.43,1313.1 1558.05,1317.55 1559.67,1322.03 1561.29,1326.52 1562.9,1331.03 1564.52,1335.54 1566.14,1340.06 1567.76,1344.58 1569.37,1349.08 1570.99,1353.57 "/>
<path clip-path="url(#clip240)" d="M741.457 199.381 L1564.1 199.381 L1564.1 95.7006 L741.457 95.7006  Z" fill="#ffffff" fill-rule="evenodd" fill-opacity="1"/>
<polyline clip-path="url(#clip240)" style="stroke:#000000; stroke-linecap:round; stroke-linejoin:round; stroke-width:4; stroke-opacity:1; fill:none" points="741.457,199.381 1564.1,199.381 1564.1,95.7006 741.457,95.7006 741.457,199.381 "/>
<polyline clip-path="url(#clip240)" style="stroke:#009af9; stroke-linecap:round; stroke-linejoin:round; stroke-width:4; stroke-opacity:1; fill:none" points="756.679,147.541 848.01,147.541 "/>
<path clip-path="url(#clip240)" d="M883.579 143.872 Q885.176 141.001 887.398 139.636 Q889.621 138.27 892.63 138.27 Q896.681 138.27 898.88 141.117 Q901.079 143.941 901.079 149.173 L901.079 164.821 L896.797 164.821 L896.797 149.311 Q896.797 145.585 895.477 143.779 Q894.158 141.974 891.449 141.974 Q888.139 141.974 886.218 144.173 Q884.297 146.372 884.297 150.168 L884.297 164.821 L880.014 164.821 L880.014 149.311 Q880.014 145.561 878.695 143.779 Q877.375 141.974 874.621 141.974 Q871.357 141.974 869.436 144.196 Q867.514 146.395 867.514 150.168 L867.514 164.821 L863.232 164.821 L863.232 138.895 L867.514 138.895 L867.514 142.923 Q868.973 140.538 871.01 139.404 Q873.047 138.27 875.848 138.27 Q878.672 138.27 880.639 139.705 Q882.63 141.14 883.579 143.872 Z" fill="#000000" fill-rule="nonzero" fill-opacity="1" /><path clip-path="url(#clip240)" d="M931.75 150.793 L931.75 152.876 L912.167 152.876 Q912.445 157.274 914.806 159.589 Q917.19 161.881 921.426 161.881 Q923.88 161.881 926.171 161.279 Q928.486 160.677 930.755 159.473 L930.755 163.501 Q928.463 164.473 926.056 164.983 Q923.648 165.492 921.171 165.492 Q914.968 165.492 911.334 161.881 Q907.722 158.27 907.722 152.112 Q907.722 145.747 911.148 142.02 Q914.597 138.27 920.431 138.27 Q925.662 138.27 928.695 141.649 Q931.75 145.006 931.75 150.793 M927.491 149.543 Q927.445 146.048 925.523 143.964 Q923.625 141.881 920.477 141.881 Q916.912 141.881 914.759 143.895 Q912.63 145.909 912.306 149.566 L927.491 149.543 Z" fill="#000000" fill-rule="nonzero" fill-opacity="1" /><path clip-path="url(#clip240)" d="M950.523 151.788 Q945.361 151.788 943.37 152.969 Q941.38 154.149 941.38 156.997 Q941.38 159.265 942.861 160.608 Q944.366 161.927 946.935 161.927 Q950.477 161.927 952.606 159.427 Q954.759 156.904 954.759 152.737 L954.759 151.788 L950.523 151.788 M959.018 150.029 L959.018 164.821 L954.759 164.821 L954.759 160.885 Q953.301 163.247 951.125 164.381 Q948.949 165.492 945.801 165.492 Q941.819 165.492 939.458 163.27 Q937.12 161.024 937.12 157.274 Q937.12 152.899 940.037 150.677 Q942.977 148.455 948.787 148.455 L954.759 148.455 L954.759 148.038 Q954.759 145.099 952.815 143.501 Q950.893 141.881 947.398 141.881 Q945.176 141.881 943.069 142.413 Q940.963 142.946 939.019 144.011 L939.019 140.075 Q941.357 139.173 943.556 138.733 Q945.755 138.27 947.838 138.27 Q953.463 138.27 956.241 141.186 Q959.018 144.103 959.018 150.029 Z" fill="#000000" fill-rule="nonzero" fill-opacity="1" /><path clip-path="url(#clip240)" d="M984.319 139.659 L984.319 143.686 Q982.514 142.761 980.569 142.298 Q978.625 141.835 976.542 141.835 Q973.37 141.835 971.773 142.807 Q970.199 143.779 970.199 145.723 Q970.199 147.205 971.333 148.061 Q972.467 148.895 975.893 149.659 L977.352 149.983 Q981.889 150.955 983.787 152.737 Q985.708 154.497 985.708 157.668 Q985.708 161.279 982.838 163.385 Q979.991 165.492 974.991 165.492 Q972.907 165.492 970.639 165.075 Q968.393 164.682 965.893 163.872 L965.893 159.473 Q968.255 160.7 970.546 161.325 Q972.838 161.927 975.083 161.927 Q978.092 161.927 979.713 160.909 Q981.333 159.867 981.333 157.992 Q981.333 156.256 980.153 155.33 Q978.995 154.404 975.037 153.548 L973.555 153.2 Q969.597 152.367 967.838 150.654 Q966.079 148.918 966.079 145.909 Q966.079 142.251 968.671 140.261 Q971.264 138.27 976.032 138.27 Q978.393 138.27 980.477 138.617 Q982.56 138.964 984.319 139.659 Z" fill="#000000" fill-rule="nonzero" fill-opacity="1" /><path clip-path="url(#clip240)" d="M992.051 154.589 L992.051 138.895 L996.31 138.895 L996.31 154.427 Q996.31 158.108 997.745 159.96 Q999.18 161.788 1002.05 161.788 Q1005.5 161.788 1007.49 159.589 Q1009.5 157.39 1009.5 153.594 L1009.5 138.895 L1013.76 138.895 L1013.76 164.821 L1009.5 164.821 L1009.5 160.839 Q1007.95 163.2 1005.89 164.358 Q1003.86 165.492 1001.15 165.492 Q996.68 165.492 994.365 162.714 Q992.051 159.936 992.051 154.589 M1002.77 138.27 L1002.77 138.27 Z" fill="#000000" fill-rule="nonzero" fill-opacity="1" /><path clip-path="url(#clip240)" d="M1037.56 142.876 Q1036.84 142.46 1035.99 142.274 Q1035.15 142.066 1034.13 142.066 Q1030.52 142.066 1028.58 144.427 Q1026.66 146.765 1026.66 151.163 L1026.66 164.821 L1022.37 164.821 L1022.37 138.895 L1026.66 138.895 L1026.66 142.923 Q1028 140.561 1030.15 139.427 Q1032.31 138.27 1035.38 138.27 Q1035.82 138.27 1036.36 138.339 Q1036.89 138.386 1037.54 138.501 L1037.56 142.876 Z" fill="#000000" fill-rule="nonzero" fill-opacity="1" /><path clip-path="url(#clip240)" d="M1063.16 150.793 L1063.16 152.876 L1043.58 152.876 Q1043.86 157.274 1046.22 159.589 Q1048.6 161.881 1052.84 161.881 Q1055.29 161.881 1057.58 161.279 Q1059.9 160.677 1062.17 159.473 L1062.17 163.501 Q1059.87 164.473 1057.47 164.983 Q1055.06 165.492 1052.58 165.492 Q1046.38 165.492 1042.74 161.881 Q1039.13 158.27 1039.13 152.112 Q1039.13 145.747 1042.56 142.02 Q1046.01 138.27 1051.84 138.27 Q1057.07 138.27 1060.11 141.649 Q1063.16 145.006 1063.16 150.793 M1058.9 149.543 Q1058.86 146.048 1056.93 143.964 Q1055.04 141.881 1051.89 141.881 Q1048.32 141.881 1046.17 143.895 Q1044.04 145.909 1043.72 149.566 L1058.9 149.543 Z" fill="#000000" fill-rule="nonzero" fill-opacity="1" /><path clip-path="url(#clip240)" d="M1090.34 143.872 Q1091.93 141.001 1094.16 139.636 Q1096.38 138.27 1099.39 138.27 Q1103.44 138.27 1105.64 141.117 Q1107.84 143.941 1107.84 149.173 L1107.84 164.821 L1103.55 164.821 L1103.55 149.311 Q1103.55 145.585 1102.24 143.779 Q1100.92 141.974 1098.21 141.974 Q1094.9 141.974 1092.98 144.173 Q1091.05 146.372 1091.05 150.168 L1091.05 164.821 L1086.77 164.821 L1086.77 149.311 Q1086.77 145.561 1085.45 143.779 Q1084.13 141.974 1081.38 141.974 Q1078.12 141.974 1076.19 144.196 Q1074.27 146.395 1074.27 150.168 L1074.27 164.821 L1069.99 164.821 L1069.99 138.895 L1074.27 138.895 L1074.27 142.923 Q1075.73 140.538 1077.77 139.404 Q1079.8 138.27 1082.61 138.27 Q1085.43 138.27 1087.4 139.705 Q1089.39 141.14 1090.34 143.872 Z" fill="#000000" fill-rule="nonzero" fill-opacity="1" /><path clip-path="url(#clip240)" d="M1138.51 150.793 L1138.51 152.876 L1118.93 152.876 Q1119.2 157.274 1121.56 159.589 Q1123.95 161.881 1128.18 161.881 Q1130.64 161.881 1132.93 161.279 Q1135.24 160.677 1137.51 159.473 L1137.51 163.501 Q1135.22 164.473 1132.81 164.983 Q1130.41 165.492 1127.93 165.492 Q1121.73 165.492 1118.09 161.881 Q1114.48 158.27 1114.48 152.112 Q1114.48 145.747 1117.91 142.02 Q1121.36 138.27 1127.19 138.27 Q1132.42 138.27 1135.45 141.649 Q1138.51 145.006 1138.51 150.793 M1134.25 149.543 Q1134.2 146.048 1132.28 143.964 Q1130.38 141.881 1127.24 141.881 Q1123.67 141.881 1121.52 143.895 Q1119.39 145.909 1119.06 149.566 L1134.25 149.543 Z" fill="#000000" fill-rule="nonzero" fill-opacity="1" /><path clip-path="url(#clip240)" d="M1167.05 149.173 L1167.05 164.821 L1162.79 164.821 L1162.79 149.311 Q1162.79 145.631 1161.36 143.802 Q1159.92 141.974 1157.05 141.974 Q1153.6 141.974 1151.61 144.173 Q1149.62 146.372 1149.62 150.168 L1149.62 164.821 L1145.34 164.821 L1145.34 138.895 L1149.62 138.895 L1149.62 142.923 Q1151.15 140.585 1153.21 139.427 Q1155.29 138.27 1158 138.27 Q1162.47 138.27 1164.76 141.048 Q1167.05 143.802 1167.05 149.173 Z" fill="#000000" fill-rule="nonzero" fill-opacity="1" /><path clip-path="url(#clip240)" d="M1179.76 131.534 L1179.76 138.895 L1188.53 138.895 L1188.53 142.205 L1179.76 142.205 L1179.76 156.279 Q1179.76 159.45 1180.61 160.353 Q1181.49 161.256 1184.16 161.256 L1188.53 161.256 L1188.53 164.821 L1184.16 164.821 Q1179.23 164.821 1177.35 162.992 Q1175.48 161.14 1175.48 156.279 L1175.48 142.205 L1172.35 142.205 L1172.35 138.895 L1175.48 138.895 L1175.48 131.534 L1179.76 131.534 Z" fill="#000000" fill-rule="nonzero" fill-opacity="1" /><path clip-path="url(#clip240)" d="M1210.66 139.659 L1210.66 143.686 Q1208.86 142.761 1206.91 142.298 Q1204.97 141.835 1202.88 141.835 Q1199.71 141.835 1198.11 142.807 Q1196.54 143.779 1196.54 145.723 Q1196.54 147.205 1197.67 148.061 Q1198.81 148.895 1202.23 149.659 L1203.69 149.983 Q1208.23 150.955 1210.13 152.737 Q1212.05 154.497 1212.05 157.668 Q1212.05 161.279 1209.18 163.385 Q1206.33 165.492 1201.33 165.492 Q1199.25 165.492 1196.98 165.075 Q1194.73 164.682 1192.23 163.872 L1192.23 159.473 Q1194.6 160.7 1196.89 161.325 Q1199.18 161.927 1201.42 161.927 Q1204.43 161.927 1206.05 160.909 Q1207.67 159.867 1207.67 157.992 Q1207.67 156.256 1206.49 155.33 Q1205.34 154.404 1201.38 153.548 L1199.9 153.2 Q1195.94 152.367 1194.18 150.654 Q1192.42 148.918 1192.42 145.909 Q1192.42 142.251 1195.01 140.261 Q1197.61 138.27 1202.37 138.27 Q1204.73 138.27 1206.82 138.617 Q1208.9 138.964 1210.66 139.659 Z" fill="#000000" fill-rule="nonzero" fill-opacity="1" /><path clip-path="url(#clip240)" d="M1244.13 128.849 Q1241.03 134.173 1239.53 139.381 Q1238.02 144.589 1238.02 149.936 Q1238.02 155.284 1239.53 160.538 Q1241.05 165.77 1244.13 171.071 L1240.43 171.071 Q1236.96 165.631 1235.22 160.376 Q1233.51 155.122 1233.51 149.936 Q1233.51 144.774 1235.22 139.543 Q1236.93 134.312 1240.43 128.849 L1244.13 128.849 Z" fill="#000000" fill-rule="nonzero" fill-opacity="1" /><path clip-path="url(#clip240)" d="M1274.57 150.793 L1274.57 152.876 L1254.99 152.876 Q1255.27 157.274 1257.63 159.589 Q1260.01 161.881 1264.25 161.881 Q1266.7 161.881 1268.99 161.279 Q1271.31 160.677 1273.58 159.473 L1273.58 163.501 Q1271.29 164.473 1268.88 164.983 Q1266.47 165.492 1263.99 165.492 Q1257.79 165.492 1254.16 161.881 Q1250.54 158.27 1250.54 152.112 Q1250.54 145.747 1253.97 142.02 Q1257.42 138.27 1263.25 138.27 Q1268.48 138.27 1271.52 141.649 Q1274.57 145.006 1274.57 150.793 M1270.31 149.543 Q1270.27 146.048 1268.35 143.964 Q1266.45 141.881 1263.3 141.881 Q1259.73 141.881 1257.58 143.895 Q1255.45 145.909 1255.13 149.566 L1270.31 149.543 Z" fill="#000000" fill-rule="nonzero" fill-opacity="1" /><path clip-path="url(#clip240)" d="M1302.28 138.895 L1292.91 151.511 L1302.77 164.821 L1297.74 164.821 L1290.2 154.635 L1282.65 164.821 L1277.63 164.821 L1287.7 151.256 L1278.48 138.895 L1283.51 138.895 L1290.38 148.131 L1297.26 138.895 L1302.28 138.895 Z" fill="#000000" fill-rule="nonzero" fill-opacity="1" /><path clip-path="url(#clip240)" d="M1313 131.534 L1313 138.895 L1321.77 138.895 L1321.77 142.205 L1313 142.205 L1313 156.279 Q1313 159.45 1313.85 160.353 Q1314.73 161.256 1317.4 161.256 L1321.77 161.256 L1321.77 164.821 L1317.4 164.821 Q1312.47 164.821 1310.59 162.992 Q1308.72 161.14 1308.72 156.279 L1308.72 142.205 L1305.59 142.205 L1305.59 138.895 L1308.72 138.895 L1308.72 131.534 L1313 131.534 Z" fill="#000000" fill-rule="nonzero" fill-opacity="1" /><path clip-path="url(#clip240)" d="M1342.4 142.876 Q1341.68 142.46 1340.82 142.274 Q1339.99 142.066 1338.97 142.066 Q1335.36 142.066 1333.41 144.427 Q1331.49 146.765 1331.49 151.163 L1331.49 164.821 L1327.21 164.821 L1327.21 138.895 L1331.49 138.895 L1331.49 142.923 Q1332.84 140.561 1334.99 139.427 Q1337.14 138.27 1340.22 138.27 Q1340.66 138.27 1341.19 138.339 Q1341.72 138.386 1342.37 138.501 L1342.4 142.876 Z" fill="#000000" fill-rule="nonzero" fill-opacity="1" /><path clip-path="url(#clip240)" d="M1358.65 151.788 Q1353.48 151.788 1351.49 152.969 Q1349.5 154.149 1349.5 156.997 Q1349.5 159.265 1350.98 160.608 Q1352.49 161.927 1355.06 161.927 Q1358.6 161.927 1360.73 159.427 Q1362.88 156.904 1362.88 152.737 L1362.88 151.788 L1358.65 151.788 M1367.14 150.029 L1367.14 164.821 L1362.88 164.821 L1362.88 160.885 Q1361.42 163.247 1359.25 164.381 Q1357.07 165.492 1353.92 165.492 Q1349.94 165.492 1347.58 163.27 Q1345.24 161.024 1345.24 157.274 Q1345.24 152.899 1348.16 150.677 Q1351.1 148.455 1356.91 148.455 L1362.88 148.455 L1362.88 148.038 Q1362.88 145.099 1360.94 143.501 Q1359.02 141.881 1355.52 141.881 Q1353.3 141.881 1351.19 142.413 Q1349.09 142.946 1347.14 144.011 L1347.14 140.075 Q1349.48 139.173 1351.68 138.733 Q1353.88 138.27 1355.96 138.27 Q1361.59 138.27 1364.36 141.186 Q1367.14 144.103 1367.14 150.029 Z" fill="#000000" fill-rule="nonzero" fill-opacity="1" /><path clip-path="url(#clip240)" d="M1394.57 139.89 L1394.57 143.872 Q1392.77 142.876 1390.94 142.39 Q1389.13 141.881 1387.28 141.881 Q1383.14 141.881 1380.84 144.52 Q1378.55 147.136 1378.55 151.881 Q1378.55 156.626 1380.84 159.265 Q1383.14 161.881 1387.28 161.881 Q1389.13 161.881 1390.94 161.395 Q1392.77 160.885 1394.57 159.89 L1394.57 163.825 Q1392.79 164.659 1390.87 165.075 Q1388.97 165.492 1386.82 165.492 Q1380.96 165.492 1377.51 161.811 Q1374.06 158.131 1374.06 151.881 Q1374.06 145.538 1377.53 141.904 Q1381.03 138.27 1387.09 138.27 Q1389.06 138.27 1390.94 138.687 Q1392.81 139.08 1394.57 139.89 Z" fill="#000000" fill-rule="nonzero" fill-opacity="1" /><path clip-path="url(#clip240)" d="M1406.19 131.534 L1406.19 138.895 L1414.97 138.895 L1414.97 142.205 L1406.19 142.205 L1406.19 156.279 Q1406.19 159.45 1407.05 160.353 Q1407.93 161.256 1410.59 161.256 L1414.97 161.256 L1414.97 164.821 L1410.59 164.821 Q1405.66 164.821 1403.78 162.992 Q1401.91 161.14 1401.91 156.279 L1401.91 142.205 L1398.78 142.205 L1398.78 138.895 L1401.91 138.895 L1401.91 131.534 L1406.19 131.534 Z" fill="#000000" fill-rule="nonzero" fill-opacity="1" /><path clip-path="url(#clip240)" d="M1420.57 138.895 L1424.83 138.895 L1424.83 164.821 L1420.57 164.821 L1420.57 138.895 M1420.57 128.802 L1424.83 128.802 L1424.83 134.196 L1420.57 134.196 L1420.57 128.802 Z" fill="#000000" fill-rule="nonzero" fill-opacity="1" /><path clip-path="url(#clip240)" d="M1443.78 141.881 Q1440.36 141.881 1438.37 144.566 Q1436.38 147.228 1436.38 151.881 Q1436.38 156.534 1438.34 159.219 Q1440.34 161.881 1443.78 161.881 Q1447.19 161.881 1449.18 159.196 Q1451.17 156.51 1451.17 151.881 Q1451.17 147.274 1449.18 144.589 Q1447.19 141.881 1443.78 141.881 M1443.78 138.27 Q1449.34 138.27 1452.51 141.881 Q1455.68 145.492 1455.68 151.881 Q1455.68 158.247 1452.51 161.881 Q1449.34 165.492 1443.78 165.492 Q1438.21 165.492 1435.03 161.881 Q1431.89 158.247 1431.89 151.881 Q1431.89 145.492 1435.03 141.881 Q1438.21 138.27 1443.78 138.27 Z" fill="#000000" fill-rule="nonzero" fill-opacity="1" /><path clip-path="url(#clip240)" d="M1484.29 149.173 L1484.29 164.821 L1480.03 164.821 L1480.03 149.311 Q1480.03 145.631 1478.6 143.802 Q1477.16 141.974 1474.29 141.974 Q1470.84 141.974 1468.85 144.173 Q1466.86 146.372 1466.86 150.168 L1466.86 164.821 L1462.58 164.821 L1462.58 138.895 L1466.86 138.895 L1466.86 142.923 Q1468.39 140.585 1470.45 139.427 Q1472.53 138.27 1475.24 138.27 Q1479.71 138.27 1482 141.048 Q1484.29 143.802 1484.29 149.173 Z" fill="#000000" fill-rule="nonzero" fill-opacity="1" /><path clip-path="url(#clip240)" d="M1493.88 158.941 L1498.76 158.941 L1498.76 164.821 L1493.88 164.821 L1493.88 158.941 M1493.88 140.307 L1498.76 140.307 L1498.76 146.186 L1493.88 146.186 L1493.88 140.307 Z" fill="#000000" fill-rule="nonzero" fill-opacity="1" /><path clip-path="url(#clip240)" d="M1523.53 146.186 Q1526.89 146.904 1528.76 149.173 Q1530.66 151.441 1530.66 154.774 Q1530.66 159.89 1527.14 162.691 Q1523.62 165.492 1517.14 165.492 Q1514.96 165.492 1512.65 165.052 Q1510.36 164.635 1507.9 163.779 L1507.9 159.265 Q1509.85 160.399 1512.16 160.978 Q1514.48 161.557 1517 161.557 Q1521.4 161.557 1523.69 159.821 Q1526.01 158.085 1526.01 154.774 Q1526.01 151.719 1523.85 150.006 Q1521.72 148.27 1517.9 148.27 L1513.88 148.27 L1513.88 144.427 L1518.09 144.427 Q1521.54 144.427 1523.37 143.061 Q1525.2 141.673 1525.2 139.08 Q1525.2 136.418 1523.3 135.006 Q1521.42 133.571 1517.9 133.571 Q1515.98 133.571 1513.78 133.987 Q1511.58 134.404 1508.95 135.284 L1508.95 131.117 Q1511.61 130.376 1513.92 130.006 Q1516.26 129.636 1518.32 129.636 Q1523.65 129.636 1526.75 132.066 Q1529.85 134.474 1529.85 138.594 Q1529.85 141.464 1528.21 143.455 Q1526.56 145.423 1523.53 146.186 Z" fill="#000000" fill-rule="nonzero" fill-opacity="1" /><path clip-path="url(#clip240)" d="M1538.25 128.849 L1541.96 128.849 Q1545.43 134.312 1547.14 139.543 Q1548.88 144.774 1548.88 149.936 Q1548.88 155.122 1547.14 160.376 Q1545.43 165.631 1541.96 171.071 L1538.25 171.071 Q1541.33 165.77 1542.83 160.538 Q1544.36 155.284 1544.36 149.936 Q1544.36 144.589 1542.83 139.381 Q1541.33 134.173 1538.25 128.849 Z" fill="#000000" fill-rule="nonzero" fill-opacity="1" /></svg>
