<?xml version="1.0" encoding="utf-8"?>
<svg xmlns="http://www.w3.org/2000/svg" xmlns:xlink="http://www.w3.org/1999/xlink" width="430" height="430" viewBox="0 0 1720 1720">
<defs>
  <clipPath id="clip390">
    <rect x="0" y="0" width="1720" height="1720"/>
  </clipPath>
</defs>
<path clip-path="url(#clip390)" d="M0 1720 L1720 1720 L1720 0 L0 0  Z" fill="#ffffff" fill-rule="evenodd" fill-opacity="1"/>
<defs>
  <clipPath id="clip391">
    <rect x="344" y="172" width="1205" height="1205"/>
  </clipPath>
</defs>
<path clip-path="url(#clip390)" d="M209.636 1500.94 L1672.76 1500.94 L1672.76 47.2441 L209.636 47.2441  Z" fill="#ffffff" fill-rule="evenodd" fill-opacity="1"/>
<defs>
  <clipPath id="clip392">
    <rect x="209" y="47" width="1464" height="1455"/>
  </clipPath>
</defs>
<polyline clip-path="url(#clip392)" style="stroke:#000000; stroke-linecap:round; stroke-linejoin:round; stroke-width:2; stroke-opacity:0.1; fill:none" points="251.045,1500.94 251.045,47.2441 "/>
<polyline clip-path="url(#clip392)" style="stroke:#000000; stroke-linecap:round; stroke-linejoin:round; stroke-width:2; stroke-opacity:0.1; fill:none" points="470.727,1500.94 470.727,47.2441 "/>
<polyline clip-path="url(#clip392)" style="stroke:#000000; stroke-linecap:round; stroke-linejoin:round; stroke-width:2; stroke-opacity:0.1; fill:none" points="690.409,1500.94 690.409,47.2441 "/>
<polyline clip-path="url(#clip392)" style="stroke:#000000; stroke-linecap:round; stroke-linejoin:round; stroke-width:2; stroke-opacity:0.1; fill:none" points="910.091,1500.94 910.091,47.2441 "/>
<polyline clip-path="url(#clip392)" style="stroke:#000000; stroke-linecap:round; stroke-linejoin:round; stroke-width:2; stroke-opacity:0.1; fill:none" points="1129.77,1500.94 1129.77,47.2441 "/>
<polyline clip-path="url(#clip392)" style="stroke:#000000; stroke-linecap:round; stroke-linejoin:round; stroke-width:2; stroke-opacity:0.1; fill:none" points="1349.45,1500.94 1349.45,47.2441 "/>
<polyline clip-path="url(#clip392)" style="stroke:#000000; stroke-linecap:round; stroke-linejoin:round; stroke-width:2; stroke-opacity:0.1; fill:none" points="1569.14,1500.94 1569.14,47.2441 "/>
<polyline clip-path="url(#clip390)" style="stroke:#000000; stroke-linecap:round; stroke-linejoin:round; stroke-width:4; stroke-opacity:1; fill:none" points="209.636,1500.94 1672.76,1500.94 "/>
<polyline clip-path="url(#clip390)" style="stroke:#000000; stroke-linecap:round; stroke-linejoin:round; stroke-width:4; stroke-opacity:1; fill:none" points="251.045,1500.94 251.045,1482.04 "/>
<polyline clip-path="url(#clip390)" style="stroke:#000000; stroke-linecap:round; stroke-linejoin:round; stroke-width:4; stroke-opacity:1; fill:none" points="470.727,1500.94 470.727,1482.04 "/>
<polyline clip-path="url(#clip390)" style="stroke:#000000; stroke-linecap:round; stroke-linejoin:round; stroke-width:4; stroke-opacity:1; fill:none" points="690.409,1500.94 690.409,1482.04 "/>
<polyline clip-path="url(#clip390)" style="stroke:#000000; stroke-linecap:round; stroke-linejoin:round; stroke-width:4; stroke-opacity:1; fill:none" points="910.091,1500.94 910.091,1482.04 "/>
<polyline clip-path="url(#clip390)" style="stroke:#000000; stroke-linecap:round; stroke-linejoin:round; stroke-width:4; stroke-opacity:1; fill:none" points="1129.77,1500.94 1129.77,1482.04 "/>
<polyline clip-path="url(#clip390)" style="stroke:#000000; stroke-linecap:round; stroke-linejoin:round; stroke-width:4; stroke-opacity:1; fill:none" points="1349.45,1500.94 1349.45,1482.04 "/>
<polyline clip-path="url(#clip390)" style="stroke:#000000; stroke-linecap:round; stroke-linejoin:round; stroke-width:4; stroke-opacity:1; fill:none" points="1569.14,1500.94 1569.14,1482.04 "/>
<path clip-path="url(#clip390)" d="M251.045 1526.42 Q247.434 1526.42 245.605 1529.98 Q243.8 1533.52 243.8 1540.65 Q243.8 1547.76 245.605 1551.33 Q247.434 1554.87 251.045 1554.87 Q254.679 1554.87 256.485 1551.33 Q258.313 1547.76 258.313 1540.65 Q258.313 1533.52 256.485 1529.98 Q254.679 1526.42 251.045 1526.42 M251.045 1522.71 Q256.855 1522.71 259.911 1527.32 Q262.989 1531.9 262.989 1540.65 Q262.989 1549.38 259.911 1553.99 Q256.855 1558.57 251.045 1558.57 Q245.235 1558.57 242.156 1553.99 Q239.101 1549.38 239.101 1540.65 Q239.101 1531.9 242.156 1527.32 Q245.235 1522.71 251.045 1522.71 Z" fill="#000000" fill-rule="nonzero" fill-opacity="1" /><path clip-path="url(#clip390)" d="M461.109 1553.96 L468.748 1553.96 L468.748 1527.6 L460.438 1529.27 L460.438 1525.01 L468.701 1523.34 L473.377 1523.34 L473.377 1553.96 L481.016 1553.96 L481.016 1557.9 L461.109 1557.9 L461.109 1553.96 Z" fill="#000000" fill-rule="nonzero" fill-opacity="1" /><path clip-path="url(#clip390)" d="M685.061 1553.96 L701.381 1553.96 L701.381 1557.9 L679.437 1557.9 L679.437 1553.96 Q682.099 1551.21 686.682 1546.58 Q691.288 1541.93 692.469 1540.59 Q694.714 1538.06 695.594 1536.33 Q696.497 1534.57 696.497 1532.88 Q696.497 1530.12 694.552 1528.39 Q692.631 1526.65 689.529 1526.65 Q687.33 1526.65 684.876 1527.41 Q682.446 1528.18 679.668 1529.73 L679.668 1525.01 Q682.492 1523.87 684.946 1523.29 Q687.399 1522.71 689.436 1522.71 Q694.807 1522.71 698.001 1525.4 Q701.196 1528.09 701.196 1532.58 Q701.196 1534.71 700.385 1536.63 Q699.598 1538.52 697.492 1541.12 Q696.913 1541.79 693.811 1545.01 Q690.71 1548.2 685.061 1553.96 Z" fill="#000000" fill-rule="nonzero" fill-opacity="1" /><path clip-path="url(#clip390)" d="M914.338 1539.27 Q917.695 1539.98 919.57 1542.25 Q921.468 1544.52 921.468 1547.85 Q921.468 1552.97 917.949 1555.77 Q914.431 1558.57 907.949 1558.57 Q905.773 1558.57 903.459 1558.13 Q901.167 1557.71 898.713 1556.86 L898.713 1552.34 Q900.658 1553.48 902.973 1554.06 Q905.287 1554.64 907.81 1554.64 Q912.209 1554.64 914.5 1552.9 Q916.815 1551.16 916.815 1547.85 Q916.815 1544.8 914.662 1543.09 Q912.533 1541.35 908.713 1541.35 L904.685 1541.35 L904.685 1537.51 L908.898 1537.51 Q912.347 1537.51 914.176 1536.14 Q916.005 1534.75 916.005 1532.16 Q916.005 1529.5 914.107 1528.09 Q912.232 1526.65 908.713 1526.65 Q906.792 1526.65 904.593 1527.07 Q902.394 1527.48 899.755 1528.36 L899.755 1524.2 Q902.417 1523.46 904.732 1523.09 Q907.07 1522.71 909.13 1522.71 Q914.454 1522.71 917.556 1525.15 Q920.658 1527.55 920.658 1531.67 Q920.658 1534.54 919.014 1536.53 Q917.371 1538.5 914.338 1539.27 Z" fill="#000000" fill-rule="nonzero" fill-opacity="1" /><path clip-path="url(#clip390)" d="M1132.78 1527.41 L1120.98 1545.86 L1132.78 1545.86 L1132.78 1527.41 M1131.55 1523.34 L1137.43 1523.34 L1137.43 1545.86 L1142.36 1545.86 L1142.36 1549.75 L1137.43 1549.75 L1137.43 1557.9 L1132.78 1557.9 L1132.78 1549.75 L1117.18 1549.75 L1117.18 1545.24 L1131.55 1523.34 Z" fill="#000000" fill-rule="nonzero" fill-opacity="1" /><path clip-path="url(#clip390)" d="M1339.73 1523.34 L1358.09 1523.34 L1358.09 1527.28 L1344.01 1527.28 L1344.01 1535.75 Q1345.03 1535.4 1346.05 1535.24 Q1347.07 1535.05 1348.09 1535.05 Q1353.88 1535.05 1357.26 1538.22 Q1360.63 1541.4 1360.63 1546.81 Q1360.63 1552.39 1357.16 1555.49 Q1353.69 1558.57 1347.37 1558.57 Q1345.2 1558.57 1342.93 1558.2 Q1340.68 1557.83 1338.27 1557.09 L1338.27 1552.39 Q1340.36 1553.52 1342.58 1554.08 Q1344.8 1554.64 1347.28 1554.64 Q1351.28 1554.64 1353.62 1552.53 Q1355.96 1550.42 1355.96 1546.81 Q1355.96 1543.2 1353.62 1541.09 Q1351.28 1538.99 1347.28 1538.99 Q1345.4 1538.99 1343.53 1539.4 Q1341.68 1539.82 1339.73 1540.7 L1339.73 1523.34 Z" fill="#000000" fill-rule="nonzero" fill-opacity="1" /><path clip-path="url(#clip390)" d="M1569.54 1538.76 Q1566.39 1538.76 1564.54 1540.91 Q1562.71 1543.06 1562.71 1546.81 Q1562.71 1550.54 1564.54 1552.71 Q1566.39 1554.87 1569.54 1554.87 Q1572.69 1554.87 1574.52 1552.71 Q1576.37 1550.54 1576.37 1546.81 Q1576.37 1543.06 1574.52 1540.91 Q1572.69 1538.76 1569.54 1538.76 M1578.82 1524.1 L1578.82 1528.36 Q1577.06 1527.53 1575.26 1527.09 Q1573.48 1526.65 1571.72 1526.65 Q1567.09 1526.65 1564.63 1529.77 Q1562.2 1532.9 1561.86 1539.22 Q1563.22 1537.21 1565.28 1536.14 Q1567.34 1535.05 1569.82 1535.05 Q1575.03 1535.05 1578.04 1538.22 Q1581.07 1541.37 1581.07 1546.81 Q1581.07 1552.14 1577.92 1555.35 Q1574.77 1558.57 1569.54 1558.57 Q1563.55 1558.57 1560.37 1553.99 Q1557.2 1549.38 1557.2 1540.65 Q1557.2 1532.46 1561.09 1527.6 Q1564.98 1522.71 1571.53 1522.71 Q1573.29 1522.71 1575.07 1523.06 Q1576.88 1523.41 1578.82 1524.1 Z" fill="#000000" fill-rule="nonzero" fill-opacity="1" /><path clip-path="url(#clip390)" d="M951.317 1613.01 L931.043 1613.01 Q931.52 1622.52 933.716 1626.56 Q936.453 1631.53 941.196 1631.53 Q945.97 1631.53 948.612 1626.53 Q950.935 1622.14 951.317 1613.01 M951.222 1607.59 Q950.331 1598.56 948.612 1595.37 Q945.875 1590.34 941.196 1590.34 Q936.326 1590.34 933.748 1595.31 Q931.711 1599.32 931.106 1607.59 L951.222 1607.59 M941.196 1585.57 Q948.835 1585.57 953.195 1592.32 Q957.556 1599.03 957.556 1610.94 Q957.556 1622.81 953.195 1629.56 Q948.835 1636.34 941.196 1636.34 Q933.525 1636.34 929.197 1629.56 Q924.836 1622.81 924.836 1610.94 Q924.836 1599.03 929.197 1592.32 Q933.525 1585.57 941.196 1585.57 Z" fill="#000000" fill-rule="nonzero" fill-opacity="1" /><polyline clip-path="url(#clip392)" style="stroke:#000000; stroke-linecap:round; stroke-linejoin:round; stroke-width:2; stroke-opacity:0.1; fill:none" points="209.636,1228.93 1672.76,1228.93 "/>
<polyline clip-path="url(#clip392)" style="stroke:#000000; stroke-linecap:round; stroke-linejoin:round; stroke-width:2; stroke-opacity:0.1; fill:none" points="209.636,905.743 1672.76,905.743 "/>
<polyline clip-path="url(#clip392)" style="stroke:#000000; stroke-linecap:round; stroke-linejoin:round; stroke-width:2; stroke-opacity:0.1; fill:none" points="209.636,582.557 1672.76,582.557 "/>
<polyline clip-path="url(#clip392)" style="stroke:#000000; stroke-linecap:round; stroke-linejoin:round; stroke-width:2; stroke-opacity:0.1; fill:none" points="209.636,259.371 1672.76,259.371 "/>
<polyline clip-path="url(#clip390)" style="stroke:#000000; stroke-linecap:round; stroke-linejoin:round; stroke-width:4; stroke-opacity:1; fill:none" points="209.636,1500.94 209.636,47.2441 "/>
<polyline clip-path="url(#clip390)" style="stroke:#000000; stroke-linecap:round; stroke-linejoin:round; stroke-width:4; stroke-opacity:1; fill:none" points="209.636,1228.93 228.534,1228.93 "/>
<polyline clip-path="url(#clip390)" style="stroke:#000000; stroke-linecap:round; stroke-linejoin:round; stroke-width:4; stroke-opacity:1; fill:none" points="209.636,905.743 228.534,905.743 "/>
<polyline clip-path="url(#clip390)" style="stroke:#000000; stroke-linecap:round; stroke-linejoin:round; stroke-width:4; stroke-opacity:1; fill:none" points="209.636,582.557 228.534,582.557 "/>
<polyline clip-path="url(#clip390)" style="stroke:#000000; stroke-linecap:round; stroke-linejoin:round; stroke-width:4; stroke-opacity:1; fill:none" points="209.636,259.371 228.534,259.371 "/>
<path clip-path="url(#clip390)" d="M67.3319 1214.73 Q63.7208 1214.73 61.8921 1218.29 Q60.0865 1221.83 60.0865 1228.96 Q60.0865 1236.07 61.8921 1239.64 Q63.7208 1243.18 67.3319 1243.18 Q70.9661 1243.18 72.7717 1239.64 Q74.6004 1236.07 74.6004 1228.96 Q74.6004 1221.83 72.7717 1218.29 Q70.9661 1214.73 67.3319 1214.73 M67.3319 1211.02 Q73.142 1211.02 76.1976 1215.63 Q79.2763 1220.21 79.2763 1228.96 Q79.2763 1237.69 76.1976 1242.3 Q73.142 1246.88 67.3319 1246.88 Q61.5217 1246.88 58.443 1242.3 Q55.3875 1237.69 55.3875 1228.96 Q55.3875 1220.21 58.443 1215.63 Q61.5217 1211.02 67.3319 1211.02 Z" fill="#000000" fill-rule="nonzero" fill-opacity="1" /><path clip-path="url(#clip390)" d="M87.4938 1240.33 L92.378 1240.33 L92.378 1246.21 L87.4938 1246.21 L87.4938 1240.33 Z" fill="#000000" fill-rule="nonzero" fill-opacity="1" /><path clip-path="url(#clip390)" d="M112.563 1214.73 Q108.952 1214.73 107.123 1218.29 Q105.318 1221.83 105.318 1228.96 Q105.318 1236.07 107.123 1239.64 Q108.952 1243.18 112.563 1243.18 Q116.197 1243.18 118.003 1239.64 Q119.832 1236.07 119.832 1228.96 Q119.832 1221.83 118.003 1218.29 Q116.197 1214.73 112.563 1214.73 M112.563 1211.02 Q118.373 1211.02 121.429 1215.63 Q124.507 1220.21 124.507 1228.96 Q124.507 1237.69 121.429 1242.3 Q118.373 1246.88 112.563 1246.88 Q106.753 1246.88 103.674 1242.3 Q100.619 1237.69 100.619 1228.96 Q100.619 1220.21 103.674 1215.63 Q106.753 1211.02 112.563 1211.02 Z" fill="#000000" fill-rule="nonzero" fill-opacity="1" /><path clip-path="url(#clip390)" d="M142.725 1214.73 Q139.114 1214.73 137.285 1218.29 Q135.48 1221.83 135.48 1228.96 Q135.48 1236.07 137.285 1239.64 Q139.114 1243.18 142.725 1243.18 Q146.359 1243.18 148.165 1239.64 Q149.993 1236.07 149.993 1228.96 Q149.993 1221.83 148.165 1218.29 Q146.359 1214.73 142.725 1214.73 M142.725 1211.02 Q148.535 1211.02 151.591 1215.63 Q154.669 1220.21 154.669 1228.96 Q154.669 1237.69 151.591 1242.3 Q148.535 1246.88 142.725 1246.88 Q136.915 1246.88 133.836 1242.3 Q130.781 1237.69 130.781 1228.96 Q130.781 1220.21 133.836 1215.63 Q136.915 1211.02 142.725 1211.02 Z" fill="#000000" fill-rule="nonzero" fill-opacity="1" /><path clip-path="url(#clip390)" d="M162.933 1211.65 L181.29 1211.65 L181.29 1215.58 L167.216 1215.58 L167.216 1224.06 Q168.234 1223.71 169.253 1223.55 Q170.271 1223.36 171.29 1223.36 Q177.077 1223.36 180.456 1226.53 Q183.836 1229.7 183.836 1235.12 Q183.836 1240.7 180.364 1243.8 Q176.891 1246.88 170.572 1246.88 Q168.396 1246.88 166.128 1246.51 Q163.882 1246.14 161.475 1245.4 L161.475 1240.7 Q163.558 1241.83 165.78 1242.39 Q168.003 1242.95 170.479 1242.95 Q174.484 1242.95 176.822 1240.84 Q179.16 1238.73 179.16 1235.12 Q179.16 1231.51 176.822 1229.4 Q174.484 1227.3 170.479 1227.3 Q168.604 1227.3 166.729 1227.71 Q164.878 1228.13 162.933 1229.01 L162.933 1211.65 Z" fill="#000000" fill-rule="nonzero" fill-opacity="1" /><path clip-path="url(#clip390)" d="M66.3365 891.542 Q62.7254 891.542 60.8967 895.107 Q59.0912 898.648 59.0912 905.778 Q59.0912 912.884 60.8967 916.449 Q62.7254 919.991 66.3365 919.991 Q69.9707 919.991 71.7763 916.449 Q73.605 912.884 73.605 905.778 Q73.605 898.648 71.7763 895.107 Q69.9707 891.542 66.3365 891.542 M66.3365 887.838 Q72.1467 887.838 75.2022 892.445 Q78.2809 897.028 78.2809 905.778 Q78.2809 914.505 75.2022 919.111 Q72.1467 923.694 66.3365 923.694 Q60.5264 923.694 57.4477 919.111 Q54.3921 914.505 54.3921 905.778 Q54.3921 897.028 57.4477 892.445 Q60.5264 887.838 66.3365 887.838 Z" fill="#000000" fill-rule="nonzero" fill-opacity="1" /><path clip-path="url(#clip390)" d="M86.4984 917.144 L91.3827 917.144 L91.3827 923.023 L86.4984 923.023 L86.4984 917.144 Z" fill="#000000" fill-rule="nonzero" fill-opacity="1" /><path clip-path="url(#clip390)" d="M111.568 891.542 Q107.957 891.542 106.128 895.107 Q104.322 898.648 104.322 905.778 Q104.322 912.884 106.128 916.449 Q107.957 919.991 111.568 919.991 Q115.202 919.991 117.008 916.449 Q118.836 912.884 118.836 905.778 Q118.836 898.648 117.008 895.107 Q115.202 891.542 111.568 891.542 M111.568 887.838 Q117.378 887.838 120.433 892.445 Q123.512 897.028 123.512 905.778 Q123.512 914.505 120.433 919.111 Q117.378 923.694 111.568 923.694 Q105.758 923.694 102.679 919.111 Q99.6234 914.505 99.6234 905.778 Q99.6234 897.028 102.679 892.445 Q105.758 887.838 111.568 887.838 Z" fill="#000000" fill-rule="nonzero" fill-opacity="1" /><path clip-path="url(#clip390)" d="M132.54 919.088 L140.179 919.088 L140.179 892.722 L131.869 894.389 L131.869 890.13 L140.132 888.463 L144.808 888.463 L144.808 919.088 L152.447 919.088 L152.447 923.023 L132.54 923.023 L132.54 919.088 Z" fill="#000000" fill-rule="nonzero" fill-opacity="1" /><path clip-path="url(#clip390)" d="M171.891 891.542 Q168.28 891.542 166.452 895.107 Q164.646 898.648 164.646 905.778 Q164.646 912.884 166.452 916.449 Q168.28 919.991 171.891 919.991 Q175.526 919.991 177.331 916.449 Q179.16 912.884 179.16 905.778 Q179.16 898.648 177.331 895.107 Q175.526 891.542 171.891 891.542 M171.891 887.838 Q177.702 887.838 180.757 892.445 Q183.836 897.028 183.836 905.778 Q183.836 914.505 180.757 919.111 Q177.702 923.694 171.891 923.694 Q166.081 923.694 163.003 919.111 Q159.947 914.505 159.947 905.778 Q159.947 897.028 163.003 892.445 Q166.081 887.838 171.891 887.838 Z" fill="#000000" fill-rule="nonzero" fill-opacity="1" /><path clip-path="url(#clip390)" d="M67.3319 568.356 Q63.7208 568.356 61.8921 571.921 Q60.0865 575.462 60.0865 582.592 Q60.0865 589.698 61.8921 593.263 Q63.7208 596.805 67.3319 596.805 Q70.9661 596.805 72.7717 593.263 Q74.6004 589.698 74.6004 582.592 Q74.6004 575.462 72.7717 571.921 Q70.9661 568.356 67.3319 568.356 M67.3319 564.652 Q73.142 564.652 76.1976 569.259 Q79.2763 573.842 79.2763 582.592 Q79.2763 591.319 76.1976 595.925 Q73.142 600.509 67.3319 600.509 Q61.5217 600.509 58.443 595.925 Q55.3875 591.319 55.3875 582.592 Q55.3875 573.842 58.443 569.259 Q61.5217 564.652 67.3319 564.652 Z" fill="#000000" fill-rule="nonzero" fill-opacity="1" /><path clip-path="url(#clip390)" d="M87.4938 593.958 L92.378 593.958 L92.378 599.837 L87.4938 599.837 L87.4938 593.958 Z" fill="#000000" fill-rule="nonzero" fill-opacity="1" /><path clip-path="url(#clip390)" d="M112.563 568.356 Q108.952 568.356 107.123 571.921 Q105.318 575.462 105.318 582.592 Q105.318 589.698 107.123 593.263 Q108.952 596.805 112.563 596.805 Q116.197 596.805 118.003 593.263 Q119.832 589.698 119.832 582.592 Q119.832 575.462 118.003 571.921 Q116.197 568.356 112.563 568.356 M112.563 564.652 Q118.373 564.652 121.429 569.259 Q124.507 573.842 124.507 582.592 Q124.507 591.319 121.429 595.925 Q118.373 600.509 112.563 600.509 Q106.753 600.509 103.674 595.925 Q100.619 591.319 100.619 582.592 Q100.619 573.842 103.674 569.259 Q106.753 564.652 112.563 564.652 Z" fill="#000000" fill-rule="nonzero" fill-opacity="1" /><path clip-path="url(#clip390)" d="M133.535 595.902 L141.174 595.902 L141.174 569.536 L132.864 571.203 L132.864 566.944 L141.128 565.277 L145.804 565.277 L145.804 595.902 L153.443 595.902 L153.443 599.837 L133.535 599.837 L133.535 595.902 Z" fill="#000000" fill-rule="nonzero" fill-opacity="1" /><path clip-path="url(#clip390)" d="M162.933 565.277 L181.29 565.277 L181.29 569.212 L167.216 569.212 L167.216 577.685 Q168.234 577.337 169.253 577.175 Q170.271 576.99 171.29 576.99 Q177.077 576.99 180.456 580.161 Q183.836 583.333 183.836 588.749 Q183.836 594.328 180.364 597.43 Q176.891 600.509 170.572 600.509 Q168.396 600.509 166.128 600.138 Q163.882 599.768 161.475 599.027 L161.475 594.328 Q163.558 595.462 165.78 596.018 Q168.003 596.573 170.479 596.573 Q174.484 596.573 176.822 594.467 Q179.16 592.36 179.16 588.749 Q179.16 585.138 176.822 583.032 Q174.484 580.925 170.479 580.925 Q168.604 580.925 166.729 581.342 Q164.878 581.759 162.933 582.638 L162.933 565.277 Z" fill="#000000" fill-rule="nonzero" fill-opacity="1" /><path clip-path="url(#clip390)" d="M66.3365 245.17 Q62.7254 245.17 60.8967 248.735 Q59.0912 252.276 59.0912 259.406 Q59.0912 266.512 60.8967 270.077 Q62.7254 273.619 66.3365 273.619 Q69.9707 273.619 71.7763 270.077 Q73.605 266.512 73.605 259.406 Q73.605 252.276 71.7763 248.735 Q69.9707 245.17 66.3365 245.17 M66.3365 241.466 Q72.1467 241.466 75.2022 246.073 Q78.2809 250.656 78.2809 259.406 Q78.2809 268.133 75.2022 272.739 Q72.1467 277.323 66.3365 277.323 Q60.5264 277.323 57.4477 272.739 Q54.3921 268.133 54.3921 259.406 Q54.3921 250.656 57.4477 246.073 Q60.5264 241.466 66.3365 241.466 Z" fill="#000000" fill-rule="nonzero" fill-opacity="1" /><path clip-path="url(#clip390)" d="M86.4984 270.772 L91.3827 270.772 L91.3827 276.651 L86.4984 276.651 L86.4984 270.772 Z" fill="#000000" fill-rule="nonzero" fill-opacity="1" /><path clip-path="url(#clip390)" d="M111.568 245.17 Q107.957 245.17 106.128 248.735 Q104.322 252.276 104.322 259.406 Q104.322 266.512 106.128 270.077 Q107.957 273.619 111.568 273.619 Q115.202 273.619 117.008 270.077 Q118.836 266.512 118.836 259.406 Q118.836 252.276 117.008 248.735 Q115.202 245.17 111.568 245.17 M111.568 241.466 Q117.378 241.466 120.433 246.073 Q123.512 250.656 123.512 259.406 Q123.512 268.133 120.433 272.739 Q117.378 277.323 111.568 277.323 Q105.758 277.323 102.679 272.739 Q99.6234 268.133 99.6234 259.406 Q99.6234 250.656 102.679 246.073 Q105.758 241.466 111.568 241.466 Z" fill="#000000" fill-rule="nonzero" fill-opacity="1" /><path clip-path="url(#clip390)" d="M135.757 272.716 L152.077 272.716 L152.077 276.651 L130.132 276.651 L130.132 272.716 Q132.794 269.961 137.378 265.332 Q141.984 260.679 143.165 259.337 Q145.41 256.813 146.29 255.077 Q147.193 253.318 147.193 251.628 Q147.193 248.874 145.248 247.138 Q143.327 245.401 140.225 245.401 Q138.026 245.401 135.572 246.165 Q133.142 246.929 130.364 248.48 L130.364 243.758 Q133.188 242.624 135.642 242.045 Q138.095 241.466 140.132 241.466 Q145.503 241.466 148.697 244.151 Q151.892 246.837 151.892 251.327 Q151.892 253.457 151.081 255.378 Q150.294 257.276 148.188 259.869 Q147.609 260.54 144.507 263.758 Q141.406 266.952 135.757 272.716 Z" fill="#000000" fill-rule="nonzero" fill-opacity="1" /><path clip-path="url(#clip390)" d="M171.891 245.17 Q168.28 245.17 166.452 248.735 Q164.646 252.276 164.646 259.406 Q164.646 266.512 166.452 270.077 Q168.28 273.619 171.891 273.619 Q175.526 273.619 177.331 270.077 Q179.16 266.512 179.16 259.406 Q179.16 252.276 177.331 248.735 Q175.526 245.17 171.891 245.17 M171.891 241.466 Q177.702 241.466 180.757 246.073 Q183.836 250.656 183.836 259.406 Q183.836 268.133 180.757 272.739 Q177.702 277.323 171.891 277.323 Q166.081 277.323 163.003 272.739 Q159.947 268.133 159.947 259.406 Q159.947 250.656 163.003 246.073 Q166.081 241.466 171.891 241.466 Z" fill="#000000" fill-rule="nonzero" fill-opacity="1" /><polyline clip-path="url(#clip392)" style="stroke:#009af9; stroke-linecap:round; stroke-linejoin:round; stroke-width:4; stroke-opacity:1; fill:none" points="251.045,1335.05 252.772,1338.84 254.5,1342.63 256.228,1346.39 257.955,1350.13 259.683,1353.84 261.41,1357.52 263.138,1361.17 264.865,1364.77 266.593,1368.33 268.32,1371.85 270.048,1375.31 271.775,1378.72 273.503,1382.07 275.23,1385.37 276.958,1388.6 278.686,1391.76 280.413,1394.86 282.141,1397.88 283.868,1400.84 285.596,1403.72 287.323,1406.53 289.051,1409.25 290.778,1411.9 292.506,1414.47 294.233,1416.96 295.961,1419.37 297.688,1421.7 299.416,1423.94 301.144,1426.11 302.871,1428.19 304.599,1430.19 306.326,1432.11 308.054,1433.95 309.781,1435.71 311.509,1437.39 313.236,1438.99 314.964,1440.52 316.691,1441.98 318.419,1443.36 320.146,1444.67 321.874,1445.91 323.601,1447.08 325.329,1448.18 327.057,1449.22 328.784,1450.2 330.512,1451.11 332.239,1451.97 333.967,1452.77 335.694,1453.51 337.422,1454.2 339.149,1454.84 340.877,1455.44 342.604,1455.98 344.332,1456.48 346.059,1456.94 347.787,1457.35 349.515,1457.73 351.242,1458.07 352.97,1458.37 354.697,1458.64 356.425,1458.87 358.152,1459.08 359.88,1459.26 361.607,1459.41 363.335,1459.53 365.062,1459.63 366.79,1459.7 368.517,1459.75 370.245,1459.79 371.973,1459.8 373.7,1459.79 375.428,1459.77 377.155,1459.73 378.883,1459.67 380.61,1459.6 382.338,1459.51 384.065,1459.41 385.793,1459.3 387.52,1459.18 389.248,1459.05 390.975,1458.9 392.703,1458.75 394.43,1458.58 396.158,1458.41 397.886,1458.23 399.613,1458.04 401.341,1457.84 403.068,1457.64 404.796,1457.43 406.523,1457.21 408.251,1456.98 409.978,1456.75 411.706,1456.51 413.433,1456.27 415.161,1456.02 416.888,1455.76 418.616,1455.5 420.344,1455.23 422.071,1454.96 423.799,1454.68 425.526,1454.4 427.254,1454.11 428.981,1453.82 430.709,1453.52 432.436,1453.22 434.164,1452.91 435.891,1452.59 437.619,1452.28 439.346,1451.95 441.074,1451.63 442.802,1451.29 444.529,1450.95 446.257,1450.61 447.984,1450.26 449.712,1449.91 451.439,1449.55 453.167,1449.19 454.894,1448.82 456.622,1448.45 458.349,1448.07 460.077,1447.69 461.804,1447.3 463.532,1446.91 465.259,1446.51 466.987,1446.1 468.715,1445.69 470.442,1445.28 472.17,1444.86 473.897,1444.43 475.625,1444 477.352,1443.56 479.08,1443.12 480.807,1442.67 482.535,1442.21 484.262,1441.75 485.99,1441.28 487.717,1440.81 489.445,1440.33 491.173,1439.85 492.9,1439.36 494.628,1438.86 496.355,1438.35 498.083,1437.84 499.81,1437.33 501.538,1436.8 503.265,1436.27 504.993,1435.73 506.72,1435.19 508.448,1434.64 510.175,1434.08 511.903,1433.51 513.631,1432.94 515.358,1432.36 517.086,1431.77 518.813,1431.18 520.541,1430.58 522.268,1429.97 523.996,1429.35 525.723,1428.72 527.451,1428.09 529.178,1427.45 530.906,1426.8 532.633,1426.14 534.361,1425.47 536.089,1424.8 537.816,1424.11 539.544,1423.42 541.271,1422.72 542.999,1422.01 544.726,1421.29 546.454,1420.56 548.181,1419.82 549.909,1419.07 551.636,1418.31 553.364,1417.55 555.091,1416.77 556.819,1415.98 558.546,1415.18 560.274,1414.38 562.002,1413.56 563.729,1412.73 565.457,1411.89 567.184,1411.04 568.912,1410.17 570.639,1409.3 572.367,1408.42 574.094,1407.52 575.822,1406.61 577.549,1405.69 579.277,1404.76 581.004,1403.82 582.732,1402.86 584.46,1401.89 586.187,1400.91 587.915,1399.92 589.642,1398.91 591.37,1397.89 593.097,1396.86 594.825,1395.81 596.552,1394.75 598.28,1393.67 600.007,1392.58 601.735,1391.48 603.462,1390.36 605.19,1389.23 606.918,1388.09 608.645,1386.92 610.373,1385.75 612.1,1384.56 613.828,1383.35 615.555,1382.12 617.283,1380.89 619.01,1379.63 620.738,1378.36 622.465,1377.07 624.193,1375.77 625.92,1374.44 627.648,1373.11 629.375,1371.75 631.103,1370.38 632.831,1368.98 634.558,1367.57 636.286,1366.15 638.013,1364.7 639.741,1363.24 641.468,1361.75 643.196,1360.25 644.923,1358.73 646.651,1357.19 648.378,1355.63 650.106,1354.05 651.833,1352.45 653.561,1350.83 655.289,1349.19 657.016,1347.53 658.744,1345.84 660.471,1344.14 662.199,1342.42 663.926,1340.67 665.654,1338.9 667.381,1337.11 669.109,1335.3 670.836,1333.47 672.564,1331.61 674.291,1329.74 676.019,1327.84 677.747,1325.91 679.474,1323.97 681.202,1322 682.929,1320 684.657,1317.99 686.384,1315.95 688.112,1313.89 689.839,1311.8 691.567,1309.69 693.294,1307.56 695.022,1305.4 696.749,1303.22 698.477,1301.01 700.205,1298.78 701.932,1296.53 703.66,1294.25 705.387,1291.95 707.115,1289.63 708.842,1287.28 710.57,1284.91 712.297,1282.51 714.025,1280.09 715.752,1277.65 717.48,1275.18 719.207,1272.69 720.935,1270.18 722.662,1267.64 724.39,1265.09 726.118,1262.51 727.845,1259.9 729.573,1257.28 731.3,1254.63 733.028,1251.97 734.755,1249.28 736.483,1246.57 738.21,1243.84 739.938,1241.09 741.665,1238.32 743.393,1235.54 745.12,1232.73 746.848,1229.91 748.576,1227.06 750.303,1224.21 752.031,1221.33 753.758,1218.44 755.486,1215.53 757.213,1212.61 758.941,1209.67 760.668,1206.72 762.396,1203.75 764.123,1200.78 765.851,1197.78 767.578,1194.78 769.306,1191.77 771.034,1188.74 772.761,1185.7 774.489,1182.65 776.216,1179.59 777.944,1176.52 779.671,1173.45 781.399,1170.36 783.126,1167.26 784.854,1164.15 786.581,1161.03 788.309,1157.9 790.036,1154.76 791.764,1151.61 793.491,1148.45 795.219,1145.27 796.947,1142.08 798.674,1138.88 800.402,1135.66 802.129,1132.42 803.857,1129.17 805.584,1125.89 807.312,1122.59 809.039,1119.27 810.767,1115.92 812.494,1112.54 814.222,1109.13 815.949,1105.68 817.677,1102.19 819.405,1098.65 821.132,1095.07 822.86,1091.44 824.587,1087.74 826.315,1083.99 828.042,1080.16 829.77,1076.27 831.497,1072.29 833.225,1068.23 834.952,1064.07 836.68,1059.81 838.407,1055.45 840.135,1050.97 841.863,1046.37 843.59,1041.64 845.318,1036.77 847.045,1031.75 848.773,1026.57 850.5,1021.23 852.228,1015.72 853.955,1010.02 855.683,1004.13 857.41,998.034 859.138,991.729 860.865,985.204 862.593,978.449 864.321,971.456 866.048,964.215 867.776,956.719 869.503,948.959 871.231,940.927 872.958,932.616 874.686,924.019 876.413,915.129 878.141,905.941 879.868,896.45 881.596,886.651 883.323,876.54 885.051,866.114 886.778,855.372 888.506,844.312 890.234,832.933 891.961,821.237 893.689,809.226 895.416,796.902 897.144,784.27 898.871,771.334 900.599,758.101 902.326,744.578 904.054,730.775 905.781,716.7 907.509,702.365 909.236,687.782 910.964,672.965 912.692,657.928 914.419,642.687 916.147,627.258 917.874,611.66 919.602,595.912 921.329,580.032 923.057,564.043 924.784,547.965 926.512,531.821 928.239,515.634 929.967,499.427 931.694,483.226 933.422,467.054 935.15,450.936 936.877,434.899 938.605,418.967 940.332,403.166 942.06,387.521 943.787,372.059 945.515,356.804 947.242,341.781 948.97,327.015 950.697,312.53 952.425,298.349 954.152,284.495 955.88,270.99 957.607,257.856 959.335,245.112 961.063,232.778 962.79,220.872 964.518,209.412 966.245,198.412 967.973,187.889 969.7,177.855 971.428,168.323 973.155,159.303 974.883,150.806 976.61,142.838 978.338,135.408 980.065,128.52 981.793,122.179 983.521,116.388 985.248,111.147 986.976,106.457 988.703,102.318 990.431,98.7251 992.158,95.6765 993.886,93.1669 995.613,91.1906 997.341,89.7405 999.068,88.8088 1000.8,88.3864 1002.52,88.4637 1004.25,89.0301 1005.98,90.0741 1007.71,91.5837 1009.43,93.5462 1011.16,95.9483 1012.89,98.7761 1014.62,102.016 1016.34,105.652 1018.07,109.67 1019.8,114.056 1021.53,118.792 1023.25,123.865 1024.98,129.258 1026.71,134.956 1028.44,140.943 1030.16,147.203 1031.89,153.722 1033.62,160.483 1035.35,167.472 1037.07,174.675 1038.8,182.075 1040.53,189.66 1042.26,197.415 1043.98,205.326 1045.71,213.38 1047.44,221.565 1049.17,229.867 1050.89,238.275 1052.62,246.777 1054.35,255.362 1056.08,264.018 1057.8,272.736 1059.53,281.506 1061.26,290.317 1062.99,299.162 1064.71,308.03 1066.44,316.915 1068.17,325.808 1069.9,334.701 1071.62,343.589 1073.35,352.463 1075.08,361.319 1076.81,370.149 1078.54,378.949 1080.26,387.713 1081.99,396.436 1083.72,405.115 1085.45,413.744 1087.17,422.32 1088.9,430.839 1090.63,439.299 1092.36,447.694 1094.08,456.024 1095.81,464.285 1097.54,472.475 1099.27,480.592 1100.99,488.633 1102.72,496.598 1104.45,504.484 1106.18,512.289 1107.9,520.013 1109.63,527.655 1111.36,535.213 1113.09,542.687 1114.81,550.076 1116.54,557.378 1118.27,564.595 1120,571.725 1121.72,578.768 1123.45,585.723 1125.18,592.591 1126.91,599.372 1128.63,606.065 1130.36,612.671 1132.09,619.189 1133.82,625.62 1135.54,631.964 1137.27,638.222 1139,644.393 1140.73,650.478 1142.45,656.477 1144.18,662.391 1145.91,668.219 1147.64,673.964 1149.36,679.624 1151.09,685.201 1152.82,690.695 1154.55,696.107 1156.27,701.436 1158,706.684 1159.73,711.851 1161.46,716.938 1163.18,721.945 1164.91,726.873 1166.64,731.722 1168.37,736.493 1170.09,741.187 1171.82,745.803 1173.55,750.343 1175.28,754.807 1177,759.196 1178.73,763.509 1180.46,767.748 1182.19,771.913 1183.91,776.004 1185.64,780.022 1187.37,783.967 1189.1,787.84 1190.82,791.641 1192.55,795.371 1194.28,799.029 1196.01,802.616 1197.74,806.132 1199.46,809.578 1201.19,812.953 1202.92,816.258 1204.65,819.493 1206.37,822.658 1208.1,825.754 1209.83,828.779 1211.56,831.735 1213.28,834.62 1215.01,837.436 1216.74,840.181 1218.47,842.856 1220.19,845.46 1221.92,847.993 1223.65,850.455 1225.38,852.844 1227.1,855.162 1228.83,857.406 1230.56,859.577 1232.29,861.673 1234.01,863.694 1235.74,865.64 1237.47,867.508 1239.2,869.299 1240.92,871.011 1242.65,872.643 1244.38,874.194 1246.11,875.662 1247.83,877.046 1249.56,878.345 1251.29,879.558 1253.02,880.682 1254.74,881.716 1256.47,882.658 1258.2,883.506 1259.93,884.26 1261.65,884.916 1263.38,885.473 1265.11,885.928 1266.84,886.28 1268.56,886.527 1270.29,886.667 1272.02,886.697 1273.75,886.615 1275.47,886.42 1277.2,886.108 1278.93,885.679 1280.66,885.13 1282.38,884.459 1284.11,883.664 1285.84,882.743 1287.57,881.695 1289.29,880.519 1291.02,879.212 1292.75,877.773 1294.48,876.201 1296.2,874.496 1297.93,872.657 1299.66,870.683 1301.39,868.575 1303.11,866.331 1304.84,863.953 1306.57,861.442 1308.3,858.798 1310.03,856.023 1311.75,853.119 1313.48,850.088 1315.21,846.933 1316.94,843.657 1318.66,840.263 1320.39,836.756 1322.12,833.139 1323.85,829.419 1325.57,825.6 1327.3,821.689 1329.03,817.692 1330.76,813.617 1332.48,809.47 1334.21,805.259 1335.94,800.994 1337.67,796.684 1339.39,792.337 1341.12,787.964 1342.85,783.575 1344.58,779.182 1346.3,774.795 1348.03,770.426 1349.76,766.088 1351.49,761.791 1353.21,757.549 1354.94,753.375 1356.67,749.281 1358.4,745.281 1360.12,741.388 1361.85,737.615 1363.58,733.975 1365.31,730.481 1367.03,727.147 1368.76,723.986 1370.49,721.01 1372.22,718.231 1373.94,715.662 1375.67,713.314 1377.4,711.2 1379.13,709.328 1380.85,707.711 1382.58,706.357 1384.31,705.276 1386.04,704.477 1387.76,703.965 1389.49,703.75 1391.22,703.837 1392.95,704.231 1394.67,704.936 1396.4,705.957 1398.13,707.296 1399.86,708.955 1401.58,710.934 1403.31,713.235 1405.04,715.855 1406.77,718.792 1408.49,722.045 1410.22,725.609 1411.95,729.479 1413.68,733.65 1415.4,738.116 1417.13,742.869 1418.86,747.901 1420.59,753.204 1422.31,758.767 1424.04,764.582 1425.77,770.637 1427.5,776.92 1429.23,783.42 1430.95,790.124 1432.68,797.02 1434.41,804.093 1436.14,811.332 1437.86,818.721 1439.59,826.248 1441.32,833.897 1443.05,841.655 1444.77,849.507 1446.5,857.439 1448.23,865.438 1449.96,873.488 1451.68,881.577 1453.41,889.69 1455.14,897.815 1456.87,905.939 1458.59,914.048 1460.32,922.131 1462.05,930.176 1463.78,938.172 1465.5,946.108 1467.23,953.974 1468.96,961.76 1470.69,969.456 1472.41,977.055 1474.14,984.549 1475.87,991.93 1477.6,999.191 1479.32,1006.33 1481.05,1013.33 1482.78,1020.2 1484.51,1026.93 1486.23,1033.52 1487.96,1039.95 1489.69,1046.24 1491.42,1052.38 1493.14,1058.37 1494.87,1064.2 1496.6,1069.88 1498.33,1075.41 1500.05,1080.78 1501.78,1086.01 1503.51,1091.08 1505.24,1096.01 1506.96,1100.79 1508.69,1105.43 1510.42,1109.93 1512.15,1114.29 1513.87,1118.52 1515.6,1122.63 1517.33,1126.61 1519.06,1130.47 1520.78,1134.21 1522.51,1137.85 1524.24,1141.38 1525.97,1144.81 1527.69,1148.15 1529.42,1151.4 1531.15,1154.56 1532.88,1157.65 1534.6,1160.66 1536.33,1163.61 1538.06,1166.5 1539.79,1169.32 1541.51,1172.1 1543.24,1174.84 1544.97,1177.53 1546.7,1180.19 1548.43,1182.82 1550.15,1185.42 1551.88,1188.01 1553.61,1190.59 1555.34,1193.15 1557.06,1195.71 1558.79,1198.27 1560.52,1200.84 1562.25,1203.41 1563.97,1206 1565.7,1208.61 1567.43,1211.23 1569.16,1213.88 1570.88,1216.56 1572.61,1219.27 1574.34,1222.01 1576.07,1224.79 1577.79,1227.6 1579.52,1230.46 1581.25,1233.36 1582.98,1236.3 1584.7,1239.29 1586.43,1242.32 1588.16,1245.4 1589.89,1248.53 1591.61,1251.71 1593.34,1254.94 1595.07,1258.21 1596.8,1261.53 1598.52,1264.9 1600.25,1268.32 1601.98,1271.78 1603.71,1275.28 1605.43,1278.82 1607.16,1282.4 1608.89,1286.02 1610.62,1289.67 1612.34,1293.36 1614.07,1297.07 1615.8,1300.81 1617.53,1304.57 1619.25,1308.35 1620.98,1312.15 1622.71,1315.96 1624.44,1319.77 1626.16,1323.6 1627.89,1327.42 1629.62,1331.24 1631.35,1335.05 "/>
<path clip-path="url(#clip390)" d="M792.029 199.381 L1623.99 199.381 L1623.99 95.7006 L792.029 95.7006  Z" fill="#ffffff" fill-rule="evenodd" fill-opacity="1"/>
<polyline clip-path="url(#clip390)" style="stroke:#000000; stroke-linecap:round; stroke-linejoin:round; stroke-width:4; stroke-opacity:1; fill:none" points="792.029,199.381 1623.99,199.381 1623.99,95.7006 792.029,95.7006 792.029,199.381 "/>
<polyline clip-path="url(#clip390)" style="stroke:#009af9; stroke-linecap:round; stroke-linejoin:round; stroke-width:4; stroke-opacity:1; fill:none" points="808.286,147.541 905.827,147.541 "/>
<path clip-path="url(#clip390)" d="M942.431 143.872 Q944.028 141.001 946.25 139.636 Q948.473 138.27 951.482 138.27 Q955.533 138.27 957.732 141.117 Q959.931 143.941 959.931 149.173 L959.931 164.821 L955.649 164.821 L955.649 149.311 Q955.649 145.585 954.329 143.779 Q953.01 141.974 950.301 141.974 Q946.991 141.974 945.07 144.173 Q943.149 146.372 943.149 150.168 L943.149 164.821 L938.866 164.821 L938.866 149.311 Q938.866 145.561 937.547 143.779 Q936.227 141.974 933.473 141.974 Q930.209 141.974 928.288 144.196 Q926.366 146.395 926.366 150.168 L926.366 164.821 L922.084 164.821 L922.084 138.895 L926.366 138.895 L926.366 142.923 Q927.825 140.538 929.862 139.404 Q931.899 138.27 934.7 138.27 Q937.524 138.27 939.491 139.705 Q941.482 141.14 942.431 143.872 Z" fill="#000000" fill-rule="nonzero" fill-opacity="1" /><path clip-path="url(#clip390)" d="M990.602 150.793 L990.602 152.876 L971.019 152.876 Q971.297 157.274 973.658 159.589 Q976.042 161.881 980.278 161.881 Q982.732 161.881 985.023 161.279 Q987.338 160.677 989.607 159.473 L989.607 163.501 Q987.315 164.473 984.908 164.983 Q982.5 165.492 980.023 165.492 Q973.82 165.492 970.185 161.881 Q966.574 158.27 966.574 152.112 Q966.574 145.747 970 142.02 Q973.449 138.27 979.283 138.27 Q984.514 138.27 987.546 141.649 Q990.602 145.006 990.602 150.793 M986.343 149.543 Q986.296 146.048 984.375 143.964 Q982.477 141.881 979.329 141.881 Q975.764 141.881 973.611 143.895 Q971.482 145.909 971.158 149.566 L986.343 149.543 Z" fill="#000000" fill-rule="nonzero" fill-opacity="1" /><path clip-path="url(#clip390)" d="M1009.38 151.788 Q1004.21 151.788 1002.22 152.969 Q1000.23 154.149 1000.23 156.997 Q1000.23 159.265 1001.71 160.608 Q1003.22 161.927 1005.79 161.927 Q1009.33 161.927 1011.46 159.427 Q1013.61 156.904 1013.61 152.737 L1013.61 151.788 L1009.38 151.788 M1017.87 150.029 L1017.87 164.821 L1013.61 164.821 L1013.61 160.885 Q1012.15 163.247 1009.98 164.381 Q1007.8 165.492 1004.65 165.492 Q1000.67 165.492 998.31 163.27 Q995.972 161.024 995.972 157.274 Q995.972 152.899 998.889 150.677 Q1001.83 148.455 1007.64 148.455 L1013.61 148.455 L1013.61 148.038 Q1013.61 145.099 1011.67 143.501 Q1009.75 141.881 1006.25 141.881 Q1004.03 141.881 1001.92 142.413 Q999.815 142.946 997.871 144.011 L997.871 140.075 Q1000.21 139.173 1002.41 138.733 Q1004.61 138.27 1006.69 138.27 Q1012.31 138.27 1015.09 141.186 Q1017.87 144.103 1017.87 150.029 Z" fill="#000000" fill-rule="nonzero" fill-opacity="1" /><path clip-path="url(#clip390)" d="M1043.17 139.659 L1043.17 143.686 Q1041.37 142.761 1039.42 142.298 Q1037.48 141.835 1035.39 141.835 Q1032.22 141.835 1030.62 142.807 Q1029.05 143.779 1029.05 145.723 Q1029.05 147.205 1030.19 148.061 Q1031.32 148.895 1034.75 149.659 L1036.2 149.983 Q1040.74 150.955 1042.64 152.737 Q1044.56 154.497 1044.56 157.668 Q1044.56 161.279 1041.69 163.385 Q1038.84 165.492 1033.84 165.492 Q1031.76 165.492 1029.49 165.075 Q1027.25 164.682 1024.75 163.872 L1024.75 159.473 Q1027.11 160.7 1029.4 161.325 Q1031.69 161.927 1033.94 161.927 Q1036.94 161.927 1038.56 160.909 Q1040.19 159.867 1040.19 157.992 Q1040.19 156.256 1039 155.33 Q1037.85 154.404 1033.89 153.548 L1032.41 153.2 Q1028.45 152.367 1026.69 150.654 Q1024.93 148.918 1024.93 145.909 Q1024.93 142.251 1027.52 140.261 Q1030.12 138.27 1034.88 138.27 Q1037.25 138.27 1039.33 138.617 Q1041.41 138.964 1043.17 139.659 Z" fill="#000000" fill-rule="nonzero" fill-opacity="1" /><path clip-path="url(#clip390)" d="M1050.9 154.589 L1050.9 138.895 L1055.16 138.895 L1055.16 154.427 Q1055.16 158.108 1056.6 159.96 Q1058.03 161.788 1060.9 161.788 Q1064.35 161.788 1066.34 159.589 Q1068.36 157.39 1068.36 153.594 L1068.36 138.895 L1072.62 138.895 L1072.62 164.821 L1068.36 164.821 L1068.36 160.839 Q1066.81 163.2 1064.75 164.358 Q1062.71 165.492 1060 165.492 Q1055.53 165.492 1053.22 162.714 Q1050.9 159.936 1050.9 154.589 M1061.62 138.27 L1061.62 138.27 Z" fill="#000000" fill-rule="nonzero" fill-opacity="1" /><path clip-path="url(#clip390)" d="M1096.41 142.876 Q1095.69 142.46 1094.84 142.274 Q1094 142.066 1092.99 142.066 Q1089.37 142.066 1087.43 144.427 Q1085.51 146.765 1085.51 151.163 L1085.51 164.821 L1081.23 164.821 L1081.23 138.895 L1085.51 138.895 L1085.51 142.923 Q1086.85 140.561 1089 139.427 Q1091.16 138.27 1094.24 138.27 Q1094.68 138.27 1095.21 138.339 Q1095.74 138.386 1096.39 138.501 L1096.41 142.876 Z" fill="#000000" fill-rule="nonzero" fill-opacity="1" /><path clip-path="url(#clip390)" d="M1122.01 150.793 L1122.01 152.876 L1102.43 152.876 Q1102.71 157.274 1105.07 159.589 Q1107.45 161.881 1111.69 161.881 Q1114.14 161.881 1116.43 161.279 Q1118.75 160.677 1121.02 159.473 L1121.02 163.501 Q1118.73 164.473 1116.32 164.983 Q1113.91 165.492 1111.43 165.492 Q1105.23 165.492 1101.6 161.881 Q1097.99 158.27 1097.99 152.112 Q1097.99 145.747 1101.41 142.02 Q1104.86 138.27 1110.69 138.27 Q1115.93 138.27 1118.96 141.649 Q1122.01 145.006 1122.01 150.793 M1117.75 149.543 Q1117.71 146.048 1115.79 143.964 Q1113.89 141.881 1110.74 141.881 Q1107.18 141.881 1105.02 143.895 Q1102.89 145.909 1102.57 149.566 L1117.75 149.543 Z" fill="#000000" fill-rule="nonzero" fill-opacity="1" /><path clip-path="url(#clip390)" d="M1149.19 143.872 Q1150.79 141.001 1153.01 139.636 Q1155.23 138.27 1158.24 138.27 Q1162.29 138.27 1164.49 141.117 Q1166.69 143.941 1166.69 149.173 L1166.69 164.821 L1162.41 164.821 L1162.41 149.311 Q1162.41 145.585 1161.09 143.779 Q1159.77 141.974 1157.06 141.974 Q1153.75 141.974 1151.83 144.173 Q1149.91 146.372 1149.91 150.168 L1149.91 164.821 L1145.62 164.821 L1145.62 149.311 Q1145.62 145.561 1144.3 143.779 Q1142.99 141.974 1140.23 141.974 Q1136.97 141.974 1135.05 144.196 Q1133.12 146.395 1133.12 150.168 L1133.12 164.821 L1128.84 164.821 L1128.84 138.895 L1133.12 138.895 L1133.12 142.923 Q1134.58 140.538 1136.62 139.404 Q1138.66 138.27 1141.46 138.27 Q1144.28 138.27 1146.25 139.705 Q1148.24 141.14 1149.19 143.872 Z" fill="#000000" fill-rule="nonzero" fill-opacity="1" /><path clip-path="url(#clip390)" d="M1197.36 150.793 L1197.36 152.876 L1177.78 152.876 Q1178.05 157.274 1180.42 159.589 Q1182.8 161.881 1187.04 161.881 Q1189.49 161.881 1191.78 161.279 Q1194.1 160.677 1196.36 159.473 L1196.36 163.501 Q1194.07 164.473 1191.67 164.983 Q1189.26 165.492 1186.78 165.492 Q1180.58 165.492 1176.94 161.881 Q1173.33 158.27 1173.33 152.112 Q1173.33 145.747 1176.76 142.02 Q1180.21 138.27 1186.04 138.27 Q1191.27 138.27 1194.3 141.649 Q1197.36 145.006 1197.36 150.793 M1193.1 149.543 Q1193.05 146.048 1191.13 143.964 Q1189.24 141.881 1186.09 141.881 Q1182.52 141.881 1180.37 143.895 Q1178.24 145.909 1177.92 149.566 L1193.1 149.543 Z" fill="#000000" fill-rule="nonzero" fill-opacity="1" /><path clip-path="url(#clip390)" d="M1225.9 149.173 L1225.9 164.821 L1221.64 164.821 L1221.64 149.311 Q1221.64 145.631 1220.21 143.802 Q1218.77 141.974 1215.9 141.974 Q1212.45 141.974 1210.46 144.173 Q1208.47 146.372 1208.47 150.168 L1208.47 164.821 L1204.19 164.821 L1204.19 138.895 L1208.47 138.895 L1208.47 142.923 Q1210 140.585 1212.06 139.427 Q1214.14 138.27 1216.85 138.27 Q1221.32 138.27 1223.61 141.048 Q1225.9 143.802 1225.9 149.173 Z" fill="#000000" fill-rule="nonzero" fill-opacity="1" /><path clip-path="url(#clip390)" d="M1238.61 131.534 L1238.61 138.895 L1247.38 138.895 L1247.38 142.205 L1238.61 142.205 L1238.61 156.279 Q1238.61 159.45 1239.47 160.353 Q1240.35 161.256 1243.01 161.256 L1247.38 161.256 L1247.38 164.821 L1243.01 164.821 Q1238.08 164.821 1236.2 162.992 Q1234.33 161.14 1234.33 156.279 L1234.33 142.205 L1231.2 142.205 L1231.2 138.895 L1234.33 138.895 L1234.33 131.534 L1238.61 131.534 Z" fill="#000000" fill-rule="nonzero" fill-opacity="1" /><path clip-path="url(#clip390)" d="M1269.51 139.659 L1269.51 143.686 Q1267.71 142.761 1265.76 142.298 Q1263.82 141.835 1261.73 141.835 Q1258.56 141.835 1256.97 142.807 Q1255.39 143.779 1255.39 145.723 Q1255.39 147.205 1256.53 148.061 Q1257.66 148.895 1261.09 149.659 L1262.55 149.983 Q1267.08 150.955 1268.98 152.737 Q1270.9 154.497 1270.9 157.668 Q1270.9 161.279 1268.03 163.385 Q1265.18 165.492 1260.18 165.492 Q1258.1 165.492 1255.83 165.075 Q1253.59 164.682 1251.09 163.872 L1251.09 159.473 Q1253.45 160.7 1255.74 161.325 Q1258.03 161.927 1260.28 161.927 Q1263.29 161.927 1264.91 160.909 Q1266.53 159.867 1266.53 157.992 Q1266.53 156.256 1265.35 155.33 Q1264.19 154.404 1260.23 153.548 L1258.75 153.2 Q1254.79 152.367 1253.03 150.654 Q1251.27 148.918 1251.27 145.909 Q1251.27 142.251 1253.86 140.261 Q1256.46 138.27 1261.23 138.27 Q1263.59 138.27 1265.67 138.617 Q1267.75 138.964 1269.51 139.659 Z" fill="#000000" fill-rule="nonzero" fill-opacity="1" /><path clip-path="url(#clip390)" d="M1302.98 128.849 Q1299.88 134.173 1298.38 139.381 Q1296.87 144.589 1296.87 149.936 Q1296.87 155.284 1298.38 160.538 Q1299.91 165.77 1302.98 171.071 L1299.28 171.071 Q1295.81 165.631 1294.07 160.376 Q1292.36 155.122 1292.36 149.936 Q1292.36 144.774 1294.07 139.543 Q1295.79 134.312 1299.28 128.849 L1302.98 128.849 Z" fill="#000000" fill-rule="nonzero" fill-opacity="1" /><path clip-path="url(#clip390)" d="M1333.42 150.793 L1333.42 152.876 L1313.84 152.876 Q1314.12 157.274 1316.48 159.589 Q1318.86 161.881 1323.1 161.881 Q1325.55 161.881 1327.85 161.279 Q1330.16 160.677 1332.43 159.473 L1332.43 163.501 Q1330.14 164.473 1327.73 164.983 Q1325.32 165.492 1322.85 165.492 Q1316.64 165.492 1313.01 161.881 Q1309.4 158.27 1309.4 152.112 Q1309.4 145.747 1312.82 142.02 Q1316.27 138.27 1322.1 138.27 Q1327.34 138.27 1330.37 141.649 Q1333.42 145.006 1333.42 150.793 M1329.17 149.543 Q1329.12 146.048 1327.2 143.964 Q1325.3 141.881 1322.15 141.881 Q1318.59 141.881 1316.43 143.895 Q1314.3 145.909 1313.98 149.566 L1329.17 149.543 Z" fill="#000000" fill-rule="nonzero" fill-opacity="1" /><path clip-path="url(#clip390)" d="M1361.13 138.895 L1351.76 151.511 L1361.62 164.821 L1356.6 164.821 L1349.05 154.635 L1341.5 164.821 L1336.48 164.821 L1346.55 151.256 L1337.34 138.895 L1342.36 138.895 L1349.23 148.131 L1356.11 138.895 L1361.13 138.895 Z" fill="#000000" fill-rule="nonzero" fill-opacity="1" /><path clip-path="url(#clip390)" d="M1371.85 131.534 L1371.85 138.895 L1380.62 138.895 L1380.62 142.205 L1371.85 142.205 L1371.85 156.279 Q1371.85 159.45 1372.71 160.353 Q1373.59 161.256 1376.25 161.256 L1380.62 161.256 L1380.62 164.821 L1376.25 164.821 Q1371.32 164.821 1369.44 162.992 Q1367.57 161.14 1367.57 156.279 L1367.57 142.205 L1364.44 142.205 L1364.44 138.895 L1367.57 138.895 L1367.57 131.534 L1371.85 131.534 Z" fill="#000000" fill-rule="nonzero" fill-opacity="1" /><path clip-path="url(#clip390)" d="M1401.25 142.876 Q1400.53 142.46 1399.67 142.274 Q1398.84 142.066 1397.82 142.066 Q1394.21 142.066 1392.27 144.427 Q1390.35 146.765 1390.35 151.163 L1390.35 164.821 L1386.06 164.821 L1386.06 138.895 L1390.35 138.895 L1390.35 142.923 Q1391.69 140.561 1393.84 139.427 Q1395.99 138.27 1399.07 138.27 Q1399.51 138.27 1400.04 138.339 Q1400.58 138.386 1401.22 138.501 L1401.25 142.876 Z" fill="#000000" fill-rule="nonzero" fill-opacity="1" /><path clip-path="url(#clip390)" d="M1417.5 151.788 Q1412.34 151.788 1410.35 152.969 Q1408.35 154.149 1408.35 156.997 Q1408.35 159.265 1409.84 160.608 Q1411.34 161.927 1413.91 161.927 Q1417.45 161.927 1419.58 159.427 Q1421.73 156.904 1421.73 152.737 L1421.73 151.788 L1417.5 151.788 M1425.99 150.029 L1425.99 164.821 L1421.73 164.821 L1421.73 160.885 Q1420.28 163.247 1418.1 164.381 Q1415.92 165.492 1412.78 165.492 Q1408.79 165.492 1406.43 163.27 Q1404.1 161.024 1404.1 157.274 Q1404.1 152.899 1407.01 150.677 Q1409.95 148.455 1415.76 148.455 L1421.73 148.455 L1421.73 148.038 Q1421.73 145.099 1419.79 143.501 Q1417.87 141.881 1414.37 141.881 Q1412.15 141.881 1410.04 142.413 Q1407.94 142.946 1405.99 144.011 L1405.99 140.075 Q1408.33 139.173 1410.53 138.733 Q1412.73 138.27 1414.81 138.27 Q1420.44 138.27 1423.22 141.186 Q1425.99 144.103 1425.99 150.029 Z" fill="#000000" fill-rule="nonzero" fill-opacity="1" /><path clip-path="url(#clip390)" d="M1453.42 139.89 L1453.42 143.872 Q1451.62 142.876 1449.79 142.39 Q1447.98 141.881 1446.13 141.881 Q1441.99 141.881 1439.7 144.52 Q1437.41 147.136 1437.41 151.881 Q1437.41 156.626 1439.7 159.265 Q1441.99 161.881 1446.13 161.881 Q1447.98 161.881 1449.79 161.395 Q1451.62 160.885 1453.42 159.89 L1453.42 163.825 Q1451.64 164.659 1449.72 165.075 Q1447.82 165.492 1445.67 165.492 Q1439.81 165.492 1436.36 161.811 Q1432.91 158.131 1432.91 151.881 Q1432.91 145.538 1436.39 141.904 Q1439.88 138.27 1445.95 138.27 Q1447.91 138.27 1449.79 138.687 Q1451.66 139.08 1453.42 139.89 Z" fill="#000000" fill-rule="nonzero" fill-opacity="1" /><path clip-path="url(#clip390)" d="M1465.04 131.534 L1465.04 138.895 L1473.82 138.895 L1473.82 142.205 L1465.04 142.205 L1465.04 156.279 Q1465.04 159.45 1465.9 160.353 Q1466.78 161.256 1469.44 161.256 L1473.82 161.256 L1473.82 164.821 L1469.44 164.821 Q1464.51 164.821 1462.64 162.992 Q1460.76 161.14 1460.76 156.279 L1460.76 142.205 L1457.64 142.205 L1457.64 138.895 L1460.76 138.895 L1460.76 131.534 L1465.04 131.534 Z" fill="#000000" fill-rule="nonzero" fill-opacity="1" /><path clip-path="url(#clip390)" d="M1479.42 138.895 L1483.68 138.895 L1483.68 164.821 L1479.42 164.821 L1479.42 138.895 M1479.42 128.802 L1483.68 128.802 L1483.68 134.196 L1479.42 134.196 L1479.42 128.802 Z" fill="#000000" fill-rule="nonzero" fill-opacity="1" /><path clip-path="url(#clip390)" d="M1502.64 141.881 Q1499.21 141.881 1497.22 144.566 Q1495.23 147.228 1495.23 151.881 Q1495.23 156.534 1497.2 159.219 Q1499.19 161.881 1502.64 161.881 Q1506.04 161.881 1508.03 159.196 Q1510.02 156.51 1510.02 151.881 Q1510.02 147.274 1508.03 144.589 Q1506.04 141.881 1502.64 141.881 M1502.64 138.27 Q1508.19 138.27 1511.36 141.881 Q1514.53 145.492 1514.53 151.881 Q1514.53 158.247 1511.36 161.881 Q1508.19 165.492 1502.64 165.492 Q1497.06 165.492 1493.89 161.881 Q1490.74 158.247 1490.74 151.881 Q1490.74 145.492 1493.89 141.881 Q1497.06 138.27 1502.64 138.27 Z" fill="#000000" fill-rule="nonzero" fill-opacity="1" /><path clip-path="url(#clip390)" d="M1543.15 149.173 L1543.15 164.821 L1538.89 164.821 L1538.89 149.311 Q1538.89 145.631 1537.45 143.802 Q1536.02 141.974 1533.15 141.974 Q1529.7 141.974 1527.71 144.173 Q1525.71 146.372 1525.71 150.168 L1525.71 164.821 L1521.43 164.821 L1521.43 138.895 L1525.71 138.895 L1525.71 142.923 Q1527.24 140.585 1529.3 139.427 Q1531.39 138.27 1534.09 138.27 Q1538.56 138.27 1540.85 141.048 Q1543.15 143.802 1543.15 149.173 Z" fill="#000000" fill-rule="nonzero" fill-opacity="1" /><path clip-path="url(#clip390)" d="M1552.73 158.941 L1557.61 158.941 L1557.61 164.821 L1552.73 164.821 L1552.73 158.941 M1552.73 140.307 L1557.61 140.307 L1557.61 146.186 L1552.73 146.186 L1552.73 140.307 Z" fill="#000000" fill-rule="nonzero" fill-opacity="1" /><path clip-path="url(#clip390)" d="M1581.06 134.335 L1569.26 152.784 L1581.06 152.784 L1581.06 134.335 M1579.83 130.261 L1585.71 130.261 L1585.71 152.784 L1590.65 152.784 L1590.65 156.673 L1585.71 156.673 L1585.71 164.821 L1581.06 164.821 L1581.06 156.673 L1565.46 156.673 L1565.46 152.159 L1579.83 130.261 Z" fill="#000000" fill-rule="nonzero" fill-opacity="1" /><path clip-path="url(#clip390)" d="M1597.1 128.849 L1600.81 128.849 Q1604.28 134.312 1605.99 139.543 Q1607.73 144.774 1607.73 149.936 Q1607.73 155.122 1605.99 160.376 Q1604.28 165.631 1600.81 171.071 L1597.1 171.071 Q1600.18 165.77 1601.69 160.538 Q1603.21 155.284 1603.21 149.936 Q1603.21 144.589 1601.69 139.381 Q1600.18 134.173 1597.1 128.849 Z" fill="#000000" fill-rule="nonzero" fill-opacity="1" /></svg>
