<?xml version="1.0" encoding="utf-8"?>
<svg xmlns="http://www.w3.org/2000/svg" xmlns:xlink="http://www.w3.org/1999/xlink" width="430" height="430" viewBox="0 0 1720 1720">
<defs>
  <clipPath id="clip280">
    <rect x="0" y="0" width="1720" height="1720"/>
  </clipPath>
</defs>
<path clip-path="url(#clip280)" d="M0 1720 L1720 1720 L1720 0 L0 0  Z" fill="#ffffff" fill-rule="evenodd" fill-opacity="1"/>
<defs>
  <clipPath id="clip281">
    <rect x="344" y="172" width="1205" height="1205"/>
  </clipPath>
</defs>
<path clip-path="url(#clip280)" d="M209.636 1500.94 L1609.76 1500.94 L1609.76 47.2441 L209.636 47.2441  Z" fill="#ffffff" fill-rule="evenodd" fill-opacity="1"/>
<defs>
  <clipPath id="clip282">
    <rect x="209" y="47" width="1401" height="1455"/>
  </clipPath>
</defs>
<polyline clip-path="url(#clip282)" style="stroke:#000000; stroke-linecap:round; stroke-linejoin:round; stroke-width:2; stroke-opacity:0.1; fill:none" points="249.262,1500.94 249.262,47.2441 "/>
<polyline clip-path="url(#clip282)" style="stroke:#000000; stroke-linecap:round; stroke-linejoin:round; stroke-width:2; stroke-opacity:0.1; fill:none" points="459.486,1500.94 459.486,47.2441 "/>
<polyline clip-path="url(#clip282)" style="stroke:#000000; stroke-linecap:round; stroke-linejoin:round; stroke-width:2; stroke-opacity:0.1; fill:none" points="669.71,1500.94 669.71,47.2441 "/>
<polyline clip-path="url(#clip282)" style="stroke:#000000; stroke-linecap:round; stroke-linejoin:round; stroke-width:2; stroke-opacity:0.1; fill:none" points="879.934,1500.94 879.934,47.2441 "/>
<polyline clip-path="url(#clip282)" style="stroke:#000000; stroke-linecap:round; stroke-linejoin:round; stroke-width:2; stroke-opacity:0.1; fill:none" points="1090.16,1500.94 1090.16,47.2441 "/>
<polyline clip-path="url(#clip282)" style="stroke:#000000; stroke-linecap:round; stroke-linejoin:round; stroke-width:2; stroke-opacity:0.1; fill:none" points="1300.38,1500.94 1300.38,47.2441 "/>
<polyline clip-path="url(#clip282)" style="stroke:#000000; stroke-linecap:round; stroke-linejoin:round; stroke-width:2; stroke-opacity:0.1; fill:none" points="1510.61,1500.94 1510.61,47.2441 "/>
<polyline clip-path="url(#clip280)" style="stroke:#000000; stroke-linecap:round; stroke-linejoin:round; stroke-width:4; stroke-opacity:1; fill:none" points="209.636,1500.94 1609.76,1500.94 "/>
<polyline clip-path="url(#clip280)" style="stroke:#000000; stroke-linecap:round; stroke-linejoin:round; stroke-width:4; stroke-opacity:1; fill:none" points="249.262,1500.94 249.262,1482.04 "/>
<polyline clip-path="url(#clip280)" style="stroke:#000000; stroke-linecap:round; stroke-linejoin:round; stroke-width:4; stroke-opacity:1; fill:none" points="459.486,1500.94 459.486,1482.04 "/>
<polyline clip-path="url(#clip280)" style="stroke:#000000; stroke-linecap:round; stroke-linejoin:round; stroke-width:4; stroke-opacity:1; fill:none" points="669.71,1500.94 669.71,1482.04 "/>
<polyline clip-path="url(#clip280)" style="stroke:#000000; stroke-linecap:round; stroke-linejoin:round; stroke-width:4; stroke-opacity:1; fill:none" points="879.934,1500.94 879.934,1482.04 "/>
<polyline clip-path="url(#clip280)" style="stroke:#000000; stroke-linecap:round; stroke-linejoin:round; stroke-width:4; stroke-opacity:1; fill:none" points="1090.16,1500.94 1090.16,1482.04 "/>
<polyline clip-path="url(#clip280)" style="stroke:#000000; stroke-linecap:round; stroke-linejoin:round; stroke-width:4; stroke-opacity:1; fill:none" points="1300.38,1500.94 1300.38,1482.04 "/>
<polyline clip-path="url(#clip280)" style="stroke:#000000; stroke-linecap:round; stroke-linejoin:round; stroke-width:4; stroke-opacity:1; fill:none" points="1510.61,1500.94 1510.61,1482.04 "/>
<path clip-path="url(#clip280)" d="M249.262 1526.42 Q245.651 1526.42 243.822 1529.98 Q242.017 1533.52 242.017 1540.65 Q242.017 1547.76 243.822 1551.33 Q245.651 1554.87 249.262 1554.87 Q252.896 1554.87 254.702 1551.33 Q256.531 1547.76 256.531 1540.65 Q256.531 1533.52 254.702 1529.98 Q252.896 1526.42 249.262 1526.42 M249.262 1522.71 Q255.072 1522.71 258.128 1527.32 Q261.207 1531.9 261.207 1540.65 Q261.207 1549.38 258.128 1553.99 Q255.072 1558.57 249.262 1558.57 Q243.452 1558.57 240.373 1553.99 Q237.318 1549.38 237.318 1540.65 Q237.318 1531.9 240.373 1527.32 Q243.452 1522.71 249.262 1522.71 Z" fill="#000000" fill-rule="nonzero" fill-opacity="1" /><path clip-path="url(#clip280)" d="M449.868 1553.96 L457.507 1553.96 L457.507 1527.6 L449.197 1529.27 L449.197 1525.01 L457.461 1523.34 L462.136 1523.34 L462.136 1553.96 L469.775 1553.96 L469.775 1557.9 L449.868 1557.9 L449.868 1553.96 Z" fill="#000000" fill-rule="nonzero" fill-opacity="1" /><path clip-path="url(#clip280)" d="M664.363 1553.96 L680.682 1553.96 L680.682 1557.9 L658.738 1557.9 L658.738 1553.96 Q661.4 1551.21 665.983 1546.58 Q670.589 1541.93 671.77 1540.59 Q674.015 1538.06 674.895 1536.33 Q675.798 1534.57 675.798 1532.88 Q675.798 1530.12 673.853 1528.39 Q671.932 1526.65 668.83 1526.65 Q666.631 1526.65 664.177 1527.41 Q661.747 1528.18 658.969 1529.73 L658.969 1525.01 Q661.793 1523.87 664.247 1523.29 Q666.701 1522.71 668.738 1522.71 Q674.108 1522.71 677.302 1525.4 Q680.497 1528.09 680.497 1532.58 Q680.497 1534.71 679.687 1536.63 Q678.9 1538.52 676.793 1541.12 Q676.214 1541.79 673.113 1545.01 Q670.011 1548.2 664.363 1553.96 Z" fill="#000000" fill-rule="nonzero" fill-opacity="1" /><path clip-path="url(#clip280)" d="M884.181 1539.27 Q887.538 1539.98 889.413 1542.25 Q891.311 1544.52 891.311 1547.85 Q891.311 1552.97 887.792 1555.77 Q884.274 1558.57 877.792 1558.57 Q875.617 1558.57 873.302 1558.13 Q871.01 1557.71 868.556 1556.86 L868.556 1552.34 Q870.501 1553.48 872.816 1554.06 Q875.13 1554.64 877.654 1554.64 Q882.052 1554.64 884.343 1552.9 Q886.658 1551.16 886.658 1547.85 Q886.658 1544.8 884.505 1543.09 Q882.376 1541.35 878.556 1541.35 L874.529 1541.35 L874.529 1537.51 L878.742 1537.51 Q882.191 1537.51 884.019 1536.14 Q885.848 1534.75 885.848 1532.16 Q885.848 1529.5 883.95 1528.09 Q882.075 1526.65 878.556 1526.65 Q876.635 1526.65 874.436 1527.07 Q872.237 1527.48 869.598 1528.36 L869.598 1524.2 Q872.26 1523.46 874.575 1523.09 Q876.913 1522.71 878.973 1522.71 Q884.297 1522.71 887.399 1525.15 Q890.501 1527.55 890.501 1531.67 Q890.501 1534.54 888.857 1536.53 Q887.214 1538.5 884.181 1539.27 Z" fill="#000000" fill-rule="nonzero" fill-opacity="1" /><path clip-path="url(#clip280)" d="M1093.17 1527.41 L1081.36 1545.86 L1093.17 1545.86 L1093.17 1527.41 M1091.94 1523.34 L1097.82 1523.34 L1097.82 1545.86 L1102.75 1545.86 L1102.75 1549.75 L1097.82 1549.75 L1097.82 1557.9 L1093.17 1557.9 L1093.17 1549.75 L1077.56 1549.75 L1077.56 1545.24 L1091.94 1523.34 Z" fill="#000000" fill-rule="nonzero" fill-opacity="1" /><path clip-path="url(#clip280)" d="M1290.66 1523.34 L1309.02 1523.34 L1309.02 1527.28 L1294.94 1527.28 L1294.94 1535.75 Q1295.96 1535.4 1296.98 1535.24 Q1298 1535.05 1299.02 1535.05 Q1304.8 1535.05 1308.18 1538.22 Q1311.56 1541.4 1311.56 1546.81 Q1311.56 1552.39 1308.09 1555.49 Q1304.62 1558.57 1298.3 1558.57 Q1296.12 1558.57 1293.85 1558.2 Q1291.61 1557.83 1289.2 1557.09 L1289.2 1552.39 Q1291.28 1553.52 1293.51 1554.08 Q1295.73 1554.64 1298.21 1554.64 Q1302.21 1554.64 1304.55 1552.53 Q1306.89 1550.42 1306.89 1546.81 Q1306.89 1543.2 1304.55 1541.09 Q1302.21 1538.99 1298.21 1538.99 Q1296.33 1538.99 1294.46 1539.4 Q1292.6 1539.82 1290.66 1540.7 L1290.66 1523.34 Z" fill="#000000" fill-rule="nonzero" fill-opacity="1" /><path clip-path="url(#clip280)" d="M1511.01 1538.76 Q1507.86 1538.76 1506.01 1540.91 Q1504.18 1543.06 1504.18 1546.81 Q1504.18 1550.54 1506.01 1552.71 Q1507.86 1554.87 1511.01 1554.87 Q1514.16 1554.87 1515.99 1552.71 Q1517.84 1550.54 1517.84 1546.81 Q1517.84 1543.06 1515.99 1540.91 Q1514.16 1538.76 1511.01 1538.76 M1520.29 1524.1 L1520.29 1528.36 Q1518.53 1527.53 1516.73 1527.09 Q1514.95 1526.65 1513.19 1526.65 Q1508.56 1526.65 1506.1 1529.77 Q1503.67 1532.9 1503.33 1539.22 Q1504.69 1537.21 1506.75 1536.14 Q1508.81 1535.05 1511.29 1535.05 Q1516.5 1535.05 1519.51 1538.22 Q1522.54 1541.37 1522.54 1546.81 Q1522.54 1552.14 1519.39 1555.35 Q1516.24 1558.57 1511.01 1558.57 Q1505.01 1558.57 1501.84 1553.99 Q1498.67 1549.38 1498.67 1540.65 Q1498.67 1532.46 1502.56 1527.6 Q1506.45 1522.71 1513 1522.71 Q1514.76 1522.71 1516.54 1523.06 Q1518.35 1523.41 1520.29 1524.1 Z" fill="#000000" fill-rule="nonzero" fill-opacity="1" /><path clip-path="url(#clip280)" d="M919.821 1613.01 L899.547 1613.01 Q900.024 1622.52 902.22 1626.56 Q904.957 1631.53 909.7 1631.53 Q914.474 1631.53 917.116 1626.53 Q919.439 1622.14 919.821 1613.01 M919.726 1607.59 Q918.835 1598.56 917.116 1595.37 Q914.379 1590.34 909.7 1590.34 Q904.83 1590.34 902.252 1595.31 Q900.215 1599.32 899.61 1607.59 L919.726 1607.59 M909.7 1585.57 Q917.339 1585.57 921.699 1592.32 Q926.06 1599.03 926.06 1610.94 Q926.06 1622.81 921.699 1629.56 Q917.339 1636.34 909.7 1636.34 Q902.029 1636.34 897.7 1629.56 Q893.34 1622.81 893.34 1610.94 Q893.34 1599.03 897.7 1592.32 Q902.029 1585.57 909.7 1585.57 Z" fill="#000000" fill-rule="nonzero" fill-opacity="1" /><polyline clip-path="url(#clip282)" style="stroke:#000000; stroke-linecap:round; stroke-linejoin:round; stroke-width:2; stroke-opacity:0.1; fill:none" points="209.636,1228.93 1609.76,1228.93 "/>
<polyline clip-path="url(#clip282)" style="stroke:#000000; stroke-linecap:round; stroke-linejoin:round; stroke-width:2; stroke-opacity:0.1; fill:none" points="209.636,905.743 1609.76,905.743 "/>
<polyline clip-path="url(#clip282)" style="stroke:#000000; stroke-linecap:round; stroke-linejoin:round; stroke-width:2; stroke-opacity:0.1; fill:none" points="209.636,582.557 1609.76,582.557 "/>
<polyline clip-path="url(#clip282)" style="stroke:#000000; stroke-linecap:round; stroke-linejoin:round; stroke-width:2; stroke-opacity:0.1; fill:none" points="209.636,259.371 1609.76,259.371 "/>
<polyline clip-path="url(#clip280)" style="stroke:#000000; stroke-linecap:round; stroke-linejoin:round; stroke-width:4; stroke-opacity:1; fill:none" points="209.636,1500.94 209.636,47.2441 "/>
<polyline clip-path="url(#clip280)" style="stroke:#000000; stroke-linecap:round; stroke-linejoin:round; stroke-width:4; stroke-opacity:1; fill:none" points="209.636,1228.93 228.534,1228.93 "/>
<polyline clip-path="url(#clip280)" style="stroke:#000000; stroke-linecap:round; stroke-linejoin:round; stroke-width:4; stroke-opacity:1; fill:none" points="209.636,905.743 228.534,905.743 "/>
<polyline clip-path="url(#clip280)" style="stroke:#000000; stroke-linecap:round; stroke-linejoin:round; stroke-width:4; stroke-opacity:1; fill:none" points="209.636,582.557 228.534,582.557 "/>
<polyline clip-path="url(#clip280)" style="stroke:#000000; stroke-linecap:round; stroke-linejoin:round; stroke-width:4; stroke-opacity:1; fill:none" points="209.636,259.371 228.534,259.371 "/>
<path clip-path="url(#clip280)" d="M67.3319 1214.73 Q63.7208 1214.73 61.8921 1218.29 Q60.0865 1221.83 60.0865 1228.96 Q60.0865 1236.07 61.8921 1239.64 Q63.7208 1243.18 67.3319 1243.18 Q70.9661 1243.18 72.7717 1239.64 Q74.6004 1236.07 74.6004 1228.96 Q74.6004 1221.83 72.7717 1218.29 Q70.9661 1214.73 67.3319 1214.73 M67.3319 1211.02 Q73.142 1211.02 76.1976 1215.63 Q79.2763 1220.21 79.2763 1228.96 Q79.2763 1237.69 76.1976 1242.3 Q73.142 1246.88 67.3319 1246.88 Q61.5217 1246.88 58.443 1242.3 Q55.3875 1237.69 55.3875 1228.96 Q55.3875 1220.21 58.443 1215.63 Q61.5217 1211.02 67.3319 1211.02 Z" fill="#000000" fill-rule="nonzero" fill-opacity="1" /><path clip-path="url(#clip280)" d="M87.4938 1240.33 L92.378 1240.33 L92.378 1246.21 L87.4938 1246.21 L87.4938 1240.33 Z" fill="#000000" fill-rule="nonzero" fill-opacity="1" /><path clip-path="url(#clip280)" d="M112.563 1214.73 Q108.952 1214.73 107.123 1218.29 Q105.318 1221.83 105.318 1228.96 Q105.318 1236.07 107.123 1239.64 Q108.952 1243.18 112.563 1243.18 Q116.197 1243.18 118.003 1239.64 Q119.832 1236.07 119.832 1228.96 Q119.832 1221.83 118.003 1218.29 Q116.197 1214.73 112.563 1214.73 M112.563 1211.02 Q118.373 1211.02 121.429 1215.63 Q124.507 1220.21 124.507 1228.96 Q124.507 1237.69 121.429 1242.3 Q118.373 1246.88 112.563 1246.88 Q106.753 1246.88 103.674 1242.3 Q100.619 1237.69 100.619 1228.96 Q100.619 1220.21 103.674 1215.63 Q106.753 1211.02 112.563 1211.02 Z" fill="#000000" fill-rule="nonzero" fill-opacity="1" /><path clip-path="url(#clip280)" d="M142.725 1214.73 Q139.114 1214.73 137.285 1218.29 Q135.48 1221.83 135.48 1228.96 Q135.48 1236.07 137.285 1239.64 Q139.114 1243.18 142.725 1243.18 Q146.359 1243.18 148.165 1239.64 Q149.993 1236.07 149.993 1228.96 Q149.993 1221.83 148.165 1218.29 Q146.359 1214.73 142.725 1214.73 M142.725 1211.02 Q148.535 1211.02 151.591 1215.63 Q154.669 1220.21 154.669 1228.96 Q154.669 1237.69 151.591 1242.3 Q148.535 1246.88 142.725 1246.88 Q136.915 1246.88 133.836 1242.3 Q130.781 1237.69 130.781 1228.96 Q130.781 1220.21 133.836 1215.63 Q136.915 1211.02 142.725 1211.02 Z" fill="#000000" fill-rule="nonzero" fill-opacity="1" /><path clip-path="url(#clip280)" d="M162.933 1211.65 L181.29 1211.65 L181.29 1215.58 L167.216 1215.58 L167.216 1224.06 Q168.234 1223.71 169.253 1223.55 Q170.271 1223.36 171.29 1223.36 Q177.077 1223.36 180.456 1226.53 Q183.836 1229.7 183.836 1235.12 Q183.836 1240.7 180.364 1243.8 Q176.891 1246.88 170.572 1246.88 Q168.396 1246.88 166.128 1246.51 Q163.882 1246.14 161.475 1245.4 L161.475 1240.7 Q163.558 1241.83 165.78 1242.39 Q168.003 1242.95 170.479 1242.95 Q174.484 1242.95 176.822 1240.84 Q179.16 1238.73 179.16 1235.12 Q179.16 1231.51 176.822 1229.4 Q174.484 1227.3 170.479 1227.3 Q168.604 1227.3 166.729 1227.71 Q164.878 1228.13 162.933 1229.01 L162.933 1211.65 Z" fill="#000000" fill-rule="nonzero" fill-opacity="1" /><path clip-path="url(#clip280)" d="M66.3365 891.542 Q62.7254 891.542 60.8967 895.107 Q59.0912 898.648 59.0912 905.778 Q59.0912 912.884 60.8967 916.449 Q62.7254 919.991 66.3365 919.991 Q69.9707 919.991 71.7763 916.449 Q73.605 912.884 73.605 905.778 Q73.605 898.648 71.7763 895.107 Q69.9707 891.542 66.3365 891.542 M66.3365 887.838 Q72.1467 887.838 75.2022 892.445 Q78.2809 897.028 78.2809 905.778 Q78.2809 914.505 75.2022 919.111 Q72.1467 923.694 66.3365 923.694 Q60.5264 923.694 57.4477 919.111 Q54.3921 914.505 54.3921 905.778 Q54.3921 897.028 57.4477 892.445 Q60.5264 887.838 66.3365 887.838 Z" fill="#000000" fill-rule="nonzero" fill-opacity="1" /><path clip-path="url(#clip280)" d="M86.4984 917.144 L91.3827 917.144 L91.3827 923.023 L86.4984 923.023 L86.4984 917.144 Z" fill="#000000" fill-rule="nonzero" fill-opacity="1" /><path clip-path="url(#clip280)" d="M111.568 891.542 Q107.957 891.542 106.128 895.107 Q104.322 898.648 104.322 905.778 Q104.322 912.884 106.128 916.449 Q107.957 919.991 111.568 919.991 Q115.202 919.991 117.008 916.449 Q118.836 912.884 118.836 905.778 Q118.836 898.648 117.008 895.107 Q115.202 891.542 111.568 891.542 M111.568 887.838 Q117.378 887.838 120.433 892.445 Q123.512 897.028 123.512 905.778 Q123.512 914.505 120.433 919.111 Q117.378 923.694 111.568 923.694 Q105.758 923.694 102.679 919.111 Q99.6234 914.505 99.6234 905.778 Q99.6234 897.028 102.679 892.445 Q105.758 887.838 111.568 887.838 Z" fill="#000000" fill-rule="nonzero" fill-opacity="1" /><path clip-path="url(#clip280)" d="M132.54 919.088 L140.179 919.088 L140.179 892.722 L131.869 894.389 L131.869 890.13 L140.132 888.463 L144.808 888.463 L144.808 919.088 L152.447 919.088 L152.447 923.023 L132.54 923.023 L132.54 919.088 Z" fill="#000000" fill-rule="nonzero" fill-opacity="1" /><path clip-path="url(#clip280)" d="M171.891 891.542 Q168.28 891.542 166.452 895.107 Q164.646 898.648 164.646 905.778 Q164.646 912.884 166.452 916.449 Q168.28 919.991 171.891 919.991 Q175.526 919.991 177.331 916.449 Q179.16 912.884 179.16 905.778 Q179.16 898.648 177.331 895.107 Q175.526 891.542 171.891 891.542 M171.891 887.838 Q177.702 887.838 180.757 892.445 Q183.836 897.028 183.836 905.778 Q183.836 914.505 180.757 919.111 Q177.702 923.694 171.891 923.694 Q166.081 923.694 163.003 919.111 Q159.947 914.505 159.947 905.778 Q159.947 897.028 163.003 892.445 Q166.081 887.838 171.891 887.838 Z" fill="#000000" fill-rule="nonzero" fill-opacity="1" /><path clip-path="url(#clip280)" d="M67.3319 568.356 Q63.7208 568.356 61.8921 571.921 Q60.0865 575.462 60.0865 582.592 Q60.0865 589.698 61.8921 593.263 Q63.7208 596.805 67.3319 596.805 Q70.9661 596.805 72.7717 593.263 Q74.6004 589.698 74.6004 582.592 Q74.6004 575.462 72.7717 571.921 Q70.9661 568.356 67.3319 568.356 M67.3319 564.652 Q73.142 564.652 76.1976 569.259 Q79.2763 573.842 79.2763 582.592 Q79.2763 591.319 76.1976 595.925 Q73.142 600.509 67.3319 600.509 Q61.5217 600.509 58.443 595.925 Q55.3875 591.319 55.3875 582.592 Q55.3875 573.842 58.443 569.259 Q61.5217 564.652 67.3319 564.652 Z" fill="#000000" fill-rule="nonzero" fill-opacity="1" /><path clip-path="url(#clip280)" d="M87.4938 593.958 L92.378 593.958 L92.378 599.837 L87.4938 599.837 L87.4938 593.958 Z" fill="#000000" fill-rule="nonzero" fill-opacity="1" /><path clip-path="url(#clip280)" d="M112.563 568.356 Q108.952 568.356 107.123 571.921 Q105.318 575.462 105.318 582.592 Q105.318 589.698 107.123 593.263 Q108.952 596.805 112.563 596.805 Q116.197 596.805 118.003 593.263 Q119.832 589.698 119.832 582.592 Q119.832 575.462 118.003 571.921 Q116.197 568.356 112.563 568.356 M112.563 564.652 Q118.373 564.652 121.429 569.259 Q124.507 573.842 124.507 582.592 Q124.507 591.319 121.429 595.925 Q118.373 600.509 112.563 600.509 Q106.753 600.509 103.674 595.925 Q100.619 591.319 100.619 582.592 Q100.619 573.842 103.674 569.259 Q106.753 564.652 112.563 564.652 Z" fill="#000000" fill-rule="nonzero" fill-opacity="1" /><path clip-path="url(#clip280)" d="M133.535 595.902 L141.174 595.902 L141.174 569.536 L132.864 571.203 L132.864 566.944 L141.128 565.277 L145.804 565.277 L145.804 595.902 L153.443 595.902 L153.443 599.837 L133.535 599.837 L133.535 595.902 Z" fill="#000000" fill-rule="nonzero" fill-opacity="1" /><path clip-path="url(#clip280)" d="M162.933 565.277 L181.29 565.277 L181.29 569.212 L167.216 569.212 L167.216 577.685 Q168.234 577.337 169.253 577.175 Q170.271 576.99 171.29 576.99 Q177.077 576.99 180.456 580.161 Q183.836 583.333 183.836 588.749 Q183.836 594.328 180.364 597.43 Q176.891 600.509 170.572 600.509 Q168.396 600.509 166.128 600.138 Q163.882 599.768 161.475 599.027 L161.475 594.328 Q163.558 595.462 165.78 596.018 Q168.003 596.573 170.479 596.573 Q174.484 596.573 176.822 594.467 Q179.16 592.36 179.16 588.749 Q179.16 585.138 176.822 583.032 Q174.484 580.925 170.479 580.925 Q168.604 580.925 166.729 581.342 Q164.878 581.759 162.933 582.638 L162.933 565.277 Z" fill="#000000" fill-rule="nonzero" fill-opacity="1" /><path clip-path="url(#clip280)" d="M66.3365 245.17 Q62.7254 245.17 60.8967 248.735 Q59.0912 252.276 59.0912 259.406 Q59.0912 266.512 60.8967 270.077 Q62.7254 273.619 66.3365 273.619 Q69.9707 273.619 71.7763 270.077 Q73.605 266.512 73.605 259.406 Q73.605 252.276 71.7763 248.735 Q69.9707 245.17 66.3365 245.17 M66.3365 241.466 Q72.1467 241.466 75.2022 246.073 Q78.2809 250.656 78.2809 259.406 Q78.2809 268.133 75.2022 272.739 Q72.1467 277.323 66.3365 277.323 Q60.5264 277.323 57.4477 272.739 Q54.3921 268.133 54.3921 259.406 Q54.3921 250.656 57.4477 246.073 Q60.5264 241.466 66.3365 241.466 Z" fill="#000000" fill-rule="nonzero" fill-opacity="1" /><path clip-path="url(#clip280)" d="M86.4984 270.772 L91.3827 270.772 L91.3827 276.651 L86.4984 276.651 L86.4984 270.772 Z" fill="#000000" fill-rule="nonzero" fill-opacity="1" /><path clip-path="url(#clip280)" d="M111.568 245.17 Q107.957 245.17 106.128 248.735 Q104.322 252.276 104.322 259.406 Q104.322 266.512 106.128 270.077 Q107.957 273.619 111.568 273.619 Q115.202 273.619 117.008 270.077 Q118.836 266.512 118.836 259.406 Q118.836 252.276 117.008 248.735 Q115.202 245.17 111.568 245.17 M111.568 241.466 Q117.378 241.466 120.433 246.073 Q123.512 250.656 123.512 259.406 Q123.512 268.133 120.433 272.739 Q117.378 277.323 111.568 277.323 Q105.758 277.323 102.679 272.739 Q99.6234 268.133 99.6234 259.406 Q99.6234 250.656 102.679 246.073 Q105.758 241.466 111.568 241.466 Z" fill="#000000" fill-rule="nonzero" fill-opacity="1" /><path clip-path="url(#clip280)" d="M135.757 272.716 L152.077 272.716 L152.077 276.651 L130.132 276.651 L130.132 272.716 Q132.794 269.961 137.378 265.332 Q141.984 260.679 143.165 259.337 Q145.41 256.813 146.29 255.077 Q147.193 253.318 147.193 251.628 Q147.193 248.874 145.248 247.138 Q143.327 245.401 140.225 245.401 Q138.026 245.401 135.572 246.165 Q133.142 246.929 130.364 248.48 L130.364 243.758 Q133.188 242.624 135.642 242.045 Q138.095 241.466 140.132 241.466 Q145.503 241.466 148.697 244.151 Q151.892 246.837 151.892 251.327 Q151.892 253.457 151.081 255.378 Q150.294 257.276 148.188 259.869 Q147.609 260.54 144.507 263.758 Q141.406 266.952 135.757 272.716 Z" fill="#000000" fill-rule="nonzero" fill-opacity="1" /><path clip-path="url(#clip280)" d="M171.891 245.17 Q168.28 245.17 166.452 248.735 Q164.646 252.276 164.646 259.406 Q164.646 266.512 166.452 270.077 Q168.28 273.619 171.891 273.619 Q175.526 273.619 177.331 270.077 Q179.16 266.512 179.16 259.406 Q179.16 252.276 177.331 248.735 Q175.526 245.17 171.891 245.17 M171.891 241.466 Q177.702 241.466 180.757 246.073 Q183.836 250.656 183.836 259.406 Q183.836 268.133 180.757 272.739 Q177.702 277.323 171.891 277.323 Q166.081 277.323 163.003 272.739 Q159.947 268.133 159.947 259.406 Q159.947 250.656 163.003 246.073 Q166.081 241.466 171.891 241.466 Z" fill="#000000" fill-rule="nonzero" fill-opacity="1" /><polyline clip-path="url(#clip282)" style="stroke:#009af9; stroke-linecap:round; stroke-linejoin:round; stroke-width:4; stroke-opacity:1; fill:none" points="249.262,1335.05 250.915,1338.84 252.568,1342.63 254.222,1346.39 255.875,1350.13 257.528,1353.84 259.181,1357.52 260.834,1361.17 262.487,1364.77 264.141,1368.33 265.794,1371.85 267.447,1375.31 269.1,1378.72 270.753,1382.07 272.406,1385.37 274.06,1388.6 275.713,1391.76 277.366,1394.86 279.019,1397.88 280.672,1400.84 282.325,1403.72 283.979,1406.53 285.632,1409.25 287.285,1411.9 288.938,1414.47 290.591,1416.96 292.244,1419.37 293.897,1421.7 295.551,1423.94 297.204,1426.11 298.857,1428.19 300.51,1430.19 302.163,1432.11 303.816,1433.95 305.47,1435.71 307.123,1437.39 308.776,1438.99 310.429,1440.52 312.082,1441.98 313.735,1443.36 315.389,1444.67 317.042,1445.91 318.695,1447.08 320.348,1448.18 322.001,1449.22 323.654,1450.2 325.308,1451.11 326.961,1451.97 328.614,1452.77 330.267,1453.51 331.92,1454.2 333.573,1454.84 335.226,1455.44 336.88,1455.98 338.533,1456.48 340.186,1456.94 341.839,1457.35 343.492,1457.73 345.145,1458.07 346.799,1458.37 348.452,1458.64 350.105,1458.87 351.758,1459.08 353.411,1459.26 355.064,1459.41 356.718,1459.53 358.371,1459.63 360.024,1459.7 361.677,1459.75 363.33,1459.79 364.983,1459.8 366.637,1459.79 368.29,1459.77 369.943,1459.73 371.596,1459.67 373.249,1459.6 374.902,1459.51 376.556,1459.41 378.209,1459.3 379.862,1459.18 381.515,1459.05 383.168,1458.9 384.821,1458.75 386.474,1458.58 388.128,1458.41 389.781,1458.23 391.434,1458.04 393.087,1457.84 394.74,1457.64 396.393,1457.43 398.047,1457.21 399.7,1456.98 401.353,1456.75 403.006,1456.51 404.659,1456.27 406.312,1456.02 407.966,1455.76 409.619,1455.5 411.272,1455.23 412.925,1454.96 414.578,1454.68 416.231,1454.4 417.885,1454.11 419.538,1453.82 421.191,1453.52 422.844,1453.22 424.497,1452.91 426.15,1452.59 427.803,1452.28 429.457,1451.95 431.11,1451.63 432.763,1451.29 434.416,1450.95 436.069,1450.61 437.722,1450.26 439.376,1449.91 441.029,1449.55 442.682,1449.19 444.335,1448.82 445.988,1448.45 447.641,1448.07 449.295,1447.69 450.948,1447.3 452.601,1446.91 454.254,1446.51 455.907,1446.1 457.56,1445.69 459.214,1445.28 460.867,1444.86 462.52,1444.43 464.173,1444 465.826,1443.56 467.479,1443.12 469.133,1442.67 470.786,1442.21 472.439,1441.75 474.092,1441.28 475.745,1440.81 477.398,1440.33 479.051,1439.85 480.705,1439.36 482.358,1438.86 484.011,1438.35 485.664,1437.84 487.317,1437.33 488.97,1436.8 490.624,1436.27 492.277,1435.73 493.93,1435.19 495.583,1434.64 497.236,1434.08 498.889,1433.51 500.543,1432.94 502.196,1432.36 503.849,1431.77 505.502,1431.18 507.155,1430.58 508.808,1429.97 510.462,1429.35 512.115,1428.72 513.768,1428.09 515.421,1427.45 517.074,1426.8 518.727,1426.14 520.38,1425.47 522.034,1424.8 523.687,1424.11 525.34,1423.42 526.993,1422.72 528.646,1422.01 530.299,1421.29 531.953,1420.56 533.606,1419.82 535.259,1419.07 536.912,1418.31 538.565,1417.55 540.218,1416.77 541.872,1415.98 543.525,1415.18 545.178,1414.38 546.831,1413.56 548.484,1412.73 550.137,1411.89 551.791,1411.04 553.444,1410.17 555.097,1409.3 556.75,1408.42 558.403,1407.52 560.056,1406.61 561.71,1405.69 563.363,1404.76 565.016,1403.82 566.669,1402.86 568.322,1401.89 569.975,1400.91 571.628,1399.92 573.282,1398.91 574.935,1397.89 576.588,1396.86 578.241,1395.81 579.894,1394.75 581.547,1393.67 583.201,1392.58 584.854,1391.48 586.507,1390.36 588.16,1389.23 589.813,1388.09 591.466,1386.92 593.12,1385.75 594.773,1384.56 596.426,1383.35 598.079,1382.12 599.732,1380.89 601.385,1379.63 603.039,1378.36 604.692,1377.07 606.345,1375.77 607.998,1374.44 609.651,1373.11 611.304,1371.75 612.957,1370.38 614.611,1368.98 616.264,1367.57 617.917,1366.15 619.57,1364.7 621.223,1363.24 622.876,1361.75 624.53,1360.25 626.183,1358.73 627.836,1357.19 629.489,1355.63 631.142,1354.05 632.795,1352.45 634.449,1350.83 636.102,1349.19 637.755,1347.53 639.408,1345.84 641.061,1344.14 642.714,1342.42 644.368,1340.67 646.021,1338.9 647.674,1337.11 649.327,1335.3 650.98,1333.47 652.633,1331.61 654.287,1329.74 655.94,1327.84 657.593,1325.91 659.246,1323.97 660.899,1322 662.552,1320 664.205,1317.99 665.859,1315.95 667.512,1313.89 669.165,1311.8 670.818,1309.69 672.471,1307.56 674.124,1305.4 675.778,1303.22 677.431,1301.01 679.084,1298.78 680.737,1296.53 682.39,1294.25 684.043,1291.95 685.697,1289.63 687.35,1287.28 689.003,1284.91 690.656,1282.51 692.309,1280.09 693.962,1277.65 695.616,1275.18 697.269,1272.69 698.922,1270.18 700.575,1267.64 702.228,1265.09 703.881,1262.51 705.534,1259.9 707.188,1257.28 708.841,1254.63 710.494,1251.97 712.147,1249.28 713.8,1246.57 715.453,1243.84 717.107,1241.09 718.76,1238.32 720.413,1235.54 722.066,1232.73 723.719,1229.91 725.372,1227.06 727.026,1224.21 728.679,1221.33 730.332,1218.44 731.985,1215.53 733.638,1212.61 735.291,1209.67 736.945,1206.72 738.598,1203.75 740.251,1200.78 741.904,1197.78 743.557,1194.78 745.21,1191.77 746.864,1188.74 748.517,1185.7 750.17,1182.65 751.823,1179.59 753.476,1176.52 755.129,1173.45 756.782,1170.36 758.436,1167.26 760.089,1164.15 761.742,1161.03 763.395,1157.9 765.048,1154.76 766.701,1151.61 768.355,1148.45 770.008,1145.27 771.661,1142.08 773.314,1138.88 774.967,1135.66 776.62,1132.42 778.274,1129.17 779.927,1125.89 781.58,1122.59 783.233,1119.27 784.886,1115.92 786.539,1112.54 788.193,1109.13 789.846,1105.68 791.499,1102.19 793.152,1098.65 794.805,1095.07 796.458,1091.44 798.111,1087.74 799.765,1083.99 801.418,1080.16 803.071,1076.27 804.724,1072.29 806.377,1068.23 808.03,1064.07 809.684,1059.81 811.337,1055.45 812.99,1050.97 814.643,1046.37 816.296,1041.64 817.949,1036.77 819.603,1031.75 821.256,1026.57 822.909,1021.23 824.562,1015.72 826.215,1010.02 827.868,1004.13 829.522,998.034 831.175,991.729 832.828,985.204 834.481,978.449 836.134,971.456 837.787,964.215 839.44,956.719 841.094,948.959 842.747,940.927 844.4,932.616 846.053,924.019 847.706,915.129 849.359,905.941 851.013,896.45 852.666,886.651 854.319,876.54 855.972,866.114 857.625,855.372 859.278,844.311 860.932,832.933 862.585,821.237 864.238,809.226 865.891,796.902 867.544,784.27 869.197,771.334 870.851,758.101 872.504,744.578 874.157,730.775 875.81,716.7 877.463,702.365 879.116,687.782 880.77,672.965 882.423,657.928 884.076,642.687 885.729,627.258 887.382,611.66 889.035,595.912 890.688,580.032 892.342,564.043 893.995,547.965 895.648,531.821 897.301,515.634 898.954,499.427 900.607,483.226 902.261,467.054 903.914,450.936 905.567,434.899 907.22,418.967 908.873,403.166 910.526,387.521 912.18,372.059 913.833,356.804 915.486,341.781 917.139,327.015 918.792,312.53 920.445,298.349 922.099,284.495 923.752,270.99 925.405,257.856 927.058,245.112 928.711,232.778 930.364,220.872 932.017,209.412 933.671,198.412 935.324,187.889 936.977,177.855 938.63,168.323 940.283,159.303 941.936,150.806 943.59,142.838 945.243,135.408 946.896,128.52 948.549,122.179 950.202,116.388 951.855,111.147 953.509,106.457 955.162,102.318 956.815,98.7251 958.468,95.6765 960.121,93.1669 961.774,91.1906 963.428,89.7405 965.081,88.8088 966.734,88.3864 968.387,88.4637 970.04,89.0301 971.693,90.0741 973.347,91.5837 975,93.5462 976.653,95.9483 978.306,98.7761 979.959,102.016 981.612,105.652 983.265,109.67 984.919,114.056 986.572,118.792 988.225,123.865 989.878,129.258 991.531,134.956 993.184,140.943 994.838,147.203 996.491,153.722 998.144,160.483 999.797,167.472 1001.45,174.675 1003.1,182.075 1004.76,189.66 1006.41,197.415 1008.06,205.326 1009.72,213.38 1011.37,221.565 1013.02,229.867 1014.68,238.275 1016.33,246.777 1017.98,255.362 1019.64,264.018 1021.29,272.736 1022.94,281.506 1024.59,290.317 1026.25,299.162 1027.9,308.03 1029.55,316.915 1031.21,325.808 1032.86,334.701 1034.51,343.589 1036.17,352.463 1037.82,361.319 1039.47,370.149 1041.13,378.949 1042.78,387.713 1044.43,396.436 1046.09,405.115 1047.74,413.744 1049.39,422.32 1051.05,430.839 1052.7,439.299 1054.35,447.694 1056,456.024 1057.66,464.285 1059.31,472.475 1060.96,480.592 1062.62,488.633 1064.27,496.598 1065.92,504.484 1067.58,512.289 1069.23,520.013 1070.88,527.655 1072.54,535.213 1074.19,542.687 1075.84,550.076 1077.5,557.378 1079.15,564.595 1080.8,571.725 1082.46,578.768 1084.11,585.723 1085.76,592.591 1087.41,599.372 1089.07,606.065 1090.72,612.671 1092.37,619.189 1094.03,625.62 1095.68,631.964 1097.33,638.222 1098.99,644.393 1100.64,650.478 1102.29,656.477 1103.95,662.391 1105.6,668.219 1107.25,673.964 1108.91,679.624 1110.56,685.201 1112.21,690.695 1113.87,696.107 1115.52,701.436 1117.17,706.684 1118.82,711.851 1120.48,716.938 1122.13,721.945 1123.78,726.873 1125.44,731.722 1127.09,736.493 1128.74,741.187 1130.4,745.803 1132.05,750.343 1133.7,754.807 1135.36,759.196 1137.01,763.509 1138.66,767.748 1140.32,771.913 1141.97,776.004 1143.62,780.022 1145.28,783.967 1146.93,787.84 1148.58,791.641 1150.23,795.371 1151.89,799.029 1153.54,802.616 1155.19,806.132 1156.85,809.578 1158.5,812.953 1160.15,816.258 1161.81,819.493 1163.46,822.658 1165.11,825.754 1166.77,828.779 1168.42,831.735 1170.07,834.62 1171.73,837.436 1173.38,840.181 1175.03,842.856 1176.69,845.46 1178.34,847.993 1179.99,850.455 1181.64,852.844 1183.3,855.162 1184.95,857.406 1186.6,859.577 1188.26,861.673 1189.91,863.694 1191.56,865.64 1193.22,867.508 1194.87,869.299 1196.52,871.011 1198.18,872.643 1199.83,874.194 1201.48,875.662 1203.14,877.046 1204.79,878.345 1206.44,879.558 1208.1,880.682 1209.75,881.716 1211.4,882.658 1213.05,883.506 1214.71,884.26 1216.36,884.916 1218.01,885.473 1219.67,885.928 1221.32,886.28 1222.97,886.527 1224.63,886.667 1226.28,886.697 1227.93,886.615 1229.59,886.42 1231.24,886.108 1232.89,885.679 1234.55,885.13 1236.2,884.459 1237.85,883.664 1239.51,882.743 1241.16,881.695 1242.81,880.519 1244.46,879.212 1246.12,877.773 1247.77,876.201 1249.42,874.496 1251.08,872.657 1252.73,870.683 1254.38,868.574 1256.04,866.331 1257.69,863.953 1259.34,861.442 1261,858.798 1262.65,856.023 1264.3,853.119 1265.96,850.088 1267.61,846.933 1269.26,843.657 1270.92,840.263 1272.57,836.756 1274.22,833.139 1275.87,829.419 1277.53,825.6 1279.18,821.689 1280.83,817.692 1282.49,813.617 1284.14,809.47 1285.79,805.259 1287.45,800.994 1289.1,796.684 1290.75,792.337 1292.41,787.964 1294.06,783.575 1295.71,779.182 1297.37,774.795 1299.02,770.426 1300.67,766.088 1302.33,761.791 1303.98,757.549 1305.63,753.375 1307.28,749.281 1308.94,745.281 1310.59,741.388 1312.24,737.615 1313.9,733.975 1315.55,730.481 1317.2,727.147 1318.86,723.986 1320.51,721.01 1322.16,718.231 1323.82,715.662 1325.47,713.314 1327.12,711.2 1328.78,709.328 1330.43,707.711 1332.08,706.357 1333.74,705.276 1335.39,704.477 1337.04,703.965 1338.7,703.75 1340.35,703.837 1342,704.231 1343.65,704.936 1345.31,705.957 1346.96,707.296 1348.61,708.955 1350.27,710.934 1351.92,713.235 1353.57,715.855 1355.23,718.792 1356.88,722.045 1358.53,725.609 1360.19,729.479 1361.84,733.65 1363.49,738.116 1365.15,742.869 1366.8,747.901 1368.45,753.204 1370.11,758.767 1371.76,764.582 1373.41,770.637 1375.06,776.92 1376.72,783.42 1378.37,790.124 1380.02,797.02 1381.68,804.093 1383.33,811.332 1384.98,818.721 1386.64,826.248 1388.29,833.897 1389.94,841.655 1391.6,849.507 1393.25,857.439 1394.9,865.438 1396.56,873.488 1398.21,881.577 1399.86,889.69 1401.52,897.815 1403.17,905.939 1404.82,914.048 1406.47,922.131 1408.13,930.176 1409.78,938.172 1411.43,946.108 1413.09,953.974 1414.74,961.759 1416.39,969.456 1418.05,977.055 1419.7,984.549 1421.35,991.93 1423.01,999.191 1424.66,1006.33 1426.31,1013.33 1427.97,1020.2 1429.62,1026.93 1431.27,1033.52 1432.93,1039.95 1434.58,1046.24 1436.23,1052.38 1437.88,1058.37 1439.54,1064.2 1441.19,1069.88 1442.84,1075.41 1444.5,1080.78 1446.15,1086.01 1447.8,1091.08 1449.46,1096.01 1451.11,1100.79 1452.76,1105.43 1454.42,1109.93 1456.07,1114.29 1457.72,1118.52 1459.38,1122.63 1461.03,1126.61 1462.68,1130.47 1464.34,1134.21 1465.99,1137.85 1467.64,1141.38 1469.29,1144.81 1470.95,1148.15 1472.6,1151.4 1474.25,1154.56 1475.91,1157.65 1477.56,1160.66 1479.21,1163.61 1480.87,1166.5 1482.52,1169.32 1484.17,1172.1 1485.83,1174.84 1487.48,1177.53 1489.13,1180.19 1490.79,1182.82 1492.44,1185.42 1494.09,1188.01 1495.75,1190.59 1497.4,1193.15 1499.05,1195.71 1500.7,1198.27 1502.36,1200.84 1504.01,1203.41 1505.66,1206 1507.32,1208.61 1508.97,1211.23 1510.62,1213.88 1512.28,1216.56 1513.93,1219.27 1515.58,1222.01 1517.24,1224.79 1518.89,1227.6 1520.54,1230.46 1522.2,1233.36 1523.85,1236.3 1525.5,1239.29 1527.16,1242.32 1528.81,1245.4 1530.46,1248.53 1532.11,1251.71 1533.77,1254.94 1535.42,1258.21 1537.07,1261.53 1538.73,1264.9 1540.38,1268.32 1542.03,1271.78 1543.69,1275.28 1545.34,1278.82 1546.99,1282.4 1548.65,1286.02 1550.3,1289.67 1551.95,1293.36 1553.61,1297.07 1555.26,1300.81 1556.91,1304.57 1558.57,1308.35 1560.22,1312.15 1561.87,1315.96 1563.52,1319.77 1565.18,1323.6 1566.83,1327.42 1568.48,1331.24 1570.14,1335.05 "/>
<path clip-path="url(#clip280)" d="M737.436 199.381 L1563.09 199.381 L1563.09 95.7006 L737.436 95.7006  Z" fill="#ffffff" fill-rule="evenodd" fill-opacity="1"/>
<polyline clip-path="url(#clip280)" style="stroke:#000000; stroke-linecap:round; stroke-linejoin:round; stroke-width:4; stroke-opacity:1; fill:none" points="737.436,199.381 1563.09,199.381 1563.09,95.7006 737.436,95.7006 737.436,199.381 "/>
<polyline clip-path="url(#clip280)" style="stroke:#009af9; stroke-linecap:round; stroke-linejoin:round; stroke-width:4; stroke-opacity:1; fill:none" points="752.993,147.541 846.334,147.541 "/>
<path clip-path="url(#clip280)" d="M882.239 143.872 Q883.836 141.001 886.058 139.636 Q888.28 138.27 891.289 138.27 Q895.34 138.27 897.539 141.117 Q899.738 143.941 899.738 149.173 L899.738 164.821 L895.456 164.821 L895.456 149.311 Q895.456 145.585 894.137 143.779 Q892.817 141.974 890.109 141.974 Q886.799 141.974 884.877 144.173 Q882.956 146.372 882.956 150.168 L882.956 164.821 L878.674 164.821 L878.674 149.311 Q878.674 145.561 877.354 143.779 Q876.035 141.974 873.28 141.974 Q870.016 141.974 868.095 144.196 Q866.174 146.395 866.174 150.168 L866.174 164.821 L861.891 164.821 L861.891 138.895 L866.174 138.895 L866.174 142.923 Q867.632 140.538 869.669 139.404 Q871.706 138.27 874.507 138.27 Q877.331 138.27 879.299 139.705 Q881.289 141.14 882.239 143.872 Z" fill="#000000" fill-rule="nonzero" fill-opacity="1" /><path clip-path="url(#clip280)" d="M930.41 150.793 L930.41 152.876 L910.826 152.876 Q911.104 157.274 913.465 159.589 Q915.849 161.881 920.086 161.881 Q922.539 161.881 924.831 161.279 Q927.146 160.677 929.414 159.473 L929.414 163.501 Q927.123 164.473 924.715 164.983 Q922.308 165.492 919.831 165.492 Q913.627 165.492 909.993 161.881 Q906.382 158.27 906.382 152.112 Q906.382 145.747 909.808 142.02 Q913.257 138.27 919.09 138.27 Q924.322 138.27 927.354 141.649 Q930.41 145.006 930.41 150.793 M926.15 149.543 Q926.104 146.048 924.183 143.964 Q922.285 141.881 919.136 141.881 Q915.572 141.881 913.419 143.895 Q911.289 145.909 910.965 149.566 L926.15 149.543 Z" fill="#000000" fill-rule="nonzero" fill-opacity="1" /><path clip-path="url(#clip280)" d="M949.183 151.788 Q944.021 151.788 942.03 152.969 Q940.039 154.149 940.039 156.997 Q940.039 159.265 941.521 160.608 Q943.025 161.927 945.595 161.927 Q949.136 161.927 951.266 159.427 Q953.419 156.904 953.419 152.737 L953.419 151.788 L949.183 151.788 M957.678 150.029 L957.678 164.821 L953.419 164.821 L953.419 160.885 Q951.96 163.247 949.784 164.381 Q947.609 165.492 944.46 165.492 Q940.479 165.492 938.118 163.27 Q935.78 161.024 935.78 157.274 Q935.78 152.899 938.697 150.677 Q941.636 148.455 947.446 148.455 L953.419 148.455 L953.419 148.038 Q953.419 145.099 951.474 143.501 Q949.553 141.881 946.058 141.881 Q943.835 141.881 941.729 142.413 Q939.622 142.946 937.678 144.011 L937.678 140.075 Q940.016 139.173 942.215 138.733 Q944.414 138.27 946.497 138.27 Q952.122 138.27 954.9 141.186 Q957.678 144.103 957.678 150.029 Z" fill="#000000" fill-rule="nonzero" fill-opacity="1" /><path clip-path="url(#clip280)" d="M982.979 139.659 L982.979 143.686 Q981.173 142.761 979.229 142.298 Q977.284 141.835 975.201 141.835 Q972.03 141.835 970.432 142.807 Q968.858 143.779 968.858 145.723 Q968.858 147.205 969.993 148.061 Q971.127 148.895 974.553 149.659 L976.011 149.983 Q980.548 150.955 982.446 152.737 Q984.368 154.497 984.368 157.668 Q984.368 161.279 981.497 163.385 Q978.65 165.492 973.65 165.492 Q971.567 165.492 969.298 165.075 Q967.053 164.682 964.553 163.872 L964.553 159.473 Q966.914 160.7 969.206 161.325 Q971.497 161.927 973.743 161.927 Q976.752 161.927 978.372 160.909 Q979.993 159.867 979.993 157.992 Q979.993 156.256 978.812 155.33 Q977.655 154.404 973.696 153.548 L972.215 153.2 Q968.257 152.367 966.497 150.654 Q964.738 148.918 964.738 145.909 Q964.738 142.251 967.331 140.261 Q969.923 138.27 974.692 138.27 Q977.053 138.27 979.136 138.617 Q981.219 138.964 982.979 139.659 Z" fill="#000000" fill-rule="nonzero" fill-opacity="1" /><path clip-path="url(#clip280)" d="M990.71 154.589 L990.71 138.895 L994.969 138.895 L994.969 154.427 Q994.969 158.108 996.405 159.96 Q997.84 161.788 1000.71 161.788 Q1004.16 161.788 1006.15 159.589 Q1008.16 157.39 1008.16 153.594 L1008.16 138.895 L1012.42 138.895 L1012.42 164.821 L1008.16 164.821 L1008.16 160.839 Q1006.61 163.2 1004.55 164.358 Q1002.52 165.492 999.807 165.492 Q995.34 165.492 993.025 162.714 Q990.71 159.936 990.71 154.589 M1001.43 138.27 L1001.43 138.27 Z" fill="#000000" fill-rule="nonzero" fill-opacity="1" /><path clip-path="url(#clip280)" d="M1036.22 142.876 Q1035.5 142.46 1034.65 142.274 Q1033.81 142.066 1032.79 142.066 Q1029.18 142.066 1027.24 144.427 Q1025.32 146.765 1025.32 151.163 L1025.32 164.821 L1021.03 164.821 L1021.03 138.895 L1025.32 138.895 L1025.32 142.923 Q1026.66 140.561 1028.81 139.427 Q1030.96 138.27 1034.04 138.27 Q1034.48 138.27 1035.02 138.339 Q1035.55 138.386 1036.2 138.501 L1036.22 142.876 Z" fill="#000000" fill-rule="nonzero" fill-opacity="1" /><path clip-path="url(#clip280)" d="M1061.82 150.793 L1061.82 152.876 L1042.24 152.876 Q1042.52 157.274 1044.88 159.589 Q1047.26 161.881 1051.5 161.881 Q1053.95 161.881 1056.24 161.279 Q1058.56 160.677 1060.83 159.473 L1060.83 163.501 Q1058.53 164.473 1056.13 164.983 Q1053.72 165.492 1051.24 165.492 Q1045.04 165.492 1041.4 161.881 Q1037.79 158.27 1037.79 152.112 Q1037.79 145.747 1041.22 142.02 Q1044.67 138.27 1050.5 138.27 Q1055.73 138.27 1058.77 141.649 Q1061.82 145.006 1061.82 150.793 M1057.56 149.543 Q1057.52 146.048 1055.59 143.964 Q1053.7 141.881 1050.55 141.881 Q1046.98 141.881 1044.83 143.895 Q1042.7 145.909 1042.38 149.566 L1057.56 149.543 Z" fill="#000000" fill-rule="nonzero" fill-opacity="1" /><path clip-path="url(#clip280)" d="M1089 143.872 Q1090.59 141.001 1092.82 139.636 Q1095.04 138.27 1098.05 138.27 Q1102.1 138.27 1104.3 141.117 Q1106.5 143.941 1106.5 149.173 L1106.5 164.821 L1102.21 164.821 L1102.21 149.311 Q1102.21 145.585 1100.89 143.779 Q1099.58 141.974 1096.87 141.974 Q1093.56 141.974 1091.64 144.173 Q1089.71 146.372 1089.71 150.168 L1089.71 164.821 L1085.43 164.821 L1085.43 149.311 Q1085.43 145.561 1084.11 143.779 Q1082.79 141.974 1080.04 141.974 Q1076.77 141.974 1074.85 144.196 Q1072.93 146.395 1072.93 150.168 L1072.93 164.821 L1068.65 164.821 L1068.65 138.895 L1072.93 138.895 L1072.93 142.923 Q1074.39 140.538 1076.43 139.404 Q1078.46 138.27 1081.27 138.27 Q1084.09 138.27 1086.06 139.705 Q1088.05 141.14 1089 143.872 Z" fill="#000000" fill-rule="nonzero" fill-opacity="1" /><path clip-path="url(#clip280)" d="M1137.17 150.793 L1137.17 152.876 L1117.58 152.876 Q1117.86 157.274 1120.22 159.589 Q1122.61 161.881 1126.84 161.881 Q1129.3 161.881 1131.59 161.279 Q1133.9 160.677 1136.17 159.473 L1136.17 163.501 Q1133.88 164.473 1131.47 164.983 Q1129.07 165.492 1126.59 165.492 Q1120.39 165.492 1116.75 161.881 Q1113.14 158.27 1113.14 152.112 Q1113.14 145.747 1116.57 142.02 Q1120.02 138.27 1125.85 138.27 Q1131.08 138.27 1134.11 141.649 Q1137.17 145.006 1137.17 150.793 M1132.91 149.543 Q1132.86 146.048 1130.94 143.964 Q1129.04 141.881 1125.89 141.881 Q1122.33 141.881 1120.18 143.895 Q1118.05 145.909 1117.72 149.566 L1132.91 149.543 Z" fill="#000000" fill-rule="nonzero" fill-opacity="1" /><path clip-path="url(#clip280)" d="M1165.71 149.173 L1165.71 164.821 L1161.45 164.821 L1161.45 149.311 Q1161.45 145.631 1160.01 143.802 Q1158.58 141.974 1155.71 141.974 Q1152.26 141.974 1150.27 144.173 Q1148.28 146.372 1148.28 150.168 L1148.28 164.821 L1144 164.821 L1144 138.895 L1148.28 138.895 L1148.28 142.923 Q1149.81 140.585 1151.87 139.427 Q1153.95 138.27 1156.66 138.27 Q1161.13 138.27 1163.42 141.048 Q1165.71 143.802 1165.71 149.173 Z" fill="#000000" fill-rule="nonzero" fill-opacity="1" /><path clip-path="url(#clip280)" d="M1178.42 131.534 L1178.42 138.895 L1187.19 138.895 L1187.19 142.205 L1178.42 142.205 L1178.42 156.279 Q1178.42 159.45 1179.27 160.353 Q1180.15 161.256 1182.82 161.256 L1187.19 161.256 L1187.19 164.821 L1182.82 164.821 Q1177.89 164.821 1176.01 162.992 Q1174.14 161.14 1174.14 156.279 L1174.14 142.205 L1171.01 142.205 L1171.01 138.895 L1174.14 138.895 L1174.14 131.534 L1178.42 131.534 Z" fill="#000000" fill-rule="nonzero" fill-opacity="1" /><path clip-path="url(#clip280)" d="M1209.32 139.659 L1209.32 143.686 Q1207.51 142.761 1205.57 142.298 Q1203.63 141.835 1201.54 141.835 Q1198.37 141.835 1196.77 142.807 Q1195.2 143.779 1195.2 145.723 Q1195.2 147.205 1196.33 148.061 Q1197.47 148.895 1200.89 149.659 L1202.35 149.983 Q1206.89 150.955 1208.79 152.737 Q1210.71 154.497 1210.71 157.668 Q1210.71 161.279 1207.84 163.385 Q1204.99 165.492 1199.99 165.492 Q1197.91 165.492 1195.64 165.075 Q1193.39 164.682 1190.89 163.872 L1190.89 159.473 Q1193.26 160.7 1195.55 161.325 Q1197.84 161.927 1200.08 161.927 Q1203.09 161.927 1204.71 160.909 Q1206.33 159.867 1206.33 157.992 Q1206.33 156.256 1205.15 155.33 Q1204 154.404 1200.04 153.548 L1198.56 153.2 Q1194.6 152.367 1192.84 150.654 Q1191.08 148.918 1191.08 145.909 Q1191.08 142.251 1193.67 140.261 Q1196.26 138.27 1201.03 138.27 Q1203.39 138.27 1205.48 138.617 Q1207.56 138.964 1209.32 139.659 Z" fill="#000000" fill-rule="nonzero" fill-opacity="1" /><path clip-path="url(#clip280)" d="M1242.79 128.849 Q1239.69 134.173 1238.19 139.381 Q1236.68 144.589 1236.68 149.936 Q1236.68 155.284 1238.19 160.538 Q1239.71 165.77 1242.79 171.071 L1239.09 171.071 Q1235.62 165.631 1233.88 160.376 Q1232.17 155.122 1232.17 149.936 Q1232.17 144.774 1233.88 139.543 Q1235.59 134.312 1239.09 128.849 L1242.79 128.849 Z" fill="#000000" fill-rule="nonzero" fill-opacity="1" /><path clip-path="url(#clip280)" d="M1273.23 150.793 L1273.23 152.876 L1253.65 152.876 Q1253.93 157.274 1256.29 159.589 Q1258.67 161.881 1262.91 161.881 Q1265.36 161.881 1267.65 161.279 Q1269.97 160.677 1272.24 159.473 L1272.24 163.501 Q1269.94 164.473 1267.54 164.983 Q1265.13 165.492 1262.65 165.492 Q1256.45 165.492 1252.82 161.881 Q1249.2 158.27 1249.2 152.112 Q1249.2 145.747 1252.63 142.02 Q1256.08 138.27 1261.91 138.27 Q1267.14 138.27 1270.18 141.649 Q1273.23 145.006 1273.23 150.793 M1268.97 149.543 Q1268.93 146.048 1267 143.964 Q1265.11 141.881 1261.96 141.881 Q1258.39 141.881 1256.24 143.895 Q1254.11 145.909 1253.79 149.566 L1268.97 149.543 Z" fill="#000000" fill-rule="nonzero" fill-opacity="1" /><path clip-path="url(#clip280)" d="M1300.94 138.895 L1291.57 151.511 L1301.43 164.821 L1296.4 164.821 L1288.86 154.635 L1281.31 164.821 L1276.29 164.821 L1286.36 151.256 L1277.14 138.895 L1282.17 138.895 L1289.04 148.131 L1295.92 138.895 L1300.94 138.895 Z" fill="#000000" fill-rule="nonzero" fill-opacity="1" /><path clip-path="url(#clip280)" d="M1311.66 131.534 L1311.66 138.895 L1320.43 138.895 L1320.43 142.205 L1311.66 142.205 L1311.66 156.279 Q1311.66 159.45 1312.51 160.353 Q1313.39 161.256 1316.06 161.256 L1320.43 161.256 L1320.43 164.821 L1316.06 164.821 Q1311.13 164.821 1309.25 162.992 Q1307.38 161.14 1307.38 156.279 L1307.38 142.205 L1304.25 142.205 L1304.25 138.895 L1307.38 138.895 L1307.38 131.534 L1311.66 131.534 Z" fill="#000000" fill-rule="nonzero" fill-opacity="1" /><path clip-path="url(#clip280)" d="M1341.06 142.876 Q1340.34 142.46 1339.48 142.274 Q1338.65 142.066 1337.63 142.066 Q1334.02 142.066 1332.07 144.427 Q1330.15 146.765 1330.15 151.163 L1330.15 164.821 L1325.87 164.821 L1325.87 138.895 L1330.15 138.895 L1330.15 142.923 Q1331.5 140.561 1333.65 139.427 Q1335.8 138.27 1338.88 138.27 Q1339.32 138.27 1339.85 138.339 Q1340.38 138.386 1341.03 138.501 L1341.06 142.876 Z" fill="#000000" fill-rule="nonzero" fill-opacity="1" /><path clip-path="url(#clip280)" d="M1357.31 151.788 Q1352.14 151.788 1350.15 152.969 Q1348.16 154.149 1348.16 156.997 Q1348.16 159.265 1349.64 160.608 Q1351.15 161.927 1353.72 161.927 Q1357.26 161.927 1359.39 159.427 Q1361.54 156.904 1361.54 152.737 L1361.54 151.788 L1357.31 151.788 M1365.8 150.029 L1365.8 164.821 L1361.54 164.821 L1361.54 160.885 Q1360.08 163.247 1357.91 164.381 Q1355.73 165.492 1352.58 165.492 Q1348.6 165.492 1346.24 163.27 Q1343.9 161.024 1343.9 157.274 Q1343.9 152.899 1346.82 150.677 Q1349.76 148.455 1355.57 148.455 L1361.54 148.455 L1361.54 148.038 Q1361.54 145.099 1359.6 143.501 Q1357.68 141.881 1354.18 141.881 Q1351.96 141.881 1349.85 142.413 Q1347.75 142.946 1345.8 144.011 L1345.8 140.075 Q1348.14 139.173 1350.34 138.733 Q1352.54 138.27 1354.62 138.27 Q1360.25 138.27 1363.02 141.186 Q1365.8 144.103 1365.8 150.029 Z" fill="#000000" fill-rule="nonzero" fill-opacity="1" /><path clip-path="url(#clip280)" d="M1393.23 139.89 L1393.23 143.872 Q1391.43 142.876 1389.6 142.39 Q1387.79 141.881 1385.94 141.881 Q1381.8 141.881 1379.5 144.52 Q1377.21 147.136 1377.21 151.881 Q1377.21 156.626 1379.5 159.265 Q1381.8 161.881 1385.94 161.881 Q1387.79 161.881 1389.6 161.395 Q1391.43 160.885 1393.23 159.89 L1393.23 163.825 Q1391.45 164.659 1389.53 165.075 Q1387.63 165.492 1385.48 165.492 Q1379.62 165.492 1376.17 161.811 Q1372.72 158.131 1372.72 151.881 Q1372.72 145.538 1376.19 141.904 Q1379.69 138.27 1385.75 138.27 Q1387.72 138.27 1389.6 138.687 Q1391.47 139.08 1393.23 139.89 Z" fill="#000000" fill-rule="nonzero" fill-opacity="1" /><path clip-path="url(#clip280)" d="M1404.85 131.534 L1404.85 138.895 L1413.62 138.895 L1413.62 142.205 L1404.85 142.205 L1404.85 156.279 Q1404.85 159.45 1405.71 160.353 Q1406.59 161.256 1409.25 161.256 L1413.62 161.256 L1413.62 164.821 L1409.25 164.821 Q1404.32 164.821 1402.44 162.992 Q1400.57 161.14 1400.57 156.279 L1400.57 142.205 L1397.44 142.205 L1397.44 138.895 L1400.57 138.895 L1400.57 131.534 L1404.85 131.534 Z" fill="#000000" fill-rule="nonzero" fill-opacity="1" /><path clip-path="url(#clip280)" d="M1419.23 138.895 L1423.49 138.895 L1423.49 164.821 L1419.23 164.821 L1419.23 138.895 M1419.23 128.802 L1423.49 128.802 L1423.49 134.196 L1419.23 134.196 L1419.23 128.802 Z" fill="#000000" fill-rule="nonzero" fill-opacity="1" /><path clip-path="url(#clip280)" d="M1442.44 141.881 Q1439.02 141.881 1437.03 144.566 Q1435.04 147.228 1435.04 151.881 Q1435.04 156.534 1437 159.219 Q1438.99 161.881 1442.44 161.881 Q1445.85 161.881 1447.84 159.196 Q1449.83 156.51 1449.83 151.881 Q1449.83 147.274 1447.84 144.589 Q1445.85 141.881 1442.44 141.881 M1442.44 138.27 Q1448 138.27 1451.17 141.881 Q1454.34 145.492 1454.34 151.881 Q1454.34 158.247 1451.17 161.881 Q1448 165.492 1442.44 165.492 Q1436.87 165.492 1433.69 161.881 Q1430.55 158.247 1430.55 151.881 Q1430.55 145.492 1433.69 141.881 Q1436.87 138.27 1442.44 138.27 Z" fill="#000000" fill-rule="nonzero" fill-opacity="1" /><path clip-path="url(#clip280)" d="M1482.95 149.173 L1482.95 164.821 L1478.69 164.821 L1478.69 149.311 Q1478.69 145.631 1477.26 143.802 Q1475.82 141.974 1472.95 141.974 Q1469.5 141.974 1467.51 144.173 Q1465.52 146.372 1465.52 150.168 L1465.52 164.821 L1461.24 164.821 L1461.24 138.895 L1465.52 138.895 L1465.52 142.923 Q1467.05 140.585 1469.11 139.427 Q1471.19 138.27 1473.9 138.27 Q1478.37 138.27 1480.66 141.048 Q1482.95 143.802 1482.95 149.173 Z" fill="#000000" fill-rule="nonzero" fill-opacity="1" /><path clip-path="url(#clip280)" d="M1492.54 158.941 L1497.42 158.941 L1497.42 164.821 L1492.54 164.821 L1492.54 158.941 M1492.54 140.307 L1497.42 140.307 L1497.42 146.186 L1492.54 146.186 L1492.54 140.307 Z" fill="#000000" fill-rule="nonzero" fill-opacity="1" /><path clip-path="url(#clip280)" d="M1520.87 134.335 L1509.06 152.784 L1520.87 152.784 L1520.87 134.335 M1519.64 130.261 L1525.52 130.261 L1525.52 152.784 L1530.45 152.784 L1530.45 156.673 L1525.52 156.673 L1525.52 164.821 L1520.87 164.821 L1520.87 156.673 L1505.27 156.673 L1505.27 152.159 L1519.64 130.261 Z" fill="#000000" fill-rule="nonzero" fill-opacity="1" /><path clip-path="url(#clip280)" d="M1536.91 128.849 L1540.61 128.849 Q1544.09 134.312 1545.8 139.543 Q1547.54 144.774 1547.54 149.936 Q1547.54 155.122 1545.8 160.376 Q1544.09 165.631 1540.61 171.071 L1536.91 171.071 Q1539.99 165.77 1541.49 160.538 Q1543.02 155.284 1543.02 149.936 Q1543.02 144.589 1541.49 139.381 Q1539.99 134.173 1536.91 128.849 Z" fill="#000000" fill-rule="nonzero" fill-opacity="1" /></svg>
