<?xml version="1.0" encoding="utf-8"?>
<svg xmlns="http://www.w3.org/2000/svg" xmlns:xlink="http://www.w3.org/1999/xlink" width="430" height="430" viewBox="0 0 1720 1720">
<defs>
  <clipPath id="clip320">
    <rect x="0" y="0" width="1720" height="1720"/>
  </clipPath>
</defs>
<path clip-path="url(#clip320)" d="M0 1720 L1720 1720 L1720 0 L0 0  Z" fill="#ffffff" fill-rule="evenodd" fill-opacity="1"/>
<defs>
  <clipPath id="clip321">
    <rect x="344" y="172" width="1205" height="1205"/>
  </clipPath>
</defs>
<path clip-path="url(#clip320)" d="M209.636 1500.94 L1609.76 1500.94 L1609.76 47.2441 L209.636 47.2441  Z" fill="#ffffff" fill-rule="evenodd" fill-opacity="1"/>
<defs>
  <clipPath id="clip322">
    <rect x="209" y="47" width="1401" height="1455"/>
  </clipPath>
</defs>
<polyline clip-path="url(#clip322)" style="stroke:#000000; stroke-linecap:round; stroke-linejoin:round; stroke-width:2; stroke-opacity:0.1; fill:none" points="249.262,1500.94 249.262,47.2441 "/>
<polyline clip-path="url(#clip322)" style="stroke:#000000; stroke-linecap:round; stroke-linejoin:round; stroke-width:2; stroke-opacity:0.1; fill:none" points="459.486,1500.94 459.486,47.2441 "/>
<polyline clip-path="url(#clip322)" style="stroke:#000000; stroke-linecap:round; stroke-linejoin:round; stroke-width:2; stroke-opacity:0.1; fill:none" points="669.71,1500.94 669.71,47.2441 "/>
<polyline clip-path="url(#clip322)" style="stroke:#000000; stroke-linecap:round; stroke-linejoin:round; stroke-width:2; stroke-opacity:0.1; fill:none" points="879.934,1500.94 879.934,47.2441 "/>
<polyline clip-path="url(#clip322)" style="stroke:#000000; stroke-linecap:round; stroke-linejoin:round; stroke-width:2; stroke-opacity:0.1; fill:none" points="1090.16,1500.94 1090.16,47.2441 "/>
<polyline clip-path="url(#clip322)" style="stroke:#000000; stroke-linecap:round; stroke-linejoin:round; stroke-width:2; stroke-opacity:0.1; fill:none" points="1300.38,1500.94 1300.38,47.2441 "/>
<polyline clip-path="url(#clip322)" style="stroke:#000000; stroke-linecap:round; stroke-linejoin:round; stroke-width:2; stroke-opacity:0.1; fill:none" points="1510.61,1500.94 1510.61,47.2441 "/>
<polyline clip-path="url(#clip320)" style="stroke:#000000; stroke-linecap:round; stroke-linejoin:round; stroke-width:4; stroke-opacity:1; fill:none" points="209.636,1500.94 1609.76,1500.94 "/>
<polyline clip-path="url(#clip320)" style="stroke:#000000; stroke-linecap:round; stroke-linejoin:round; stroke-width:4; stroke-opacity:1; fill:none" points="249.262,1500.94 249.262,1482.04 "/>
<polyline clip-path="url(#clip320)" style="stroke:#000000; stroke-linecap:round; stroke-linejoin:round; stroke-width:4; stroke-opacity:1; fill:none" points="459.486,1500.94 459.486,1482.04 "/>
<polyline clip-path="url(#clip320)" style="stroke:#000000; stroke-linecap:round; stroke-linejoin:round; stroke-width:4; stroke-opacity:1; fill:none" points="669.71,1500.94 669.71,1482.04 "/>
<polyline clip-path="url(#clip320)" style="stroke:#000000; stroke-linecap:round; stroke-linejoin:round; stroke-width:4; stroke-opacity:1; fill:none" points="879.934,1500.94 879.934,1482.04 "/>
<polyline clip-path="url(#clip320)" style="stroke:#000000; stroke-linecap:round; stroke-linejoin:round; stroke-width:4; stroke-opacity:1; fill:none" points="1090.16,1500.94 1090.16,1482.04 "/>
<polyline clip-path="url(#clip320)" style="stroke:#000000; stroke-linecap:round; stroke-linejoin:round; stroke-width:4; stroke-opacity:1; fill:none" points="1300.38,1500.94 1300.38,1482.04 "/>
<polyline clip-path="url(#clip320)" style="stroke:#000000; stroke-linecap:round; stroke-linejoin:round; stroke-width:4; stroke-opacity:1; fill:none" points="1510.61,1500.94 1510.61,1482.04 "/>
<path clip-path="url(#clip320)" d="M249.262 1526.42 Q245.651 1526.42 243.822 1529.98 Q242.017 1533.52 242.017 1540.65 Q242.017 1547.76 243.822 1551.33 Q245.651 1554.87 249.262 1554.87 Q252.896 1554.87 254.702 1551.33 Q256.531 1547.76 256.531 1540.65 Q256.531 1533.52 254.702 1529.98 Q252.896 1526.42 249.262 1526.42 M249.262 1522.71 Q255.072 1522.71 258.128 1527.32 Q261.207 1531.9 261.207 1540.65 Q261.207 1549.38 258.128 1553.99 Q255.072 1558.57 249.262 1558.57 Q243.452 1558.57 240.373 1553.99 Q237.318 1549.38 237.318 1540.65 Q237.318 1531.9 240.373 1527.32 Q243.452 1522.71 249.262 1522.71 Z" fill="#000000" fill-rule="nonzero" fill-opacity="1" /><path clip-path="url(#clip320)" d="M449.868 1553.96 L457.507 1553.96 L457.507 1527.6 L449.197 1529.27 L449.197 1525.01 L457.461 1523.34 L462.136 1523.34 L462.136 1553.96 L469.775 1553.96 L469.775 1557.9 L449.868 1557.9 L449.868 1553.96 Z" fill="#000000" fill-rule="nonzero" fill-opacity="1" /><path clip-path="url(#clip320)" d="M664.363 1553.96 L680.682 1553.96 L680.682 1557.9 L658.738 1557.9 L658.738 1553.96 Q661.4 1551.21 665.983 1546.58 Q670.589 1541.93 671.77 1540.59 Q674.015 1538.06 674.895 1536.33 Q675.798 1534.57 675.798 1532.88 Q675.798 1530.12 673.853 1528.39 Q671.932 1526.65 668.83 1526.65 Q666.631 1526.65 664.177 1527.41 Q661.747 1528.18 658.969 1529.73 L658.969 1525.01 Q661.793 1523.87 664.247 1523.29 Q666.701 1522.71 668.738 1522.71 Q674.108 1522.71 677.302 1525.4 Q680.497 1528.09 680.497 1532.58 Q680.497 1534.71 679.687 1536.63 Q678.9 1538.52 676.793 1541.12 Q676.214 1541.79 673.113 1545.01 Q670.011 1548.2 664.363 1553.96 Z" fill="#000000" fill-rule="nonzero" fill-opacity="1" /><path clip-path="url(#clip320)" d="M884.181 1539.27 Q887.538 1539.98 889.413 1542.25 Q891.311 1544.52 891.311 1547.85 Q891.311 1552.97 887.792 1555.77 Q884.274 1558.57 877.792 1558.57 Q875.617 1558.57 873.302 1558.13 Q871.01 1557.71 868.556 1556.86 L868.556 1552.34 Q870.501 1553.48 872.816 1554.06 Q875.13 1554.64 877.654 1554.64 Q882.052 1554.64 884.343 1552.9 Q886.658 1551.16 886.658 1547.85 Q886.658 1544.8 884.505 1543.09 Q882.376 1541.35 878.556 1541.35 L874.529 1541.35 L874.529 1537.51 L878.742 1537.51 Q882.191 1537.51 884.019 1536.14 Q885.848 1534.75 885.848 1532.16 Q885.848 1529.5 883.95 1528.09 Q882.075 1526.65 878.556 1526.65 Q876.635 1526.65 874.436 1527.07 Q872.237 1527.48 869.598 1528.36 L869.598 1524.2 Q872.26 1523.46 874.575 1523.09 Q876.913 1522.71 878.973 1522.71 Q884.297 1522.71 887.399 1525.15 Q890.501 1527.55 890.501 1531.67 Q890.501 1534.54 888.857 1536.53 Q887.214 1538.5 884.181 1539.27 Z" fill="#000000" fill-rule="nonzero" fill-opacity="1" /><path clip-path="url(#clip320)" d="M1093.17 1527.41 L1081.36 1545.86 L1093.17 1545.86 L1093.17 1527.41 M1091.94 1523.34 L1097.82 1523.34 L1097.82 1545.86 L1102.75 1545.86 L1102.75 1549.75 L1097.82 1549.75 L1097.82 1557.9 L1093.17 1557.9 L1093.17 1549.75 L1077.56 1549.75 L1077.56 1545.24 L1091.94 1523.34 Z" fill="#000000" fill-rule="nonzero" fill-opacity="1" /><path clip-path="url(#clip320)" d="M1290.66 1523.34 L1309.02 1523.34 L1309.02 1527.28 L1294.94 1527.28 L1294.94 1535.75 Q1295.96 1535.4 1296.98 1535.24 Q1298 1535.05 1299.02 1535.05 Q1304.8 1535.05 1308.18 1538.22 Q1311.56 1541.4 1311.56 1546.81 Q1311.56 1552.39 1308.09 1555.49 Q1304.62 1558.57 1298.3 1558.57 Q1296.12 1558.57 1293.85 1558.2 Q1291.61 1557.83 1289.2 1557.09 L1289.2 1552.39 Q1291.28 1553.52 1293.51 1554.08 Q1295.73 1554.64 1298.21 1554.64 Q1302.21 1554.64 1304.55 1552.53 Q1306.89 1550.42 1306.89 1546.81 Q1306.89 1543.2 1304.55 1541.09 Q1302.21 1538.99 1298.21 1538.99 Q1296.33 1538.99 1294.46 1539.4 Q1292.6 1539.82 1290.66 1540.7 L1290.66 1523.34 Z" fill="#000000" fill-rule="nonzero" fill-opacity="1" /><path clip-path="url(#clip320)" d="M1511.01 1538.76 Q1507.86 1538.76 1506.01 1540.91 Q1504.18 1543.06 1504.18 1546.81 Q1504.18 1550.54 1506.01 1552.71 Q1507.86 1554.87 1511.01 1554.87 Q1514.16 1554.87 1515.99 1552.71 Q1517.84 1550.54 1517.84 1546.81 Q1517.84 1543.06 1515.99 1540.91 Q1514.16 1538.76 1511.01 1538.76 M1520.29 1524.1 L1520.29 1528.36 Q1518.53 1527.53 1516.73 1527.09 Q1514.95 1526.65 1513.19 1526.65 Q1508.56 1526.65 1506.1 1529.77 Q1503.67 1532.9 1503.33 1539.22 Q1504.69 1537.21 1506.75 1536.14 Q1508.81 1535.05 1511.29 1535.05 Q1516.5 1535.05 1519.51 1538.22 Q1522.54 1541.37 1522.54 1546.81 Q1522.54 1552.14 1519.39 1555.35 Q1516.24 1558.57 1511.01 1558.57 Q1505.01 1558.57 1501.84 1553.99 Q1498.67 1549.38 1498.67 1540.65 Q1498.67 1532.46 1502.56 1527.6 Q1506.45 1522.71 1513 1522.71 Q1514.76 1522.71 1516.54 1523.06 Q1518.35 1523.41 1520.29 1524.1 Z" fill="#000000" fill-rule="nonzero" fill-opacity="1" /><path clip-path="url(#clip320)" d="M919.821 1613.01 L899.547 1613.01 Q900.024 1622.52 902.22 1626.56 Q904.957 1631.53 909.7 1631.53 Q914.474 1631.53 917.116 1626.53 Q919.439 1622.14 919.821 1613.01 M919.726 1607.59 Q918.835 1598.56 917.116 1595.37 Q914.379 1590.34 909.7 1590.34 Q904.83 1590.34 902.252 1595.31 Q900.215 1599.32 899.61 1607.59 L919.726 1607.59 M909.7 1585.57 Q917.339 1585.57 921.699 1592.32 Q926.06 1599.03 926.06 1610.94 Q926.06 1622.81 921.699 1629.56 Q917.339 1636.34 909.7 1636.34 Q902.029 1636.34 897.7 1629.56 Q893.34 1622.81 893.34 1610.94 Q893.34 1599.03 897.7 1592.32 Q902.029 1585.57 909.7 1585.57 Z" fill="#000000" fill-rule="nonzero" fill-opacity="1" /><polyline clip-path="url(#clip322)" style="stroke:#000000; stroke-linecap:round; stroke-linejoin:round; stroke-width:2; stroke-opacity:0.1; fill:none" points="209.636,1188.29 1609.76,1188.29 "/>
<polyline clip-path="url(#clip322)" style="stroke:#000000; stroke-linecap:round; stroke-linejoin:round; stroke-width:2; stroke-opacity:0.1; fill:none" points="209.636,834.656 1609.76,834.656 "/>
<polyline clip-path="url(#clip322)" style="stroke:#000000; stroke-linecap:round; stroke-linejoin:round; stroke-width:2; stroke-opacity:0.1; fill:none" points="209.636,481.024 1609.76,481.024 "/>
<polyline clip-path="url(#clip322)" style="stroke:#000000; stroke-linecap:round; stroke-linejoin:round; stroke-width:2; stroke-opacity:0.1; fill:none" points="209.636,127.391 1609.76,127.391 "/>
<polyline clip-path="url(#clip320)" style="stroke:#000000; stroke-linecap:round; stroke-linejoin:round; stroke-width:4; stroke-opacity:1; fill:none" points="209.636,1500.94 209.636,47.2441 "/>
<polyline clip-path="url(#clip320)" style="stroke:#000000; stroke-linecap:round; stroke-linejoin:round; stroke-width:4; stroke-opacity:1; fill:none" points="209.636,1188.29 228.534,1188.29 "/>
<polyline clip-path="url(#clip320)" style="stroke:#000000; stroke-linecap:round; stroke-linejoin:round; stroke-width:4; stroke-opacity:1; fill:none" points="209.636,834.656 228.534,834.656 "/>
<polyline clip-path="url(#clip320)" style="stroke:#000000; stroke-linecap:round; stroke-linejoin:round; stroke-width:4; stroke-opacity:1; fill:none" points="209.636,481.024 228.534,481.024 "/>
<polyline clip-path="url(#clip320)" style="stroke:#000000; stroke-linecap:round; stroke-linejoin:round; stroke-width:4; stroke-opacity:1; fill:none" points="209.636,127.391 228.534,127.391 "/>
<path clip-path="url(#clip320)" d="M67.3319 1174.09 Q63.7208 1174.09 61.8921 1177.65 Q60.0865 1181.19 60.0865 1188.32 Q60.0865 1195.43 61.8921 1198.99 Q63.7208 1202.54 67.3319 1202.54 Q70.9661 1202.54 72.7717 1198.99 Q74.6004 1195.43 74.6004 1188.32 Q74.6004 1181.19 72.7717 1177.65 Q70.9661 1174.09 67.3319 1174.09 M67.3319 1170.38 Q73.142 1170.38 76.1976 1174.99 Q79.2763 1179.57 79.2763 1188.32 Q79.2763 1197.05 76.1976 1201.66 Q73.142 1206.24 67.3319 1206.24 Q61.5217 1206.24 58.443 1201.66 Q55.3875 1197.05 55.3875 1188.32 Q55.3875 1179.57 58.443 1174.99 Q61.5217 1170.38 67.3319 1170.38 Z" fill="#000000" fill-rule="nonzero" fill-opacity="1" /><path clip-path="url(#clip320)" d="M87.4938 1199.69 L92.378 1199.69 L92.378 1205.57 L87.4938 1205.57 L87.4938 1199.69 Z" fill="#000000" fill-rule="nonzero" fill-opacity="1" /><path clip-path="url(#clip320)" d="M112.563 1174.09 Q108.952 1174.09 107.123 1177.65 Q105.318 1181.19 105.318 1188.32 Q105.318 1195.43 107.123 1198.99 Q108.952 1202.54 112.563 1202.54 Q116.197 1202.54 118.003 1198.99 Q119.832 1195.43 119.832 1188.32 Q119.832 1181.19 118.003 1177.65 Q116.197 1174.09 112.563 1174.09 M112.563 1170.38 Q118.373 1170.38 121.429 1174.99 Q124.507 1179.57 124.507 1188.32 Q124.507 1197.05 121.429 1201.66 Q118.373 1206.24 112.563 1206.24 Q106.753 1206.24 103.674 1201.66 Q100.619 1197.05 100.619 1188.32 Q100.619 1179.57 103.674 1174.99 Q106.753 1170.38 112.563 1170.38 Z" fill="#000000" fill-rule="nonzero" fill-opacity="1" /><path clip-path="url(#clip320)" d="M142.725 1174.09 Q139.114 1174.09 137.285 1177.65 Q135.48 1181.19 135.48 1188.32 Q135.48 1195.43 137.285 1198.99 Q139.114 1202.54 142.725 1202.54 Q146.359 1202.54 148.165 1198.99 Q149.993 1195.43 149.993 1188.32 Q149.993 1181.19 148.165 1177.65 Q146.359 1174.09 142.725 1174.09 M142.725 1170.38 Q148.535 1170.38 151.591 1174.99 Q154.669 1179.57 154.669 1188.32 Q154.669 1197.05 151.591 1201.66 Q148.535 1206.24 142.725 1206.24 Q136.915 1206.24 133.836 1201.66 Q130.781 1197.05 130.781 1188.32 Q130.781 1179.57 133.836 1174.99 Q136.915 1170.38 142.725 1170.38 Z" fill="#000000" fill-rule="nonzero" fill-opacity="1" /><path clip-path="url(#clip320)" d="M162.933 1171.01 L181.29 1171.01 L181.29 1174.94 L167.216 1174.94 L167.216 1183.41 Q168.234 1183.07 169.253 1182.91 Q170.271 1182.72 171.29 1182.72 Q177.077 1182.72 180.456 1185.89 Q183.836 1189.06 183.836 1194.48 Q183.836 1200.06 180.364 1203.16 Q176.891 1206.24 170.572 1206.24 Q168.396 1206.24 166.128 1205.87 Q163.882 1205.5 161.475 1204.76 L161.475 1200.06 Q163.558 1201.19 165.78 1201.75 Q168.003 1202.3 170.479 1202.3 Q174.484 1202.3 176.822 1200.2 Q179.16 1198.09 179.16 1194.48 Q179.16 1190.87 176.822 1188.76 Q174.484 1186.66 170.479 1186.66 Q168.604 1186.66 166.729 1187.07 Q164.878 1187.49 162.933 1188.37 L162.933 1171.01 Z" fill="#000000" fill-rule="nonzero" fill-opacity="1" /><path clip-path="url(#clip320)" d="M66.3365 820.454 Q62.7254 820.454 60.8967 824.019 Q59.0912 827.561 59.0912 834.69 Q59.0912 841.797 60.8967 845.362 Q62.7254 848.903 66.3365 848.903 Q69.9707 848.903 71.7763 845.362 Q73.605 841.797 73.605 834.69 Q73.605 827.561 71.7763 824.019 Q69.9707 820.454 66.3365 820.454 M66.3365 816.751 Q72.1467 816.751 75.2022 821.357 Q78.2809 825.94 78.2809 834.69 Q78.2809 843.417 75.2022 848.024 Q72.1467 852.607 66.3365 852.607 Q60.5264 852.607 57.4477 848.024 Q54.3921 843.417 54.3921 834.69 Q54.3921 825.94 57.4477 821.357 Q60.5264 816.751 66.3365 816.751 Z" fill="#000000" fill-rule="nonzero" fill-opacity="1" /><path clip-path="url(#clip320)" d="M86.4984 846.056 L91.3827 846.056 L91.3827 851.936 L86.4984 851.936 L86.4984 846.056 Z" fill="#000000" fill-rule="nonzero" fill-opacity="1" /><path clip-path="url(#clip320)" d="M111.568 820.454 Q107.957 820.454 106.128 824.019 Q104.322 827.561 104.322 834.69 Q104.322 841.797 106.128 845.362 Q107.957 848.903 111.568 848.903 Q115.202 848.903 117.008 845.362 Q118.836 841.797 118.836 834.69 Q118.836 827.561 117.008 824.019 Q115.202 820.454 111.568 820.454 M111.568 816.751 Q117.378 816.751 120.433 821.357 Q123.512 825.94 123.512 834.69 Q123.512 843.417 120.433 848.024 Q117.378 852.607 111.568 852.607 Q105.758 852.607 102.679 848.024 Q99.6234 843.417 99.6234 834.69 Q99.6234 825.94 102.679 821.357 Q105.758 816.751 111.568 816.751 Z" fill="#000000" fill-rule="nonzero" fill-opacity="1" /><path clip-path="url(#clip320)" d="M132.54 848 L140.179 848 L140.179 821.635 L131.869 823.301 L131.869 819.042 L140.132 817.376 L144.808 817.376 L144.808 848 L152.447 848 L152.447 851.936 L132.54 851.936 L132.54 848 Z" fill="#000000" fill-rule="nonzero" fill-opacity="1" /><path clip-path="url(#clip320)" d="M171.891 820.454 Q168.28 820.454 166.452 824.019 Q164.646 827.561 164.646 834.69 Q164.646 841.797 166.452 845.362 Q168.28 848.903 171.891 848.903 Q175.526 848.903 177.331 845.362 Q179.16 841.797 179.16 834.69 Q179.16 827.561 177.331 824.019 Q175.526 820.454 171.891 820.454 M171.891 816.751 Q177.702 816.751 180.757 821.357 Q183.836 825.94 183.836 834.69 Q183.836 843.417 180.757 848.024 Q177.702 852.607 171.891 852.607 Q166.081 852.607 163.003 848.024 Q159.947 843.417 159.947 834.69 Q159.947 825.94 163.003 821.357 Q166.081 816.751 171.891 816.751 Z" fill="#000000" fill-rule="nonzero" fill-opacity="1" /><path clip-path="url(#clip320)" d="M67.3319 466.822 Q63.7208 466.822 61.8921 470.387 Q60.0865 473.929 60.0865 481.058 Q60.0865 488.165 61.8921 491.729 Q63.7208 495.271 67.3319 495.271 Q70.9661 495.271 72.7717 491.729 Q74.6004 488.165 74.6004 481.058 Q74.6004 473.929 72.7717 470.387 Q70.9661 466.822 67.3319 466.822 M67.3319 463.119 Q73.142 463.119 76.1976 467.725 Q79.2763 472.308 79.2763 481.058 Q79.2763 489.785 76.1976 494.392 Q73.142 498.975 67.3319 498.975 Q61.5217 498.975 58.443 494.392 Q55.3875 489.785 55.3875 481.058 Q55.3875 472.308 58.443 467.725 Q61.5217 463.119 67.3319 463.119 Z" fill="#000000" fill-rule="nonzero" fill-opacity="1" /><path clip-path="url(#clip320)" d="M87.4938 492.424 L92.378 492.424 L92.378 498.304 L87.4938 498.304 L87.4938 492.424 Z" fill="#000000" fill-rule="nonzero" fill-opacity="1" /><path clip-path="url(#clip320)" d="M112.563 466.822 Q108.952 466.822 107.123 470.387 Q105.318 473.929 105.318 481.058 Q105.318 488.165 107.123 491.729 Q108.952 495.271 112.563 495.271 Q116.197 495.271 118.003 491.729 Q119.832 488.165 119.832 481.058 Q119.832 473.929 118.003 470.387 Q116.197 466.822 112.563 466.822 M112.563 463.119 Q118.373 463.119 121.429 467.725 Q124.507 472.308 124.507 481.058 Q124.507 489.785 121.429 494.392 Q118.373 498.975 112.563 498.975 Q106.753 498.975 103.674 494.392 Q100.619 489.785 100.619 481.058 Q100.619 472.308 103.674 467.725 Q106.753 463.119 112.563 463.119 Z" fill="#000000" fill-rule="nonzero" fill-opacity="1" /><path clip-path="url(#clip320)" d="M133.535 494.368 L141.174 494.368 L141.174 468.003 L132.864 469.669 L132.864 465.41 L141.128 463.744 L145.804 463.744 L145.804 494.368 L153.443 494.368 L153.443 498.304 L133.535 498.304 L133.535 494.368 Z" fill="#000000" fill-rule="nonzero" fill-opacity="1" /><path clip-path="url(#clip320)" d="M162.933 463.744 L181.29 463.744 L181.29 467.679 L167.216 467.679 L167.216 476.151 Q168.234 475.804 169.253 475.642 Q170.271 475.456 171.29 475.456 Q177.077 475.456 180.456 478.628 Q183.836 481.799 183.836 487.216 Q183.836 492.794 180.364 495.896 Q176.891 498.975 170.572 498.975 Q168.396 498.975 166.128 498.604 Q163.882 498.234 161.475 497.493 L161.475 492.794 Q163.558 493.929 165.78 494.484 Q168.003 495.04 170.479 495.04 Q174.484 495.04 176.822 492.933 Q179.16 490.827 179.16 487.216 Q179.16 483.605 176.822 481.498 Q174.484 479.392 170.479 479.392 Q168.604 479.392 166.729 479.808 Q164.878 480.225 162.933 481.105 L162.933 463.744 Z" fill="#000000" fill-rule="nonzero" fill-opacity="1" /><path clip-path="url(#clip320)" d="M66.3365 113.19 Q62.7254 113.19 60.8967 116.755 Q59.0912 120.297 59.0912 127.426 Q59.0912 134.533 60.8967 138.097 Q62.7254 141.639 66.3365 141.639 Q69.9707 141.639 71.7763 138.097 Q73.605 134.533 73.605 127.426 Q73.605 120.297 71.7763 116.755 Q69.9707 113.19 66.3365 113.19 M66.3365 109.486 Q72.1467 109.486 75.2022 114.093 Q78.2809 118.676 78.2809 127.426 Q78.2809 136.153 75.2022 140.759 Q72.1467 145.343 66.3365 145.343 Q60.5264 145.343 57.4477 140.759 Q54.3921 136.153 54.3921 127.426 Q54.3921 118.676 57.4477 114.093 Q60.5264 109.486 66.3365 109.486 Z" fill="#000000" fill-rule="nonzero" fill-opacity="1" /><path clip-path="url(#clip320)" d="M86.4984 138.792 L91.3827 138.792 L91.3827 144.671 L86.4984 144.671 L86.4984 138.792 Z" fill="#000000" fill-rule="nonzero" fill-opacity="1" /><path clip-path="url(#clip320)" d="M111.568 113.19 Q107.957 113.19 106.128 116.755 Q104.322 120.297 104.322 127.426 Q104.322 134.533 106.128 138.097 Q107.957 141.639 111.568 141.639 Q115.202 141.639 117.008 138.097 Q118.836 134.533 118.836 127.426 Q118.836 120.297 117.008 116.755 Q115.202 113.19 111.568 113.19 M111.568 109.486 Q117.378 109.486 120.433 114.093 Q123.512 118.676 123.512 127.426 Q123.512 136.153 120.433 140.759 Q117.378 145.343 111.568 145.343 Q105.758 145.343 102.679 140.759 Q99.6234 136.153 99.6234 127.426 Q99.6234 118.676 102.679 114.093 Q105.758 109.486 111.568 109.486 Z" fill="#000000" fill-rule="nonzero" fill-opacity="1" /><path clip-path="url(#clip320)" d="M135.757 140.736 L152.077 140.736 L152.077 144.671 L130.132 144.671 L130.132 140.736 Q132.794 137.982 137.378 133.352 Q141.984 128.699 143.165 127.357 Q145.41 124.834 146.29 123.098 Q147.193 121.338 147.193 119.648 Q147.193 116.894 145.248 115.158 Q143.327 113.422 140.225 113.422 Q138.026 113.422 135.572 114.186 Q133.142 114.949 130.364 116.5 L130.364 111.778 Q133.188 110.644 135.642 110.065 Q138.095 109.486 140.132 109.486 Q145.503 109.486 148.697 112.172 Q151.892 114.857 151.892 119.348 Q151.892 121.477 151.081 123.398 Q150.294 125.297 148.188 127.889 Q147.609 128.56 144.507 131.778 Q141.406 134.972 135.757 140.736 Z" fill="#000000" fill-rule="nonzero" fill-opacity="1" /><path clip-path="url(#clip320)" d="M171.891 113.19 Q168.28 113.19 166.452 116.755 Q164.646 120.297 164.646 127.426 Q164.646 134.533 166.452 138.097 Q168.28 141.639 171.891 141.639 Q175.526 141.639 177.331 138.097 Q179.16 134.533 179.16 127.426 Q179.16 120.297 177.331 116.755 Q175.526 113.19 171.891 113.19 M171.891 109.486 Q177.702 109.486 180.757 114.093 Q183.836 118.676 183.836 127.426 Q183.836 136.153 180.757 140.759 Q177.702 145.343 171.891 145.343 Q166.081 145.343 163.003 140.759 Q159.947 136.153 159.947 127.426 Q159.947 118.676 163.003 114.093 Q166.081 109.486 171.891 109.486 Z" fill="#000000" fill-rule="nonzero" fill-opacity="1" /><polyline clip-path="url(#clip322)" style="stroke:#009af9; stroke-linecap:round; stroke-linejoin:round; stroke-width:4; stroke-opacity:1; fill:none" points="249.262,1287.32 250.915,1292.17 252.568,1297 254.222,1301.81 255.875,1306.57 257.528,1311.3 259.181,1315.99 260.834,1320.63 262.487,1325.22 264.141,1329.75 265.794,1334.23 267.447,1338.64 269.1,1342.98 270.753,1347.26 272.406,1351.46 274.06,1355.58 275.713,1359.62 277.366,1363.59 279.019,1367.46 280.672,1371.25 282.325,1374.95 283.979,1378.56 285.632,1382.08 287.285,1385.5 288.938,1388.83 290.591,1392.06 292.244,1395.19 293.897,1398.23 295.551,1401.17 297.204,1404.01 298.857,1406.76 300.51,1409.41 302.163,1411.97 303.816,1414.43 305.47,1416.8 307.123,1419.07 308.776,1421.25 310.429,1423.35 312.082,1425.35 313.735,1427.27 315.389,1429.11 317.042,1430.86 318.695,1432.53 320.348,1434.12 322.001,1435.64 323.654,1437.09 325.308,1438.46 326.961,1439.76 328.614,1441 330.267,1442.17 331.92,1443.29 333.573,1444.34 335.226,1445.33 336.88,1446.27 338.533,1447.16 340.186,1447.99 341.839,1448.78 343.492,1449.53 345.145,1450.23 346.799,1450.89 348.452,1451.5 350.105,1452.09 351.758,1452.63 353.411,1453.14 355.064,1453.63 356.718,1454.08 358.371,1454.5 360.024,1454.89 361.677,1455.26 363.33,1455.61 364.983,1455.94 366.637,1456.24 368.29,1456.52 369.943,1456.79 371.596,1457.03 373.249,1457.27 374.902,1457.48 376.556,1457.68 378.209,1457.87 379.862,1458.04 381.515,1458.21 383.168,1458.36 384.821,1458.5 386.474,1458.63 388.128,1458.75 389.781,1458.86 391.434,1458.97 393.087,1459.06 394.74,1459.15 396.393,1459.23 398.047,1459.31 399.7,1459.37 401.353,1459.44 403.006,1459.49 404.659,1459.54 406.312,1459.59 407.966,1459.63 409.619,1459.67 411.272,1459.7 412.925,1459.73 414.578,1459.75 416.231,1459.77 417.885,1459.78 419.538,1459.79 421.191,1459.8 422.844,1459.8 424.497,1459.8 426.15,1459.79 427.803,1459.78 429.457,1459.77 431.11,1459.75 432.763,1459.73 434.416,1459.71 436.069,1459.68 437.722,1459.66 439.376,1459.62 441.029,1459.59 442.682,1459.55 444.335,1459.5 445.988,1459.46 447.641,1459.41 449.295,1459.36 450.948,1459.3 452.601,1459.24 454.254,1459.18 455.907,1459.11 457.56,1459.04 459.214,1458.97 460.867,1458.9 462.52,1458.82 464.173,1458.73 465.826,1458.65 467.479,1458.56 469.133,1458.47 470.786,1458.37 472.439,1458.28 474.092,1458.17 475.745,1458.07 477.398,1457.96 479.051,1457.85 480.705,1457.73 482.358,1457.62 484.011,1457.49 485.664,1457.37 487.317,1457.24 488.97,1457.11 490.624,1456.97 492.277,1456.83 493.93,1456.69 495.583,1456.54 497.236,1456.39 498.889,1456.24 500.543,1456.08 502.196,1455.92 503.849,1455.76 505.502,1455.59 507.155,1455.42 508.808,1455.24 510.462,1455.06 512.115,1454.88 513.768,1454.7 515.421,1454.5 517.074,1454.31 518.727,1454.11 520.38,1453.91 522.034,1453.7 523.687,1453.49 525.34,1453.28 526.993,1453.06 528.646,1452.84 530.299,1452.61 531.953,1452.38 533.606,1452.14 535.259,1451.9 536.912,1451.66 538.565,1451.41 540.218,1451.16 541.872,1450.9 543.525,1450.64 545.178,1450.37 546.831,1450.1 548.484,1449.83 550.137,1449.55 551.791,1449.26 553.444,1448.97 555.097,1448.68 556.75,1448.38 558.403,1448.07 560.056,1447.77 561.71,1447.45 563.363,1447.13 565.016,1446.81 566.669,1446.48 568.322,1446.14 569.975,1445.8 571.628,1445.46 573.282,1445.11 574.935,1444.75 576.588,1444.39 578.241,1444.02 579.894,1443.65 581.547,1443.27 583.201,1442.89 584.854,1442.5 586.507,1442.1 588.16,1441.7 589.813,1441.29 591.466,1440.88 593.12,1440.46 594.773,1440.04 596.426,1439.6 598.079,1439.17 599.732,1438.72 601.385,1438.27 603.039,1437.82 604.692,1437.35 606.345,1436.88 607.998,1436.41 609.651,1435.92 611.304,1435.43 612.957,1434.94 614.611,1434.43 616.264,1433.92 617.917,1433.41 619.57,1432.88 621.223,1432.35 622.876,1431.81 624.53,1431.27 626.183,1430.72 627.836,1430.16 629.489,1429.59 631.142,1429.01 632.795,1428.43 634.449,1427.84 636.102,1427.25 637.755,1426.64 639.408,1426.03 641.061,1425.41 642.714,1424.78 644.368,1424.14 646.021,1423.5 647.674,1422.85 649.327,1422.19 650.98,1421.52 652.633,1420.84 654.287,1420.16 655.94,1419.46 657.593,1418.76 659.246,1418.05 660.899,1417.34 662.552,1416.61 664.205,1415.88 665.859,1415.14 667.512,1414.38 669.165,1413.63 670.818,1412.86 672.471,1412.08 674.124,1411.3 675.778,1410.51 677.431,1409.71 679.084,1408.9 680.737,1408.08 682.39,1407.26 684.043,1406.42 685.697,1405.58 687.35,1404.73 689.003,1403.87 690.656,1403.01 692.309,1402.13 693.962,1401.25 695.616,1400.36 697.269,1399.47 698.922,1398.56 700.575,1397.65 702.228,1396.73 703.881,1395.8 705.534,1394.87 707.188,1393.93 708.841,1392.98 710.494,1392.03 712.147,1391.07 713.8,1390.1 715.453,1389.13 717.107,1388.15 718.76,1387.16 720.413,1386.17 722.066,1385.17 723.719,1384.17 725.372,1383.16 727.026,1382.15 728.679,1381.13 730.332,1380.11 731.985,1379.09 733.638,1378.06 735.291,1377.02 736.945,1375.98 738.598,1374.94 740.251,1373.89 741.904,1372.84 743.557,1371.79 745.21,1370.74 746.864,1369.68 748.517,1368.61 750.17,1367.55 751.823,1366.48 753.476,1365.41 755.129,1364.33 756.782,1363.25 758.436,1362.17 760.089,1361.08 761.742,1359.99 763.395,1358.9 765.048,1357.8 766.701,1356.69 768.355,1355.58 770.008,1354.46 771.661,1353.34 773.314,1352.21 774.967,1351.07 776.62,1349.92 778.274,1348.75 779.927,1347.58 781.58,1346.39 783.233,1345.19 784.886,1343.97 786.539,1342.74 788.193,1341.48 789.846,1340.2 791.499,1338.9 793.152,1337.57 794.805,1336.21 796.458,1334.82 798.111,1333.39 799.765,1331.93 801.418,1330.42 803.071,1328.88 804.724,1327.28 806.377,1325.63 808.03,1323.93 809.684,1322.17 811.337,1320.34 812.99,1318.45 814.643,1316.48 816.296,1314.44 817.949,1312.31 819.603,1310.1 821.256,1307.8 822.909,1305.39 824.562,1302.89 826.215,1300.28 827.868,1297.55 829.522,1294.7 831.175,1291.73 832.828,1288.63 834.481,1285.4 836.134,1282.02 837.787,1278.49 839.44,1274.81 841.094,1270.98 842.747,1266.98 844.4,1262.82 846.053,1258.48 847.706,1253.96 849.359,1249.26 851.013,1244.38 852.666,1239.3 854.319,1234.03 855.972,1228.57 857.625,1222.9 859.278,1217.04 860.932,1210.96 862.585,1204.68 864.238,1198.2 865.891,1191.51 867.544,1184.6 869.197,1177.49 870.851,1170.17 872.504,1162.65 874.157,1154.92 875.81,1146.99 877.463,1138.86 879.116,1130.53 880.77,1122.02 882.423,1113.31 884.076,1104.42 885.729,1095.36 887.382,1086.13 889.035,1076.73 890.688,1067.17 892.342,1057.46 893.995,1047.61 895.648,1037.63 897.301,1027.52 898.954,1017.3 900.607,1006.96 902.261,996.533 903.914,986.014 905.567,975.416 907.22,964.75 908.873,954.026 910.526,943.253 912.18,932.441 913.833,921.601 915.486,910.743 917.139,899.877 918.792,889.012 920.445,878.158 922.099,867.325 923.752,856.521 925.405,845.755 927.058,835.036 928.711,824.372 930.364,813.771 932.017,803.239 933.671,792.784 935.324,782.412 936.977,772.13 938.63,761.942 940.283,751.853 941.936,741.869 943.59,731.992 945.243,722.227 946.896,712.576 948.549,703.041 950.202,693.625 951.855,684.329 953.509,675.154 955.162,666.099 956.815,657.166 958.468,648.353 960.121,639.66 961.774,631.085 963.428,622.627 965.081,614.283 966.734,606.051 968.387,597.929 970.04,589.912 971.693,581.999 973.347,574.185 975,566.467 976.653,558.841 978.306,551.302 979.959,543.848 981.612,536.473 983.265,529.174 984.919,521.946 986.572,514.785 988.225,507.686 989.878,500.646 991.531,493.66 993.184,486.725 994.838,479.836 996.491,472.989 998.144,466.181 999.797,459.409 1001.45,452.668 1003.1,445.957 1004.76,439.272 1006.41,432.61 1008.06,425.969 1009.72,419.347 1011.37,412.741 1013.02,406.151 1014.68,399.574 1016.33,393.009 1017.98,386.456 1019.64,379.914 1021.29,373.381 1022.94,366.859 1024.59,360.347 1026.25,353.845 1027.9,347.354 1029.55,340.875 1031.21,334.409 1032.86,327.958 1034.51,321.522 1036.17,315.103 1037.82,308.704 1039.47,302.326 1041.13,295.973 1042.78,289.646 1044.43,283.348 1046.09,277.083 1047.74,270.853 1049.39,264.661 1051.05,258.512 1052.7,252.407 1054.35,246.352 1056,240.35 1057.66,234.404 1059.31,228.519 1060.96,222.698 1062.62,216.946 1064.27,211.267 1065.92,205.665 1067.58,200.144 1069.23,194.709 1070.88,189.364 1072.54,184.113 1074.19,178.96 1075.84,173.91 1077.5,168.967 1079.15,164.136 1080.8,159.42 1082.46,154.824 1084.11,150.352 1085.76,146.007 1087.41,141.795 1089.07,137.718 1090.72,133.78 1092.37,129.986 1094.03,126.338 1095.68,122.841 1097.33,119.497 1098.99,116.31 1100.64,113.282 1102.29,110.417 1103.95,107.718 1105.6,105.186 1107.25,102.825 1108.91,100.636 1110.56,98.6221 1112.21,96.7845 1113.87,95.1252 1115.52,93.6455 1117.17,92.3467 1118.82,91.23 1120.48,90.2961 1122.13,89.5459 1123.78,88.9796 1125.44,88.5977 1127.09,88.4 1128.74,88.3864 1130.4,88.5565 1132.05,88.9097 1133.7,89.4451 1135.36,90.1617 1137.01,91.0581 1138.66,92.1329 1140.32,93.3842 1141.97,94.8103 1143.62,96.4089 1145.28,98.1777 1146.93,100.114 1148.58,102.215 1150.23,104.478 1151.89,106.9 1153.54,109.477 1155.19,112.205 1156.85,115.082 1158.5,118.102 1160.15,121.262 1161.81,124.557 1163.46,127.984 1165.11,131.536 1166.77,135.21 1168.42,139 1170.07,142.901 1171.73,146.908 1173.38,151.016 1175.03,155.218 1176.69,159.509 1178.34,163.883 1179.99,168.335 1181.64,172.857 1183.3,177.443 1184.95,182.088 1186.6,186.784 1188.26,191.525 1189.91,196.304 1191.56,201.115 1193.22,205.95 1194.87,210.803 1196.52,215.666 1198.18,220.532 1199.83,225.394 1201.48,230.244 1203.14,235.075 1204.79,239.88 1206.44,244.652 1208.1,249.381 1209.75,254.062 1211.4,258.687 1213.05,263.247 1214.71,267.736 1216.36,272.145 1218.01,276.467 1219.67,280.695 1221.32,284.821 1222.97,288.838 1224.63,292.738 1226.28,296.514 1227.93,300.159 1229.59,303.665 1231.24,307.027 1232.89,310.236 1234.55,313.287 1236.2,316.174 1237.85,318.89 1239.51,321.429 1241.16,323.786 1242.81,325.955 1244.46,327.932 1246.12,329.713 1247.77,331.292 1249.42,332.667 1251.08,333.834 1252.73,334.79 1254.38,335.533 1256.04,336.061 1257.69,336.374 1259.34,336.47 1261,336.349 1262.65,336.014 1264.3,335.464 1265.96,334.702 1267.61,333.731 1269.26,332.555 1270.92,331.177 1272.57,329.604 1274.22,327.841 1275.87,325.895 1277.53,323.773 1279.18,321.485 1280.83,319.038 1282.49,316.445 1284.14,313.714 1285.79,310.859 1287.45,307.892 1289.1,304.826 1290.75,301.675 1292.41,298.454 1294.06,295.179 1295.71,291.865 1297.37,288.53 1299.02,285.191 1300.67,281.865 1302.33,278.572 1303.98,275.33 1305.63,272.157 1307.28,269.074 1308.94,266.1 1310.59,263.255 1312.24,260.559 1313.9,258.031 1315.55,255.691 1317.2,253.558 1318.86,251.653 1320.51,249.994 1322.16,248.599 1323.82,247.486 1325.47,246.674 1327.12,246.178 1328.78,246.015 1330.43,246.2 1332.08,246.748 1333.74,247.671 1335.39,248.983 1337.04,250.695 1338.7,252.816 1340.35,255.356 1342,258.323 1343.65,261.723 1345.31,265.561 1346.96,269.841 1348.61,274.566 1350.27,279.736 1351.92,285.352 1353.57,291.412 1355.23,297.912 1356.88,304.848 1358.53,312.216 1360.19,320.006 1361.84,328.212 1363.49,336.824 1365.15,345.83 1366.8,355.218 1368.45,364.977 1370.11,375.091 1371.76,385.545 1373.41,396.324 1375.06,407.411 1376.72,418.787 1378.37,430.435 1380.02,442.336 1381.68,454.47 1383.33,466.817 1384.98,479.358 1386.64,492.072 1388.29,504.938 1389.94,517.936 1391.6,531.045 1393.25,544.243 1394.9,557.512 1396.56,570.829 1398.21,584.176 1399.86,597.533 1401.52,610.88 1403.17,624.199 1404.82,637.472 1406.47,650.681 1408.13,663.81 1409.78,676.842 1411.43,689.762 1413.09,702.555 1414.74,715.208 1416.39,727.707 1418.05,740.041 1419.7,752.199 1421.35,764.169 1423.01,775.944 1424.66,787.513 1426.31,798.871 1427.97,810.009 1429.62,820.922 1431.27,831.606 1432.93,842.056 1434.58,852.269 1436.23,862.242 1437.88,871.975 1439.54,881.465 1441.19,890.714 1442.84,899.721 1444.5,908.488 1446.15,917.017 1447.8,925.31 1449.46,933.371 1451.11,941.202 1452.76,948.809 1454.42,956.196 1456.07,963.368 1457.72,970.33 1459.38,977.088 1461.03,983.648 1462.68,990.017 1464.34,996.201 1465.99,1002.21 1467.64,1008.04 1469.29,1013.72 1470.95,1019.23 1472.6,1024.6 1474.25,1029.83 1475.91,1034.92 1477.56,1039.89 1479.21,1044.74 1480.87,1049.48 1482.52,1054.12 1484.17,1058.66 1485.83,1063.12 1487.48,1067.49 1489.13,1071.8 1490.79,1076.04 1492.44,1080.22 1494.09,1084.35 1495.75,1088.43 1497.4,1092.48 1499.05,1096.5 1500.7,1100.49 1502.36,1104.46 1504.01,1108.42 1505.66,1112.37 1507.32,1116.32 1508.97,1120.28 1510.62,1124.24 1512.28,1128.21 1513.93,1132.2 1515.58,1136.21 1517.24,1140.24 1518.89,1144.3 1520.54,1148.39 1522.2,1152.52 1523.85,1156.67 1525.5,1160.87 1527.16,1165.11 1528.81,1169.38 1530.46,1173.7 1532.11,1178.06 1533.77,1182.46 1535.42,1186.91 1537.07,1191.4 1538.73,1195.93 1540.38,1200.51 1542.03,1205.12 1543.69,1209.77 1545.34,1214.46 1546.99,1219.19 1548.65,1223.95 1550.3,1228.73 1551.95,1233.55 1553.61,1238.39 1555.26,1243.25 1556.91,1248.13 1558.57,1253.02 1560.22,1257.92 1561.87,1262.83 1563.52,1267.74 1565.18,1272.65 1566.83,1277.55 1568.48,1282.44 1570.14,1287.32 "/>
<path clip-path="url(#clip320)" d="M256.307 199.381 L1081.96 199.381 L1081.96 95.7006 L256.307 95.7006  Z" fill="#ffffff" fill-rule="evenodd" fill-opacity="1"/>
<polyline clip-path="url(#clip320)" style="stroke:#000000; stroke-linecap:round; stroke-linejoin:round; stroke-width:4; stroke-opacity:1; fill:none" points="256.307,199.381 1081.96,199.381 1081.96,95.7006 256.307,95.7006 256.307,199.381 "/>
<polyline clip-path="url(#clip320)" style="stroke:#009af9; stroke-linecap:round; stroke-linejoin:round; stroke-width:4; stroke-opacity:1; fill:none" points="271.864,147.541 365.206,147.541 "/>
<path clip-path="url(#clip320)" d="M401.11 143.872 Q402.707 141.001 404.929 139.636 Q407.151 138.27 410.161 138.27 Q414.212 138.27 416.411 141.117 Q418.61 143.941 418.61 149.173 L418.61 164.821 L414.327 164.821 L414.327 149.311 Q414.327 145.585 413.008 143.779 Q411.688 141.974 408.98 141.974 Q405.67 141.974 403.749 144.173 Q401.827 146.372 401.827 150.168 L401.827 164.821 L397.545 164.821 L397.545 149.311 Q397.545 145.561 396.226 143.779 Q394.906 141.974 392.151 141.974 Q388.888 141.974 386.966 144.196 Q385.045 146.395 385.045 150.168 L385.045 164.821 L380.763 164.821 L380.763 138.895 L385.045 138.895 L385.045 142.923 Q386.503 140.538 388.54 139.404 Q390.577 138.27 393.378 138.27 Q396.202 138.27 398.17 139.705 Q400.161 141.14 401.11 143.872 Z" fill="#000000" fill-rule="nonzero" fill-opacity="1" /><path clip-path="url(#clip320)" d="M449.281 150.793 L449.281 152.876 L429.698 152.876 Q429.975 157.274 432.336 159.589 Q434.721 161.881 438.957 161.881 Q441.41 161.881 443.702 161.279 Q446.017 160.677 448.285 159.473 L448.285 163.501 Q445.994 164.473 443.586 164.983 Q441.179 165.492 438.702 165.492 Q432.498 165.492 428.864 161.881 Q425.253 158.27 425.253 152.112 Q425.253 145.747 428.679 142.02 Q432.128 138.27 437.961 138.27 Q443.193 138.27 446.225 141.649 Q449.281 145.006 449.281 150.793 M445.022 149.543 Q444.975 146.048 443.054 143.964 Q441.156 141.881 438.008 141.881 Q434.443 141.881 432.29 143.895 Q430.161 145.909 429.836 149.566 L445.022 149.543 Z" fill="#000000" fill-rule="nonzero" fill-opacity="1" /><path clip-path="url(#clip320)" d="M468.054 151.788 Q462.892 151.788 460.901 152.969 Q458.91 154.149 458.91 156.997 Q458.91 159.265 460.392 160.608 Q461.896 161.927 464.466 161.927 Q468.008 161.927 470.137 159.427 Q472.29 156.904 472.29 152.737 L472.29 151.788 L468.054 151.788 M476.549 150.029 L476.549 164.821 L472.29 164.821 L472.29 160.885 Q470.832 163.247 468.656 164.381 Q466.48 165.492 463.332 165.492 Q459.35 165.492 456.989 163.27 Q454.651 161.024 454.651 157.274 Q454.651 152.899 457.568 150.677 Q460.508 148.455 466.318 148.455 L472.29 148.455 L472.29 148.038 Q472.29 145.099 470.345 143.501 Q468.424 141.881 464.929 141.881 Q462.707 141.881 460.6 142.413 Q458.494 142.946 456.549 144.011 L456.549 140.075 Q458.887 139.173 461.086 138.733 Q463.285 138.27 465.369 138.27 Q470.994 138.27 473.771 141.186 Q476.549 144.103 476.549 150.029 Z" fill="#000000" fill-rule="nonzero" fill-opacity="1" /><path clip-path="url(#clip320)" d="M501.85 139.659 L501.85 143.686 Q500.044 142.761 498.1 142.298 Q496.156 141.835 494.072 141.835 Q490.901 141.835 489.304 142.807 Q487.73 143.779 487.73 145.723 Q487.73 147.205 488.864 148.061 Q489.998 148.895 493.424 149.659 L494.882 149.983 Q499.419 150.955 501.318 152.737 Q503.239 154.497 503.239 157.668 Q503.239 161.279 500.368 163.385 Q497.521 165.492 492.521 165.492 Q490.438 165.492 488.169 165.075 Q485.924 164.682 483.424 163.872 L483.424 159.473 Q485.785 160.7 488.077 161.325 Q490.369 161.927 492.614 161.927 Q495.623 161.927 497.243 160.909 Q498.864 159.867 498.864 157.992 Q498.864 156.256 497.683 155.33 Q496.526 154.404 492.568 153.548 L491.086 153.2 Q487.128 152.367 485.369 150.654 Q483.609 148.918 483.609 145.909 Q483.609 142.251 486.202 140.261 Q488.794 138.27 493.563 138.27 Q495.924 138.27 498.007 138.617 Q500.091 138.964 501.85 139.659 Z" fill="#000000" fill-rule="nonzero" fill-opacity="1" /><path clip-path="url(#clip320)" d="M509.581 154.589 L509.581 138.895 L513.841 138.895 L513.841 154.427 Q513.841 158.108 515.276 159.96 Q516.711 161.788 519.581 161.788 Q523.03 161.788 525.021 159.589 Q527.035 157.39 527.035 153.594 L527.035 138.895 L531.294 138.895 L531.294 164.821 L527.035 164.821 L527.035 160.839 Q525.484 163.2 523.424 164.358 Q521.387 165.492 518.679 165.492 Q514.211 165.492 511.896 162.714 Q509.581 159.936 509.581 154.589 M520.299 138.27 L520.299 138.27 Z" fill="#000000" fill-rule="nonzero" fill-opacity="1" /><path clip-path="url(#clip320)" d="M555.09 142.876 Q554.373 142.46 553.516 142.274 Q552.683 142.066 551.664 142.066 Q548.053 142.066 546.109 144.427 Q544.188 146.765 544.188 151.163 L544.188 164.821 L539.905 164.821 L539.905 138.895 L544.188 138.895 L544.188 142.923 Q545.53 140.561 547.683 139.427 Q549.836 138.27 552.914 138.27 Q553.354 138.27 553.887 138.339 Q554.419 138.386 555.067 138.501 L555.09 142.876 Z" fill="#000000" fill-rule="nonzero" fill-opacity="1" /><path clip-path="url(#clip320)" d="M580.692 150.793 L580.692 152.876 L561.109 152.876 Q561.387 157.274 563.748 159.589 Q566.132 161.881 570.368 161.881 Q572.822 161.881 575.113 161.279 Q577.428 160.677 579.697 159.473 L579.697 163.501 Q577.405 164.473 574.998 164.983 Q572.59 165.492 570.113 165.492 Q563.91 165.492 560.276 161.881 Q556.664 158.27 556.664 152.112 Q556.664 145.747 560.09 142.02 Q563.539 138.27 569.373 138.27 Q574.604 138.27 577.637 141.649 Q580.692 145.006 580.692 150.793 M576.433 149.543 Q576.387 146.048 574.465 143.964 Q572.567 141.881 569.419 141.881 Q565.854 141.881 563.701 143.895 Q561.572 145.909 561.248 149.566 L576.433 149.543 Z" fill="#000000" fill-rule="nonzero" fill-opacity="1" /><path clip-path="url(#clip320)" d="M607.868 143.872 Q609.465 141.001 611.687 139.636 Q613.91 138.27 616.919 138.27 Q620.97 138.27 623.169 141.117 Q625.368 143.941 625.368 149.173 L625.368 164.821 L621.085 164.821 L621.085 149.311 Q621.085 145.585 619.766 143.779 Q618.447 141.974 615.738 141.974 Q612.428 141.974 610.507 144.173 Q608.585 146.372 608.585 150.168 L608.585 164.821 L604.303 164.821 L604.303 149.311 Q604.303 145.561 602.984 143.779 Q601.664 141.974 598.91 141.974 Q595.646 141.974 593.724 144.196 Q591.803 146.395 591.803 150.168 L591.803 164.821 L587.521 164.821 L587.521 138.895 L591.803 138.895 L591.803 142.923 Q593.261 140.538 595.299 139.404 Q597.336 138.27 600.136 138.27 Q602.961 138.27 604.928 139.705 Q606.919 141.14 607.868 143.872 Z" fill="#000000" fill-rule="nonzero" fill-opacity="1" /><path clip-path="url(#clip320)" d="M656.039 150.793 L656.039 152.876 L636.456 152.876 Q636.733 157.274 639.095 159.589 Q641.479 161.881 645.715 161.881 Q648.169 161.881 650.46 161.279 Q652.775 160.677 655.044 159.473 L655.044 163.501 Q652.752 164.473 650.345 164.983 Q647.937 165.492 645.46 165.492 Q639.257 165.492 635.622 161.881 Q632.011 158.27 632.011 152.112 Q632.011 145.747 635.437 142.02 Q638.886 138.27 644.72 138.27 Q649.951 138.27 652.983 141.649 Q656.039 145.006 656.039 150.793 M651.78 149.543 Q651.733 146.048 649.812 143.964 Q647.914 141.881 644.766 141.881 Q641.201 141.881 639.048 143.895 Q636.919 145.909 636.595 149.566 L651.78 149.543 Z" fill="#000000" fill-rule="nonzero" fill-opacity="1" /><path clip-path="url(#clip320)" d="M684.58 149.173 L684.58 164.821 L680.321 164.821 L680.321 149.311 Q680.321 145.631 678.886 143.802 Q677.451 141.974 674.58 141.974 Q671.131 141.974 669.141 144.173 Q667.15 146.372 667.15 150.168 L667.15 164.821 L662.868 164.821 L662.868 138.895 L667.15 138.895 L667.15 142.923 Q668.678 140.585 670.738 139.427 Q672.821 138.27 675.53 138.27 Q679.997 138.27 682.289 141.048 Q684.58 143.802 684.58 149.173 Z" fill="#000000" fill-rule="nonzero" fill-opacity="1" /><path clip-path="url(#clip320)" d="M697.289 131.534 L697.289 138.895 L706.062 138.895 L706.062 142.205 L697.289 142.205 L697.289 156.279 Q697.289 159.45 698.145 160.353 Q699.025 161.256 701.687 161.256 L706.062 161.256 L706.062 164.821 L701.687 164.821 Q696.756 164.821 694.881 162.992 Q693.006 161.14 693.006 156.279 L693.006 142.205 L689.881 142.205 L689.881 138.895 L693.006 138.895 L693.006 131.534 L697.289 131.534 Z" fill="#000000" fill-rule="nonzero" fill-opacity="1" /><path clip-path="url(#clip320)" d="M728.191 139.659 L728.191 143.686 Q726.386 142.761 724.441 142.298 Q722.497 141.835 720.414 141.835 Q717.242 141.835 715.645 142.807 Q714.071 143.779 714.071 145.723 Q714.071 147.205 715.205 148.061 Q716.34 148.895 719.765 149.659 L721.224 149.983 Q725.761 150.955 727.659 152.737 Q729.58 154.497 729.58 157.668 Q729.58 161.279 726.71 163.385 Q723.863 165.492 718.863 165.492 Q716.779 165.492 714.511 165.075 Q712.265 164.682 709.765 163.872 L709.765 159.473 Q712.127 160.7 714.418 161.325 Q716.71 161.927 718.955 161.927 Q721.964 161.927 723.585 160.909 Q725.205 159.867 725.205 157.992 Q725.205 156.256 724.025 155.33 Q722.867 154.404 718.909 153.548 L717.427 153.2 Q713.469 152.367 711.71 150.654 Q709.951 148.918 709.951 145.909 Q709.951 142.251 712.543 140.261 Q715.136 138.27 719.904 138.27 Q722.265 138.27 724.349 138.617 Q726.432 138.964 728.191 139.659 Z" fill="#000000" fill-rule="nonzero" fill-opacity="1" /><path clip-path="url(#clip320)" d="M761.663 128.849 Q758.562 134.173 757.057 139.381 Q755.552 144.589 755.552 149.936 Q755.552 155.284 757.057 160.538 Q758.585 165.77 761.663 171.071 L757.96 171.071 Q754.487 165.631 752.751 160.376 Q751.038 155.122 751.038 149.936 Q751.038 144.774 752.751 139.543 Q754.464 134.312 757.96 128.849 L761.663 128.849 Z" fill="#000000" fill-rule="nonzero" fill-opacity="1" /><path clip-path="url(#clip320)" d="M792.103 150.793 L792.103 152.876 L772.52 152.876 Q772.798 157.274 775.159 159.589 Q777.543 161.881 781.779 161.881 Q784.233 161.881 786.524 161.279 Q788.839 160.677 791.108 159.473 L791.108 163.501 Q788.816 164.473 786.409 164.983 Q784.001 165.492 781.524 165.492 Q775.321 165.492 771.686 161.881 Q768.075 158.27 768.075 152.112 Q768.075 145.747 771.501 142.02 Q774.95 138.27 780.784 138.27 Q786.015 138.27 789.047 141.649 Q792.103 145.006 792.103 150.793 M787.844 149.543 Q787.797 146.048 785.876 143.964 Q783.978 141.881 780.83 141.881 Q777.265 141.881 775.112 143.895 Q772.983 145.909 772.659 149.566 L787.844 149.543 Z" fill="#000000" fill-rule="nonzero" fill-opacity="1" /><path clip-path="url(#clip320)" d="M819.811 138.895 L810.436 151.511 L820.297 164.821 L815.274 164.821 L807.728 154.635 L800.182 164.821 L795.159 164.821 L805.228 151.256 L796.015 138.895 L801.038 138.895 L807.913 148.131 L814.788 138.895 L819.811 138.895 Z" fill="#000000" fill-rule="nonzero" fill-opacity="1" /><path clip-path="url(#clip320)" d="M830.529 131.534 L830.529 138.895 L839.302 138.895 L839.302 142.205 L830.529 142.205 L830.529 156.279 Q830.529 159.45 831.385 160.353 Q832.265 161.256 834.927 161.256 L839.302 161.256 L839.302 164.821 L834.927 164.821 Q829.996 164.821 828.121 162.992 Q826.246 161.14 826.246 156.279 L826.246 142.205 L823.121 142.205 L823.121 138.895 L826.246 138.895 L826.246 131.534 L830.529 131.534 Z" fill="#000000" fill-rule="nonzero" fill-opacity="1" /><path clip-path="url(#clip320)" d="M859.927 142.876 Q859.209 142.46 858.353 142.274 Q857.519 142.066 856.501 142.066 Q852.89 142.066 850.945 144.427 Q849.024 146.765 849.024 151.163 L849.024 164.821 L844.742 164.821 L844.742 138.895 L849.024 138.895 L849.024 142.923 Q850.367 140.561 852.519 139.427 Q854.672 138.27 857.751 138.27 Q858.191 138.27 858.723 138.339 Q859.255 138.386 859.904 138.501 L859.927 142.876 Z" fill="#000000" fill-rule="nonzero" fill-opacity="1" /><path clip-path="url(#clip320)" d="M876.177 151.788 Q871.015 151.788 869.024 152.969 Q867.033 154.149 867.033 156.997 Q867.033 159.265 868.515 160.608 Q870.019 161.927 872.589 161.927 Q876.13 161.927 878.26 159.427 Q880.413 156.904 880.413 152.737 L880.413 151.788 L876.177 151.788 M884.672 150.029 L884.672 164.821 L880.413 164.821 L880.413 160.885 Q878.954 163.247 876.778 164.381 Q874.603 165.492 871.454 165.492 Q867.473 165.492 865.112 163.27 Q862.774 161.024 862.774 157.274 Q862.774 152.899 865.691 150.677 Q868.63 148.455 874.441 148.455 L880.413 148.455 L880.413 148.038 Q880.413 145.099 878.468 143.501 Q876.547 141.881 873.052 141.881 Q870.829 141.881 868.723 142.413 Q866.616 142.946 864.672 144.011 L864.672 140.075 Q867.01 139.173 869.209 138.733 Q871.408 138.27 873.491 138.27 Q879.116 138.27 881.894 141.186 Q884.672 144.103 884.672 150.029 Z" fill="#000000" fill-rule="nonzero" fill-opacity="1" /><path clip-path="url(#clip320)" d="M912.102 139.89 L912.102 143.872 Q910.297 142.876 908.468 142.39 Q906.663 141.881 904.811 141.881 Q900.667 141.881 898.376 144.52 Q896.084 147.136 896.084 151.881 Q896.084 156.626 898.376 159.265 Q900.667 161.881 904.811 161.881 Q906.663 161.881 908.468 161.395 Q910.297 160.885 912.102 159.89 L912.102 163.825 Q910.32 164.659 908.399 165.075 Q906.501 165.492 904.348 165.492 Q898.491 165.492 895.042 161.811 Q891.593 158.131 891.593 151.881 Q891.593 145.538 895.065 141.904 Q898.561 138.27 904.626 138.27 Q906.593 138.27 908.468 138.687 Q910.343 139.08 912.102 139.89 Z" fill="#000000" fill-rule="nonzero" fill-opacity="1" /><path clip-path="url(#clip320)" d="M923.723 131.534 L923.723 138.895 L932.496 138.895 L932.496 142.205 L923.723 142.205 L923.723 156.279 Q923.723 159.45 924.579 160.353 Q925.459 161.256 928.121 161.256 L932.496 161.256 L932.496 164.821 L928.121 164.821 Q923.19 164.821 921.315 162.992 Q919.44 161.14 919.44 156.279 L919.44 142.205 L916.315 142.205 L916.315 138.895 L919.44 138.895 L919.44 131.534 L923.723 131.534 Z" fill="#000000" fill-rule="nonzero" fill-opacity="1" /><path clip-path="url(#clip320)" d="M938.098 138.895 L942.357 138.895 L942.357 164.821 L938.098 164.821 L938.098 138.895 M938.098 128.802 L942.357 128.802 L942.357 134.196 L938.098 134.196 L938.098 128.802 Z" fill="#000000" fill-rule="nonzero" fill-opacity="1" /><path clip-path="url(#clip320)" d="M961.315 141.881 Q957.889 141.881 955.898 144.566 Q953.908 147.228 953.908 151.881 Q953.908 156.534 955.875 159.219 Q957.866 161.881 961.315 161.881 Q964.718 161.881 966.709 159.196 Q968.699 156.51 968.699 151.881 Q968.699 147.274 966.709 144.589 Q964.718 141.881 961.315 141.881 M961.315 138.27 Q966.871 138.27 970.042 141.881 Q973.213 145.492 973.213 151.881 Q973.213 158.247 970.042 161.881 Q966.871 165.492 961.315 165.492 Q955.736 165.492 952.565 161.881 Q949.417 158.247 949.417 151.881 Q949.417 145.492 952.565 141.881 Q955.736 138.27 961.315 138.27 Z" fill="#000000" fill-rule="nonzero" fill-opacity="1" /><path clip-path="url(#clip320)" d="M1001.82 149.173 L1001.82 164.821 L997.565 164.821 L997.565 149.311 Q997.565 145.631 996.13 143.802 Q994.695 141.974 991.824 141.974 Q988.375 141.974 986.384 144.173 Q984.394 146.372 984.394 150.168 L984.394 164.821 L980.111 164.821 L980.111 138.895 L984.394 138.895 L984.394 142.923 Q985.921 140.585 987.982 139.427 Q990.065 138.27 992.773 138.27 Q997.241 138.27 999.532 141.048 Q1001.82 143.802 1001.82 149.173 Z" fill="#000000" fill-rule="nonzero" fill-opacity="1" /><path clip-path="url(#clip320)" d="M1011.41 158.941 L1016.29 158.941 L1016.29 164.821 L1011.41 164.821 L1011.41 158.941 M1011.41 140.307 L1016.29 140.307 L1016.29 146.186 L1011.41 146.186 L1011.41 140.307 Z" fill="#000000" fill-rule="nonzero" fill-opacity="1" /><path clip-path="url(#clip320)" d="M1026.94 130.261 L1045.3 130.261 L1045.3 134.196 L1031.22 134.196 L1031.22 142.668 Q1032.24 142.321 1033.26 142.159 Q1034.28 141.974 1035.3 141.974 Q1041.08 141.974 1044.46 145.145 Q1047.84 148.316 1047.84 153.733 Q1047.84 159.311 1044.37 162.413 Q1040.9 165.492 1034.58 165.492 Q1032.4 165.492 1030.13 165.122 Q1027.89 164.751 1025.48 164.01 L1025.48 159.311 Q1027.56 160.446 1029.79 161.001 Q1032.01 161.557 1034.49 161.557 Q1038.49 161.557 1040.83 159.45 Q1043.17 157.344 1043.17 153.733 Q1043.17 150.122 1040.83 148.015 Q1038.49 145.909 1034.49 145.909 Q1032.61 145.909 1030.74 146.325 Q1028.88 146.742 1026.94 147.622 L1026.94 130.261 Z" fill="#000000" fill-rule="nonzero" fill-opacity="1" /><path clip-path="url(#clip320)" d="M1055.78 128.849 L1059.49 128.849 Q1062.96 134.312 1064.67 139.543 Q1066.41 144.774 1066.41 149.936 Q1066.41 155.122 1064.67 160.376 Q1062.96 165.631 1059.49 171.071 L1055.78 171.071 Q1058.86 165.77 1060.37 160.538 Q1061.89 155.284 1061.89 149.936 Q1061.89 144.589 1060.37 139.381 Q1058.86 134.173 1055.78 128.849 Z" fill="#000000" fill-rule="nonzero" fill-opacity="1" /></svg>
