<?xml version="1.0" encoding="utf-8"?>
<svg xmlns="http://www.w3.org/2000/svg" xmlns:xlink="http://www.w3.org/1999/xlink" width="430" height="430" viewBox="0 0 1720 1720">
<defs>
  <clipPath id="clip070">
    <rect x="0" y="0" width="1720" height="1720"/>
  </clipPath>
</defs>
<path clip-path="url(#clip070)" d="M0 1720 L1720 1720 L1720 0 L0 0  Z" fill="#ffffff" fill-rule="evenodd" fill-opacity="1"/>
<defs>
  <clipPath id="clip071">
    <rect x="344" y="172" width="1205" height="1205"/>
  </clipPath>
</defs>
<path clip-path="url(#clip070)" d="M209.636 1500.94 L1672.76 1500.94 L1672.76 47.2441 L209.636 47.2441  Z" fill="#ffffff" fill-rule="evenodd" fill-opacity="1"/>
<defs>
  <clipPath id="clip072">
    <rect x="209" y="47" width="1464" height="1455"/>
  </clipPath>
</defs>
<polyline clip-path="url(#clip072)" style="stroke:#000000; stroke-linecap:round; stroke-linejoin:round; stroke-width:2; stroke-opacity:0.1; fill:none" points="251.045,1500.94 251.045,47.2441 "/>
<polyline clip-path="url(#clip072)" style="stroke:#000000; stroke-linecap:round; stroke-linejoin:round; stroke-width:2; stroke-opacity:0.1; fill:none" points="470.727,1500.94 470.727,47.2441 "/>
<polyline clip-path="url(#clip072)" style="stroke:#000000; stroke-linecap:round; stroke-linejoin:round; stroke-width:2; stroke-opacity:0.1; fill:none" points="690.409,1500.94 690.409,47.2441 "/>
<polyline clip-path="url(#clip072)" style="stroke:#000000; stroke-linecap:round; stroke-linejoin:round; stroke-width:2; stroke-opacity:0.1; fill:none" points="910.091,1500.94 910.091,47.2441 "/>
<polyline clip-path="url(#clip072)" style="stroke:#000000; stroke-linecap:round; stroke-linejoin:round; stroke-width:2; stroke-opacity:0.1; fill:none" points="1129.77,1500.94 1129.77,47.2441 "/>
<polyline clip-path="url(#clip072)" style="stroke:#000000; stroke-linecap:round; stroke-linejoin:round; stroke-width:2; stroke-opacity:0.1; fill:none" points="1349.45,1500.94 1349.45,47.2441 "/>
<polyline clip-path="url(#clip072)" style="stroke:#000000; stroke-linecap:round; stroke-linejoin:round; stroke-width:2; stroke-opacity:0.1; fill:none" points="1569.14,1500.94 1569.14,47.2441 "/>
<polyline clip-path="url(#clip070)" style="stroke:#000000; stroke-linecap:round; stroke-linejoin:round; stroke-width:4; stroke-opacity:1; fill:none" points="209.636,1500.94 1672.76,1500.94 "/>
<polyline clip-path="url(#clip070)" style="stroke:#000000; stroke-linecap:round; stroke-linejoin:round; stroke-width:4; stroke-opacity:1; fill:none" points="251.045,1500.94 251.045,1482.04 "/>
<polyline clip-path="url(#clip070)" style="stroke:#000000; stroke-linecap:round; stroke-linejoin:round; stroke-width:4; stroke-opacity:1; fill:none" points="470.727,1500.94 470.727,1482.04 "/>
<polyline clip-path="url(#clip070)" style="stroke:#000000; stroke-linecap:round; stroke-linejoin:round; stroke-width:4; stroke-opacity:1; fill:none" points="690.409,1500.94 690.409,1482.04 "/>
<polyline clip-path="url(#clip070)" style="stroke:#000000; stroke-linecap:round; stroke-linejoin:round; stroke-width:4; stroke-opacity:1; fill:none" points="910.091,1500.94 910.091,1482.04 "/>
<polyline clip-path="url(#clip070)" style="stroke:#000000; stroke-linecap:round; stroke-linejoin:round; stroke-width:4; stroke-opacity:1; fill:none" points="1129.77,1500.94 1129.77,1482.04 "/>
<polyline clip-path="url(#clip070)" style="stroke:#000000; stroke-linecap:round; stroke-linejoin:round; stroke-width:4; stroke-opacity:1; fill:none" points="1349.45,1500.94 1349.45,1482.04 "/>
<polyline clip-path="url(#clip070)" style="stroke:#000000; stroke-linecap:round; stroke-linejoin:round; stroke-width:4; stroke-opacity:1; fill:none" points="1569.14,1500.94 1569.14,1482.04 "/>
<path clip-path="url(#clip070)" d="M251.045 1526.42 Q247.434 1526.42 245.605 1529.98 Q243.8 1533.52 243.8 1540.65 Q243.8 1547.76 245.605 1551.33 Q247.434 1554.87 251.045 1554.87 Q254.679 1554.87 256.485 1551.33 Q258.313 1547.76 258.313 1540.65 Q258.313 1533.52 256.485 1529.98 Q254.679 1526.42 251.045 1526.42 M251.045 1522.71 Q256.855 1522.71 259.911 1527.32 Q262.989 1531.9 262.989 1540.65 Q262.989 1549.38 259.911 1553.99 Q256.855 1558.57 251.045 1558.57 Q245.235 1558.57 242.156 1553.99 Q239.101 1549.38 239.101 1540.65 Q239.101 1531.9 242.156 1527.32 Q245.235 1522.71 251.045 1522.71 Z" fill="#000000" fill-rule="nonzero" fill-opacity="1" /><path clip-path="url(#clip070)" d="M461.109 1553.96 L468.748 1553.96 L468.748 1527.6 L460.438 1529.27 L460.438 1525.01 L468.701 1523.34 L473.377 1523.34 L473.377 1553.96 L481.016 1553.96 L481.016 1557.9 L461.109 1557.9 L461.109 1553.96 Z" fill="#000000" fill-rule="nonzero" fill-opacity="1" /><path clip-path="url(#clip070)" d="M685.061 1553.96 L701.381 1553.96 L701.381 1557.9 L679.437 1557.9 L679.437 1553.96 Q682.099 1551.21 686.682 1546.58 Q691.288 1541.93 692.469 1540.59 Q694.714 1538.06 695.594 1536.33 Q696.497 1534.57 696.497 1532.88 Q696.497 1530.12 694.552 1528.39 Q692.631 1526.65 689.529 1526.65 Q687.33 1526.65 684.876 1527.41 Q682.446 1528.18 679.668 1529.73 L679.668 1525.01 Q682.492 1523.87 684.946 1523.29 Q687.399 1522.71 689.436 1522.71 Q694.807 1522.71 698.001 1525.4 Q701.196 1528.09 701.196 1532.58 Q701.196 1534.71 700.385 1536.63 Q699.598 1538.52 697.492 1541.12 Q696.913 1541.79 693.811 1545.01 Q690.71 1548.2 685.061 1553.96 Z" fill="#000000" fill-rule="nonzero" fill-opacity="1" /><path clip-path="url(#clip070)" d="M914.338 1539.27 Q917.695 1539.98 919.57 1542.25 Q921.468 1544.52 921.468 1547.85 Q921.468 1552.97 917.949 1555.77 Q914.431 1558.57 907.949 1558.57 Q905.773 1558.57 903.459 1558.13 Q901.167 1557.71 898.713 1556.86 L898.713 1552.34 Q900.658 1553.48 902.973 1554.06 Q905.287 1554.64 907.81 1554.64 Q912.209 1554.64 914.5 1552.9 Q916.815 1551.16 916.815 1547.85 Q916.815 1544.8 914.662 1543.09 Q912.533 1541.35 908.713 1541.35 L904.685 1541.35 L904.685 1537.51 L908.898 1537.51 Q912.347 1537.51 914.176 1536.14 Q916.005 1534.75 916.005 1532.16 Q916.005 1529.5 914.107 1528.09 Q912.232 1526.65 908.713 1526.65 Q906.792 1526.65 904.593 1527.07 Q902.394 1527.48 899.755 1528.36 L899.755 1524.2 Q902.417 1523.46 904.732 1523.09 Q907.07 1522.71 909.13 1522.71 Q914.454 1522.71 917.556 1525.15 Q920.658 1527.55 920.658 1531.67 Q920.658 1534.54 919.014 1536.53 Q917.371 1538.5 914.338 1539.27 Z" fill="#000000" fill-rule="nonzero" fill-opacity="1" /><path clip-path="url(#clip070)" d="M1132.78 1527.41 L1120.98 1545.86 L1132.78 1545.86 L1132.78 1527.41 M1131.55 1523.34 L1137.43 1523.34 L1137.43 1545.86 L1142.36 1545.86 L1142.36 1549.75 L1137.43 1549.75 L1137.43 1557.9 L1132.78 1557.9 L1132.78 1549.75 L1117.18 1549.75 L1117.18 1545.24 L1131.55 1523.34 Z" fill="#000000" fill-rule="nonzero" fill-opacity="1" /><path clip-path="url(#clip070)" d="M1339.73 1523.34 L1358.09 1523.34 L1358.09 1527.28 L1344.01 1527.28 L1344.01 1535.75 Q1345.03 1535.4 1346.05 1535.24 Q1347.07 1535.05 1348.09 1535.05 Q1353.88 1535.05 1357.26 1538.22 Q1360.63 1541.4 1360.63 1546.81 Q1360.63 1552.39 1357.16 1555.49 Q1353.69 1558.57 1347.37 1558.57 Q1345.2 1558.57 1342.93 1558.2 Q1340.68 1557.83 1338.27 1557.09 L1338.27 1552.39 Q1340.36 1553.52 1342.58 1554.08 Q1344.8 1554.64 1347.28 1554.64 Q1351.28 1554.64 1353.62 1552.53 Q1355.96 1550.42 1355.96 1546.81 Q1355.96 1543.2 1353.62 1541.09 Q1351.28 1538.99 1347.28 1538.99 Q1345.4 1538.99 1343.53 1539.4 Q1341.68 1539.82 1339.73 1540.7 L1339.73 1523.34 Z" fill="#000000" fill-rule="nonzero" fill-opacity="1" /><path clip-path="url(#clip070)" d="M1569.54 1538.76 Q1566.39 1538.76 1564.54 1540.91 Q1562.71 1543.06 1562.71 1546.81 Q1562.71 1550.54 1564.54 1552.71 Q1566.39 1554.87 1569.54 1554.87 Q1572.69 1554.87 1574.52 1552.71 Q1576.37 1550.54 1576.37 1546.81 Q1576.37 1543.06 1574.52 1540.91 Q1572.69 1538.76 1569.54 1538.76 M1578.82 1524.1 L1578.82 1528.36 Q1577.06 1527.53 1575.26 1527.09 Q1573.48 1526.65 1571.72 1526.65 Q1567.09 1526.65 1564.63 1529.77 Q1562.2 1532.9 1561.86 1539.22 Q1563.22 1537.21 1565.28 1536.14 Q1567.34 1535.05 1569.82 1535.05 Q1575.03 1535.05 1578.04 1538.22 Q1581.07 1541.37 1581.07 1546.81 Q1581.07 1552.14 1577.92 1555.35 Q1574.77 1558.57 1569.54 1558.57 Q1563.55 1558.57 1560.37 1553.99 Q1557.2 1549.38 1557.2 1540.65 Q1557.2 1532.46 1561.09 1527.6 Q1564.98 1522.71 1571.53 1522.71 Q1573.29 1522.71 1575.07 1523.06 Q1576.88 1523.41 1578.82 1524.1 Z" fill="#000000" fill-rule="nonzero" fill-opacity="1" /><path clip-path="url(#clip070)" d="M951.317 1613.01 L931.043 1613.01 Q931.52 1622.52 933.716 1626.56 Q936.453 1631.53 941.196 1631.53 Q945.97 1631.53 948.612 1626.53 Q950.935 1622.14 951.317 1613.01 M951.222 1607.59 Q950.331 1598.56 948.612 1595.37 Q945.875 1590.34 941.196 1590.34 Q936.326 1590.34 933.748 1595.31 Q931.711 1599.32 931.106 1607.59 L951.222 1607.59 M941.196 1585.57 Q948.835 1585.57 953.195 1592.32 Q957.556 1599.03 957.556 1610.94 Q957.556 1622.81 953.195 1629.56 Q948.835 1636.34 941.196 1636.34 Q933.525 1636.34 929.197 1629.56 Q924.836 1622.81 924.836 1610.94 Q924.836 1599.03 929.197 1592.32 Q933.525 1585.57 941.196 1585.57 Z" fill="#000000" fill-rule="nonzero" fill-opacity="1" /><polyline clip-path="url(#clip072)" style="stroke:#000000; stroke-linecap:round; stroke-linejoin:round; stroke-width:2; stroke-opacity:0.1; fill:none" points="209.636,1188.29 1672.76,1188.29 "/>
<polyline clip-path="url(#clip072)" style="stroke:#000000; stroke-linecap:round; stroke-linejoin:round; stroke-width:2; stroke-opacity:0.1; fill:none" points="209.636,834.656 1672.76,834.656 "/>
<polyline clip-path="url(#clip072)" style="stroke:#000000; stroke-linecap:round; stroke-linejoin:round; stroke-width:2; stroke-opacity:0.1; fill:none" points="209.636,481.024 1672.76,481.024 "/>
<polyline clip-path="url(#clip072)" style="stroke:#000000; stroke-linecap:round; stroke-linejoin:round; stroke-width:2; stroke-opacity:0.1; fill:none" points="209.636,127.391 1672.76,127.391 "/>
<polyline clip-path="url(#clip070)" style="stroke:#000000; stroke-linecap:round; stroke-linejoin:round; stroke-width:4; stroke-opacity:1; fill:none" points="209.636,1500.94 209.636,47.2441 "/>
<polyline clip-path="url(#clip070)" style="stroke:#000000; stroke-linecap:round; stroke-linejoin:round; stroke-width:4; stroke-opacity:1; fill:none" points="209.636,1188.29 228.534,1188.29 "/>
<polyline clip-path="url(#clip070)" style="stroke:#000000; stroke-linecap:round; stroke-linejoin:round; stroke-width:4; stroke-opacity:1; fill:none" points="209.636,834.656 228.534,834.656 "/>
<polyline clip-path="url(#clip070)" style="stroke:#000000; stroke-linecap:round; stroke-linejoin:round; stroke-width:4; stroke-opacity:1; fill:none" points="209.636,481.024 228.534,481.024 "/>
<polyline clip-path="url(#clip070)" style="stroke:#000000; stroke-linecap:round; stroke-linejoin:round; stroke-width:4; stroke-opacity:1; fill:none" points="209.636,127.391 228.534,127.391 "/>
<path clip-path="url(#clip070)" d="M67.3319 1174.09 Q63.7208 1174.09 61.8921 1177.65 Q60.0865 1181.19 60.0865 1188.32 Q60.0865 1195.43 61.8921 1198.99 Q63.7208 1202.54 67.3319 1202.54 Q70.9661 1202.54 72.7717 1198.99 Q74.6004 1195.43 74.6004 1188.32 Q74.6004 1181.19 72.7717 1177.65 Q70.9661 1174.09 67.3319 1174.09 M67.3319 1170.38 Q73.142 1170.38 76.1976 1174.99 Q79.2763 1179.57 79.2763 1188.32 Q79.2763 1197.05 76.1976 1201.66 Q73.142 1206.24 67.3319 1206.24 Q61.5217 1206.24 58.443 1201.66 Q55.3875 1197.05 55.3875 1188.32 Q55.3875 1179.57 58.443 1174.99 Q61.5217 1170.38 67.3319 1170.38 Z" fill="#000000" fill-rule="nonzero" fill-opacity="1" /><path clip-path="url(#clip070)" d="M87.4938 1199.69 L92.378 1199.69 L92.378 1205.57 L87.4938 1205.57 L87.4938 1199.69 Z" fill="#000000" fill-rule="nonzero" fill-opacity="1" /><path clip-path="url(#clip070)" d="M112.563 1174.09 Q108.952 1174.09 107.123 1177.65 Q105.318 1181.19 105.318 1188.32 Q105.318 1195.43 107.123 1198.99 Q108.952 1202.54 112.563 1202.54 Q116.197 1202.54 118.003 1198.99 Q119.832 1195.43 119.832 1188.32 Q119.832 1181.19 118.003 1177.65 Q116.197 1174.09 112.563 1174.09 M112.563 1170.38 Q118.373 1170.38 121.429 1174.99 Q124.507 1179.57 124.507 1188.32 Q124.507 1197.05 121.429 1201.66 Q118.373 1206.24 112.563 1206.24 Q106.753 1206.24 103.674 1201.66 Q100.619 1197.05 100.619 1188.32 Q100.619 1179.57 103.674 1174.99 Q106.753 1170.38 112.563 1170.38 Z" fill="#000000" fill-rule="nonzero" fill-opacity="1" /><path clip-path="url(#clip070)" d="M142.725 1174.09 Q139.114 1174.09 137.285 1177.65 Q135.48 1181.19 135.48 1188.32 Q135.48 1195.43 137.285 1198.99 Q139.114 1202.54 142.725 1202.54 Q146.359 1202.54 148.165 1198.99 Q149.993 1195.43 149.993 1188.32 Q149.993 1181.19 148.165 1177.65 Q146.359 1174.09 142.725 1174.09 M142.725 1170.38 Q148.535 1170.38 151.591 1174.99 Q154.669 1179.57 154.669 1188.32 Q154.669 1197.05 151.591 1201.66 Q148.535 1206.24 142.725 1206.24 Q136.915 1206.24 133.836 1201.66 Q130.781 1197.05 130.781 1188.32 Q130.781 1179.57 133.836 1174.99 Q136.915 1170.38 142.725 1170.38 Z" fill="#000000" fill-rule="nonzero" fill-opacity="1" /><path clip-path="url(#clip070)" d="M162.933 1171.01 L181.29 1171.01 L181.29 1174.94 L167.216 1174.94 L167.216 1183.41 Q168.234 1183.07 169.253 1182.91 Q170.271 1182.72 171.29 1182.72 Q177.077 1182.72 180.456 1185.89 Q183.836 1189.06 183.836 1194.48 Q183.836 1200.06 180.364 1203.16 Q176.891 1206.24 170.572 1206.24 Q168.396 1206.24 166.128 1205.87 Q163.882 1205.5 161.475 1204.76 L161.475 1200.06 Q163.558 1201.19 165.78 1201.75 Q168.003 1202.3 170.479 1202.3 Q174.484 1202.3 176.822 1200.2 Q179.16 1198.09 179.16 1194.48 Q179.16 1190.87 176.822 1188.76 Q174.484 1186.66 170.479 1186.66 Q168.604 1186.66 166.729 1187.07 Q164.878 1187.49 162.933 1188.37 L162.933 1171.01 Z" fill="#000000" fill-rule="nonzero" fill-opacity="1" /><path clip-path="url(#clip070)" d="M66.3365 820.454 Q62.7254 820.454 60.8967 824.019 Q59.0912 827.561 59.0912 834.69 Q59.0912 841.797 60.8967 845.362 Q62.7254 848.903 66.3365 848.903 Q69.9707 848.903 71.7763 845.362 Q73.605 841.797 73.605 834.69 Q73.605 827.561 71.7763 824.019 Q69.9707 820.454 66.3365 820.454 M66.3365 816.751 Q72.1467 816.751 75.2022 821.357 Q78.2809 825.94 78.2809 834.69 Q78.2809 843.417 75.2022 848.024 Q72.1467 852.607 66.3365 852.607 Q60.5264 852.607 57.4477 848.024 Q54.3921 843.417 54.3921 834.69 Q54.3921 825.94 57.4477 821.357 Q60.5264 816.751 66.3365 816.751 Z" fill="#000000" fill-rule="nonzero" fill-opacity="1" /><path clip-path="url(#clip070)" d="M86.4984 846.056 L91.3827 846.056 L91.3827 851.936 L86.4984 851.936 L86.4984 846.056 Z" fill="#000000" fill-rule="nonzero" fill-opacity="1" /><path clip-path="url(#clip070)" d="M111.568 820.454 Q107.957 820.454 106.128 824.019 Q104.322 827.561 104.322 834.69 Q104.322 841.797 106.128 845.362 Q107.957 848.903 111.568 848.903 Q115.202 848.903 117.008 845.362 Q118.836 841.797 118.836 834.69 Q118.836 827.561 117.008 824.019 Q115.202 820.454 111.568 820.454 M111.568 816.751 Q117.378 816.751 120.433 821.357 Q123.512 825.94 123.512 834.69 Q123.512 843.417 120.433 848.024 Q117.378 852.607 111.568 852.607 Q105.758 852.607 102.679 848.024 Q99.6234 843.417 99.6234 834.69 Q99.6234 825.94 102.679 821.357 Q105.758 816.751 111.568 816.751 Z" fill="#000000" fill-rule="nonzero" fill-opacity="1" /><path clip-path="url(#clip070)" d="M132.54 848 L140.179 848 L140.179 821.635 L131.869 823.301 L131.869 819.042 L140.132 817.376 L144.808 817.376 L144.808 848 L152.447 848 L152.447 851.936 L132.54 851.936 L132.54 848 Z" fill="#000000" fill-rule="nonzero" fill-opacity="1" /><path clip-path="url(#clip070)" d="M171.891 820.454 Q168.28 820.454 166.452 824.019 Q164.646 827.561 164.646 834.69 Q164.646 841.797 166.452 845.362 Q168.28 848.903 171.891 848.903 Q175.526 848.903 177.331 845.362 Q179.16 841.797 179.16 834.69 Q179.16 827.561 177.331 824.019 Q175.526 820.454 171.891 820.454 M171.891 816.751 Q177.702 816.751 180.757 821.357 Q183.836 825.94 183.836 834.69 Q183.836 843.417 180.757 848.024 Q177.702 852.607 171.891 852.607 Q166.081 852.607 163.003 848.024 Q159.947 843.417 159.947 834.69 Q159.947 825.94 163.003 821.357 Q166.081 816.751 171.891 816.751 Z" fill="#000000" fill-rule="nonzero" fill-opacity="1" /><path clip-path="url(#clip070)" d="M67.3319 466.822 Q63.7208 466.822 61.8921 470.387 Q60.0865 473.929 60.0865 481.058 Q60.0865 488.165 61.8921 491.729 Q63.7208 495.271 67.3319 495.271 Q70.9661 495.271 72.7717 491.729 Q74.6004 488.165 74.6004 481.058 Q74.6004 473.929 72.7717 470.387 Q70.9661 466.822 67.3319 466.822 M67.3319 463.119 Q73.142 463.119 76.1976 467.725 Q79.2763 472.308 79.2763 481.058 Q79.2763 489.785 76.1976 494.392 Q73.142 498.975 67.3319 498.975 Q61.5217 498.975 58.443 494.392 Q55.3875 489.785 55.3875 481.058 Q55.3875 472.308 58.443 467.725 Q61.5217 463.119 67.3319 463.119 Z" fill="#000000" fill-rule="nonzero" fill-opacity="1" /><path clip-path="url(#clip070)" d="M87.4938 492.424 L92.378 492.424 L92.378 498.304 L87.4938 498.304 L87.4938 492.424 Z" fill="#000000" fill-rule="nonzero" fill-opacity="1" /><path clip-path="url(#clip070)" d="M112.563 466.822 Q108.952 466.822 107.123 470.387 Q105.318 473.929 105.318 481.058 Q105.318 488.165 107.123 491.729 Q108.952 495.271 112.563 495.271 Q116.197 495.271 118.003 491.729 Q119.832 488.165 119.832 481.058 Q119.832 473.929 118.003 470.387 Q116.197 466.822 112.563 466.822 M112.563 463.119 Q118.373 463.119 121.429 467.725 Q124.507 472.308 124.507 481.058 Q124.507 489.785 121.429 494.392 Q118.373 498.975 112.563 498.975 Q106.753 498.975 103.674 494.392 Q100.619 489.785 100.619 481.058 Q100.619 472.308 103.674 467.725 Q106.753 463.119 112.563 463.119 Z" fill="#000000" fill-rule="nonzero" fill-opacity="1" /><path clip-path="url(#clip070)" d="M133.535 494.368 L141.174 494.368 L141.174 468.003 L132.864 469.669 L132.864 465.41 L141.128 463.744 L145.804 463.744 L145.804 494.368 L153.443 494.368 L153.443 498.304 L133.535 498.304 L133.535 494.368 Z" fill="#000000" fill-rule="nonzero" fill-opacity="1" /><path clip-path="url(#clip070)" d="M162.933 463.744 L181.29 463.744 L181.29 467.679 L167.216 467.679 L167.216 476.151 Q168.234 475.804 169.253 475.642 Q170.271 475.456 171.29 475.456 Q177.077 475.456 180.456 478.628 Q183.836 481.799 183.836 487.216 Q183.836 492.794 180.364 495.896 Q176.891 498.975 170.572 498.975 Q168.396 498.975 166.128 498.604 Q163.882 498.234 161.475 497.493 L161.475 492.794 Q163.558 493.929 165.78 494.484 Q168.003 495.04 170.479 495.04 Q174.484 495.04 176.822 492.933 Q179.16 490.827 179.16 487.216 Q179.16 483.605 176.822 481.498 Q174.484 479.392 170.479 479.392 Q168.604 479.392 166.729 479.808 Q164.878 480.225 162.933 481.105 L162.933 463.744 Z" fill="#000000" fill-rule="nonzero" fill-opacity="1" /><path clip-path="url(#clip070)" d="M66.3365 113.19 Q62.7254 113.19 60.8967 116.755 Q59.0912 120.297 59.0912 127.426 Q59.0912 134.533 60.8967 138.097 Q62.7254 141.639 66.3365 141.639 Q69.9707 141.639 71.7763 138.097 Q73.605 134.533 73.605 127.426 Q73.605 120.297 71.7763 116.755 Q69.9707 113.19 66.3365 113.19 M66.3365 109.486 Q72.1467 109.486 75.2022 114.093 Q78.2809 118.676 78.2809 127.426 Q78.2809 136.153 75.2022 140.759 Q72.1467 145.343 66.3365 145.343 Q60.5264 145.343 57.4477 140.759 Q54.3921 136.153 54.3921 127.426 Q54.3921 118.676 57.4477 114.093 Q60.5264 109.486 66.3365 109.486 Z" fill="#000000" fill-rule="nonzero" fill-opacity="1" /><path clip-path="url(#clip070)" d="M86.4984 138.792 L91.3827 138.792 L91.3827 144.671 L86.4984 144.671 L86.4984 138.792 Z" fill="#000000" fill-rule="nonzero" fill-opacity="1" /><path clip-path="url(#clip070)" d="M111.568 113.19 Q107.957 113.19 106.128 116.755 Q104.322 120.297 104.322 127.426 Q104.322 134.533 106.128 138.097 Q107.957 141.639 111.568 141.639 Q115.202 141.639 117.008 138.097 Q118.836 134.533 118.836 127.426 Q118.836 120.297 117.008 116.755 Q115.202 113.19 111.568 113.19 M111.568 109.486 Q117.378 109.486 120.433 114.093 Q123.512 118.676 123.512 127.426 Q123.512 136.153 120.433 140.759 Q117.378 145.343 111.568 145.343 Q105.758 145.343 102.679 140.759 Q99.6234 136.153 99.6234 127.426 Q99.6234 118.676 102.679 114.093 Q105.758 109.486 111.568 109.486 Z" fill="#000000" fill-rule="nonzero" fill-opacity="1" /><path clip-path="url(#clip070)" d="M135.757 140.736 L152.077 140.736 L152.077 144.671 L130.132 144.671 L130.132 140.736 Q132.794 137.982 137.378 133.352 Q141.984 128.699 143.165 127.357 Q145.41 124.834 146.29 123.098 Q147.193 121.338 147.193 119.648 Q147.193 116.894 145.248 115.158 Q143.327 113.422 140.225 113.422 Q138.026 113.422 135.572 114.186 Q133.142 114.949 130.364 116.5 L130.364 111.778 Q133.188 110.644 135.642 110.065 Q138.095 109.486 140.132 109.486 Q145.503 109.486 148.697 112.172 Q151.892 114.857 151.892 119.348 Q151.892 121.477 151.081 123.398 Q150.294 125.297 148.188 127.889 Q147.609 128.56 144.507 131.778 Q141.406 134.972 135.757 140.736 Z" fill="#000000" fill-rule="nonzero" fill-opacity="1" /><path clip-path="url(#clip070)" d="M171.891 113.19 Q168.28 113.19 166.452 116.755 Q164.646 120.297 164.646 127.426 Q164.646 134.533 166.452 138.097 Q168.28 141.639 171.891 141.639 Q175.526 141.639 177.331 138.097 Q179.16 134.533 179.16 127.426 Q179.16 120.297 177.331 116.755 Q175.526 113.19 171.891 113.19 M171.891 109.486 Q177.702 109.486 180.757 114.093 Q183.836 118.676 183.836 127.426 Q183.836 136.153 180.757 140.759 Q177.702 145.343 171.891 145.343 Q166.081 145.343 163.003 140.759 Q159.947 136.153 159.947 127.426 Q159.947 118.676 163.003 114.093 Q166.081 109.486 171.891 109.486 Z" fill="#000000" fill-rule="nonzero" fill-opacity="1" /><polyline clip-path="url(#clip072)" style="stroke:#009af9; stroke-linecap:round; stroke-linejoin:round; stroke-width:4; stroke-opacity:1; fill:none" points="251.045,1287.32 252.772,1292.17 254.5,1297 256.228,1301.81 257.955,1306.57 259.683,1311.3 261.41,1315.99 263.138,1320.63 264.865,1325.22 266.593,1329.75 268.32,1334.23 270.048,1338.64 271.775,1342.98 273.503,1347.26 275.23,1351.46 276.958,1355.58 278.686,1359.62 280.413,1363.59 282.141,1367.46 283.868,1371.25 285.596,1374.95 287.323,1378.56 289.051,1382.08 290.778,1385.5 292.506,1388.83 294.233,1392.06 295.961,1395.19 297.688,1398.23 299.416,1401.17 301.144,1404.01 302.871,1406.76 304.599,1409.41 306.326,1411.97 308.054,1414.43 309.781,1416.8 311.509,1419.07 313.236,1421.25 314.964,1423.35 316.691,1425.35 318.419,1427.27 320.146,1429.11 321.874,1430.86 323.601,1432.53 325.329,1434.12 327.057,1435.64 328.784,1437.09 330.512,1438.46 332.239,1439.76 333.967,1441 335.694,1442.17 337.422,1443.29 339.149,1444.34 340.877,1445.33 342.604,1446.27 344.332,1447.16 346.059,1447.99 347.787,1448.78 349.515,1449.53 351.242,1450.23 352.97,1450.89 354.697,1451.5 356.425,1452.09 358.152,1452.63 359.88,1453.14 361.607,1453.63 363.335,1454.08 365.062,1454.5 366.79,1454.89 368.517,1455.26 370.245,1455.61 371.973,1455.94 373.7,1456.24 375.428,1456.52 377.155,1456.79 378.883,1457.03 380.61,1457.27 382.338,1457.48 384.065,1457.68 385.793,1457.87 387.52,1458.04 389.248,1458.21 390.975,1458.36 392.703,1458.5 394.43,1458.63 396.158,1458.75 397.886,1458.86 399.613,1458.97 401.341,1459.06 403.068,1459.15 404.796,1459.23 406.523,1459.31 408.251,1459.37 409.978,1459.44 411.706,1459.49 413.433,1459.54 415.161,1459.59 416.888,1459.63 418.616,1459.67 420.344,1459.7 422.071,1459.73 423.799,1459.75 425.526,1459.77 427.254,1459.78 428.981,1459.79 430.709,1459.8 432.436,1459.8 434.164,1459.8 435.891,1459.79 437.619,1459.78 439.346,1459.77 441.074,1459.75 442.802,1459.73 444.529,1459.71 446.257,1459.68 447.984,1459.66 449.712,1459.62 451.439,1459.59 453.167,1459.55 454.894,1459.5 456.622,1459.46 458.349,1459.41 460.077,1459.36 461.804,1459.3 463.532,1459.24 465.259,1459.18 466.987,1459.11 468.715,1459.04 470.442,1458.97 472.17,1458.9 473.897,1458.82 475.625,1458.73 477.352,1458.65 479.08,1458.56 480.807,1458.47 482.535,1458.37 484.262,1458.28 485.99,1458.17 487.717,1458.07 489.445,1457.96 491.173,1457.85 492.9,1457.73 494.628,1457.62 496.355,1457.49 498.083,1457.37 499.81,1457.24 501.538,1457.11 503.265,1456.97 504.993,1456.83 506.72,1456.69 508.448,1456.54 510.175,1456.39 511.903,1456.24 513.631,1456.08 515.358,1455.92 517.086,1455.76 518.813,1455.59 520.541,1455.42 522.268,1455.24 523.996,1455.06 525.723,1454.88 527.451,1454.7 529.178,1454.5 530.906,1454.31 532.633,1454.11 534.361,1453.91 536.089,1453.7 537.816,1453.49 539.544,1453.28 541.271,1453.06 542.999,1452.84 544.726,1452.61 546.454,1452.38 548.181,1452.14 549.909,1451.9 551.636,1451.66 553.364,1451.41 555.091,1451.16 556.819,1450.9 558.546,1450.64 560.274,1450.37 562.002,1450.1 563.729,1449.83 565.457,1449.55 567.184,1449.26 568.912,1448.97 570.639,1448.68 572.367,1448.38 574.094,1448.07 575.822,1447.77 577.549,1447.45 579.277,1447.13 581.004,1446.81 582.732,1446.48 584.46,1446.14 586.187,1445.8 587.915,1445.46 589.642,1445.11 591.37,1444.75 593.097,1444.39 594.825,1444.02 596.552,1443.65 598.28,1443.27 600.007,1442.89 601.735,1442.5 603.462,1442.1 605.19,1441.7 606.918,1441.29 608.645,1440.88 610.373,1440.46 612.1,1440.04 613.828,1439.6 615.555,1439.17 617.283,1438.72 619.01,1438.27 620.738,1437.82 622.465,1437.35 624.193,1436.88 625.92,1436.41 627.648,1435.92 629.375,1435.43 631.103,1434.94 632.831,1434.43 634.558,1433.92 636.286,1433.41 638.013,1432.88 639.741,1432.35 641.468,1431.81 643.196,1431.27 644.923,1430.72 646.651,1430.16 648.378,1429.59 650.106,1429.01 651.833,1428.43 653.561,1427.84 655.289,1427.25 657.016,1426.64 658.744,1426.03 660.471,1425.41 662.199,1424.78 663.926,1424.14 665.654,1423.5 667.381,1422.85 669.109,1422.19 670.836,1421.52 672.564,1420.84 674.291,1420.16 676.019,1419.46 677.747,1418.76 679.474,1418.05 681.202,1417.34 682.929,1416.61 684.657,1415.88 686.384,1415.14 688.112,1414.38 689.839,1413.63 691.567,1412.86 693.294,1412.08 695.022,1411.3 696.749,1410.51 698.477,1409.71 700.205,1408.9 701.932,1408.08 703.66,1407.26 705.387,1406.42 707.115,1405.58 708.842,1404.73 710.57,1403.87 712.297,1403.01 714.025,1402.13 715.752,1401.25 717.48,1400.36 719.207,1399.47 720.935,1398.56 722.662,1397.65 724.39,1396.73 726.118,1395.8 727.845,1394.87 729.573,1393.93 731.3,1392.98 733.028,1392.03 734.755,1391.07 736.483,1390.1 738.21,1389.13 739.938,1388.15 741.665,1387.16 743.393,1386.17 745.12,1385.17 746.848,1384.17 748.576,1383.16 750.303,1382.15 752.031,1381.13 753.758,1380.11 755.486,1379.09 757.213,1378.06 758.941,1377.02 760.668,1375.98 762.396,1374.94 764.123,1373.89 765.851,1372.84 767.578,1371.79 769.306,1370.74 771.034,1369.68 772.761,1368.61 774.489,1367.55 776.216,1366.48 777.944,1365.41 779.671,1364.33 781.399,1363.25 783.126,1362.17 784.854,1361.08 786.581,1359.99 788.309,1358.9 790.036,1357.8 791.764,1356.69 793.491,1355.58 795.219,1354.46 796.947,1353.34 798.674,1352.21 800.402,1351.07 802.129,1349.92 803.857,1348.75 805.584,1347.58 807.312,1346.39 809.039,1345.19 810.767,1343.97 812.494,1342.74 814.222,1341.48 815.949,1340.2 817.677,1338.9 819.405,1337.57 821.132,1336.21 822.86,1334.82 824.587,1333.39 826.315,1331.93 828.042,1330.42 829.77,1328.88 831.497,1327.28 833.225,1325.63 834.952,1323.93 836.68,1322.17 838.407,1320.34 840.135,1318.45 841.863,1316.48 843.59,1314.44 845.318,1312.31 847.045,1310.1 848.773,1307.8 850.5,1305.39 852.228,1302.89 853.955,1300.28 855.683,1297.55 857.41,1294.7 859.138,1291.73 860.865,1288.63 862.593,1285.4 864.321,1282.02 866.048,1278.49 867.776,1274.81 869.503,1270.98 871.231,1266.98 872.958,1262.82 874.686,1258.48 876.413,1253.96 878.141,1249.26 879.868,1244.38 881.596,1239.3 883.323,1234.03 885.051,1228.57 886.778,1222.9 888.506,1217.04 890.234,1210.96 891.961,1204.68 893.689,1198.2 895.416,1191.51 897.144,1184.6 898.871,1177.49 900.599,1170.17 902.326,1162.65 904.054,1154.92 905.781,1146.99 907.509,1138.86 909.236,1130.53 910.964,1122.02 912.692,1113.31 914.419,1104.42 916.147,1095.36 917.874,1086.13 919.602,1076.73 921.329,1067.17 923.057,1057.46 924.784,1047.61 926.512,1037.63 928.239,1027.52 929.967,1017.3 931.694,1006.96 933.422,996.533 935.15,986.014 936.877,975.416 938.605,964.75 940.332,954.026 942.06,943.253 943.787,932.441 945.515,921.601 947.242,910.743 948.97,899.877 950.697,889.012 952.425,878.158 954.152,867.325 955.88,856.521 957.607,845.755 959.335,835.036 961.063,824.372 962.79,813.771 964.518,803.239 966.245,792.784 967.973,782.412 969.7,772.13 971.428,761.942 973.155,751.853 974.883,741.869 976.61,731.992 978.338,722.227 980.065,712.576 981.793,703.041 983.521,693.625 985.248,684.329 986.976,675.154 988.703,666.099 990.431,657.166 992.158,648.353 993.886,639.66 995.613,631.085 997.341,622.627 999.068,614.283 1000.8,606.051 1002.52,597.929 1004.25,589.912 1005.98,581.999 1007.71,574.185 1009.43,566.467 1011.16,558.841 1012.89,551.302 1014.62,543.848 1016.34,536.473 1018.07,529.174 1019.8,521.946 1021.53,514.785 1023.25,507.686 1024.98,500.646 1026.71,493.66 1028.44,486.725 1030.16,479.836 1031.89,472.989 1033.62,466.181 1035.35,459.409 1037.07,452.668 1038.8,445.957 1040.53,439.272 1042.26,432.61 1043.98,425.969 1045.71,419.347 1047.44,412.741 1049.17,406.151 1050.89,399.574 1052.62,393.009 1054.35,386.456 1056.08,379.914 1057.8,373.381 1059.53,366.859 1061.26,360.347 1062.99,353.845 1064.71,347.354 1066.44,340.875 1068.17,334.409 1069.9,327.958 1071.62,321.522 1073.35,315.103 1075.08,308.704 1076.81,302.326 1078.54,295.973 1080.26,289.646 1081.99,283.348 1083.72,277.083 1085.45,270.853 1087.17,264.661 1088.9,258.512 1090.63,252.407 1092.36,246.352 1094.08,240.35 1095.81,234.404 1097.54,228.519 1099.27,222.698 1100.99,216.946 1102.72,211.267 1104.45,205.665 1106.18,200.144 1107.9,194.709 1109.63,189.364 1111.36,184.113 1113.09,178.96 1114.81,173.91 1116.54,168.967 1118.27,164.136 1120,159.42 1121.72,154.824 1123.45,150.352 1125.18,146.007 1126.91,141.795 1128.63,137.718 1130.36,133.78 1132.09,129.986 1133.82,126.338 1135.54,122.841 1137.27,119.497 1139,116.31 1140.73,113.282 1142.45,110.417 1144.18,107.718 1145.91,105.186 1147.64,102.825 1149.36,100.636 1151.09,98.6221 1152.82,96.7845 1154.55,95.1252 1156.27,93.6455 1158,92.3467 1159.73,91.23 1161.46,90.2961 1163.18,89.5459 1164.91,88.9796 1166.64,88.5977 1168.37,88.4 1170.09,88.3864 1171.82,88.5565 1173.55,88.9097 1175.28,89.4451 1177,90.1617 1178.73,91.0581 1180.46,92.1329 1182.19,93.3842 1183.91,94.8103 1185.64,96.4089 1187.37,98.1777 1189.1,100.114 1190.82,102.215 1192.55,104.478 1194.28,106.9 1196.01,109.477 1197.74,112.205 1199.46,115.082 1201.19,118.102 1202.92,121.262 1204.65,124.557 1206.37,127.984 1208.1,131.536 1209.83,135.21 1211.56,139 1213.28,142.901 1215.01,146.908 1216.74,151.016 1218.47,155.218 1220.19,159.509 1221.92,163.883 1223.65,168.335 1225.38,172.857 1227.1,177.443 1228.83,182.088 1230.56,186.784 1232.29,191.525 1234.01,196.304 1235.74,201.115 1237.47,205.95 1239.2,210.803 1240.92,215.666 1242.65,220.532 1244.38,225.394 1246.11,230.244 1247.83,235.075 1249.56,239.88 1251.29,244.652 1253.02,249.381 1254.74,254.062 1256.47,258.687 1258.2,263.247 1259.93,267.736 1261.65,272.145 1263.38,276.467 1265.11,280.695 1266.84,284.821 1268.56,288.838 1270.29,292.738 1272.02,296.514 1273.75,300.159 1275.47,303.665 1277.2,307.027 1278.93,310.236 1280.66,313.287 1282.38,316.174 1284.11,318.89 1285.84,321.429 1287.57,323.786 1289.29,325.955 1291.02,327.932 1292.75,329.713 1294.48,331.292 1296.2,332.667 1297.93,333.834 1299.66,334.79 1301.39,335.533 1303.11,336.061 1304.84,336.373 1306.57,336.47 1308.3,336.349 1310.03,336.014 1311.75,335.464 1313.48,334.702 1315.21,333.731 1316.94,332.555 1318.66,331.177 1320.39,329.604 1322.12,327.841 1323.85,325.895 1325.57,323.773 1327.3,321.485 1329.03,319.038 1330.76,316.445 1332.48,313.714 1334.21,310.859 1335.94,307.892 1337.67,304.826 1339.39,301.675 1341.12,298.454 1342.85,295.179 1344.58,291.865 1346.3,288.53 1348.03,285.191 1349.76,281.865 1351.49,278.572 1353.21,275.329 1354.94,272.157 1356.67,269.074 1358.4,266.1 1360.12,263.255 1361.85,260.559 1363.58,258.031 1365.31,255.691 1367.03,253.558 1368.76,251.653 1370.49,249.994 1372.22,248.599 1373.94,247.486 1375.67,246.674 1377.4,246.178 1379.13,246.015 1380.85,246.2 1382.58,246.748 1384.31,247.671 1386.04,248.983 1387.76,250.695 1389.49,252.816 1391.22,255.356 1392.95,258.323 1394.67,261.723 1396.4,265.561 1398.13,269.841 1399.86,274.566 1401.58,279.736 1403.31,285.352 1405.04,291.412 1406.77,297.912 1408.49,304.848 1410.22,312.216 1411.95,320.006 1413.68,328.212 1415.4,336.824 1417.13,345.83 1418.86,355.218 1420.59,364.977 1422.31,375.091 1424.04,385.545 1425.77,396.324 1427.5,407.411 1429.23,418.787 1430.95,430.435 1432.68,442.336 1434.41,454.47 1436.14,466.817 1437.86,479.358 1439.59,492.072 1441.32,504.938 1443.05,517.936 1444.77,531.045 1446.5,544.243 1448.23,557.512 1449.96,570.829 1451.68,584.176 1453.41,597.533 1455.14,610.88 1456.87,624.199 1458.59,637.472 1460.32,650.681 1462.05,663.81 1463.78,676.842 1465.5,689.762 1467.23,702.555 1468.96,715.208 1470.69,727.707 1472.41,740.041 1474.14,752.199 1475.87,764.169 1477.6,775.944 1479.32,787.513 1481.05,798.871 1482.78,810.009 1484.51,820.922 1486.23,831.606 1487.96,842.056 1489.69,852.269 1491.42,862.242 1493.14,871.975 1494.87,881.465 1496.6,890.714 1498.33,899.721 1500.05,908.488 1501.78,917.017 1503.51,925.31 1505.24,933.371 1506.96,941.202 1508.69,948.809 1510.42,956.196 1512.15,963.368 1513.87,970.33 1515.6,977.088 1517.33,983.648 1519.06,990.017 1520.78,996.201 1522.51,1002.21 1524.24,1008.04 1525.97,1013.72 1527.69,1019.23 1529.42,1024.6 1531.15,1029.83 1532.88,1034.92 1534.6,1039.89 1536.33,1044.74 1538.06,1049.48 1539.79,1054.12 1541.51,1058.66 1543.24,1063.12 1544.97,1067.49 1546.7,1071.8 1548.43,1076.04 1550.15,1080.22 1551.88,1084.35 1553.61,1088.43 1555.34,1092.48 1557.06,1096.5 1558.79,1100.49 1560.52,1104.46 1562.25,1108.42 1563.97,1112.37 1565.7,1116.32 1567.43,1120.28 1569.16,1124.24 1570.88,1128.21 1572.61,1132.2 1574.34,1136.21 1576.07,1140.24 1577.79,1144.3 1579.52,1148.39 1581.25,1152.52 1582.98,1156.67 1584.7,1160.87 1586.43,1165.11 1588.16,1169.38 1589.89,1173.7 1591.61,1178.06 1593.34,1182.46 1595.07,1186.91 1596.8,1191.4 1598.52,1195.93 1600.25,1200.51 1601.98,1205.12 1603.71,1209.77 1605.43,1214.46 1607.16,1219.19 1608.89,1223.95 1610.62,1228.73 1612.34,1233.55 1614.07,1238.39 1615.8,1243.25 1617.53,1248.13 1619.25,1253.02 1620.98,1257.92 1622.71,1262.83 1624.44,1267.74 1626.16,1272.65 1627.89,1277.55 1629.62,1282.44 1631.35,1287.32 "/>
<path clip-path="url(#clip070)" d="M258.407 199.381 L1090.36 199.381 L1090.36 95.7006 L258.407 95.7006  Z" fill="#ffffff" fill-rule="evenodd" fill-opacity="1"/>
<polyline clip-path="url(#clip070)" style="stroke:#000000; stroke-linecap:round; stroke-linejoin:round; stroke-width:4; stroke-opacity:1; fill:none" points="258.407,199.381 1090.36,199.381 1090.36,95.7006 258.407,95.7006 258.407,199.381 "/>
<polyline clip-path="url(#clip070)" style="stroke:#009af9; stroke-linecap:round; stroke-linejoin:round; stroke-width:4; stroke-opacity:1; fill:none" points="274.663,147.541 372.205,147.541 "/>
<path clip-path="url(#clip070)" d="M408.809 143.872 Q410.406 141.001 412.628 139.636 Q414.85 138.27 417.86 138.27 Q421.911 138.27 424.11 141.117 Q426.309 143.941 426.309 149.173 L426.309 164.821 L422.026 164.821 L422.026 149.311 Q422.026 145.585 420.707 143.779 Q419.387 141.974 416.679 141.974 Q413.369 141.974 411.448 144.173 Q409.526 146.372 409.526 150.168 L409.526 164.821 L405.244 164.821 L405.244 149.311 Q405.244 145.561 403.925 143.779 Q402.605 141.974 399.85 141.974 Q396.587 141.974 394.665 144.196 Q392.744 146.395 392.744 150.168 L392.744 164.821 L388.462 164.821 L388.462 138.895 L392.744 138.895 L392.744 142.923 Q394.202 140.538 396.239 139.404 Q398.276 138.27 401.077 138.27 Q403.901 138.27 405.869 139.705 Q407.86 141.14 408.809 143.872 Z" fill="#000000" fill-rule="nonzero" fill-opacity="1" /><path clip-path="url(#clip070)" d="M456.98 150.793 L456.98 152.876 L437.397 152.876 Q437.674 157.274 440.035 159.589 Q442.42 161.881 446.656 161.881 Q449.109 161.881 451.401 161.279 Q453.716 160.677 455.984 159.473 L455.984 163.501 Q453.693 164.473 451.285 164.983 Q448.878 165.492 446.401 165.492 Q440.197 165.492 436.563 161.881 Q432.952 158.27 432.952 152.112 Q432.952 145.747 436.378 142.02 Q439.827 138.27 445.66 138.27 Q450.892 138.27 453.924 141.649 Q456.98 145.006 456.98 150.793 M452.721 149.543 Q452.674 146.048 450.753 143.964 Q448.855 141.881 445.707 141.881 Q442.142 141.881 439.989 143.895 Q437.86 145.909 437.535 149.566 L452.721 149.543 Z" fill="#000000" fill-rule="nonzero" fill-opacity="1" /><path clip-path="url(#clip070)" d="M475.753 151.788 Q470.591 151.788 468.6 152.969 Q466.609 154.149 466.609 156.997 Q466.609 159.265 468.091 160.608 Q469.595 161.927 472.165 161.927 Q475.707 161.927 477.836 159.427 Q479.989 156.904 479.989 152.737 L479.989 151.788 L475.753 151.788 M484.248 150.029 L484.248 164.821 L479.989 164.821 L479.989 160.885 Q478.531 163.247 476.355 164.381 Q474.179 165.492 471.031 165.492 Q467.049 165.492 464.688 163.27 Q462.35 161.024 462.35 157.274 Q462.35 152.899 465.267 150.677 Q468.207 148.455 474.017 148.455 L479.989 148.455 L479.989 148.038 Q479.989 145.099 478.045 143.501 Q476.123 141.881 472.628 141.881 Q470.406 141.881 468.299 142.413 Q466.193 142.946 464.248 144.011 L464.248 140.075 Q466.586 139.173 468.785 138.733 Q470.984 138.27 473.068 138.27 Q478.693 138.27 481.47 141.186 Q484.248 144.103 484.248 150.029 Z" fill="#000000" fill-rule="nonzero" fill-opacity="1" /><path clip-path="url(#clip070)" d="M509.549 139.659 L509.549 143.686 Q507.743 142.761 505.799 142.298 Q503.855 141.835 501.771 141.835 Q498.6 141.835 497.003 142.807 Q495.429 143.779 495.429 145.723 Q495.429 147.205 496.563 148.061 Q497.697 148.895 501.123 149.659 L502.581 149.983 Q507.118 150.955 509.017 152.737 Q510.938 154.497 510.938 157.668 Q510.938 161.279 508.067 163.385 Q505.22 165.492 500.22 165.492 Q498.137 165.492 495.868 165.075 Q493.623 164.682 491.123 163.872 L491.123 159.473 Q493.484 160.7 495.776 161.325 Q498.068 161.927 500.313 161.927 Q503.322 161.927 504.943 160.909 Q506.563 159.867 506.563 157.992 Q506.563 156.256 505.382 155.33 Q504.225 154.404 500.267 153.548 L498.785 153.2 Q494.827 152.367 493.068 150.654 Q491.308 148.918 491.308 145.909 Q491.308 142.251 493.901 140.261 Q496.493 138.27 501.262 138.27 Q503.623 138.27 505.706 138.617 Q507.79 138.964 509.549 139.659 Z" fill="#000000" fill-rule="nonzero" fill-opacity="1" /><path clip-path="url(#clip070)" d="M517.28 154.589 L517.28 138.895 L521.54 138.895 L521.54 154.427 Q521.54 158.108 522.975 159.96 Q524.41 161.788 527.28 161.788 Q530.729 161.788 532.72 159.589 Q534.734 157.39 534.734 153.594 L534.734 138.895 L538.993 138.895 L538.993 164.821 L534.734 164.821 L534.734 160.839 Q533.183 163.2 531.123 164.358 Q529.086 165.492 526.378 165.492 Q521.91 165.492 519.595 162.714 Q517.28 159.936 517.28 154.589 M527.998 138.27 L527.998 138.27 Z" fill="#000000" fill-rule="nonzero" fill-opacity="1" /><path clip-path="url(#clip070)" d="M562.789 142.876 Q562.072 142.46 561.215 142.274 Q560.382 142.066 559.364 142.066 Q555.752 142.066 553.808 144.427 Q551.887 146.765 551.887 151.163 L551.887 164.821 L547.604 164.821 L547.604 138.895 L551.887 138.895 L551.887 142.923 Q553.229 140.561 555.382 139.427 Q557.535 138.27 560.614 138.27 Q561.053 138.27 561.586 138.339 Q562.118 138.386 562.766 138.501 L562.789 142.876 Z" fill="#000000" fill-rule="nonzero" fill-opacity="1" /><path clip-path="url(#clip070)" d="M588.391 150.793 L588.391 152.876 L568.808 152.876 Q569.086 157.274 571.447 159.589 Q573.831 161.881 578.067 161.881 Q580.521 161.881 582.812 161.279 Q585.127 160.677 587.396 159.473 L587.396 163.501 Q585.104 164.473 582.697 164.983 Q580.289 165.492 577.812 165.492 Q571.609 165.492 567.975 161.881 Q564.363 158.27 564.363 152.112 Q564.363 145.747 567.789 142.02 Q571.238 138.27 577.072 138.27 Q582.303 138.27 585.336 141.649 Q588.391 145.006 588.391 150.793 M584.132 149.543 Q584.086 146.048 582.164 143.964 Q580.266 141.881 577.118 141.881 Q573.553 141.881 571.4 143.895 Q569.271 145.909 568.947 149.566 L584.132 149.543 Z" fill="#000000" fill-rule="nonzero" fill-opacity="1" /><path clip-path="url(#clip070)" d="M615.567 143.872 Q617.164 141.001 619.386 139.636 Q621.609 138.27 624.618 138.27 Q628.669 138.27 630.868 141.117 Q633.067 143.941 633.067 149.173 L633.067 164.821 L628.784 164.821 L628.784 149.311 Q628.784 145.585 627.465 143.779 Q626.146 141.974 623.437 141.974 Q620.127 141.974 618.206 144.173 Q616.285 146.372 616.285 150.168 L616.285 164.821 L612.002 164.821 L612.002 149.311 Q612.002 145.561 610.683 143.779 Q609.363 141.974 606.609 141.974 Q603.345 141.974 601.423 144.196 Q599.502 146.395 599.502 150.168 L599.502 164.821 L595.22 164.821 L595.22 138.895 L599.502 138.895 L599.502 142.923 Q600.961 140.538 602.998 139.404 Q605.035 138.27 607.835 138.27 Q610.66 138.27 612.627 139.705 Q614.618 141.14 615.567 143.872 Z" fill="#000000" fill-rule="nonzero" fill-opacity="1" /><path clip-path="url(#clip070)" d="M663.738 150.793 L663.738 152.876 L644.155 152.876 Q644.433 157.274 646.794 159.589 Q649.178 161.881 653.414 161.881 Q655.868 161.881 658.159 161.279 Q660.474 160.677 662.743 159.473 L662.743 163.501 Q660.451 164.473 658.044 164.983 Q655.636 165.492 653.159 165.492 Q646.956 165.492 643.321 161.881 Q639.71 158.27 639.71 152.112 Q639.71 145.747 643.136 142.02 Q646.585 138.27 652.419 138.27 Q657.65 138.27 660.682 141.649 Q663.738 145.006 663.738 150.793 M659.479 149.543 Q659.432 146.048 657.511 143.964 Q655.613 141.881 652.465 141.881 Q648.9 141.881 646.747 143.895 Q644.618 145.909 644.294 149.566 L659.479 149.543 Z" fill="#000000" fill-rule="nonzero" fill-opacity="1" /><path clip-path="url(#clip070)" d="M692.279 149.173 L692.279 164.821 L688.02 164.821 L688.02 149.311 Q688.02 145.631 686.585 143.802 Q685.15 141.974 682.28 141.974 Q678.83 141.974 676.84 144.173 Q674.849 146.372 674.849 150.168 L674.849 164.821 L670.567 164.821 L670.567 138.895 L674.849 138.895 L674.849 142.923 Q676.377 140.585 678.437 139.427 Q680.52 138.27 683.229 138.27 Q687.696 138.27 689.988 141.048 Q692.279 143.802 692.279 149.173 Z" fill="#000000" fill-rule="nonzero" fill-opacity="1" /><path clip-path="url(#clip070)" d="M704.988 131.534 L704.988 138.895 L713.761 138.895 L713.761 142.205 L704.988 142.205 L704.988 156.279 Q704.988 159.45 705.844 160.353 Q706.724 161.256 709.386 161.256 L713.761 161.256 L713.761 164.821 L709.386 164.821 Q704.455 164.821 702.58 162.992 Q700.705 161.14 700.705 156.279 L700.705 142.205 L697.58 142.205 L697.58 138.895 L700.705 138.895 L700.705 131.534 L704.988 131.534 Z" fill="#000000" fill-rule="nonzero" fill-opacity="1" /><path clip-path="url(#clip070)" d="M735.89 139.659 L735.89 143.686 Q734.085 142.761 732.14 142.298 Q730.196 141.835 728.113 141.835 Q724.941 141.835 723.344 142.807 Q721.77 143.779 721.77 145.723 Q721.77 147.205 722.904 148.061 Q724.039 148.895 727.464 149.659 L728.923 149.983 Q733.46 150.955 735.358 152.737 Q737.279 154.497 737.279 157.668 Q737.279 161.279 734.409 163.385 Q731.562 165.492 726.562 165.492 Q724.478 165.492 722.21 165.075 Q719.965 164.682 717.465 163.872 L717.465 159.473 Q719.826 160.7 722.117 161.325 Q724.409 161.927 726.654 161.927 Q729.664 161.927 731.284 160.909 Q732.904 159.867 732.904 157.992 Q732.904 156.256 731.724 155.33 Q730.566 154.404 726.608 153.548 L725.127 153.2 Q721.168 152.367 719.409 150.654 Q717.65 148.918 717.65 145.909 Q717.65 142.251 720.242 140.261 Q722.835 138.27 727.603 138.27 Q729.964 138.27 732.048 138.617 Q734.131 138.964 735.89 139.659 Z" fill="#000000" fill-rule="nonzero" fill-opacity="1" /><path clip-path="url(#clip070)" d="M769.362 128.849 Q766.261 134.173 764.756 139.381 Q763.251 144.589 763.251 149.936 Q763.251 155.284 764.756 160.538 Q766.284 165.77 769.362 171.071 L765.659 171.071 Q762.187 165.631 760.45 160.376 Q758.737 155.122 758.737 149.936 Q758.737 144.774 760.45 139.543 Q762.163 134.312 765.659 128.849 L769.362 128.849 Z" fill="#000000" fill-rule="nonzero" fill-opacity="1" /><path clip-path="url(#clip070)" d="M799.802 150.793 L799.802 152.876 L780.219 152.876 Q780.497 157.274 782.858 159.589 Q785.242 161.881 789.478 161.881 Q791.932 161.881 794.223 161.279 Q796.538 160.677 798.807 159.473 L798.807 163.501 Q796.515 164.473 794.108 164.983 Q791.7 165.492 789.223 165.492 Q783.02 165.492 779.385 161.881 Q775.774 158.27 775.774 152.112 Q775.774 145.747 779.2 142.02 Q782.649 138.27 788.483 138.27 Q793.714 138.27 796.747 141.649 Q799.802 145.006 799.802 150.793 M795.543 149.543 Q795.497 146.048 793.575 143.964 Q791.677 141.881 788.529 141.881 Q784.964 141.881 782.811 143.895 Q780.682 145.909 780.358 149.566 L795.543 149.543 Z" fill="#000000" fill-rule="nonzero" fill-opacity="1" /><path clip-path="url(#clip070)" d="M827.51 138.895 L818.135 151.511 L827.996 164.821 L822.973 164.821 L815.427 154.635 L807.881 164.821 L802.858 164.821 L812.927 151.256 L803.714 138.895 L808.737 138.895 L815.612 148.131 L822.487 138.895 L827.51 138.895 Z" fill="#000000" fill-rule="nonzero" fill-opacity="1" /><path clip-path="url(#clip070)" d="M838.228 131.534 L838.228 138.895 L847.001 138.895 L847.001 142.205 L838.228 142.205 L838.228 156.279 Q838.228 159.45 839.084 160.353 Q839.964 161.256 842.626 161.256 L847.001 161.256 L847.001 164.821 L842.626 164.821 Q837.695 164.821 835.82 162.992 Q833.945 161.14 833.945 156.279 L833.945 142.205 L830.82 142.205 L830.82 138.895 L833.945 138.895 L833.945 131.534 L838.228 131.534 Z" fill="#000000" fill-rule="nonzero" fill-opacity="1" /><path clip-path="url(#clip070)" d="M867.626 142.876 Q866.908 142.46 866.052 142.274 Q865.218 142.066 864.2 142.066 Q860.589 142.066 858.644 144.427 Q856.723 146.765 856.723 151.163 L856.723 164.821 L852.441 164.821 L852.441 138.895 L856.723 138.895 L856.723 142.923 Q858.066 140.561 860.218 139.427 Q862.371 138.27 865.45 138.27 Q865.89 138.27 866.422 138.339 Q866.954 138.386 867.603 138.501 L867.626 142.876 Z" fill="#000000" fill-rule="nonzero" fill-opacity="1" /><path clip-path="url(#clip070)" d="M883.876 151.788 Q878.714 151.788 876.723 152.969 Q874.732 154.149 874.732 156.997 Q874.732 159.265 876.214 160.608 Q877.718 161.927 880.288 161.927 Q883.829 161.927 885.959 159.427 Q888.112 156.904 888.112 152.737 L888.112 151.788 L883.876 151.788 M892.371 150.029 L892.371 164.821 L888.112 164.821 L888.112 160.885 Q886.653 163.247 884.478 164.381 Q882.302 165.492 879.153 165.492 Q875.172 165.492 872.811 163.27 Q870.473 161.024 870.473 157.274 Q870.473 152.899 873.39 150.677 Q876.329 148.455 882.14 148.455 L888.112 148.455 L888.112 148.038 Q888.112 145.099 886.167 143.501 Q884.246 141.881 880.751 141.881 Q878.528 141.881 876.422 142.413 Q874.316 142.946 872.371 144.011 L872.371 140.075 Q874.709 139.173 876.908 138.733 Q879.107 138.27 881.19 138.27 Q886.815 138.27 889.593 141.186 Q892.371 144.103 892.371 150.029 Z" fill="#000000" fill-rule="nonzero" fill-opacity="1" /><path clip-path="url(#clip070)" d="M919.801 139.89 L919.801 143.872 Q917.996 142.876 916.167 142.39 Q914.362 141.881 912.51 141.881 Q908.366 141.881 906.075 144.52 Q903.783 147.136 903.783 151.881 Q903.783 156.626 906.075 159.265 Q908.366 161.881 912.51 161.881 Q914.362 161.881 916.167 161.395 Q917.996 160.885 919.801 159.89 L919.801 163.825 Q918.019 164.659 916.098 165.075 Q914.2 165.492 912.047 165.492 Q906.19 165.492 902.741 161.811 Q899.292 158.131 899.292 151.881 Q899.292 145.538 902.764 141.904 Q906.26 138.27 912.325 138.27 Q914.292 138.27 916.167 138.687 Q918.042 139.08 919.801 139.89 Z" fill="#000000" fill-rule="nonzero" fill-opacity="1" /><path clip-path="url(#clip070)" d="M931.422 131.534 L931.422 138.895 L940.195 138.895 L940.195 142.205 L931.422 142.205 L931.422 156.279 Q931.422 159.45 932.278 160.353 Q933.158 161.256 935.82 161.256 L940.195 161.256 L940.195 164.821 L935.82 164.821 Q930.889 164.821 929.014 162.992 Q927.139 161.14 927.139 156.279 L927.139 142.205 L924.014 142.205 L924.014 138.895 L927.139 138.895 L927.139 131.534 L931.422 131.534 Z" fill="#000000" fill-rule="nonzero" fill-opacity="1" /><path clip-path="url(#clip070)" d="M945.797 138.895 L950.056 138.895 L950.056 164.821 L945.797 164.821 L945.797 138.895 M945.797 128.802 L950.056 128.802 L950.056 134.196 L945.797 134.196 L945.797 128.802 Z" fill="#000000" fill-rule="nonzero" fill-opacity="1" /><path clip-path="url(#clip070)" d="M969.014 141.881 Q965.588 141.881 963.597 144.566 Q961.607 147.228 961.607 151.881 Q961.607 156.534 963.574 159.219 Q965.565 161.881 969.014 161.881 Q972.417 161.881 974.408 159.196 Q976.398 156.51 976.398 151.881 Q976.398 147.274 974.408 144.589 Q972.417 141.881 969.014 141.881 M969.014 138.27 Q974.57 138.27 977.741 141.881 Q980.912 145.492 980.912 151.881 Q980.912 158.247 977.741 161.881 Q974.57 165.492 969.014 165.492 Q963.435 165.492 960.264 161.881 Q957.116 158.247 957.116 151.881 Q957.116 145.492 960.264 141.881 Q963.435 138.27 969.014 138.27 Z" fill="#000000" fill-rule="nonzero" fill-opacity="1" /><path clip-path="url(#clip070)" d="M1009.52 149.173 L1009.52 164.821 L1005.26 164.821 L1005.26 149.311 Q1005.26 145.631 1003.83 143.802 Q1002.39 141.974 999.523 141.974 Q996.074 141.974 994.083 144.173 Q992.093 146.372 992.093 150.168 L992.093 164.821 L987.81 164.821 L987.81 138.895 L992.093 138.895 L992.093 142.923 Q993.62 140.585 995.681 139.427 Q997.764 138.27 1000.47 138.27 Q1004.94 138.27 1007.23 141.048 Q1009.52 143.802 1009.52 149.173 Z" fill="#000000" fill-rule="nonzero" fill-opacity="1" /><path clip-path="url(#clip070)" d="M1019.11 158.941 L1023.99 158.941 L1023.99 164.821 L1019.11 164.821 L1019.11 158.941 M1019.11 140.307 L1023.99 140.307 L1023.99 146.186 L1019.11 146.186 L1019.11 140.307 Z" fill="#000000" fill-rule="nonzero" fill-opacity="1" /><path clip-path="url(#clip070)" d="M1034.64 130.261 L1053 130.261 L1053 134.196 L1038.92 134.196 L1038.92 142.668 Q1039.94 142.321 1040.96 142.159 Q1041.98 141.974 1043 141.974 Q1048.78 141.974 1052.16 145.145 Q1055.54 148.316 1055.54 153.733 Q1055.54 159.311 1052.07 162.413 Q1048.6 165.492 1042.28 165.492 Q1040.1 165.492 1037.83 165.122 Q1035.59 164.751 1033.18 164.01 L1033.18 159.311 Q1035.26 160.446 1037.49 161.001 Q1039.71 161.557 1042.19 161.557 Q1046.19 161.557 1048.53 159.45 Q1050.87 157.344 1050.87 153.733 Q1050.87 150.122 1048.53 148.015 Q1046.19 145.909 1042.19 145.909 Q1040.31 145.909 1038.44 146.325 Q1036.58 146.742 1034.64 147.622 L1034.64 130.261 Z" fill="#000000" fill-rule="nonzero" fill-opacity="1" /><path clip-path="url(#clip070)" d="M1063.48 128.849 L1067.18 128.849 Q1070.66 134.312 1072.37 139.543 Q1074.11 144.774 1074.11 149.936 Q1074.11 155.122 1072.37 160.376 Q1070.66 165.631 1067.18 171.071 L1063.48 171.071 Q1066.56 165.77 1068.06 160.538 Q1069.59 155.284 1069.59 149.936 Q1069.59 144.589 1068.06 139.381 Q1066.56 134.173 1063.48 128.849 Z" fill="#000000" fill-rule="nonzero" fill-opacity="1" /></svg>
