<?xml version="1.0" encoding="utf-8"?>
<svg xmlns="http://www.w3.org/2000/svg" xmlns:xlink="http://www.w3.org/1999/xlink" width="430" height="430" viewBox="0 0 1720 1720">
<defs>
  <clipPath id="clip110">
    <rect x="0" y="0" width="1720" height="1720"/>
  </clipPath>
</defs>
<path clip-path="url(#clip110)" d="M0 1720 L1720 1720 L1720 0 L0 0  Z" fill="#ffffff" fill-rule="evenodd" fill-opacity="1"/>
<defs>
  <clipPath id="clip111">
    <rect x="344" y="172" width="1205" height="1205"/>
  </clipPath>
</defs>
<path clip-path="url(#clip110)" d="M209.636 1500.94 L1672.76 1500.94 L1672.76 47.2441 L209.636 47.2441  Z" fill="#ffffff" fill-rule="evenodd" fill-opacity="1"/>
<defs>
  <clipPath id="clip112">
    <rect x="209" y="47" width="1464" height="1455"/>
  </clipPath>
</defs>
<polyline clip-path="url(#clip112)" style="stroke:#000000; stroke-linecap:round; stroke-linejoin:round; stroke-width:2; stroke-opacity:0.1; fill:none" points="251.045,1500.94 251.045,47.2441 "/>
<polyline clip-path="url(#clip112)" style="stroke:#000000; stroke-linecap:round; stroke-linejoin:round; stroke-width:2; stroke-opacity:0.1; fill:none" points="470.727,1500.94 470.727,47.2441 "/>
<polyline clip-path="url(#clip112)" style="stroke:#000000; stroke-linecap:round; stroke-linejoin:round; stroke-width:2; stroke-opacity:0.1; fill:none" points="690.409,1500.94 690.409,47.2441 "/>
<polyline clip-path="url(#clip112)" style="stroke:#000000; stroke-linecap:round; stroke-linejoin:round; stroke-width:2; stroke-opacity:0.1; fill:none" points="910.091,1500.94 910.091,47.2441 "/>
<polyline clip-path="url(#clip112)" style="stroke:#000000; stroke-linecap:round; stroke-linejoin:round; stroke-width:2; stroke-opacity:0.1; fill:none" points="1129.77,1500.94 1129.77,47.2441 "/>
<polyline clip-path="url(#clip112)" style="stroke:#000000; stroke-linecap:round; stroke-linejoin:round; stroke-width:2; stroke-opacity:0.1; fill:none" points="1349.45,1500.94 1349.45,47.2441 "/>
<polyline clip-path="url(#clip112)" style="stroke:#000000; stroke-linecap:round; stroke-linejoin:round; stroke-width:2; stroke-opacity:0.1; fill:none" points="1569.14,1500.94 1569.14,47.2441 "/>
<polyline clip-path="url(#clip110)" style="stroke:#000000; stroke-linecap:round; stroke-linejoin:round; stroke-width:4; stroke-opacity:1; fill:none" points="209.636,1500.94 1672.76,1500.94 "/>
<polyline clip-path="url(#clip110)" style="stroke:#000000; stroke-linecap:round; stroke-linejoin:round; stroke-width:4; stroke-opacity:1; fill:none" points="251.045,1500.94 251.045,1482.04 "/>
<polyline clip-path="url(#clip110)" style="stroke:#000000; stroke-linecap:round; stroke-linejoin:round; stroke-width:4; stroke-opacity:1; fill:none" points="470.727,1500.94 470.727,1482.04 "/>
<polyline clip-path="url(#clip110)" style="stroke:#000000; stroke-linecap:round; stroke-linejoin:round; stroke-width:4; stroke-opacity:1; fill:none" points="690.409,1500.94 690.409,1482.04 "/>
<polyline clip-path="url(#clip110)" style="stroke:#000000; stroke-linecap:round; stroke-linejoin:round; stroke-width:4; stroke-opacity:1; fill:none" points="910.091,1500.94 910.091,1482.04 "/>
<polyline clip-path="url(#clip110)" style="stroke:#000000; stroke-linecap:round; stroke-linejoin:round; stroke-width:4; stroke-opacity:1; fill:none" points="1129.77,1500.94 1129.77,1482.04 "/>
<polyline clip-path="url(#clip110)" style="stroke:#000000; stroke-linecap:round; stroke-linejoin:round; stroke-width:4; stroke-opacity:1; fill:none" points="1349.45,1500.94 1349.45,1482.04 "/>
<polyline clip-path="url(#clip110)" style="stroke:#000000; stroke-linecap:round; stroke-linejoin:round; stroke-width:4; stroke-opacity:1; fill:none" points="1569.14,1500.94 1569.14,1482.04 "/>
<path clip-path="url(#clip110)" d="M251.045 1526.42 Q247.434 1526.42 245.605 1529.98 Q243.8 1533.52 243.8 1540.65 Q243.8 1547.76 245.605 1551.33 Q247.434 1554.87 251.045 1554.87 Q254.679 1554.87 256.485 1551.33 Q258.313 1547.76 258.313 1540.65 Q258.313 1533.52 256.485 1529.98 Q254.679 1526.42 251.045 1526.42 M251.045 1522.71 Q256.855 1522.71 259.911 1527.32 Q262.989 1531.9 262.989 1540.65 Q262.989 1549.38 259.911 1553.99 Q256.855 1558.57 251.045 1558.57 Q245.235 1558.57 242.156 1553.99 Q239.101 1549.38 239.101 1540.65 Q239.101 1531.9 242.156 1527.32 Q245.235 1522.71 251.045 1522.71 Z" fill="#000000" fill-rule="nonzero" fill-opacity="1" /><path clip-path="url(#clip110)" d="M461.109 1553.96 L468.748 1553.96 L468.748 1527.6 L460.438 1529.27 L460.438 1525.01 L468.701 1523.34 L473.377 1523.34 L473.377 1553.96 L481.016 1553.96 L481.016 1557.9 L461.109 1557.9 L461.109 1553.96 Z" fill="#000000" fill-rule="nonzero" fill-opacity="1" /><path clip-path="url(#clip110)" d="M685.061 1553.96 L701.381 1553.96 L701.381 1557.9 L679.437 1557.9 L679.437 1553.96 Q682.099 1551.21 686.682 1546.58 Q691.288 1541.93 692.469 1540.59 Q694.714 1538.06 695.594 1536.33 Q696.497 1534.57 696.497 1532.88 Q696.497 1530.12 694.552 1528.39 Q692.631 1526.65 689.529 1526.65 Q687.33 1526.65 684.876 1527.41 Q682.446 1528.18 679.668 1529.73 L679.668 1525.01 Q682.492 1523.87 684.946 1523.29 Q687.399 1522.71 689.436 1522.71 Q694.807 1522.71 698.001 1525.4 Q701.196 1528.09 701.196 1532.58 Q701.196 1534.71 700.385 1536.63 Q699.598 1538.52 697.492 1541.12 Q696.913 1541.79 693.811 1545.01 Q690.71 1548.2 685.061 1553.96 Z" fill="#000000" fill-rule="nonzero" fill-opacity="1" /><path clip-path="url(#clip110)" d="M914.338 1539.27 Q917.695 1539.98 919.57 1542.25 Q921.468 1544.52 921.468 1547.85 Q921.468 1552.97 917.949 1555.77 Q914.431 1558.57 907.949 1558.57 Q905.773 1558.57 903.459 1558.13 Q901.167 1557.71 898.713 1556.86 L898.713 1552.34 Q900.658 1553.48 902.973 1554.06 Q905.287 1554.64 907.81 1554.64 Q912.209 1554.64 914.5 1552.9 Q916.815 1551.16 916.815 1547.85 Q916.815 1544.8 914.662 1543.09 Q912.533 1541.35 908.713 1541.35 L904.685 1541.35 L904.685 1537.51 L908.898 1537.51 Q912.347 1537.51 914.176 1536.14 Q916.005 1534.75 916.005 1532.16 Q916.005 1529.5 914.107 1528.09 Q912.232 1526.65 908.713 1526.65 Q906.792 1526.65 904.593 1527.07 Q902.394 1527.48 899.755 1528.36 L899.755 1524.2 Q902.417 1523.46 904.732 1523.09 Q907.07 1522.71 909.13 1522.71 Q914.454 1522.71 917.556 1525.15 Q920.658 1527.55 920.658 1531.67 Q920.658 1534.54 919.014 1536.53 Q917.371 1538.5 914.338 1539.27 Z" fill="#000000" fill-rule="nonzero" fill-opacity="1" /><path clip-path="url(#clip110)" d="M1132.78 1527.41 L1120.98 1545.86 L1132.78 1545.86 L1132.78 1527.41 M1131.55 1523.34 L1137.43 1523.34 L1137.43 1545.86 L1142.36 1545.86 L1142.36 1549.75 L1137.43 1549.75 L1137.43 1557.9 L1132.78 1557.9 L1132.78 1549.75 L1117.18 1549.75 L1117.18 1545.24 L1131.55 1523.34 Z" fill="#000000" fill-rule="nonzero" fill-opacity="1" /><path clip-path="url(#clip110)" d="M1339.73 1523.34 L1358.09 1523.34 L1358.09 1527.28 L1344.01 1527.28 L1344.01 1535.75 Q1345.03 1535.4 1346.05 1535.24 Q1347.07 1535.05 1348.09 1535.05 Q1353.88 1535.05 1357.26 1538.22 Q1360.63 1541.4 1360.63 1546.81 Q1360.63 1552.39 1357.16 1555.49 Q1353.69 1558.57 1347.37 1558.57 Q1345.2 1558.57 1342.93 1558.2 Q1340.68 1557.83 1338.27 1557.09 L1338.27 1552.39 Q1340.36 1553.52 1342.58 1554.08 Q1344.8 1554.64 1347.28 1554.64 Q1351.28 1554.64 1353.62 1552.53 Q1355.96 1550.42 1355.96 1546.81 Q1355.96 1543.2 1353.62 1541.09 Q1351.28 1538.99 1347.28 1538.99 Q1345.4 1538.99 1343.53 1539.4 Q1341.68 1539.82 1339.73 1540.7 L1339.73 1523.34 Z" fill="#000000" fill-rule="nonzero" fill-opacity="1" /><path clip-path="url(#clip110)" d="M1569.54 1538.76 Q1566.39 1538.76 1564.54 1540.91 Q1562.71 1543.06 1562.71 1546.81 Q1562.71 1550.54 1564.54 1552.71 Q1566.39 1554.87 1569.54 1554.87 Q1572.69 1554.87 1574.52 1552.71 Q1576.37 1550.54 1576.37 1546.81 Q1576.37 1543.06 1574.52 1540.91 Q1572.69 1538.76 1569.54 1538.76 M1578.82 1524.1 L1578.82 1528.36 Q1577.06 1527.53 1575.26 1527.09 Q1573.48 1526.65 1571.72 1526.65 Q1567.09 1526.65 1564.63 1529.77 Q1562.2 1532.9 1561.86 1539.22 Q1563.22 1537.21 1565.28 1536.14 Q1567.34 1535.05 1569.82 1535.05 Q1575.03 1535.05 1578.04 1538.22 Q1581.07 1541.37 1581.07 1546.81 Q1581.07 1552.14 1577.92 1555.35 Q1574.77 1558.57 1569.54 1558.57 Q1563.55 1558.57 1560.37 1553.99 Q1557.2 1549.38 1557.2 1540.65 Q1557.2 1532.46 1561.09 1527.6 Q1564.98 1522.71 1571.53 1522.71 Q1573.29 1522.71 1575.07 1523.06 Q1576.88 1523.41 1578.82 1524.1 Z" fill="#000000" fill-rule="nonzero" fill-opacity="1" /><path clip-path="url(#clip110)" d="M951.317 1613.01 L931.043 1613.01 Q931.52 1622.52 933.716 1626.56 Q936.453 1631.53 941.196 1631.53 Q945.97 1631.53 948.612 1626.53 Q950.935 1622.14 951.317 1613.01 M951.222 1607.59 Q950.331 1598.56 948.612 1595.37 Q945.875 1590.34 941.196 1590.34 Q936.326 1590.34 933.748 1595.31 Q931.711 1599.32 931.106 1607.59 L951.222 1607.59 M941.196 1585.57 Q948.835 1585.57 953.195 1592.32 Q957.556 1599.03 957.556 1610.94 Q957.556 1622.81 953.195 1629.56 Q948.835 1636.34 941.196 1636.34 Q933.525 1636.34 929.197 1629.56 Q924.836 1622.81 924.836 1610.94 Q924.836 1599.03 929.197 1592.32 Q933.525 1585.57 941.196 1585.57 Z" fill="#000000" fill-rule="nonzero" fill-opacity="1" /><polyline clip-path="url(#clip112)" style="stroke:#000000; stroke-linecap:round; stroke-linejoin:round; stroke-width:2; stroke-opacity:0.1; fill:none" points="209.636,1288.78 1672.76,1288.78 "/>
<polyline clip-path="url(#clip112)" style="stroke:#000000; stroke-linecap:round; stroke-linejoin:round; stroke-width:2; stroke-opacity:0.1; fill:none" points="209.636,1070.74 1672.76,1070.74 "/>
<polyline clip-path="url(#clip112)" style="stroke:#000000; stroke-linecap:round; stroke-linejoin:round; stroke-width:2; stroke-opacity:0.1; fill:none" points="209.636,852.699 1672.76,852.699 "/>
<polyline clip-path="url(#clip112)" style="stroke:#000000; stroke-linecap:round; stroke-linejoin:round; stroke-width:2; stroke-opacity:0.1; fill:none" points="209.636,634.659 1672.76,634.659 "/>
<polyline clip-path="url(#clip112)" style="stroke:#000000; stroke-linecap:round; stroke-linejoin:round; stroke-width:2; stroke-opacity:0.1; fill:none" points="209.636,416.618 1672.76,416.618 "/>
<polyline clip-path="url(#clip112)" style="stroke:#000000; stroke-linecap:round; stroke-linejoin:round; stroke-width:2; stroke-opacity:0.1; fill:none" points="209.636,198.577 1672.76,198.577 "/>
<polyline clip-path="url(#clip110)" style="stroke:#000000; stroke-linecap:round; stroke-linejoin:round; stroke-width:4; stroke-opacity:1; fill:none" points="209.636,1500.94 209.636,47.2441 "/>
<polyline clip-path="url(#clip110)" style="stroke:#000000; stroke-linecap:round; stroke-linejoin:round; stroke-width:4; stroke-opacity:1; fill:none" points="209.636,1288.78 228.534,1288.78 "/>
<polyline clip-path="url(#clip110)" style="stroke:#000000; stroke-linecap:round; stroke-linejoin:round; stroke-width:4; stroke-opacity:1; fill:none" points="209.636,1070.74 228.534,1070.74 "/>
<polyline clip-path="url(#clip110)" style="stroke:#000000; stroke-linecap:round; stroke-linejoin:round; stroke-width:4; stroke-opacity:1; fill:none" points="209.636,852.699 228.534,852.699 "/>
<polyline clip-path="url(#clip110)" style="stroke:#000000; stroke-linecap:round; stroke-linejoin:round; stroke-width:4; stroke-opacity:1; fill:none" points="209.636,634.659 228.534,634.659 "/>
<polyline clip-path="url(#clip110)" style="stroke:#000000; stroke-linecap:round; stroke-linejoin:round; stroke-width:4; stroke-opacity:1; fill:none" points="209.636,416.618 228.534,416.618 "/>
<polyline clip-path="url(#clip110)" style="stroke:#000000; stroke-linecap:round; stroke-linejoin:round; stroke-width:4; stroke-opacity:1; fill:none" points="209.636,198.577 228.534,198.577 "/>
<path clip-path="url(#clip110)" d="M67.3319 1274.58 Q63.7208 1274.58 61.8921 1278.14 Q60.0865 1281.69 60.0865 1288.82 Q60.0865 1295.92 61.8921 1299.49 Q63.7208 1303.03 67.3319 1303.03 Q70.9661 1303.03 72.7717 1299.49 Q74.6004 1295.92 74.6004 1288.82 Q74.6004 1281.69 72.7717 1278.14 Q70.9661 1274.58 67.3319 1274.58 M67.3319 1270.88 Q73.142 1270.88 76.1976 1275.48 Q79.2763 1280.07 79.2763 1288.82 Q79.2763 1297.54 76.1976 1302.15 Q73.142 1306.73 67.3319 1306.73 Q61.5217 1306.73 58.443 1302.15 Q55.3875 1297.54 55.3875 1288.82 Q55.3875 1280.07 58.443 1275.48 Q61.5217 1270.88 67.3319 1270.88 Z" fill="#000000" fill-rule="nonzero" fill-opacity="1" /><path clip-path="url(#clip110)" d="M87.4938 1300.18 L92.378 1300.18 L92.378 1306.06 L87.4938 1306.06 L87.4938 1300.18 Z" fill="#000000" fill-rule="nonzero" fill-opacity="1" /><path clip-path="url(#clip110)" d="M112.563 1274.58 Q108.952 1274.58 107.123 1278.14 Q105.318 1281.69 105.318 1288.82 Q105.318 1295.92 107.123 1299.49 Q108.952 1303.03 112.563 1303.03 Q116.197 1303.03 118.003 1299.49 Q119.832 1295.92 119.832 1288.82 Q119.832 1281.69 118.003 1278.14 Q116.197 1274.58 112.563 1274.58 M112.563 1270.88 Q118.373 1270.88 121.429 1275.48 Q124.507 1280.07 124.507 1288.82 Q124.507 1297.54 121.429 1302.15 Q118.373 1306.73 112.563 1306.73 Q106.753 1306.73 103.674 1302.15 Q100.619 1297.54 100.619 1288.82 Q100.619 1280.07 103.674 1275.48 Q106.753 1270.88 112.563 1270.88 Z" fill="#000000" fill-rule="nonzero" fill-opacity="1" /><path clip-path="url(#clip110)" d="M142.725 1274.58 Q139.114 1274.58 137.285 1278.14 Q135.48 1281.69 135.48 1288.82 Q135.48 1295.92 137.285 1299.49 Q139.114 1303.03 142.725 1303.03 Q146.359 1303.03 148.165 1299.49 Q149.993 1295.92 149.993 1288.82 Q149.993 1281.69 148.165 1278.14 Q146.359 1274.58 142.725 1274.58 M142.725 1270.88 Q148.535 1270.88 151.591 1275.48 Q154.669 1280.07 154.669 1288.82 Q154.669 1297.54 151.591 1302.15 Q148.535 1306.73 142.725 1306.73 Q136.915 1306.73 133.836 1302.15 Q130.781 1297.54 130.781 1288.82 Q130.781 1280.07 133.836 1275.48 Q136.915 1270.88 142.725 1270.88 Z" fill="#000000" fill-rule="nonzero" fill-opacity="1" /><path clip-path="url(#clip110)" d="M162.933 1271.5 L181.29 1271.5 L181.29 1275.44 L167.216 1275.44 L167.216 1283.91 Q168.234 1283.56 169.253 1283.4 Q170.271 1283.21 171.29 1283.21 Q177.077 1283.21 180.456 1286.38 Q183.836 1289.56 183.836 1294.97 Q183.836 1300.55 180.364 1303.65 Q176.891 1306.73 170.572 1306.73 Q168.396 1306.73 166.128 1306.36 Q163.882 1305.99 161.475 1305.25 L161.475 1300.55 Q163.558 1301.69 165.78 1302.24 Q168.003 1302.8 170.479 1302.8 Q174.484 1302.8 176.822 1300.69 Q179.16 1298.58 179.16 1294.97 Q179.16 1291.36 176.822 1289.26 Q174.484 1287.15 170.479 1287.15 Q168.604 1287.15 166.729 1287.57 Q164.878 1287.98 162.933 1288.86 L162.933 1271.5 Z" fill="#000000" fill-rule="nonzero" fill-opacity="1" /><path clip-path="url(#clip110)" d="M66.3365 1056.54 Q62.7254 1056.54 60.8967 1060.1 Q59.0912 1063.65 59.0912 1070.77 Q59.0912 1077.88 60.8967 1081.45 Q62.7254 1084.99 66.3365 1084.99 Q69.9707 1084.99 71.7763 1081.45 Q73.605 1077.88 73.605 1070.77 Q73.605 1063.65 71.7763 1060.1 Q69.9707 1056.54 66.3365 1056.54 M66.3365 1052.83 Q72.1467 1052.83 75.2022 1057.44 Q78.2809 1062.02 78.2809 1070.77 Q78.2809 1079.5 75.2022 1084.11 Q72.1467 1088.69 66.3365 1088.69 Q60.5264 1088.69 57.4477 1084.11 Q54.3921 1079.5 54.3921 1070.77 Q54.3921 1062.02 57.4477 1057.44 Q60.5264 1052.83 66.3365 1052.83 Z" fill="#000000" fill-rule="nonzero" fill-opacity="1" /><path clip-path="url(#clip110)" d="M86.4984 1082.14 L91.3827 1082.14 L91.3827 1088.02 L86.4984 1088.02 L86.4984 1082.14 Z" fill="#000000" fill-rule="nonzero" fill-opacity="1" /><path clip-path="url(#clip110)" d="M111.568 1056.54 Q107.957 1056.54 106.128 1060.1 Q104.322 1063.65 104.322 1070.77 Q104.322 1077.88 106.128 1081.45 Q107.957 1084.99 111.568 1084.99 Q115.202 1084.99 117.008 1081.45 Q118.836 1077.88 118.836 1070.77 Q118.836 1063.65 117.008 1060.1 Q115.202 1056.54 111.568 1056.54 M111.568 1052.83 Q117.378 1052.83 120.433 1057.44 Q123.512 1062.02 123.512 1070.77 Q123.512 1079.5 120.433 1084.11 Q117.378 1088.69 111.568 1088.69 Q105.758 1088.69 102.679 1084.11 Q99.6234 1079.5 99.6234 1070.77 Q99.6234 1062.02 102.679 1057.44 Q105.758 1052.83 111.568 1052.83 Z" fill="#000000" fill-rule="nonzero" fill-opacity="1" /><path clip-path="url(#clip110)" d="M132.54 1084.08 L140.179 1084.08 L140.179 1057.72 L131.869 1059.39 L131.869 1055.13 L140.132 1053.46 L144.808 1053.46 L144.808 1084.08 L152.447 1084.08 L152.447 1088.02 L132.54 1088.02 L132.54 1084.08 Z" fill="#000000" fill-rule="nonzero" fill-opacity="1" /><path clip-path="url(#clip110)" d="M171.891 1056.54 Q168.28 1056.54 166.452 1060.1 Q164.646 1063.65 164.646 1070.77 Q164.646 1077.88 166.452 1081.45 Q168.28 1084.99 171.891 1084.99 Q175.526 1084.99 177.331 1081.45 Q179.16 1077.88 179.16 1070.77 Q179.16 1063.65 177.331 1060.1 Q175.526 1056.54 171.891 1056.54 M171.891 1052.83 Q177.702 1052.83 180.757 1057.44 Q183.836 1062.02 183.836 1070.77 Q183.836 1079.5 180.757 1084.11 Q177.702 1088.69 171.891 1088.69 Q166.081 1088.69 163.003 1084.11 Q159.947 1079.5 159.947 1070.77 Q159.947 1062.02 163.003 1057.44 Q166.081 1052.83 171.891 1052.83 Z" fill="#000000" fill-rule="nonzero" fill-opacity="1" /><path clip-path="url(#clip110)" d="M67.3319 838.498 Q63.7208 838.498 61.8921 842.063 Q60.0865 845.604 60.0865 852.734 Q60.0865 859.84 61.8921 863.405 Q63.7208 866.947 67.3319 866.947 Q70.9661 866.947 72.7717 863.405 Q74.6004 859.84 74.6004 852.734 Q74.6004 845.604 72.7717 842.063 Q70.9661 838.498 67.3319 838.498 M67.3319 834.794 Q73.142 834.794 76.1976 839.401 Q79.2763 843.984 79.2763 852.734 Q79.2763 861.461 76.1976 866.067 Q73.142 870.651 67.3319 870.651 Q61.5217 870.651 58.443 866.067 Q55.3875 861.461 55.3875 852.734 Q55.3875 843.984 58.443 839.401 Q61.5217 834.794 67.3319 834.794 Z" fill="#000000" fill-rule="nonzero" fill-opacity="1" /><path clip-path="url(#clip110)" d="M87.4938 864.1 L92.378 864.1 L92.378 869.979 L87.4938 869.979 L87.4938 864.1 Z" fill="#000000" fill-rule="nonzero" fill-opacity="1" /><path clip-path="url(#clip110)" d="M112.563 838.498 Q108.952 838.498 107.123 842.063 Q105.318 845.604 105.318 852.734 Q105.318 859.84 107.123 863.405 Q108.952 866.947 112.563 866.947 Q116.197 866.947 118.003 863.405 Q119.832 859.84 119.832 852.734 Q119.832 845.604 118.003 842.063 Q116.197 838.498 112.563 838.498 M112.563 834.794 Q118.373 834.794 121.429 839.401 Q124.507 843.984 124.507 852.734 Q124.507 861.461 121.429 866.067 Q118.373 870.651 112.563 870.651 Q106.753 870.651 103.674 866.067 Q100.619 861.461 100.619 852.734 Q100.619 843.984 103.674 839.401 Q106.753 834.794 112.563 834.794 Z" fill="#000000" fill-rule="nonzero" fill-opacity="1" /><path clip-path="url(#clip110)" d="M133.535 866.044 L141.174 866.044 L141.174 839.678 L132.864 841.345 L132.864 837.086 L141.128 835.419 L145.804 835.419 L145.804 866.044 L153.443 866.044 L153.443 869.979 L133.535 869.979 L133.535 866.044 Z" fill="#000000" fill-rule="nonzero" fill-opacity="1" /><path clip-path="url(#clip110)" d="M162.933 835.419 L181.29 835.419 L181.29 839.354 L167.216 839.354 L167.216 847.827 Q168.234 847.479 169.253 847.317 Q170.271 847.132 171.29 847.132 Q177.077 847.132 180.456 850.303 Q183.836 853.475 183.836 858.891 Q183.836 864.47 180.364 867.572 Q176.891 870.651 170.572 870.651 Q168.396 870.651 166.128 870.28 Q163.882 869.91 161.475 869.169 L161.475 864.47 Q163.558 865.604 165.78 866.16 Q168.003 866.715 170.479 866.715 Q174.484 866.715 176.822 864.609 Q179.16 862.502 179.16 858.891 Q179.16 855.28 176.822 853.174 Q174.484 851.067 170.479 851.067 Q168.604 851.067 166.729 851.484 Q164.878 851.901 162.933 852.78 L162.933 835.419 Z" fill="#000000" fill-rule="nonzero" fill-opacity="1" /><path clip-path="url(#clip110)" d="M66.3365 620.457 Q62.7254 620.457 60.8967 624.022 Q59.0912 627.564 59.0912 634.693 Q59.0912 641.8 60.8967 645.365 Q62.7254 648.906 66.3365 648.906 Q69.9707 648.906 71.7763 645.365 Q73.605 641.8 73.605 634.693 Q73.605 627.564 71.7763 624.022 Q69.9707 620.457 66.3365 620.457 M66.3365 616.754 Q72.1467 616.754 75.2022 621.36 Q78.2809 625.943 78.2809 634.693 Q78.2809 643.42 75.2022 648.027 Q72.1467 652.61 66.3365 652.61 Q60.5264 652.61 57.4477 648.027 Q54.3921 643.42 54.3921 634.693 Q54.3921 625.943 57.4477 621.36 Q60.5264 616.754 66.3365 616.754 Z" fill="#000000" fill-rule="nonzero" fill-opacity="1" /><path clip-path="url(#clip110)" d="M86.4984 646.059 L91.3827 646.059 L91.3827 651.939 L86.4984 651.939 L86.4984 646.059 Z" fill="#000000" fill-rule="nonzero" fill-opacity="1" /><path clip-path="url(#clip110)" d="M111.568 620.457 Q107.957 620.457 106.128 624.022 Q104.322 627.564 104.322 634.693 Q104.322 641.8 106.128 645.365 Q107.957 648.906 111.568 648.906 Q115.202 648.906 117.008 645.365 Q118.836 641.8 118.836 634.693 Q118.836 627.564 117.008 624.022 Q115.202 620.457 111.568 620.457 M111.568 616.754 Q117.378 616.754 120.433 621.36 Q123.512 625.943 123.512 634.693 Q123.512 643.42 120.433 648.027 Q117.378 652.61 111.568 652.61 Q105.758 652.61 102.679 648.027 Q99.6234 643.42 99.6234 634.693 Q99.6234 625.943 102.679 621.36 Q105.758 616.754 111.568 616.754 Z" fill="#000000" fill-rule="nonzero" fill-opacity="1" /><path clip-path="url(#clip110)" d="M135.757 648.003 L152.077 648.003 L152.077 651.939 L130.132 651.939 L130.132 648.003 Q132.794 645.249 137.378 640.619 Q141.984 635.966 143.165 634.624 Q145.41 632.101 146.29 630.365 Q147.193 628.605 147.193 626.916 Q147.193 624.161 145.248 622.425 Q143.327 620.689 140.225 620.689 Q138.026 620.689 135.572 621.453 Q133.142 622.217 130.364 623.767 L130.364 619.045 Q133.188 617.911 135.642 617.332 Q138.095 616.754 140.132 616.754 Q145.503 616.754 148.697 619.439 Q151.892 622.124 151.892 626.615 Q151.892 628.744 151.081 630.666 Q150.294 632.564 148.188 635.156 Q147.609 635.828 144.507 639.045 Q141.406 642.24 135.757 648.003 Z" fill="#000000" fill-rule="nonzero" fill-opacity="1" /><path clip-path="url(#clip110)" d="M171.891 620.457 Q168.28 620.457 166.452 624.022 Q164.646 627.564 164.646 634.693 Q164.646 641.8 166.452 645.365 Q168.28 648.906 171.891 648.906 Q175.526 648.906 177.331 645.365 Q179.16 641.8 179.16 634.693 Q179.16 627.564 177.331 624.022 Q175.526 620.457 171.891 620.457 M171.891 616.754 Q177.702 616.754 180.757 621.36 Q183.836 625.943 183.836 634.693 Q183.836 643.42 180.757 648.027 Q177.702 652.61 171.891 652.61 Q166.081 652.61 163.003 648.027 Q159.947 643.42 159.947 634.693 Q159.947 625.943 163.003 621.36 Q166.081 616.754 171.891 616.754 Z" fill="#000000" fill-rule="nonzero" fill-opacity="1" /><path clip-path="url(#clip110)" d="M67.3319 402.417 Q63.7208 402.417 61.8921 405.981 Q60.0865 409.523 60.0865 416.653 Q60.0865 423.759 61.8921 427.324 Q63.7208 430.866 67.3319 430.866 Q70.9661 430.866 72.7717 427.324 Q74.6004 423.759 74.6004 416.653 Q74.6004 409.523 72.7717 405.981 Q70.9661 402.417 67.3319 402.417 M67.3319 398.713 Q73.142 398.713 76.1976 403.319 Q79.2763 407.903 79.2763 416.653 Q79.2763 425.38 76.1976 429.986 Q73.142 434.569 67.3319 434.569 Q61.5217 434.569 58.443 429.986 Q55.3875 425.38 55.3875 416.653 Q55.3875 407.903 58.443 403.319 Q61.5217 398.713 67.3319 398.713 Z" fill="#000000" fill-rule="nonzero" fill-opacity="1" /><path clip-path="url(#clip110)" d="M87.4938 428.018 L92.378 428.018 L92.378 433.898 L87.4938 433.898 L87.4938 428.018 Z" fill="#000000" fill-rule="nonzero" fill-opacity="1" /><path clip-path="url(#clip110)" d="M112.563 402.417 Q108.952 402.417 107.123 405.981 Q105.318 409.523 105.318 416.653 Q105.318 423.759 107.123 427.324 Q108.952 430.866 112.563 430.866 Q116.197 430.866 118.003 427.324 Q119.832 423.759 119.832 416.653 Q119.832 409.523 118.003 405.981 Q116.197 402.417 112.563 402.417 M112.563 398.713 Q118.373 398.713 121.429 403.319 Q124.507 407.903 124.507 416.653 Q124.507 425.38 121.429 429.986 Q118.373 434.569 112.563 434.569 Q106.753 434.569 103.674 429.986 Q100.619 425.38 100.619 416.653 Q100.619 407.903 103.674 403.319 Q106.753 398.713 112.563 398.713 Z" fill="#000000" fill-rule="nonzero" fill-opacity="1" /><path clip-path="url(#clip110)" d="M136.753 429.963 L153.072 429.963 L153.072 433.898 L131.128 433.898 L131.128 429.963 Q133.79 427.208 138.373 422.579 Q142.98 417.926 144.16 416.583 Q146.406 414.06 147.285 412.324 Q148.188 410.565 148.188 408.875 Q148.188 406.12 146.243 404.384 Q144.322 402.648 141.22 402.648 Q139.021 402.648 136.568 403.412 Q134.137 404.176 131.359 405.727 L131.359 401.005 Q134.183 399.87 136.637 399.292 Q139.091 398.713 141.128 398.713 Q146.498 398.713 149.693 401.398 Q152.887 404.083 152.887 408.574 Q152.887 410.704 152.077 412.625 Q151.29 414.523 149.183 417.116 Q148.605 417.787 145.503 421.005 Q142.401 424.199 136.753 429.963 Z" fill="#000000" fill-rule="nonzero" fill-opacity="1" /><path clip-path="url(#clip110)" d="M162.933 399.338 L181.29 399.338 L181.29 403.273 L167.216 403.273 L167.216 411.745 Q168.234 411.398 169.253 411.236 Q170.271 411.051 171.29 411.051 Q177.077 411.051 180.456 414.222 Q183.836 417.393 183.836 422.81 Q183.836 428.389 180.364 431.491 Q176.891 434.569 170.572 434.569 Q168.396 434.569 166.128 434.199 Q163.882 433.829 161.475 433.088 L161.475 428.389 Q163.558 429.523 165.78 430.079 Q168.003 430.634 170.479 430.634 Q174.484 430.634 176.822 428.528 Q179.16 426.421 179.16 422.81 Q179.16 419.199 176.822 417.093 Q174.484 414.986 170.479 414.986 Q168.604 414.986 166.729 415.403 Q164.878 415.819 162.933 416.699 L162.933 399.338 Z" fill="#000000" fill-rule="nonzero" fill-opacity="1" /><path clip-path="url(#clip110)" d="M66.3365 184.376 Q62.7254 184.376 60.8967 187.941 Q59.0912 191.482 59.0912 198.612 Q59.0912 205.718 60.8967 209.283 Q62.7254 212.825 66.3365 212.825 Q69.9707 212.825 71.7763 209.283 Q73.605 205.718 73.605 198.612 Q73.605 191.482 71.7763 187.941 Q69.9707 184.376 66.3365 184.376 M66.3365 180.672 Q72.1467 180.672 75.2022 185.279 Q78.2809 189.862 78.2809 198.612 Q78.2809 207.339 75.2022 211.945 Q72.1467 216.529 66.3365 216.529 Q60.5264 216.529 57.4477 211.945 Q54.3921 207.339 54.3921 198.612 Q54.3921 189.862 57.4477 185.279 Q60.5264 180.672 66.3365 180.672 Z" fill="#000000" fill-rule="nonzero" fill-opacity="1" /><path clip-path="url(#clip110)" d="M86.4984 209.978 L91.3827 209.978 L91.3827 215.857 L86.4984 215.857 L86.4984 209.978 Z" fill="#000000" fill-rule="nonzero" fill-opacity="1" /><path clip-path="url(#clip110)" d="M111.568 184.376 Q107.957 184.376 106.128 187.941 Q104.322 191.482 104.322 198.612 Q104.322 205.718 106.128 209.283 Q107.957 212.825 111.568 212.825 Q115.202 212.825 117.008 209.283 Q118.836 205.718 118.836 198.612 Q118.836 191.482 117.008 187.941 Q115.202 184.376 111.568 184.376 M111.568 180.672 Q117.378 180.672 120.433 185.279 Q123.512 189.862 123.512 198.612 Q123.512 207.339 120.433 211.945 Q117.378 216.529 111.568 216.529 Q105.758 216.529 102.679 211.945 Q99.6234 207.339 99.6234 198.612 Q99.6234 189.862 102.679 185.279 Q105.758 180.672 111.568 180.672 Z" fill="#000000" fill-rule="nonzero" fill-opacity="1" /><path clip-path="url(#clip110)" d="M145.896 197.223 Q149.253 197.941 151.128 200.209 Q153.026 202.478 153.026 205.811 Q153.026 210.927 149.507 213.728 Q145.989 216.529 139.507 216.529 Q137.331 216.529 135.017 216.089 Q132.725 215.672 130.271 214.816 L130.271 210.302 Q132.216 211.436 134.531 212.015 Q136.845 212.593 139.369 212.593 Q143.767 212.593 146.058 210.857 Q148.373 209.121 148.373 205.811 Q148.373 202.756 146.22 201.043 Q144.091 199.306 140.271 199.306 L136.244 199.306 L136.244 195.464 L140.456 195.464 Q143.906 195.464 145.734 194.098 Q147.563 192.709 147.563 190.117 Q147.563 187.455 145.665 186.043 Q143.79 184.607 140.271 184.607 Q138.35 184.607 136.151 185.024 Q133.952 185.441 131.313 186.32 L131.313 182.154 Q133.975 181.413 136.29 181.043 Q138.628 180.672 140.688 180.672 Q146.012 180.672 149.114 183.103 Q152.216 185.51 152.216 189.631 Q152.216 192.501 150.572 194.492 Q148.929 196.459 145.896 197.223 Z" fill="#000000" fill-rule="nonzero" fill-opacity="1" /><path clip-path="url(#clip110)" d="M171.891 184.376 Q168.28 184.376 166.452 187.941 Q164.646 191.482 164.646 198.612 Q164.646 205.718 166.452 209.283 Q168.28 212.825 171.891 212.825 Q175.526 212.825 177.331 209.283 Q179.16 205.718 179.16 198.612 Q179.16 191.482 177.331 187.941 Q175.526 184.376 171.891 184.376 M171.891 180.672 Q177.702 180.672 180.757 185.279 Q183.836 189.862 183.836 198.612 Q183.836 207.339 180.757 211.945 Q177.702 216.529 171.891 216.529 Q166.081 216.529 163.003 211.945 Q159.947 207.339 159.947 198.612 Q159.947 189.862 163.003 185.279 Q166.081 180.672 171.891 180.672 Z" fill="#000000" fill-rule="nonzero" fill-opacity="1" /><polyline clip-path="url(#clip112)" style="stroke:#009af9; stroke-linecap:round; stroke-linejoin:round; stroke-width:4; stroke-opacity:1; fill:none" points="251.045,1236.3 252.772,1242.08 254.5,1247.82 256.228,1253.51 257.955,1259.14 259.683,1264.73 261.41,1270.25 263.138,1275.71 264.865,1281.1 266.593,1286.43 268.32,1291.67 270.048,1296.84 271.775,1301.93 273.503,1306.93 275.23,1311.84 276.958,1316.66 278.686,1321.39 280.413,1326.02 282.141,1330.55 283.868,1334.99 285.596,1339.31 287.323,1343.54 289.051,1347.66 290.778,1351.67 292.506,1355.57 294.233,1359.37 295.961,1363.06 297.688,1366.64 299.416,1370.11 301.144,1373.47 302.871,1376.73 304.599,1379.88 306.326,1382.92 308.054,1385.86 309.781,1388.69 311.509,1391.43 313.236,1394.06 314.964,1396.59 316.691,1399.03 318.419,1401.37 320.146,1403.62 321.874,1405.78 323.601,1407.85 325.329,1409.84 327.057,1411.74 328.784,1413.57 330.512,1415.31 332.239,1416.98 333.967,1418.57 335.694,1420.1 337.422,1421.56 339.149,1422.95 340.877,1424.28 342.604,1425.55 344.332,1426.76 346.059,1427.91 347.787,1429.02 349.515,1430.07 351.242,1431.08 352.97,1432.04 354.697,1432.95 356.425,1433.83 358.152,1434.67 359.88,1435.46 361.607,1436.23 363.335,1436.96 365.062,1437.66 366.79,1438.33 368.517,1438.97 370.245,1439.58 371.973,1440.17 373.7,1440.74 375.428,1441.28 377.155,1441.8 378.883,1442.3 380.61,1442.79 382.338,1443.25 384.065,1443.7 385.793,1444.13 387.52,1444.55 389.248,1444.96 390.975,1445.35 392.703,1445.73 394.43,1446.1 396.158,1446.46 397.886,1446.8 399.613,1447.14 401.341,1447.47 403.068,1447.79 404.796,1448.1 406.523,1448.4 408.251,1448.7 409.978,1448.98 411.706,1449.27 413.433,1449.54 415.161,1449.81 416.888,1450.07 418.616,1450.33 420.344,1450.58 422.071,1450.83 423.799,1451.07 425.526,1451.31 427.254,1451.54 428.981,1451.76 430.709,1451.99 432.436,1452.21 434.164,1452.42 435.891,1452.63 437.619,1452.84 439.346,1453.04 441.074,1453.24 442.802,1453.43 444.529,1453.62 446.257,1453.81 447.984,1453.99 449.712,1454.17 451.439,1454.35 453.167,1454.52 454.894,1454.69 456.622,1454.86 458.349,1455.03 460.077,1455.19 461.804,1455.34 463.532,1455.5 465.259,1455.65 466.987,1455.8 468.715,1455.94 470.442,1456.08 472.17,1456.22 473.897,1456.36 475.625,1456.49 477.352,1456.62 479.08,1456.75 480.807,1456.88 482.535,1457 484.262,1457.12 485.99,1457.23 487.717,1457.35 489.445,1457.46 491.173,1457.57 492.9,1457.67 494.628,1457.78 496.355,1457.88 498.083,1457.97 499.81,1458.07 501.538,1458.16 503.265,1458.25 504.993,1458.34 506.72,1458.42 508.448,1458.5 510.175,1458.58 511.903,1458.66 513.631,1458.73 515.358,1458.81 517.086,1458.87 518.813,1458.94 520.541,1459.01 522.268,1459.07 523.996,1459.13 525.723,1459.18 527.451,1459.24 529.178,1459.29 530.906,1459.34 532.633,1459.38 534.361,1459.43 536.089,1459.47 537.816,1459.51 539.544,1459.55 541.271,1459.58 542.999,1459.61 544.726,1459.64 546.454,1459.67 548.181,1459.69 549.909,1459.71 551.636,1459.73 553.364,1459.75 555.091,1459.76 556.819,1459.78 558.546,1459.78 560.274,1459.79 562.002,1459.8 563.729,1459.8 565.457,1459.8 567.184,1459.79 568.912,1459.79 570.639,1459.78 572.367,1459.77 574.094,1459.76 575.822,1459.74 577.549,1459.72 579.277,1459.7 581.004,1459.68 582.732,1459.65 584.46,1459.62 586.187,1459.59 587.915,1459.56 589.642,1459.52 591.37,1459.48 593.097,1459.44 594.825,1459.39 596.552,1459.35 598.28,1459.3 600.007,1459.24 601.735,1459.19 603.462,1459.13 605.19,1459.07 606.918,1459.01 608.645,1458.94 610.373,1458.87 612.1,1458.8 613.828,1458.73 615.555,1458.65 617.283,1458.57 619.01,1458.49 620.738,1458.4 622.465,1458.31 624.193,1458.22 625.92,1458.13 627.648,1458.03 629.375,1457.93 631.103,1457.83 632.831,1457.72 634.558,1457.61 636.286,1457.5 638.013,1457.39 639.741,1457.27 641.468,1457.15 643.196,1457.02 644.923,1456.9 646.651,1456.77 648.378,1456.63 650.106,1456.5 651.833,1456.36 653.561,1456.22 655.289,1456.07 657.016,1455.92 658.744,1455.77 660.471,1455.61 662.199,1455.46 663.926,1455.29 665.654,1455.13 667.381,1454.96 669.109,1454.79 670.836,1454.62 672.564,1454.44 674.291,1454.26 676.019,1454.07 677.747,1453.89 679.474,1453.7 681.202,1453.5 682.929,1453.3 684.657,1453.1 686.384,1452.9 688.112,1452.69 689.839,1452.48 691.567,1452.27 693.294,1452.05 695.022,1451.83 696.749,1451.61 698.477,1451.38 700.205,1451.15 701.932,1450.92 703.66,1450.68 705.387,1450.44 707.115,1450.2 708.842,1449.95 710.57,1449.71 712.297,1449.45 714.025,1449.2 715.752,1448.94 717.48,1448.68 719.207,1448.42 720.935,1448.15 722.662,1447.88 724.39,1447.61 726.118,1447.33 727.845,1447.06 729.573,1446.78 731.3,1446.49 733.028,1446.21 734.755,1445.92 736.483,1445.63 738.21,1445.34 739.938,1445.04 741.665,1444.75 743.393,1444.45 745.12,1444.15 746.848,1443.85 748.576,1443.54 750.303,1443.24 752.031,1442.93 753.758,1442.62 755.486,1442.31 757.213,1442 758.941,1441.69 760.668,1441.37 762.396,1441.06 764.123,1440.74 765.851,1440.43 767.578,1440.11 769.306,1439.79 771.034,1439.47 772.761,1439.15 774.489,1438.83 776.216,1438.51 777.944,1438.19 779.671,1437.87 781.399,1437.54 783.126,1437.22 784.854,1436.9 786.581,1436.57 788.309,1436.25 790.036,1435.92 791.764,1435.6 793.491,1435.27 795.219,1434.94 796.947,1434.61 798.674,1434.28 800.402,1433.95 802.129,1433.61 803.857,1433.28 805.584,1432.94 807.312,1432.59 809.039,1432.25 810.767,1431.9 812.494,1431.54 814.222,1431.18 815.949,1430.82 817.677,1430.45 819.405,1430.07 821.132,1429.69 822.86,1429.29 824.587,1428.89 826.315,1428.48 828.042,1428.05 829.77,1427.62 831.497,1427.17 833.225,1426.71 834.952,1426.23 836.68,1425.73 838.407,1425.22 840.135,1424.69 841.863,1424.13 843.59,1423.56 845.318,1422.96 847.045,1422.34 848.773,1421.68 850.5,1421 852.228,1420.3 853.955,1419.55 855.683,1418.78 857.41,1417.97 859.138,1417.13 860.865,1416.24 862.593,1415.32 864.321,1414.35 866.048,1413.34 867.776,1412.29 869.503,1411.18 871.231,1410.03 872.958,1408.83 874.686,1407.58 876.413,1406.28 878.141,1404.92 879.868,1403.51 881.596,1402.04 883.323,1400.52 885.051,1398.93 886.778,1397.29 888.506,1395.59 890.234,1393.82 891.961,1392 893.689,1390.12 895.416,1388.17 897.144,1386.17 898.871,1384.1 900.599,1381.98 902.326,1379.8 904.054,1377.55 905.781,1375.25 907.509,1372.9 909.236,1370.49 910.964,1368.02 912.692,1365.51 914.419,1362.94 916.147,1360.33 917.874,1357.67 919.602,1354.97 921.329,1352.22 923.057,1349.44 924.784,1346.62 926.512,1343.78 928.239,1340.9 929.967,1337.99 931.694,1335.07 933.422,1332.12 935.15,1329.16 936.877,1326.18 938.605,1323.2 940.332,1320.21 942.06,1317.21 943.787,1314.22 945.515,1311.24 947.242,1308.26 948.97,1305.29 950.697,1302.34 952.425,1299.41 954.152,1296.5 955.88,1293.61 957.607,1290.75 959.335,1287.93 961.063,1285.13 962.79,1282.38 964.518,1279.66 966.245,1276.98 967.973,1274.35 969.7,1271.76 971.428,1269.22 973.155,1266.73 974.883,1264.29 976.61,1261.91 978.338,1259.57 980.065,1257.29 981.793,1255.07 983.521,1252.9 985.248,1250.78 986.976,1248.72 988.703,1246.72 990.431,1244.78 992.158,1242.89 993.886,1241.05 995.613,1239.27 997.341,1237.55 999.068,1235.88 1000.8,1234.26 1002.52,1232.69 1004.25,1231.17 1005.98,1229.7 1007.71,1228.28 1009.43,1226.9 1011.16,1225.57 1012.89,1224.27 1014.62,1223.02 1016.34,1221.81 1018.07,1220.63 1019.8,1219.49 1021.53,1218.39 1023.25,1217.31 1024.98,1216.26 1026.71,1215.24 1028.44,1214.24 1030.16,1213.27 1031.89,1212.32 1033.62,1211.39 1035.35,1210.47 1037.07,1209.57 1038.8,1208.68 1040.53,1207.81 1042.26,1206.94 1043.98,1206.09 1045.71,1205.24 1047.44,1204.39 1049.17,1203.55 1050.89,1202.71 1052.62,1201.86 1054.35,1201.02 1056.08,1200.17 1057.8,1199.32 1059.53,1198.47 1061.26,1197.61 1062.99,1196.73 1064.71,1195.85 1066.44,1194.96 1068.17,1194.06 1069.9,1193.15 1071.62,1192.22 1073.35,1191.27 1075.08,1190.32 1076.81,1189.34 1078.54,1188.35 1080.26,1187.34 1081.99,1186.31 1083.72,1185.26 1085.45,1184.19 1087.17,1183.1 1088.9,1181.99 1090.63,1180.86 1092.36,1179.71 1094.08,1178.53 1095.81,1177.32 1097.54,1176.1 1099.27,1174.85 1100.99,1173.57 1102.72,1172.26 1104.45,1170.93 1106.18,1169.58 1107.9,1168.19 1109.63,1166.78 1111.36,1165.34 1113.09,1163.87 1114.81,1162.37 1116.54,1160.85 1118.27,1159.29 1120,1157.7 1121.72,1156.08 1123.45,1154.43 1125.18,1152.75 1126.91,1151.04 1128.63,1149.29 1130.36,1147.51 1132.09,1145.7 1133.82,1143.85 1135.54,1141.97 1137.27,1140.06 1139,1138.11 1140.73,1136.12 1142.45,1134.1 1144.18,1132.04 1145.91,1129.94 1147.64,1127.81 1149.36,1125.64 1151.09,1123.43 1152.82,1121.18 1154.55,1118.9 1156.27,1116.57 1158,1114.2 1159.73,1111.79 1161.46,1109.34 1163.18,1106.85 1164.91,1104.31 1166.64,1101.74 1168.37,1099.11 1170.09,1096.45 1171.82,1093.74 1173.55,1090.98 1175.28,1088.18 1177,1085.32 1178.73,1082.43 1180.46,1079.48 1182.19,1076.48 1183.91,1073.44 1185.64,1070.34 1187.37,1067.2 1189.1,1064 1190.82,1060.74 1192.55,1057.44 1194.28,1054.07 1196.01,1050.66 1197.74,1047.18 1199.46,1043.65 1201.19,1040.06 1202.92,1036.42 1204.65,1032.71 1206.37,1028.93 1208.1,1025.1 1209.83,1021.2 1211.56,1017.24 1213.28,1013.21 1215.01,1009.11 1216.74,1004.94 1218.47,1000.71 1220.19,996.395 1221.92,992.011 1223.65,987.552 1225.38,983.015 1227.1,978.399 1228.83,973.703 1230.56,968.923 1232.29,964.059 1234.01,959.109 1235.74,954.069 1237.47,948.938 1239.2,943.713 1240.92,938.392 1242.65,932.973 1244.38,927.453 1246.11,921.828 1247.83,916.097 1249.56,910.257 1251.29,904.304 1253.02,898.235 1254.74,892.047 1256.47,885.738 1258.2,879.303 1259.93,872.739 1261.65,866.044 1263.38,859.213 1265.11,852.242 1266.84,845.129 1268.56,837.87 1270.29,830.461 1272.02,822.898 1273.75,815.178 1275.47,807.298 1277.2,799.254 1278.93,791.042 1280.66,782.659 1282.38,774.103 1284.11,765.37 1285.84,756.457 1287.57,747.361 1289.29,738.081 1291.02,728.614 1292.75,718.959 1294.48,709.113 1296.2,699.076 1297.93,688.847 1299.66,678.425 1301.39,667.812 1303.11,657.007 1304.84,646.012 1306.57,634.828 1308.3,623.459 1310.03,611.906 1311.75,600.175 1313.48,588.269 1315.21,576.194 1316.94,563.955 1318.66,551.56 1320.39,539.016 1322.12,526.332 1323.85,513.516 1325.57,500.58 1327.3,487.534 1329.03,474.391 1330.76,461.163 1332.48,447.865 1334.21,434.511 1335.94,421.116 1337.67,407.698 1339.39,394.274 1341.12,380.861 1342.85,367.48 1344.58,354.149 1346.3,340.89 1348.03,327.723 1349.76,314.671 1351.49,301.755 1353.21,288.999 1354.94,276.426 1356.67,264.059 1358.4,251.924 1360.12,240.042 1361.85,228.44 1363.58,217.142 1365.31,206.17 1367.03,195.551 1368.76,185.307 1370.49,175.463 1372.22,166.04 1373.94,157.062 1375.67,148.551 1377.4,140.528 1379.13,133.013 1380.85,126.026 1382.58,119.584 1384.31,113.707 1386.04,108.408 1387.76,103.705 1389.49,99.6092 1391.22,96.1341 1392.95,93.2901 1394.67,91.0864 1396.4,89.5308 1398.13,88.6293 1399.86,88.3864 1401.58,88.8049 1403.31,89.8859 1405.04,91.6288 1406.77,94.0313 1408.49,97.0895 1410.22,100.798 1411.95,105.149 1413.68,110.134 1415.4,115.742 1417.13,121.961 1418.86,128.779 1420.59,136.179 1422.31,144.145 1424.04,152.661 1425.77,161.707 1427.5,171.262 1429.23,181.307 1430.95,191.819 1432.68,202.775 1434.41,214.152 1436.14,225.925 1437.86,238.07 1439.59,250.561 1441.32,263.373 1443.05,276.479 1444.77,289.854 1446.5,303.471 1448.23,317.305 1449.96,331.329 1451.68,345.517 1453.41,359.845 1455.14,374.287 1456.87,388.818 1458.59,403.415 1460.32,418.054 1462.05,432.712 1463.78,447.368 1465.5,462 1467.23,476.589 1468.96,491.115 1470.69,505.559 1472.41,519.904 1474.14,534.134 1475.87,548.233 1477.6,562.187 1479.32,575.983 1481.05,589.608 1482.78,603.052 1484.51,616.304 1486.23,629.356 1487.96,642.199 1489.69,654.826 1491.42,667.231 1493.14,679.409 1494.87,691.357 1496.6,703.071 1498.33,714.548 1500.05,725.788 1501.78,736.79 1503.51,747.553 1505.24,758.079 1506.96,768.369 1508.69,778.426 1510.42,788.252 1512.15,797.851 1513.87,807.227 1515.6,816.383 1517.33,825.326 1519.06,834.06 1520.78,842.591 1522.51,850.925 1524.24,859.068 1525.97,867.027 1527.69,874.808 1529.42,882.418 1531.15,889.865 1532.88,897.156 1534.6,904.298 1536.33,911.298 1538.06,918.164 1539.79,924.904 1541.51,931.524 1543.24,938.033 1544.97,944.437 1546.7,950.745 1548.43,956.962 1550.15,963.097 1551.88,969.156 1553.61,975.146 1555.34,981.074 1557.06,986.946 1558.79,992.768 1560.52,998.547 1562.25,1004.29 1563.97,1010 1565.7,1015.68 1567.43,1021.35 1569.16,1026.99 1570.88,1032.63 1572.61,1038.26 1574.34,1043.88 1576.07,1049.51 1577.79,1055.14 1579.52,1060.77 1581.25,1066.42 1582.98,1072.08 1584.7,1077.76 1586.43,1083.45 1588.16,1089.16 1589.89,1094.89 1591.61,1100.64 1593.34,1106.42 1595.07,1112.21 1596.8,1118.03 1598.52,1123.87 1600.25,1129.73 1601.98,1135.61 1603.71,1141.5 1605.43,1147.42 1607.16,1153.34 1608.89,1159.29 1610.62,1165.24 1612.34,1171.2 1614.07,1177.16 1615.8,1183.13 1617.53,1189.09 1619.25,1195.05 1620.98,1201 1622.71,1206.94 1624.44,1212.86 1626.16,1218.77 1627.89,1224.64 1629.62,1230.49 1631.35,1236.3 "/>
<path clip-path="url(#clip110)" d="M258.407 199.381 L1090.36 199.381 L1090.36 95.7006 L258.407 95.7006  Z" fill="#ffffff" fill-rule="evenodd" fill-opacity="1"/>
<polyline clip-path="url(#clip110)" style="stroke:#000000; stroke-linecap:round; stroke-linejoin:round; stroke-width:4; stroke-opacity:1; fill:none" points="258.407,199.381 1090.36,199.381 1090.36,95.7006 258.407,95.7006 258.407,199.381 "/>
<polyline clip-path="url(#clip110)" style="stroke:#009af9; stroke-linecap:round; stroke-linejoin:round; stroke-width:4; stroke-opacity:1; fill:none" points="274.663,147.541 372.205,147.541 "/>
<path clip-path="url(#clip110)" d="M408.809 143.872 Q410.406 141.001 412.628 139.636 Q414.85 138.27 417.86 138.27 Q421.911 138.27 424.11 141.117 Q426.309 143.941 426.309 149.173 L426.309 164.821 L422.026 164.821 L422.026 149.311 Q422.026 145.585 420.707 143.779 Q419.387 141.974 416.679 141.974 Q413.369 141.974 411.448 144.173 Q409.526 146.372 409.526 150.168 L409.526 164.821 L405.244 164.821 L405.244 149.311 Q405.244 145.561 403.925 143.779 Q402.605 141.974 399.85 141.974 Q396.587 141.974 394.665 144.196 Q392.744 146.395 392.744 150.168 L392.744 164.821 L388.462 164.821 L388.462 138.895 L392.744 138.895 L392.744 142.923 Q394.202 140.538 396.239 139.404 Q398.276 138.27 401.077 138.27 Q403.901 138.27 405.869 139.705 Q407.86 141.14 408.809 143.872 Z" fill="#000000" fill-rule="nonzero" fill-opacity="1" /><path clip-path="url(#clip110)" d="M456.98 150.793 L456.98 152.876 L437.397 152.876 Q437.674 157.274 440.035 159.589 Q442.42 161.881 446.656 161.881 Q449.109 161.881 451.401 161.279 Q453.716 160.677 455.984 159.473 L455.984 163.501 Q453.693 164.473 451.285 164.983 Q448.878 165.492 446.401 165.492 Q440.197 165.492 436.563 161.881 Q432.952 158.27 432.952 152.112 Q432.952 145.747 436.378 142.02 Q439.827 138.27 445.66 138.27 Q450.892 138.27 453.924 141.649 Q456.98 145.006 456.98 150.793 M452.721 149.543 Q452.674 146.048 450.753 143.964 Q448.855 141.881 445.707 141.881 Q442.142 141.881 439.989 143.895 Q437.86 145.909 437.535 149.566 L452.721 149.543 Z" fill="#000000" fill-rule="nonzero" fill-opacity="1" /><path clip-path="url(#clip110)" d="M475.753 151.788 Q470.591 151.788 468.6 152.969 Q466.609 154.149 466.609 156.997 Q466.609 159.265 468.091 160.608 Q469.595 161.927 472.165 161.927 Q475.707 161.927 477.836 159.427 Q479.989 156.904 479.989 152.737 L479.989 151.788 L475.753 151.788 M484.248 150.029 L484.248 164.821 L479.989 164.821 L479.989 160.885 Q478.531 163.247 476.355 164.381 Q474.179 165.492 471.031 165.492 Q467.049 165.492 464.688 163.27 Q462.35 161.024 462.35 157.274 Q462.35 152.899 465.267 150.677 Q468.207 148.455 474.017 148.455 L479.989 148.455 L479.989 148.038 Q479.989 145.099 478.045 143.501 Q476.123 141.881 472.628 141.881 Q470.406 141.881 468.299 142.413 Q466.193 142.946 464.248 144.011 L464.248 140.075 Q466.586 139.173 468.785 138.733 Q470.984 138.27 473.068 138.27 Q478.693 138.27 481.47 141.186 Q484.248 144.103 484.248 150.029 Z" fill="#000000" fill-rule="nonzero" fill-opacity="1" /><path clip-path="url(#clip110)" d="M509.549 139.659 L509.549 143.686 Q507.743 142.761 505.799 142.298 Q503.855 141.835 501.771 141.835 Q498.6 141.835 497.003 142.807 Q495.429 143.779 495.429 145.723 Q495.429 147.205 496.563 148.061 Q497.697 148.895 501.123 149.659 L502.581 149.983 Q507.118 150.955 509.017 152.737 Q510.938 154.497 510.938 157.668 Q510.938 161.279 508.067 163.385 Q505.22 165.492 500.22 165.492 Q498.137 165.492 495.868 165.075 Q493.623 164.682 491.123 163.872 L491.123 159.473 Q493.484 160.7 495.776 161.325 Q498.068 161.927 500.313 161.927 Q503.322 161.927 504.943 160.909 Q506.563 159.867 506.563 157.992 Q506.563 156.256 505.382 155.33 Q504.225 154.404 500.267 153.548 L498.785 153.2 Q494.827 152.367 493.068 150.654 Q491.308 148.918 491.308 145.909 Q491.308 142.251 493.901 140.261 Q496.493 138.27 501.262 138.27 Q503.623 138.27 505.706 138.617 Q507.79 138.964 509.549 139.659 Z" fill="#000000" fill-rule="nonzero" fill-opacity="1" /><path clip-path="url(#clip110)" d="M517.28 154.589 L517.28 138.895 L521.54 138.895 L521.54 154.427 Q521.54 158.108 522.975 159.96 Q524.41 161.788 527.28 161.788 Q530.729 161.788 532.72 159.589 Q534.734 157.39 534.734 153.594 L534.734 138.895 L538.993 138.895 L538.993 164.821 L534.734 164.821 L534.734 160.839 Q533.183 163.2 531.123 164.358 Q529.086 165.492 526.378 165.492 Q521.91 165.492 519.595 162.714 Q517.28 159.936 517.28 154.589 M527.998 138.27 L527.998 138.27 Z" fill="#000000" fill-rule="nonzero" fill-opacity="1" /><path clip-path="url(#clip110)" d="M562.789 142.876 Q562.072 142.46 561.215 142.274 Q560.382 142.066 559.364 142.066 Q555.752 142.066 553.808 144.427 Q551.887 146.765 551.887 151.163 L551.887 164.821 L547.604 164.821 L547.604 138.895 L551.887 138.895 L551.887 142.923 Q553.229 140.561 555.382 139.427 Q557.535 138.27 560.614 138.27 Q561.053 138.27 561.586 138.339 Q562.118 138.386 562.766 138.501 L562.789 142.876 Z" fill="#000000" fill-rule="nonzero" fill-opacity="1" /><path clip-path="url(#clip110)" d="M588.391 150.793 L588.391 152.876 L568.808 152.876 Q569.086 157.274 571.447 159.589 Q573.831 161.881 578.067 161.881 Q580.521 161.881 582.812 161.279 Q585.127 160.677 587.396 159.473 L587.396 163.501 Q585.104 164.473 582.697 164.983 Q580.289 165.492 577.812 165.492 Q571.609 165.492 567.975 161.881 Q564.363 158.27 564.363 152.112 Q564.363 145.747 567.789 142.02 Q571.238 138.27 577.072 138.27 Q582.303 138.27 585.336 141.649 Q588.391 145.006 588.391 150.793 M584.132 149.543 Q584.086 146.048 582.164 143.964 Q580.266 141.881 577.118 141.881 Q573.553 141.881 571.4 143.895 Q569.271 145.909 568.947 149.566 L584.132 149.543 Z" fill="#000000" fill-rule="nonzero" fill-opacity="1" /><path clip-path="url(#clip110)" d="M615.567 143.872 Q617.164 141.001 619.386 139.636 Q621.609 138.27 624.618 138.27 Q628.669 138.27 630.868 141.117 Q633.067 143.941 633.067 149.173 L633.067 164.821 L628.784 164.821 L628.784 149.311 Q628.784 145.585 627.465 143.779 Q626.146 141.974 623.437 141.974 Q620.127 141.974 618.206 144.173 Q616.285 146.372 616.285 150.168 L616.285 164.821 L612.002 164.821 L612.002 149.311 Q612.002 145.561 610.683 143.779 Q609.363 141.974 606.609 141.974 Q603.345 141.974 601.423 144.196 Q599.502 146.395 599.502 150.168 L599.502 164.821 L595.22 164.821 L595.22 138.895 L599.502 138.895 L599.502 142.923 Q600.961 140.538 602.998 139.404 Q605.035 138.27 607.835 138.27 Q610.66 138.27 612.627 139.705 Q614.618 141.14 615.567 143.872 Z" fill="#000000" fill-rule="nonzero" fill-opacity="1" /><path clip-path="url(#clip110)" d="M663.738 150.793 L663.738 152.876 L644.155 152.876 Q644.433 157.274 646.794 159.589 Q649.178 161.881 653.414 161.881 Q655.868 161.881 658.159 161.279 Q660.474 160.677 662.743 159.473 L662.743 163.501 Q660.451 164.473 658.044 164.983 Q655.636 165.492 653.159 165.492 Q646.956 165.492 643.321 161.881 Q639.71 158.27 639.71 152.112 Q639.71 145.747 643.136 142.02 Q646.585 138.27 652.419 138.27 Q657.65 138.27 660.682 141.649 Q663.738 145.006 663.738 150.793 M659.479 149.543 Q659.432 146.048 657.511 143.964 Q655.613 141.881 652.465 141.881 Q648.9 141.881 646.747 143.895 Q644.618 145.909 644.294 149.566 L659.479 149.543 Z" fill="#000000" fill-rule="nonzero" fill-opacity="1" /><path clip-path="url(#clip110)" d="M692.279 149.173 L692.279 164.821 L688.02 164.821 L688.02 149.311 Q688.02 145.631 686.585 143.802 Q685.15 141.974 682.28 141.974 Q678.83 141.974 676.84 144.173 Q674.849 146.372 674.849 150.168 L674.849 164.821 L670.567 164.821 L670.567 138.895 L674.849 138.895 L674.849 142.923 Q676.377 140.585 678.437 139.427 Q680.52 138.27 683.229 138.27 Q687.696 138.27 689.988 141.048 Q692.279 143.802 692.279 149.173 Z" fill="#000000" fill-rule="nonzero" fill-opacity="1" /><path clip-path="url(#clip110)" d="M704.988 131.534 L704.988 138.895 L713.761 138.895 L713.761 142.205 L704.988 142.205 L704.988 156.279 Q704.988 159.45 705.844 160.353 Q706.724 161.256 709.386 161.256 L713.761 161.256 L713.761 164.821 L709.386 164.821 Q704.455 164.821 702.58 162.992 Q700.705 161.14 700.705 156.279 L700.705 142.205 L697.58 142.205 L697.58 138.895 L700.705 138.895 L700.705 131.534 L704.988 131.534 Z" fill="#000000" fill-rule="nonzero" fill-opacity="1" /><path clip-path="url(#clip110)" d="M735.89 139.659 L735.89 143.686 Q734.085 142.761 732.14 142.298 Q730.196 141.835 728.113 141.835 Q724.941 141.835 723.344 142.807 Q721.77 143.779 721.77 145.723 Q721.77 147.205 722.904 148.061 Q724.039 148.895 727.464 149.659 L728.923 149.983 Q733.46 150.955 735.358 152.737 Q737.279 154.497 737.279 157.668 Q737.279 161.279 734.409 163.385 Q731.562 165.492 726.562 165.492 Q724.478 165.492 722.21 165.075 Q719.965 164.682 717.465 163.872 L717.465 159.473 Q719.826 160.7 722.117 161.325 Q724.409 161.927 726.654 161.927 Q729.664 161.927 731.284 160.909 Q732.904 159.867 732.904 157.992 Q732.904 156.256 731.724 155.33 Q730.566 154.404 726.608 153.548 L725.127 153.2 Q721.168 152.367 719.409 150.654 Q717.65 148.918 717.65 145.909 Q717.65 142.251 720.242 140.261 Q722.835 138.27 727.603 138.27 Q729.964 138.27 732.048 138.617 Q734.131 138.964 735.89 139.659 Z" fill="#000000" fill-rule="nonzero" fill-opacity="1" /><path clip-path="url(#clip110)" d="M769.362 128.849 Q766.261 134.173 764.756 139.381 Q763.251 144.589 763.251 149.936 Q763.251 155.284 764.756 160.538 Q766.284 165.77 769.362 171.071 L765.659 171.071 Q762.187 165.631 760.45 160.376 Q758.737 155.122 758.737 149.936 Q758.737 144.774 760.45 139.543 Q762.163 134.312 765.659 128.849 L769.362 128.849 Z" fill="#000000" fill-rule="nonzero" fill-opacity="1" /><path clip-path="url(#clip110)" d="M799.802 150.793 L799.802 152.876 L780.219 152.876 Q780.497 157.274 782.858 159.589 Q785.242 161.881 789.478 161.881 Q791.932 161.881 794.223 161.279 Q796.538 160.677 798.807 159.473 L798.807 163.501 Q796.515 164.473 794.108 164.983 Q791.7 165.492 789.223 165.492 Q783.02 165.492 779.385 161.881 Q775.774 158.27 775.774 152.112 Q775.774 145.747 779.2 142.02 Q782.649 138.27 788.483 138.27 Q793.714 138.27 796.747 141.649 Q799.802 145.006 799.802 150.793 M795.543 149.543 Q795.497 146.048 793.575 143.964 Q791.677 141.881 788.529 141.881 Q784.964 141.881 782.811 143.895 Q780.682 145.909 780.358 149.566 L795.543 149.543 Z" fill="#000000" fill-rule="nonzero" fill-opacity="1" /><path clip-path="url(#clip110)" d="M827.51 138.895 L818.135 151.511 L827.996 164.821 L822.973 164.821 L815.427 154.635 L807.881 164.821 L802.858 164.821 L812.927 151.256 L803.714 138.895 L808.737 138.895 L815.612 148.131 L822.487 138.895 L827.51 138.895 Z" fill="#000000" fill-rule="nonzero" fill-opacity="1" /><path clip-path="url(#clip110)" d="M838.228 131.534 L838.228 138.895 L847.001 138.895 L847.001 142.205 L838.228 142.205 L838.228 156.279 Q838.228 159.45 839.084 160.353 Q839.964 161.256 842.626 161.256 L847.001 161.256 L847.001 164.821 L842.626 164.821 Q837.695 164.821 835.82 162.992 Q833.945 161.14 833.945 156.279 L833.945 142.205 L830.82 142.205 L830.82 138.895 L833.945 138.895 L833.945 131.534 L838.228 131.534 Z" fill="#000000" fill-rule="nonzero" fill-opacity="1" /><path clip-path="url(#clip110)" d="M867.626 142.876 Q866.908 142.46 866.052 142.274 Q865.218 142.066 864.2 142.066 Q860.589 142.066 858.644 144.427 Q856.723 146.765 856.723 151.163 L856.723 164.821 L852.441 164.821 L852.441 138.895 L856.723 138.895 L856.723 142.923 Q858.066 140.561 860.218 139.427 Q862.371 138.27 865.45 138.27 Q865.89 138.27 866.422 138.339 Q866.954 138.386 867.603 138.501 L867.626 142.876 Z" fill="#000000" fill-rule="nonzero" fill-opacity="1" /><path clip-path="url(#clip110)" d="M883.876 151.788 Q878.714 151.788 876.723 152.969 Q874.732 154.149 874.732 156.997 Q874.732 159.265 876.214 160.608 Q877.718 161.927 880.288 161.927 Q883.829 161.927 885.959 159.427 Q888.112 156.904 888.112 152.737 L888.112 151.788 L883.876 151.788 M892.371 150.029 L892.371 164.821 L888.112 164.821 L888.112 160.885 Q886.653 163.247 884.478 164.381 Q882.302 165.492 879.153 165.492 Q875.172 165.492 872.811 163.27 Q870.473 161.024 870.473 157.274 Q870.473 152.899 873.39 150.677 Q876.329 148.455 882.14 148.455 L888.112 148.455 L888.112 148.038 Q888.112 145.099 886.167 143.501 Q884.246 141.881 880.751 141.881 Q878.528 141.881 876.422 142.413 Q874.316 142.946 872.371 144.011 L872.371 140.075 Q874.709 139.173 876.908 138.733 Q879.107 138.27 881.19 138.27 Q886.815 138.27 889.593 141.186 Q892.371 144.103 892.371 150.029 Z" fill="#000000" fill-rule="nonzero" fill-opacity="1" /><path clip-path="url(#clip110)" d="M919.801 139.89 L919.801 143.872 Q917.996 142.876 916.167 142.39 Q914.362 141.881 912.51 141.881 Q908.366 141.881 906.075 144.52 Q903.783 147.136 903.783 151.881 Q903.783 156.626 906.075 159.265 Q908.366 161.881 912.51 161.881 Q914.362 161.881 916.167 161.395 Q917.996 160.885 919.801 159.89 L919.801 163.825 Q918.019 164.659 916.098 165.075 Q914.2 165.492 912.047 165.492 Q906.19 165.492 902.741 161.811 Q899.292 158.131 899.292 151.881 Q899.292 145.538 902.764 141.904 Q906.26 138.27 912.325 138.27 Q914.292 138.27 916.167 138.687 Q918.042 139.08 919.801 139.89 Z" fill="#000000" fill-rule="nonzero" fill-opacity="1" /><path clip-path="url(#clip110)" d="M931.422 131.534 L931.422 138.895 L940.195 138.895 L940.195 142.205 L931.422 142.205 L931.422 156.279 Q931.422 159.45 932.278 160.353 Q933.158 161.256 935.82 161.256 L940.195 161.256 L940.195 164.821 L935.82 164.821 Q930.889 164.821 929.014 162.992 Q927.139 161.14 927.139 156.279 L927.139 142.205 L924.014 142.205 L924.014 138.895 L927.139 138.895 L927.139 131.534 L931.422 131.534 Z" fill="#000000" fill-rule="nonzero" fill-opacity="1" /><path clip-path="url(#clip110)" d="M945.797 138.895 L950.056 138.895 L950.056 164.821 L945.797 164.821 L945.797 138.895 M945.797 128.802 L950.056 128.802 L950.056 134.196 L945.797 134.196 L945.797 128.802 Z" fill="#000000" fill-rule="nonzero" fill-opacity="1" /><path clip-path="url(#clip110)" d="M969.014 141.881 Q965.588 141.881 963.597 144.566 Q961.607 147.228 961.607 151.881 Q961.607 156.534 963.574 159.219 Q965.565 161.881 969.014 161.881 Q972.417 161.881 974.408 159.196 Q976.398 156.51 976.398 151.881 Q976.398 147.274 974.408 144.589 Q972.417 141.881 969.014 141.881 M969.014 138.27 Q974.57 138.27 977.741 141.881 Q980.912 145.492 980.912 151.881 Q980.912 158.247 977.741 161.881 Q974.57 165.492 969.014 165.492 Q963.435 165.492 960.264 161.881 Q957.116 158.247 957.116 151.881 Q957.116 145.492 960.264 141.881 Q963.435 138.27 969.014 138.27 Z" fill="#000000" fill-rule="nonzero" fill-opacity="1" /><path clip-path="url(#clip110)" d="M1009.52 149.173 L1009.52 164.821 L1005.26 164.821 L1005.26 149.311 Q1005.26 145.631 1003.83 143.802 Q1002.39 141.974 999.523 141.974 Q996.074 141.974 994.083 144.173 Q992.093 146.372 992.093 150.168 L992.093 164.821 L987.81 164.821 L987.81 138.895 L992.093 138.895 L992.093 142.923 Q993.62 140.585 995.681 139.427 Q997.764 138.27 1000.47 138.27 Q1004.94 138.27 1007.23 141.048 Q1009.52 143.802 1009.52 149.173 Z" fill="#000000" fill-rule="nonzero" fill-opacity="1" /><path clip-path="url(#clip110)" d="M1019.11 158.941 L1023.99 158.941 L1023.99 164.821 L1019.11 164.821 L1019.11 158.941 M1019.11 140.307 L1023.99 140.307 L1023.99 146.186 L1019.11 146.186 L1019.11 140.307 Z" fill="#000000" fill-rule="nonzero" fill-opacity="1" /><path clip-path="url(#clip110)" d="M1045.17 145.677 Q1042.02 145.677 1040.17 147.83 Q1038.34 149.983 1038.34 153.733 Q1038.34 157.46 1040.17 159.635 Q1042.02 161.788 1045.17 161.788 Q1048.32 161.788 1050.15 159.635 Q1052 157.46 1052 153.733 Q1052 149.983 1050.15 147.83 Q1048.32 145.677 1045.17 145.677 M1054.45 131.025 L1054.45 135.284 Q1052.69 134.45 1050.89 134.011 Q1049.11 133.571 1047.35 133.571 Q1042.72 133.571 1040.26 136.696 Q1037.83 139.821 1037.49 146.14 Q1038.85 144.126 1040.91 143.061 Q1042.97 141.974 1045.45 141.974 Q1050.66 141.974 1053.67 145.145 Q1056.7 148.293 1056.7 153.733 Q1056.7 159.057 1053.55 162.274 Q1050.4 165.492 1045.17 165.492 Q1039.18 165.492 1036 160.909 Q1032.83 156.302 1032.83 147.575 Q1032.83 139.381 1036.72 134.52 Q1040.61 129.636 1047.16 129.636 Q1048.92 129.636 1050.7 129.983 Q1052.51 130.33 1054.45 131.025 Z" fill="#000000" fill-rule="nonzero" fill-opacity="1" /><path clip-path="url(#clip110)" d="M1063.48 128.849 L1067.18 128.849 Q1070.66 134.312 1072.37 139.543 Q1074.11 144.774 1074.11 149.936 Q1074.11 155.122 1072.37 160.376 Q1070.66 165.631 1067.18 171.071 L1063.48 171.071 Q1066.56 165.77 1068.06 160.538 Q1069.59 155.284 1069.59 149.936 Q1069.59 144.589 1068.06 139.381 Q1066.56 134.173 1063.48 128.849 Z" fill="#000000" fill-rule="nonzero" fill-opacity="1" /></svg>
