<?xml version="1.0" encoding="utf-8"?>
<svg xmlns="http://www.w3.org/2000/svg" xmlns:xlink="http://www.w3.org/1999/xlink" width="430" height="430" viewBox="0 0 1720 1720">
<defs>
  <clipPath id="clip360">
    <rect x="0" y="0" width="1720" height="1720"/>
  </clipPath>
</defs>
<path clip-path="url(#clip360)" d="M0 1720 L1720 1720 L1720 0 L0 0  Z" fill="#ffffff" fill-rule="evenodd" fill-opacity="1"/>
<defs>
  <clipPath id="clip361">
    <rect x="344" y="172" width="1205" height="1205"/>
  </clipPath>
</defs>
<path clip-path="url(#clip360)" d="M209.636 1500.94 L1609.76 1500.94 L1609.76 47.2441 L209.636 47.2441  Z" fill="#ffffff" fill-rule="evenodd" fill-opacity="1"/>
<defs>
  <clipPath id="clip362">
    <rect x="209" y="47" width="1401" height="1455"/>
  </clipPath>
</defs>
<polyline clip-path="url(#clip362)" style="stroke:#000000; stroke-linecap:round; stroke-linejoin:round; stroke-width:2; stroke-opacity:0.1; fill:none" points="249.262,1500.94 249.262,47.2441 "/>
<polyline clip-path="url(#clip362)" style="stroke:#000000; stroke-linecap:round; stroke-linejoin:round; stroke-width:2; stroke-opacity:0.1; fill:none" points="459.486,1500.94 459.486,47.2441 "/>
<polyline clip-path="url(#clip362)" style="stroke:#000000; stroke-linecap:round; stroke-linejoin:round; stroke-width:2; stroke-opacity:0.1; fill:none" points="669.71,1500.94 669.71,47.2441 "/>
<polyline clip-path="url(#clip362)" style="stroke:#000000; stroke-linecap:round; stroke-linejoin:round; stroke-width:2; stroke-opacity:0.1; fill:none" points="879.934,1500.94 879.934,47.2441 "/>
<polyline clip-path="url(#clip362)" style="stroke:#000000; stroke-linecap:round; stroke-linejoin:round; stroke-width:2; stroke-opacity:0.1; fill:none" points="1090.16,1500.94 1090.16,47.2441 "/>
<polyline clip-path="url(#clip362)" style="stroke:#000000; stroke-linecap:round; stroke-linejoin:round; stroke-width:2; stroke-opacity:0.1; fill:none" points="1300.38,1500.94 1300.38,47.2441 "/>
<polyline clip-path="url(#clip362)" style="stroke:#000000; stroke-linecap:round; stroke-linejoin:round; stroke-width:2; stroke-opacity:0.1; fill:none" points="1510.61,1500.94 1510.61,47.2441 "/>
<polyline clip-path="url(#clip360)" style="stroke:#000000; stroke-linecap:round; stroke-linejoin:round; stroke-width:4; stroke-opacity:1; fill:none" points="209.636,1500.94 1609.76,1500.94 "/>
<polyline clip-path="url(#clip360)" style="stroke:#000000; stroke-linecap:round; stroke-linejoin:round; stroke-width:4; stroke-opacity:1; fill:none" points="249.262,1500.94 249.262,1482.04 "/>
<polyline clip-path="url(#clip360)" style="stroke:#000000; stroke-linecap:round; stroke-linejoin:round; stroke-width:4; stroke-opacity:1; fill:none" points="459.486,1500.94 459.486,1482.04 "/>
<polyline clip-path="url(#clip360)" style="stroke:#000000; stroke-linecap:round; stroke-linejoin:round; stroke-width:4; stroke-opacity:1; fill:none" points="669.71,1500.94 669.71,1482.04 "/>
<polyline clip-path="url(#clip360)" style="stroke:#000000; stroke-linecap:round; stroke-linejoin:round; stroke-width:4; stroke-opacity:1; fill:none" points="879.934,1500.94 879.934,1482.04 "/>
<polyline clip-path="url(#clip360)" style="stroke:#000000; stroke-linecap:round; stroke-linejoin:round; stroke-width:4; stroke-opacity:1; fill:none" points="1090.16,1500.94 1090.16,1482.04 "/>
<polyline clip-path="url(#clip360)" style="stroke:#000000; stroke-linecap:round; stroke-linejoin:round; stroke-width:4; stroke-opacity:1; fill:none" points="1300.38,1500.94 1300.38,1482.04 "/>
<polyline clip-path="url(#clip360)" style="stroke:#000000; stroke-linecap:round; stroke-linejoin:round; stroke-width:4; stroke-opacity:1; fill:none" points="1510.61,1500.94 1510.61,1482.04 "/>
<path clip-path="url(#clip360)" d="M249.262 1526.42 Q245.651 1526.42 243.822 1529.98 Q242.017 1533.52 242.017 1540.65 Q242.017 1547.76 243.822 1551.33 Q245.651 1554.87 249.262 1554.87 Q252.896 1554.87 254.702 1551.33 Q256.531 1547.76 256.531 1540.65 Q256.531 1533.52 254.702 1529.98 Q252.896 1526.42 249.262 1526.42 M249.262 1522.71 Q255.072 1522.71 258.128 1527.32 Q261.207 1531.9 261.207 1540.65 Q261.207 1549.38 258.128 1553.99 Q255.072 1558.57 249.262 1558.57 Q243.452 1558.57 240.373 1553.99 Q237.318 1549.38 237.318 1540.65 Q237.318 1531.9 240.373 1527.32 Q243.452 1522.71 249.262 1522.71 Z" fill="#000000" fill-rule="nonzero" fill-opacity="1" /><path clip-path="url(#clip360)" d="M449.868 1553.96 L457.507 1553.96 L457.507 1527.6 L449.197 1529.27 L449.197 1525.01 L457.461 1523.34 L462.136 1523.34 L462.136 1553.96 L469.775 1553.96 L469.775 1557.9 L449.868 1557.9 L449.868 1553.96 Z" fill="#000000" fill-rule="nonzero" fill-opacity="1" /><path clip-path="url(#clip360)" d="M664.363 1553.96 L680.682 1553.96 L680.682 1557.9 L658.738 1557.9 L658.738 1553.96 Q661.4 1551.21 665.983 1546.58 Q670.589 1541.93 671.77 1540.59 Q674.015 1538.06 674.895 1536.33 Q675.798 1534.57 675.798 1532.88 Q675.798 1530.12 673.853 1528.39 Q671.932 1526.65 668.83 1526.65 Q666.631 1526.65 664.177 1527.41 Q661.747 1528.18 658.969 1529.73 L658.969 1525.01 Q661.793 1523.87 664.247 1523.29 Q666.701 1522.71 668.738 1522.71 Q674.108 1522.71 677.302 1525.4 Q680.497 1528.09 680.497 1532.58 Q680.497 1534.71 679.687 1536.63 Q678.9 1538.52 676.793 1541.12 Q676.214 1541.79 673.113 1545.01 Q670.011 1548.2 664.363 1553.96 Z" fill="#000000" fill-rule="nonzero" fill-opacity="1" /><path clip-path="url(#clip360)" d="M884.181 1539.27 Q887.538 1539.98 889.413 1542.25 Q891.311 1544.52 891.311 1547.85 Q891.311 1552.97 887.792 1555.77 Q884.274 1558.57 877.792 1558.57 Q875.617 1558.57 873.302 1558.13 Q871.01 1557.71 868.556 1556.86 L868.556 1552.34 Q870.501 1553.48 872.816 1554.06 Q875.13 1554.64 877.654 1554.64 Q882.052 1554.64 884.343 1552.9 Q886.658 1551.16 886.658 1547.85 Q886.658 1544.8 884.505 1543.09 Q882.376 1541.35 878.556 1541.35 L874.529 1541.35 L874.529 1537.51 L878.742 1537.51 Q882.191 1537.51 884.019 1536.14 Q885.848 1534.75 885.848 1532.16 Q885.848 1529.5 883.95 1528.09 Q882.075 1526.65 878.556 1526.65 Q876.635 1526.65 874.436 1527.07 Q872.237 1527.48 869.598 1528.36 L869.598 1524.2 Q872.26 1523.46 874.575 1523.09 Q876.913 1522.71 878.973 1522.71 Q884.297 1522.71 887.399 1525.15 Q890.501 1527.55 890.501 1531.67 Q890.501 1534.54 888.857 1536.53 Q887.214 1538.5 884.181 1539.27 Z" fill="#000000" fill-rule="nonzero" fill-opacity="1" /><path clip-path="url(#clip360)" d="M1093.17 1527.41 L1081.36 1545.86 L1093.17 1545.86 L1093.17 1527.41 M1091.94 1523.34 L1097.82 1523.34 L1097.82 1545.86 L1102.75 1545.86 L1102.75 1549.75 L1097.82 1549.75 L1097.82 1557.9 L1093.17 1557.9 L1093.17 1549.75 L1077.56 1549.75 L1077.56 1545.24 L1091.94 1523.34 Z" fill="#000000" fill-rule="nonzero" fill-opacity="1" /><path clip-path="url(#clip360)" d="M1290.66 1523.34 L1309.02 1523.34 L1309.02 1527.28 L1294.94 1527.28 L1294.94 1535.75 Q1295.96 1535.4 1296.98 1535.24 Q1298 1535.05 1299.02 1535.05 Q1304.8 1535.05 1308.18 1538.22 Q1311.56 1541.4 1311.56 1546.81 Q1311.56 1552.39 1308.09 1555.49 Q1304.62 1558.57 1298.3 1558.57 Q1296.12 1558.57 1293.85 1558.2 Q1291.61 1557.83 1289.2 1557.09 L1289.2 1552.39 Q1291.28 1553.52 1293.51 1554.08 Q1295.73 1554.64 1298.21 1554.64 Q1302.21 1554.64 1304.55 1552.53 Q1306.89 1550.42 1306.89 1546.81 Q1306.89 1543.2 1304.55 1541.09 Q1302.21 1538.99 1298.21 1538.99 Q1296.33 1538.99 1294.46 1539.4 Q1292.6 1539.82 1290.66 1540.7 L1290.66 1523.34 Z" fill="#000000" fill-rule="nonzero" fill-opacity="1" /><path clip-path="url(#clip360)" d="M1511.01 1538.76 Q1507.86 1538.76 1506.01 1540.91 Q1504.18 1543.06 1504.18 1546.81 Q1504.18 1550.54 1506.01 1552.71 Q1507.86 1554.87 1511.01 1554.87 Q1514.16 1554.87 1515.99 1552.71 Q1517.84 1550.54 1517.84 1546.81 Q1517.84 1543.06 1515.99 1540.91 Q1514.16 1538.76 1511.01 1538.76 M1520.29 1524.1 L1520.29 1528.36 Q1518.53 1527.53 1516.73 1527.09 Q1514.95 1526.65 1513.19 1526.65 Q1508.56 1526.65 1506.1 1529.77 Q1503.67 1532.9 1503.33 1539.22 Q1504.69 1537.21 1506.75 1536.14 Q1508.81 1535.05 1511.29 1535.05 Q1516.5 1535.05 1519.51 1538.22 Q1522.54 1541.37 1522.54 1546.81 Q1522.54 1552.14 1519.39 1555.35 Q1516.24 1558.57 1511.01 1558.57 Q1505.01 1558.57 1501.84 1553.99 Q1498.67 1549.38 1498.67 1540.65 Q1498.67 1532.46 1502.56 1527.6 Q1506.45 1522.71 1513 1522.71 Q1514.76 1522.71 1516.54 1523.06 Q1518.35 1523.41 1520.29 1524.1 Z" fill="#000000" fill-rule="nonzero" fill-opacity="1" /><path clip-path="url(#clip360)" d="M919.821 1613.01 L899.547 1613.01 Q900.024 1622.52 902.22 1626.56 Q904.957 1631.53 909.7 1631.53 Q914.474 1631.53 917.116 1626.53 Q919.439 1622.14 919.821 1613.01 M919.726 1607.59 Q918.835 1598.56 917.116 1595.37 Q914.379 1590.34 909.7 1590.34 Q904.83 1590.34 902.252 1595.31 Q900.215 1599.32 899.61 1607.59 L919.726 1607.59 M909.7 1585.57 Q917.339 1585.57 921.699 1592.32 Q926.06 1599.03 926.06 1610.94 Q926.06 1622.81 921.699 1629.56 Q917.339 1636.34 909.7 1636.34 Q902.029 1636.34 897.7 1629.56 Q893.34 1622.81 893.34 1610.94 Q893.34 1599.03 897.7 1592.32 Q902.029 1585.57 909.7 1585.57 Z" fill="#000000" fill-rule="nonzero" fill-opacity="1" /><polyline clip-path="url(#clip362)" style="stroke:#000000; stroke-linecap:round; stroke-linejoin:round; stroke-width:2; stroke-opacity:0.1; fill:none" points="209.636,1288.78 1609.76,1288.78 "/>
<polyline clip-path="url(#clip362)" style="stroke:#000000; stroke-linecap:round; stroke-linejoin:round; stroke-width:2; stroke-opacity:0.1; fill:none" points="209.636,1070.74 1609.76,1070.74 "/>
<polyline clip-path="url(#clip362)" style="stroke:#000000; stroke-linecap:round; stroke-linejoin:round; stroke-width:2; stroke-opacity:0.1; fill:none" points="209.636,852.699 1609.76,852.699 "/>
<polyline clip-path="url(#clip362)" style="stroke:#000000; stroke-linecap:round; stroke-linejoin:round; stroke-width:2; stroke-opacity:0.1; fill:none" points="209.636,634.659 1609.76,634.659 "/>
<polyline clip-path="url(#clip362)" style="stroke:#000000; stroke-linecap:round; stroke-linejoin:round; stroke-width:2; stroke-opacity:0.1; fill:none" points="209.636,416.618 1609.76,416.618 "/>
<polyline clip-path="url(#clip362)" style="stroke:#000000; stroke-linecap:round; stroke-linejoin:round; stroke-width:2; stroke-opacity:0.1; fill:none" points="209.636,198.577 1609.76,198.577 "/>
<polyline clip-path="url(#clip360)" style="stroke:#000000; stroke-linecap:round; stroke-linejoin:round; stroke-width:4; stroke-opacity:1; fill:none" points="209.636,1500.94 209.636,47.2441 "/>
<polyline clip-path="url(#clip360)" style="stroke:#000000; stroke-linecap:round; stroke-linejoin:round; stroke-width:4; stroke-opacity:1; fill:none" points="209.636,1288.78 228.534,1288.78 "/>
<polyline clip-path="url(#clip360)" style="stroke:#000000; stroke-linecap:round; stroke-linejoin:round; stroke-width:4; stroke-opacity:1; fill:none" points="209.636,1070.74 228.534,1070.74 "/>
<polyline clip-path="url(#clip360)" style="stroke:#000000; stroke-linecap:round; stroke-linejoin:round; stroke-width:4; stroke-opacity:1; fill:none" points="209.636,852.699 228.534,852.699 "/>
<polyline clip-path="url(#clip360)" style="stroke:#000000; stroke-linecap:round; stroke-linejoin:round; stroke-width:4; stroke-opacity:1; fill:none" points="209.636,634.659 228.534,634.659 "/>
<polyline clip-path="url(#clip360)" style="stroke:#000000; stroke-linecap:round; stroke-linejoin:round; stroke-width:4; stroke-opacity:1; fill:none" points="209.636,416.618 228.534,416.618 "/>
<polyline clip-path="url(#clip360)" style="stroke:#000000; stroke-linecap:round; stroke-linejoin:round; stroke-width:4; stroke-opacity:1; fill:none" points="209.636,198.577 228.534,198.577 "/>
<path clip-path="url(#clip360)" d="M67.3319 1274.58 Q63.7208 1274.58 61.8921 1278.14 Q60.0865 1281.69 60.0865 1288.82 Q60.0865 1295.92 61.8921 1299.49 Q63.7208 1303.03 67.3319 1303.03 Q70.9661 1303.03 72.7717 1299.49 Q74.6004 1295.92 74.6004 1288.82 Q74.6004 1281.69 72.7717 1278.14 Q70.9661 1274.58 67.3319 1274.58 M67.3319 1270.88 Q73.142 1270.88 76.1976 1275.48 Q79.2763 1280.07 79.2763 1288.82 Q79.2763 1297.54 76.1976 1302.15 Q73.142 1306.73 67.3319 1306.73 Q61.5217 1306.73 58.443 1302.15 Q55.3875 1297.54 55.3875 1288.82 Q55.3875 1280.07 58.443 1275.48 Q61.5217 1270.88 67.3319 1270.88 Z" fill="#000000" fill-rule="nonzero" fill-opacity="1" /><path clip-path="url(#clip360)" d="M87.4938 1300.18 L92.378 1300.18 L92.378 1306.06 L87.4938 1306.06 L87.4938 1300.18 Z" fill="#000000" fill-rule="nonzero" fill-opacity="1" /><path clip-path="url(#clip360)" d="M112.563 1274.58 Q108.952 1274.58 107.123 1278.14 Q105.318 1281.69 105.318 1288.82 Q105.318 1295.92 107.123 1299.49 Q108.952 1303.03 112.563 1303.03 Q116.197 1303.03 118.003 1299.49 Q119.832 1295.92 119.832 1288.82 Q119.832 1281.69 118.003 1278.14 Q116.197 1274.58 112.563 1274.58 M112.563 1270.88 Q118.373 1270.88 121.429 1275.48 Q124.507 1280.07 124.507 1288.82 Q124.507 1297.54 121.429 1302.15 Q118.373 1306.73 112.563 1306.73 Q106.753 1306.73 103.674 1302.15 Q100.619 1297.54 100.619 1288.82 Q100.619 1280.07 103.674 1275.48 Q106.753 1270.88 112.563 1270.88 Z" fill="#000000" fill-rule="nonzero" fill-opacity="1" /><path clip-path="url(#clip360)" d="M142.725 1274.58 Q139.114 1274.58 137.285 1278.14 Q135.48 1281.69 135.48 1288.82 Q135.48 1295.92 137.285 1299.49 Q139.114 1303.03 142.725 1303.03 Q146.359 1303.03 148.165 1299.49 Q149.993 1295.92 149.993 1288.82 Q149.993 1281.69 148.165 1278.14 Q146.359 1274.58 142.725 1274.58 M142.725 1270.88 Q148.535 1270.88 151.591 1275.48 Q154.669 1280.07 154.669 1288.82 Q154.669 1297.54 151.591 1302.15 Q148.535 1306.73 142.725 1306.73 Q136.915 1306.73 133.836 1302.15 Q130.781 1297.54 130.781 1288.82 Q130.781 1280.07 133.836 1275.48 Q136.915 1270.88 142.725 1270.88 Z" fill="#000000" fill-rule="nonzero" fill-opacity="1" /><path clip-path="url(#clip360)" d="M162.933 1271.5 L181.29 1271.5 L181.29 1275.44 L167.216 1275.44 L167.216 1283.91 Q168.234 1283.56 169.253 1283.4 Q170.271 1283.21 171.29 1283.21 Q177.077 1283.21 180.456 1286.38 Q183.836 1289.56 183.836 1294.97 Q183.836 1300.55 180.364 1303.65 Q176.891 1306.73 170.572 1306.73 Q168.396 1306.73 166.128 1306.36 Q163.882 1305.99 161.475 1305.25 L161.475 1300.55 Q163.558 1301.69 165.78 1302.24 Q168.003 1302.8 170.479 1302.8 Q174.484 1302.8 176.822 1300.69 Q179.16 1298.58 179.16 1294.97 Q179.16 1291.36 176.822 1289.26 Q174.484 1287.15 170.479 1287.15 Q168.604 1287.15 166.729 1287.57 Q164.878 1287.98 162.933 1288.86 L162.933 1271.5 Z" fill="#000000" fill-rule="nonzero" fill-opacity="1" /><path clip-path="url(#clip360)" d="M66.3365 1056.54 Q62.7254 1056.54 60.8967 1060.1 Q59.0912 1063.65 59.0912 1070.77 Q59.0912 1077.88 60.8967 1081.45 Q62.7254 1084.99 66.3365 1084.99 Q69.9707 1084.99 71.7763 1081.45 Q73.605 1077.88 73.605 1070.77 Q73.605 1063.65 71.7763 1060.1 Q69.9707 1056.54 66.3365 1056.54 M66.3365 1052.83 Q72.1467 1052.83 75.2022 1057.44 Q78.2809 1062.02 78.2809 1070.77 Q78.2809 1079.5 75.2022 1084.11 Q72.1467 1088.69 66.3365 1088.69 Q60.5264 1088.69 57.4477 1084.11 Q54.3921 1079.5 54.3921 1070.77 Q54.3921 1062.02 57.4477 1057.44 Q60.5264 1052.83 66.3365 1052.83 Z" fill="#000000" fill-rule="nonzero" fill-opacity="1" /><path clip-path="url(#clip360)" d="M86.4984 1082.14 L91.3827 1082.14 L91.3827 1088.02 L86.4984 1088.02 L86.4984 1082.14 Z" fill="#000000" fill-rule="nonzero" fill-opacity="1" /><path clip-path="url(#clip360)" d="M111.568 1056.54 Q107.957 1056.54 106.128 1060.1 Q104.322 1063.65 104.322 1070.77 Q104.322 1077.88 106.128 1081.45 Q107.957 1084.99 111.568 1084.99 Q115.202 1084.99 117.008 1081.45 Q118.836 1077.88 118.836 1070.77 Q118.836 1063.65 117.008 1060.1 Q115.202 1056.54 111.568 1056.54 M111.568 1052.83 Q117.378 1052.83 120.433 1057.44 Q123.512 1062.02 123.512 1070.77 Q123.512 1079.5 120.433 1084.11 Q117.378 1088.69 111.568 1088.69 Q105.758 1088.69 102.679 1084.11 Q99.6234 1079.5 99.6234 1070.77 Q99.6234 1062.02 102.679 1057.44 Q105.758 1052.83 111.568 1052.83 Z" fill="#000000" fill-rule="nonzero" fill-opacity="1" /><path clip-path="url(#clip360)" d="M132.54 1084.08 L140.179 1084.08 L140.179 1057.72 L131.869 1059.39 L131.869 1055.13 L140.132 1053.46 L144.808 1053.46 L144.808 1084.08 L152.447 1084.08 L152.447 1088.02 L132.54 1088.02 L132.54 1084.08 Z" fill="#000000" fill-rule="nonzero" fill-opacity="1" /><path clip-path="url(#clip360)" d="M171.891 1056.54 Q168.28 1056.54 166.452 1060.1 Q164.646 1063.65 164.646 1070.77 Q164.646 1077.88 166.452 1081.45 Q168.28 1084.99 171.891 1084.99 Q175.526 1084.99 177.331 1081.45 Q179.16 1077.88 179.16 1070.77 Q179.16 1063.65 177.331 1060.1 Q175.526 1056.54 171.891 1056.54 M171.891 1052.83 Q177.702 1052.83 180.757 1057.44 Q183.836 1062.02 183.836 1070.77 Q183.836 1079.5 180.757 1084.11 Q177.702 1088.69 171.891 1088.69 Q166.081 1088.69 163.003 1084.11 Q159.947 1079.5 159.947 1070.77 Q159.947 1062.02 163.003 1057.44 Q166.081 1052.83 171.891 1052.83 Z" fill="#000000" fill-rule="nonzero" fill-opacity="1" /><path clip-path="url(#clip360)" d="M67.3319 838.498 Q63.7208 838.498 61.8921 842.063 Q60.0865 845.604 60.0865 852.734 Q60.0865 859.84 61.8921 863.405 Q63.7208 866.947 67.3319 866.947 Q70.9661 866.947 72.7717 863.405 Q74.6004 859.84 74.6004 852.734 Q74.6004 845.604 72.7717 842.063 Q70.9661 838.498 67.3319 838.498 M67.3319 834.794 Q73.142 834.794 76.1976 839.401 Q79.2763 843.984 79.2763 852.734 Q79.2763 861.461 76.1976 866.067 Q73.142 870.651 67.3319 870.651 Q61.5217 870.651 58.443 866.067 Q55.3875 861.461 55.3875 852.734 Q55.3875 843.984 58.443 839.401 Q61.5217 834.794 67.3319 834.794 Z" fill="#000000" fill-rule="nonzero" fill-opacity="1" /><path clip-path="url(#clip360)" d="M87.4938 864.1 L92.378 864.1 L92.378 869.979 L87.4938 869.979 L87.4938 864.1 Z" fill="#000000" fill-rule="nonzero" fill-opacity="1" /><path clip-path="url(#clip360)" d="M112.563 838.498 Q108.952 838.498 107.123 842.063 Q105.318 845.604 105.318 852.734 Q105.318 859.84 107.123 863.405 Q108.952 866.947 112.563 866.947 Q116.197 866.947 118.003 863.405 Q119.832 859.84 119.832 852.734 Q119.832 845.604 118.003 842.063 Q116.197 838.498 112.563 838.498 M112.563 834.794 Q118.373 834.794 121.429 839.401 Q124.507 843.984 124.507 852.734 Q124.507 861.461 121.429 866.067 Q118.373 870.651 112.563 870.651 Q106.753 870.651 103.674 866.067 Q100.619 861.461 100.619 852.734 Q100.619 843.984 103.674 839.401 Q106.753 834.794 112.563 834.794 Z" fill="#000000" fill-rule="nonzero" fill-opacity="1" /><path clip-path="url(#clip360)" d="M133.535 866.044 L141.174 866.044 L141.174 839.678 L132.864 841.345 L132.864 837.086 L141.128 835.419 L145.804 835.419 L145.804 866.044 L153.443 866.044 L153.443 869.979 L133.535 869.979 L133.535 866.044 Z" fill="#000000" fill-rule="nonzero" fill-opacity="1" /><path clip-path="url(#clip360)" d="M162.933 835.419 L181.29 835.419 L181.29 839.354 L167.216 839.354 L167.216 847.827 Q168.234 847.479 169.253 847.317 Q170.271 847.132 171.29 847.132 Q177.077 847.132 180.456 850.303 Q183.836 853.475 183.836 858.891 Q183.836 864.47 180.364 867.572 Q176.891 870.651 170.572 870.651 Q168.396 870.651 166.128 870.28 Q163.882 869.91 161.475 869.169 L161.475 864.47 Q163.558 865.604 165.78 866.16 Q168.003 866.715 170.479 866.715 Q174.484 866.715 176.822 864.609 Q179.16 862.502 179.16 858.891 Q179.16 855.28 176.822 853.174 Q174.484 851.067 170.479 851.067 Q168.604 851.067 166.729 851.484 Q164.878 851.901 162.933 852.78 L162.933 835.419 Z" fill="#000000" fill-rule="nonzero" fill-opacity="1" /><path clip-path="url(#clip360)" d="M66.3365 620.457 Q62.7254 620.457 60.8967 624.022 Q59.0912 627.564 59.0912 634.693 Q59.0912 641.8 60.8967 645.365 Q62.7254 648.906 66.3365 648.906 Q69.9707 648.906 71.7763 645.365 Q73.605 641.8 73.605 634.693 Q73.605 627.564 71.7763 624.022 Q69.9707 620.457 66.3365 620.457 M66.3365 616.754 Q72.1467 616.754 75.2022 621.36 Q78.2809 625.943 78.2809 634.693 Q78.2809 643.42 75.2022 648.027 Q72.1467 652.61 66.3365 652.61 Q60.5264 652.61 57.4477 648.027 Q54.3921 643.42 54.3921 634.693 Q54.3921 625.943 57.4477 621.36 Q60.5264 616.754 66.3365 616.754 Z" fill="#000000" fill-rule="nonzero" fill-opacity="1" /><path clip-path="url(#clip360)" d="M86.4984 646.059 L91.3827 646.059 L91.3827 651.939 L86.4984 651.939 L86.4984 646.059 Z" fill="#000000" fill-rule="nonzero" fill-opacity="1" /><path clip-path="url(#clip360)" d="M111.568 620.457 Q107.957 620.457 106.128 624.022 Q104.322 627.564 104.322 634.693 Q104.322 641.8 106.128 645.365 Q107.957 648.906 111.568 648.906 Q115.202 648.906 117.008 645.365 Q118.836 641.8 118.836 634.693 Q118.836 627.564 117.008 624.022 Q115.202 620.457 111.568 620.457 M111.568 616.754 Q117.378 616.754 120.433 621.36 Q123.512 625.943 123.512 634.693 Q123.512 643.42 120.433 648.027 Q117.378 652.61 111.568 652.61 Q105.758 652.61 102.679 648.027 Q99.6234 643.42 99.6234 634.693 Q99.6234 625.943 102.679 621.36 Q105.758 616.754 111.568 616.754 Z" fill="#000000" fill-rule="nonzero" fill-opacity="1" /><path clip-path="url(#clip360)" d="M135.757 648.003 L152.077 648.003 L152.077 651.939 L130.132 651.939 L130.132 648.003 Q132.794 645.249 137.378 640.619 Q141.984 635.966 143.165 634.624 Q145.41 632.101 146.29 630.365 Q147.193 628.605 147.193 626.916 Q147.193 624.161 145.248 622.425 Q143.327 620.689 140.225 620.689 Q138.026 620.689 135.572 621.453 Q133.142 622.217 130.364 623.767 L130.364 619.045 Q133.188 617.911 135.642 617.332 Q138.095 616.754 140.132 616.754 Q145.503 616.754 148.697 619.439 Q151.892 622.124 151.892 626.615 Q151.892 628.744 151.081 630.666 Q150.294 632.564 148.188 635.156 Q147.609 635.828 144.507 639.045 Q141.406 642.24 135.757 648.003 Z" fill="#000000" fill-rule="nonzero" fill-opacity="1" /><path clip-path="url(#clip360)" d="M171.891 620.457 Q168.28 620.457 166.452 624.022 Q164.646 627.564 164.646 634.693 Q164.646 641.8 166.452 645.365 Q168.28 648.906 171.891 648.906 Q175.526 648.906 177.331 645.365 Q179.16 641.8 179.16 634.693 Q179.16 627.564 177.331 624.022 Q175.526 620.457 171.891 620.457 M171.891 616.754 Q177.702 616.754 180.757 621.36 Q183.836 625.943 183.836 634.693 Q183.836 643.42 180.757 648.027 Q177.702 652.61 171.891 652.61 Q166.081 652.61 163.003 648.027 Q159.947 643.42 159.947 634.693 Q159.947 625.943 163.003 621.36 Q166.081 616.754 171.891 616.754 Z" fill="#000000" fill-rule="nonzero" fill-opacity="1" /><path clip-path="url(#clip360)" d="M67.3319 402.417 Q63.7208 402.417 61.8921 405.981 Q60.0865 409.523 60.0865 416.653 Q60.0865 423.759 61.8921 427.324 Q63.7208 430.866 67.3319 430.866 Q70.9661 430.866 72.7717 427.324 Q74.6004 423.759 74.6004 416.653 Q74.6004 409.523 72.7717 405.981 Q70.9661 402.417 67.3319 402.417 M67.3319 398.713 Q73.142 398.713 76.1976 403.319 Q79.2763 407.903 79.2763 416.653 Q79.2763 425.38 76.1976 429.986 Q73.142 434.569 67.3319 434.569 Q61.5217 434.569 58.443 429.986 Q55.3875 425.38 55.3875 416.653 Q55.3875 407.903 58.443 403.319 Q61.5217 398.713 67.3319 398.713 Z" fill="#000000" fill-rule="nonzero" fill-opacity="1" /><path clip-path="url(#clip360)" d="M87.4938 428.018 L92.378 428.018 L92.378 433.898 L87.4938 433.898 L87.4938 428.018 Z" fill="#000000" fill-rule="nonzero" fill-opacity="1" /><path clip-path="url(#clip360)" d="M112.563 402.417 Q108.952 402.417 107.123 405.981 Q105.318 409.523 105.318 416.653 Q105.318 423.759 107.123 427.324 Q108.952 430.866 112.563 430.866 Q116.197 430.866 118.003 427.324 Q119.832 423.759 119.832 416.653 Q119.832 409.523 118.003 405.981 Q116.197 402.417 112.563 402.417 M112.563 398.713 Q118.373 398.713 121.429 403.319 Q124.507 407.903 124.507 416.653 Q124.507 425.38 121.429 429.986 Q118.373 434.569 112.563 434.569 Q106.753 434.569 103.674 429.986 Q100.619 425.38 100.619 416.653 Q100.619 407.903 103.674 403.319 Q106.753 398.713 112.563 398.713 Z" fill="#000000" fill-rule="nonzero" fill-opacity="1" /><path clip-path="url(#clip360)" d="M136.753 429.963 L153.072 429.963 L153.072 433.898 L131.128 433.898 L131.128 429.963 Q133.79 427.208 138.373 422.579 Q142.98 417.926 144.16 416.583 Q146.406 414.06 147.285 412.324 Q148.188 410.565 148.188 408.875 Q148.188 406.12 146.243 404.384 Q144.322 402.648 141.22 402.648 Q139.021 402.648 136.568 403.412 Q134.137 404.176 131.359 405.727 L131.359 401.005 Q134.183 399.87 136.637 399.292 Q139.091 398.713 141.128 398.713 Q146.498 398.713 149.693 401.398 Q152.887 404.083 152.887 408.574 Q152.887 410.704 152.077 412.625 Q151.29 414.523 149.183 417.116 Q148.605 417.787 145.503 421.005 Q142.401 424.199 136.753 429.963 Z" fill="#000000" fill-rule="nonzero" fill-opacity="1" /><path clip-path="url(#clip360)" d="M162.933 399.338 L181.29 399.338 L181.29 403.273 L167.216 403.273 L167.216 411.745 Q168.234 411.398 169.253 411.236 Q170.271 411.051 171.29 411.051 Q177.077 411.051 180.456 414.222 Q183.836 417.393 183.836 422.81 Q183.836 428.389 180.364 431.491 Q176.891 434.569 170.572 434.569 Q168.396 434.569 166.128 434.199 Q163.882 433.829 161.475 433.088 L161.475 428.389 Q163.558 429.523 165.78 430.079 Q168.003 430.634 170.479 430.634 Q174.484 430.634 176.822 428.528 Q179.16 426.421 179.16 422.81 Q179.16 419.199 176.822 417.093 Q174.484 414.986 170.479 414.986 Q168.604 414.986 166.729 415.403 Q164.878 415.819 162.933 416.699 L162.933 399.338 Z" fill="#000000" fill-rule="nonzero" fill-opacity="1" /><path clip-path="url(#clip360)" d="M66.3365 184.376 Q62.7254 184.376 60.8967 187.941 Q59.0912 191.482 59.0912 198.612 Q59.0912 205.718 60.8967 209.283 Q62.7254 212.825 66.3365 212.825 Q69.9707 212.825 71.7763 209.283 Q73.605 205.718 73.605 198.612 Q73.605 191.482 71.7763 187.941 Q69.9707 184.376 66.3365 184.376 M66.3365 180.672 Q72.1467 180.672 75.2022 185.279 Q78.2809 189.862 78.2809 198.612 Q78.2809 207.339 75.2022 211.945 Q72.1467 216.529 66.3365 216.529 Q60.5264 216.529 57.4477 211.945 Q54.3921 207.339 54.3921 198.612 Q54.3921 189.862 57.4477 185.279 Q60.5264 180.672 66.3365 180.672 Z" fill="#000000" fill-rule="nonzero" fill-opacity="1" /><path clip-path="url(#clip360)" d="M86.4984 209.978 L91.3827 209.978 L91.3827 215.857 L86.4984 215.857 L86.4984 209.978 Z" fill="#000000" fill-rule="nonzero" fill-opacity="1" /><path clip-path="url(#clip360)" d="M111.568 184.376 Q107.957 184.376 106.128 187.941 Q104.322 191.482 104.322 198.612 Q104.322 205.718 106.128 209.283 Q107.957 212.825 111.568 212.825 Q115.202 212.825 117.008 209.283 Q118.836 205.718 118.836 198.612 Q118.836 191.482 117.008 187.941 Q115.202 184.376 111.568 184.376 M111.568 180.672 Q117.378 180.672 120.433 185.279 Q123.512 189.862 123.512 198.612 Q123.512 207.339 120.433 211.945 Q117.378 216.529 111.568 216.529 Q105.758 216.529 102.679 211.945 Q99.6234 207.339 99.6234 198.612 Q99.6234 189.862 102.679 185.279 Q105.758 180.672 111.568 180.672 Z" fill="#000000" fill-rule="nonzero" fill-opacity="1" /><path clip-path="url(#clip360)" d="M145.896 197.223 Q149.253 197.941 151.128 200.209 Q153.026 202.478 153.026 205.811 Q153.026 210.927 149.507 213.728 Q145.989 216.529 139.507 216.529 Q137.331 216.529 135.017 216.089 Q132.725 215.672 130.271 214.816 L130.271 210.302 Q132.216 211.436 134.531 212.015 Q136.845 212.593 139.369 212.593 Q143.767 212.593 146.058 210.857 Q148.373 209.121 148.373 205.811 Q148.373 202.756 146.22 201.043 Q144.091 199.306 140.271 199.306 L136.244 199.306 L136.244 195.464 L140.456 195.464 Q143.906 195.464 145.734 194.098 Q147.563 192.709 147.563 190.117 Q147.563 187.455 145.665 186.043 Q143.79 184.607 140.271 184.607 Q138.35 184.607 136.151 185.024 Q133.952 185.441 131.313 186.32 L131.313 182.154 Q133.975 181.413 136.29 181.043 Q138.628 180.672 140.688 180.672 Q146.012 180.672 149.114 183.103 Q152.216 185.51 152.216 189.631 Q152.216 192.501 150.572 194.492 Q148.929 196.459 145.896 197.223 Z" fill="#000000" fill-rule="nonzero" fill-opacity="1" /><path clip-path="url(#clip360)" d="M171.891 184.376 Q168.28 184.376 166.452 187.941 Q164.646 191.482 164.646 198.612 Q164.646 205.718 166.452 209.283 Q168.28 212.825 171.891 212.825 Q175.526 212.825 177.331 209.283 Q179.16 205.718 179.16 198.612 Q179.16 191.482 177.331 187.941 Q175.526 184.376 171.891 184.376 M171.891 180.672 Q177.702 180.672 180.757 185.279 Q183.836 189.862 183.836 198.612 Q183.836 207.339 180.757 211.945 Q177.702 216.529 171.891 216.529 Q166.081 216.529 163.003 211.945 Q159.947 207.339 159.947 198.612 Q159.947 189.862 163.003 185.279 Q166.081 180.672 171.891 180.672 Z" fill="#000000" fill-rule="nonzero" fill-opacity="1" /><polyline clip-path="url(#clip362)" style="stroke:#009af9; stroke-linecap:round; stroke-linejoin:round; stroke-width:4; stroke-opacity:1; fill:none" points="249.262,1236.3 250.915,1242.08 252.568,1247.82 254.222,1253.51 255.875,1259.14 257.528,1264.73 259.181,1270.25 260.834,1275.71 262.487,1281.1 264.141,1286.43 265.794,1291.67 267.447,1296.84 269.1,1301.93 270.753,1306.93 272.406,1311.84 274.06,1316.66 275.713,1321.39 277.366,1326.02 279.019,1330.55 280.672,1334.99 282.325,1339.31 283.979,1343.54 285.632,1347.66 287.285,1351.67 288.938,1355.57 290.591,1359.37 292.244,1363.06 293.897,1366.64 295.551,1370.11 297.204,1373.47 298.857,1376.73 300.51,1379.88 302.163,1382.92 303.816,1385.86 305.47,1388.69 307.123,1391.43 308.776,1394.06 310.429,1396.59 312.082,1399.03 313.735,1401.37 315.389,1403.62 317.042,1405.78 318.695,1407.85 320.348,1409.84 322.001,1411.74 323.654,1413.57 325.308,1415.31 326.961,1416.98 328.614,1418.57 330.267,1420.1 331.92,1421.56 333.573,1422.95 335.226,1424.28 336.88,1425.55 338.533,1426.76 340.186,1427.91 341.839,1429.02 343.492,1430.07 345.145,1431.08 346.799,1432.04 348.452,1432.95 350.105,1433.83 351.758,1434.67 353.411,1435.46 355.064,1436.23 356.718,1436.96 358.371,1437.66 360.024,1438.33 361.677,1438.97 363.33,1439.58 364.983,1440.17 366.637,1440.74 368.29,1441.28 369.943,1441.8 371.596,1442.3 373.249,1442.79 374.902,1443.25 376.556,1443.7 378.209,1444.13 379.862,1444.55 381.515,1444.96 383.168,1445.35 384.821,1445.73 386.474,1446.1 388.128,1446.46 389.781,1446.8 391.434,1447.14 393.087,1447.47 394.74,1447.79 396.393,1448.1 398.047,1448.4 399.7,1448.7 401.353,1448.98 403.006,1449.27 404.659,1449.54 406.312,1449.81 407.966,1450.07 409.619,1450.33 411.272,1450.58 412.925,1450.83 414.578,1451.07 416.231,1451.31 417.885,1451.54 419.538,1451.76 421.191,1451.99 422.844,1452.21 424.497,1452.42 426.15,1452.63 427.803,1452.84 429.457,1453.04 431.11,1453.24 432.763,1453.43 434.416,1453.62 436.069,1453.81 437.722,1453.99 439.376,1454.17 441.029,1454.35 442.682,1454.52 444.335,1454.69 445.988,1454.86 447.641,1455.03 449.295,1455.19 450.948,1455.34 452.601,1455.5 454.254,1455.65 455.907,1455.8 457.56,1455.94 459.214,1456.08 460.867,1456.22 462.52,1456.36 464.173,1456.49 465.826,1456.62 467.479,1456.75 469.133,1456.88 470.786,1457 472.439,1457.12 474.092,1457.23 475.745,1457.35 477.398,1457.46 479.051,1457.57 480.705,1457.67 482.358,1457.78 484.011,1457.88 485.664,1457.97 487.317,1458.07 488.97,1458.16 490.624,1458.25 492.277,1458.34 493.93,1458.42 495.583,1458.5 497.236,1458.58 498.889,1458.66 500.543,1458.73 502.196,1458.81 503.849,1458.87 505.502,1458.94 507.155,1459.01 508.808,1459.07 510.462,1459.13 512.115,1459.18 513.768,1459.24 515.421,1459.29 517.074,1459.34 518.727,1459.38 520.38,1459.43 522.034,1459.47 523.687,1459.51 525.34,1459.55 526.993,1459.58 528.646,1459.61 530.299,1459.64 531.953,1459.67 533.606,1459.69 535.259,1459.71 536.912,1459.73 538.565,1459.75 540.218,1459.76 541.872,1459.78 543.525,1459.78 545.178,1459.79 546.831,1459.8 548.484,1459.8 550.137,1459.8 551.791,1459.79 553.444,1459.79 555.097,1459.78 556.75,1459.77 558.403,1459.76 560.056,1459.74 561.71,1459.72 563.363,1459.7 565.016,1459.68 566.669,1459.65 568.322,1459.62 569.975,1459.59 571.628,1459.56 573.282,1459.52 574.935,1459.48 576.588,1459.44 578.241,1459.39 579.894,1459.35 581.547,1459.3 583.201,1459.24 584.854,1459.19 586.507,1459.13 588.16,1459.07 589.813,1459.01 591.466,1458.94 593.12,1458.87 594.773,1458.8 596.426,1458.73 598.079,1458.65 599.732,1458.57 601.385,1458.49 603.039,1458.4 604.692,1458.31 606.345,1458.22 607.998,1458.13 609.651,1458.03 611.304,1457.93 612.957,1457.83 614.611,1457.72 616.264,1457.61 617.917,1457.5 619.57,1457.39 621.223,1457.27 622.876,1457.15 624.53,1457.02 626.183,1456.9 627.836,1456.77 629.489,1456.63 631.142,1456.5 632.795,1456.36 634.449,1456.22 636.102,1456.07 637.755,1455.92 639.408,1455.77 641.061,1455.61 642.714,1455.46 644.368,1455.29 646.021,1455.13 647.674,1454.96 649.327,1454.79 650.98,1454.62 652.633,1454.44 654.287,1454.26 655.94,1454.07 657.593,1453.89 659.246,1453.7 660.899,1453.5 662.552,1453.3 664.205,1453.1 665.859,1452.9 667.512,1452.69 669.165,1452.48 670.818,1452.27 672.471,1452.05 674.124,1451.83 675.778,1451.61 677.431,1451.38 679.084,1451.15 680.737,1450.92 682.39,1450.68 684.043,1450.44 685.697,1450.2 687.35,1449.95 689.003,1449.71 690.656,1449.45 692.309,1449.2 693.962,1448.94 695.616,1448.68 697.269,1448.42 698.922,1448.15 700.575,1447.88 702.228,1447.61 703.881,1447.33 705.534,1447.06 707.188,1446.78 708.841,1446.49 710.494,1446.21 712.147,1445.92 713.8,1445.63 715.453,1445.34 717.107,1445.04 718.76,1444.75 720.413,1444.45 722.066,1444.15 723.719,1443.85 725.372,1443.54 727.026,1443.24 728.679,1442.93 730.332,1442.62 731.985,1442.31 733.638,1442 735.291,1441.69 736.945,1441.37 738.598,1441.06 740.251,1440.74 741.904,1440.43 743.557,1440.11 745.21,1439.79 746.864,1439.47 748.517,1439.15 750.17,1438.83 751.823,1438.51 753.476,1438.19 755.129,1437.87 756.782,1437.54 758.436,1437.22 760.089,1436.9 761.742,1436.57 763.395,1436.25 765.048,1435.92 766.701,1435.6 768.355,1435.27 770.008,1434.94 771.661,1434.61 773.314,1434.28 774.967,1433.95 776.62,1433.61 778.274,1433.28 779.927,1432.94 781.58,1432.59 783.233,1432.25 784.886,1431.9 786.539,1431.54 788.193,1431.18 789.846,1430.82 791.499,1430.45 793.152,1430.07 794.805,1429.69 796.458,1429.29 798.111,1428.89 799.765,1428.48 801.418,1428.05 803.071,1427.62 804.724,1427.17 806.377,1426.71 808.03,1426.23 809.684,1425.73 811.337,1425.22 812.99,1424.69 814.643,1424.13 816.296,1423.56 817.949,1422.96 819.603,1422.34 821.256,1421.68 822.909,1421 824.562,1420.3 826.215,1419.55 827.868,1418.78 829.522,1417.97 831.175,1417.13 832.828,1416.24 834.481,1415.32 836.134,1414.35 837.787,1413.34 839.44,1412.29 841.094,1411.18 842.747,1410.03 844.4,1408.83 846.053,1407.58 847.706,1406.28 849.359,1404.92 851.013,1403.51 852.666,1402.04 854.319,1400.52 855.972,1398.93 857.625,1397.29 859.278,1395.59 860.932,1393.82 862.585,1392 864.238,1390.12 865.891,1388.17 867.544,1386.17 869.197,1384.1 870.851,1381.98 872.504,1379.8 874.157,1377.55 875.81,1375.25 877.463,1372.9 879.116,1370.49 880.77,1368.02 882.423,1365.51 884.076,1362.94 885.729,1360.33 887.382,1357.67 889.035,1354.97 890.688,1352.22 892.342,1349.44 893.995,1346.62 895.648,1343.78 897.301,1340.9 898.954,1337.99 900.607,1335.07 902.261,1332.12 903.914,1329.16 905.567,1326.18 907.22,1323.2 908.873,1320.21 910.526,1317.21 912.18,1314.22 913.833,1311.24 915.486,1308.26 917.139,1305.29 918.792,1302.34 920.445,1299.41 922.099,1296.5 923.752,1293.61 925.405,1290.75 927.058,1287.93 928.711,1285.13 930.364,1282.38 932.017,1279.66 933.671,1276.98 935.324,1274.35 936.977,1271.76 938.63,1269.22 940.283,1266.73 941.936,1264.29 943.59,1261.91 945.243,1259.57 946.896,1257.29 948.549,1255.07 950.202,1252.9 951.855,1250.78 953.509,1248.72 955.162,1246.72 956.815,1244.78 958.468,1242.89 960.121,1241.05 961.774,1239.27 963.428,1237.55 965.081,1235.88 966.734,1234.26 968.387,1232.69 970.04,1231.17 971.693,1229.7 973.347,1228.28 975,1226.9 976.653,1225.57 978.306,1224.27 979.959,1223.02 981.612,1221.81 983.265,1220.63 984.919,1219.49 986.572,1218.39 988.225,1217.31 989.878,1216.26 991.531,1215.24 993.184,1214.24 994.838,1213.27 996.491,1212.32 998.144,1211.39 999.797,1210.47 1001.45,1209.57 1003.1,1208.68 1004.76,1207.81 1006.41,1206.94 1008.06,1206.09 1009.72,1205.24 1011.37,1204.39 1013.02,1203.55 1014.68,1202.71 1016.33,1201.86 1017.98,1201.02 1019.64,1200.17 1021.29,1199.32 1022.94,1198.47 1024.59,1197.61 1026.25,1196.73 1027.9,1195.85 1029.55,1194.96 1031.21,1194.06 1032.86,1193.15 1034.51,1192.22 1036.17,1191.27 1037.82,1190.32 1039.47,1189.34 1041.13,1188.35 1042.78,1187.34 1044.43,1186.31 1046.09,1185.26 1047.74,1184.19 1049.39,1183.1 1051.05,1181.99 1052.7,1180.86 1054.35,1179.71 1056,1178.53 1057.66,1177.32 1059.31,1176.1 1060.96,1174.85 1062.62,1173.57 1064.27,1172.26 1065.92,1170.93 1067.58,1169.58 1069.23,1168.19 1070.88,1166.78 1072.54,1165.34 1074.19,1163.87 1075.84,1162.37 1077.5,1160.85 1079.15,1159.29 1080.8,1157.7 1082.46,1156.08 1084.11,1154.43 1085.76,1152.75 1087.41,1151.04 1089.07,1149.29 1090.72,1147.51 1092.37,1145.7 1094.03,1143.85 1095.68,1141.97 1097.33,1140.06 1098.99,1138.11 1100.64,1136.12 1102.29,1134.1 1103.95,1132.04 1105.6,1129.94 1107.25,1127.81 1108.91,1125.64 1110.56,1123.43 1112.21,1121.18 1113.87,1118.9 1115.52,1116.57 1117.17,1114.2 1118.82,1111.79 1120.48,1109.34 1122.13,1106.85 1123.78,1104.31 1125.44,1101.74 1127.09,1099.11 1128.74,1096.45 1130.4,1093.74 1132.05,1090.98 1133.7,1088.18 1135.36,1085.32 1137.01,1082.43 1138.66,1079.48 1140.32,1076.48 1141.97,1073.44 1143.62,1070.34 1145.28,1067.2 1146.93,1064 1148.58,1060.74 1150.23,1057.44 1151.89,1054.07 1153.54,1050.66 1155.19,1047.18 1156.85,1043.65 1158.5,1040.06 1160.15,1036.42 1161.81,1032.71 1163.46,1028.93 1165.11,1025.1 1166.77,1021.2 1168.42,1017.24 1170.07,1013.21 1171.73,1009.11 1173.38,1004.94 1175.03,1000.71 1176.69,996.395 1178.34,992.011 1179.99,987.552 1181.64,983.015 1183.3,978.399 1184.95,973.703 1186.6,968.923 1188.26,964.059 1189.91,959.109 1191.56,954.069 1193.22,948.938 1194.87,943.713 1196.52,938.392 1198.18,932.973 1199.83,927.453 1201.48,921.828 1203.14,916.097 1204.79,910.257 1206.44,904.303 1208.1,898.235 1209.75,892.047 1211.4,885.738 1213.05,879.303 1214.71,872.739 1216.36,866.044 1218.01,859.213 1219.67,852.242 1221.32,845.129 1222.97,837.87 1224.63,830.461 1226.28,822.898 1227.93,815.178 1229.59,807.298 1231.24,799.254 1232.89,791.042 1234.55,782.659 1236.2,774.103 1237.85,765.37 1239.51,756.457 1241.16,747.361 1242.81,738.081 1244.46,728.614 1246.12,718.959 1247.77,709.113 1249.42,699.076 1251.08,688.847 1252.73,678.425 1254.38,667.812 1256.04,657.007 1257.69,646.012 1259.34,634.828 1261,623.459 1262.65,611.906 1264.3,600.175 1265.96,588.269 1267.61,576.194 1269.26,563.955 1270.92,551.56 1272.57,539.016 1274.22,526.332 1275.87,513.516 1277.53,500.58 1279.18,487.534 1280.83,474.391 1282.49,461.163 1284.14,447.865 1285.79,434.511 1287.45,421.116 1289.1,407.698 1290.75,394.274 1292.41,380.861 1294.06,367.48 1295.71,354.149 1297.37,340.89 1299.02,327.723 1300.67,314.671 1302.33,301.755 1303.98,288.999 1305.63,276.426 1307.28,264.059 1308.94,251.924 1310.59,240.042 1312.24,228.44 1313.9,217.142 1315.55,206.17 1317.2,195.551 1318.86,185.307 1320.51,175.463 1322.16,166.04 1323.82,157.062 1325.47,148.551 1327.12,140.528 1328.78,133.013 1330.43,126.026 1332.08,119.584 1333.74,113.707 1335.39,108.408 1337.04,103.705 1338.7,99.6092 1340.35,96.1341 1342,93.2901 1343.65,91.0864 1345.31,89.5308 1346.96,88.6293 1348.61,88.3864 1350.27,88.8049 1351.92,89.8859 1353.57,91.6288 1355.23,94.0313 1356.88,97.0895 1358.53,100.798 1360.19,105.149 1361.84,110.134 1363.49,115.742 1365.15,121.961 1366.8,128.779 1368.45,136.179 1370.11,144.145 1371.76,152.661 1373.41,161.707 1375.06,171.262 1376.72,181.307 1378.37,191.819 1380.02,202.775 1381.68,214.152 1383.33,225.925 1384.98,238.07 1386.64,250.561 1388.29,263.373 1389.94,276.479 1391.6,289.854 1393.25,303.471 1394.9,317.305 1396.56,331.329 1398.21,345.517 1399.86,359.845 1401.52,374.287 1403.17,388.818 1404.82,403.415 1406.47,418.054 1408.13,432.712 1409.78,447.368 1411.43,462 1413.09,476.589 1414.74,491.115 1416.39,505.559 1418.05,519.904 1419.7,534.134 1421.35,548.233 1423.01,562.187 1424.66,575.983 1426.31,589.608 1427.97,603.052 1429.62,616.304 1431.27,629.356 1432.93,642.199 1434.58,654.826 1436.23,667.231 1437.88,679.409 1439.54,691.357 1441.19,703.071 1442.84,714.548 1444.5,725.788 1446.15,736.79 1447.8,747.553 1449.46,758.079 1451.11,768.369 1452.76,778.426 1454.42,788.252 1456.07,797.851 1457.72,807.227 1459.38,816.383 1461.03,825.326 1462.68,834.06 1464.34,842.591 1465.99,850.925 1467.64,859.068 1469.29,867.027 1470.95,874.808 1472.6,882.418 1474.25,889.865 1475.91,897.156 1477.56,904.298 1479.21,911.298 1480.87,918.164 1482.52,924.904 1484.17,931.524 1485.83,938.033 1487.48,944.437 1489.13,950.745 1490.79,956.962 1492.44,963.097 1494.09,969.156 1495.75,975.146 1497.4,981.074 1499.05,986.946 1500.7,992.768 1502.36,998.547 1504.01,1004.29 1505.66,1010 1507.32,1015.68 1508.97,1021.35 1510.62,1026.99 1512.28,1032.63 1513.93,1038.26 1515.58,1043.88 1517.24,1049.51 1518.89,1055.14 1520.54,1060.77 1522.2,1066.42 1523.85,1072.08 1525.5,1077.76 1527.16,1083.45 1528.81,1089.16 1530.46,1094.89 1532.11,1100.64 1533.77,1106.42 1535.42,1112.21 1537.07,1118.03 1538.73,1123.87 1540.38,1129.73 1542.03,1135.61 1543.69,1141.5 1545.34,1147.42 1546.99,1153.34 1548.65,1159.29 1550.3,1165.24 1551.95,1171.2 1553.61,1177.16 1555.26,1183.13 1556.91,1189.09 1558.57,1195.05 1560.22,1201 1561.87,1206.94 1563.52,1212.86 1565.18,1218.77 1566.83,1224.64 1568.48,1230.49 1570.14,1236.3 "/>
<path clip-path="url(#clip360)" d="M256.307 199.381 L1081.96 199.381 L1081.96 95.7006 L256.307 95.7006  Z" fill="#ffffff" fill-rule="evenodd" fill-opacity="1"/>
<polyline clip-path="url(#clip360)" style="stroke:#000000; stroke-linecap:round; stroke-linejoin:round; stroke-width:4; stroke-opacity:1; fill:none" points="256.307,199.381 1081.96,199.381 1081.96,95.7006 256.307,95.7006 256.307,199.381 "/>
<polyline clip-path="url(#clip360)" style="stroke:#009af9; stroke-linecap:round; stroke-linejoin:round; stroke-width:4; stroke-opacity:1; fill:none" points="271.864,147.541 365.206,147.541 "/>
<path clip-path="url(#clip360)" d="M401.11 143.872 Q402.707 141.001 404.929 139.636 Q407.151 138.27 410.161 138.27 Q414.212 138.27 416.411 141.117 Q418.61 143.941 418.61 149.173 L418.61 164.821 L414.327 164.821 L414.327 149.311 Q414.327 145.585 413.008 143.779 Q411.688 141.974 408.98 141.974 Q405.67 141.974 403.749 144.173 Q401.827 146.372 401.827 150.168 L401.827 164.821 L397.545 164.821 L397.545 149.311 Q397.545 145.561 396.226 143.779 Q394.906 141.974 392.151 141.974 Q388.888 141.974 386.966 144.196 Q385.045 146.395 385.045 150.168 L385.045 164.821 L380.763 164.821 L380.763 138.895 L385.045 138.895 L385.045 142.923 Q386.503 140.538 388.54 139.404 Q390.577 138.27 393.378 138.27 Q396.202 138.27 398.17 139.705 Q400.161 141.14 401.11 143.872 Z" fill="#000000" fill-rule="nonzero" fill-opacity="1" /><path clip-path="url(#clip360)" d="M449.281 150.793 L449.281 152.876 L429.698 152.876 Q429.975 157.274 432.336 159.589 Q434.721 161.881 438.957 161.881 Q441.41 161.881 443.702 161.279 Q446.017 160.677 448.285 159.473 L448.285 163.501 Q445.994 164.473 443.586 164.983 Q441.179 165.492 438.702 165.492 Q432.498 165.492 428.864 161.881 Q425.253 158.27 425.253 152.112 Q425.253 145.747 428.679 142.02 Q432.128 138.27 437.961 138.27 Q443.193 138.27 446.225 141.649 Q449.281 145.006 449.281 150.793 M445.022 149.543 Q444.975 146.048 443.054 143.964 Q441.156 141.881 438.008 141.881 Q434.443 141.881 432.29 143.895 Q430.161 145.909 429.836 149.566 L445.022 149.543 Z" fill="#000000" fill-rule="nonzero" fill-opacity="1" /><path clip-path="url(#clip360)" d="M468.054 151.788 Q462.892 151.788 460.901 152.969 Q458.91 154.149 458.91 156.997 Q458.91 159.265 460.392 160.608 Q461.896 161.927 464.466 161.927 Q468.008 161.927 470.137 159.427 Q472.29 156.904 472.29 152.737 L472.29 151.788 L468.054 151.788 M476.549 150.029 L476.549 164.821 L472.29 164.821 L472.29 160.885 Q470.832 163.247 468.656 164.381 Q466.48 165.492 463.332 165.492 Q459.35 165.492 456.989 163.27 Q454.651 161.024 454.651 157.274 Q454.651 152.899 457.568 150.677 Q460.508 148.455 466.318 148.455 L472.29 148.455 L472.29 148.038 Q472.29 145.099 470.345 143.501 Q468.424 141.881 464.929 141.881 Q462.707 141.881 460.6 142.413 Q458.494 142.946 456.549 144.011 L456.549 140.075 Q458.887 139.173 461.086 138.733 Q463.285 138.27 465.369 138.27 Q470.994 138.27 473.771 141.186 Q476.549 144.103 476.549 150.029 Z" fill="#000000" fill-rule="nonzero" fill-opacity="1" /><path clip-path="url(#clip360)" d="M501.85 139.659 L501.85 143.686 Q500.044 142.761 498.1 142.298 Q496.156 141.835 494.072 141.835 Q490.901 141.835 489.304 142.807 Q487.73 143.779 487.73 145.723 Q487.73 147.205 488.864 148.061 Q489.998 148.895 493.424 149.659 L494.882 149.983 Q499.419 150.955 501.318 152.737 Q503.239 154.497 503.239 157.668 Q503.239 161.279 500.368 163.385 Q497.521 165.492 492.521 165.492 Q490.438 165.492 488.169 165.075 Q485.924 164.682 483.424 163.872 L483.424 159.473 Q485.785 160.7 488.077 161.325 Q490.369 161.927 492.614 161.927 Q495.623 161.927 497.243 160.909 Q498.864 159.867 498.864 157.992 Q498.864 156.256 497.683 155.33 Q496.526 154.404 492.568 153.548 L491.086 153.2 Q487.128 152.367 485.369 150.654 Q483.609 148.918 483.609 145.909 Q483.609 142.251 486.202 140.261 Q488.794 138.27 493.563 138.27 Q495.924 138.27 498.007 138.617 Q500.091 138.964 501.85 139.659 Z" fill="#000000" fill-rule="nonzero" fill-opacity="1" /><path clip-path="url(#clip360)" d="M509.581 154.589 L509.581 138.895 L513.841 138.895 L513.841 154.427 Q513.841 158.108 515.276 159.96 Q516.711 161.788 519.581 161.788 Q523.03 161.788 525.021 159.589 Q527.035 157.39 527.035 153.594 L527.035 138.895 L531.294 138.895 L531.294 164.821 L527.035 164.821 L527.035 160.839 Q525.484 163.2 523.424 164.358 Q521.387 165.492 518.679 165.492 Q514.211 165.492 511.896 162.714 Q509.581 159.936 509.581 154.589 M520.299 138.27 L520.299 138.27 Z" fill="#000000" fill-rule="nonzero" fill-opacity="1" /><path clip-path="url(#clip360)" d="M555.09 142.876 Q554.373 142.46 553.516 142.274 Q552.683 142.066 551.664 142.066 Q548.053 142.066 546.109 144.427 Q544.188 146.765 544.188 151.163 L544.188 164.821 L539.905 164.821 L539.905 138.895 L544.188 138.895 L544.188 142.923 Q545.53 140.561 547.683 139.427 Q549.836 138.27 552.914 138.27 Q553.354 138.27 553.887 138.339 Q554.419 138.386 555.067 138.501 L555.09 142.876 Z" fill="#000000" fill-rule="nonzero" fill-opacity="1" /><path clip-path="url(#clip360)" d="M580.692 150.793 L580.692 152.876 L561.109 152.876 Q561.387 157.274 563.748 159.589 Q566.132 161.881 570.368 161.881 Q572.822 161.881 575.113 161.279 Q577.428 160.677 579.697 159.473 L579.697 163.501 Q577.405 164.473 574.998 164.983 Q572.59 165.492 570.113 165.492 Q563.91 165.492 560.276 161.881 Q556.664 158.27 556.664 152.112 Q556.664 145.747 560.09 142.02 Q563.539 138.27 569.373 138.27 Q574.604 138.27 577.637 141.649 Q580.692 145.006 580.692 150.793 M576.433 149.543 Q576.387 146.048 574.465 143.964 Q572.567 141.881 569.419 141.881 Q565.854 141.881 563.701 143.895 Q561.572 145.909 561.248 149.566 L576.433 149.543 Z" fill="#000000" fill-rule="nonzero" fill-opacity="1" /><path clip-path="url(#clip360)" d="M607.868 143.872 Q609.465 141.001 611.687 139.636 Q613.91 138.27 616.919 138.27 Q620.97 138.27 623.169 141.117 Q625.368 143.941 625.368 149.173 L625.368 164.821 L621.085 164.821 L621.085 149.311 Q621.085 145.585 619.766 143.779 Q618.447 141.974 615.738 141.974 Q612.428 141.974 610.507 144.173 Q608.585 146.372 608.585 150.168 L608.585 164.821 L604.303 164.821 L604.303 149.311 Q604.303 145.561 602.984 143.779 Q601.664 141.974 598.91 141.974 Q595.646 141.974 593.724 144.196 Q591.803 146.395 591.803 150.168 L591.803 164.821 L587.521 164.821 L587.521 138.895 L591.803 138.895 L591.803 142.923 Q593.261 140.538 595.299 139.404 Q597.336 138.27 600.136 138.27 Q602.961 138.27 604.928 139.705 Q606.919 141.14 607.868 143.872 Z" fill="#000000" fill-rule="nonzero" fill-opacity="1" /><path clip-path="url(#clip360)" d="M656.039 150.793 L656.039 152.876 L636.456 152.876 Q636.733 157.274 639.095 159.589 Q641.479 161.881 645.715 161.881 Q648.169 161.881 650.46 161.279 Q652.775 160.677 655.044 159.473 L655.044 163.501 Q652.752 164.473 650.345 164.983 Q647.937 165.492 645.46 165.492 Q639.257 165.492 635.622 161.881 Q632.011 158.27 632.011 152.112 Q632.011 145.747 635.437 142.02 Q638.886 138.27 644.72 138.27 Q649.951 138.27 652.983 141.649 Q656.039 145.006 656.039 150.793 M651.78 149.543 Q651.733 146.048 649.812 143.964 Q647.914 141.881 644.766 141.881 Q641.201 141.881 639.048 143.895 Q636.919 145.909 636.595 149.566 L651.78 149.543 Z" fill="#000000" fill-rule="nonzero" fill-opacity="1" /><path clip-path="url(#clip360)" d="M684.58 149.173 L684.58 164.821 L680.321 164.821 L680.321 149.311 Q680.321 145.631 678.886 143.802 Q677.451 141.974 674.58 141.974 Q671.131 141.974 669.141 144.173 Q667.15 146.372 667.15 150.168 L667.15 164.821 L662.868 164.821 L662.868 138.895 L667.15 138.895 L667.15 142.923 Q668.678 140.585 670.738 139.427 Q672.821 138.27 675.53 138.27 Q679.997 138.27 682.289 141.048 Q684.58 143.802 684.58 149.173 Z" fill="#000000" fill-rule="nonzero" fill-opacity="1" /><path clip-path="url(#clip360)" d="M697.289 131.534 L697.289 138.895 L706.062 138.895 L706.062 142.205 L697.289 142.205 L697.289 156.279 Q697.289 159.45 698.145 160.353 Q699.025 161.256 701.687 161.256 L706.062 161.256 L706.062 164.821 L701.687 164.821 Q696.756 164.821 694.881 162.992 Q693.006 161.14 693.006 156.279 L693.006 142.205 L689.881 142.205 L689.881 138.895 L693.006 138.895 L693.006 131.534 L697.289 131.534 Z" fill="#000000" fill-rule="nonzero" fill-opacity="1" /><path clip-path="url(#clip360)" d="M728.191 139.659 L728.191 143.686 Q726.386 142.761 724.441 142.298 Q722.497 141.835 720.414 141.835 Q717.242 141.835 715.645 142.807 Q714.071 143.779 714.071 145.723 Q714.071 147.205 715.205 148.061 Q716.34 148.895 719.765 149.659 L721.224 149.983 Q725.761 150.955 727.659 152.737 Q729.58 154.497 729.58 157.668 Q729.58 161.279 726.71 163.385 Q723.863 165.492 718.863 165.492 Q716.779 165.492 714.511 165.075 Q712.265 164.682 709.765 163.872 L709.765 159.473 Q712.127 160.7 714.418 161.325 Q716.71 161.927 718.955 161.927 Q721.964 161.927 723.585 160.909 Q725.205 159.867 725.205 157.992 Q725.205 156.256 724.025 155.33 Q722.867 154.404 718.909 153.548 L717.427 153.2 Q713.469 152.367 711.71 150.654 Q709.951 148.918 709.951 145.909 Q709.951 142.251 712.543 140.261 Q715.136 138.27 719.904 138.27 Q722.265 138.27 724.349 138.617 Q726.432 138.964 728.191 139.659 Z" fill="#000000" fill-rule="nonzero" fill-opacity="1" /><path clip-path="url(#clip360)" d="M761.663 128.849 Q758.562 134.173 757.057 139.381 Q755.552 144.589 755.552 149.936 Q755.552 155.284 757.057 160.538 Q758.585 165.77 761.663 171.071 L757.96 171.071 Q754.487 165.631 752.751 160.376 Q751.038 155.122 751.038 149.936 Q751.038 144.774 752.751 139.543 Q754.464 134.312 757.96 128.849 L761.663 128.849 Z" fill="#000000" fill-rule="nonzero" fill-opacity="1" /><path clip-path="url(#clip360)" d="M792.103 150.793 L792.103 152.876 L772.52 152.876 Q772.798 157.274 775.159 159.589 Q777.543 161.881 781.779 161.881 Q784.233 161.881 786.524 161.279 Q788.839 160.677 791.108 159.473 L791.108 163.501 Q788.816 164.473 786.409 164.983 Q784.001 165.492 781.524 165.492 Q775.321 165.492 771.686 161.881 Q768.075 158.27 768.075 152.112 Q768.075 145.747 771.501 142.02 Q774.95 138.27 780.784 138.27 Q786.015 138.27 789.047 141.649 Q792.103 145.006 792.103 150.793 M787.844 149.543 Q787.797 146.048 785.876 143.964 Q783.978 141.881 780.83 141.881 Q777.265 141.881 775.112 143.895 Q772.983 145.909 772.659 149.566 L787.844 149.543 Z" fill="#000000" fill-rule="nonzero" fill-opacity="1" /><path clip-path="url(#clip360)" d="M819.811 138.895 L810.436 151.511 L820.297 164.821 L815.274 164.821 L807.728 154.635 L800.182 164.821 L795.159 164.821 L805.228 151.256 L796.015 138.895 L801.038 138.895 L807.913 148.131 L814.788 138.895 L819.811 138.895 Z" fill="#000000" fill-rule="nonzero" fill-opacity="1" /><path clip-path="url(#clip360)" d="M830.529 131.534 L830.529 138.895 L839.302 138.895 L839.302 142.205 L830.529 142.205 L830.529 156.279 Q830.529 159.45 831.385 160.353 Q832.265 161.256 834.927 161.256 L839.302 161.256 L839.302 164.821 L834.927 164.821 Q829.996 164.821 828.121 162.992 Q826.246 161.14 826.246 156.279 L826.246 142.205 L823.121 142.205 L823.121 138.895 L826.246 138.895 L826.246 131.534 L830.529 131.534 Z" fill="#000000" fill-rule="nonzero" fill-opacity="1" /><path clip-path="url(#clip360)" d="M859.927 142.876 Q859.209 142.46 858.353 142.274 Q857.519 142.066 856.501 142.066 Q852.89 142.066 850.945 144.427 Q849.024 146.765 849.024 151.163 L849.024 164.821 L844.742 164.821 L844.742 138.895 L849.024 138.895 L849.024 142.923 Q850.367 140.561 852.519 139.427 Q854.672 138.27 857.751 138.27 Q858.191 138.27 858.723 138.339 Q859.255 138.386 859.904 138.501 L859.927 142.876 Z" fill="#000000" fill-rule="nonzero" fill-opacity="1" /><path clip-path="url(#clip360)" d="M876.177 151.788 Q871.015 151.788 869.024 152.969 Q867.033 154.149 867.033 156.997 Q867.033 159.265 868.515 160.608 Q870.019 161.927 872.589 161.927 Q876.13 161.927 878.26 159.427 Q880.413 156.904 880.413 152.737 L880.413 151.788 L876.177 151.788 M884.672 150.029 L884.672 164.821 L880.413 164.821 L880.413 160.885 Q878.954 163.247 876.778 164.381 Q874.603 165.492 871.454 165.492 Q867.473 165.492 865.112 163.27 Q862.774 161.024 862.774 157.274 Q862.774 152.899 865.691 150.677 Q868.63 148.455 874.441 148.455 L880.413 148.455 L880.413 148.038 Q880.413 145.099 878.468 143.501 Q876.547 141.881 873.052 141.881 Q870.829 141.881 868.723 142.413 Q866.616 142.946 864.672 144.011 L864.672 140.075 Q867.01 139.173 869.209 138.733 Q871.408 138.27 873.491 138.27 Q879.116 138.27 881.894 141.186 Q884.672 144.103 884.672 150.029 Z" fill="#000000" fill-rule="nonzero" fill-opacity="1" /><path clip-path="url(#clip360)" d="M912.102 139.89 L912.102 143.872 Q910.297 142.876 908.468 142.39 Q906.663 141.881 904.811 141.881 Q900.667 141.881 898.376 144.52 Q896.084 147.136 896.084 151.881 Q896.084 156.626 898.376 159.265 Q900.667 161.881 904.811 161.881 Q906.663 161.881 908.468 161.395 Q910.297 160.885 912.102 159.89 L912.102 163.825 Q910.32 164.659 908.399 165.075 Q906.501 165.492 904.348 165.492 Q898.491 165.492 895.042 161.811 Q891.593 158.131 891.593 151.881 Q891.593 145.538 895.065 141.904 Q898.561 138.27 904.626 138.27 Q906.593 138.27 908.468 138.687 Q910.343 139.08 912.102 139.89 Z" fill="#000000" fill-rule="nonzero" fill-opacity="1" /><path clip-path="url(#clip360)" d="M923.723 131.534 L923.723 138.895 L932.496 138.895 L932.496 142.205 L923.723 142.205 L923.723 156.279 Q923.723 159.45 924.579 160.353 Q925.459 161.256 928.121 161.256 L932.496 161.256 L932.496 164.821 L928.121 164.821 Q923.19 164.821 921.315 162.992 Q919.44 161.14 919.44 156.279 L919.44 142.205 L916.315 142.205 L916.315 138.895 L919.44 138.895 L919.44 131.534 L923.723 131.534 Z" fill="#000000" fill-rule="nonzero" fill-opacity="1" /><path clip-path="url(#clip360)" d="M938.098 138.895 L942.357 138.895 L942.357 164.821 L938.098 164.821 L938.098 138.895 M938.098 128.802 L942.357 128.802 L942.357 134.196 L938.098 134.196 L938.098 128.802 Z" fill="#000000" fill-rule="nonzero" fill-opacity="1" /><path clip-path="url(#clip360)" d="M961.315 141.881 Q957.889 141.881 955.898 144.566 Q953.908 147.228 953.908 151.881 Q953.908 156.534 955.875 159.219 Q957.866 161.881 961.315 161.881 Q964.718 161.881 966.709 159.196 Q968.699 156.51 968.699 151.881 Q968.699 147.274 966.709 144.589 Q964.718 141.881 961.315 141.881 M961.315 138.27 Q966.871 138.27 970.042 141.881 Q973.213 145.492 973.213 151.881 Q973.213 158.247 970.042 161.881 Q966.871 165.492 961.315 165.492 Q955.736 165.492 952.565 161.881 Q949.417 158.247 949.417 151.881 Q949.417 145.492 952.565 141.881 Q955.736 138.27 961.315 138.27 Z" fill="#000000" fill-rule="nonzero" fill-opacity="1" /><path clip-path="url(#clip360)" d="M1001.82 149.173 L1001.82 164.821 L997.565 164.821 L997.565 149.311 Q997.565 145.631 996.13 143.802 Q994.695 141.974 991.824 141.974 Q988.375 141.974 986.384 144.173 Q984.394 146.372 984.394 150.168 L984.394 164.821 L980.111 164.821 L980.111 138.895 L984.394 138.895 L984.394 142.923 Q985.921 140.585 987.982 139.427 Q990.065 138.27 992.773 138.27 Q997.241 138.27 999.532 141.048 Q1001.82 143.802 1001.82 149.173 Z" fill="#000000" fill-rule="nonzero" fill-opacity="1" /><path clip-path="url(#clip360)" d="M1011.41 158.941 L1016.29 158.941 L1016.29 164.821 L1011.41 164.821 L1011.41 158.941 M1011.41 140.307 L1016.29 140.307 L1016.29 146.186 L1011.41 146.186 L1011.41 140.307 Z" fill="#000000" fill-rule="nonzero" fill-opacity="1" /><path clip-path="url(#clip360)" d="M1037.47 145.677 Q1034.32 145.677 1032.47 147.83 Q1030.64 149.983 1030.64 153.733 Q1030.64 157.46 1032.47 159.635 Q1034.32 161.788 1037.47 161.788 Q1040.62 161.788 1042.45 159.635 Q1044.3 157.46 1044.3 153.733 Q1044.3 149.983 1042.45 147.83 Q1040.62 145.677 1037.47 145.677 M1046.75 131.025 L1046.75 135.284 Q1045 134.45 1043.19 134.011 Q1041.41 133.571 1039.65 133.571 Q1035.02 133.571 1032.56 136.696 Q1030.13 139.821 1029.79 146.14 Q1031.15 144.126 1033.21 143.061 Q1035.27 141.974 1037.75 141.974 Q1042.96 141.974 1045.97 145.145 Q1049 148.293 1049 153.733 Q1049 159.057 1045.85 162.274 Q1042.7 165.492 1037.47 165.492 Q1031.48 165.492 1028.31 160.909 Q1025.13 156.302 1025.13 147.575 Q1025.13 139.381 1029.02 134.52 Q1032.91 129.636 1039.46 129.636 Q1041.22 129.636 1043 129.983 Q1044.81 130.33 1046.75 131.025 Z" fill="#000000" fill-rule="nonzero" fill-opacity="1" /><path clip-path="url(#clip360)" d="M1055.78 128.849 L1059.49 128.849 Q1062.96 134.312 1064.67 139.543 Q1066.41 144.774 1066.41 149.936 Q1066.41 155.122 1064.67 160.376 Q1062.96 165.631 1059.49 171.071 L1055.78 171.071 Q1058.86 165.77 1060.37 160.538 Q1061.89 155.284 1061.89 149.936 Q1061.89 144.589 1060.37 139.381 Q1058.86 134.173 1055.78 128.849 Z" fill="#000000" fill-rule="nonzero" fill-opacity="1" /></svg>
