<?xml version="1.0" encoding="utf-8"?>
<svg xmlns="http://www.w3.org/2000/svg" xmlns:xlink="http://www.w3.org/1999/xlink" width="430" height="430" viewBox="0 0 1720 1720">
<defs>
  <clipPath id="clip400">
    <rect x="0" y="0" width="1720" height="1720"/>
  </clipPath>
</defs>
<path clip-path="url(#clip400)" d="M0 1720 L1720 1720 L1720 0 L0 0  Z" fill="#ffffff" fill-rule="evenodd" fill-opacity="1"/>
<defs>
  <clipPath id="clip401">
    <rect x="344" y="172" width="1205" height="1205"/>
  </clipPath>
</defs>
<path clip-path="url(#clip400)" d="M209.636 1500.94 L1609.76 1500.94 L1609.76 47.2441 L209.636 47.2441  Z" fill="#ffffff" fill-rule="evenodd" fill-opacity="1"/>
<defs>
  <clipPath id="clip402">
    <rect x="209" y="47" width="1401" height="1455"/>
  </clipPath>
</defs>
<polyline clip-path="url(#clip402)" style="stroke:#000000; stroke-linecap:round; stroke-linejoin:round; stroke-width:2; stroke-opacity:0.1; fill:none" points="249.262,1500.94 249.262,47.2441 "/>
<polyline clip-path="url(#clip402)" style="stroke:#000000; stroke-linecap:round; stroke-linejoin:round; stroke-width:2; stroke-opacity:0.1; fill:none" points="459.486,1500.94 459.486,47.2441 "/>
<polyline clip-path="url(#clip402)" style="stroke:#000000; stroke-linecap:round; stroke-linejoin:round; stroke-width:2; stroke-opacity:0.1; fill:none" points="669.71,1500.94 669.71,47.2441 "/>
<polyline clip-path="url(#clip402)" style="stroke:#000000; stroke-linecap:round; stroke-linejoin:round; stroke-width:2; stroke-opacity:0.1; fill:none" points="879.934,1500.94 879.934,47.2441 "/>
<polyline clip-path="url(#clip402)" style="stroke:#000000; stroke-linecap:round; stroke-linejoin:round; stroke-width:2; stroke-opacity:0.1; fill:none" points="1090.16,1500.94 1090.16,47.2441 "/>
<polyline clip-path="url(#clip402)" style="stroke:#000000; stroke-linecap:round; stroke-linejoin:round; stroke-width:2; stroke-opacity:0.1; fill:none" points="1300.38,1500.94 1300.38,47.2441 "/>
<polyline clip-path="url(#clip402)" style="stroke:#000000; stroke-linecap:round; stroke-linejoin:round; stroke-width:2; stroke-opacity:0.1; fill:none" points="1510.61,1500.94 1510.61,47.2441 "/>
<polyline clip-path="url(#clip400)" style="stroke:#000000; stroke-linecap:round; stroke-linejoin:round; stroke-width:4; stroke-opacity:1; fill:none" points="209.636,1500.94 1609.76,1500.94 "/>
<polyline clip-path="url(#clip400)" style="stroke:#000000; stroke-linecap:round; stroke-linejoin:round; stroke-width:4; stroke-opacity:1; fill:none" points="249.262,1500.94 249.262,1482.04 "/>
<polyline clip-path="url(#clip400)" style="stroke:#000000; stroke-linecap:round; stroke-linejoin:round; stroke-width:4; stroke-opacity:1; fill:none" points="459.486,1500.94 459.486,1482.04 "/>
<polyline clip-path="url(#clip400)" style="stroke:#000000; stroke-linecap:round; stroke-linejoin:round; stroke-width:4; stroke-opacity:1; fill:none" points="669.71,1500.94 669.71,1482.04 "/>
<polyline clip-path="url(#clip400)" style="stroke:#000000; stroke-linecap:round; stroke-linejoin:round; stroke-width:4; stroke-opacity:1; fill:none" points="879.934,1500.94 879.934,1482.04 "/>
<polyline clip-path="url(#clip400)" style="stroke:#000000; stroke-linecap:round; stroke-linejoin:round; stroke-width:4; stroke-opacity:1; fill:none" points="1090.16,1500.94 1090.16,1482.04 "/>
<polyline clip-path="url(#clip400)" style="stroke:#000000; stroke-linecap:round; stroke-linejoin:round; stroke-width:4; stroke-opacity:1; fill:none" points="1300.38,1500.94 1300.38,1482.04 "/>
<polyline clip-path="url(#clip400)" style="stroke:#000000; stroke-linecap:round; stroke-linejoin:round; stroke-width:4; stroke-opacity:1; fill:none" points="1510.61,1500.94 1510.61,1482.04 "/>
<path clip-path="url(#clip400)" d="M249.262 1526.42 Q245.651 1526.42 243.822 1529.98 Q242.017 1533.52 242.017 1540.65 Q242.017 1547.76 243.822 1551.33 Q245.651 1554.87 249.262 1554.87 Q252.896 1554.87 254.702 1551.33 Q256.531 1547.76 256.531 1540.65 Q256.531 1533.52 254.702 1529.98 Q252.896 1526.42 249.262 1526.42 M249.262 1522.71 Q255.072 1522.71 258.128 1527.32 Q261.207 1531.9 261.207 1540.65 Q261.207 1549.38 258.128 1553.99 Q255.072 1558.57 249.262 1558.57 Q243.452 1558.57 240.373 1553.99 Q237.318 1549.38 237.318 1540.65 Q237.318 1531.9 240.373 1527.32 Q243.452 1522.71 249.262 1522.71 Z" fill="#000000" fill-rule="nonzero" fill-opacity="1" /><path clip-path="url(#clip400)" d="M449.868 1553.96 L457.507 1553.96 L457.507 1527.6 L449.197 1529.27 L449.197 1525.01 L457.461 1523.34 L462.136 1523.34 L462.136 1553.96 L469.775 1553.96 L469.775 1557.9 L449.868 1557.9 L449.868 1553.96 Z" fill="#000000" fill-rule="nonzero" fill-opacity="1" /><path clip-path="url(#clip400)" d="M664.363 1553.96 L680.682 1553.96 L680.682 1557.9 L658.738 1557.9 L658.738 1553.96 Q661.4 1551.21 665.983 1546.58 Q670.589 1541.93 671.77 1540.59 Q674.015 1538.06 674.895 1536.33 Q675.798 1534.57 675.798 1532.88 Q675.798 1530.12 673.853 1528.39 Q671.932 1526.65 668.83 1526.65 Q666.631 1526.65 664.177 1527.41 Q661.747 1528.18 658.969 1529.73 L658.969 1525.01 Q661.793 1523.87 664.247 1523.29 Q666.701 1522.71 668.738 1522.71 Q674.108 1522.71 677.302 1525.4 Q680.497 1528.09 680.497 1532.58 Q680.497 1534.71 679.687 1536.63 Q678.9 1538.52 676.793 1541.12 Q676.214 1541.79 673.113 1545.01 Q670.011 1548.2 664.363 1553.96 Z" fill="#000000" fill-rule="nonzero" fill-opacity="1" /><path clip-path="url(#clip400)" d="M884.181 1539.27 Q887.538 1539.98 889.413 1542.25 Q891.311 1544.52 891.311 1547.85 Q891.311 1552.97 887.792 1555.77 Q884.274 1558.57 877.792 1558.57 Q875.617 1558.57 873.302 1558.13 Q871.01 1557.71 868.556 1556.86 L868.556 1552.34 Q870.501 1553.48 872.816 1554.06 Q875.13 1554.64 877.654 1554.64 Q882.052 1554.64 884.343 1552.9 Q886.658 1551.16 886.658 1547.85 Q886.658 1544.8 884.505 1543.09 Q882.376 1541.35 878.556 1541.35 L874.529 1541.35 L874.529 1537.51 L878.742 1537.51 Q882.191 1537.51 884.019 1536.14 Q885.848 1534.75 885.848 1532.16 Q885.848 1529.5 883.95 1528.09 Q882.075 1526.65 878.556 1526.65 Q876.635 1526.65 874.436 1527.07 Q872.237 1527.48 869.598 1528.36 L869.598 1524.2 Q872.26 1523.46 874.575 1523.09 Q876.913 1522.71 878.973 1522.71 Q884.297 1522.71 887.399 1525.15 Q890.501 1527.55 890.501 1531.67 Q890.501 1534.54 888.857 1536.53 Q887.214 1538.5 884.181 1539.27 Z" fill="#000000" fill-rule="nonzero" fill-opacity="1" /><path clip-path="url(#clip400)" d="M1093.17 1527.41 L1081.36 1545.86 L1093.17 1545.86 L1093.17 1527.41 M1091.94 1523.34 L1097.82 1523.34 L1097.82 1545.86 L1102.75 1545.86 L1102.75 1549.75 L1097.82 1549.75 L1097.82 1557.9 L1093.17 1557.9 L1093.17 1549.75 L1077.56 1549.75 L1077.56 1545.24 L1091.94 1523.34 Z" fill="#000000" fill-rule="nonzero" fill-opacity="1" /><path clip-path="url(#clip400)" d="M1290.66 1523.34 L1309.02 1523.34 L1309.02 1527.28 L1294.94 1527.28 L1294.94 1535.75 Q1295.96 1535.4 1296.98 1535.24 Q1298 1535.05 1299.02 1535.05 Q1304.8 1535.05 1308.18 1538.22 Q1311.56 1541.4 1311.56 1546.81 Q1311.56 1552.39 1308.09 1555.49 Q1304.62 1558.57 1298.3 1558.57 Q1296.12 1558.57 1293.85 1558.2 Q1291.61 1557.83 1289.2 1557.09 L1289.2 1552.39 Q1291.28 1553.52 1293.51 1554.08 Q1295.73 1554.64 1298.21 1554.64 Q1302.21 1554.64 1304.55 1552.53 Q1306.89 1550.42 1306.89 1546.81 Q1306.89 1543.2 1304.55 1541.09 Q1302.21 1538.99 1298.21 1538.99 Q1296.33 1538.99 1294.46 1539.4 Q1292.6 1539.82 1290.66 1540.7 L1290.66 1523.34 Z" fill="#000000" fill-rule="nonzero" fill-opacity="1" /><path clip-path="url(#clip400)" d="M1511.01 1538.76 Q1507.86 1538.76 1506.01 1540.91 Q1504.18 1543.06 1504.18 1546.81 Q1504.18 1550.54 1506.01 1552.71 Q1507.86 1554.87 1511.01 1554.87 Q1514.16 1554.87 1515.99 1552.71 Q1517.84 1550.54 1517.84 1546.81 Q1517.84 1543.06 1515.99 1540.91 Q1514.16 1538.76 1511.01 1538.76 M1520.29 1524.1 L1520.29 1528.36 Q1518.53 1527.53 1516.73 1527.09 Q1514.95 1526.65 1513.19 1526.65 Q1508.56 1526.65 1506.1 1529.77 Q1503.67 1532.9 1503.33 1539.22 Q1504.69 1537.21 1506.75 1536.14 Q1508.81 1535.05 1511.29 1535.05 Q1516.5 1535.05 1519.51 1538.22 Q1522.54 1541.37 1522.54 1546.81 Q1522.54 1552.14 1519.39 1555.35 Q1516.24 1558.57 1511.01 1558.57 Q1505.01 1558.57 1501.84 1553.99 Q1498.67 1549.38 1498.67 1540.65 Q1498.67 1532.46 1502.56 1527.6 Q1506.45 1522.71 1513 1522.71 Q1514.76 1522.71 1516.54 1523.06 Q1518.35 1523.41 1520.29 1524.1 Z" fill="#000000" fill-rule="nonzero" fill-opacity="1" /><path clip-path="url(#clip400)" d="M919.821 1613.01 L899.547 1613.01 Q900.024 1622.52 902.22 1626.56 Q904.957 1631.53 909.7 1631.53 Q914.474 1631.53 917.116 1626.53 Q919.439 1622.14 919.821 1613.01 M919.726 1607.59 Q918.835 1598.56 917.116 1595.37 Q914.379 1590.34 909.7 1590.34 Q904.83 1590.34 902.252 1595.31 Q900.215 1599.32 899.61 1607.59 L919.726 1607.59 M909.7 1585.57 Q917.339 1585.57 921.699 1592.32 Q926.06 1599.03 926.06 1610.94 Q926.06 1622.81 921.699 1629.56 Q917.339 1636.34 909.7 1636.34 Q902.029 1636.34 897.7 1629.56 Q893.34 1622.81 893.34 1610.94 Q893.34 1599.03 897.7 1592.32 Q902.029 1585.57 909.7 1585.57 Z" fill="#000000" fill-rule="nonzero" fill-opacity="1" /><polyline clip-path="url(#clip402)" style="stroke:#000000; stroke-linecap:round; stroke-linejoin:round; stroke-width:2; stroke-opacity:0.1; fill:none" points="209.636,1257.14 1609.76,1257.14 "/>
<polyline clip-path="url(#clip402)" style="stroke:#000000; stroke-linecap:round; stroke-linejoin:round; stroke-width:2; stroke-opacity:0.1; fill:none" points="209.636,858.746 1609.76,858.746 "/>
<polyline clip-path="url(#clip402)" style="stroke:#000000; stroke-linecap:round; stroke-linejoin:round; stroke-width:2; stroke-opacity:0.1; fill:none" points="209.636,460.349 1609.76,460.349 "/>
<polyline clip-path="url(#clip402)" style="stroke:#000000; stroke-linecap:round; stroke-linejoin:round; stroke-width:2; stroke-opacity:0.1; fill:none" points="209.636,61.9521 1609.76,61.9521 "/>
<polyline clip-path="url(#clip400)" style="stroke:#000000; stroke-linecap:round; stroke-linejoin:round; stroke-width:4; stroke-opacity:1; fill:none" points="209.636,1500.94 209.636,47.2441 "/>
<polyline clip-path="url(#clip400)" style="stroke:#000000; stroke-linecap:round; stroke-linejoin:round; stroke-width:4; stroke-opacity:1; fill:none" points="209.636,1257.14 228.534,1257.14 "/>
<polyline clip-path="url(#clip400)" style="stroke:#000000; stroke-linecap:round; stroke-linejoin:round; stroke-width:4; stroke-opacity:1; fill:none" points="209.636,858.746 228.534,858.746 "/>
<polyline clip-path="url(#clip400)" style="stroke:#000000; stroke-linecap:round; stroke-linejoin:round; stroke-width:4; stroke-opacity:1; fill:none" points="209.636,460.349 228.534,460.349 "/>
<polyline clip-path="url(#clip400)" style="stroke:#000000; stroke-linecap:round; stroke-linejoin:round; stroke-width:4; stroke-opacity:1; fill:none" points="209.636,61.9521 228.534,61.9521 "/>
<path clip-path="url(#clip400)" d="M67.3319 1242.94 Q63.7208 1242.94 61.8921 1246.51 Q60.0865 1250.05 60.0865 1257.18 Q60.0865 1264.28 61.8921 1267.85 Q63.7208 1271.39 67.3319 1271.39 Q70.9661 1271.39 72.7717 1267.85 Q74.6004 1264.28 74.6004 1257.18 Q74.6004 1250.05 72.7717 1246.51 Q70.9661 1242.94 67.3319 1242.94 M67.3319 1239.24 Q73.142 1239.24 76.1976 1243.84 Q79.2763 1248.43 79.2763 1257.18 Q79.2763 1265.9 76.1976 1270.51 Q73.142 1275.09 67.3319 1275.09 Q61.5217 1275.09 58.443 1270.51 Q55.3875 1265.9 55.3875 1257.18 Q55.3875 1248.43 58.443 1243.84 Q61.5217 1239.24 67.3319 1239.24 Z" fill="#000000" fill-rule="nonzero" fill-opacity="1" /><path clip-path="url(#clip400)" d="M87.4938 1268.54 L92.378 1268.54 L92.378 1274.42 L87.4938 1274.42 L87.4938 1268.54 Z" fill="#000000" fill-rule="nonzero" fill-opacity="1" /><path clip-path="url(#clip400)" d="M112.563 1242.94 Q108.952 1242.94 107.123 1246.51 Q105.318 1250.05 105.318 1257.18 Q105.318 1264.28 107.123 1267.85 Q108.952 1271.39 112.563 1271.39 Q116.197 1271.39 118.003 1267.85 Q119.832 1264.28 119.832 1257.18 Q119.832 1250.05 118.003 1246.51 Q116.197 1242.94 112.563 1242.94 M112.563 1239.24 Q118.373 1239.24 121.429 1243.84 Q124.507 1248.43 124.507 1257.18 Q124.507 1265.9 121.429 1270.51 Q118.373 1275.09 112.563 1275.09 Q106.753 1275.09 103.674 1270.51 Q100.619 1265.9 100.619 1257.18 Q100.619 1248.43 103.674 1243.84 Q106.753 1239.24 112.563 1239.24 Z" fill="#000000" fill-rule="nonzero" fill-opacity="1" /><path clip-path="url(#clip400)" d="M142.725 1242.94 Q139.114 1242.94 137.285 1246.51 Q135.48 1250.05 135.48 1257.18 Q135.48 1264.28 137.285 1267.85 Q139.114 1271.39 142.725 1271.39 Q146.359 1271.39 148.165 1267.85 Q149.993 1264.28 149.993 1257.18 Q149.993 1250.05 148.165 1246.51 Q146.359 1242.94 142.725 1242.94 M142.725 1239.24 Q148.535 1239.24 151.591 1243.84 Q154.669 1248.43 154.669 1257.18 Q154.669 1265.9 151.591 1270.51 Q148.535 1275.09 142.725 1275.09 Q136.915 1275.09 133.836 1270.51 Q130.781 1265.9 130.781 1257.18 Q130.781 1248.43 133.836 1243.84 Q136.915 1239.24 142.725 1239.24 Z" fill="#000000" fill-rule="nonzero" fill-opacity="1" /><path clip-path="url(#clip400)" d="M162.933 1239.86 L181.29 1239.86 L181.29 1243.8 L167.216 1243.8 L167.216 1252.27 Q168.234 1251.92 169.253 1251.76 Q170.271 1251.58 171.29 1251.58 Q177.077 1251.58 180.456 1254.75 Q183.836 1257.92 183.836 1263.34 Q183.836 1268.91 180.364 1272.02 Q176.891 1275.09 170.572 1275.09 Q168.396 1275.09 166.128 1274.72 Q163.882 1274.35 161.475 1273.61 L161.475 1268.91 Q163.558 1270.05 165.78 1270.6 Q168.003 1271.16 170.479 1271.16 Q174.484 1271.16 176.822 1269.05 Q179.16 1266.95 179.16 1263.34 Q179.16 1259.72 176.822 1257.62 Q174.484 1255.51 170.479 1255.51 Q168.604 1255.51 166.729 1255.93 Q164.878 1256.34 162.933 1257.22 L162.933 1239.86 Z" fill="#000000" fill-rule="nonzero" fill-opacity="1" /><path clip-path="url(#clip400)" d="M66.3365 844.545 Q62.7254 844.545 60.8967 848.11 Q59.0912 851.651 59.0912 858.781 Q59.0912 865.887 60.8967 869.452 Q62.7254 872.994 66.3365 872.994 Q69.9707 872.994 71.7763 869.452 Q73.605 865.887 73.605 858.781 Q73.605 851.651 71.7763 848.11 Q69.9707 844.545 66.3365 844.545 M66.3365 840.841 Q72.1467 840.841 75.2022 845.448 Q78.2809 850.031 78.2809 858.781 Q78.2809 867.508 75.2022 872.114 Q72.1467 876.698 66.3365 876.698 Q60.5264 876.698 57.4477 872.114 Q54.3921 867.508 54.3921 858.781 Q54.3921 850.031 57.4477 845.448 Q60.5264 840.841 66.3365 840.841 Z" fill="#000000" fill-rule="nonzero" fill-opacity="1" /><path clip-path="url(#clip400)" d="M86.4984 870.147 L91.3827 870.147 L91.3827 876.026 L86.4984 876.026 L86.4984 870.147 Z" fill="#000000" fill-rule="nonzero" fill-opacity="1" /><path clip-path="url(#clip400)" d="M111.568 844.545 Q107.957 844.545 106.128 848.11 Q104.322 851.651 104.322 858.781 Q104.322 865.887 106.128 869.452 Q107.957 872.994 111.568 872.994 Q115.202 872.994 117.008 869.452 Q118.836 865.887 118.836 858.781 Q118.836 851.651 117.008 848.11 Q115.202 844.545 111.568 844.545 M111.568 840.841 Q117.378 840.841 120.433 845.448 Q123.512 850.031 123.512 858.781 Q123.512 867.508 120.433 872.114 Q117.378 876.698 111.568 876.698 Q105.758 876.698 102.679 872.114 Q99.6234 867.508 99.6234 858.781 Q99.6234 850.031 102.679 845.448 Q105.758 840.841 111.568 840.841 Z" fill="#000000" fill-rule="nonzero" fill-opacity="1" /><path clip-path="url(#clip400)" d="M132.54 872.091 L140.179 872.091 L140.179 845.725 L131.869 847.392 L131.869 843.133 L140.132 841.466 L144.808 841.466 L144.808 872.091 L152.447 872.091 L152.447 876.026 L132.54 876.026 L132.54 872.091 Z" fill="#000000" fill-rule="nonzero" fill-opacity="1" /><path clip-path="url(#clip400)" d="M171.891 844.545 Q168.28 844.545 166.452 848.11 Q164.646 851.651 164.646 858.781 Q164.646 865.887 166.452 869.452 Q168.28 872.994 171.891 872.994 Q175.526 872.994 177.331 869.452 Q179.16 865.887 179.16 858.781 Q179.16 851.651 177.331 848.11 Q175.526 844.545 171.891 844.545 M171.891 840.841 Q177.702 840.841 180.757 845.448 Q183.836 850.031 183.836 858.781 Q183.836 867.508 180.757 872.114 Q177.702 876.698 171.891 876.698 Q166.081 876.698 163.003 872.114 Q159.947 867.508 159.947 858.781 Q159.947 850.031 163.003 845.448 Q166.081 840.841 171.891 840.841 Z" fill="#000000" fill-rule="nonzero" fill-opacity="1" /><path clip-path="url(#clip400)" d="M67.3319 446.148 Q63.7208 446.148 61.8921 449.713 Q60.0865 453.254 60.0865 460.384 Q60.0865 467.49 61.8921 471.055 Q63.7208 474.597 67.3319 474.597 Q70.9661 474.597 72.7717 471.055 Q74.6004 467.49 74.6004 460.384 Q74.6004 453.254 72.7717 449.713 Q70.9661 446.148 67.3319 446.148 M67.3319 442.444 Q73.142 442.444 76.1976 447.051 Q79.2763 451.634 79.2763 460.384 Q79.2763 469.111 76.1976 473.717 Q73.142 478.3 67.3319 478.3 Q61.5217 478.3 58.443 473.717 Q55.3875 469.111 55.3875 460.384 Q55.3875 451.634 58.443 447.051 Q61.5217 442.444 67.3319 442.444 Z" fill="#000000" fill-rule="nonzero" fill-opacity="1" /><path clip-path="url(#clip400)" d="M87.4938 471.75 L92.378 471.75 L92.378 477.629 L87.4938 477.629 L87.4938 471.75 Z" fill="#000000" fill-rule="nonzero" fill-opacity="1" /><path clip-path="url(#clip400)" d="M112.563 446.148 Q108.952 446.148 107.123 449.713 Q105.318 453.254 105.318 460.384 Q105.318 467.49 107.123 471.055 Q108.952 474.597 112.563 474.597 Q116.197 474.597 118.003 471.055 Q119.832 467.49 119.832 460.384 Q119.832 453.254 118.003 449.713 Q116.197 446.148 112.563 446.148 M112.563 442.444 Q118.373 442.444 121.429 447.051 Q124.507 451.634 124.507 460.384 Q124.507 469.111 121.429 473.717 Q118.373 478.3 112.563 478.3 Q106.753 478.3 103.674 473.717 Q100.619 469.111 100.619 460.384 Q100.619 451.634 103.674 447.051 Q106.753 442.444 112.563 442.444 Z" fill="#000000" fill-rule="nonzero" fill-opacity="1" /><path clip-path="url(#clip400)" d="M133.535 473.694 L141.174 473.694 L141.174 447.328 L132.864 448.995 L132.864 444.736 L141.128 443.069 L145.804 443.069 L145.804 473.694 L153.443 473.694 L153.443 477.629 L133.535 477.629 L133.535 473.694 Z" fill="#000000" fill-rule="nonzero" fill-opacity="1" /><path clip-path="url(#clip400)" d="M162.933 443.069 L181.29 443.069 L181.29 447.004 L167.216 447.004 L167.216 455.476 Q168.234 455.129 169.253 454.967 Q170.271 454.782 171.29 454.782 Q177.077 454.782 180.456 457.953 Q183.836 461.125 183.836 466.541 Q183.836 472.12 180.364 475.222 Q176.891 478.3 170.572 478.3 Q168.396 478.3 166.128 477.93 Q163.882 477.56 161.475 476.819 L161.475 472.12 Q163.558 473.254 165.78 473.81 Q168.003 474.365 170.479 474.365 Q174.484 474.365 176.822 472.259 Q179.16 470.152 179.16 466.541 Q179.16 462.93 176.822 460.824 Q174.484 458.717 170.479 458.717 Q168.604 458.717 166.729 459.134 Q164.878 459.551 162.933 460.43 L162.933 443.069 Z" fill="#000000" fill-rule="nonzero" fill-opacity="1" /><path clip-path="url(#clip400)" d="M66.3365 47.7507 Q62.7254 47.7507 60.8967 51.3155 Q59.0912 54.8572 59.0912 61.9868 Q59.0912 69.0932 60.8967 72.658 Q62.7254 76.1997 66.3365 76.1997 Q69.9707 76.1997 71.7763 72.658 Q73.605 69.0932 73.605 61.9868 Q73.605 54.8572 71.7763 51.3155 Q69.9707 47.7507 66.3365 47.7507 M66.3365 44.0471 Q72.1467 44.0471 75.2022 48.6535 Q78.2809 53.2368 78.2809 61.9868 Q78.2809 70.7136 75.2022 75.32 Q72.1467 79.9033 66.3365 79.9033 Q60.5264 79.9033 57.4477 75.32 Q54.3921 70.7136 54.3921 61.9868 Q54.3921 53.2368 57.4477 48.6535 Q60.5264 44.0471 66.3365 44.0471 Z" fill="#000000" fill-rule="nonzero" fill-opacity="1" /><path clip-path="url(#clip400)" d="M86.4984 73.3525 L91.3827 73.3525 L91.3827 79.2321 L86.4984 79.2321 L86.4984 73.3525 Z" fill="#000000" fill-rule="nonzero" fill-opacity="1" /><path clip-path="url(#clip400)" d="M111.568 47.7507 Q107.957 47.7507 106.128 51.3155 Q104.322 54.8572 104.322 61.9868 Q104.322 69.0932 106.128 72.658 Q107.957 76.1997 111.568 76.1997 Q115.202 76.1997 117.008 72.658 Q118.836 69.0932 118.836 61.9868 Q118.836 54.8572 117.008 51.3155 Q115.202 47.7507 111.568 47.7507 M111.568 44.0471 Q117.378 44.0471 120.433 48.6535 Q123.512 53.2368 123.512 61.9868 Q123.512 70.7136 120.433 75.32 Q117.378 79.9033 111.568 79.9033 Q105.758 79.9033 102.679 75.32 Q99.6234 70.7136 99.6234 61.9868 Q99.6234 53.2368 102.679 48.6535 Q105.758 44.0471 111.568 44.0471 Z" fill="#000000" fill-rule="nonzero" fill-opacity="1" /><path clip-path="url(#clip400)" d="M135.757 75.2969 L152.077 75.2969 L152.077 79.2321 L130.132 79.2321 L130.132 75.2969 Q132.794 72.5423 137.378 67.9127 Q141.984 63.2599 143.165 61.9173 Q145.41 59.3942 146.29 57.6581 Q147.193 55.8988 147.193 54.209 Q147.193 51.4544 145.248 49.7183 Q143.327 47.9822 140.225 47.9822 Q138.026 47.9822 135.572 48.7461 Q133.142 49.51 130.364 51.0609 L130.364 46.3387 Q133.188 45.2045 135.642 44.6258 Q138.095 44.0471 140.132 44.0471 Q145.503 44.0471 148.697 46.7322 Q151.892 49.4174 151.892 53.9081 Q151.892 56.0377 151.081 57.959 Q150.294 59.8572 148.188 62.4497 Q147.609 63.121 144.507 66.3386 Q141.406 69.533 135.757 75.2969 Z" fill="#000000" fill-rule="nonzero" fill-opacity="1" /><path clip-path="url(#clip400)" d="M171.891 47.7507 Q168.28 47.7507 166.452 51.3155 Q164.646 54.8572 164.646 61.9868 Q164.646 69.0932 166.452 72.658 Q168.28 76.1997 171.891 76.1997 Q175.526 76.1997 177.331 72.658 Q179.16 69.0932 179.16 61.9868 Q179.16 54.8572 177.331 51.3155 Q175.526 47.7507 171.891 47.7507 M171.891 44.0471 Q177.702 44.0471 180.757 48.6535 Q183.836 53.2368 183.836 61.9868 Q183.836 70.7136 180.757 75.32 Q177.702 79.9033 171.891 79.9033 Q166.081 79.9033 163.003 75.32 Q159.947 70.7136 159.947 61.9868 Q159.947 53.2368 163.003 48.6535 Q166.081 44.0471 171.891 44.0471 Z" fill="#000000" fill-rule="nonzero" fill-opacity="1" /><polyline clip-path="url(#clip402)" style="stroke:#009af9; stroke-linecap:round; stroke-linejoin:round; stroke-width:4; stroke-opacity:1; fill:none" points="249.262,1188.85 250.915,1196.82 252.568,1204.76 254.222,1212.67 255.875,1220.54 257.528,1228.36 259.181,1236.12 260.834,1243.81 262.487,1251.42 264.141,1258.95 265.794,1266.38 267.447,1273.72 269.1,1280.95 270.753,1288.06 272.406,1295.05 274.06,1301.91 275.713,1308.64 277.366,1315.23 279.019,1321.68 280.672,1327.97 282.325,1334.11 283.979,1340.1 285.632,1345.93 287.285,1351.59 288.938,1357.09 290.591,1362.42 292.244,1367.58 293.897,1372.57 295.551,1377.39 297.204,1382.05 298.857,1386.53 300.51,1390.84 302.163,1394.98 303.816,1398.96 305.47,1402.77 307.123,1406.41 308.776,1409.9 310.429,1413.22 312.082,1416.39 313.735,1419.41 315.389,1422.28 317.042,1425 318.695,1427.58 320.348,1430.02 322.001,1432.33 323.654,1434.51 325.308,1436.56 326.961,1438.49 328.614,1440.3 330.267,1442 331.92,1443.59 333.573,1445.08 335.226,1446.47 336.88,1447.76 338.533,1448.96 340.186,1450.07 341.839,1451.1 343.492,1452.05 345.145,1452.92 346.799,1453.73 348.452,1454.46 350.105,1455.13 351.758,1455.75 353.411,1456.3 355.064,1456.8 356.718,1457.25 358.371,1457.66 360.024,1458.02 361.677,1458.34 363.33,1458.62 364.983,1458.86 366.637,1459.07 368.29,1459.25 369.943,1459.4 371.596,1459.53 373.249,1459.62 374.902,1459.7 376.556,1459.75 378.209,1459.78 379.862,1459.8 381.515,1459.79 383.168,1459.78 384.821,1459.74 386.474,1459.7 388.128,1459.64 389.781,1459.57 391.434,1459.49 393.087,1459.4 394.74,1459.3 396.393,1459.2 398.047,1459.09 399.7,1458.97 401.353,1458.84 403.006,1458.71 404.659,1458.58 406.312,1458.43 407.966,1458.29 409.619,1458.14 411.272,1457.99 412.925,1457.83 414.578,1457.67 416.231,1457.51 417.885,1457.35 419.538,1457.18 421.191,1457.01 422.844,1456.84 424.497,1456.67 426.15,1456.5 427.803,1456.32 429.457,1456.14 431.11,1455.96 432.763,1455.78 434.416,1455.6 436.069,1455.42 437.722,1455.23 439.376,1455.05 441.029,1454.86 442.682,1454.67 444.335,1454.48 445.988,1454.29 447.641,1454.1 449.295,1453.91 450.948,1453.72 452.601,1453.52 454.254,1453.32 455.907,1453.13 457.56,1452.93 459.214,1452.73 460.867,1452.53 462.52,1452.33 464.173,1452.12 465.826,1451.92 467.479,1451.71 469.133,1451.5 470.786,1451.3 472.439,1451.09 474.092,1450.88 475.745,1450.66 477.398,1450.45 479.051,1450.23 480.705,1450.02 482.358,1449.8 484.011,1449.58 485.664,1449.36 487.317,1449.13 488.97,1448.91 490.624,1448.68 492.277,1448.45 493.93,1448.22 495.583,1447.99 497.236,1447.75 498.889,1447.52 500.543,1447.28 502.196,1447.04 503.849,1446.79 505.502,1446.55 507.155,1446.3 508.808,1446.05 510.462,1445.8 512.115,1445.54 513.768,1445.29 515.421,1445.03 517.074,1444.76 518.727,1444.5 520.38,1444.23 522.034,1443.96 523.687,1443.69 525.34,1443.41 526.993,1443.13 528.646,1442.85 530.299,1442.56 531.953,1442.27 533.606,1441.98 535.259,1441.68 536.912,1441.38 538.565,1441.07 540.218,1440.77 541.872,1440.45 543.525,1440.14 545.178,1439.82 546.831,1439.5 548.484,1439.17 550.137,1438.83 551.791,1438.5 553.444,1438.16 555.097,1437.81 556.75,1437.46 558.403,1437.11 560.056,1436.75 561.71,1436.38 563.363,1436.01 565.016,1435.64 566.669,1435.26 568.322,1434.87 569.975,1434.48 571.628,1434.08 573.282,1433.68 574.935,1433.27 576.588,1432.86 578.241,1432.44 579.894,1432.01 581.547,1431.58 583.201,1431.14 584.854,1430.7 586.507,1430.25 588.16,1429.79 589.813,1429.33 591.466,1428.86 593.12,1428.38 594.773,1427.89 596.426,1427.4 598.079,1426.9 599.732,1426.4 601.385,1425.88 603.039,1425.36 604.692,1424.83 606.345,1424.29 607.998,1423.75 609.651,1423.19 611.304,1422.63 612.957,1422.06 614.611,1421.49 616.264,1420.9 617.917,1420.3 619.57,1419.7 621.223,1419.09 622.876,1418.47 624.53,1417.84 626.183,1417.2 627.836,1416.55 629.489,1415.89 631.142,1415.22 632.795,1414.54 634.449,1413.85 636.102,1413.16 637.755,1412.45 639.408,1411.73 641.061,1411 642.714,1410.26 644.368,1409.52 646.021,1408.76 647.674,1407.99 649.327,1407.21 650.98,1406.42 652.633,1405.62 654.287,1404.8 655.94,1403.98 657.593,1403.15 659.246,1402.3 660.899,1401.44 662.552,1400.58 664.205,1399.7 665.859,1398.81 667.512,1397.91 669.165,1396.99 670.818,1396.07 672.471,1395.14 674.124,1394.19 675.778,1393.23 677.431,1392.27 679.084,1391.29 680.737,1390.3 682.39,1389.29 684.043,1388.28 685.697,1387.26 687.35,1386.22 689.003,1385.18 690.656,1384.12 692.309,1383.06 693.962,1381.98 695.616,1380.9 697.269,1379.8 698.922,1378.69 700.575,1377.58 702.228,1376.45 703.881,1375.32 705.534,1374.18 707.188,1373.03 708.841,1371.87 710.494,1370.7 712.147,1369.52 713.8,1368.34 715.453,1367.15 717.107,1365.95 718.76,1364.75 720.413,1363.54 722.066,1362.33 723.719,1361.11 725.372,1359.88 727.026,1358.65 728.679,1357.42 730.332,1356.18 731.985,1354.94 733.638,1353.69 735.291,1352.45 736.945,1351.2 738.598,1349.95 740.251,1348.7 741.904,1347.45 743.557,1346.19 745.21,1344.94 746.864,1343.69 748.517,1342.44 750.17,1341.19 751.823,1339.94 753.476,1338.69 755.129,1337.44 756.782,1336.19 758.436,1334.95 760.089,1333.71 761.742,1332.47 763.395,1331.23 765.048,1329.99 766.701,1328.76 768.355,1327.52 770.008,1326.29 771.661,1325.05 773.314,1323.81 774.967,1322.58 776.62,1321.34 778.274,1320.09 779.927,1318.84 781.58,1317.59 783.233,1316.32 784.886,1315.05 786.539,1313.77 788.193,1312.47 789.846,1311.15 791.499,1309.82 793.152,1308.47 794.805,1307.1 796.458,1305.69 798.111,1304.26 799.765,1302.79 801.418,1301.29 803.071,1299.75 804.724,1298.16 806.377,1296.52 808.03,1294.82 809.684,1293.07 811.337,1291.25 812.99,1289.37 814.643,1287.41 816.296,1285.36 817.949,1283.24 819.603,1281.01 821.256,1278.7 822.909,1276.27 824.562,1273.73 826.215,1271.08 827.868,1268.3 829.522,1265.39 831.175,1262.35 832.828,1259.15 834.481,1255.81 836.134,1252.31 837.787,1248.65 839.44,1244.81 841.094,1240.8 842.747,1236.6 844.4,1232.22 846.053,1227.64 847.706,1222.86 849.359,1217.88 851.013,1212.69 852.666,1207.28 854.319,1201.66 855.972,1195.82 857.625,1189.75 859.278,1183.46 860.932,1176.94 862.585,1170.19 864.238,1163.21 865.891,1156.01 867.544,1148.58 869.197,1140.92 870.851,1133.04 872.504,1124.94 874.157,1116.62 875.81,1108.08 877.463,1099.34 879.116,1090.4 880.77,1081.27 882.423,1071.95 884.076,1062.44 885.729,1052.77 887.382,1042.94 889.035,1032.96 890.688,1022.83 892.342,1012.58 893.995,1002.22 895.648,991.746 897.301,981.184 898.954,970.545 900.607,959.842 902.261,949.09 903.914,938.303 905.567,927.495 907.22,916.681 908.873,905.877 910.526,895.097 912.18,884.356 913.833,873.669 915.486,863.052 917.139,852.518 918.792,842.082 920.445,831.759 922.099,821.561 923.752,811.503 925.405,801.598 927.058,791.857 928.711,782.294 930.364,772.918 932.017,763.743 933.671,754.776 935.324,746.029 936.977,737.509 938.63,729.226 940.283,721.186 941.936,713.395 943.59,705.861 945.243,698.588 946.896,691.58 948.549,684.842 950.202,678.375 951.855,672.182 953.509,666.265 955.162,660.624 956.815,655.258 958.468,650.168 960.121,645.352 961.774,640.808 963.428,636.532 965.081,632.523 966.734,628.776 968.387,625.287 970.04,622.051 971.693,619.063 973.347,616.317 975,613.808 976.653,611.53 978.306,609.475 979.959,607.636 981.612,606.008 983.265,604.582 984.919,603.351 986.572,602.308 988.225,601.444 989.878,600.754 991.531,600.228 993.184,599.859 994.838,599.639 996.491,599.561 998.144,599.618 999.797,599.801 1001.45,600.104 1003.1,600.519 1004.76,601.04 1006.41,601.659 1008.06,602.37 1009.72,603.166 1011.37,604.041 1013.02,604.989 1014.68,606.004 1016.33,607.08 1017.98,608.212 1019.64,609.395 1021.29,610.623 1022.94,611.892 1024.59,613.198 1026.25,614.535 1027.9,615.901 1029.55,617.29 1031.21,618.699 1032.86,620.125 1034.51,621.564 1036.17,623.013 1037.82,624.47 1039.47,625.931 1041.13,627.395 1042.78,628.858 1044.43,630.318 1046.09,631.773 1047.74,633.222 1049.39,634.662 1051.05,636.092 1052.7,637.51 1054.35,638.915 1056,640.306 1057.66,641.68 1059.31,643.038 1060.96,644.378 1062.62,645.699 1064.27,647 1065.92,648.281 1067.58,649.54 1069.23,650.778 1070.88,651.993 1072.54,653.185 1074.19,654.353 1075.84,655.497 1077.5,656.617 1079.15,657.712 1080.8,658.782 1082.46,659.826 1084.11,660.845 1085.76,661.838 1087.41,662.804 1089.07,663.744 1090.72,664.657 1092.37,665.544 1094.03,666.403 1095.68,667.236 1097.33,668.041 1098.99,668.818 1100.64,669.568 1102.29,670.291 1103.95,670.985 1105.6,671.652 1107.25,672.29 1108.91,672.9 1110.56,673.482 1112.21,674.036 1113.87,674.561 1115.52,675.057 1117.17,675.524 1118.82,675.961 1120.48,676.37 1122.13,676.749 1123.78,677.098 1125.44,677.418 1127.09,677.707 1128.74,677.965 1130.4,678.193 1132.05,678.39 1133.7,678.556 1135.36,678.69 1137.01,678.792 1138.66,678.861 1140.32,678.898 1141.97,678.902 1143.62,678.871 1145.28,678.807 1146.93,678.708 1148.58,678.573 1150.23,678.403 1151.89,678.196 1153.54,677.951 1155.19,677.669 1156.85,677.348 1158.5,676.987 1160.15,676.586 1161.81,676.144 1163.46,675.659 1165.11,675.131 1166.77,674.558 1168.42,673.94 1170.07,673.274 1171.73,672.561 1173.38,671.797 1175.03,670.982 1176.69,670.115 1178.34,669.193 1179.99,668.215 1181.64,667.179 1183.3,666.083 1184.95,664.925 1186.6,663.702 1188.26,662.413 1189.91,661.056 1191.56,659.626 1193.22,658.123 1194.87,656.543 1196.52,654.883 1198.18,653.141 1199.83,651.312 1201.48,649.395 1203.14,647.385 1204.79,645.279 1206.44,643.073 1208.1,640.764 1209.75,638.347 1211.4,635.819 1213.05,633.175 1214.71,630.412 1216.36,627.524 1218.01,624.508 1219.67,621.358 1221.32,618.071 1222.97,614.641 1224.63,611.065 1226.28,607.337 1227.93,603.452 1229.59,599.406 1231.24,595.195 1232.89,590.813 1234.55,586.256 1236.2,581.519 1237.85,576.6 1239.51,571.492 1241.16,566.192 1242.81,560.698 1244.46,555.004 1246.12,549.108 1247.77,543.008 1249.42,536.7 1251.08,530.183 1252.73,523.456 1254.38,516.516 1256.04,509.364 1257.69,501.999 1259.34,494.423 1261,486.636 1262.65,478.64 1264.3,470.439 1265.96,462.034 1267.61,453.432 1269.26,444.636 1270.92,435.652 1272.57,426.488 1274.22,417.15 1275.87,407.648 1277.53,397.992 1279.18,388.19 1280.83,378.255 1282.49,368.2 1284.14,358.038 1285.79,347.782 1287.45,337.448 1289.1,327.053 1290.75,316.613 1292.41,306.147 1294.06,295.673 1295.71,285.211 1297.37,274.781 1299.02,264.405 1300.67,254.104 1302.33,243.9 1303.98,233.817 1305.63,223.878 1307.28,214.106 1308.94,204.526 1310.59,195.162 1312.24,186.038 1313.9,177.178 1315.55,168.608 1317.2,160.351 1318.86,152.431 1320.51,144.871 1322.16,137.696 1323.82,130.926 1325.47,124.585 1327.12,118.693 1328.78,113.271 1330.43,108.337 1332.08,103.91 1333.74,100.008 1335.39,96.6447 1337.04,93.8362 1338.7,91.5952 1340.35,89.9333 1342,88.8609 1343.65,88.3864 1345.31,88.5169 1346.96,89.2576 1348.61,90.6122 1350.27,92.5826 1351.92,95.1689 1353.57,98.3695 1355.23,102.181 1356.88,106.599 1358.53,111.616 1360.19,117.223 1361.84,123.411 1363.49,130.169 1365.15,137.481 1366.8,145.335 1368.45,153.713 1370.11,162.598 1371.76,171.971 1373.41,181.812 1375.06,192.1 1376.72,202.812 1378.37,213.926 1380.02,225.417 1381.68,237.261 1383.33,249.432 1384.98,261.905 1386.64,274.653 1388.29,287.65 1389.94,300.869 1391.6,314.284 1393.25,327.867 1394.9,341.593 1396.56,355.434 1398.21,369.365 1399.86,383.36 1401.52,397.394 1403.17,411.443 1404.82,425.482 1406.47,439.489 1408.13,453.442 1409.78,467.318 1411.43,481.098 1413.09,494.763 1414.74,508.293 1416.39,521.671 1418.05,534.881 1419.7,547.909 1421.35,560.74 1423.01,573.36 1424.66,585.76 1426.31,597.928 1427.97,609.854 1429.62,621.532 1431.27,632.953 1432.93,644.112 1434.58,655.004 1436.23,665.626 1437.88,675.976 1439.54,686.05 1441.19,695.85 1442.84,705.376 1444.5,714.628 1446.15,723.609 1447.8,732.322 1449.46,740.772 1451.11,748.962 1452.76,756.898 1454.42,764.586 1456.07,772.033 1457.72,779.245 1459.38,786.232 1461.03,793 1462.68,799.559 1464.34,805.917 1465.99,812.084 1467.64,818.071 1469.29,823.886 1470.95,829.54 1472.6,835.043 1474.25,840.407 1475.91,845.642 1477.56,850.759 1479.21,855.768 1480.87,860.681 1482.52,865.509 1484.17,870.263 1485.83,874.953 1487.48,879.59 1489.13,884.185 1490.79,888.749 1492.44,893.291 1494.09,897.822 1495.75,902.352 1497.4,906.891 1499.05,911.448 1500.7,916.032 1502.36,920.652 1504.01,925.317 1505.66,930.034 1507.32,934.811 1508.97,939.657 1510.62,944.577 1512.28,949.579 1513.93,954.668 1515.58,959.85 1517.24,965.13 1518.89,970.514 1520.54,976.004 1522.2,981.605 1523.85,987.319 1525.5,993.15 1527.16,999.099 1528.81,1005.17 1530.46,1011.36 1532.11,1017.67 1533.77,1024.1 1535.42,1030.65 1537.07,1037.32 1538.73,1044.1 1540.38,1051 1542.03,1058.01 1543.69,1065.13 1545.34,1072.35 1546.99,1079.67 1548.65,1087.08 1550.3,1094.58 1551.95,1102.16 1553.61,1109.81 1555.26,1117.54 1556.91,1125.32 1558.57,1133.16 1560.22,1141.05 1561.87,1148.97 1563.52,1156.92 1565.18,1164.9 1566.83,1172.88 1568.48,1180.87 1570.14,1188.85 "/>
<path clip-path="url(#clip400)" d="M256.307 199.381 L1081.96 199.381 L1081.96 95.7006 L256.307 95.7006  Z" fill="#ffffff" fill-rule="evenodd" fill-opacity="1"/>
<polyline clip-path="url(#clip400)" style="stroke:#000000; stroke-linecap:round; stroke-linejoin:round; stroke-width:4; stroke-opacity:1; fill:none" points="256.307,199.381 1081.96,199.381 1081.96,95.7006 256.307,95.7006 256.307,199.381 "/>
<polyline clip-path="url(#clip400)" style="stroke:#009af9; stroke-linecap:round; stroke-linejoin:round; stroke-width:4; stroke-opacity:1; fill:none" points="271.864,147.541 365.206,147.541 "/>
<path clip-path="url(#clip400)" d="M401.11 143.872 Q402.707 141.001 404.929 139.636 Q407.151 138.27 410.161 138.27 Q414.212 138.27 416.411 141.117 Q418.61 143.941 418.61 149.173 L418.61 164.821 L414.327 164.821 L414.327 149.311 Q414.327 145.585 413.008 143.779 Q411.688 141.974 408.98 141.974 Q405.67 141.974 403.749 144.173 Q401.827 146.372 401.827 150.168 L401.827 164.821 L397.545 164.821 L397.545 149.311 Q397.545 145.561 396.226 143.779 Q394.906 141.974 392.151 141.974 Q388.888 141.974 386.966 144.196 Q385.045 146.395 385.045 150.168 L385.045 164.821 L380.763 164.821 L380.763 138.895 L385.045 138.895 L385.045 142.923 Q386.503 140.538 388.54 139.404 Q390.577 138.27 393.378 138.27 Q396.202 138.27 398.17 139.705 Q400.161 141.14 401.11 143.872 Z" fill="#000000" fill-rule="nonzero" fill-opacity="1" /><path clip-path="url(#clip400)" d="M449.281 150.793 L449.281 152.876 L429.698 152.876 Q429.975 157.274 432.336 159.589 Q434.721 161.881 438.957 161.881 Q441.41 161.881 443.702 161.279 Q446.017 160.677 448.285 159.473 L448.285 163.501 Q445.994 164.473 443.586 164.983 Q441.179 165.492 438.702 165.492 Q432.498 165.492 428.864 161.881 Q425.253 158.27 425.253 152.112 Q425.253 145.747 428.679 142.02 Q432.128 138.27 437.961 138.27 Q443.193 138.27 446.225 141.649 Q449.281 145.006 449.281 150.793 M445.022 149.543 Q444.975 146.048 443.054 143.964 Q441.156 141.881 438.008 141.881 Q434.443 141.881 432.29 143.895 Q430.161 145.909 429.836 149.566 L445.022 149.543 Z" fill="#000000" fill-rule="nonzero" fill-opacity="1" /><path clip-path="url(#clip400)" d="M468.054 151.788 Q462.892 151.788 460.901 152.969 Q458.91 154.149 458.91 156.997 Q458.91 159.265 460.392 160.608 Q461.896 161.927 464.466 161.927 Q468.008 161.927 470.137 159.427 Q472.29 156.904 472.29 152.737 L472.29 151.788 L468.054 151.788 M476.549 150.029 L476.549 164.821 L472.29 164.821 L472.29 160.885 Q470.832 163.247 468.656 164.381 Q466.48 165.492 463.332 165.492 Q459.35 165.492 456.989 163.27 Q454.651 161.024 454.651 157.274 Q454.651 152.899 457.568 150.677 Q460.508 148.455 466.318 148.455 L472.29 148.455 L472.29 148.038 Q472.29 145.099 470.345 143.501 Q468.424 141.881 464.929 141.881 Q462.707 141.881 460.6 142.413 Q458.494 142.946 456.549 144.011 L456.549 140.075 Q458.887 139.173 461.086 138.733 Q463.285 138.27 465.369 138.27 Q470.994 138.27 473.771 141.186 Q476.549 144.103 476.549 150.029 Z" fill="#000000" fill-rule="nonzero" fill-opacity="1" /><path clip-path="url(#clip400)" d="M501.85 139.659 L501.85 143.686 Q500.044 142.761 498.1 142.298 Q496.156 141.835 494.072 141.835 Q490.901 141.835 489.304 142.807 Q487.73 143.779 487.73 145.723 Q487.73 147.205 488.864 148.061 Q489.998 148.895 493.424 149.659 L494.882 149.983 Q499.419 150.955 501.318 152.737 Q503.239 154.497 503.239 157.668 Q503.239 161.279 500.368 163.385 Q497.521 165.492 492.521 165.492 Q490.438 165.492 488.169 165.075 Q485.924 164.682 483.424 163.872 L483.424 159.473 Q485.785 160.7 488.077 161.325 Q490.369 161.927 492.614 161.927 Q495.623 161.927 497.243 160.909 Q498.864 159.867 498.864 157.992 Q498.864 156.256 497.683 155.33 Q496.526 154.404 492.568 153.548 L491.086 153.2 Q487.128 152.367 485.369 150.654 Q483.609 148.918 483.609 145.909 Q483.609 142.251 486.202 140.261 Q488.794 138.27 493.563 138.27 Q495.924 138.27 498.007 138.617 Q500.091 138.964 501.85 139.659 Z" fill="#000000" fill-rule="nonzero" fill-opacity="1" /><path clip-path="url(#clip400)" d="M509.581 154.589 L509.581 138.895 L513.841 138.895 L513.841 154.427 Q513.841 158.108 515.276 159.96 Q516.711 161.788 519.581 161.788 Q523.03 161.788 525.021 159.589 Q527.035 157.39 527.035 153.594 L527.035 138.895 L531.294 138.895 L531.294 164.821 L527.035 164.821 L527.035 160.839 Q525.484 163.2 523.424 164.358 Q521.387 165.492 518.679 165.492 Q514.211 165.492 511.896 162.714 Q509.581 159.936 509.581 154.589 M520.299 138.27 L520.299 138.27 Z" fill="#000000" fill-rule="nonzero" fill-opacity="1" /><path clip-path="url(#clip400)" d="M555.09 142.876 Q554.373 142.46 553.516 142.274 Q552.683 142.066 551.664 142.066 Q548.053 142.066 546.109 144.427 Q544.188 146.765 544.188 151.163 L544.188 164.821 L539.905 164.821 L539.905 138.895 L544.188 138.895 L544.188 142.923 Q545.53 140.561 547.683 139.427 Q549.836 138.27 552.914 138.27 Q553.354 138.27 553.887 138.339 Q554.419 138.386 555.067 138.501 L555.09 142.876 Z" fill="#000000" fill-rule="nonzero" fill-opacity="1" /><path clip-path="url(#clip400)" d="M580.692 150.793 L580.692 152.876 L561.109 152.876 Q561.387 157.274 563.748 159.589 Q566.132 161.881 570.368 161.881 Q572.822 161.881 575.113 161.279 Q577.428 160.677 579.697 159.473 L579.697 163.501 Q577.405 164.473 574.998 164.983 Q572.59 165.492 570.113 165.492 Q563.91 165.492 560.276 161.881 Q556.664 158.27 556.664 152.112 Q556.664 145.747 560.09 142.02 Q563.539 138.27 569.373 138.27 Q574.604 138.27 577.637 141.649 Q580.692 145.006 580.692 150.793 M576.433 149.543 Q576.387 146.048 574.465 143.964 Q572.567 141.881 569.419 141.881 Q565.854 141.881 563.701 143.895 Q561.572 145.909 561.248 149.566 L576.433 149.543 Z" fill="#000000" fill-rule="nonzero" fill-opacity="1" /><path clip-path="url(#clip400)" d="M607.868 143.872 Q609.465 141.001 611.687 139.636 Q613.91 138.27 616.919 138.27 Q620.97 138.27 623.169 141.117 Q625.368 143.941 625.368 149.173 L625.368 164.821 L621.085 164.821 L621.085 149.311 Q621.085 145.585 619.766 143.779 Q618.447 141.974 615.738 141.974 Q612.428 141.974 610.507 144.173 Q608.585 146.372 608.585 150.168 L608.585 164.821 L604.303 164.821 L604.303 149.311 Q604.303 145.561 602.984 143.779 Q601.664 141.974 598.91 141.974 Q595.646 141.974 593.724 144.196 Q591.803 146.395 591.803 150.168 L591.803 164.821 L587.521 164.821 L587.521 138.895 L591.803 138.895 L591.803 142.923 Q593.261 140.538 595.299 139.404 Q597.336 138.27 600.136 138.27 Q602.961 138.27 604.928 139.705 Q606.919 141.14 607.868 143.872 Z" fill="#000000" fill-rule="nonzero" fill-opacity="1" /><path clip-path="url(#clip400)" d="M656.039 150.793 L656.039 152.876 L636.456 152.876 Q636.733 157.274 639.095 159.589 Q641.479 161.881 645.715 161.881 Q648.169 161.881 650.46 161.279 Q652.775 160.677 655.044 159.473 L655.044 163.501 Q652.752 164.473 650.345 164.983 Q647.937 165.492 645.46 165.492 Q639.257 165.492 635.622 161.881 Q632.011 158.27 632.011 152.112 Q632.011 145.747 635.437 142.02 Q638.886 138.27 644.72 138.27 Q649.951 138.27 652.983 141.649 Q656.039 145.006 656.039 150.793 M651.78 149.543 Q651.733 146.048 649.812 143.964 Q647.914 141.881 644.766 141.881 Q641.201 141.881 639.048 143.895 Q636.919 145.909 636.595 149.566 L651.78 149.543 Z" fill="#000000" fill-rule="nonzero" fill-opacity="1" /><path clip-path="url(#clip400)" d="M684.58 149.173 L684.58 164.821 L680.321 164.821 L680.321 149.311 Q680.321 145.631 678.886 143.802 Q677.451 141.974 674.58 141.974 Q671.131 141.974 669.141 144.173 Q667.15 146.372 667.15 150.168 L667.15 164.821 L662.868 164.821 L662.868 138.895 L667.15 138.895 L667.15 142.923 Q668.678 140.585 670.738 139.427 Q672.821 138.27 675.53 138.27 Q679.997 138.27 682.289 141.048 Q684.58 143.802 684.58 149.173 Z" fill="#000000" fill-rule="nonzero" fill-opacity="1" /><path clip-path="url(#clip400)" d="M697.289 131.534 L697.289 138.895 L706.062 138.895 L706.062 142.205 L697.289 142.205 L697.289 156.279 Q697.289 159.45 698.145 160.353 Q699.025 161.256 701.687 161.256 L706.062 161.256 L706.062 164.821 L701.687 164.821 Q696.756 164.821 694.881 162.992 Q693.006 161.14 693.006 156.279 L693.006 142.205 L689.881 142.205 L689.881 138.895 L693.006 138.895 L693.006 131.534 L697.289 131.534 Z" fill="#000000" fill-rule="nonzero" fill-opacity="1" /><path clip-path="url(#clip400)" d="M728.191 139.659 L728.191 143.686 Q726.386 142.761 724.441 142.298 Q722.497 141.835 720.414 141.835 Q717.242 141.835 715.645 142.807 Q714.071 143.779 714.071 145.723 Q714.071 147.205 715.205 148.061 Q716.34 148.895 719.765 149.659 L721.224 149.983 Q725.761 150.955 727.659 152.737 Q729.58 154.497 729.58 157.668 Q729.58 161.279 726.71 163.385 Q723.863 165.492 718.863 165.492 Q716.779 165.492 714.511 165.075 Q712.265 164.682 709.765 163.872 L709.765 159.473 Q712.127 160.7 714.418 161.325 Q716.71 161.927 718.955 161.927 Q721.964 161.927 723.585 160.909 Q725.205 159.867 725.205 157.992 Q725.205 156.256 724.025 155.33 Q722.867 154.404 718.909 153.548 L717.427 153.2 Q713.469 152.367 711.71 150.654 Q709.951 148.918 709.951 145.909 Q709.951 142.251 712.543 140.261 Q715.136 138.27 719.904 138.27 Q722.265 138.27 724.349 138.617 Q726.432 138.964 728.191 139.659 Z" fill="#000000" fill-rule="nonzero" fill-opacity="1" /><path clip-path="url(#clip400)" d="M761.663 128.849 Q758.562 134.173 757.057 139.381 Q755.552 144.589 755.552 149.936 Q755.552 155.284 757.057 160.538 Q758.585 165.77 761.663 171.071 L757.96 171.071 Q754.487 165.631 752.751 160.376 Q751.038 155.122 751.038 149.936 Q751.038 144.774 752.751 139.543 Q754.464 134.312 757.96 128.849 L761.663 128.849 Z" fill="#000000" fill-rule="nonzero" fill-opacity="1" /><path clip-path="url(#clip400)" d="M792.103 150.793 L792.103 152.876 L772.52 152.876 Q772.798 157.274 775.159 159.589 Q777.543 161.881 781.779 161.881 Q784.233 161.881 786.524 161.279 Q788.839 160.677 791.108 159.473 L791.108 163.501 Q788.816 164.473 786.409 164.983 Q784.001 165.492 781.524 165.492 Q775.321 165.492 771.686 161.881 Q768.075 158.27 768.075 152.112 Q768.075 145.747 771.501 142.02 Q774.95 138.27 780.784 138.27 Q786.015 138.27 789.047 141.649 Q792.103 145.006 792.103 150.793 M787.844 149.543 Q787.797 146.048 785.876 143.964 Q783.978 141.881 780.83 141.881 Q777.265 141.881 775.112 143.895 Q772.983 145.909 772.659 149.566 L787.844 149.543 Z" fill="#000000" fill-rule="nonzero" fill-opacity="1" /><path clip-path="url(#clip400)" d="M819.811 138.895 L810.436 151.511 L820.297 164.821 L815.274 164.821 L807.728 154.635 L800.182 164.821 L795.159 164.821 L805.228 151.256 L796.015 138.895 L801.038 138.895 L807.913 148.131 L814.788 138.895 L819.811 138.895 Z" fill="#000000" fill-rule="nonzero" fill-opacity="1" /><path clip-path="url(#clip400)" d="M830.529 131.534 L830.529 138.895 L839.302 138.895 L839.302 142.205 L830.529 142.205 L830.529 156.279 Q830.529 159.45 831.385 160.353 Q832.265 161.256 834.927 161.256 L839.302 161.256 L839.302 164.821 L834.927 164.821 Q829.996 164.821 828.121 162.992 Q826.246 161.14 826.246 156.279 L826.246 142.205 L823.121 142.205 L823.121 138.895 L826.246 138.895 L826.246 131.534 L830.529 131.534 Z" fill="#000000" fill-rule="nonzero" fill-opacity="1" /><path clip-path="url(#clip400)" d="M859.927 142.876 Q859.209 142.46 858.353 142.274 Q857.519 142.066 856.501 142.066 Q852.89 142.066 850.945 144.427 Q849.024 146.765 849.024 151.163 L849.024 164.821 L844.742 164.821 L844.742 138.895 L849.024 138.895 L849.024 142.923 Q850.367 140.561 852.519 139.427 Q854.672 138.27 857.751 138.27 Q858.191 138.27 858.723 138.339 Q859.255 138.386 859.904 138.501 L859.927 142.876 Z" fill="#000000" fill-rule="nonzero" fill-opacity="1" /><path clip-path="url(#clip400)" d="M876.177 151.788 Q871.015 151.788 869.024 152.969 Q867.033 154.149 867.033 156.997 Q867.033 159.265 868.515 160.608 Q870.019 161.927 872.589 161.927 Q876.13 161.927 878.26 159.427 Q880.413 156.904 880.413 152.737 L880.413 151.788 L876.177 151.788 M884.672 150.029 L884.672 164.821 L880.413 164.821 L880.413 160.885 Q878.954 163.247 876.778 164.381 Q874.603 165.492 871.454 165.492 Q867.473 165.492 865.112 163.27 Q862.774 161.024 862.774 157.274 Q862.774 152.899 865.691 150.677 Q868.63 148.455 874.441 148.455 L880.413 148.455 L880.413 148.038 Q880.413 145.099 878.468 143.501 Q876.547 141.881 873.052 141.881 Q870.829 141.881 868.723 142.413 Q866.616 142.946 864.672 144.011 L864.672 140.075 Q867.01 139.173 869.209 138.733 Q871.408 138.27 873.491 138.27 Q879.116 138.27 881.894 141.186 Q884.672 144.103 884.672 150.029 Z" fill="#000000" fill-rule="nonzero" fill-opacity="1" /><path clip-path="url(#clip400)" d="M912.102 139.89 L912.102 143.872 Q910.297 142.876 908.468 142.39 Q906.663 141.881 904.811 141.881 Q900.667 141.881 898.376 144.52 Q896.084 147.136 896.084 151.881 Q896.084 156.626 898.376 159.265 Q900.667 161.881 904.811 161.881 Q906.663 161.881 908.468 161.395 Q910.297 160.885 912.102 159.89 L912.102 163.825 Q910.32 164.659 908.399 165.075 Q906.501 165.492 904.348 165.492 Q898.491 165.492 895.042 161.811 Q891.593 158.131 891.593 151.881 Q891.593 145.538 895.065 141.904 Q898.561 138.27 904.626 138.27 Q906.593 138.27 908.468 138.687 Q910.343 139.08 912.102 139.89 Z" fill="#000000" fill-rule="nonzero" fill-opacity="1" /><path clip-path="url(#clip400)" d="M923.723 131.534 L923.723 138.895 L932.496 138.895 L932.496 142.205 L923.723 142.205 L923.723 156.279 Q923.723 159.45 924.579 160.353 Q925.459 161.256 928.121 161.256 L932.496 161.256 L932.496 164.821 L928.121 164.821 Q923.19 164.821 921.315 162.992 Q919.44 161.14 919.44 156.279 L919.44 142.205 L916.315 142.205 L916.315 138.895 L919.44 138.895 L919.44 131.534 L923.723 131.534 Z" fill="#000000" fill-rule="nonzero" fill-opacity="1" /><path clip-path="url(#clip400)" d="M938.098 138.895 L942.357 138.895 L942.357 164.821 L938.098 164.821 L938.098 138.895 M938.098 128.802 L942.357 128.802 L942.357 134.196 L938.098 134.196 L938.098 128.802 Z" fill="#000000" fill-rule="nonzero" fill-opacity="1" /><path clip-path="url(#clip400)" d="M961.315 141.881 Q957.889 141.881 955.898 144.566 Q953.908 147.228 953.908 151.881 Q953.908 156.534 955.875 159.219 Q957.866 161.881 961.315 161.881 Q964.718 161.881 966.709 159.196 Q968.699 156.51 968.699 151.881 Q968.699 147.274 966.709 144.589 Q964.718 141.881 961.315 141.881 M961.315 138.27 Q966.871 138.27 970.042 141.881 Q973.213 145.492 973.213 151.881 Q973.213 158.247 970.042 161.881 Q966.871 165.492 961.315 165.492 Q955.736 165.492 952.565 161.881 Q949.417 158.247 949.417 151.881 Q949.417 145.492 952.565 141.881 Q955.736 138.27 961.315 138.27 Z" fill="#000000" fill-rule="nonzero" fill-opacity="1" /><path clip-path="url(#clip400)" d="M1001.82 149.173 L1001.82 164.821 L997.565 164.821 L997.565 149.311 Q997.565 145.631 996.13 143.802 Q994.695 141.974 991.824 141.974 Q988.375 141.974 986.384 144.173 Q984.394 146.372 984.394 150.168 L984.394 164.821 L980.111 164.821 L980.111 138.895 L984.394 138.895 L984.394 142.923 Q985.921 140.585 987.982 139.427 Q990.065 138.27 992.773 138.27 Q997.241 138.27 999.532 141.048 Q1001.82 143.802 1001.82 149.173 Z" fill="#000000" fill-rule="nonzero" fill-opacity="1" /><path clip-path="url(#clip400)" d="M1011.41 158.941 L1016.29 158.941 L1016.29 164.821 L1011.41 164.821 L1011.41 158.941 M1011.41 140.307 L1016.29 140.307 L1016.29 146.186 L1011.41 146.186 L1011.41 140.307 Z" fill="#000000" fill-rule="nonzero" fill-opacity="1" /><path clip-path="url(#clip400)" d="M1025.71 130.261 L1047.93 130.261 L1047.93 132.251 L1035.39 164.821 L1030.5 164.821 L1042.31 134.196 L1025.71 134.196 L1025.71 130.261 Z" fill="#000000" fill-rule="nonzero" fill-opacity="1" /><path clip-path="url(#clip400)" d="M1055.78 128.849 L1059.49 128.849 Q1062.96 134.312 1064.67 139.543 Q1066.41 144.774 1066.41 149.936 Q1066.41 155.122 1064.67 160.376 Q1062.96 165.631 1059.49 171.071 L1055.78 171.071 Q1058.86 165.77 1060.37 160.538 Q1061.89 155.284 1061.89 149.936 Q1061.89 144.589 1060.37 139.381 Q1058.86 134.173 1055.78 128.849 Z" fill="#000000" fill-rule="nonzero" fill-opacity="1" /></svg>
