<?xml version="1.0" encoding="utf-8"?>
<svg xmlns="http://www.w3.org/2000/svg" xmlns:xlink="http://www.w3.org/1999/xlink" width="430" height="430" viewBox="0 0 1720 1720">
<defs>
  <clipPath id="clip510">
    <rect x="0" y="0" width="1720" height="1720"/>
  </clipPath>
</defs>
<path clip-path="url(#clip510)" d="M0 1720 L1720 1720 L1720 0 L0 0  Z" fill="#ffffff" fill-rule="evenodd" fill-opacity="1"/>
<defs>
  <clipPath id="clip511">
    <rect x="344" y="172" width="1205" height="1205"/>
  </clipPath>
</defs>
<path clip-path="url(#clip510)" d="M209.636 1500.94 L1672.76 1500.94 L1672.76 47.2441 L209.636 47.2441  Z" fill="#ffffff" fill-rule="evenodd" fill-opacity="1"/>
<defs>
  <clipPath id="clip512">
    <rect x="209" y="47" width="1464" height="1455"/>
  </clipPath>
</defs>
<polyline clip-path="url(#clip512)" style="stroke:#000000; stroke-linecap:round; stroke-linejoin:round; stroke-width:2; stroke-opacity:0.1; fill:none" points="251.045,1500.94 251.045,47.2441 "/>
<polyline clip-path="url(#clip512)" style="stroke:#000000; stroke-linecap:round; stroke-linejoin:round; stroke-width:2; stroke-opacity:0.1; fill:none" points="470.727,1500.94 470.727,47.2441 "/>
<polyline clip-path="url(#clip512)" style="stroke:#000000; stroke-linecap:round; stroke-linejoin:round; stroke-width:2; stroke-opacity:0.1; fill:none" points="690.409,1500.94 690.409,47.2441 "/>
<polyline clip-path="url(#clip512)" style="stroke:#000000; stroke-linecap:round; stroke-linejoin:round; stroke-width:2; stroke-opacity:0.1; fill:none" points="910.091,1500.94 910.091,47.2441 "/>
<polyline clip-path="url(#clip512)" style="stroke:#000000; stroke-linecap:round; stroke-linejoin:round; stroke-width:2; stroke-opacity:0.1; fill:none" points="1129.77,1500.94 1129.77,47.2441 "/>
<polyline clip-path="url(#clip512)" style="stroke:#000000; stroke-linecap:round; stroke-linejoin:round; stroke-width:2; stroke-opacity:0.1; fill:none" points="1349.45,1500.94 1349.45,47.2441 "/>
<polyline clip-path="url(#clip512)" style="stroke:#000000; stroke-linecap:round; stroke-linejoin:round; stroke-width:2; stroke-opacity:0.1; fill:none" points="1569.14,1500.94 1569.14,47.2441 "/>
<polyline clip-path="url(#clip510)" style="stroke:#000000; stroke-linecap:round; stroke-linejoin:round; stroke-width:4; stroke-opacity:1; fill:none" points="209.636,1500.94 1672.76,1500.94 "/>
<polyline clip-path="url(#clip510)" style="stroke:#000000; stroke-linecap:round; stroke-linejoin:round; stroke-width:4; stroke-opacity:1; fill:none" points="251.045,1500.94 251.045,1482.04 "/>
<polyline clip-path="url(#clip510)" style="stroke:#000000; stroke-linecap:round; stroke-linejoin:round; stroke-width:4; stroke-opacity:1; fill:none" points="470.727,1500.94 470.727,1482.04 "/>
<polyline clip-path="url(#clip510)" style="stroke:#000000; stroke-linecap:round; stroke-linejoin:round; stroke-width:4; stroke-opacity:1; fill:none" points="690.409,1500.94 690.409,1482.04 "/>
<polyline clip-path="url(#clip510)" style="stroke:#000000; stroke-linecap:round; stroke-linejoin:round; stroke-width:4; stroke-opacity:1; fill:none" points="910.091,1500.94 910.091,1482.04 "/>
<polyline clip-path="url(#clip510)" style="stroke:#000000; stroke-linecap:round; stroke-linejoin:round; stroke-width:4; stroke-opacity:1; fill:none" points="1129.77,1500.94 1129.77,1482.04 "/>
<polyline clip-path="url(#clip510)" style="stroke:#000000; stroke-linecap:round; stroke-linejoin:round; stroke-width:4; stroke-opacity:1; fill:none" points="1349.45,1500.94 1349.45,1482.04 "/>
<polyline clip-path="url(#clip510)" style="stroke:#000000; stroke-linecap:round; stroke-linejoin:round; stroke-width:4; stroke-opacity:1; fill:none" points="1569.14,1500.94 1569.14,1482.04 "/>
<path clip-path="url(#clip510)" d="M251.045 1526.42 Q247.434 1526.42 245.605 1529.98 Q243.8 1533.52 243.8 1540.65 Q243.8 1547.76 245.605 1551.33 Q247.434 1554.87 251.045 1554.87 Q254.679 1554.87 256.485 1551.33 Q258.313 1547.76 258.313 1540.65 Q258.313 1533.52 256.485 1529.98 Q254.679 1526.42 251.045 1526.42 M251.045 1522.71 Q256.855 1522.71 259.911 1527.32 Q262.989 1531.9 262.989 1540.65 Q262.989 1549.38 259.911 1553.99 Q256.855 1558.57 251.045 1558.57 Q245.235 1558.57 242.156 1553.99 Q239.101 1549.38 239.101 1540.65 Q239.101 1531.9 242.156 1527.32 Q245.235 1522.71 251.045 1522.71 Z" fill="#000000" fill-rule="nonzero" fill-opacity="1" /><path clip-path="url(#clip510)" d="M461.109 1553.96 L468.748 1553.96 L468.748 1527.6 L460.438 1529.27 L460.438 1525.01 L468.701 1523.34 L473.377 1523.34 L473.377 1553.96 L481.016 1553.96 L481.016 1557.9 L461.109 1557.9 L461.109 1553.96 Z" fill="#000000" fill-rule="nonzero" fill-opacity="1" /><path clip-path="url(#clip510)" d="M685.061 1553.96 L701.381 1553.96 L701.381 1557.9 L679.437 1557.9 L679.437 1553.96 Q682.099 1551.21 686.682 1546.58 Q691.288 1541.93 692.469 1540.59 Q694.714 1538.06 695.594 1536.33 Q696.497 1534.57 696.497 1532.88 Q696.497 1530.12 694.552 1528.39 Q692.631 1526.65 689.529 1526.65 Q687.33 1526.65 684.876 1527.41 Q682.446 1528.18 679.668 1529.73 L679.668 1525.01 Q682.492 1523.87 684.946 1523.29 Q687.399 1522.71 689.436 1522.71 Q694.807 1522.71 698.001 1525.4 Q701.196 1528.09 701.196 1532.58 Q701.196 1534.71 700.385 1536.63 Q699.598 1538.52 697.492 1541.12 Q696.913 1541.79 693.811 1545.01 Q690.71 1548.2 685.061 1553.96 Z" fill="#000000" fill-rule="nonzero" fill-opacity="1" /><path clip-path="url(#clip510)" d="M914.338 1539.27 Q917.695 1539.98 919.57 1542.25 Q921.468 1544.52 921.468 1547.85 Q921.468 1552.97 917.949 1555.77 Q914.431 1558.57 907.949 1558.57 Q905.773 1558.57 903.459 1558.13 Q901.167 1557.71 898.713 1556.86 L898.713 1552.34 Q900.658 1553.48 902.973 1554.06 Q905.287 1554.64 907.81 1554.64 Q912.209 1554.64 914.5 1552.9 Q916.815 1551.16 916.815 1547.85 Q916.815 1544.8 914.662 1543.09 Q912.533 1541.35 908.713 1541.35 L904.685 1541.35 L904.685 1537.51 L908.898 1537.51 Q912.347 1537.51 914.176 1536.14 Q916.005 1534.75 916.005 1532.16 Q916.005 1529.5 914.107 1528.09 Q912.232 1526.65 908.713 1526.65 Q906.792 1526.65 904.593 1527.07 Q902.394 1527.48 899.755 1528.36 L899.755 1524.2 Q902.417 1523.46 904.732 1523.09 Q907.07 1522.71 909.13 1522.71 Q914.454 1522.71 917.556 1525.15 Q920.658 1527.55 920.658 1531.67 Q920.658 1534.54 919.014 1536.53 Q917.371 1538.5 914.338 1539.27 Z" fill="#000000" fill-rule="nonzero" fill-opacity="1" /><path clip-path="url(#clip510)" d="M1132.78 1527.41 L1120.98 1545.86 L1132.78 1545.86 L1132.78 1527.41 M1131.55 1523.34 L1137.43 1523.34 L1137.43 1545.86 L1142.36 1545.86 L1142.36 1549.75 L1137.43 1549.75 L1137.43 1557.9 L1132.78 1557.9 L1132.78 1549.75 L1117.18 1549.75 L1117.18 1545.24 L1131.55 1523.34 Z" fill="#000000" fill-rule="nonzero" fill-opacity="1" /><path clip-path="url(#clip510)" d="M1339.73 1523.34 L1358.09 1523.34 L1358.09 1527.28 L1344.01 1527.28 L1344.01 1535.75 Q1345.03 1535.4 1346.05 1535.24 Q1347.07 1535.05 1348.09 1535.05 Q1353.88 1535.05 1357.26 1538.22 Q1360.63 1541.4 1360.63 1546.81 Q1360.63 1552.39 1357.16 1555.49 Q1353.69 1558.57 1347.37 1558.57 Q1345.2 1558.57 1342.93 1558.2 Q1340.68 1557.83 1338.27 1557.09 L1338.27 1552.39 Q1340.36 1553.52 1342.58 1554.08 Q1344.8 1554.64 1347.28 1554.64 Q1351.28 1554.64 1353.62 1552.53 Q1355.96 1550.42 1355.96 1546.81 Q1355.96 1543.2 1353.62 1541.09 Q1351.28 1538.99 1347.28 1538.99 Q1345.4 1538.99 1343.53 1539.4 Q1341.68 1539.82 1339.73 1540.7 L1339.73 1523.34 Z" fill="#000000" fill-rule="nonzero" fill-opacity="1" /><path clip-path="url(#clip510)" d="M1569.54 1538.76 Q1566.39 1538.76 1564.54 1540.91 Q1562.71 1543.06 1562.71 1546.81 Q1562.71 1550.54 1564.54 1552.71 Q1566.39 1554.87 1569.54 1554.87 Q1572.69 1554.87 1574.52 1552.71 Q1576.37 1550.54 1576.37 1546.81 Q1576.37 1543.06 1574.52 1540.91 Q1572.69 1538.76 1569.54 1538.76 M1578.82 1524.1 L1578.82 1528.36 Q1577.06 1527.53 1575.26 1527.09 Q1573.48 1526.65 1571.72 1526.65 Q1567.09 1526.65 1564.63 1529.77 Q1562.2 1532.9 1561.86 1539.22 Q1563.22 1537.21 1565.28 1536.14 Q1567.34 1535.05 1569.82 1535.05 Q1575.03 1535.05 1578.04 1538.22 Q1581.07 1541.37 1581.07 1546.81 Q1581.07 1552.14 1577.92 1555.35 Q1574.77 1558.57 1569.54 1558.57 Q1563.55 1558.57 1560.37 1553.99 Q1557.2 1549.38 1557.2 1540.65 Q1557.2 1532.46 1561.09 1527.6 Q1564.98 1522.71 1571.53 1522.71 Q1573.29 1522.71 1575.07 1523.06 Q1576.88 1523.41 1578.82 1524.1 Z" fill="#000000" fill-rule="nonzero" fill-opacity="1" /><path clip-path="url(#clip510)" d="M951.317 1613.01 L931.043 1613.01 Q931.52 1622.52 933.716 1626.56 Q936.453 1631.53 941.196 1631.53 Q945.97 1631.53 948.612 1626.53 Q950.935 1622.14 951.317 1613.01 M951.222 1607.59 Q950.331 1598.56 948.612 1595.37 Q945.875 1590.34 941.196 1590.34 Q936.326 1590.34 933.748 1595.31 Q931.711 1599.32 931.106 1607.59 L951.222 1607.59 M941.196 1585.57 Q948.835 1585.57 953.195 1592.32 Q957.556 1599.03 957.556 1610.94 Q957.556 1622.81 953.195 1629.56 Q948.835 1636.34 941.196 1636.34 Q933.525 1636.34 929.197 1629.56 Q924.836 1622.81 924.836 1610.94 Q924.836 1599.03 929.197 1592.32 Q933.525 1585.57 941.196 1585.57 Z" fill="#000000" fill-rule="nonzero" fill-opacity="1" /><polyline clip-path="url(#clip512)" style="stroke:#000000; stroke-linecap:round; stroke-linejoin:round; stroke-width:2; stroke-opacity:0.1; fill:none" points="209.636,1257.14 1672.76,1257.14 "/>
<polyline clip-path="url(#clip512)" style="stroke:#000000; stroke-linecap:round; stroke-linejoin:round; stroke-width:2; stroke-opacity:0.1; fill:none" points="209.636,858.746 1672.76,858.746 "/>
<polyline clip-path="url(#clip512)" style="stroke:#000000; stroke-linecap:round; stroke-linejoin:round; stroke-width:2; stroke-opacity:0.1; fill:none" points="209.636,460.349 1672.76,460.349 "/>
<polyline clip-path="url(#clip512)" style="stroke:#000000; stroke-linecap:round; stroke-linejoin:round; stroke-width:2; stroke-opacity:0.1; fill:none" points="209.636,61.952 1672.76,61.952 "/>
<polyline clip-path="url(#clip510)" style="stroke:#000000; stroke-linecap:round; stroke-linejoin:round; stroke-width:4; stroke-opacity:1; fill:none" points="209.636,1500.94 209.636,47.2441 "/>
<polyline clip-path="url(#clip510)" style="stroke:#000000; stroke-linecap:round; stroke-linejoin:round; stroke-width:4; stroke-opacity:1; fill:none" points="209.636,1257.14 228.534,1257.14 "/>
<polyline clip-path="url(#clip510)" style="stroke:#000000; stroke-linecap:round; stroke-linejoin:round; stroke-width:4; stroke-opacity:1; fill:none" points="209.636,858.746 228.534,858.746 "/>
<polyline clip-path="url(#clip510)" style="stroke:#000000; stroke-linecap:round; stroke-linejoin:round; stroke-width:4; stroke-opacity:1; fill:none" points="209.636,460.349 228.534,460.349 "/>
<polyline clip-path="url(#clip510)" style="stroke:#000000; stroke-linecap:round; stroke-linejoin:round; stroke-width:4; stroke-opacity:1; fill:none" points="209.636,61.952 228.534,61.952 "/>
<path clip-path="url(#clip510)" d="M67.3319 1242.94 Q63.7208 1242.94 61.8921 1246.51 Q60.0865 1250.05 60.0865 1257.18 Q60.0865 1264.28 61.8921 1267.85 Q63.7208 1271.39 67.3319 1271.39 Q70.9661 1271.39 72.7717 1267.85 Q74.6004 1264.28 74.6004 1257.18 Q74.6004 1250.05 72.7717 1246.51 Q70.9661 1242.94 67.3319 1242.94 M67.3319 1239.24 Q73.142 1239.24 76.1976 1243.84 Q79.2763 1248.43 79.2763 1257.18 Q79.2763 1265.9 76.1976 1270.51 Q73.142 1275.09 67.3319 1275.09 Q61.5217 1275.09 58.443 1270.51 Q55.3875 1265.9 55.3875 1257.18 Q55.3875 1248.43 58.443 1243.84 Q61.5217 1239.24 67.3319 1239.24 Z" fill="#000000" fill-rule="nonzero" fill-opacity="1" /><path clip-path="url(#clip510)" d="M87.4938 1268.54 L92.378 1268.54 L92.378 1274.42 L87.4938 1274.42 L87.4938 1268.54 Z" fill="#000000" fill-rule="nonzero" fill-opacity="1" /><path clip-path="url(#clip510)" d="M112.563 1242.94 Q108.952 1242.94 107.123 1246.51 Q105.318 1250.05 105.318 1257.18 Q105.318 1264.28 107.123 1267.85 Q108.952 1271.39 112.563 1271.39 Q116.197 1271.39 118.003 1267.85 Q119.832 1264.28 119.832 1257.18 Q119.832 1250.05 118.003 1246.51 Q116.197 1242.94 112.563 1242.94 M112.563 1239.24 Q118.373 1239.24 121.429 1243.84 Q124.507 1248.43 124.507 1257.18 Q124.507 1265.9 121.429 1270.51 Q118.373 1275.09 112.563 1275.09 Q106.753 1275.09 103.674 1270.51 Q100.619 1265.9 100.619 1257.18 Q100.619 1248.43 103.674 1243.84 Q106.753 1239.24 112.563 1239.24 Z" fill="#000000" fill-rule="nonzero" fill-opacity="1" /><path clip-path="url(#clip510)" d="M142.725 1242.94 Q139.114 1242.94 137.285 1246.51 Q135.48 1250.05 135.48 1257.18 Q135.48 1264.28 137.285 1267.85 Q139.114 1271.39 142.725 1271.39 Q146.359 1271.39 148.165 1267.85 Q149.993 1264.28 149.993 1257.18 Q149.993 1250.05 148.165 1246.51 Q146.359 1242.94 142.725 1242.94 M142.725 1239.24 Q148.535 1239.24 151.591 1243.84 Q154.669 1248.43 154.669 1257.18 Q154.669 1265.9 151.591 1270.51 Q148.535 1275.09 142.725 1275.09 Q136.915 1275.09 133.836 1270.51 Q130.781 1265.9 130.781 1257.18 Q130.781 1248.43 133.836 1243.84 Q136.915 1239.24 142.725 1239.24 Z" fill="#000000" fill-rule="nonzero" fill-opacity="1" /><path clip-path="url(#clip510)" d="M162.933 1239.86 L181.29 1239.86 L181.29 1243.8 L167.216 1243.8 L167.216 1252.27 Q168.234 1251.92 169.253 1251.76 Q170.271 1251.58 171.29 1251.58 Q177.077 1251.58 180.456 1254.75 Q183.836 1257.92 183.836 1263.34 Q183.836 1268.91 180.364 1272.02 Q176.891 1275.09 170.572 1275.09 Q168.396 1275.09 166.128 1274.72 Q163.882 1274.35 161.475 1273.61 L161.475 1268.91 Q163.558 1270.05 165.78 1270.6 Q168.003 1271.16 170.479 1271.16 Q174.484 1271.16 176.822 1269.05 Q179.16 1266.95 179.16 1263.34 Q179.16 1259.72 176.822 1257.62 Q174.484 1255.51 170.479 1255.51 Q168.604 1255.51 166.729 1255.93 Q164.878 1256.34 162.933 1257.22 L162.933 1239.86 Z" fill="#000000" fill-rule="nonzero" fill-opacity="1" /><path clip-path="url(#clip510)" d="M66.3365 844.545 Q62.7254 844.545 60.8967 848.11 Q59.0912 851.651 59.0912 858.781 Q59.0912 865.887 60.8967 869.452 Q62.7254 872.994 66.3365 872.994 Q69.9707 872.994 71.7763 869.452 Q73.605 865.887 73.605 858.781 Q73.605 851.651 71.7763 848.11 Q69.9707 844.545 66.3365 844.545 M66.3365 840.841 Q72.1467 840.841 75.2022 845.448 Q78.2809 850.031 78.2809 858.781 Q78.2809 867.508 75.2022 872.114 Q72.1467 876.698 66.3365 876.698 Q60.5264 876.698 57.4477 872.114 Q54.3921 867.508 54.3921 858.781 Q54.3921 850.031 57.4477 845.448 Q60.5264 840.841 66.3365 840.841 Z" fill="#000000" fill-rule="nonzero" fill-opacity="1" /><path clip-path="url(#clip510)" d="M86.4984 870.147 L91.3827 870.147 L91.3827 876.026 L86.4984 876.026 L86.4984 870.147 Z" fill="#000000" fill-rule="nonzero" fill-opacity="1" /><path clip-path="url(#clip510)" d="M111.568 844.545 Q107.957 844.545 106.128 848.11 Q104.322 851.651 104.322 858.781 Q104.322 865.887 106.128 869.452 Q107.957 872.994 111.568 872.994 Q115.202 872.994 117.008 869.452 Q118.836 865.887 118.836 858.781 Q118.836 851.651 117.008 848.11 Q115.202 844.545 111.568 844.545 M111.568 840.841 Q117.378 840.841 120.433 845.448 Q123.512 850.031 123.512 858.781 Q123.512 867.508 120.433 872.114 Q117.378 876.698 111.568 876.698 Q105.758 876.698 102.679 872.114 Q99.6234 867.508 99.6234 858.781 Q99.6234 850.031 102.679 845.448 Q105.758 840.841 111.568 840.841 Z" fill="#000000" fill-rule="nonzero" fill-opacity="1" /><path clip-path="url(#clip510)" d="M132.54 872.091 L140.179 872.091 L140.179 845.726 L131.869 847.392 L131.869 843.133 L140.132 841.466 L144.808 841.466 L144.808 872.091 L152.447 872.091 L152.447 876.026 L132.54 876.026 L132.54 872.091 Z" fill="#000000" fill-rule="nonzero" fill-opacity="1" /><path clip-path="url(#clip510)" d="M171.891 844.545 Q168.28 844.545 166.452 848.11 Q164.646 851.651 164.646 858.781 Q164.646 865.887 166.452 869.452 Q168.28 872.994 171.891 872.994 Q175.526 872.994 177.331 869.452 Q179.16 865.887 179.16 858.781 Q179.16 851.651 177.331 848.11 Q175.526 844.545 171.891 844.545 M171.891 840.841 Q177.702 840.841 180.757 845.448 Q183.836 850.031 183.836 858.781 Q183.836 867.508 180.757 872.114 Q177.702 876.698 171.891 876.698 Q166.081 876.698 163.003 872.114 Q159.947 867.508 159.947 858.781 Q159.947 850.031 163.003 845.448 Q166.081 840.841 171.891 840.841 Z" fill="#000000" fill-rule="nonzero" fill-opacity="1" /><path clip-path="url(#clip510)" d="M67.3319 446.148 Q63.7208 446.148 61.8921 449.713 Q60.0865 453.254 60.0865 460.384 Q60.0865 467.49 61.8921 471.055 Q63.7208 474.597 67.3319 474.597 Q70.9661 474.597 72.7717 471.055 Q74.6004 467.49 74.6004 460.384 Q74.6004 453.254 72.7717 449.713 Q70.9661 446.148 67.3319 446.148 M67.3319 442.444 Q73.142 442.444 76.1976 447.051 Q79.2763 451.634 79.2763 460.384 Q79.2763 469.111 76.1976 473.717 Q73.142 478.3 67.3319 478.3 Q61.5217 478.3 58.443 473.717 Q55.3875 469.111 55.3875 460.384 Q55.3875 451.634 58.443 447.051 Q61.5217 442.444 67.3319 442.444 Z" fill="#000000" fill-rule="nonzero" fill-opacity="1" /><path clip-path="url(#clip510)" d="M87.4938 471.75 L92.378 471.75 L92.378 477.629 L87.4938 477.629 L87.4938 471.75 Z" fill="#000000" fill-rule="nonzero" fill-opacity="1" /><path clip-path="url(#clip510)" d="M112.563 446.148 Q108.952 446.148 107.123 449.713 Q105.318 453.254 105.318 460.384 Q105.318 467.49 107.123 471.055 Q108.952 474.597 112.563 474.597 Q116.197 474.597 118.003 471.055 Q119.832 467.49 119.832 460.384 Q119.832 453.254 118.003 449.713 Q116.197 446.148 112.563 446.148 M112.563 442.444 Q118.373 442.444 121.429 447.051 Q124.507 451.634 124.507 460.384 Q124.507 469.111 121.429 473.717 Q118.373 478.3 112.563 478.3 Q106.753 478.3 103.674 473.717 Q100.619 469.111 100.619 460.384 Q100.619 451.634 103.674 447.051 Q106.753 442.444 112.563 442.444 Z" fill="#000000" fill-rule="nonzero" fill-opacity="1" /><path clip-path="url(#clip510)" d="M133.535 473.694 L141.174 473.694 L141.174 447.328 L132.864 448.995 L132.864 444.736 L141.128 443.069 L145.804 443.069 L145.804 473.694 L153.443 473.694 L153.443 477.629 L133.535 477.629 L133.535 473.694 Z" fill="#000000" fill-rule="nonzero" fill-opacity="1" /><path clip-path="url(#clip510)" d="M162.933 443.069 L181.29 443.069 L181.29 447.004 L167.216 447.004 L167.216 455.477 Q168.234 455.129 169.253 454.967 Q170.271 454.782 171.29 454.782 Q177.077 454.782 180.456 457.953 Q183.836 461.125 183.836 466.541 Q183.836 472.12 180.364 475.222 Q176.891 478.3 170.572 478.3 Q168.396 478.3 166.128 477.93 Q163.882 477.56 161.475 476.819 L161.475 472.12 Q163.558 473.254 165.78 473.81 Q168.003 474.365 170.479 474.365 Q174.484 474.365 176.822 472.259 Q179.16 470.152 179.16 466.541 Q179.16 462.93 176.822 460.824 Q174.484 458.717 170.479 458.717 Q168.604 458.717 166.729 459.134 Q164.878 459.551 162.933 460.43 L162.933 443.069 Z" fill="#000000" fill-rule="nonzero" fill-opacity="1" /><path clip-path="url(#clip510)" d="M66.3365 47.7507 Q62.7254 47.7507 60.8967 51.3155 Q59.0912 54.8572 59.0912 61.9868 Q59.0912 69.0932 60.8967 72.658 Q62.7254 76.1997 66.3365 76.1997 Q69.9707 76.1997 71.7763 72.658 Q73.605 69.0932 73.605 61.9868 Q73.605 54.8572 71.7763 51.3155 Q69.9707 47.7507 66.3365 47.7507 M66.3365 44.0471 Q72.1467 44.0471 75.2022 48.6535 Q78.2809 53.2368 78.2809 61.9868 Q78.2809 70.7136 75.2022 75.32 Q72.1467 79.9033 66.3365 79.9033 Q60.5264 79.9033 57.4477 75.32 Q54.3921 70.7136 54.3921 61.9868 Q54.3921 53.2368 57.4477 48.6535 Q60.5264 44.0471 66.3365 44.0471 Z" fill="#000000" fill-rule="nonzero" fill-opacity="1" /><path clip-path="url(#clip510)" d="M86.4984 73.3525 L91.3827 73.3525 L91.3827 79.232 L86.4984 79.232 L86.4984 73.3525 Z" fill="#000000" fill-rule="nonzero" fill-opacity="1" /><path clip-path="url(#clip510)" d="M111.568 47.7507 Q107.957 47.7507 106.128 51.3155 Q104.322 54.8572 104.322 61.9868 Q104.322 69.0932 106.128 72.658 Q107.957 76.1997 111.568 76.1997 Q115.202 76.1997 117.008 72.658 Q118.836 69.0932 118.836 61.9868 Q118.836 54.8572 117.008 51.3155 Q115.202 47.7507 111.568 47.7507 M111.568 44.0471 Q117.378 44.0471 120.433 48.6535 Q123.512 53.2368 123.512 61.9868 Q123.512 70.7136 120.433 75.32 Q117.378 79.9033 111.568 79.9033 Q105.758 79.9033 102.679 75.32 Q99.6234 70.7136 99.6234 61.9868 Q99.6234 53.2368 102.679 48.6535 Q105.758 44.0471 111.568 44.0471 Z" fill="#000000" fill-rule="nonzero" fill-opacity="1" /><path clip-path="url(#clip510)" d="M135.757 75.2969 L152.077 75.2969 L152.077 79.232 L130.132 79.232 L130.132 75.2969 Q132.794 72.5423 137.378 67.9127 Q141.984 63.2599 143.165 61.9173 Q145.41 59.3942 146.29 57.6581 Q147.193 55.8988 147.193 54.209 Q147.193 51.4544 145.248 49.7183 Q143.327 47.9822 140.225 47.9822 Q138.026 47.9822 135.572 48.7461 Q133.142 49.51 130.364 51.0609 L130.364 46.3387 Q133.188 45.2045 135.642 44.6258 Q138.095 44.0471 140.132 44.0471 Q145.503 44.0471 148.697 46.7322 Q151.892 49.4174 151.892 53.9081 Q151.892 56.0377 151.081 57.959 Q150.294 59.8572 148.188 62.4497 Q147.609 63.121 144.507 66.3386 Q141.406 69.533 135.757 75.2969 Z" fill="#000000" fill-rule="nonzero" fill-opacity="1" /><path clip-path="url(#clip510)" d="M171.891 47.7507 Q168.28 47.7507 166.452 51.3155 Q164.646 54.8572 164.646 61.9868 Q164.646 69.0932 166.452 72.658 Q168.28 76.1997 171.891 76.1997 Q175.526 76.1997 177.331 72.658 Q179.16 69.0932 179.16 61.9868 Q179.16 54.8572 177.331 51.3155 Q175.526 47.7507 171.891 47.7507 M171.891 44.0471 Q177.702 44.0471 180.757 48.6535 Q183.836 53.2368 183.836 61.9868 Q183.836 70.7136 180.757 75.32 Q177.702 79.9033 171.891 79.9033 Q166.081 79.9033 163.003 75.32 Q159.947 70.7136 159.947 61.9868 Q159.947 53.2368 163.003 48.6535 Q166.081 44.0471 171.891 44.0471 Z" fill="#000000" fill-rule="nonzero" fill-opacity="1" /><polyline clip-path="url(#clip512)" style="stroke:#009af9; stroke-linecap:round; stroke-linejoin:round; stroke-width:4; stroke-opacity:1; fill:none" points="251.045,1188.85 252.772,1196.82 254.5,1204.76 256.228,1212.67 257.955,1220.54 259.683,1228.36 261.41,1236.12 263.138,1243.81 264.865,1251.42 266.593,1258.95 268.32,1266.38 270.048,1273.72 271.775,1280.95 273.503,1288.06 275.23,1295.05 276.958,1301.91 278.686,1308.64 280.413,1315.23 282.141,1321.68 283.868,1327.97 285.596,1334.11 287.323,1340.1 289.051,1345.93 290.778,1351.59 292.506,1357.09 294.233,1362.42 295.961,1367.58 297.688,1372.57 299.416,1377.39 301.144,1382.05 302.871,1386.53 304.599,1390.84 306.326,1394.98 308.054,1398.96 309.781,1402.77 311.509,1406.41 313.236,1409.9 314.964,1413.22 316.691,1416.39 318.419,1419.41 320.146,1422.28 321.874,1425 323.601,1427.58 325.329,1430.02 327.057,1432.33 328.784,1434.51 330.512,1436.56 332.239,1438.49 333.967,1440.3 335.694,1442 337.422,1443.59 339.149,1445.08 340.877,1446.47 342.604,1447.76 344.332,1448.96 346.059,1450.07 347.787,1451.1 349.515,1452.05 351.242,1452.92 352.97,1453.73 354.697,1454.46 356.425,1455.13 358.152,1455.75 359.88,1456.3 361.607,1456.8 363.335,1457.25 365.062,1457.66 366.79,1458.02 368.517,1458.34 370.245,1458.62 371.973,1458.86 373.7,1459.07 375.428,1459.25 377.155,1459.4 378.883,1459.53 380.61,1459.62 382.338,1459.7 384.065,1459.75 385.793,1459.78 387.52,1459.8 389.248,1459.79 390.975,1459.78 392.703,1459.74 394.43,1459.7 396.158,1459.64 397.886,1459.57 399.613,1459.49 401.341,1459.4 403.068,1459.3 404.796,1459.2 406.523,1459.09 408.251,1458.97 409.978,1458.84 411.706,1458.71 413.433,1458.58 415.161,1458.43 416.888,1458.29 418.616,1458.14 420.344,1457.99 422.071,1457.83 423.799,1457.67 425.526,1457.51 427.254,1457.35 428.981,1457.18 430.709,1457.01 432.436,1456.84 434.164,1456.67 435.891,1456.5 437.619,1456.32 439.346,1456.14 441.074,1455.96 442.802,1455.78 444.529,1455.6 446.257,1455.42 447.984,1455.23 449.712,1455.05 451.439,1454.86 453.167,1454.67 454.894,1454.48 456.622,1454.29 458.349,1454.1 460.077,1453.91 461.804,1453.72 463.532,1453.52 465.259,1453.32 466.987,1453.13 468.715,1452.93 470.442,1452.73 472.17,1452.53 473.897,1452.33 475.625,1452.12 477.352,1451.92 479.08,1451.71 480.807,1451.5 482.535,1451.3 484.262,1451.09 485.99,1450.88 487.717,1450.66 489.445,1450.45 491.173,1450.23 492.9,1450.02 494.628,1449.8 496.355,1449.58 498.083,1449.36 499.81,1449.13 501.538,1448.91 503.265,1448.68 504.993,1448.45 506.72,1448.22 508.448,1447.99 510.175,1447.75 511.903,1447.52 513.631,1447.28 515.358,1447.04 517.086,1446.79 518.813,1446.55 520.541,1446.3 522.268,1446.05 523.996,1445.8 525.723,1445.54 527.451,1445.29 529.178,1445.03 530.906,1444.76 532.633,1444.5 534.361,1444.23 536.089,1443.96 537.816,1443.69 539.544,1443.41 541.271,1443.13 542.999,1442.85 544.726,1442.56 546.454,1442.27 548.181,1441.98 549.909,1441.68 551.636,1441.38 553.364,1441.07 555.091,1440.77 556.819,1440.45 558.546,1440.14 560.274,1439.82 562.002,1439.5 563.729,1439.17 565.457,1438.84 567.184,1438.5 568.912,1438.16 570.639,1437.81 572.367,1437.46 574.094,1437.11 575.822,1436.75 577.549,1436.38 579.277,1436.01 581.004,1435.64 582.732,1435.26 584.46,1434.87 586.187,1434.48 587.915,1434.08 589.642,1433.68 591.37,1433.27 593.097,1432.86 594.825,1432.44 596.552,1432.01 598.28,1431.58 600.007,1431.14 601.735,1430.7 603.462,1430.25 605.19,1429.79 606.918,1429.33 608.645,1428.86 610.373,1428.38 612.1,1427.89 613.828,1427.4 615.555,1426.9 617.283,1426.4 619.01,1425.88 620.738,1425.36 622.465,1424.83 624.193,1424.29 625.92,1423.75 627.648,1423.19 629.375,1422.63 631.103,1422.06 632.831,1421.49 634.558,1420.9 636.286,1420.3 638.013,1419.7 639.741,1419.09 641.468,1418.47 643.196,1417.84 644.923,1417.2 646.651,1416.55 648.378,1415.89 650.106,1415.22 651.833,1414.54 653.561,1413.85 655.289,1413.16 657.016,1412.45 658.744,1411.73 660.471,1411 662.199,1410.26 663.926,1409.52 665.654,1408.76 667.381,1407.99 669.109,1407.21 670.836,1406.42 672.564,1405.62 674.291,1404.8 676.019,1403.98 677.747,1403.15 679.474,1402.3 681.202,1401.44 682.929,1400.58 684.657,1399.7 686.384,1398.81 688.112,1397.91 689.839,1396.99 691.567,1396.07 693.294,1395.14 695.022,1394.19 696.749,1393.23 698.477,1392.27 700.205,1391.29 701.932,1390.3 703.66,1389.29 705.387,1388.28 707.115,1387.26 708.842,1386.22 710.57,1385.18 712.297,1384.12 714.025,1383.06 715.752,1381.98 717.48,1380.9 719.207,1379.8 720.935,1378.69 722.662,1377.58 724.39,1376.45 726.118,1375.32 727.845,1374.18 729.573,1373.03 731.3,1371.87 733.028,1370.7 734.755,1369.52 736.483,1368.34 738.21,1367.15 739.938,1365.95 741.665,1364.75 743.393,1363.54 745.12,1362.33 746.848,1361.11 748.576,1359.88 750.303,1358.65 752.031,1357.42 753.758,1356.18 755.486,1354.94 757.213,1353.69 758.941,1352.45 760.668,1351.2 762.396,1349.95 764.123,1348.7 765.851,1347.45 767.578,1346.19 769.306,1344.94 771.034,1343.69 772.761,1342.44 774.489,1341.19 776.216,1339.94 777.944,1338.69 779.671,1337.44 781.399,1336.19 783.126,1334.95 784.854,1333.71 786.581,1332.47 788.309,1331.23 790.036,1329.99 791.764,1328.76 793.491,1327.52 795.219,1326.29 796.947,1325.05 798.674,1323.81 800.402,1322.58 802.129,1321.34 803.857,1320.09 805.584,1318.84 807.312,1317.59 809.039,1316.32 810.767,1315.05 812.494,1313.77 814.222,1312.47 815.949,1311.15 817.677,1309.82 819.405,1308.47 821.132,1307.1 822.86,1305.69 824.587,1304.26 826.315,1302.79 828.042,1301.29 829.77,1299.75 831.497,1298.16 833.225,1296.52 834.952,1294.82 836.68,1293.07 838.407,1291.25 840.135,1289.37 841.863,1287.41 843.59,1285.36 845.318,1283.24 847.045,1281.01 848.773,1278.7 850.5,1276.27 852.228,1273.73 853.955,1271.08 855.683,1268.3 857.41,1265.39 859.138,1262.35 860.865,1259.15 862.593,1255.81 864.321,1252.31 866.048,1248.65 867.776,1244.81 869.503,1240.8 871.231,1236.6 872.958,1232.22 874.686,1227.64 876.413,1222.86 878.141,1217.88 879.868,1212.69 881.596,1207.28 883.323,1201.66 885.051,1195.82 886.778,1189.75 888.506,1183.46 890.234,1176.94 891.961,1170.19 893.689,1163.21 895.416,1156.01 897.144,1148.58 898.871,1140.92 900.599,1133.04 902.326,1124.94 904.054,1116.62 905.781,1108.08 907.509,1099.34 909.236,1090.4 910.964,1081.27 912.692,1071.95 914.419,1062.44 916.147,1052.77 917.874,1042.94 919.602,1032.96 921.329,1022.83 923.057,1012.58 924.784,1002.22 926.512,991.746 928.239,981.184 929.967,970.545 931.694,959.842 933.422,949.09 935.15,938.303 936.877,927.495 938.605,916.681 940.332,905.877 942.06,895.097 943.787,884.356 945.515,873.67 947.242,863.052 948.97,852.518 950.697,842.082 952.425,831.759 954.152,821.561 955.88,811.503 957.607,801.598 959.335,791.857 961.063,782.294 962.79,772.919 964.518,763.743 966.245,754.776 967.973,746.029 969.7,737.509 971.428,729.226 973.155,721.186 974.883,713.396 976.61,705.861 978.338,698.588 980.065,691.58 981.793,684.842 983.521,678.375 985.248,672.182 986.976,666.265 988.703,660.624 990.431,655.258 992.158,650.168 993.886,645.352 995.613,640.808 997.341,636.532 999.068,632.523 1000.8,628.776 1002.52,625.287 1004.25,622.051 1005.98,619.063 1007.71,616.317 1009.43,613.808 1011.16,611.53 1012.89,609.475 1014.62,607.636 1016.34,606.008 1018.07,604.582 1019.8,603.351 1021.53,602.308 1023.25,601.445 1024.98,600.754 1026.71,600.228 1028.44,599.859 1030.16,599.639 1031.89,599.561 1033.62,599.618 1035.35,599.801 1037.07,600.104 1038.8,600.519 1040.53,601.04 1042.26,601.659 1043.98,602.37 1045.71,603.166 1047.44,604.041 1049.17,604.989 1050.89,606.004 1052.62,607.08 1054.35,608.212 1056.08,609.395 1057.8,610.623 1059.53,611.892 1061.26,613.198 1062.99,614.535 1064.71,615.901 1066.44,617.29 1068.17,618.699 1069.9,620.125 1071.62,621.564 1073.35,623.013 1075.08,624.47 1076.81,625.931 1078.54,627.395 1080.26,628.858 1081.99,630.318 1083.72,631.773 1085.45,633.222 1087.17,634.662 1088.9,636.092 1090.63,637.51 1092.36,638.915 1094.08,640.306 1095.81,641.68 1097.54,643.038 1099.27,644.378 1100.99,645.699 1102.72,647 1104.45,648.281 1106.18,649.54 1107.9,650.778 1109.63,651.993 1111.36,653.185 1113.09,654.353 1114.81,655.497 1116.54,656.617 1118.27,657.712 1120,658.782 1121.72,659.826 1123.45,660.845 1125.18,661.838 1126.91,662.804 1128.63,663.744 1130.36,664.657 1132.09,665.544 1133.82,666.403 1135.54,667.236 1137.27,668.041 1139,668.818 1140.73,669.568 1142.45,670.291 1144.18,670.985 1145.91,671.652 1147.64,672.29 1149.36,672.901 1151.09,673.482 1152.82,674.036 1154.55,674.561 1156.27,675.057 1158,675.524 1159.73,675.961 1161.46,676.37 1163.18,676.749 1164.91,677.098 1166.64,677.418 1168.37,677.707 1170.09,677.965 1171.82,678.193 1173.55,678.39 1175.28,678.556 1177,678.69 1178.73,678.792 1180.46,678.862 1182.19,678.898 1183.91,678.902 1185.64,678.871 1187.37,678.807 1189.1,678.708 1190.82,678.573 1192.55,678.403 1194.28,678.196 1196.01,677.951 1197.74,677.669 1199.46,677.348 1201.19,676.988 1202.92,676.586 1204.65,676.144 1206.37,675.659 1208.1,675.131 1209.83,674.558 1211.56,673.94 1213.28,673.274 1215.01,672.561 1216.74,671.797 1218.47,670.982 1220.19,670.115 1221.92,669.193 1223.65,668.215 1225.38,667.179 1227.1,666.083 1228.83,664.925 1230.56,663.702 1232.29,662.414 1234.01,661.056 1235.74,659.626 1237.47,658.123 1239.2,656.543 1240.92,654.883 1242.65,653.141 1244.38,651.313 1246.11,649.395 1247.83,647.385 1249.56,645.279 1251.29,643.073 1253.02,640.764 1254.74,638.347 1256.47,635.819 1258.2,633.175 1259.93,630.412 1261.65,627.524 1263.38,624.508 1265.11,621.358 1266.84,618.071 1268.56,614.641 1270.29,611.065 1272.02,607.337 1273.75,603.452 1275.47,599.406 1277.2,595.195 1278.93,590.813 1280.66,586.256 1282.38,581.519 1284.11,576.6 1285.84,571.492 1287.57,566.192 1289.29,560.698 1291.02,555.004 1292.75,549.108 1294.48,543.008 1296.2,536.7 1297.93,530.183 1299.66,523.456 1301.39,516.516 1303.11,509.364 1304.84,501.999 1306.57,494.423 1308.3,486.636 1310.03,478.64 1311.75,470.439 1313.48,462.034 1315.21,453.432 1316.94,444.636 1318.66,435.652 1320.39,426.488 1322.12,417.15 1323.85,407.648 1325.57,397.992 1327.3,388.19 1329.03,378.256 1330.76,368.2 1332.48,358.038 1334.21,347.782 1335.94,337.448 1337.67,327.053 1339.39,316.613 1341.12,306.147 1342.85,295.673 1344.58,285.211 1346.3,274.781 1348.03,264.405 1349.76,254.104 1351.49,243.9 1353.21,233.817 1354.94,223.878 1356.67,214.106 1358.4,204.526 1360.12,195.162 1361.85,186.038 1363.58,177.178 1365.31,168.608 1367.03,160.351 1368.76,152.431 1370.49,144.871 1372.22,137.696 1373.94,130.926 1375.67,124.585 1377.4,118.693 1379.13,113.271 1380.85,108.337 1382.58,103.91 1384.31,100.008 1386.04,96.6447 1387.76,93.8362 1389.49,91.5952 1391.22,89.9333 1392.95,88.8609 1394.67,88.3864 1396.4,88.5169 1398.13,89.2576 1399.86,90.6122 1401.58,92.5826 1403.31,95.1689 1405.04,98.3695 1406.77,102.181 1408.49,106.599 1410.22,111.616 1411.95,117.223 1413.68,123.411 1415.4,130.169 1417.13,137.481 1418.86,145.335 1420.59,153.713 1422.31,162.598 1424.04,171.971 1425.77,181.812 1427.5,192.1 1429.23,202.812 1430.95,213.926 1432.68,225.417 1434.41,237.261 1436.14,249.432 1437.86,261.905 1439.59,274.653 1441.32,287.65 1443.05,300.869 1444.77,314.284 1446.5,327.867 1448.23,341.593 1449.96,355.434 1451.68,369.365 1453.41,383.36 1455.14,397.394 1456.87,411.443 1458.59,425.482 1460.32,439.489 1462.05,453.442 1463.78,467.318 1465.5,481.098 1467.23,494.763 1468.96,508.293 1470.69,521.671 1472.41,534.881 1474.14,547.909 1475.87,560.74 1477.6,573.36 1479.32,585.76 1481.05,597.928 1482.78,609.854 1484.51,621.532 1486.23,632.953 1487.96,644.112 1489.69,655.004 1491.42,665.626 1493.14,675.976 1494.87,686.05 1496.6,695.85 1498.33,705.376 1500.05,714.628 1501.78,723.609 1503.51,732.322 1505.24,740.772 1506.96,748.962 1508.69,756.898 1510.42,764.586 1512.15,772.033 1513.87,779.245 1515.6,786.232 1517.33,793 1519.06,799.559 1520.78,805.917 1522.51,812.084 1524.24,818.071 1525.97,823.886 1527.69,829.54 1529.42,835.043 1531.15,840.407 1532.88,845.642 1534.6,850.759 1536.33,855.768 1538.06,860.681 1539.79,865.509 1541.51,870.263 1543.24,874.953 1544.97,879.59 1546.7,884.185 1548.43,888.749 1550.15,893.291 1551.88,897.822 1553.61,902.352 1555.34,906.891 1557.06,911.448 1558.79,916.032 1560.52,920.652 1562.25,925.317 1563.97,930.034 1565.7,934.811 1567.43,939.657 1569.16,944.577 1570.88,949.579 1572.61,954.668 1574.34,959.85 1576.07,965.13 1577.79,970.514 1579.52,976.004 1581.25,981.605 1582.98,987.319 1584.7,993.15 1586.43,999.099 1588.16,1005.17 1589.89,1011.36 1591.61,1017.67 1593.34,1024.1 1595.07,1030.65 1596.8,1037.32 1598.52,1044.1 1600.25,1051 1601.98,1058.01 1603.71,1065.13 1605.43,1072.35 1607.16,1079.67 1608.89,1087.08 1610.62,1094.58 1612.34,1102.16 1614.07,1109.81 1615.8,1117.54 1617.53,1125.32 1619.25,1133.16 1620.98,1141.05 1622.71,1148.97 1624.44,1156.92 1626.16,1164.9 1627.89,1172.88 1629.62,1180.87 1631.35,1188.85 "/>
<path clip-path="url(#clip510)" d="M258.407 199.381 L1090.36 199.381 L1090.36 95.7006 L258.407 95.7006  Z" fill="#ffffff" fill-rule="evenodd" fill-opacity="1"/>
<polyline clip-path="url(#clip510)" style="stroke:#000000; stroke-linecap:round; stroke-linejoin:round; stroke-width:4; stroke-opacity:1; fill:none" points="258.407,199.381 1090.36,199.381 1090.36,95.7006 258.407,95.7006 258.407,199.381 "/>
<polyline clip-path="url(#clip510)" style="stroke:#009af9; stroke-linecap:round; stroke-linejoin:round; stroke-width:4; stroke-opacity:1; fill:none" points="274.663,147.541 372.205,147.541 "/>
<path clip-path="url(#clip510)" d="M408.809 143.872 Q410.406 141.001 412.628 139.636 Q414.85 138.27 417.86 138.27 Q421.911 138.27 424.11 141.117 Q426.309 143.941 426.309 149.173 L426.309 164.821 L422.026 164.821 L422.026 149.311 Q422.026 145.585 420.707 143.779 Q419.387 141.974 416.679 141.974 Q413.369 141.974 411.448 144.173 Q409.526 146.372 409.526 150.168 L409.526 164.821 L405.244 164.821 L405.244 149.311 Q405.244 145.561 403.925 143.779 Q402.605 141.974 399.85 141.974 Q396.587 141.974 394.665 144.196 Q392.744 146.395 392.744 150.168 L392.744 164.821 L388.462 164.821 L388.462 138.895 L392.744 138.895 L392.744 142.923 Q394.202 140.538 396.239 139.404 Q398.276 138.27 401.077 138.27 Q403.901 138.27 405.869 139.705 Q407.86 141.14 408.809 143.872 Z" fill="#000000" fill-rule="nonzero" fill-opacity="1" /><path clip-path="url(#clip510)" d="M456.98 150.793 L456.98 152.876 L437.397 152.876 Q437.674 157.274 440.035 159.589 Q442.42 161.881 446.656 161.881 Q449.109 161.881 451.401 161.279 Q453.716 160.677 455.984 159.473 L455.984 163.501 Q453.693 164.473 451.285 164.983 Q448.878 165.492 446.401 165.492 Q440.197 165.492 436.563 161.881 Q432.952 158.27 432.952 152.112 Q432.952 145.747 436.378 142.02 Q439.827 138.27 445.66 138.27 Q450.892 138.27 453.924 141.649 Q456.98 145.006 456.98 150.793 M452.721 149.543 Q452.674 146.048 450.753 143.964 Q448.855 141.881 445.707 141.881 Q442.142 141.881 439.989 143.895 Q437.86 145.909 437.535 149.566 L452.721 149.543 Z" fill="#000000" fill-rule="nonzero" fill-opacity="1" /><path clip-path="url(#clip510)" d="M475.753 151.788 Q470.591 151.788 468.6 152.969 Q466.609 154.149 466.609 156.997 Q466.609 159.265 468.091 160.608 Q469.595 161.927 472.165 161.927 Q475.707 161.927 477.836 159.427 Q479.989 156.904 479.989 152.737 L479.989 151.788 L475.753 151.788 M484.248 150.029 L484.248 164.821 L479.989 164.821 L479.989 160.885 Q478.531 163.247 476.355 164.381 Q474.179 165.492 471.031 165.492 Q467.049 165.492 464.688 163.27 Q462.35 161.024 462.35 157.274 Q462.35 152.899 465.267 150.677 Q468.207 148.455 474.017 148.455 L479.989 148.455 L479.989 148.038 Q479.989 145.099 478.045 143.501 Q476.123 141.881 472.628 141.881 Q470.406 141.881 468.299 142.413 Q466.193 142.946 464.248 144.011 L464.248 140.075 Q466.586 139.173 468.785 138.733 Q470.984 138.27 473.068 138.27 Q478.693 138.27 481.47 141.186 Q484.248 144.103 484.248 150.029 Z" fill="#000000" fill-rule="nonzero" fill-opacity="1" /><path clip-path="url(#clip510)" d="M509.549 139.659 L509.549 143.686 Q507.743 142.761 505.799 142.298 Q503.855 141.835 501.771 141.835 Q498.6 141.835 497.003 142.807 Q495.429 143.779 495.429 145.723 Q495.429 147.205 496.563 148.061 Q497.697 148.895 501.123 149.659 L502.581 149.983 Q507.118 150.955 509.017 152.737 Q510.938 154.497 510.938 157.668 Q510.938 161.279 508.067 163.385 Q505.22 165.492 500.22 165.492 Q498.137 165.492 495.868 165.075 Q493.623 164.682 491.123 163.872 L491.123 159.473 Q493.484 160.7 495.776 161.325 Q498.068 161.927 500.313 161.927 Q503.322 161.927 504.943 160.909 Q506.563 159.867 506.563 157.992 Q506.563 156.256 505.382 155.33 Q504.225 154.404 500.267 153.548 L498.785 153.2 Q494.827 152.367 493.068 150.654 Q491.308 148.918 491.308 145.909 Q491.308 142.251 493.901 140.261 Q496.493 138.27 501.262 138.27 Q503.623 138.27 505.706 138.617 Q507.79 138.964 509.549 139.659 Z" fill="#000000" fill-rule="nonzero" fill-opacity="1" /><path clip-path="url(#clip510)" d="M517.28 154.589 L517.28 138.895 L521.54 138.895 L521.54 154.427 Q521.54 158.108 522.975 159.96 Q524.41 161.788 527.28 161.788 Q530.729 161.788 532.72 159.589 Q534.734 157.39 534.734 153.594 L534.734 138.895 L538.993 138.895 L538.993 164.821 L534.734 164.821 L534.734 160.839 Q533.183 163.2 531.123 164.358 Q529.086 165.492 526.378 165.492 Q521.91 165.492 519.595 162.714 Q517.28 159.936 517.28 154.589 M527.998 138.27 L527.998 138.27 Z" fill="#000000" fill-rule="nonzero" fill-opacity="1" /><path clip-path="url(#clip510)" d="M562.789 142.876 Q562.072 142.46 561.215 142.274 Q560.382 142.066 559.364 142.066 Q555.752 142.066 553.808 144.427 Q551.887 146.765 551.887 151.163 L551.887 164.821 L547.604 164.821 L547.604 138.895 L551.887 138.895 L551.887 142.923 Q553.229 140.561 555.382 139.427 Q557.535 138.27 560.614 138.27 Q561.053 138.27 561.586 138.339 Q562.118 138.386 562.766 138.501 L562.789 142.876 Z" fill="#000000" fill-rule="nonzero" fill-opacity="1" /><path clip-path="url(#clip510)" d="M588.391 150.793 L588.391 152.876 L568.808 152.876 Q569.086 157.274 571.447 159.589 Q573.831 161.881 578.067 161.881 Q580.521 161.881 582.812 161.279 Q585.127 160.677 587.396 159.473 L587.396 163.501 Q585.104 164.473 582.697 164.983 Q580.289 165.492 577.812 165.492 Q571.609 165.492 567.975 161.881 Q564.363 158.27 564.363 152.112 Q564.363 145.747 567.789 142.02 Q571.238 138.27 577.072 138.27 Q582.303 138.27 585.336 141.649 Q588.391 145.006 588.391 150.793 M584.132 149.543 Q584.086 146.048 582.164 143.964 Q580.266 141.881 577.118 141.881 Q573.553 141.881 571.4 143.895 Q569.271 145.909 568.947 149.566 L584.132 149.543 Z" fill="#000000" fill-rule="nonzero" fill-opacity="1" /><path clip-path="url(#clip510)" d="M615.567 143.872 Q617.164 141.001 619.386 139.636 Q621.609 138.27 624.618 138.27 Q628.669 138.27 630.868 141.117 Q633.067 143.941 633.067 149.173 L633.067 164.821 L628.784 164.821 L628.784 149.311 Q628.784 145.585 627.465 143.779 Q626.146 141.974 623.437 141.974 Q620.127 141.974 618.206 144.173 Q616.285 146.372 616.285 150.168 L616.285 164.821 L612.002 164.821 L612.002 149.311 Q612.002 145.561 610.683 143.779 Q609.363 141.974 606.609 141.974 Q603.345 141.974 601.423 144.196 Q599.502 146.395 599.502 150.168 L599.502 164.821 L595.22 164.821 L595.22 138.895 L599.502 138.895 L599.502 142.923 Q600.961 140.538 602.998 139.404 Q605.035 138.27 607.835 138.27 Q610.66 138.27 612.627 139.705 Q614.618 141.14 615.567 143.872 Z" fill="#000000" fill-rule="nonzero" fill-opacity="1" /><path clip-path="url(#clip510)" d="M663.738 150.793 L663.738 152.876 L644.155 152.876 Q644.433 157.274 646.794 159.589 Q649.178 161.881 653.414 161.881 Q655.868 161.881 658.159 161.279 Q660.474 160.677 662.743 159.473 L662.743 163.501 Q660.451 164.473 658.044 164.983 Q655.636 165.492 653.159 165.492 Q646.956 165.492 643.321 161.881 Q639.71 158.27 639.71 152.112 Q639.71 145.747 643.136 142.02 Q646.585 138.27 652.419 138.27 Q657.65 138.27 660.682 141.649 Q663.738 145.006 663.738 150.793 M659.479 149.543 Q659.432 146.048 657.511 143.964 Q655.613 141.881 652.465 141.881 Q648.9 141.881 646.747 143.895 Q644.618 145.909 644.294 149.566 L659.479 149.543 Z" fill="#000000" fill-rule="nonzero" fill-opacity="1" /><path clip-path="url(#clip510)" d="M692.279 149.173 L692.279 164.821 L688.02 164.821 L688.02 149.311 Q688.02 145.631 686.585 143.802 Q685.15 141.974 682.28 141.974 Q678.83 141.974 676.84 144.173 Q674.849 146.372 674.849 150.168 L674.849 164.821 L670.567 164.821 L670.567 138.895 L674.849 138.895 L674.849 142.923 Q676.377 140.585 678.437 139.427 Q680.52 138.27 683.229 138.27 Q687.696 138.27 689.988 141.048 Q692.279 143.802 692.279 149.173 Z" fill="#000000" fill-rule="nonzero" fill-opacity="1" /><path clip-path="url(#clip510)" d="M704.988 131.534 L704.988 138.895 L713.761 138.895 L713.761 142.205 L704.988 142.205 L704.988 156.279 Q704.988 159.45 705.844 160.353 Q706.724 161.256 709.386 161.256 L713.761 161.256 L713.761 164.821 L709.386 164.821 Q704.455 164.821 702.58 162.992 Q700.705 161.14 700.705 156.279 L700.705 142.205 L697.58 142.205 L697.58 138.895 L700.705 138.895 L700.705 131.534 L704.988 131.534 Z" fill="#000000" fill-rule="nonzero" fill-opacity="1" /><path clip-path="url(#clip510)" d="M735.89 139.659 L735.89 143.686 Q734.085 142.761 732.14 142.298 Q730.196 141.835 728.113 141.835 Q724.941 141.835 723.344 142.807 Q721.77 143.779 721.77 145.723 Q721.77 147.205 722.904 148.061 Q724.039 148.895 727.464 149.659 L728.923 149.983 Q733.46 150.955 735.358 152.737 Q737.279 154.497 737.279 157.668 Q737.279 161.279 734.409 163.385 Q731.562 165.492 726.562 165.492 Q724.478 165.492 722.21 165.075 Q719.965 164.682 717.465 163.872 L717.465 159.473 Q719.826 160.7 722.117 161.325 Q724.409 161.927 726.654 161.927 Q729.664 161.927 731.284 160.909 Q732.904 159.867 732.904 157.992 Q732.904 156.256 731.724 155.33 Q730.566 154.404 726.608 153.548 L725.127 153.2 Q721.168 152.367 719.409 150.654 Q717.65 148.918 717.65 145.909 Q717.65 142.251 720.242 140.261 Q722.835 138.27 727.603 138.27 Q729.964 138.27 732.048 138.617 Q734.131 138.964 735.89 139.659 Z" fill="#000000" fill-rule="nonzero" fill-opacity="1" /><path clip-path="url(#clip510)" d="M769.362 128.849 Q766.261 134.173 764.756 139.381 Q763.251 144.589 763.251 149.936 Q763.251 155.284 764.756 160.538 Q766.284 165.77 769.362 171.071 L765.659 171.071 Q762.187 165.631 760.45 160.376 Q758.737 155.122 758.737 149.936 Q758.737 144.774 760.45 139.543 Q762.163 134.312 765.659 128.849 L769.362 128.849 Z" fill="#000000" fill-rule="nonzero" fill-opacity="1" /><path clip-path="url(#clip510)" d="M799.802 150.793 L799.802 152.876 L780.219 152.876 Q780.497 157.274 782.858 159.589 Q785.242 161.881 789.478 161.881 Q791.932 161.881 794.223 161.279 Q796.538 160.677 798.807 159.473 L798.807 163.501 Q796.515 164.473 794.108 164.983 Q791.7 165.492 789.223 165.492 Q783.02 165.492 779.385 161.881 Q775.774 158.27 775.774 152.112 Q775.774 145.747 779.2 142.02 Q782.649 138.27 788.483 138.27 Q793.714 138.27 796.747 141.649 Q799.802 145.006 799.802 150.793 M795.543 149.543 Q795.497 146.048 793.575 143.964 Q791.677 141.881 788.529 141.881 Q784.964 141.881 782.811 143.895 Q780.682 145.909 780.358 149.566 L795.543 149.543 Z" fill="#000000" fill-rule="nonzero" fill-opacity="1" /><path clip-path="url(#clip510)" d="M827.51 138.895 L818.135 151.511 L827.996 164.821 L822.973 164.821 L815.427 154.635 L807.881 164.821 L802.858 164.821 L812.927 151.256 L803.714 138.895 L808.737 138.895 L815.612 148.131 L822.487 138.895 L827.51 138.895 Z" fill="#000000" fill-rule="nonzero" fill-opacity="1" /><path clip-path="url(#clip510)" d="M838.228 131.534 L838.228 138.895 L847.001 138.895 L847.001 142.205 L838.228 142.205 L838.228 156.279 Q838.228 159.45 839.084 160.353 Q839.964 161.256 842.626 161.256 L847.001 161.256 L847.001 164.821 L842.626 164.821 Q837.695 164.821 835.82 162.992 Q833.945 161.14 833.945 156.279 L833.945 142.205 L830.82 142.205 L830.82 138.895 L833.945 138.895 L833.945 131.534 L838.228 131.534 Z" fill="#000000" fill-rule="nonzero" fill-opacity="1" /><path clip-path="url(#clip510)" d="M867.626 142.876 Q866.908 142.46 866.052 142.274 Q865.218 142.066 864.2 142.066 Q860.589 142.066 858.644 144.427 Q856.723 146.765 856.723 151.163 L856.723 164.821 L852.441 164.821 L852.441 138.895 L856.723 138.895 L856.723 142.923 Q858.066 140.561 860.218 139.427 Q862.371 138.27 865.45 138.27 Q865.89 138.27 866.422 138.339 Q866.954 138.386 867.603 138.501 L867.626 142.876 Z" fill="#000000" fill-rule="nonzero" fill-opacity="1" /><path clip-path="url(#clip510)" d="M883.876 151.788 Q878.714 151.788 876.723 152.969 Q874.732 154.149 874.732 156.997 Q874.732 159.265 876.214 160.608 Q877.718 161.927 880.288 161.927 Q883.829 161.927 885.959 159.427 Q888.112 156.904 888.112 152.737 L888.112 151.788 L883.876 151.788 M892.371 150.029 L892.371 164.821 L888.112 164.821 L888.112 160.885 Q886.653 163.247 884.478 164.381 Q882.302 165.492 879.153 165.492 Q875.172 165.492 872.811 163.27 Q870.473 161.024 870.473 157.274 Q870.473 152.899 873.39 150.677 Q876.329 148.455 882.14 148.455 L888.112 148.455 L888.112 148.038 Q888.112 145.099 886.167 143.501 Q884.246 141.881 880.751 141.881 Q878.528 141.881 876.422 142.413 Q874.316 142.946 872.371 144.011 L872.371 140.075 Q874.709 139.173 876.908 138.733 Q879.107 138.27 881.19 138.27 Q886.815 138.27 889.593 141.186 Q892.371 144.103 892.371 150.029 Z" fill="#000000" fill-rule="nonzero" fill-opacity="1" /><path clip-path="url(#clip510)" d="M919.801 139.89 L919.801 143.872 Q917.996 142.876 916.167 142.39 Q914.362 141.881 912.51 141.881 Q908.366 141.881 906.075 144.52 Q903.783 147.136 903.783 151.881 Q903.783 156.626 906.075 159.265 Q908.366 161.881 912.51 161.881 Q914.362 161.881 916.167 161.395 Q917.996 160.885 919.801 159.89 L919.801 163.825 Q918.019 164.659 916.098 165.075 Q914.2 165.492 912.047 165.492 Q906.19 165.492 902.741 161.811 Q899.292 158.131 899.292 151.881 Q899.292 145.538 902.764 141.904 Q906.26 138.27 912.325 138.27 Q914.292 138.27 916.167 138.687 Q918.042 139.08 919.801 139.89 Z" fill="#000000" fill-rule="nonzero" fill-opacity="1" /><path clip-path="url(#clip510)" d="M931.422 131.534 L931.422 138.895 L940.195 138.895 L940.195 142.205 L931.422 142.205 L931.422 156.279 Q931.422 159.45 932.278 160.353 Q933.158 161.256 935.82 161.256 L940.195 161.256 L940.195 164.821 L935.82 164.821 Q930.889 164.821 929.014 162.992 Q927.139 161.14 927.139 156.279 L927.139 142.205 L924.014 142.205 L924.014 138.895 L927.139 138.895 L927.139 131.534 L931.422 131.534 Z" fill="#000000" fill-rule="nonzero" fill-opacity="1" /><path clip-path="url(#clip510)" d="M945.797 138.895 L950.056 138.895 L950.056 164.821 L945.797 164.821 L945.797 138.895 M945.797 128.802 L950.056 128.802 L950.056 134.196 L945.797 134.196 L945.797 128.802 Z" fill="#000000" fill-rule="nonzero" fill-opacity="1" /><path clip-path="url(#clip510)" d="M969.014 141.881 Q965.588 141.881 963.597 144.566 Q961.607 147.228 961.607 151.881 Q961.607 156.534 963.574 159.219 Q965.565 161.881 969.014 161.881 Q972.417 161.881 974.408 159.196 Q976.398 156.51 976.398 151.881 Q976.398 147.274 974.408 144.589 Q972.417 141.881 969.014 141.881 M969.014 138.27 Q974.57 138.27 977.741 141.881 Q980.912 145.492 980.912 151.881 Q980.912 158.247 977.741 161.881 Q974.57 165.492 969.014 165.492 Q963.435 165.492 960.264 161.881 Q957.116 158.247 957.116 151.881 Q957.116 145.492 960.264 141.881 Q963.435 138.27 969.014 138.27 Z" fill="#000000" fill-rule="nonzero" fill-opacity="1" /><path clip-path="url(#clip510)" d="M1009.52 149.173 L1009.52 164.821 L1005.26 164.821 L1005.26 149.311 Q1005.26 145.631 1003.83 143.802 Q1002.39 141.974 999.523 141.974 Q996.074 141.974 994.083 144.173 Q992.093 146.372 992.093 150.168 L992.093 164.821 L987.81 164.821 L987.81 138.895 L992.093 138.895 L992.093 142.923 Q993.62 140.585 995.681 139.427 Q997.764 138.27 1000.47 138.27 Q1004.94 138.27 1007.23 141.048 Q1009.52 143.802 1009.52 149.173 Z" fill="#000000" fill-rule="nonzero" fill-opacity="1" /><path clip-path="url(#clip510)" d="M1019.11 158.941 L1023.99 158.941 L1023.99 164.821 L1019.11 164.821 L1019.11 158.941 M1019.11 140.307 L1023.99 140.307 L1023.99 146.186 L1019.11 146.186 L1019.11 140.307 Z" fill="#000000" fill-rule="nonzero" fill-opacity="1" /><path clip-path="url(#clip510)" d="M1033.41 130.261 L1055.63 130.261 L1055.63 132.251 L1043.09 164.821 L1038.2 164.821 L1050.01 134.196 L1033.41 134.196 L1033.41 130.261 Z" fill="#000000" fill-rule="nonzero" fill-opacity="1" /><path clip-path="url(#clip510)" d="M1063.48 128.849 L1067.18 128.849 Q1070.66 134.312 1072.37 139.543 Q1074.11 144.774 1074.11 149.936 Q1074.11 155.122 1072.37 160.376 Q1070.66 165.631 1067.18 171.071 L1063.48 171.071 Q1066.56 165.77 1068.06 160.538 Q1069.59 155.284 1069.59 149.936 Q1069.59 144.589 1068.06 139.381 Q1066.56 134.173 1063.48 128.849 Z" fill="#000000" fill-rule="nonzero" fill-opacity="1" /></svg>
