<?xml version="1.0" encoding="utf-8"?>
<svg xmlns="http://www.w3.org/2000/svg" xmlns:xlink="http://www.w3.org/1999/xlink" width="600" height="400" viewBox="0 0 2400 1600">
<defs>
  <clipPath id="clip040">
    <rect x="0" y="0" width="2400" height="1600"/>
  </clipPath>
</defs>
<path clip-path="url(#clip040)" d="M0 1600 L2400 1600 L2400 0 L0 0  Z" fill="#ffffff" fill-rule="evenodd" fill-opacity="1"/>
<defs>
  <clipPath id="clip041">
    <rect x="480" y="0" width="1681" height="1600"/>
  </clipPath>
</defs>
<path clip-path="url(#clip040)" d="M249.542 1423.18 L2352.76 1423.18 L2352.76 47.2441 L249.542 47.2441  Z" fill="#ffffff" fill-rule="evenodd" fill-opacity="1"/>
<defs>
  <clipPath id="clip042">
    <rect x="249" y="47" width="2104" height="1377"/>
  </clipPath>
</defs>
<polyline clip-path="url(#clip042)" style="stroke:#000000; stroke-linecap:round; stroke-linejoin:round; stroke-width:2; stroke-opacity:0.1; fill:none" points="375.206,1423.18 375.206,47.2441 "/>
<polyline clip-path="url(#clip042)" style="stroke:#000000; stroke-linecap:round; stroke-linejoin:round; stroke-width:2; stroke-opacity:0.1; fill:none" points="639.761,1423.18 639.761,47.2441 "/>
<polyline clip-path="url(#clip042)" style="stroke:#000000; stroke-linecap:round; stroke-linejoin:round; stroke-width:2; stroke-opacity:0.1; fill:none" points="904.316,1423.18 904.316,47.2441 "/>
<polyline clip-path="url(#clip042)" style="stroke:#000000; stroke-linecap:round; stroke-linejoin:round; stroke-width:2; stroke-opacity:0.1; fill:none" points="1168.87,1423.18 1168.87,47.2441 "/>
<polyline clip-path="url(#clip042)" style="stroke:#000000; stroke-linecap:round; stroke-linejoin:round; stroke-width:2; stroke-opacity:0.1; fill:none" points="1433.43,1423.18 1433.43,47.2441 "/>
<polyline clip-path="url(#clip042)" style="stroke:#000000; stroke-linecap:round; stroke-linejoin:round; stroke-width:2; stroke-opacity:0.1; fill:none" points="1697.98,1423.18 1697.98,47.2441 "/>
<polyline clip-path="url(#clip042)" style="stroke:#000000; stroke-linecap:round; stroke-linejoin:round; stroke-width:2; stroke-opacity:0.1; fill:none" points="1962.54,1423.18 1962.54,47.2441 "/>
<polyline clip-path="url(#clip042)" style="stroke:#000000; stroke-linecap:round; stroke-linejoin:round; stroke-width:2; stroke-opacity:0.1; fill:none" points="2227.09,1423.18 2227.09,47.2441 "/>
<polyline clip-path="url(#clip040)" style="stroke:#000000; stroke-linecap:round; stroke-linejoin:round; stroke-width:4; stroke-opacity:1; fill:none" points="249.542,1423.18 2352.76,1423.18 "/>
<polyline clip-path="url(#clip040)" style="stroke:#000000; stroke-linecap:round; stroke-linejoin:round; stroke-width:4; stroke-opacity:1; fill:none" points="375.206,1423.18 375.206,1404.28 "/>
<polyline clip-path="url(#clip040)" style="stroke:#000000; stroke-linecap:round; stroke-linejoin:round; stroke-width:4; stroke-opacity:1; fill:none" points="639.761,1423.18 639.761,1404.28 "/>
<polyline clip-path="url(#clip040)" style="stroke:#000000; stroke-linecap:round; stroke-linejoin:round; stroke-width:4; stroke-opacity:1; fill:none" points="904.316,1423.18 904.316,1404.28 "/>
<polyline clip-path="url(#clip040)" style="stroke:#000000; stroke-linecap:round; stroke-linejoin:round; stroke-width:4; stroke-opacity:1; fill:none" points="1168.87,1423.18 1168.87,1404.28 "/>
<polyline clip-path="url(#clip040)" style="stroke:#000000; stroke-linecap:round; stroke-linejoin:round; stroke-width:4; stroke-opacity:1; fill:none" points="1433.43,1423.18 1433.43,1404.28 "/>
<polyline clip-path="url(#clip040)" style="stroke:#000000; stroke-linecap:round; stroke-linejoin:round; stroke-width:4; stroke-opacity:1; fill:none" points="1697.98,1423.18 1697.98,1404.28 "/>
<polyline clip-path="url(#clip040)" style="stroke:#000000; stroke-linecap:round; stroke-linejoin:round; stroke-width:4; stroke-opacity:1; fill:none" points="1962.54,1423.18 1962.54,1404.28 "/>
<polyline clip-path="url(#clip040)" style="stroke:#000000; stroke-linecap:round; stroke-linejoin:round; stroke-width:4; stroke-opacity:1; fill:none" points="2227.09,1423.18 2227.09,1404.28 "/>
<path clip-path="url(#clip040)" d="M322.185 1468.75 L351.861 1468.75 L351.861 1472.69 L322.185 1472.69 L322.185 1468.75 Z" fill="#000000" fill-rule="nonzero" fill-opacity="1" /><path clip-path="url(#clip040)" d="M371.953 1454.1 Q368.342 1454.1 366.514 1457.66 Q364.708 1461.2 364.708 1468.33 Q364.708 1475.44 366.514 1479.01 Q368.342 1482.55 371.953 1482.55 Q375.588 1482.55 377.393 1479.01 Q379.222 1475.44 379.222 1468.33 Q379.222 1461.2 377.393 1457.66 Q375.588 1454.1 371.953 1454.1 M371.953 1450.39 Q377.764 1450.39 380.819 1455 Q383.898 1459.58 383.898 1468.33 Q383.898 1477.06 380.819 1481.67 Q377.764 1486.25 371.953 1486.25 Q366.143 1486.25 363.065 1481.67 Q360.009 1477.06 360.009 1468.33 Q360.009 1459.58 363.065 1455 Q366.143 1450.39 371.953 1450.39 Z" fill="#000000" fill-rule="nonzero" fill-opacity="1" /><path clip-path="url(#clip040)" d="M392.115 1479.7 L397 1479.7 L397 1485.58 L392.115 1485.58 L392.115 1479.7 Z" fill="#000000" fill-rule="nonzero" fill-opacity="1" /><path clip-path="url(#clip040)" d="M406.004 1451.02 L428.226 1451.02 L428.226 1453.01 L415.68 1485.58 L410.796 1485.58 L422.601 1454.96 L406.004 1454.96 L406.004 1451.02 Z" fill="#000000" fill-rule="nonzero" fill-opacity="1" /><path clip-path="url(#clip040)" d="M586.787 1468.75 L616.462 1468.75 L616.462 1472.69 L586.787 1472.69 L586.787 1468.75 Z" fill="#000000" fill-rule="nonzero" fill-opacity="1" /><path clip-path="url(#clip040)" d="M636.555 1454.1 Q632.944 1454.1 631.115 1457.66 Q629.31 1461.2 629.31 1468.33 Q629.31 1475.44 631.115 1479.01 Q632.944 1482.55 636.555 1482.55 Q640.189 1482.55 641.995 1479.01 Q643.823 1475.44 643.823 1468.33 Q643.823 1461.2 641.995 1457.66 Q640.189 1454.1 636.555 1454.1 M636.555 1450.39 Q642.365 1450.39 645.421 1455 Q648.499 1459.58 648.499 1468.33 Q648.499 1477.06 645.421 1481.67 Q642.365 1486.25 636.555 1486.25 Q630.745 1486.25 627.666 1481.67 Q624.611 1477.06 624.611 1468.33 Q624.611 1459.58 627.666 1455 Q630.745 1450.39 636.555 1450.39 Z" fill="#000000" fill-rule="nonzero" fill-opacity="1" /><path clip-path="url(#clip040)" d="M656.717 1479.7 L661.601 1479.7 L661.601 1485.58 L656.717 1485.58 L656.717 1479.7 Z" fill="#000000" fill-rule="nonzero" fill-opacity="1" /><path clip-path="url(#clip040)" d="M671.833 1451.02 L690.189 1451.02 L690.189 1454.96 L676.115 1454.96 L676.115 1463.43 Q677.133 1463.08 678.152 1462.92 Q679.17 1462.73 680.189 1462.73 Q685.976 1462.73 689.356 1465.9 Q692.735 1469.08 692.735 1474.49 Q692.735 1480.07 689.263 1483.17 Q685.791 1486.25 679.471 1486.25 Q677.295 1486.25 675.027 1485.88 Q672.782 1485.51 670.374 1484.77 L670.374 1480.07 Q672.458 1481.2 674.68 1481.76 Q676.902 1482.32 679.379 1482.32 Q683.383 1482.32 685.721 1480.21 Q688.059 1478.1 688.059 1474.49 Q688.059 1470.88 685.721 1468.77 Q683.383 1466.67 679.379 1466.67 Q677.504 1466.67 675.629 1467.08 Q673.777 1467.5 671.833 1468.38 L671.833 1451.02 Z" fill="#000000" fill-rule="nonzero" fill-opacity="1" /><path clip-path="url(#clip040)" d="M851.168 1468.75 L880.844 1468.75 L880.844 1472.69 L851.168 1472.69 L851.168 1468.75 Z" fill="#000000" fill-rule="nonzero" fill-opacity="1" /><path clip-path="url(#clip040)" d="M900.937 1454.1 Q897.325 1454.1 895.497 1457.66 Q893.691 1461.2 893.691 1468.33 Q893.691 1475.44 895.497 1479.01 Q897.325 1482.55 900.937 1482.55 Q904.571 1482.55 906.376 1479.01 Q908.205 1475.44 908.205 1468.33 Q908.205 1461.2 906.376 1457.66 Q904.571 1454.1 900.937 1454.1 M900.937 1450.39 Q906.747 1450.39 909.802 1455 Q912.881 1459.58 912.881 1468.33 Q912.881 1477.06 909.802 1481.67 Q906.747 1486.25 900.937 1486.25 Q895.126 1486.25 892.048 1481.67 Q888.992 1477.06 888.992 1468.33 Q888.992 1459.58 892.048 1455 Q895.126 1450.39 900.937 1450.39 Z" fill="#000000" fill-rule="nonzero" fill-opacity="1" /><path clip-path="url(#clip040)" d="M921.098 1479.7 L925.983 1479.7 L925.983 1485.58 L921.098 1485.58 L921.098 1479.7 Z" fill="#000000" fill-rule="nonzero" fill-opacity="1" /><path clip-path="url(#clip040)" d="M950.334 1466.95 Q953.691 1467.66 955.566 1469.93 Q957.464 1472.2 957.464 1475.53 Q957.464 1480.65 953.946 1483.45 Q950.427 1486.25 943.946 1486.25 Q941.77 1486.25 939.455 1485.81 Q937.163 1485.39 934.71 1484.54 L934.71 1480.02 Q936.654 1481.16 938.969 1481.74 Q941.284 1482.32 943.807 1482.32 Q948.205 1482.32 950.496 1480.58 Q952.811 1478.84 952.811 1475.53 Q952.811 1472.48 950.659 1470.77 Q948.529 1469.03 944.709 1469.03 L940.682 1469.03 L940.682 1465.19 L944.895 1465.19 Q948.344 1465.19 950.172 1463.82 Q952.001 1462.43 952.001 1459.84 Q952.001 1457.18 950.103 1455.77 Q948.228 1454.33 944.709 1454.33 Q942.788 1454.33 940.589 1454.75 Q938.39 1455.16 935.751 1456.04 L935.751 1451.88 Q938.413 1451.14 940.728 1450.77 Q943.066 1450.39 945.126 1450.39 Q950.45 1450.39 953.552 1452.83 Q956.654 1455.23 956.654 1459.35 Q956.654 1462.22 955.01 1464.21 Q953.367 1466.18 950.334 1466.95 Z" fill="#000000" fill-rule="nonzero" fill-opacity="1" /><path clip-path="url(#clip040)" d="M1116.01 1468.75 L1145.69 1468.75 L1145.69 1472.69 L1116.01 1472.69 L1116.01 1468.75 Z" fill="#000000" fill-rule="nonzero" fill-opacity="1" /><path clip-path="url(#clip040)" d="M1165.78 1454.1 Q1162.17 1454.1 1160.34 1457.66 Q1158.54 1461.2 1158.54 1468.33 Q1158.54 1475.44 1160.34 1479.01 Q1162.17 1482.55 1165.78 1482.55 Q1169.42 1482.55 1171.22 1479.01 Q1173.05 1475.44 1173.05 1468.33 Q1173.05 1461.2 1171.22 1457.66 Q1169.42 1454.1 1165.78 1454.1 M1165.78 1450.39 Q1171.59 1450.39 1174.65 1455 Q1177.73 1459.58 1177.73 1468.33 Q1177.73 1477.06 1174.65 1481.67 Q1171.59 1486.25 1165.78 1486.25 Q1159.97 1486.25 1156.89 1481.67 Q1153.84 1477.06 1153.84 1468.33 Q1153.84 1459.58 1156.89 1455 Q1159.97 1450.39 1165.78 1450.39 Z" fill="#000000" fill-rule="nonzero" fill-opacity="1" /><path clip-path="url(#clip040)" d="M1185.94 1479.7 L1190.83 1479.7 L1190.83 1485.58 L1185.94 1485.58 L1185.94 1479.7 Z" fill="#000000" fill-rule="nonzero" fill-opacity="1" /><path clip-path="url(#clip040)" d="M1201.82 1481.64 L1209.46 1481.64 L1209.46 1455.28 L1201.15 1456.95 L1201.15 1452.69 L1209.42 1451.02 L1214.09 1451.02 L1214.09 1481.64 L1221.73 1481.64 L1221.73 1485.58 L1201.82 1485.58 L1201.82 1481.64 Z" fill="#000000" fill-rule="nonzero" fill-opacity="1" /><path clip-path="url(#clip040)" d="M1411.42 1454.1 Q1407.81 1454.1 1405.98 1457.66 Q1404.18 1461.2 1404.18 1468.33 Q1404.18 1475.44 1405.98 1479.01 Q1407.81 1482.55 1411.42 1482.55 Q1415.06 1482.55 1416.86 1479.01 Q1418.69 1475.44 1418.69 1468.33 Q1418.69 1461.2 1416.86 1457.66 Q1415.06 1454.1 1411.42 1454.1 M1411.42 1450.39 Q1417.23 1450.39 1420.29 1455 Q1423.37 1459.58 1423.37 1468.33 Q1423.37 1477.06 1420.29 1481.67 Q1417.23 1486.25 1411.42 1486.25 Q1405.61 1486.25 1402.54 1481.67 Q1399.48 1477.06 1399.48 1468.33 Q1399.48 1459.58 1402.54 1455 Q1405.61 1450.39 1411.42 1450.39 Z" fill="#000000" fill-rule="nonzero" fill-opacity="1" /><path clip-path="url(#clip040)" d="M1431.59 1479.7 L1436.47 1479.7 L1436.47 1485.58 L1431.59 1485.58 L1431.59 1479.7 Z" fill="#000000" fill-rule="nonzero" fill-opacity="1" /><path clip-path="url(#clip040)" d="M1447.47 1481.64 L1455.1 1481.64 L1455.1 1455.28 L1446.79 1456.95 L1446.79 1452.69 L1455.06 1451.02 L1459.73 1451.02 L1459.73 1481.64 L1467.37 1481.64 L1467.37 1485.58 L1447.47 1485.58 L1447.47 1481.64 Z" fill="#000000" fill-rule="nonzero" fill-opacity="1" /><path clip-path="url(#clip040)" d="M1675.69 1454.1 Q1672.08 1454.1 1670.25 1457.66 Q1668.44 1461.2 1668.44 1468.33 Q1668.44 1475.44 1670.25 1479.01 Q1672.08 1482.55 1675.69 1482.55 Q1679.32 1482.55 1681.13 1479.01 Q1682.96 1475.44 1682.96 1468.33 Q1682.96 1461.2 1681.13 1457.66 Q1679.32 1454.1 1675.69 1454.1 M1675.69 1450.39 Q1681.5 1450.39 1684.56 1455 Q1687.63 1459.58 1687.63 1468.33 Q1687.63 1477.06 1684.56 1481.67 Q1681.5 1486.25 1675.69 1486.25 Q1669.88 1486.25 1666.8 1481.67 Q1663.75 1477.06 1663.75 1468.33 Q1663.75 1459.58 1666.8 1455 Q1669.88 1450.39 1675.69 1450.39 Z" fill="#000000" fill-rule="nonzero" fill-opacity="1" /><path clip-path="url(#clip040)" d="M1695.85 1479.7 L1700.74 1479.7 L1700.74 1485.58 L1695.85 1485.58 L1695.85 1479.7 Z" fill="#000000" fill-rule="nonzero" fill-opacity="1" /><path clip-path="url(#clip040)" d="M1725.09 1466.95 Q1728.44 1467.66 1730.32 1469.93 Q1732.22 1472.2 1732.22 1475.53 Q1732.22 1480.65 1728.7 1483.45 Q1725.18 1486.25 1718.7 1486.25 Q1716.52 1486.25 1714.21 1485.81 Q1711.92 1485.39 1709.46 1484.54 L1709.46 1480.02 Q1711.41 1481.16 1713.72 1481.74 Q1716.04 1482.32 1718.56 1482.32 Q1722.96 1482.32 1725.25 1480.58 Q1727.56 1478.84 1727.56 1475.53 Q1727.56 1472.48 1725.41 1470.77 Q1723.28 1469.03 1719.46 1469.03 L1715.44 1469.03 L1715.44 1465.19 L1719.65 1465.19 Q1723.1 1465.19 1724.93 1463.82 Q1726.75 1462.43 1726.75 1459.84 Q1726.75 1457.18 1724.86 1455.77 Q1722.98 1454.33 1719.46 1454.33 Q1717.54 1454.33 1715.34 1454.75 Q1713.14 1455.16 1710.5 1456.04 L1710.5 1451.88 Q1713.17 1451.14 1715.48 1450.77 Q1717.82 1450.39 1719.88 1450.39 Q1725.2 1450.39 1728.31 1452.83 Q1731.41 1455.23 1731.41 1459.35 Q1731.41 1462.22 1729.76 1464.21 Q1728.12 1466.18 1725.09 1466.95 Z" fill="#000000" fill-rule="nonzero" fill-opacity="1" /><path clip-path="url(#clip040)" d="M1940.42 1454.1 Q1936.81 1454.1 1934.98 1457.66 Q1933.17 1461.2 1933.17 1468.33 Q1933.17 1475.44 1934.98 1479.01 Q1936.81 1482.55 1940.42 1482.55 Q1944.05 1482.55 1945.86 1479.01 Q1947.69 1475.44 1947.69 1468.33 Q1947.69 1461.2 1945.86 1457.66 Q1944.05 1454.1 1940.42 1454.1 M1940.42 1450.39 Q1946.23 1450.39 1949.28 1455 Q1952.36 1459.58 1952.36 1468.33 Q1952.36 1477.06 1949.28 1481.67 Q1946.23 1486.25 1940.42 1486.25 Q1934.61 1486.25 1931.53 1481.67 Q1928.47 1477.06 1928.47 1468.33 Q1928.47 1459.58 1931.53 1455 Q1934.61 1450.39 1940.42 1450.39 Z" fill="#000000" fill-rule="nonzero" fill-opacity="1" /><path clip-path="url(#clip040)" d="M1960.58 1479.7 L1965.47 1479.7 L1965.47 1485.58 L1960.58 1485.58 L1960.58 1479.7 Z" fill="#000000" fill-rule="nonzero" fill-opacity="1" /><path clip-path="url(#clip040)" d="M1975.7 1451.02 L1994.05 1451.02 L1994.05 1454.96 L1979.98 1454.96 L1979.98 1463.43 Q1981 1463.08 1982.02 1462.92 Q1983.03 1462.73 1984.05 1462.73 Q1989.84 1462.73 1993.22 1465.9 Q1996.6 1469.08 1996.6 1474.49 Q1996.6 1480.07 1993.13 1483.17 Q1989.65 1486.25 1983.34 1486.25 Q1981.16 1486.25 1978.89 1485.88 Q1976.65 1485.51 1974.24 1484.77 L1974.24 1480.07 Q1976.32 1481.2 1978.54 1481.76 Q1980.77 1482.32 1983.24 1482.32 Q1987.25 1482.32 1989.59 1480.21 Q1991.92 1478.1 1991.92 1474.49 Q1991.92 1470.88 1989.59 1468.77 Q1987.25 1466.67 1983.24 1466.67 Q1981.37 1466.67 1979.49 1467.08 Q1977.64 1467.5 1975.7 1468.38 L1975.7 1451.02 Z" fill="#000000" fill-rule="nonzero" fill-opacity="1" /><path clip-path="url(#clip040)" d="M2204.93 1454.1 Q2201.32 1454.1 2199.49 1457.66 Q2197.68 1461.2 2197.68 1468.33 Q2197.68 1475.44 2199.49 1479.01 Q2201.32 1482.55 2204.93 1482.55 Q2208.56 1482.55 2210.37 1479.01 Q2212.2 1475.44 2212.2 1468.33 Q2212.2 1461.2 2210.37 1457.66 Q2208.56 1454.1 2204.93 1454.1 M2204.93 1450.39 Q2210.74 1450.39 2213.79 1455 Q2216.87 1459.58 2216.87 1468.33 Q2216.87 1477.06 2213.79 1481.67 Q2210.74 1486.25 2204.93 1486.25 Q2199.12 1486.25 2196.04 1481.67 Q2192.98 1477.06 2192.98 1468.33 Q2192.98 1459.58 2196.04 1455 Q2199.12 1450.39 2204.93 1450.39 Z" fill="#000000" fill-rule="nonzero" fill-opacity="1" /><path clip-path="url(#clip040)" d="M2225.09 1479.7 L2229.97 1479.7 L2229.97 1485.58 L2225.09 1485.58 L2225.09 1479.7 Z" fill="#000000" fill-rule="nonzero" fill-opacity="1" /><path clip-path="url(#clip040)" d="M2238.98 1451.02 L2261.2 1451.02 L2261.2 1453.01 L2248.65 1485.58 L2243.77 1485.58 L2255.58 1454.96 L2238.98 1454.96 L2238.98 1451.02 Z" fill="#000000" fill-rule="nonzero" fill-opacity="1" /><path clip-path="url(#clip040)" d="M1155.29 1525.81 L1155.29 1543.66 L1163.38 1543.66 Q1167.87 1543.66 1170.32 1541.34 Q1172.77 1539.02 1172.77 1534.72 Q1172.77 1530.45 1170.32 1528.13 Q1167.87 1525.81 1163.38 1525.81 L1155.29 1525.81 M1148.87 1520.52 L1163.38 1520.52 Q1171.37 1520.52 1175.44 1524.15 Q1179.55 1527.75 1179.55 1534.72 Q1179.55 1541.75 1175.44 1545.35 Q1171.37 1548.95 1163.38 1548.95 L1155.29 1548.95 L1155.29 1568.04 L1148.87 1568.04 L1148.87 1520.52 Z" fill="#000000" fill-rule="nonzero" fill-opacity="1" /><path clip-path="url(#clip040)" d="M1199.41 1536.5 Q1194.7 1536.5 1191.96 1540.19 Q1189.22 1543.85 1189.22 1550.25 Q1189.22 1556.65 1191.93 1560.34 Q1194.67 1564 1199.41 1564 Q1204.09 1564 1206.83 1560.31 Q1209.56 1556.62 1209.56 1550.25 Q1209.56 1543.92 1206.83 1540.23 Q1204.09 1536.5 1199.41 1536.5 M1199.41 1531.54 Q1207.05 1531.54 1211.41 1536.5 Q1215.77 1541.47 1215.77 1550.25 Q1215.77 1559 1211.41 1564 Q1207.05 1568.97 1199.41 1568.97 Q1191.74 1568.97 1187.38 1564 Q1183.05 1559 1183.05 1550.25 Q1183.05 1541.47 1187.38 1536.5 Q1191.74 1531.54 1199.41 1531.54 Z" fill="#000000" fill-rule="nonzero" fill-opacity="1" /><path clip-path="url(#clip040)" d="M1248.2 1533.45 L1248.2 1538.98 Q1245.72 1537.71 1243.05 1537.07 Q1240.37 1536.44 1237.51 1536.44 Q1233.15 1536.44 1230.95 1537.77 Q1228.79 1539.11 1228.79 1541.79 Q1228.79 1543.82 1230.35 1545 Q1231.91 1546.15 1236.62 1547.2 L1238.62 1547.64 Q1244.86 1548.98 1247.47 1551.43 Q1250.11 1553.85 1250.11 1558.21 Q1250.11 1563.17 1246.17 1566.07 Q1242.25 1568.97 1235.38 1568.97 Q1232.51 1568.97 1229.39 1568.39 Q1226.3 1567.85 1222.87 1566.74 L1222.87 1560.69 Q1226.11 1562.38 1229.26 1563.24 Q1232.42 1564.07 1235.5 1564.07 Q1239.64 1564.07 1241.87 1562.66 Q1244.1 1561.23 1244.1 1558.65 Q1244.1 1556.27 1242.47 1554.99 Q1240.88 1553.72 1235.44 1552.54 L1233.4 1552.07 Q1227.96 1550.92 1225.54 1548.56 Q1223.12 1546.18 1223.12 1542.04 Q1223.12 1537.01 1226.69 1534.27 Q1230.25 1531.54 1236.81 1531.54 Q1240.05 1531.54 1242.92 1532.01 Q1245.78 1532.49 1248.2 1533.45 Z" fill="#000000" fill-rule="nonzero" fill-opacity="1" /><path clip-path="url(#clip040)" d="M1259.44 1532.4 L1265.29 1532.4 L1265.29 1568.04 L1259.44 1568.04 L1259.44 1532.4 M1259.44 1518.52 L1265.29 1518.52 L1265.29 1525.93 L1259.44 1525.93 L1259.44 1518.52 Z" fill="#000000" fill-rule="nonzero" fill-opacity="1" /><path clip-path="url(#clip040)" d="M1283.34 1522.27 L1283.34 1532.4 L1295.4 1532.4 L1295.4 1536.95 L1283.34 1536.95 L1283.34 1556.3 Q1283.34 1560.66 1284.52 1561.9 Q1285.73 1563.14 1289.39 1563.14 L1295.4 1563.14 L1295.4 1568.04 L1289.39 1568.04 Q1282.61 1568.04 1280.03 1565.53 Q1277.45 1562.98 1277.45 1556.3 L1277.45 1536.95 L1273.16 1536.95 L1273.16 1532.4 L1277.45 1532.4 L1277.45 1522.27 L1283.34 1522.27 Z" fill="#000000" fill-rule="nonzero" fill-opacity="1" /><path clip-path="url(#clip040)" d="M1303.11 1532.4 L1308.96 1532.4 L1308.96 1568.04 L1303.11 1568.04 L1303.11 1532.4 M1303.11 1518.52 L1308.96 1518.52 L1308.96 1525.93 L1303.11 1525.93 L1303.11 1518.52 Z" fill="#000000" fill-rule="nonzero" fill-opacity="1" /><path clip-path="url(#clip040)" d="M1335.03 1536.5 Q1330.32 1536.5 1327.58 1540.19 Q1324.85 1543.85 1324.85 1550.25 Q1324.85 1556.65 1327.55 1560.34 Q1330.29 1564 1335.03 1564 Q1339.71 1564 1342.45 1560.31 Q1345.18 1556.62 1345.18 1550.25 Q1345.18 1543.92 1342.45 1540.23 Q1339.71 1536.5 1335.03 1536.5 M1335.03 1531.54 Q1342.67 1531.54 1347.03 1536.5 Q1351.39 1541.47 1351.39 1550.25 Q1351.39 1559 1347.03 1564 Q1342.67 1568.97 1335.03 1568.97 Q1327.36 1568.97 1323 1564 Q1318.67 1559 1318.67 1550.25 Q1318.67 1541.47 1323 1536.5 Q1327.36 1531.54 1335.03 1531.54 Z" fill="#000000" fill-rule="nonzero" fill-opacity="1" /><path clip-path="url(#clip040)" d="M1390.73 1546.53 L1390.73 1568.04 L1384.87 1568.04 L1384.87 1546.72 Q1384.87 1541.66 1382.9 1539.14 Q1380.93 1536.63 1376.98 1536.63 Q1372.24 1536.63 1369.5 1539.65 Q1366.76 1542.68 1366.76 1547.9 L1366.76 1568.04 L1360.88 1568.04 L1360.88 1532.4 L1366.76 1532.4 L1366.76 1537.93 Q1368.86 1534.72 1371.7 1533.13 Q1374.56 1531.54 1378.29 1531.54 Q1384.43 1531.54 1387.58 1535.36 Q1390.73 1539.14 1390.73 1546.53 Z" fill="#000000" fill-rule="nonzero" fill-opacity="1" /><path clip-path="url(#clip040)" d="M1452.76 1532.4 L1439.87 1549.74 L1453.43 1568.04 L1446.53 1568.04 L1436.15 1554.04 L1425.77 1568.04 L1418.87 1568.04 L1432.71 1549.39 L1420.04 1532.4 L1426.95 1532.4 L1436.4 1545.1 L1445.86 1532.4 L1452.76 1532.4 Z" fill="#000000" fill-rule="nonzero" fill-opacity="1" /><polyline clip-path="url(#clip042)" style="stroke:#000000; stroke-linecap:round; stroke-linejoin:round; stroke-width:2; stroke-opacity:0.1; fill:none" points="249.542,1384.24 2352.76,1384.24 "/>
<polyline clip-path="url(#clip042)" style="stroke:#000000; stroke-linecap:round; stroke-linejoin:round; stroke-width:2; stroke-opacity:0.1; fill:none" points="249.542,1059.73 2352.76,1059.73 "/>
<polyline clip-path="url(#clip042)" style="stroke:#000000; stroke-linecap:round; stroke-linejoin:round; stroke-width:2; stroke-opacity:0.1; fill:none" points="249.542,735.212 2352.76,735.212 "/>
<polyline clip-path="url(#clip042)" style="stroke:#000000; stroke-linecap:round; stroke-linejoin:round; stroke-width:2; stroke-opacity:0.1; fill:none" points="249.542,410.699 2352.76,410.699 "/>
<polyline clip-path="url(#clip042)" style="stroke:#000000; stroke-linecap:round; stroke-linejoin:round; stroke-width:2; stroke-opacity:0.1; fill:none" points="249.542,86.1857 2352.76,86.1857 "/>
<polyline clip-path="url(#clip040)" style="stroke:#000000; stroke-linecap:round; stroke-linejoin:round; stroke-width:4; stroke-opacity:1; fill:none" points="249.542,1423.18 249.542,47.2441 "/>
<polyline clip-path="url(#clip040)" style="stroke:#000000; stroke-linecap:round; stroke-linejoin:round; stroke-width:4; stroke-opacity:1; fill:none" points="249.542,1384.24 268.44,1384.24 "/>
<polyline clip-path="url(#clip040)" style="stroke:#000000; stroke-linecap:round; stroke-linejoin:round; stroke-width:4; stroke-opacity:1; fill:none" points="249.542,1059.73 268.44,1059.73 "/>
<polyline clip-path="url(#clip040)" style="stroke:#000000; stroke-linecap:round; stroke-linejoin:round; stroke-width:4; stroke-opacity:1; fill:none" points="249.542,735.212 268.44,735.212 "/>
<polyline clip-path="url(#clip040)" style="stroke:#000000; stroke-linecap:round; stroke-linejoin:round; stroke-width:4; stroke-opacity:1; fill:none" points="249.542,410.699 268.44,410.699 "/>
<polyline clip-path="url(#clip040)" style="stroke:#000000; stroke-linecap:round; stroke-linejoin:round; stroke-width:4; stroke-opacity:1; fill:none" points="249.542,86.1857 268.44,86.1857 "/>
<path clip-path="url(#clip040)" d="M126.205 1370.04 Q122.593 1370.04 120.765 1373.6 Q118.959 1377.14 118.959 1384.27 Q118.959 1391.38 120.765 1394.94 Q122.593 1398.49 126.205 1398.49 Q129.839 1398.49 131.644 1394.94 Q133.473 1391.38 133.473 1384.27 Q133.473 1377.14 131.644 1373.6 Q129.839 1370.04 126.205 1370.04 M126.205 1366.33 Q132.015 1366.33 135.07 1370.94 Q138.149 1375.52 138.149 1384.27 Q138.149 1393 135.07 1397.61 Q132.015 1402.19 126.205 1402.19 Q120.394 1402.19 117.316 1397.61 Q114.26 1393 114.26 1384.27 Q114.26 1375.52 117.316 1370.94 Q120.394 1366.33 126.205 1366.33 Z" fill="#000000" fill-rule="nonzero" fill-opacity="1" /><path clip-path="url(#clip040)" d="M146.366 1395.64 L151.251 1395.64 L151.251 1401.52 L146.366 1401.52 L146.366 1395.64 Z" fill="#000000" fill-rule="nonzero" fill-opacity="1" /><path clip-path="url(#clip040)" d="M171.436 1370.04 Q167.825 1370.04 165.996 1373.6 Q164.19 1377.14 164.19 1384.27 Q164.19 1391.38 165.996 1394.94 Q167.825 1398.49 171.436 1398.49 Q175.07 1398.49 176.876 1394.94 Q178.704 1391.38 178.704 1384.27 Q178.704 1377.14 176.876 1373.6 Q175.07 1370.04 171.436 1370.04 M171.436 1366.33 Q177.246 1366.33 180.301 1370.94 Q183.38 1375.52 183.38 1384.27 Q183.38 1393 180.301 1397.61 Q177.246 1402.19 171.436 1402.19 Q165.626 1402.19 162.547 1397.61 Q159.491 1393 159.491 1384.27 Q159.491 1375.52 162.547 1370.94 Q165.626 1366.33 171.436 1366.33 Z" fill="#000000" fill-rule="nonzero" fill-opacity="1" /><path clip-path="url(#clip040)" d="M201.598 1370.04 Q197.987 1370.04 196.158 1373.6 Q194.352 1377.14 194.352 1384.27 Q194.352 1391.38 196.158 1394.94 Q197.987 1398.49 201.598 1398.49 Q205.232 1398.49 207.037 1394.94 Q208.866 1391.38 208.866 1384.27 Q208.866 1377.14 207.037 1373.6 Q205.232 1370.04 201.598 1370.04 M201.598 1366.33 Q207.408 1366.33 210.463 1370.94 Q213.542 1375.52 213.542 1384.27 Q213.542 1393 210.463 1397.61 Q207.408 1402.19 201.598 1402.19 Q195.787 1402.19 192.709 1397.61 Q189.653 1393 189.653 1384.27 Q189.653 1375.52 192.709 1370.94 Q195.787 1366.33 201.598 1366.33 Z" fill="#000000" fill-rule="nonzero" fill-opacity="1" /><path clip-path="url(#clip040)" d="M127.2 1045.52 Q123.589 1045.52 121.76 1049.09 Q119.955 1052.63 119.955 1059.76 Q119.955 1066.87 121.76 1070.43 Q123.589 1073.97 127.2 1073.97 Q130.834 1073.97 132.64 1070.43 Q134.468 1066.87 134.468 1059.76 Q134.468 1052.63 132.64 1049.09 Q130.834 1045.52 127.2 1045.52 M127.2 1041.82 Q133.01 1041.82 136.066 1046.43 Q139.144 1051.01 139.144 1059.76 Q139.144 1068.49 136.066 1073.09 Q133.01 1077.68 127.2 1077.68 Q121.39 1077.68 118.311 1073.09 Q115.256 1068.49 115.256 1059.76 Q115.256 1051.01 118.311 1046.43 Q121.39 1041.82 127.2 1041.82 Z" fill="#000000" fill-rule="nonzero" fill-opacity="1" /><path clip-path="url(#clip040)" d="M147.362 1071.13 L152.246 1071.13 L152.246 1077.01 L147.362 1077.01 L147.362 1071.13 Z" fill="#000000" fill-rule="nonzero" fill-opacity="1" /><path clip-path="url(#clip040)" d="M166.459 1073.07 L182.778 1073.07 L182.778 1077.01 L160.834 1077.01 L160.834 1073.07 Q163.496 1070.32 168.079 1065.69 Q172.686 1061.03 173.866 1059.69 Q176.112 1057.17 176.991 1055.43 Q177.894 1053.67 177.894 1051.98 Q177.894 1049.23 175.95 1047.49 Q174.028 1045.76 170.927 1045.76 Q168.727 1045.76 166.274 1046.52 Q163.843 1047.28 161.065 1048.83 L161.065 1044.11 Q163.89 1042.98 166.343 1042.4 Q168.797 1041.82 170.834 1041.82 Q176.204 1041.82 179.399 1044.51 Q182.593 1047.19 182.593 1051.68 Q182.593 1053.81 181.783 1055.73 Q180.996 1057.63 178.889 1060.22 Q178.311 1060.89 175.209 1064.11 Q172.107 1067.31 166.459 1073.07 Z" fill="#000000" fill-rule="nonzero" fill-opacity="1" /><path clip-path="url(#clip040)" d="M192.639 1042.45 L210.996 1042.45 L210.996 1046.38 L196.922 1046.38 L196.922 1054.85 Q197.94 1054.51 198.959 1054.34 Q199.977 1054.16 200.996 1054.16 Q206.783 1054.16 210.162 1057.33 Q213.542 1060.5 213.542 1065.92 Q213.542 1071.5 210.07 1074.6 Q206.598 1077.68 200.278 1077.68 Q198.102 1077.68 195.834 1077.31 Q193.588 1076.94 191.181 1076.19 L191.181 1071.5 Q193.264 1072.63 195.487 1073.19 Q197.709 1073.74 200.186 1073.74 Q204.19 1073.74 206.528 1071.63 Q208.866 1069.53 208.866 1065.92 Q208.866 1062.31 206.528 1060.2 Q204.19 1058.09 200.186 1058.09 Q198.311 1058.09 196.436 1058.51 Q194.584 1058.93 192.639 1059.81 L192.639 1042.45 Z" fill="#000000" fill-rule="nonzero" fill-opacity="1" /><path clip-path="url(#clip040)" d="M126.205 721.011 Q122.593 721.011 120.765 724.575 Q118.959 728.117 118.959 735.247 Q118.959 742.353 120.765 745.918 Q122.593 749.46 126.205 749.46 Q129.839 749.46 131.644 745.918 Q133.473 742.353 133.473 735.247 Q133.473 728.117 131.644 724.575 Q129.839 721.011 126.205 721.011 M126.205 717.307 Q132.015 717.307 135.07 721.913 Q138.149 726.497 138.149 735.247 Q138.149 743.973 135.07 748.58 Q132.015 753.163 126.205 753.163 Q120.394 753.163 117.316 748.58 Q114.26 743.973 114.26 735.247 Q114.26 726.497 117.316 721.913 Q120.394 717.307 126.205 717.307 Z" fill="#000000" fill-rule="nonzero" fill-opacity="1" /><path clip-path="url(#clip040)" d="M146.366 746.612 L151.251 746.612 L151.251 752.492 L146.366 752.492 L146.366 746.612 Z" fill="#000000" fill-rule="nonzero" fill-opacity="1" /><path clip-path="url(#clip040)" d="M161.482 717.932 L179.839 717.932 L179.839 721.867 L165.765 721.867 L165.765 730.339 Q166.783 729.992 167.802 729.83 Q168.82 729.645 169.839 729.645 Q175.626 729.645 179.005 732.816 Q182.385 735.987 182.385 741.404 Q182.385 746.983 178.913 750.085 Q175.44 753.163 169.121 753.163 Q166.945 753.163 164.677 752.793 Q162.431 752.423 160.024 751.682 L160.024 746.983 Q162.107 748.117 164.329 748.673 Q166.552 749.228 169.028 749.228 Q173.033 749.228 175.371 747.122 Q177.709 745.015 177.709 741.404 Q177.709 737.793 175.371 735.687 Q173.033 733.58 169.028 733.58 Q167.153 733.58 165.278 733.997 Q163.427 734.413 161.482 735.293 L161.482 717.932 Z" fill="#000000" fill-rule="nonzero" fill-opacity="1" /><path clip-path="url(#clip040)" d="M201.598 721.011 Q197.987 721.011 196.158 724.575 Q194.352 728.117 194.352 735.247 Q194.352 742.353 196.158 745.918 Q197.987 749.46 201.598 749.46 Q205.232 749.46 207.037 745.918 Q208.866 742.353 208.866 735.247 Q208.866 728.117 207.037 724.575 Q205.232 721.011 201.598 721.011 M201.598 717.307 Q207.408 717.307 210.463 721.913 Q213.542 726.497 213.542 735.247 Q213.542 743.973 210.463 748.58 Q207.408 753.163 201.598 753.163 Q195.787 753.163 192.709 748.58 Q189.653 743.973 189.653 735.247 Q189.653 726.497 192.709 721.913 Q195.787 717.307 201.598 717.307 Z" fill="#000000" fill-rule="nonzero" fill-opacity="1" /><path clip-path="url(#clip040)" d="M127.2 396.498 Q123.589 396.498 121.76 400.062 Q119.955 403.604 119.955 410.734 Q119.955 417.84 121.76 421.405 Q123.589 424.946 127.2 424.946 Q130.834 424.946 132.64 421.405 Q134.468 417.84 134.468 410.734 Q134.468 403.604 132.64 400.062 Q130.834 396.498 127.2 396.498 M127.2 392.794 Q133.01 392.794 136.066 397.4 Q139.144 401.984 139.144 410.734 Q139.144 419.46 136.066 424.067 Q133.01 428.65 127.2 428.65 Q121.39 428.65 118.311 424.067 Q115.256 419.46 115.256 410.734 Q115.256 401.984 118.311 397.4 Q121.39 392.794 127.2 392.794 Z" fill="#000000" fill-rule="nonzero" fill-opacity="1" /><path clip-path="url(#clip040)" d="M147.362 422.099 L152.246 422.099 L152.246 427.979 L147.362 427.979 L147.362 422.099 Z" fill="#000000" fill-rule="nonzero" fill-opacity="1" /><path clip-path="url(#clip040)" d="M161.251 393.419 L183.473 393.419 L183.473 395.41 L170.927 427.979 L166.042 427.979 L177.848 397.354 L161.251 397.354 L161.251 393.419 Z" fill="#000000" fill-rule="nonzero" fill-opacity="1" /><path clip-path="url(#clip040)" d="M192.639 393.419 L210.996 393.419 L210.996 397.354 L196.922 397.354 L196.922 405.826 Q197.94 405.479 198.959 405.317 Q199.977 405.132 200.996 405.132 Q206.783 405.132 210.162 408.303 Q213.542 411.474 213.542 416.891 Q213.542 422.47 210.07 425.571 Q206.598 428.65 200.278 428.65 Q198.102 428.65 195.834 428.28 Q193.588 427.909 191.181 427.169 L191.181 422.47 Q193.264 423.604 195.487 424.159 Q197.709 424.715 200.186 424.715 Q204.19 424.715 206.528 422.608 Q208.866 420.502 208.866 416.891 Q208.866 413.28 206.528 411.173 Q204.19 409.067 200.186 409.067 Q198.311 409.067 196.436 409.484 Q194.584 409.9 192.639 410.78 L192.639 393.419 Z" fill="#000000" fill-rule="nonzero" fill-opacity="1" /><path clip-path="url(#clip040)" d="M117.015 99.5305 L124.654 99.5305 L124.654 73.1649 L116.343 74.8316 L116.343 70.5723 L124.607 68.9057 L129.283 68.9057 L129.283 99.5305 L136.922 99.5305 L136.922 103.466 L117.015 103.466 L117.015 99.5305 Z" fill="#000000" fill-rule="nonzero" fill-opacity="1" /><path clip-path="url(#clip040)" d="M146.366 97.5861 L151.251 97.5861 L151.251 103.466 L146.366 103.466 L146.366 97.5861 Z" fill="#000000" fill-rule="nonzero" fill-opacity="1" /><path clip-path="url(#clip040)" d="M171.436 71.9844 Q167.825 71.9844 165.996 75.5492 Q164.19 79.0908 164.19 86.2204 Q164.19 93.3268 165.996 96.8916 Q167.825 100.433 171.436 100.433 Q175.07 100.433 176.876 96.8916 Q178.704 93.3268 178.704 86.2204 Q178.704 79.0908 176.876 75.5492 Q175.07 71.9844 171.436 71.9844 M171.436 68.2807 Q177.246 68.2807 180.301 72.8871 Q183.38 77.4704 183.38 86.2204 Q183.38 94.9472 180.301 99.5537 Q177.246 104.137 171.436 104.137 Q165.626 104.137 162.547 99.5537 Q159.491 94.9472 159.491 86.2204 Q159.491 77.4704 162.547 72.8871 Q165.626 68.2807 171.436 68.2807 Z" fill="#000000" fill-rule="nonzero" fill-opacity="1" /><path clip-path="url(#clip040)" d="M201.598 71.9844 Q197.987 71.9844 196.158 75.5492 Q194.352 79.0908 194.352 86.2204 Q194.352 93.3268 196.158 96.8916 Q197.987 100.433 201.598 100.433 Q205.232 100.433 207.037 96.8916 Q208.866 93.3268 208.866 86.2204 Q208.866 79.0908 207.037 75.5492 Q205.232 71.9844 201.598 71.9844 M201.598 68.2807 Q207.408 68.2807 210.463 72.8871 Q213.542 77.4704 213.542 86.2204 Q213.542 94.9472 210.463 99.5537 Q207.408 104.137 201.598 104.137 Q195.787 104.137 192.709 99.5537 Q189.653 94.9472 189.653 86.2204 Q189.653 77.4704 192.709 72.8871 Q195.787 68.2807 201.598 68.2807 Z" fill="#000000" fill-rule="nonzero" fill-opacity="1" /><path clip-path="url(#clip040)" d="M21.7677 850.925 L58.7206 850.925 L58.7206 843.158 Q58.7206 833.323 54.2646 828.772 Q49.8086 824.189 40.1964 824.189 Q30.6479 824.189 26.2237 828.772 Q21.7677 833.323 21.7677 843.158 L21.7677 850.925 M16.4842 857.354 L16.4842 844.145 Q16.4842 830.332 22.2451 823.87 Q27.9743 817.409 40.1964 817.409 Q52.4822 817.409 58.2432 823.902 Q64.0042 830.395 64.0042 844.145 L64.0042 857.354 L16.4842 857.354 Z" fill="#000000" fill-rule="nonzero" fill-opacity="1" /><path clip-path="url(#clip040)" d="M44.7161 776.923 L47.5806 776.923 L47.5806 803.85 Q53.6281 803.468 56.8109 800.222 Q59.9619 796.943 59.9619 791.119 Q59.9619 787.745 59.1344 784.594 Q58.3069 781.411 56.6518 778.292 L62.1899 778.292 Q63.5267 781.443 64.227 784.753 Q64.9272 788.063 64.9272 791.469 Q64.9272 799.999 59.9619 804.996 Q54.9967 809.961 46.5303 809.961 Q37.7774 809.961 32.6531 805.251 Q27.4968 800.508 27.4968 792.487 Q27.4968 785.294 32.1438 781.125 Q36.7589 776.923 44.7161 776.923 M42.9973 782.78 Q38.1912 782.843 35.3266 785.485 Q32.4621 788.095 32.4621 792.424 Q32.4621 797.325 35.2312 800.285 Q38.0002 803.214 43.0292 803.659 L42.9973 782.78 Z" fill="#000000" fill-rule="nonzero" fill-opacity="1" /><path clip-path="url(#clip040)" d="M58.657 761.646 L77.5631 761.646 L77.5631 767.534 L28.3562 767.534 L28.3562 761.646 L33.7671 761.646 Q30.5842 759.8 29.0564 756.999 Q27.4968 754.166 27.4968 750.251 Q27.4968 743.758 32.6531 739.716 Q37.8093 735.642 46.212 735.642 Q54.6147 735.642 59.771 739.716 Q64.9272 743.758 64.9272 750.251 Q64.9272 754.166 63.3994 756.999 Q61.8398 759.8 58.657 761.646 M46.212 741.721 Q39.7508 741.721 36.0905 744.395 Q32.3984 747.036 32.3984 751.683 Q32.3984 756.33 36.0905 759.004 Q39.7508 761.646 46.212 761.646 Q52.6732 761.646 56.3653 759.004 Q60.0256 756.33 60.0256 751.683 Q60.0256 747.036 56.3653 744.395 Q52.6732 741.721 46.212 741.721 Z" fill="#000000" fill-rule="nonzero" fill-opacity="1" /><path clip-path="url(#clip040)" d="M18.2347 720.141 L28.3562 720.141 L28.3562 708.078 L32.9077 708.078 L32.9077 720.141 L52.2594 720.141 Q56.6199 720.141 57.8613 718.964 Q59.1026 717.754 59.1026 714.094 L59.1026 708.078 L64.0042 708.078 L64.0042 714.094 Q64.0042 720.873 61.4897 723.451 Q58.9434 726.029 52.2594 726.029 L32.9077 726.029 L32.9077 730.326 L28.3562 730.326 L28.3562 726.029 L18.2347 726.029 L18.2347 720.141 Z" fill="#000000" fill-rule="nonzero" fill-opacity="1" /><path clip-path="url(#clip040)" d="M42.4881 670.743 L64.0042 670.743 L64.0042 676.6 L42.679 676.6 Q37.6183 676.6 35.1038 678.573 Q32.5894 680.546 32.5894 684.493 Q32.5894 689.236 35.6131 691.973 Q38.6368 694.71 43.8567 694.71 L64.0042 694.71 L64.0042 700.598 L14.479 700.598 L14.479 694.71 L33.8944 694.71 Q30.6797 692.609 29.0883 689.777 Q27.4968 686.912 27.4968 683.188 Q27.4968 677.045 31.3163 673.894 Q35.1038 670.743 42.4881 670.743 Z" fill="#000000" fill-rule="nonzero" fill-opacity="1" /><path clip-path="url(#clip040)" d="M28.3562 640.888 L28.3562 613.07 L33.7034 613.07 L59.3254 635.095 L59.3254 613.07 L64.0042 613.07 L64.0042 641.684 L58.657 641.684 L33.035 619.658 L33.035 640.888 L28.3562 640.888 Z" fill="#000000" fill-rule="nonzero" fill-opacity="1" /><path clip-path="url(#clip042)" d="M375.206 1384.24 L375.206 1384.24 L387.635 1384.24 L400.063 1384.24 L412.492 1384.24 L424.921 1384.24 L437.35 1384.24 L449.778 1384.24 L462.207 1384.24 L474.636 1384.24 L487.065 1384.24 L499.493 1384.24 L511.922 1384.24 L524.351 1384.24 L536.78 1384.24 L549.209 1384.24 L561.637 1384.24 L574.066 1384.24 L586.495 1384.24 L598.924 1384.24 L611.352 1384.24 L623.781 1384.24 L636.21 1384.24 L648.639 1384.24 L661.067 1384.24 L673.496 1384.24 L685.925 1384.24 L698.354 1384.24 L710.782 1384.24 L723.211 1384.24 L735.64 1384.24 L748.069 1384.24 L760.498 1384.24 L772.926 1384.24 L785.355 1384.24 L797.784 1384.24 L810.213 1384.24 L822.641 1384.24 L835.07 1384.24 L847.499 1384.24 L859.928 1384.24 L872.356 1384.24 L884.785 1384.24 L897.214 1384.24 L909.643 1384.24 L922.072 1384.24 L934.5 1384.24 L946.929 1384.24 L959.358 1384.24 L971.787 1384.24 L984.215 1384.24 L996.644 1384.24 L1009.07 1384.24 L1021.5 1384.24 L1033.93 1384.24 L1046.36 1384.24 L1058.79 1384.24 L1071.22 1384.24 L1083.65 1384.24 L1096.07 1384.24 L1108.5 1384.24 L1120.93 1384.24 L1133.36 1384.24 L1145.79 1384.24 L1158.22 1384.24 L1170.65 1384.24 L1183.08 1384.24 L1195.5 1384.24 L1207.93 1384.24 L1220.36 1384.24 L1232.79 1384.24 L1245.22 1384.24 L1257.65 1384.24 L1270.08 1384.24 L1282.51 1384.24 L1294.93 1384.24 L1307.36 1384.24 L1319.79 1384.24 L1332.22 1384.24 L1344.65 1384.24 L1357.08 1384.24 L1369.51 1384.24 L1381.94 1384.24 L1394.36 1384.24 L1406.79 1384.24 L1419.22 1384.24 L1431.65 1384.24 L1444.08 1384.24 L1456.51 1384.24 L1468.94 1384.24 L1481.37 1384.24 L1493.79 1384.24 L1506.22 1384.24 L1518.65 1384.24 L1531.08 1384.24 L1543.51 1384.24 L1555.94 1384.24 L1568.37 1384.24 L1580.8 1384.24 L1593.23 1384.24 L1605.65 1384.24 L1618.08 1384.24 L1630.51 1384.24 L1642.94 1384.24 L1655.37 1384.24 L1667.8 1384.24 L1680.23 1384.24 L1692.66 1384.24 L1705.08 1384.24 L1717.51 1384.24 L1729.94 1384.24 L1742.37 1384.24 L1754.8 1384.24 L1767.23 1384.24 L1779.66 1384.24 L1792.09 1384.24 L1804.51 1384.24 L1816.94 1384.24 L1829.37 1384.24 L1841.8 1384.24 L1854.23 1384.24 L1866.66 1384.24 L1879.09 1384.24 L1891.52 1384.24 L1903.94 1384.24 L1916.37 1384.24 L1928.8 1384.24 L1941.23 1384.24 L1953.66 1384.24 L1966.09 1384.24 L1978.52 1384.24 L1990.95 1384.24 L2003.37 1384.24 L2015.8 1384.24 L2028.23 1384.24 L2040.66 1384.24 L2053.09 1384.24 L2065.52 1384.24 L2077.95 1384.24 L2090.38 1384.24 L2102.8 1384.24 L2115.23 1384.24 L2127.66 1384.24 L2140.09 1384.24 L2152.52 1384.24 L2164.95 1384.24 L2177.38 1384.24 L2189.81 1384.24 L2202.23 1384.24 L2214.66 1384.24 L2227.09 1384.24 L2227.09 1384.24 L2227.09 1384.24 L2227.09 1384.24 L2227.09 1371.13 L2227.09 1358.01 L2227.09 1344.9 L2227.09 1331.79 L2227.09 1318.68 L2227.09 1305.57 L2227.09 1292.46 L2227.09 1279.35 L2227.09 1266.23 L2227.09 1253.12 L2227.09 1240.01 L2227.09 1226.9 L2227.09 1213.79 L2227.09 1200.68 L2227.09 1187.56 L2227.09 1174.45 L2227.09 1161.34 L2227.09 1148.23 L2227.09 1135.12 L2227.09 1122.01 L2227.09 1108.89 L2227.09 1095.78 L2227.09 1082.67 L2227.09 1069.56 L2227.09 1056.45 L2227.09 1043.34 L2227.09 1030.22 L2227.09 1017.11 L2227.09 1004 L2227.09 990.889 L2227.09 977.777 L2227.09 964.666 L2227.09 951.554 L2227.09 938.442 L2227.09 925.331 L2227.09 912.219 L2227.09 899.107 L2227.09 885.996 L2227.09 872.884 L2227.09 859.773 L2227.09 846.661 L2227.09 833.549 L2227.09 820.438 L2227.09 807.326 L2227.09 794.214 L2227.09 781.103 L2227.09 767.991 L2227.09 754.879 L2227.09 741.768 L2227.09 728.656 L2227.09 715.545 L2227.09 702.433 L2227.09 689.321 L2227.09 676.21 L2227.09 663.098 L2227.09 649.986 L2227.09 636.875 L2227.09 623.763 L2227.09 610.651 L2227.09 597.54 L2227.09 584.428 L2227.09 571.316 L2227.09 558.205 L2227.09 545.093 L2227.09 531.982 L2227.09 518.87 L2227.09 505.758 L2227.09 492.647 L2227.09 479.535 L2227.09 466.423 L2227.09 453.312 L2227.09 440.2 L2227.09 427.088 L2227.09 413.977 L2227.09 400.865 L2227.09 387.753 L2227.09 374.642 L2227.09 361.53 L2227.09 348.419 L2227.09 335.307 L2227.09 322.195 L2227.09 309.084 L2227.09 295.972 L2227.09 282.86 L2227.09 269.749 L2227.09 256.637 L2227.09 243.525 L2227.09 230.414 L2227.09 217.302 L2227.09 204.19 L2227.09 191.079 L2227.09 177.967 L2227.09 164.856 L2227.09 151.744 L2227.09 138.632 L2227.09 125.521 L2227.09 112.409 L2227.09 99.2973 L2227.09 86.1857 L2227.09 86.1857 L2227.09 86.1857 L2227.09 86.1857 L2214.66 86.1857 L2202.23 86.1857 L2189.81 86.1857 L2177.38 86.1857 L2164.95 86.1857 L2152.52 86.1857 L2140.09 86.1857 L2127.66 86.1857 L2115.23 86.1857 L2102.8 86.1857 L2090.38 86.1857 L2077.95 86.1857 L2065.52 86.1857 L2053.09 86.1857 L2040.66 86.1857 L2028.23 86.1857 L2015.8 86.1857 L2003.37 86.1857 L1990.95 86.1857 L1978.52 86.1857 L1966.09 86.1857 L1953.66 86.1857 L1941.23 86.1857 L1928.8 86.1857 L1916.37 86.1857 L1903.94 86.1857 L1891.52 86.1857 L1879.09 86.1857 L1866.66 86.1857 L1854.23 86.1857 L1841.8 86.1857 L1829.37 86.1857 L1816.94 86.1857 L1804.51 86.1857 L1792.09 86.1857 L1779.66 86.1857 L1767.23 86.1857 L1754.8 86.1857 L1742.37 86.1857 L1729.94 86.1857 L1717.51 86.1857 L1705.08 86.1857 L1692.66 86.1857 L1680.23 86.1857 L1667.8 86.1857 L1655.37 86.1857 L1642.94 86.1857 L1630.51 86.1857 L1618.08 86.1857 L1605.65 86.1857 L1593.23 86.1857 L1580.8 86.1857 L1568.37 86.1857 L1555.94 86.1857 L1543.51 86.1857 L1531.08 86.1857 L1518.65 86.1857 L1506.22 86.1857 L1493.79 86.1857 L1481.37 86.1857 L1468.94 86.1857 L1456.51 86.1857 L1444.08 86.1857 L1431.65 86.1857 L1419.22 86.1857 L1406.79 86.1857 L1394.36 86.1857 L1381.94 86.1857 L1369.51 86.1857 L1357.08 86.1857 L1344.65 86.1857 L1332.22 86.1857 L1319.79 86.1857 L1307.36 86.1857 L1294.93 86.1857 L1282.51 86.1857 L1270.08 86.1857 L1257.65 86.1857 L1245.22 86.1857 L1232.79 86.1857 L1220.36 86.1857 L1207.93 86.1857 L1195.5 86.1857 L1183.08 86.1857 L1170.65 86.1857 L1158.22 86.1857 L1145.79 86.1857 L1133.36 86.1857 L1120.93 86.1857 L1108.5 86.1857 L1096.07 86.1857 L1083.65 86.1857 L1071.22 86.1857 L1058.79 86.1857 L1046.36 86.1857 L1033.93 86.1857 L1021.5 86.1857 L1009.07 86.1857 L996.644 86.1857 L984.215 86.1857 L971.787 86.1857 L959.358 86.1857 L946.929 86.1857 L934.5 86.1857 L922.072 86.1857 L909.643 86.1857 L897.214 86.1857 L884.785 86.1857 L872.356 86.1857 L859.928 86.1857 L847.499 86.1857 L835.07 86.1857 L822.641 86.1857 L810.213 86.1857 L797.784 86.1857 L785.355 86.1857 L772.926 86.1857 L760.498 86.1857 L748.069 86.1857 L735.64 86.1857 L723.211 86.1857 L710.782 86.1857 L698.354 86.1857 L685.925 86.1857 L673.496 86.1857 L661.067 86.1857 L648.639 86.1857 L636.21 86.1857 L623.781 86.1857 L611.352 86.1857 L598.924 86.1857 L586.495 86.1857 L574.066 86.1857 L561.637 86.1857 L549.209 86.1857 L536.78 86.1857 L524.351 86.1857 L511.922 86.1857 L499.493 86.1857 L487.065 86.1857 L474.636 86.1857 L462.207 86.1857 L449.778 86.1857 L437.35 86.1857 L424.921 86.1857 L412.492 86.1857 L400.063 86.1857 L387.635 86.1857 L375.206 86.1857 L375.206 86.1857 L375.206 86.1857 L375.206 86.1857 L375.206 99.2973 L375.206 112.409 L375.206 125.521 L375.206 138.632 L375.206 151.744 L375.206 164.856 L375.206 177.967 L375.206 191.079 L375.206 204.19 L375.206 217.302 L375.206 230.414 L375.206 243.525 L375.206 256.637 L375.206 269.749 L375.206 282.86 L375.206 295.972 L375.206 309.084 L375.206 322.195 L375.206 335.307 L375.206 348.419 L375.206 361.53 L375.206 374.642 L375.206 387.753 L375.206 400.865 L375.206 413.977 L375.206 427.088 L375.206 440.2 L375.206 453.312 L375.206 466.423 L375.206 479.535 L375.206 492.647 L375.206 505.758 L375.206 518.87 L375.206 531.982 L375.206 545.093 L375.206 558.205 L375.206 571.316 L375.206 584.428 L375.206 597.54 L375.206 610.651 L375.206 623.763 L375.206 636.875 L375.206 649.986 L375.206 663.098 L375.206 676.21 L375.206 689.321 L375.206 702.433 L375.206 715.545 L375.206 728.656 L375.206 741.768 L375.206 754.879 L375.206 767.991 L375.206 781.103 L375.206 794.214 L375.206 807.326 L375.206 820.438 L375.206 833.549 L375.206 846.661 L375.206 859.773 L375.206 872.884 L375.206 885.996 L375.206 899.107 L375.206 912.219 L375.206 925.331 L375.206 938.442 L375.206 951.554 L375.206 964.666 L375.206 977.777 L375.206 990.889 L375.206 1004 L375.206 1017.11 L375.206 1030.22 L375.206 1043.34 L375.206 1056.45 L375.206 1069.56 L375.206 1082.67 L375.206 1095.78 L375.206 1108.89 L375.206 1122.01 L375.206 1135.12 L375.206 1148.23 L375.206 1161.34 L375.206 1174.45 L375.206 1187.56 L375.206 1200.68 L375.206 1213.79 L375.206 1226.9 L375.206 1240.01 L375.206 1253.12 L375.206 1266.23 L375.206 1279.35 L375.206 1292.46 L375.206 1305.57 L375.206 1318.68 L375.206 1331.79 L375.206 1344.9 L375.206 1358.01 L375.206 1371.13 L375.206 1384.24 L375.206 1384.24 L375.206 1384.24  Z" fill="#000000" fill-rule="evenodd" fill-opacity="1"/>
<path clip-path="url(#clip042)" d="M922.072 874.194 L934.5 875.754 L946.929 877.057 L959.358 878.154 L971.787 879.23 L984.215 879.678 L996.644 880.07 L1009.07 880.414 L1021.5 880.34 L1033.93 879.916 L1046.36 879.322 L1058.79 878.561 L1071.22 877.248 L1083.65 875.8 L1096.07 873.682 L1100.43 872.884 L1108.5 871.108 L1120.93 868.303 L1133.36 864.732 L1145.79 860.634 L1148.32 859.773 L1158.22 855.459 L1170.65 849.327 L1176.33 846.661 L1183.08 841.35 L1192.36 833.549 L1195.5 829.726 L1204.28 820.438 L1205.38 807.326 L1201.49 794.214 L1195.5 788.601 L1185.08 781.103 L1183.08 780.273 L1170.65 775.313 L1158.22 772.533 L1145.79 770.234 L1135.9 767.991 L1133.36 767.493 L1120.93 765.491 L1108.5 764.238 L1096.07 762.443 L1083.65 760.009 L1071.22 758.821 L1058.79 758.14 L1046.81 754.879 L1046.36 754.748 L1033.93 752.094 L1021.5 751.149 L1009.07 748.467 L996.644 745.243 L984.215 742.459 L982.019 741.768 L971.787 738.472 L959.358 736.34 L946.929 734.323 L934.5 730.255 L928.739 728.656 L922.072 727.284 L909.643 727.359 L897.214 726.277 L884.785 722.68 L877.993 728.656 L872.356 734.901 L866.198 741.768 L859.928 743.579 L847.499 745.158 L835.07 745.999 L822.641 745.252 L810.213 744.376 L797.784 742.905 L788.444 741.768 L785.355 741.276 L772.926 739.678 L760.498 736.682 L748.069 733.962 L735.64 732.1 L723.211 729.87 L718.072 728.656 L710.782 727.127 L698.354 725.302 L685.925 723.364 L673.496 722.286 L661.067 721.327 L648.639 723.658 L639.715 728.656 L638.799 741.768 L645.152 754.879 L648.639 758.173 L658.07 767.991 L661.067 770.831 L671.825 781.103 L673.496 782.254 L685.925 791.042 L690.289 794.214 L698.354 799.345 L710.782 807.011 L711.262 807.326 L723.211 813.918 L735.64 820.178 L736.141 820.438 L748.069 826.278 L760.498 831.52 L765.654 833.549 L772.926 836.36 L785.355 841.145 L797.784 845.375 L801.611 846.661 L810.213 849.602 L822.641 853.31 L835.07 856.485 L847.499 859.611 L848.146 859.773 L859.928 862.946 L872.356 865.575 L884.785 868.084 L897.214 870.347 L909.643 872.341 L913.367 872.884 L922.072 874.194  Z" fill="#212a2d" fill-rule="evenodd" fill-opacity="1"/>
<path clip-path="url(#clip042)" d="M909.643 835.274 L922.072 836.906 L934.5 837.677 L946.929 838.009 L959.358 837.604 L971.787 836.751 L983.492 833.549 L984.215 832.925 L995.043 820.438 L984.215 816.893 L971.787 813.804 L959.358 810.63 L948.74 807.326 L946.929 806.884 L934.5 805.462 L922.072 803.447 L909.643 800.241 L897.214 798.089 L884.785 796.53 L875.837 794.214 L872.356 793.71 L859.928 791.989 L847.499 791.264 L835.07 790.316 L822.641 790.531 L810.213 792.295 L806.344 794.214 L810.213 798.149 L817.493 807.326 L822.641 809.571 L835.07 816.526 L840.632 820.438 L847.499 822.112 L859.928 824.933 L872.356 828.237 L884.785 831.418 L897.214 833.478 L897.625 833.549 L909.643 835.274  Z" fill="#45565b" fill-rule="evenodd" fill-opacity="1"/>
<polyline clip-path="url(#clip042)" style="stroke:#000000; stroke-linecap:round; stroke-linejoin:round; stroke-width:0; stroke-opacity:1; fill:none" points="375.206,1384.24 375.206,1384.24 387.635,1384.24 400.063,1384.24 412.492,1384.24 424.921,1384.24 437.35,1384.24 449.778,1384.24 462.207,1384.24 474.636,1384.24 487.065,1384.24 499.493,1384.24 511.922,1384.24 524.351,1384.24 536.78,1384.24 549.209,1384.24 561.637,1384.24 574.066,1384.24 586.495,1384.24 598.924,1384.24 611.352,1384.24 623.781,1384.24 636.21,1384.24 648.639,1384.24 661.067,1384.24 673.496,1384.24 685.925,1384.24 698.354,1384.24 710.782,1384.24 723.211,1384.24 735.64,1384.24 748.069,1384.24 760.498,1384.24 772.926,1384.24 785.355,1384.24 797.784,1384.24 810.213,1384.24 822.641,1384.24 835.07,1384.24 847.499,1384.24 859.928,1384.24 872.356,1384.24 884.785,1384.24 897.214,1384.24 909.643,1384.24 922.072,1384.24 934.5,1384.24 946.929,1384.24 959.358,1384.24 971.787,1384.24 984.215,1384.24 996.644,1384.24 1009.07,1384.24 1021.5,1384.24 1033.93,1384.24 1046.36,1384.24 1058.79,1384.24 1071.22,1384.24 1083.65,1384.24 1096.07,1384.24 1108.5,1384.24 1120.93,1384.24 1133.36,1384.24 1145.79,1384.24 1158.22,1384.24 1170.65,1384.24 1183.08,1384.24 1195.5,1384.24 1207.93,1384.24 1220.36,1384.24 1232.79,1384.24 1245.22,1384.24 1257.65,1384.24 1270.08,1384.24 1282.51,1384.24 1294.93,1384.24 1307.36,1384.24 1319.79,1384.24 1332.22,1384.24 1344.65,1384.24 1357.08,1384.24 1369.51,1384.24 1381.94,1384.24 1394.36,1384.24 1406.79,1384.24 1419.22,1384.24 1431.65,1384.24 1444.08,1384.24 1456.51,1384.24 1468.94,1384.24 1481.37,1384.24 1493.79,1384.24 1506.22,1384.24 1518.65,1384.24 1531.08,1384.24 1543.51,1384.24 1555.94,1384.24 1568.37,1384.24 1580.8,1384.24 1593.23,1384.24 1605.65,1384.24 1618.08,1384.24 1630.51,1384.24 1642.94,1384.24 1655.37,1384.24 1667.8,1384.24 1680.23,1384.24 1692.66,1384.24 1705.08,1384.24 1717.51,1384.24 1729.94,1384.24 1742.37,1384.24 1754.8,1384.24 1767.23,1384.24 1779.66,1384.24 1792.09,1384.24 1804.51,1384.24 1816.94,1384.24 1829.37,1384.24 1841.8,1384.24 1854.23,1384.24 1866.66,1384.24 1879.09,1384.24 1891.52,1384.24 1903.94,1384.24 1916.37,1384.24 1928.8,1384.24 1941.23,1384.24 1953.66,1384.24 1966.09,1384.24 1978.52,1384.24 1990.95,1384.24 2003.37,1384.24 2015.8,1384.24 2028.23,1384.24 2040.66,1384.24 2053.09,1384.24 2065.52,1384.24 2077.95,1384.24 2090.38,1384.24 2102.8,1384.24 2115.23,1384.24 2127.66,1384.24 2140.09,1384.24 2152.52,1384.24 2164.95,1384.24 2177.38,1384.24 2189.81,1384.24 2202.23,1384.24 2214.66,1384.24 2227.09,1384.24 2227.09,1371.13 2227.09,1358.01 2227.09,1344.9 2227.09,1331.79 2227.09,1318.68 2227.09,1305.57 2227.09,1292.46 2227.09,1279.35 2227.09,1266.23 2227.09,1253.12 2227.09,1240.01 2227.09,1226.9 2227.09,1213.79 2227.09,1200.68 2227.09,1187.56 2227.09,1174.45 2227.09,1161.34 2227.09,1148.23 2227.09,1135.12 2227.09,1122.01 2227.09,1108.89 2227.09,1095.78 2227.09,1082.67 2227.09,1069.56 2227.09,1056.45 2227.09,1043.34 2227.09,1030.22 2227.09,1017.11 2227.09,1004 2227.09,990.889 2227.09,977.777 2227.09,964.666 2227.09,951.554 2227.09,938.442 2227.09,925.331 2227.09,912.219 2227.09,899.107 2227.09,885.996 2227.09,872.884 2227.09,859.773 2227.09,846.661 2227.09,833.549 2227.09,820.438 2227.09,807.326 2227.09,794.214 2227.09,781.103 2227.09,767.991 2227.09,754.879 2227.09,741.768 2227.09,728.656 2227.09,715.545 2227.09,702.433 2227.09,689.321 2227.09,676.21 2227.09,663.098 2227.09,649.986 2227.09,636.875 2227.09,623.763 2227.09,610.651 2227.09,597.54 2227.09,584.428 2227.09,571.316 2227.09,558.205 2227.09,545.093 2227.09,531.982 2227.09,518.87 2227.09,505.758 2227.09,492.647 2227.09,479.535 2227.09,466.423 2227.09,453.312 2227.09,440.2 2227.09,427.088 2227.09,413.977 2227.09,400.865 2227.09,387.753 2227.09,374.642 2227.09,361.53 2227.09,348.419 2227.09,335.307 2227.09,322.195 2227.09,309.084 2227.09,295.972 2227.09,282.86 2227.09,269.749 2227.09,256.637 2227.09,243.525 2227.09,230.414 2227.09,217.302 2227.09,204.19 2227.09,191.079 2227.09,177.967 2227.09,164.856 2227.09,151.744 2227.09,138.632 2227.09,125.521 2227.09,112.409 2227.09,99.2973 2227.09,86.1857 2214.66,86.1857 2202.23,86.1857 2189.81,86.1857 2177.38,86.1857 2164.95,86.1857 2152.52,86.1857 2140.09,86.1857 2127.66,86.1857 2115.23,86.1857 2102.8,86.1857 2090.38,86.1857 2077.95,86.1857 2065.52,86.1857 2053.09,86.1857 2040.66,86.1857 2028.23,86.1857 2015.8,86.1857 2003.37,86.1857 1990.95,86.1857 1978.52,86.1857 1966.09,86.1857 1953.66,86.1857 1941.23,86.1857 1928.8,86.1857 1916.37,86.1857 1903.94,86.1857 1891.52,86.1857 1879.09,86.1857 1866.66,86.1857 1854.23,86.1857 1841.8,86.1857 1829.37,86.1857 1816.94,86.1857 1804.51,86.1857 1792.09,86.1857 1779.66,86.1857 1767.23,86.1857 1754.8,86.1857 1742.37,86.1857 1729.94,86.1857 1717.51,86.1857 1705.08,86.1857 1692.66,86.1857 1680.23,86.1857 1667.8,86.1857 1655.37,86.1857 1642.94,86.1857 1630.51,86.1857 1618.08,86.1857 1605.65,86.1857 1593.23,86.1857 1580.8,86.1857 1568.37,86.1857 1555.94,86.1857 1543.51,86.1857 1531.08,86.1857 1518.65,86.1857 1506.22,86.1857 1493.79,86.1857 1481.37,86.1857 1468.94,86.1857 1456.51,86.1857 1444.08,86.1857 1431.65,86.1857 1419.22,86.1857 1406.79,86.1857 1394.36,86.1857 1381.94,86.1857 1369.51,86.1857 1357.08,86.1857 1344.65,86.1857 1332.22,86.1857 1319.79,86.1857 1307.36,86.1857 1294.93,86.1857 1282.51,86.1857 1270.08,86.1857 1257.65,86.1857 1245.22,86.1857 1232.79,86.1857 1220.36,86.1857 1207.93,86.1857 1195.5,86.1857 1183.08,86.1857 1170.65,86.1857 1158.22,86.1857 1145.79,86.1857 1133.36,86.1857 1120.93,86.1857 1108.5,86.1857 1096.07,86.1857 1083.65,86.1857 1071.22,86.1857 1058.79,86.1857 1046.36,86.1857 1033.93,86.1857 1021.5,86.1857 1009.07,86.1857 996.644,86.1857 984.215,86.1857 971.787,86.1857 959.358,86.1857 946.929,86.1857 934.5,86.1857 922.072,86.1857 909.643,86.1857 897.214,86.1857 884.785,86.1857 872.356,86.1857 859.928,86.1857 847.499,86.1857 835.07,86.1857 822.641,86.1857 810.213,86.1857 797.784,86.1857 785.355,86.1857 772.926,86.1857 760.498,86.1857 748.069,86.1857 735.64,86.1857 723.211,86.1857 710.782,86.1857 698.354,86.1857 685.925,86.1857 673.496,86.1857 661.067,86.1857 648.639,86.1857 636.21,86.1857 623.781,86.1857 611.352,86.1857 598.924,86.1857 586.495,86.1857 574.066,86.1857 561.637,86.1857 549.209,86.1857 536.78,86.1857 524.351,86.1857 511.922,86.1857 499.493,86.1857 487.065,86.1857 474.636,86.1857 462.207,86.1857 449.778,86.1857 437.35,86.1857 424.921,86.1857 412.492,86.1857 400.063,86.1857 387.635,86.1857 375.206,86.1857 375.206,99.2973 375.206,112.409 375.206,125.521 375.206,138.632 375.206,151.744 375.206,164.856 375.206,177.967 375.206,191.079 375.206,204.19 375.206,217.302 375.206,230.414 375.206,243.525 375.206,256.637 375.206,269.749 375.206,282.86 375.206,295.972 375.206,309.084 375.206,322.195 375.206,335.307 375.206,348.419 375.206,361.53 375.206,374.642 375.206,387.753 375.206,400.865 375.206,413.977 375.206,427.088 375.206,440.2 375.206,453.312 375.206,466.423 375.206,479.535 375.206,492.647 375.206,505.758 375.206,518.87 375.206,531.982 375.206,545.093 375.206,558.205 375.206,571.316 375.206,584.428 375.206,597.54 375.206,610.651 375.206,623.763 375.206,636.875 375.206,649.986 375.206,663.098 375.206,676.21 375.206,689.321 375.206,702.433 375.206,715.545 375.206,728.656 375.206,741.768 375.206,754.879 375.206,767.991 375.206,781.103 375.206,794.214 375.206,807.326 375.206,820.438 375.206,833.549 375.206,846.661 375.206,859.773 375.206,872.884 375.206,885.996 375.206,899.107 375.206,912.219 375.206,925.331 375.206,938.442 375.206,951.554 375.206,964.666 375.206,977.777 375.206,990.889 375.206,1004 375.206,1017.11 375.206,1030.22 375.206,1043.34 375.206,1056.45 375.206,1069.56 375.206,1082.67 375.206,1095.78 375.206,1108.89 375.206,1122.01 375.206,1135.12 375.206,1148.23 375.206,1161.34 375.206,1174.45 375.206,1187.56 375.206,1200.68 375.206,1213.79 375.206,1226.9 375.206,1240.01 375.206,1253.12 375.206,1266.23 375.206,1279.35 375.206,1292.46 375.206,1305.57 375.206,1318.68 375.206,1331.79 375.206,1344.9 375.206,1358.01 375.206,1371.13 375.206,1384.24 "/>
<polyline clip-path="url(#clip042)" style="stroke:#000000; stroke-linecap:round; stroke-linejoin:round; stroke-width:0; stroke-opacity:1; fill:none" points="922.072,874.194 934.5,875.754 946.929,877.057 959.358,878.154 971.787,879.23 984.215,879.678 996.644,880.07 1009.07,880.414 1021.5,880.34 1033.93,879.916 1046.36,879.322 1058.79,878.561 1071.22,877.248 1083.65,875.8 1096.07,873.682 1100.43,872.884 1108.5,871.108 1120.93,868.303 1133.36,864.732 1145.79,860.634 1148.32,859.773 1158.22,855.459 1170.65,849.327 1176.33,846.661 1183.08,841.35 1192.36,833.549 1195.5,829.726 1204.28,820.438 1205.38,807.326 1201.49,794.214 1195.5,788.601 1185.08,781.103 1183.08,780.273 1170.65,775.313 1158.22,772.533 1145.79,770.234 1135.9,767.991 1133.36,767.493 1120.93,765.491 1108.5,764.238 1096.07,762.443 1083.65,760.009 1071.22,758.821 1058.79,758.14 1046.81,754.879 1046.36,754.748 1033.93,752.094 1021.5,751.149 1009.07,748.467 996.644,745.243 984.215,742.459 982.019,741.768 971.787,738.472 959.358,736.34 946.929,734.323 934.5,730.255 928.739,728.656 922.072,727.284 909.643,727.359 897.214,726.277 884.785,722.68 877.993,728.656 872.356,734.901 866.198,741.768 859.928,743.579 847.499,745.158 835.07,745.999 822.641,745.252 810.213,744.376 797.784,742.905 788.444,741.768 785.355,741.276 772.926,739.678 760.498,736.682 748.069,733.962 735.64,732.1 723.211,729.87 718.072,728.656 710.782,727.127 698.354,725.302 685.925,723.364 673.496,722.286 661.067,721.327 648.639,723.658 639.715,728.656 638.799,741.768 645.152,754.879 648.639,758.173 658.07,767.991 661.067,770.831 671.825,781.103 673.496,782.254 685.925,791.042 690.289,794.214 698.354,799.345 710.782,807.011 711.262,807.326 723.211,813.918 735.64,820.178 736.141,820.438 748.069,826.278 760.498,831.52 765.654,833.549 772.926,836.36 785.355,841.145 797.784,845.375 801.611,846.661 810.213,849.602 822.641,853.31 835.07,856.485 847.499,859.611 848.146,859.773 859.928,862.946 872.356,865.575 884.785,868.084 897.214,870.347 909.643,872.341 913.367,872.884 922.072,874.194 "/>
<polyline clip-path="url(#clip042)" style="stroke:#000000; stroke-linecap:round; stroke-linejoin:round; stroke-width:0; stroke-opacity:1; fill:none" points="909.643,835.274 922.072,836.906 934.5,837.677 946.929,838.009 959.358,837.604 971.787,836.751 983.492,833.549 984.215,832.925 995.043,820.438 984.215,816.893 971.787,813.804 959.358,810.63 948.74,807.326 946.929,806.884 934.5,805.462 922.072,803.447 909.643,800.241 897.214,798.089 884.785,796.53 875.837,794.214 872.356,793.71 859.928,791.989 847.499,791.264 835.07,790.316 822.641,790.531 810.213,792.295 806.344,794.214 810.213,798.149 817.493,807.326 822.641,809.571 835.07,816.526 840.632,820.438 847.499,822.112 859.928,824.933 872.356,828.237 884.785,831.418 897.214,833.478 897.625,833.549 909.643,835.274 "/>
<polyline clip-path="url(#clip042)" style="stroke:#808080; stroke-linecap:round; stroke-linejoin:round; stroke-width:8; stroke-opacity:1; fill:none" points="1505.48,88.0777 1509.42,90.0242 1513.33,91.9832 1517.23,93.9547 1521.1,95.9383 1524.95,97.934 1528.78,99.9414 1532.59,101.96 1536.38,103.991 1540.14,106.033 1543.87,108.085 1547.59,110.149 1551.27,112.223 1554.94,114.307 1558.57,116.402 1562.18,118.506 1565.77,120.621 1569.33,122.744 1572.86,124.878 1576.37,127.02 1579.84,129.171 1583.29,131.331 1586.71,133.499 1590.11,135.676 1593.47,137.86 1596.81,140.053 1600.11,142.253 1603.39,144.46 1606.63,146.674 1609.85,148.896 1613.03,151.124 1616.18,153.359 1619.3,155.6 1622.39,157.847 1625.45,160.099 1628.47,162.358 1631.46,164.621 1634.42,166.89 1637.35,169.164 1640.24,171.442 1643.1,173.725 1645.92,176.012 1648.71,178.304 1651.47,180.599 1654.19,182.897 1656.87,185.199 1659.52,187.504 1662.13,189.811 1664.71,192.121 1667.25,194.434 1669.75,196.749 1672.22,199.066 1674.65,201.384 1677.04,203.704 1679.4,206.025 1681.71,208.347 1683.99,210.67 1686.23,212.994 1688.43,215.317 1690.6,217.641 1692.72,219.965 1694.81,222.288 1696.85,224.611 1698.86,226.932 1700.83,229.253 1702.75,231.572 1704.64,233.89 1706.48,236.206 1708.29,238.52 1710.05,240.832 1711.78,243.141 1713.46,245.447 1715.1,247.751 1716.7,250.051 1718.26,252.348 1719.78,254.642 1721.25,256.931 1722.69,259.217 1724.08,261.498 1725.43,263.774 1726.73,266.046 1728,268.313 1729.22,270.574 1730.4,272.83 1731.53,275.08 1732.62,277.325 1733.67,279.563 1734.68,281.795 1735.64,284.02 1736.56,286.239 1737.44,288.451 1738.27,290.655 1739.06,292.852 1739.8,295.041 1740.5,297.222 1741.16,299.395 1741.77,301.56 1742.34,303.716 1742.86,305.864 1743.34,308.002 1743.78,310.131 1744.17,312.251 1744.52,314.361 1744.82,316.462 1745.08,318.552 1745.29,320.632 1745.46,322.702 1745.59,324.761 1745.67,326.809 1745.71,328.846 1745.7,330.871 1745.65,332.886 1745.55,334.888 1745.41,336.879 1745.22,338.857 1744.99,340.824 1744.72,342.777 1744.4,344.718 1744.04,346.647 1743.63,348.562 1743.18,350.464 1742.68,352.352 1742.14,354.227 1741.56,356.088 1740.93,357.935 1740.26,359.768 1739.54,361.586 1738.78,363.39 1737.98,365.179 1737.13,366.953 1736.24,368.712 1735.31,370.456 1734.33,372.185 1733.31,373.897 1732.24,375.594 1731.14,377.275 1729.98,378.94 1728.79,380.589 1727.56,382.221 1726.28,383.836 1724.96,385.435 1723.59,387.017 1722.19,388.582 1720.74,390.129 1719.25,391.659 1717.72,393.171 1716.14,394.666 1714.53,396.143 1712.87,397.602 1711.17,399.042 1709.44,400.465 1707.66,401.869 1705.84,403.254 1703.98,404.621 1702.08,405.968 1700.13,407.297 1698.15,408.607 1696.13,409.897 1694.07,411.168 1691.97,412.419 1689.84,413.651 1687.66,414.863 1685.44,416.055 1683.19,417.228 1680.9,418.38 1678.57,419.511 1676.2,420.623 1673.79,421.714 1671.35,422.784 1668.87,423.834 1666.35,424.863 1663.8,425.871 1661.21,426.858 1658.59,427.824 1655.92,428.769 1653.23,429.692 1650.5,430.594 1647.73,431.475 1644.93,432.334 1642.09,433.172 1639.22,433.987 1636.32,434.781 1633.38,435.553 1630.41,436.304 1627.41,437.032 1624.37,437.738 1621.3,438.422 1618.2,439.083 1615.07,439.722 1611.91,440.339 1608.71,440.934 1605.49,441.506 1602.23,442.055 1598.94,442.582 1595.63,443.086 1592.28,443.568 1588.91,444.026 1585.51,444.462 1582.08,444.875 1578.62,445.265 1575.13,445.633 1571.61,445.977 1568.07,446.298 1564.5,446.596 1560.91,446.872 1557.29,447.124 1553.64,447.353 1549.97,447.558 1546.27,447.741 1542.55,447.901 1538.81,448.037 1535.04,448.15 1531.25,448.24 1527.43,448.307 1523.59,448.35 1519.73,448.37 1515.85,448.367 1511.95,448.341 1508.02,448.292 1504.08,448.219 1500.11,448.123 1496.13,448.004 1492.12,447.861 1488.1,447.696 1484.06,447.507 1480,447.295 1475.92,447.06 1471.82,446.802 1467.71,446.521 1463.58,446.217 1459.43,445.889 1455.27,445.539 1451.09,445.166 1446.9,444.77 1442.69,444.351 1438.47,443.909 1434.24,443.444 1429.99,442.957 1425.73,442.447 1421.45,441.914 1417.17,441.359 1412.87,440.781 1408.56,440.18 1404.24,439.558 1399.91,438.913 1395.57,438.245 1391.22,437.556 1386.87,436.844 1382.5,436.11 1378.12,435.354 1373.74,434.576 1369.35,433.777 1364.96,432.955 1360.55,432.112 1356.15,431.247 1351.73,430.361 1347.31,429.453 1342.89,428.524 1338.46,427.574 1334.03,426.602 1329.59,425.61 1325.16,424.596 1320.72,423.562 1316.27,422.507 1311.83,421.431 1307.38,420.335 1302.94,419.218 1298.49,418.081 1294.05,416.924 1289.6,415.746 1285.16,414.549 1280.72,413.332 1276.28,412.095 1271.84,410.838 1267.41,409.562 1262.98,408.267 1258.55,406.952 1254.13,405.618 1249.71,404.266 1245.29,402.894 1240.89,401.504 1236.49,400.095 1232.09,398.668 1227.7,397.223 1223.32,395.759 1218.95,394.278 1214.58,392.778 1210.23,391.261 1205.88,389.727 1201.54,388.175 1197.22,386.606 1192.9,385.019 1188.59,383.416 1184.3,381.796 1180.01,380.16 1175.74,378.507 1171.48,376.838 1167.24,375.153 1163.01,373.452 1158.79,371.735 1154.58,370.002 1150.39,368.255 1146.22,366.492 1142.06,364.713 1137.92,362.921 1133.79,361.113 1129.68,359.291 1125.59,357.454 1121.51,355.603 1117.45,353.739 1113.41,351.86 1109.39,349.969 1105.39,348.063 1101.41,346.145 1097.45,344.213 1093.51,342.269 1089.59,340.311 1085.69,338.342 1081.81,336.36 1077.96,334.367 1074.12,332.361 1070.31,330.344 1066.52,328.315 1062.76,326.275 1059.02,324.224 1055.3,322.163 1051.61,320.09 1047.94,318.007 1044.3,315.914 1040.69,313.811 1037.1,311.699 1033.53,309.576 1030,307.445 1026.49,305.304 1023.01,303.154 1019.55,300.996 1016.13,298.829 1012.73,296.653 1009.36,294.47 1006.02,292.279 1002.71,290.08 999.432,287.874 996.182,285.661 992.962,283.44 989.774,281.213 986.617,278.979 983.491,276.74 980.396,274.494 977.334,272.242 974.305,269.984 971.308,267.721 968.344,265.453 965.413,263.18 962.516,260.903 959.652,258.62 956.823,256.334 954.028,254.043 951.268,251.749 948.543,249.451 945.854,247.15 943.199,244.846 940.581,242.538 937.998,240.229 935.452,237.916 932.943,235.602 930.47,233.285 928.034,230.967 925.636,228.647 923.275,226.326 920.952,224.004 918.667,221.682 916.421,219.358 914.212,217.035 912.043,214.711 909.912,212.387 907.821,210.064 905.769,207.741 903.756,205.419 901.783,203.098 899.85,200.779 897.957,198.461 896.105,196.145 894.293,193.83 892.521,191.518 890.791,189.209 889.101,186.902 887.453,184.598 885.846,182.297 884.281,179.999 882.757,177.705 881.276,175.415 879.836,173.129 878.438,170.847 877.083,168.57 875.77,166.298 874.499,164.03 873.271,161.768 872.086,159.511 870.944,157.259 869.845,155.014 868.789,152.775 867.776,150.542 866.807,148.315 865.881,146.096 864.999,143.883 864.16,141.678 863.365,139.48 862.613,137.289 861.906,135.107 861.242,132.932 860.623,130.766 860.047,128.609 859.516,126.46 859.028,124.32 858.585,122.189 858.187,120.068 857.832,117.956 857.522,115.854 857.256,113.762 857.035,111.68 856.858,109.609 856.725,107.548 856.637,105.499 856.593,103.46 856.594,101.432 856.639,99.4163 856.729,97.4119 856.863,95.4193 857.042,93.4389 857.265,91.4706 857.532,89.5149 857.844,87.5717 "/>
<polyline clip-path="url(#clip042)" style="stroke:#000000; stroke-linecap:round; stroke-linejoin:round; stroke-width:8; stroke-opacity:1; fill:none" points="309.067,86.1857 2293.23,86.1857 "/>
</svg>
