<?xml version="1.0" encoding="utf-8"?>
<svg xmlns="http://www.w3.org/2000/svg" xmlns:xlink="http://www.w3.org/1999/xlink" width="600" height="400" viewBox="0 0 2400 1600">
<defs>
  <clipPath id="clip960">
    <rect x="0" y="0" width="2400" height="1600"/>
  </clipPath>
</defs>
<path clip-path="url(#clip960)" d="M0 1600 L2400 1600 L2400 0 L0 0  Z" fill="#ffffff" fill-rule="evenodd" fill-opacity="1"/>
<defs>
  <clipPath id="clip961">
    <rect x="480" y="0" width="1681" height="1600"/>
  </clipPath>
</defs>
<path clip-path="url(#clip960)" d="M219.866 1423.18 L2352.76 1423.18 L2352.76 47.2441 L219.866 47.2441  Z" fill="#ffffff" fill-rule="evenodd" fill-opacity="1"/>
<defs>
  <clipPath id="clip962">
    <rect x="219" y="47" width="2134" height="1377"/>
  </clipPath>
</defs>
<polyline clip-path="url(#clip962)" style="stroke:#000000; stroke-linecap:round; stroke-linejoin:round; stroke-width:2; stroke-opacity:0.1; fill:none" points="481.447,1423.18 481.447,47.2441 "/>
<polyline clip-path="url(#clip962)" style="stroke:#000000; stroke-linecap:round; stroke-linejoin:round; stroke-width:2; stroke-opacity:0.1; fill:none" points="883.879,1423.18 883.879,47.2441 "/>
<polyline clip-path="url(#clip962)" style="stroke:#000000; stroke-linecap:round; stroke-linejoin:round; stroke-width:2; stroke-opacity:0.1; fill:none" points="1286.31,1423.18 1286.31,47.2441 "/>
<polyline clip-path="url(#clip962)" style="stroke:#000000; stroke-linecap:round; stroke-linejoin:round; stroke-width:2; stroke-opacity:0.1; fill:none" points="1688.74,1423.18 1688.74,47.2441 "/>
<polyline clip-path="url(#clip962)" style="stroke:#000000; stroke-linecap:round; stroke-linejoin:round; stroke-width:2; stroke-opacity:0.1; fill:none" points="2091.18,1423.18 2091.18,47.2441 "/>
<polyline clip-path="url(#clip960)" style="stroke:#000000; stroke-linecap:round; stroke-linejoin:round; stroke-width:4; stroke-opacity:1; fill:none" points="219.866,1423.18 2352.76,1423.18 "/>
<polyline clip-path="url(#clip960)" style="stroke:#000000; stroke-linecap:round; stroke-linejoin:round; stroke-width:4; stroke-opacity:1; fill:none" points="481.447,1423.18 481.447,1404.28 "/>
<polyline clip-path="url(#clip960)" style="stroke:#000000; stroke-linecap:round; stroke-linejoin:round; stroke-width:4; stroke-opacity:1; fill:none" points="883.879,1423.18 883.879,1404.28 "/>
<polyline clip-path="url(#clip960)" style="stroke:#000000; stroke-linecap:round; stroke-linejoin:round; stroke-width:4; stroke-opacity:1; fill:none" points="1286.31,1423.18 1286.31,1404.28 "/>
<polyline clip-path="url(#clip960)" style="stroke:#000000; stroke-linecap:round; stroke-linejoin:round; stroke-width:4; stroke-opacity:1; fill:none" points="1688.74,1423.18 1688.74,1404.28 "/>
<polyline clip-path="url(#clip960)" style="stroke:#000000; stroke-linecap:round; stroke-linejoin:round; stroke-width:4; stroke-opacity:1; fill:none" points="2091.18,1423.18 2091.18,1404.28 "/>
<path clip-path="url(#clip960)" d="M427.732 1468.75 L457.408 1468.75 L457.408 1472.69 L427.732 1472.69 L427.732 1468.75 Z" fill="#000000" fill-rule="nonzero" fill-opacity="1" /><path clip-path="url(#clip960)" d="M477.5 1454.1 Q473.889 1454.1 472.061 1457.66 Q470.255 1461.2 470.255 1468.33 Q470.255 1475.44 472.061 1479.01 Q473.889 1482.55 477.5 1482.55 Q481.135 1482.55 482.94 1479.01 Q484.769 1475.44 484.769 1468.33 Q484.769 1461.2 482.94 1457.66 Q481.135 1454.1 477.5 1454.1 M477.5 1450.39 Q483.31 1450.39 486.366 1455 Q489.445 1459.58 489.445 1468.33 Q489.445 1477.06 486.366 1481.67 Q483.31 1486.25 477.5 1486.25 Q471.69 1486.25 468.611 1481.67 Q465.556 1477.06 465.556 1468.33 Q465.556 1459.58 468.611 1455 Q471.69 1450.39 477.5 1450.39 Z" fill="#000000" fill-rule="nonzero" fill-opacity="1" /><path clip-path="url(#clip960)" d="M497.662 1479.7 L502.546 1479.7 L502.546 1485.58 L497.662 1485.58 L497.662 1479.7 Z" fill="#000000" fill-rule="nonzero" fill-opacity="1" /><path clip-path="url(#clip960)" d="M525.579 1455.09 L513.773 1473.54 L525.579 1473.54 L525.579 1455.09 M524.352 1451.02 L530.232 1451.02 L530.232 1473.54 L535.162 1473.54 L535.162 1477.43 L530.232 1477.43 L530.232 1485.58 L525.579 1485.58 L525.579 1477.43 L509.977 1477.43 L509.977 1472.92 L524.352 1451.02 Z" fill="#000000" fill-rule="nonzero" fill-opacity="1" /><path clip-path="url(#clip960)" d="M831.206 1468.75 L860.882 1468.75 L860.882 1472.69 L831.206 1472.69 L831.206 1468.75 Z" fill="#000000" fill-rule="nonzero" fill-opacity="1" /><path clip-path="url(#clip960)" d="M880.974 1454.1 Q877.363 1454.1 875.534 1457.66 Q873.729 1461.2 873.729 1468.33 Q873.729 1475.44 875.534 1479.01 Q877.363 1482.55 880.974 1482.55 Q884.608 1482.55 886.414 1479.01 Q888.242 1475.44 888.242 1468.33 Q888.242 1461.2 886.414 1457.66 Q884.608 1454.1 880.974 1454.1 M880.974 1450.39 Q886.784 1450.39 889.84 1455 Q892.918 1459.58 892.918 1468.33 Q892.918 1477.06 889.84 1481.67 Q886.784 1486.25 880.974 1486.25 Q875.164 1486.25 872.085 1481.67 Q869.03 1477.06 869.03 1468.33 Q869.03 1459.58 872.085 1455 Q875.164 1450.39 880.974 1450.39 Z" fill="#000000" fill-rule="nonzero" fill-opacity="1" /><path clip-path="url(#clip960)" d="M901.136 1479.7 L906.02 1479.7 L906.02 1485.58 L901.136 1485.58 L901.136 1479.7 Z" fill="#000000" fill-rule="nonzero" fill-opacity="1" /><path clip-path="url(#clip960)" d="M920.233 1481.64 L936.552 1481.64 L936.552 1485.58 L914.608 1485.58 L914.608 1481.64 Q917.27 1478.89 921.853 1474.26 Q926.46 1469.61 927.64 1468.27 Q929.886 1465.74 930.765 1464.01 Q931.668 1462.25 931.668 1460.56 Q931.668 1457.8 929.724 1456.07 Q927.802 1454.33 924.701 1454.33 Q922.502 1454.33 920.048 1455.09 Q917.617 1455.86 914.84 1457.41 L914.84 1452.69 Q917.664 1451.55 920.117 1450.97 Q922.571 1450.39 924.608 1450.39 Q929.978 1450.39 933.173 1453.08 Q936.367 1455.77 936.367 1460.26 Q936.367 1462.39 935.557 1464.31 Q934.77 1466.2 932.664 1468.8 Q932.085 1469.47 928.983 1472.69 Q925.881 1475.88 920.233 1481.64 Z" fill="#000000" fill-rule="nonzero" fill-opacity="1" /><path clip-path="url(#clip960)" d="M1263.7 1454.1 Q1260.08 1454.1 1258.26 1457.66 Q1256.45 1461.2 1256.45 1468.33 Q1256.45 1475.44 1258.26 1479.01 Q1260.08 1482.55 1263.7 1482.55 Q1267.33 1482.55 1269.14 1479.01 Q1270.96 1475.44 1270.96 1468.33 Q1270.96 1461.2 1269.14 1457.66 Q1267.33 1454.1 1263.7 1454.1 M1263.7 1450.39 Q1269.51 1450.39 1272.56 1455 Q1275.64 1459.58 1275.64 1468.33 Q1275.64 1477.06 1272.56 1481.67 Q1269.51 1486.25 1263.7 1486.25 Q1257.89 1486.25 1254.81 1481.67 Q1251.75 1477.06 1251.75 1468.33 Q1251.75 1459.58 1254.81 1455 Q1257.89 1450.39 1263.7 1450.39 Z" fill="#000000" fill-rule="nonzero" fill-opacity="1" /><path clip-path="url(#clip960)" d="M1283.86 1479.7 L1288.74 1479.7 L1288.74 1485.58 L1283.86 1485.58 L1283.86 1479.7 Z" fill="#000000" fill-rule="nonzero" fill-opacity="1" /><path clip-path="url(#clip960)" d="M1308.93 1454.1 Q1305.32 1454.1 1303.49 1457.66 Q1301.68 1461.2 1301.68 1468.33 Q1301.68 1475.44 1303.49 1479.01 Q1305.32 1482.55 1308.93 1482.55 Q1312.56 1482.55 1314.37 1479.01 Q1316.2 1475.44 1316.2 1468.33 Q1316.2 1461.2 1314.37 1457.66 Q1312.56 1454.1 1308.93 1454.1 M1308.93 1450.39 Q1314.74 1450.39 1317.79 1455 Q1320.87 1459.58 1320.87 1468.33 Q1320.87 1477.06 1317.79 1481.67 Q1314.74 1486.25 1308.93 1486.25 Q1303.12 1486.25 1300.04 1481.67 Q1296.98 1477.06 1296.98 1468.33 Q1296.98 1459.58 1300.04 1455 Q1303.12 1450.39 1308.93 1450.39 Z" fill="#000000" fill-rule="nonzero" fill-opacity="1" /><path clip-path="url(#clip960)" d="M1666.93 1454.1 Q1663.31 1454.1 1661.49 1457.66 Q1659.68 1461.2 1659.68 1468.33 Q1659.68 1475.44 1661.49 1479.01 Q1663.31 1482.55 1666.93 1482.55 Q1670.56 1482.55 1672.37 1479.01 Q1674.19 1475.44 1674.19 1468.33 Q1674.19 1461.2 1672.37 1457.66 Q1670.56 1454.1 1666.93 1454.1 M1666.93 1450.39 Q1672.74 1450.39 1675.79 1455 Q1678.87 1459.58 1678.87 1468.33 Q1678.87 1477.06 1675.79 1481.67 Q1672.74 1486.25 1666.93 1486.25 Q1661.12 1486.25 1658.04 1481.67 Q1654.98 1477.06 1654.98 1468.33 Q1654.98 1459.58 1658.04 1455 Q1661.12 1450.39 1666.93 1450.39 Z" fill="#000000" fill-rule="nonzero" fill-opacity="1" /><path clip-path="url(#clip960)" d="M1687.09 1479.7 L1691.97 1479.7 L1691.97 1485.58 L1687.09 1485.58 L1687.09 1479.7 Z" fill="#000000" fill-rule="nonzero" fill-opacity="1" /><path clip-path="url(#clip960)" d="M1706.19 1481.64 L1722.5 1481.64 L1722.5 1485.58 L1700.56 1485.58 L1700.56 1481.64 Q1703.22 1478.89 1707.81 1474.26 Q1712.41 1469.61 1713.59 1468.27 Q1715.84 1465.74 1716.72 1464.01 Q1717.62 1462.25 1717.62 1460.56 Q1717.62 1457.8 1715.68 1456.07 Q1713.75 1454.33 1710.65 1454.33 Q1708.45 1454.33 1706 1455.09 Q1703.57 1455.86 1700.79 1457.41 L1700.79 1452.69 Q1703.62 1451.55 1706.07 1450.97 Q1708.52 1450.39 1710.56 1450.39 Q1715.93 1450.39 1719.12 1453.08 Q1722.32 1455.77 1722.32 1460.26 Q1722.32 1462.39 1721.51 1464.31 Q1720.72 1466.2 1718.62 1468.8 Q1718.04 1469.47 1714.94 1472.69 Q1711.83 1475.88 1706.19 1481.64 Z" fill="#000000" fill-rule="nonzero" fill-opacity="1" /><path clip-path="url(#clip960)" d="M2068.32 1454.1 Q2064.71 1454.1 2062.88 1457.66 Q2061.07 1461.2 2061.07 1468.33 Q2061.07 1475.44 2062.88 1479.01 Q2064.71 1482.55 2068.32 1482.55 Q2071.95 1482.55 2073.76 1479.01 Q2075.58 1475.44 2075.58 1468.33 Q2075.58 1461.2 2073.76 1457.66 Q2071.95 1454.1 2068.32 1454.1 M2068.32 1450.39 Q2074.13 1450.39 2077.18 1455 Q2080.26 1459.58 2080.26 1468.33 Q2080.26 1477.06 2077.18 1481.67 Q2074.13 1486.25 2068.32 1486.25 Q2062.51 1486.25 2059.43 1481.67 Q2056.37 1477.06 2056.37 1468.33 Q2056.37 1459.58 2059.43 1455 Q2062.51 1450.39 2068.32 1450.39 Z" fill="#000000" fill-rule="nonzero" fill-opacity="1" /><path clip-path="url(#clip960)" d="M2088.48 1479.7 L2093.36 1479.7 L2093.36 1485.58 L2088.48 1485.58 L2088.48 1479.7 Z" fill="#000000" fill-rule="nonzero" fill-opacity="1" /><path clip-path="url(#clip960)" d="M2116.39 1455.09 L2104.59 1473.54 L2116.39 1473.54 L2116.39 1455.09 M2115.17 1451.02 L2121.05 1451.02 L2121.05 1473.54 L2125.98 1473.54 L2125.98 1477.43 L2121.05 1477.43 L2121.05 1485.58 L2116.39 1485.58 L2116.39 1477.43 L2100.79 1477.43 L2100.79 1472.92 L2115.17 1451.02 Z" fill="#000000" fill-rule="nonzero" fill-opacity="1" /><path clip-path="url(#clip960)" d="M1140.46 1525.81 L1140.46 1543.66 L1148.54 1543.66 Q1153.03 1543.66 1155.48 1541.34 Q1157.93 1539.02 1157.93 1534.72 Q1157.93 1530.45 1155.48 1528.13 Q1153.03 1525.81 1148.54 1525.81 L1140.46 1525.81 M1134.03 1520.52 L1148.54 1520.52 Q1156.53 1520.52 1160.6 1524.15 Q1164.71 1527.75 1164.71 1534.72 Q1164.71 1541.75 1160.6 1545.35 Q1156.53 1548.95 1148.54 1548.95 L1140.46 1548.95 L1140.46 1568.04 L1134.03 1568.04 L1134.03 1520.52 Z" fill="#000000" fill-rule="nonzero" fill-opacity="1" /><path clip-path="url(#clip960)" d="M1184.57 1536.5 Q1179.86 1536.5 1177.12 1540.19 Q1174.39 1543.85 1174.39 1550.25 Q1174.39 1556.65 1177.09 1560.34 Q1179.83 1564 1184.57 1564 Q1189.25 1564 1191.99 1560.31 Q1194.72 1556.62 1194.72 1550.25 Q1194.72 1543.92 1191.99 1540.23 Q1189.25 1536.5 1184.57 1536.5 M1184.57 1531.54 Q1192.21 1531.54 1196.57 1536.5 Q1200.93 1541.47 1200.93 1550.25 Q1200.93 1559 1196.57 1564 Q1192.21 1568.97 1184.57 1568.97 Q1176.9 1568.97 1172.54 1564 Q1168.21 1559 1168.21 1550.25 Q1168.21 1541.47 1172.54 1536.5 Q1176.9 1531.54 1184.57 1531.54 Z" fill="#000000" fill-rule="nonzero" fill-opacity="1" /><path clip-path="url(#clip960)" d="M1233.36 1533.45 L1233.36 1538.98 Q1230.88 1537.71 1228.21 1537.07 Q1225.53 1536.44 1222.67 1536.44 Q1218.31 1536.44 1216.11 1537.77 Q1213.95 1539.11 1213.95 1541.79 Q1213.95 1543.82 1215.51 1545 Q1217.07 1546.15 1221.78 1547.2 L1223.78 1547.64 Q1230.02 1548.98 1232.63 1551.43 Q1235.27 1553.85 1235.27 1558.21 Q1235.27 1563.17 1231.33 1566.07 Q1227.41 1568.97 1220.54 1568.97 Q1217.67 1568.97 1214.55 1568.39 Q1211.47 1567.85 1208.03 1566.74 L1208.03 1560.69 Q1211.28 1562.38 1214.43 1563.24 Q1217.58 1564.07 1220.66 1564.07 Q1224.8 1564.07 1227.03 1562.66 Q1229.26 1561.23 1229.26 1558.65 Q1229.26 1556.27 1227.64 1554.99 Q1226.04 1553.72 1220.6 1552.54 L1218.56 1552.07 Q1213.12 1550.92 1210.7 1548.56 Q1208.28 1546.18 1208.28 1542.04 Q1208.28 1537.01 1211.85 1534.27 Q1215.41 1531.54 1221.97 1531.54 Q1225.22 1531.54 1228.08 1532.01 Q1230.95 1532.49 1233.36 1533.45 Z" fill="#000000" fill-rule="nonzero" fill-opacity="1" /><path clip-path="url(#clip960)" d="M1244.6 1532.4 L1250.46 1532.4 L1250.46 1568.04 L1244.6 1568.04 L1244.6 1532.4 M1244.6 1518.52 L1250.46 1518.52 L1250.46 1525.93 L1244.6 1525.93 L1244.6 1518.52 Z" fill="#000000" fill-rule="nonzero" fill-opacity="1" /><path clip-path="url(#clip960)" d="M1268.5 1522.27 L1268.5 1532.4 L1280.57 1532.4 L1280.57 1536.95 L1268.5 1536.95 L1268.5 1556.3 Q1268.5 1560.66 1269.68 1561.9 Q1270.89 1563.14 1274.55 1563.14 L1280.57 1563.14 L1280.57 1568.04 L1274.55 1568.04 Q1267.77 1568.04 1265.19 1565.53 Q1262.61 1562.98 1262.61 1556.3 L1262.61 1536.95 L1258.32 1536.95 L1258.32 1532.4 L1262.61 1532.4 L1262.61 1522.27 L1268.5 1522.27 Z" fill="#000000" fill-rule="nonzero" fill-opacity="1" /><path clip-path="url(#clip960)" d="M1288.27 1532.4 L1294.12 1532.4 L1294.12 1568.04 L1288.27 1568.04 L1288.27 1532.4 M1288.27 1518.52 L1294.12 1518.52 L1294.12 1525.93 L1288.27 1525.93 L1288.27 1518.52 Z" fill="#000000" fill-rule="nonzero" fill-opacity="1" /><path clip-path="url(#clip960)" d="M1320.19 1536.5 Q1315.48 1536.5 1312.74 1540.19 Q1310.01 1543.85 1310.01 1550.25 Q1310.01 1556.65 1312.71 1560.34 Q1315.45 1564 1320.19 1564 Q1324.87 1564 1327.61 1560.31 Q1330.35 1556.62 1330.35 1550.25 Q1330.35 1543.92 1327.61 1540.23 Q1324.87 1536.5 1320.19 1536.5 M1320.19 1531.54 Q1327.83 1531.54 1332.19 1536.5 Q1336.55 1541.47 1336.55 1550.25 Q1336.55 1559 1332.19 1564 Q1327.83 1568.97 1320.19 1568.97 Q1312.52 1568.97 1308.16 1564 Q1303.83 1559 1303.83 1550.25 Q1303.83 1541.47 1308.16 1536.5 Q1312.52 1531.54 1320.19 1531.54 Z" fill="#000000" fill-rule="nonzero" fill-opacity="1" /><path clip-path="url(#clip960)" d="M1375.89 1546.53 L1375.89 1568.04 L1370.04 1568.04 L1370.04 1546.72 Q1370.04 1541.66 1368.06 1539.14 Q1366.09 1536.63 1362.14 1536.63 Q1357.4 1536.63 1354.66 1539.65 Q1351.93 1542.68 1351.93 1547.9 L1351.93 1568.04 L1346.04 1568.04 L1346.04 1532.4 L1351.93 1532.4 L1351.93 1537.93 Q1354.03 1534.72 1356.86 1533.13 Q1359.72 1531.54 1363.45 1531.54 Q1369.59 1531.54 1372.74 1535.36 Q1375.89 1539.14 1375.89 1546.53 Z" fill="#000000" fill-rule="nonzero" fill-opacity="1" /><path clip-path="url(#clip960)" d="M1437.93 1532.4 L1425.04 1549.74 L1438.59 1568.04 L1431.69 1568.04 L1421.31 1554.04 L1410.94 1568.04 L1404.03 1568.04 L1417.87 1549.39 L1405.21 1532.4 L1412.11 1532.4 L1421.57 1545.1 L1431.02 1532.4 L1437.93 1532.4 Z" fill="#000000" fill-rule="nonzero" fill-opacity="1" /><polyline clip-path="url(#clip962)" style="stroke:#000000; stroke-linecap:round; stroke-linejoin:round; stroke-width:2; stroke-opacity:0.1; fill:none" points="219.866,1423.18 2352.76,1423.18 "/>
<polyline clip-path="url(#clip962)" style="stroke:#000000; stroke-linecap:round; stroke-linejoin:round; stroke-width:2; stroke-opacity:0.1; fill:none" points="219.866,1147.99 2352.76,1147.99 "/>
<polyline clip-path="url(#clip962)" style="stroke:#000000; stroke-linecap:round; stroke-linejoin:round; stroke-width:2; stroke-opacity:0.1; fill:none" points="219.866,872.806 2352.76,872.806 "/>
<polyline clip-path="url(#clip962)" style="stroke:#000000; stroke-linecap:round; stroke-linejoin:round; stroke-width:2; stroke-opacity:0.1; fill:none" points="219.866,597.618 2352.76,597.618 "/>
<polyline clip-path="url(#clip962)" style="stroke:#000000; stroke-linecap:round; stroke-linejoin:round; stroke-width:2; stroke-opacity:0.1; fill:none" points="219.866,322.431 2352.76,322.431 "/>
<polyline clip-path="url(#clip962)" style="stroke:#000000; stroke-linecap:round; stroke-linejoin:round; stroke-width:2; stroke-opacity:0.1; fill:none" points="219.866,47.2441 2352.76,47.2441 "/>
<polyline clip-path="url(#clip960)" style="stroke:#000000; stroke-linecap:round; stroke-linejoin:round; stroke-width:4; stroke-opacity:1; fill:none" points="219.866,1423.18 219.866,47.2441 "/>
<polyline clip-path="url(#clip960)" style="stroke:#000000; stroke-linecap:round; stroke-linejoin:round; stroke-width:4; stroke-opacity:1; fill:none" points="219.866,1423.18 238.764,1423.18 "/>
<polyline clip-path="url(#clip960)" style="stroke:#000000; stroke-linecap:round; stroke-linejoin:round; stroke-width:4; stroke-opacity:1; fill:none" points="219.866,1147.99 238.764,1147.99 "/>
<polyline clip-path="url(#clip960)" style="stroke:#000000; stroke-linecap:round; stroke-linejoin:round; stroke-width:4; stroke-opacity:1; fill:none" points="219.866,872.806 238.764,872.806 "/>
<polyline clip-path="url(#clip960)" style="stroke:#000000; stroke-linecap:round; stroke-linejoin:round; stroke-width:4; stroke-opacity:1; fill:none" points="219.866,597.618 238.764,597.618 "/>
<polyline clip-path="url(#clip960)" style="stroke:#000000; stroke-linecap:round; stroke-linejoin:round; stroke-width:4; stroke-opacity:1; fill:none" points="219.866,322.431 238.764,322.431 "/>
<polyline clip-path="url(#clip960)" style="stroke:#000000; stroke-linecap:round; stroke-linejoin:round; stroke-width:4; stroke-opacity:1; fill:none" points="219.866,47.2441 238.764,47.2441 "/>
<path clip-path="url(#clip960)" d="M126.691 1408.98 Q123.08 1408.98 121.251 1412.54 Q119.445 1416.08 119.445 1423.21 Q119.445 1430.32 121.251 1433.89 Q123.08 1437.43 126.691 1437.43 Q130.325 1437.43 132.13 1433.89 Q133.959 1430.32 133.959 1423.21 Q133.959 1416.08 132.13 1412.54 Q130.325 1408.98 126.691 1408.98 M126.691 1405.27 Q132.501 1405.27 135.556 1409.88 Q138.635 1414.46 138.635 1423.21 Q138.635 1431.94 135.556 1436.55 Q132.501 1441.13 126.691 1441.13 Q120.88 1441.13 117.802 1436.55 Q114.746 1431.94 114.746 1423.21 Q114.746 1414.46 117.802 1409.88 Q120.88 1405.27 126.691 1405.27 Z" fill="#000000" fill-rule="nonzero" fill-opacity="1" /><path clip-path="url(#clip960)" d="M146.853 1434.58 L151.737 1434.58 L151.737 1440.46 L146.853 1440.46 L146.853 1434.58 Z" fill="#000000" fill-rule="nonzero" fill-opacity="1" /><path clip-path="url(#clip960)" d="M171.922 1408.98 Q168.311 1408.98 166.482 1412.54 Q164.677 1416.08 164.677 1423.21 Q164.677 1430.32 166.482 1433.89 Q168.311 1437.43 171.922 1437.43 Q175.556 1437.43 177.362 1433.89 Q179.19 1430.32 179.19 1423.21 Q179.19 1416.08 177.362 1412.54 Q175.556 1408.98 171.922 1408.98 M171.922 1405.27 Q177.732 1405.27 180.788 1409.88 Q183.866 1414.46 183.866 1423.21 Q183.866 1431.94 180.788 1436.55 Q177.732 1441.13 171.922 1441.13 Q166.112 1441.13 163.033 1436.55 Q159.978 1431.94 159.978 1423.21 Q159.978 1414.46 163.033 1409.88 Q166.112 1405.27 171.922 1405.27 Z" fill="#000000" fill-rule="nonzero" fill-opacity="1" /><path clip-path="url(#clip960)" d="M128.288 1133.79 Q124.677 1133.79 122.848 1137.36 Q121.043 1140.9 121.043 1148.03 Q121.043 1155.13 122.848 1158.7 Q124.677 1162.24 128.288 1162.24 Q131.922 1162.24 133.728 1158.7 Q135.556 1155.13 135.556 1148.03 Q135.556 1140.9 133.728 1137.36 Q131.922 1133.79 128.288 1133.79 M128.288 1130.09 Q134.098 1130.09 137.154 1134.69 Q140.232 1139.28 140.232 1148.03 Q140.232 1156.75 137.154 1161.36 Q134.098 1165.94 128.288 1165.94 Q122.478 1165.94 119.399 1161.36 Q116.343 1156.75 116.343 1148.03 Q116.343 1139.28 119.399 1134.69 Q122.478 1130.09 128.288 1130.09 Z" fill="#000000" fill-rule="nonzero" fill-opacity="1" /><path clip-path="url(#clip960)" d="M148.45 1159.39 L153.334 1159.39 L153.334 1165.27 L148.45 1165.27 L148.45 1159.39 Z" fill="#000000" fill-rule="nonzero" fill-opacity="1" /><path clip-path="url(#clip960)" d="M167.547 1161.34 L183.866 1161.34 L183.866 1165.27 L161.922 1165.27 L161.922 1161.34 Q164.584 1158.58 169.167 1153.95 Q173.774 1149.3 174.954 1147.96 Q177.2 1145.43 178.079 1143.7 Q178.982 1141.94 178.982 1140.25 Q178.982 1137.5 177.038 1135.76 Q175.116 1134.02 172.014 1134.02 Q169.815 1134.02 167.362 1134.79 Q164.931 1135.55 162.153 1137.1 L162.153 1132.38 Q164.977 1131.25 167.431 1130.67 Q169.885 1130.09 171.922 1130.09 Q177.292 1130.09 180.487 1132.77 Q183.681 1135.46 183.681 1139.95 Q183.681 1142.08 182.871 1144 Q182.084 1145.9 179.977 1148.49 Q179.399 1149.16 176.297 1152.38 Q173.195 1155.57 167.547 1161.34 Z" fill="#000000" fill-rule="nonzero" fill-opacity="1" /><path clip-path="url(#clip960)" d="M126.205 858.604 Q122.593 858.604 120.765 862.169 Q118.959 865.711 118.959 872.84 Q118.959 879.947 120.765 883.512 Q122.593 887.053 126.205 887.053 Q129.839 887.053 131.644 883.512 Q133.473 879.947 133.473 872.84 Q133.473 865.711 131.644 862.169 Q129.839 858.604 126.205 858.604 M126.205 854.901 Q132.015 854.901 135.07 859.507 Q138.149 864.09 138.149 872.84 Q138.149 881.567 135.07 886.174 Q132.015 890.757 126.205 890.757 Q120.394 890.757 117.316 886.174 Q114.26 881.567 114.26 872.84 Q114.26 864.09 117.316 859.507 Q120.394 854.901 126.205 854.901 Z" fill="#000000" fill-rule="nonzero" fill-opacity="1" /><path clip-path="url(#clip960)" d="M146.366 884.206 L151.251 884.206 L151.251 890.086 L146.366 890.086 L146.366 884.206 Z" fill="#000000" fill-rule="nonzero" fill-opacity="1" /><path clip-path="url(#clip960)" d="M174.283 859.6 L162.477 878.049 L174.283 878.049 L174.283 859.6 M173.056 855.526 L178.936 855.526 L178.936 878.049 L183.866 878.049 L183.866 881.937 L178.936 881.937 L178.936 890.086 L174.283 890.086 L174.283 881.937 L158.681 881.937 L158.681 877.424 L173.056 855.526 Z" fill="#000000" fill-rule="nonzero" fill-opacity="1" /><path clip-path="url(#clip960)" d="M126.529 583.417 Q122.918 583.417 121.089 586.982 Q119.283 590.524 119.283 597.653 Q119.283 604.76 121.089 608.324 Q122.918 611.866 126.529 611.866 Q130.163 611.866 131.968 608.324 Q133.797 604.76 133.797 597.653 Q133.797 590.524 131.968 586.982 Q130.163 583.417 126.529 583.417 M126.529 579.713 Q132.339 579.713 135.394 584.32 Q138.473 588.903 138.473 597.653 Q138.473 606.38 135.394 610.986 Q132.339 615.57 126.529 615.57 Q120.718 615.57 117.64 610.986 Q114.584 606.38 114.584 597.653 Q114.584 588.903 117.64 584.32 Q120.718 579.713 126.529 579.713 Z" fill="#000000" fill-rule="nonzero" fill-opacity="1" /><path clip-path="url(#clip960)" d="M146.691 609.019 L151.575 609.019 L151.575 614.898 L146.691 614.898 L146.691 609.019 Z" fill="#000000" fill-rule="nonzero" fill-opacity="1" /><path clip-path="url(#clip960)" d="M172.339 595.755 Q169.19 595.755 167.339 597.908 Q165.51 600.061 165.51 603.81 Q165.51 607.537 167.339 609.713 Q169.19 611.866 172.339 611.866 Q175.487 611.866 177.315 609.713 Q179.167 607.537 179.167 603.81 Q179.167 600.061 177.315 597.908 Q175.487 595.755 172.339 595.755 M181.621 581.102 L181.621 585.362 Q179.862 584.528 178.056 584.088 Q176.274 583.649 174.514 583.649 Q169.885 583.649 167.431 586.774 Q165.001 589.899 164.653 596.218 Q166.019 594.204 168.079 593.139 Q170.139 592.051 172.616 592.051 Q177.825 592.051 180.834 595.223 Q183.866 598.371 183.866 603.81 Q183.866 609.135 180.718 612.352 Q177.57 615.57 172.339 615.57 Q166.343 615.57 163.172 610.986 Q160.001 606.38 160.001 597.653 Q160.001 589.459 163.89 584.598 Q167.778 579.713 174.329 579.713 Q176.089 579.713 177.871 580.061 Q179.676 580.408 181.621 581.102 Z" fill="#000000" fill-rule="nonzero" fill-opacity="1" /><path clip-path="url(#clip960)" d="M126.783 308.23 Q123.172 308.23 121.343 311.795 Q119.538 315.336 119.538 322.466 Q119.538 329.572 121.343 333.137 Q123.172 336.679 126.783 336.679 Q130.417 336.679 132.223 333.137 Q134.052 329.572 134.052 322.466 Q134.052 315.336 132.223 311.795 Q130.417 308.23 126.783 308.23 M126.783 304.526 Q132.593 304.526 135.649 309.133 Q138.728 313.716 138.728 322.466 Q138.728 331.193 135.649 335.799 Q132.593 340.383 126.783 340.383 Q120.973 340.383 117.894 335.799 Q114.839 331.193 114.839 322.466 Q114.839 313.716 117.894 309.133 Q120.973 304.526 126.783 304.526 Z" fill="#000000" fill-rule="nonzero" fill-opacity="1" /><path clip-path="url(#clip960)" d="M146.945 333.832 L151.829 333.832 L151.829 339.711 L146.945 339.711 L146.945 333.832 Z" fill="#000000" fill-rule="nonzero" fill-opacity="1" /><path clip-path="url(#clip960)" d="M172.014 323.299 Q168.681 323.299 166.76 325.082 Q164.862 326.864 164.862 329.989 Q164.862 333.114 166.76 334.896 Q168.681 336.679 172.014 336.679 Q175.348 336.679 177.269 334.896 Q179.19 333.091 179.19 329.989 Q179.19 326.864 177.269 325.082 Q175.371 323.299 172.014 323.299 M167.339 321.309 Q164.329 320.568 162.64 318.508 Q160.973 316.447 160.973 313.485 Q160.973 309.341 163.913 306.934 Q166.876 304.526 172.014 304.526 Q177.176 304.526 180.116 306.934 Q183.056 309.341 183.056 313.485 Q183.056 316.447 181.366 318.508 Q179.7 320.568 176.714 321.309 Q180.093 322.096 181.968 324.387 Q183.866 326.679 183.866 329.989 Q183.866 335.012 180.788 337.697 Q177.732 340.383 172.014 340.383 Q166.297 340.383 163.218 337.697 Q160.163 335.012 160.163 329.989 Q160.163 326.679 162.061 324.387 Q163.959 322.096 167.339 321.309 M165.626 313.924 Q165.626 316.61 167.292 318.114 Q168.982 319.619 172.014 319.619 Q175.024 319.619 176.714 318.114 Q178.426 316.61 178.426 313.924 Q178.426 311.239 176.714 309.735 Q175.024 308.23 172.014 308.23 Q168.982 308.23 167.292 309.735 Q165.626 311.239 165.626 313.924 Z" fill="#000000" fill-rule="nonzero" fill-opacity="1" /><path clip-path="url(#clip960)" d="M117.501 60.5889 L125.14 60.5889 L125.14 34.2233 L116.83 35.89 L116.83 31.6308 L125.093 29.9641 L129.769 29.9641 L129.769 60.5889 L137.408 60.5889 L137.408 64.5241 L117.501 64.5241 L117.501 60.5889 Z" fill="#000000" fill-rule="nonzero" fill-opacity="1" /><path clip-path="url(#clip960)" d="M146.853 58.6445 L151.737 58.6445 L151.737 64.5241 L146.853 64.5241 L146.853 58.6445 Z" fill="#000000" fill-rule="nonzero" fill-opacity="1" /><path clip-path="url(#clip960)" d="M171.922 33.0428 Q168.311 33.0428 166.482 36.6076 Q164.677 40.1492 164.677 47.2788 Q164.677 54.3853 166.482 57.9501 Q168.311 61.4917 171.922 61.4917 Q175.556 61.4917 177.362 57.9501 Q179.19 54.3853 179.19 47.2788 Q179.19 40.1492 177.362 36.6076 Q175.556 33.0428 171.922 33.0428 M171.922 29.3391 Q177.732 29.3391 180.788 33.9456 Q183.866 38.5289 183.866 47.2788 Q183.866 56.0056 180.788 60.6121 Q177.732 65.1954 171.922 65.1954 Q166.112 65.1954 163.033 60.6121 Q159.978 56.0056 159.978 47.2788 Q159.978 38.5289 163.033 33.9456 Q166.112 29.3391 171.922 29.3391 Z" fill="#000000" fill-rule="nonzero" fill-opacity="1" /><path clip-path="url(#clip960)" d="M28.3562 872.473 L28.3562 866.616 L64.0042 866.616 L64.0042 872.473 L28.3562 872.473 M14.479 872.473 L14.479 866.616 L21.895 866.616 L21.895 872.473 L14.479 872.473 Z" fill="#000000" fill-rule="nonzero" fill-opacity="1" /><path clip-path="url(#clip960)" d="M42.4881 824.73 L64.0042 824.73 L64.0042 830.586 L42.679 830.586 Q37.6183 830.586 35.1038 832.56 Q32.5894 834.533 32.5894 838.48 Q32.5894 843.222 35.6131 845.959 Q38.6368 848.697 43.8567 848.697 L64.0042 848.697 L64.0042 854.585 L28.3562 854.585 L28.3562 848.697 L33.8944 848.697 Q30.6797 846.596 29.0883 843.763 Q27.4968 840.899 27.4968 837.175 Q27.4968 831.032 31.3163 827.881 Q35.1038 824.73 42.4881 824.73 Z" fill="#000000" fill-rule="nonzero" fill-opacity="1" /><path clip-path="url(#clip960)" d="M18.2347 807.256 L28.3562 807.256 L28.3562 795.193 L32.9077 795.193 L32.9077 807.256 L52.2594 807.256 Q56.6199 807.256 57.8613 806.078 Q59.1026 804.869 59.1026 801.208 L59.1026 795.193 L64.0042 795.193 L64.0042 801.208 Q64.0042 807.988 61.4897 810.566 Q58.9434 813.144 52.2594 813.144 L32.9077 813.144 L32.9077 817.441 L28.3562 817.441 L28.3562 813.144 L18.2347 813.144 L18.2347 807.256 Z" fill="#000000" fill-rule="nonzero" fill-opacity="1" /><path clip-path="url(#clip960)" d="M44.7161 756.999 L47.5806 756.999 L47.5806 783.926 Q53.6281 783.544 56.8109 780.297 Q59.9619 777.019 59.9619 771.194 Q59.9619 767.82 59.1344 764.669 Q58.3069 761.486 56.6518 758.367 L62.1899 758.367 Q63.5267 761.518 64.227 764.828 Q64.9272 768.139 64.9272 771.544 Q64.9272 780.074 59.9619 785.071 Q54.9967 790.037 46.5303 790.037 Q37.7774 790.037 32.6531 785.326 Q27.4968 780.584 27.4968 772.563 Q27.4968 765.37 32.1438 761.2 Q36.7589 756.999 44.7161 756.999 M42.9973 762.855 Q38.1912 762.919 35.3266 765.56 Q32.4621 768.17 32.4621 772.499 Q32.4621 777.401 35.2312 780.361 Q38.0002 783.289 43.0292 783.735 L42.9973 762.855 Z" fill="#000000" fill-rule="nonzero" fill-opacity="1" /><path clip-path="url(#clip960)" d="M42.4881 717.754 L64.0042 717.754 L64.0042 723.61 L42.679 723.61 Q37.6183 723.61 35.1038 725.584 Q32.5894 727.557 32.5894 731.504 Q32.5894 736.246 35.6131 738.984 Q38.6368 741.721 43.8567 741.721 L64.0042 741.721 L64.0042 747.609 L28.3562 747.609 L28.3562 741.721 L33.8944 741.721 Q30.6797 739.62 29.0883 736.787 Q27.4968 733.923 27.4968 730.199 Q27.4968 724.056 31.3163 720.905 Q35.1038 717.754 42.4881 717.754 Z" fill="#000000" fill-rule="nonzero" fill-opacity="1" /><path clip-path="url(#clip960)" d="M29.4065 683.347 L34.9447 683.347 Q33.6716 685.83 33.035 688.504 Q32.3984 691.177 32.3984 694.042 Q32.3984 698.402 33.7352 700.598 Q35.072 702.763 37.7456 702.763 Q39.7826 702.763 40.9603 701.203 Q42.1061 699.644 43.1565 694.933 L43.6021 692.928 Q44.9389 686.689 47.3897 684.079 Q49.8086 681.438 54.1691 681.438 Q59.1344 681.438 62.0308 685.384 Q64.9272 689.299 64.9272 696.174 Q64.9272 699.039 64.3543 702.158 Q63.8132 705.245 62.6992 708.683 L56.6518 708.683 Q58.3387 705.436 59.198 702.285 Q60.0256 699.134 60.0256 696.047 Q60.0256 691.909 58.6251 689.681 Q57.1929 687.453 54.6147 687.453 Q52.2276 687.453 50.9545 689.077 Q49.6813 690.668 48.5037 696.111 L48.0262 698.148 Q46.8804 703.59 44.5251 706.009 Q42.138 708.428 38.0002 708.428 Q32.9713 708.428 30.2341 704.863 Q27.4968 701.299 27.4968 694.742 Q27.4968 691.495 27.9743 688.631 Q28.4517 685.766 29.4065 683.347 Z" fill="#000000" fill-rule="nonzero" fill-opacity="1" /><path clip-path="url(#clip960)" d="M28.3562 672.112 L28.3562 666.255 L64.0042 666.255 L64.0042 672.112 L28.3562 672.112 M14.479 672.112 L14.479 666.255 L21.895 666.255 L21.895 672.112 L14.479 672.112 Z" fill="#000000" fill-rule="nonzero" fill-opacity="1" /><path clip-path="url(#clip960)" d="M18.2347 648.209 L28.3562 648.209 L28.3562 636.146 L32.9077 636.146 L32.9077 648.209 L52.2594 648.209 Q56.6199 648.209 57.8613 647.031 Q59.1026 645.822 59.1026 642.161 L59.1026 636.146 L64.0042 636.146 L64.0042 642.161 Q64.0042 648.941 61.4897 651.519 Q58.9434 654.097 52.2594 654.097 L32.9077 654.097 L32.9077 658.394 L28.3562 658.394 L28.3562 654.097 L18.2347 654.097 L18.2347 648.209 Z" fill="#000000" fill-rule="nonzero" fill-opacity="1" /><path clip-path="url(#clip960)" d="M67.3143 613.611 Q73.68 616.094 75.6216 618.449 Q77.5631 620.804 77.5631 624.751 L77.5631 629.43 L72.6615 629.43 L72.6615 625.992 Q72.6615 623.573 71.5157 622.237 Q70.3699 620.9 66.1048 619.277 L63.4312 618.226 L28.3562 632.645 L28.3562 626.438 L56.238 615.298 L28.3562 604.158 L28.3562 597.951 L67.3143 613.611 Z" fill="#000000" fill-rule="nonzero" fill-opacity="1" /><polyline clip-path="url(#clip962)" style="stroke:#008000; stroke-linecap:round; stroke-linejoin:round; stroke-width:4; stroke-opacity:1; fill:none" points="280.231,1420.56 331.825,1419.06 383.419,1415.88 435.013,1408.21 486.606,1391.3 538.2,1360.01 589.794,1312.11 641.388,1250.97 692.982,1184.67 744.576,1121.82 796.17,1067.62 847.763,1022.93 899.357,985.893 950.951,954.119 1002.54,925.926 1054.14,900.576 1105.73,877.948 1157.33,858.102 1208.92,840.985 1260.51,826.358 1312.11,813.944 1363.7,803.729 1415.3,796.361 1466.89,793.481 1518.48,797.765 1570.08,812.402 1621.67,840.044 1673.26,881.745 1724.86,936.478 1776.45,1001.35 1828.05,1072.08 1879.64,1143.61 1931.23,1210.76 1982.83,1269.33 2034.42,1316.81 2086.02,1352.73 2137.61,1378.12 2189.2,1394.94 2240.8,1405.4 2292.39,1411.63 "/>
<polyline clip-path="url(#clip962)" style="stroke:#008000; stroke-linecap:round; stroke-linejoin:round; stroke-width:4; stroke-opacity:1; fill:none" stroke-dasharray="16, 10" points="280.231,1403.82 331.825,1394.33 383.419,1378.26 435.013,1350.83 486.606,1306.82 538.2,1243.78 589.794,1165.27 641.388,1080.78 692.982,1001.72 744.576,936.132 796.17,886.306 847.763,850.031 899.357,823.358 950.951,802.723 1002.54,785.791 1054.14,771.437 1105.73,759.369 1157.33,749.721 1208.92,742.76 1260.51,738.773 1312.11,738.185 1363.7,741.846 1415.3,751.441 1466.89,769.815 1518.48,800.791 1570.08,848.053 1621.67,913.116 1673.26,993.425 1724.86,1082.02 1776.45,1169.39 1828.05,1246.52 1879.64,1307.65 1931.23,1351.4 1982.83,1380.1 2034.42,1397.89 2086.02,1408.75 2137.61,1415.42 2189.2,1419.39 2240.8,1421.47 2292.39,1422.27 "/>
<polyline clip-path="url(#clip962)" style="stroke:#90ee90; stroke-linecap:round; stroke-linejoin:round; stroke-width:4; stroke-opacity:1; fill:none" points="280.231,1422.6 331.825,1420.81 383.419,1414.54 435.013,1396.33 486.606,1353.29 538.2,1271.08 589.794,1143.9 641.388,983.082 692.982,813.619 744.576,660.01 796.17,534.574 847.763,437.125 899.357,361.703 950.951,302.254 1002.54,254.557 1054.14,215.995 1105.73,184.861 1157.33,159.87 1208.92,139.944 1260.51,124.18 1312.11,111.96 1363.7,103.334 1415.3,99.9623 1466.89,106.661 1518.48,132.353 1570.08,188.181 1621.67,282.094 1673.26,413.372 1724.86,571.835 1776.45,742.089 1828.05,908.608 1879.64,1058.52 1931.23,1182.72 1982.83,1276.84 2034.42,1341.59 2086.02,1381.79 2137.61,1404.2 2189.2,1415.36 2240.8,1420.31 2292.39,1422.24 "/>
<circle clip-path="url(#clip962)" cx="744.576" cy="1121.84" r="14.4" fill="#008000" fill-rule="evenodd" fill-opacity="1" stroke="#000000" stroke-opacity="1" stroke-width="3.2"/>
<circle clip-path="url(#clip962)" cx="744.576" cy="392.296" r="14.4" fill="#ffa500" fill-rule="evenodd" fill-opacity="1" stroke="#000000" stroke-opacity="1" stroke-width="3.2"/>
<path clip-path="url(#clip960)" d="M1829.04 404.149 L2281.66 404.149 L2281.66 93.1086 L1829.04 93.1086  Z" fill="#ffffff" fill-rule="evenodd" fill-opacity="1"/>
<polyline clip-path="url(#clip960)" style="stroke:#000000; stroke-linecap:round; stroke-linejoin:round; stroke-width:4; stroke-opacity:1; fill:none" points="1829.04,404.149 2281.66,404.149 2281.66,93.1086 1829.04,93.1086 1829.04,404.149 "/>
<polyline clip-path="url(#clip960)" style="stroke:#008000; stroke-linecap:round; stroke-linejoin:round; stroke-width:4; stroke-opacity:1; fill:none" points="1852.74,144.949 1994.93,144.949 "/>
<path clip-path="url(#clip960)" d="M2038.8 140.423 Q2037.94 140.122 2037.08 139.891 Q2034.79 139.289 2032.34 139.289 Q2028.1 139.289 2025.74 141.581 Q2023.54 143.71 2023.12 147.622 L2038.8 147.622 L2038.8 150.956 L2023.12 150.956 Q2023.54 154.868 2025.74 156.997 Q2028.1 159.289 2032.34 159.289 Q2035.3 159.289 2037.08 158.687 L2038.8 158.108 L2038.8 161.974 L2036.97 162.391 Q2034.56 162.9 2032.08 162.9 Q2025.88 162.9 2022.27 159.289 Q2018.63 155.678 2018.63 149.289 Q2018.63 142.9 2022.27 139.289 Q2025.88 135.678 2032.08 135.678 Q2034.42 135.678 2036.97 136.187 Q2037.89 136.372 2038.8 136.65 L2038.8 140.423 Z" fill="#000000" fill-rule="nonzero" fill-opacity="1" /><path clip-path="url(#clip960)" d="M2051.06 158.293 L2058.7 158.293 L2058.7 131.928 L2050.39 133.595 L2050.39 129.335 L2058.66 127.669 L2063.33 127.669 L2063.33 158.293 L2070.97 158.293 L2070.97 162.229 L2051.06 162.229 L2051.06 158.293 Z" fill="#000000" fill-rule="nonzero" fill-opacity="1" /><path clip-path="url(#clip960)" d="M2080.9 156.349 L2085.79 156.349 L2085.79 160.33 L2081.99 167.738 L2079 167.738 L2080.9 160.33 L2080.9 156.349 Z" fill="#000000" fill-rule="nonzero" fill-opacity="1" /><path clip-path="url(#clip960)" d="M2139.91 158.108 L2139.91 162.229 L2126.02 162.229 L2126.02 158.108 Q2130.11 155.863 2132.41 152.02 Q2134.7 148.178 2134.7 143.502 Q2134.7 137.946 2131.64 134.59 Q2128.59 131.233 2123.59 131.233 Q2118.59 131.233 2115.51 134.613 Q2112.45 137.969 2112.45 143.502 Q2112.45 148.178 2114.74 152.02 Q2117.06 155.863 2121.18 158.108 L2121.18 162.229 L2107.29 162.229 L2107.29 158.108 L2114.67 158.108 Q2111.02 154.891 2109.33 151.442 Q2107.66 147.993 2107.66 143.733 Q2107.66 136.372 2112.11 131.812 Q2116.53 127.252 2123.59 127.252 Q2130.6 127.252 2135.07 131.812 Q2139.51 136.349 2139.51 143.502 Q2139.51 147.993 2137.87 151.418 Q2136.23 154.844 2132.5 158.108 L2139.91 158.108 Z" fill="#000000" fill-rule="nonzero" fill-opacity="1" /><path clip-path="url(#clip960)" d="M2147.59 158.293 L2155.23 158.293 L2155.23 131.928 L2146.92 133.595 L2146.92 129.335 L2155.18 127.669 L2159.86 127.669 L2159.86 158.293 L2167.5 158.293 L2167.5 162.229 L2147.59 162.229 L2147.59 158.293 Z" fill="#000000" fill-rule="nonzero" fill-opacity="1" /><path clip-path="url(#clip960)" d="M2177.43 156.349 L2182.31 156.349 L2182.31 160.33 L2178.52 167.738 L2175.53 167.738 L2177.43 160.33 L2177.43 156.349 Z" fill="#000000" fill-rule="nonzero" fill-opacity="1" /><path clip-path="url(#clip960)" d="M2206.04 172.09 L2206.04 136.303 L2210.3 136.303 L2210.3 152.414 Q2210.3 155.77 2211.9 157.483 Q2213.49 159.196 2216.62 159.196 Q2220.04 159.196 2221.76 157.252 Q2223.49 155.307 2223.49 151.418 L2223.49 136.303 L2227.75 136.303 L2227.75 156.256 Q2227.75 157.645 2228.15 158.317 Q2228.56 158.965 2229.42 158.965 Q2229.63 158.965 2230 158.849 Q2230.37 158.71 2231.02 158.432 L2231.02 161.858 Q2230.07 162.391 2229.21 162.645 Q2228.38 162.9 2227.57 162.9 Q2225.97 162.9 2225.02 161.997 Q2224.07 161.094 2223.72 159.243 Q2222.57 161.071 2220.88 161.997 Q2219.21 162.9 2216.94 162.9 Q2214.58 162.9 2212.91 161.997 Q2211.27 161.094 2210.3 159.289 L2210.3 172.09 L2206.04 172.09 Z" fill="#000000" fill-rule="nonzero" fill-opacity="1" /><path clip-path="url(#clip960)" d="M2238.05 158.293 L2245.69 158.293 L2245.69 131.928 L2237.38 133.595 L2237.38 129.335 L2245.65 127.669 L2250.32 127.669 L2250.32 158.293 L2257.96 158.293 L2257.96 162.229 L2238.05 162.229 L2238.05 158.293 Z" fill="#000000" fill-rule="nonzero" fill-opacity="1" /><polyline clip-path="url(#clip960)" style="stroke:#008000; stroke-linecap:round; stroke-linejoin:round; stroke-width:4; stroke-opacity:1; fill:none" stroke-dasharray="16, 10" points="1852.74,196.789 1994.93,196.789 "/>
<path clip-path="url(#clip960)" d="M2038.8 192.263 Q2037.94 191.962 2037.08 191.731 Q2034.79 191.129 2032.34 191.129 Q2028.1 191.129 2025.74 193.421 Q2023.54 195.55 2023.12 199.462 L2038.8 199.462 L2038.8 202.796 L2023.12 202.796 Q2023.54 206.708 2025.74 208.837 Q2028.1 211.129 2032.34 211.129 Q2035.3 211.129 2037.08 210.527 L2038.8 209.948 L2038.8 213.814 L2036.97 214.231 Q2034.56 214.74 2032.08 214.74 Q2025.88 214.74 2022.27 211.129 Q2018.63 207.518 2018.63 201.129 Q2018.63 194.74 2022.27 191.129 Q2025.88 187.518 2032.08 187.518 Q2034.42 187.518 2036.97 188.027 Q2037.89 188.212 2038.8 188.49 L2038.8 192.263 Z" fill="#000000" fill-rule="nonzero" fill-opacity="1" /><path clip-path="url(#clip960)" d="M2051.06 210.133 L2058.7 210.133 L2058.7 183.768 L2050.39 185.435 L2050.39 181.175 L2058.66 179.509 L2063.33 179.509 L2063.33 210.133 L2070.97 210.133 L2070.97 214.069 L2051.06 214.069 L2051.06 210.133 Z" fill="#000000" fill-rule="nonzero" fill-opacity="1" /><path clip-path="url(#clip960)" d="M2080.9 208.189 L2085.79 208.189 L2085.79 212.17 L2081.99 219.578 L2079 219.578 L2080.9 212.17 L2080.9 208.189 Z" fill="#000000" fill-rule="nonzero" fill-opacity="1" /><path clip-path="url(#clip960)" d="M2139.91 209.948 L2139.91 214.069 L2126.02 214.069 L2126.02 209.948 Q2130.11 207.703 2132.41 203.86 Q2134.7 200.018 2134.7 195.342 Q2134.7 189.786 2131.64 186.43 Q2128.59 183.073 2123.59 183.073 Q2118.59 183.073 2115.51 186.453 Q2112.45 189.809 2112.45 195.342 Q2112.45 200.018 2114.74 203.86 Q2117.06 207.703 2121.18 209.948 L2121.18 214.069 L2107.29 214.069 L2107.29 209.948 L2114.67 209.948 Q2111.02 206.731 2109.33 203.282 Q2107.66 199.833 2107.66 195.573 Q2107.66 188.212 2112.11 183.652 Q2116.53 179.092 2123.59 179.092 Q2130.6 179.092 2135.07 183.652 Q2139.51 188.189 2139.51 195.342 Q2139.51 199.833 2137.87 203.258 Q2136.23 206.684 2132.5 209.948 L2139.91 209.948 Z" fill="#000000" fill-rule="nonzero" fill-opacity="1" /><path clip-path="url(#clip960)" d="M2150.81 210.133 L2167.13 210.133 L2167.13 214.069 L2145.18 214.069 L2145.18 210.133 Q2147.85 207.379 2152.43 202.749 Q2157.04 198.096 2158.22 196.754 Q2160.46 194.231 2161.34 192.495 Q2162.24 190.735 2162.24 189.046 Q2162.24 186.291 2160.3 184.555 Q2158.38 182.819 2155.28 182.819 Q2153.08 182.819 2150.62 183.583 Q2148.19 184.347 2145.42 185.897 L2145.42 181.175 Q2148.24 180.041 2150.69 179.462 Q2153.15 178.884 2155.18 178.884 Q2160.55 178.884 2163.75 181.569 Q2166.94 184.254 2166.94 188.745 Q2166.94 190.874 2166.13 192.796 Q2165.35 194.694 2163.24 197.286 Q2162.66 197.958 2159.56 201.175 Q2156.46 204.37 2150.81 210.133 Z" fill="#000000" fill-rule="nonzero" fill-opacity="1" /><path clip-path="url(#clip960)" d="M2177.43 208.189 L2182.31 208.189 L2182.31 212.17 L2178.52 219.578 L2175.53 219.578 L2177.43 212.17 L2177.43 208.189 Z" fill="#000000" fill-rule="nonzero" fill-opacity="1" /><path clip-path="url(#clip960)" d="M2206.04 223.93 L2206.04 188.143 L2210.3 188.143 L2210.3 204.254 Q2210.3 207.61 2211.9 209.323 Q2213.49 211.036 2216.62 211.036 Q2220.04 211.036 2221.76 209.092 Q2223.49 207.147 2223.49 203.258 L2223.49 188.143 L2227.75 188.143 L2227.75 208.096 Q2227.75 209.485 2228.15 210.157 Q2228.56 210.805 2229.42 210.805 Q2229.63 210.805 2230 210.689 Q2230.37 210.55 2231.02 210.272 L2231.02 213.698 Q2230.07 214.231 2229.21 214.485 Q2228.38 214.74 2227.57 214.74 Q2225.97 214.74 2225.02 213.837 Q2224.07 212.934 2223.72 211.083 Q2222.57 212.911 2220.88 213.837 Q2219.21 214.74 2216.94 214.74 Q2214.58 214.74 2212.91 213.837 Q2211.27 212.934 2210.3 211.129 L2210.3 223.93 L2206.04 223.93 Z" fill="#000000" fill-rule="nonzero" fill-opacity="1" /><path clip-path="url(#clip960)" d="M2238.05 210.133 L2245.69 210.133 L2245.69 183.768 L2237.38 185.435 L2237.38 181.175 L2245.65 179.509 L2250.32 179.509 L2250.32 210.133 L2257.96 210.133 L2257.96 214.069 L2238.05 214.069 L2238.05 210.133 Z" fill="#000000" fill-rule="nonzero" fill-opacity="1" /><polyline clip-path="url(#clip960)" style="stroke:#90ee90; stroke-linecap:round; stroke-linejoin:round; stroke-width:4; stroke-opacity:1; fill:none" points="1852.74,248.629 1994.93,248.629 "/>
<path clip-path="url(#clip960)" d="M2038.8 244.103 Q2037.94 243.802 2037.08 243.571 Q2034.79 242.969 2032.34 242.969 Q2028.1 242.969 2025.74 245.261 Q2023.54 247.39 2023.12 251.302 L2038.8 251.302 L2038.8 254.636 L2023.12 254.636 Q2023.54 258.548 2025.74 260.677 Q2028.1 262.969 2032.34 262.969 Q2035.3 262.969 2037.08 262.367 L2038.8 261.788 L2038.8 265.654 L2036.97 266.071 Q2034.56 266.58 2032.08 266.58 Q2025.88 266.58 2022.27 262.969 Q2018.63 259.358 2018.63 252.969 Q2018.63 246.58 2022.27 242.969 Q2025.88 239.358 2032.08 239.358 Q2034.42 239.358 2036.97 239.867 Q2037.89 240.052 2038.8 240.33 L2038.8 244.103 Z" fill="#000000" fill-rule="nonzero" fill-opacity="1" /><path clip-path="url(#clip960)" d="M2054.28 261.973 L2070.6 261.973 L2070.6 265.909 L2048.66 265.909 L2048.66 261.973 Q2051.32 259.219 2055.9 254.589 Q2060.51 249.936 2061.69 248.594 Q2063.93 246.071 2064.81 244.335 Q2065.72 242.575 2065.72 240.886 Q2065.72 238.131 2063.77 236.395 Q2061.85 234.659 2058.75 234.659 Q2056.55 234.659 2054.1 235.423 Q2051.67 236.187 2048.89 237.737 L2048.89 233.015 Q2051.71 231.881 2054.17 231.302 Q2056.62 230.724 2058.66 230.724 Q2064.03 230.724 2067.22 233.409 Q2070.42 236.094 2070.42 240.585 Q2070.42 242.714 2069.61 244.636 Q2068.82 246.534 2066.71 249.126 Q2066.13 249.798 2063.03 253.015 Q2059.93 256.21 2054.28 261.973 Z" fill="#000000" fill-rule="nonzero" fill-opacity="1" /><path clip-path="url(#clip960)" d="M2080.9 260.029 L2085.79 260.029 L2085.79 264.01 L2081.99 271.418 L2079 271.418 L2080.9 264.01 L2080.9 260.029 Z" fill="#000000" fill-rule="nonzero" fill-opacity="1" /><path clip-path="url(#clip960)" d="M2139.91 261.788 L2139.91 265.909 L2126.02 265.909 L2126.02 261.788 Q2130.11 259.543 2132.41 255.7 Q2134.7 251.858 2134.7 247.182 Q2134.7 241.626 2131.64 238.27 Q2128.59 234.913 2123.59 234.913 Q2118.59 234.913 2115.51 238.293 Q2112.45 241.649 2112.45 247.182 Q2112.45 251.858 2114.74 255.7 Q2117.06 259.543 2121.18 261.788 L2121.18 265.909 L2107.29 265.909 L2107.29 261.788 L2114.67 261.788 Q2111.02 258.571 2109.33 255.122 Q2107.66 251.673 2107.66 247.413 Q2107.66 240.052 2112.11 235.492 Q2116.53 230.932 2123.59 230.932 Q2130.6 230.932 2135.07 235.492 Q2139.51 240.029 2139.51 247.182 Q2139.51 251.673 2137.87 255.098 Q2136.23 258.524 2132.5 261.788 L2139.91 261.788 Z" fill="#000000" fill-rule="nonzero" fill-opacity="1" /><path clip-path="url(#clip960)" d="M2147.59 261.973 L2155.23 261.973 L2155.23 235.608 L2146.92 237.275 L2146.92 233.015 L2155.18 231.349 L2159.86 231.349 L2159.86 261.973 L2167.5 261.973 L2167.5 265.909 L2147.59 265.909 L2147.59 261.973 Z" fill="#000000" fill-rule="nonzero" fill-opacity="1" /><path clip-path="url(#clip960)" d="M2177.43 260.029 L2182.31 260.029 L2182.31 264.01 L2178.52 271.418 L2175.53 271.418 L2177.43 264.01 L2177.43 260.029 Z" fill="#000000" fill-rule="nonzero" fill-opacity="1" /><path clip-path="url(#clip960)" d="M2206.04 275.77 L2206.04 239.983 L2210.3 239.983 L2210.3 256.094 Q2210.3 259.45 2211.9 261.163 Q2213.49 262.876 2216.62 262.876 Q2220.04 262.876 2221.76 260.932 Q2223.49 258.987 2223.49 255.098 L2223.49 239.983 L2227.75 239.983 L2227.75 259.936 Q2227.75 261.325 2228.15 261.997 Q2228.56 262.645 2229.42 262.645 Q2229.63 262.645 2230 262.529 Q2230.37 262.39 2231.02 262.112 L2231.02 265.538 Q2230.07 266.071 2229.21 266.325 Q2228.38 266.58 2227.57 266.58 Q2225.97 266.58 2225.02 265.677 Q2224.07 264.774 2223.72 262.923 Q2222.57 264.751 2220.88 265.677 Q2219.21 266.58 2216.94 266.58 Q2214.58 266.58 2212.91 265.677 Q2211.27 264.774 2210.3 262.969 L2210.3 275.77 L2206.04 275.77 Z" fill="#000000" fill-rule="nonzero" fill-opacity="1" /><path clip-path="url(#clip960)" d="M2238.05 261.973 L2245.69 261.973 L2245.69 235.608 L2237.38 237.275 L2237.38 233.015 L2245.65 231.349 L2250.32 231.349 L2250.32 261.973 L2257.96 261.973 L2257.96 265.909 L2238.05 265.909 L2238.05 261.973 Z" fill="#000000" fill-rule="nonzero" fill-opacity="1" /><circle clip-path="url(#clip960)" cx="1923.84" cy="300.469" r="20.48" fill="#008000" fill-rule="evenodd" fill-opacity="1" stroke="#000000" stroke-opacity="1" stroke-width="4.55111"/>
<path clip-path="url(#clip960)" d="M2038.8 295.943 Q2037.94 295.642 2037.08 295.411 Q2034.79 294.809 2032.34 294.809 Q2028.1 294.809 2025.74 297.101 Q2023.54 299.23 2023.12 303.142 L2038.8 303.142 L2038.8 306.476 L2023.12 306.476 Q2023.54 310.388 2025.74 312.517 Q2028.1 314.809 2032.34 314.809 Q2035.3 314.809 2037.08 314.207 L2038.8 313.628 L2038.8 317.494 L2036.97 317.911 Q2034.56 318.42 2032.08 318.42 Q2025.88 318.42 2022.27 314.809 Q2018.63 311.198 2018.63 304.809 Q2018.63 298.42 2022.27 294.809 Q2025.88 291.198 2032.08 291.198 Q2034.42 291.198 2036.97 291.707 Q2037.89 291.892 2038.8 292.17 L2038.8 295.943 Z" fill="#000000" fill-rule="nonzero" fill-opacity="1" /><path clip-path="url(#clip960)" d="M2051.06 313.813 L2058.7 313.813 L2058.7 287.448 L2050.39 289.115 L2050.39 284.855 L2058.66 283.189 L2063.33 283.189 L2063.33 313.813 L2070.97 313.813 L2070.97 317.749 L2051.06 317.749 L2051.06 313.813 Z" fill="#000000" fill-rule="nonzero" fill-opacity="1" /><path clip-path="url(#clip960)" d="M2080.9 311.869 L2085.79 311.869 L2085.79 315.85 L2081.99 323.258 L2079 323.258 L2080.9 315.85 L2080.9 311.869 Z" fill="#000000" fill-rule="nonzero" fill-opacity="1" /><path clip-path="url(#clip960)" d="M2139.91 313.628 L2139.91 317.749 L2126.02 317.749 L2126.02 313.628 Q2130.11 311.383 2132.41 307.54 Q2134.7 303.698 2134.7 299.022 Q2134.7 293.466 2131.64 290.11 Q2128.59 286.753 2123.59 286.753 Q2118.59 286.753 2115.51 290.133 Q2112.45 293.489 2112.45 299.022 Q2112.45 303.698 2114.74 307.54 Q2117.06 311.383 2121.18 313.628 L2121.18 317.749 L2107.29 317.749 L2107.29 313.628 L2114.67 313.628 Q2111.02 310.411 2109.33 306.962 Q2107.66 303.513 2107.66 299.253 Q2107.66 291.892 2112.11 287.332 Q2116.53 282.772 2123.59 282.772 Q2130.6 282.772 2135.07 287.332 Q2139.51 291.869 2139.51 299.022 Q2139.51 303.513 2137.87 306.938 Q2136.23 310.364 2132.5 313.628 L2139.91 313.628 Z" fill="#000000" fill-rule="nonzero" fill-opacity="1" /><path clip-path="url(#clip960)" d="M2147.59 313.813 L2155.23 313.813 L2155.23 287.448 L2146.92 289.115 L2146.92 284.855 L2155.18 283.189 L2159.86 283.189 L2159.86 313.813 L2167.5 313.813 L2167.5 317.749 L2147.59 317.749 L2147.59 313.813 Z" fill="#000000" fill-rule="nonzero" fill-opacity="1" /><path clip-path="url(#clip960)" d="M2177.43 311.869 L2182.31 311.869 L2182.31 315.85 L2178.52 323.258 L2175.53 323.258 L2177.43 315.85 L2177.43 311.869 Z" fill="#000000" fill-rule="nonzero" fill-opacity="1" /><path clip-path="url(#clip960)" d="M2206.04 327.61 L2206.04 291.823 L2210.3 291.823 L2210.3 307.934 Q2210.3 311.29 2211.9 313.003 Q2213.49 314.716 2216.62 314.716 Q2220.04 314.716 2221.76 312.772 Q2223.49 310.827 2223.49 306.938 L2223.49 291.823 L2227.75 291.823 L2227.75 311.776 Q2227.75 313.165 2228.15 313.837 Q2228.56 314.485 2229.42 314.485 Q2229.63 314.485 2230 314.369 Q2230.37 314.23 2231.02 313.952 L2231.02 317.378 Q2230.07 317.911 2229.21 318.165 Q2228.38 318.42 2227.57 318.42 Q2225.97 318.42 2225.02 317.517 Q2224.07 316.614 2223.72 314.763 Q2222.57 316.591 2220.88 317.517 Q2219.21 318.42 2216.94 318.42 Q2214.58 318.42 2212.91 317.517 Q2211.27 316.614 2210.3 314.809 L2210.3 327.61 L2206.04 327.61 Z" fill="#000000" fill-rule="nonzero" fill-opacity="1" /><path clip-path="url(#clip960)" d="M2238.05 313.813 L2245.69 313.813 L2245.69 287.448 L2237.38 289.115 L2237.38 284.855 L2245.65 283.189 L2250.32 283.189 L2250.32 313.813 L2257.96 313.813 L2257.96 317.749 L2238.05 317.749 L2238.05 313.813 Z" fill="#000000" fill-rule="nonzero" fill-opacity="1" /><circle clip-path="url(#clip960)" cx="1923.84" cy="352.309" r="20.48" fill="#ffa500" fill-rule="evenodd" fill-opacity="1" stroke="#000000" stroke-opacity="1" stroke-width="4.55111"/>
<path clip-path="url(#clip960)" d="M2038.8 347.783 Q2037.94 347.482 2037.08 347.251 Q2034.79 346.649 2032.34 346.649 Q2028.1 346.649 2025.74 348.941 Q2023.54 351.07 2023.12 354.982 L2038.8 354.982 L2038.8 358.316 L2023.12 358.316 Q2023.54 362.228 2025.74 364.357 Q2028.1 366.649 2032.34 366.649 Q2035.3 366.649 2037.08 366.047 L2038.8 365.468 L2038.8 369.334 L2036.97 369.751 Q2034.56 370.26 2032.08 370.26 Q2025.88 370.26 2022.27 366.649 Q2018.63 363.038 2018.63 356.649 Q2018.63 350.26 2022.27 346.649 Q2025.88 343.038 2032.08 343.038 Q2034.42 343.038 2036.97 343.547 Q2037.89 343.732 2038.8 344.01 L2038.8 347.783 Z" fill="#000000" fill-rule="nonzero" fill-opacity="1" /><path clip-path="url(#clip960)" d="M2051.06 365.653 L2058.7 365.653 L2058.7 339.288 L2050.39 340.955 L2050.39 336.695 L2058.66 335.029 L2063.33 335.029 L2063.33 365.653 L2070.97 365.653 L2070.97 369.589 L2051.06 369.589 L2051.06 365.653 Z" fill="#000000" fill-rule="nonzero" fill-opacity="1" /><path clip-path="url(#clip960)" d="M2080.9 363.709 L2085.79 363.709 L2085.79 367.69 L2081.99 375.098 L2079 375.098 L2080.9 367.69 L2080.9 363.709 Z" fill="#000000" fill-rule="nonzero" fill-opacity="1" /><path clip-path="url(#clip960)" d="M2139.91 365.468 L2139.91 369.589 L2126.02 369.589 L2126.02 365.468 Q2130.11 363.223 2132.41 359.38 Q2134.7 355.538 2134.7 350.862 Q2134.7 345.306 2131.64 341.95 Q2128.59 338.593 2123.59 338.593 Q2118.59 338.593 2115.51 341.973 Q2112.45 345.329 2112.45 350.862 Q2112.45 355.538 2114.74 359.38 Q2117.06 363.223 2121.18 365.468 L2121.18 369.589 L2107.29 369.589 L2107.29 365.468 L2114.67 365.468 Q2111.02 362.251 2109.33 358.802 Q2107.66 355.353 2107.66 351.093 Q2107.66 343.732 2112.11 339.172 Q2116.53 334.612 2123.59 334.612 Q2130.6 334.612 2135.07 339.172 Q2139.51 343.709 2139.51 350.862 Q2139.51 355.353 2137.87 358.778 Q2136.23 362.204 2132.5 365.468 L2139.91 365.468 Z" fill="#000000" fill-rule="nonzero" fill-opacity="1" /><path clip-path="url(#clip960)" d="M2147.59 365.653 L2155.23 365.653 L2155.23 339.288 L2146.92 340.955 L2146.92 336.695 L2155.18 335.029 L2159.86 335.029 L2159.86 365.653 L2167.5 365.653 L2167.5 369.589 L2147.59 369.589 L2147.59 365.653 Z" fill="#000000" fill-rule="nonzero" fill-opacity="1" /><path clip-path="url(#clip960)" d="M2177.43 363.709 L2182.31 363.709 L2182.31 367.69 L2178.52 375.098 L2175.53 375.098 L2177.43 367.69 L2177.43 363.709 Z" fill="#000000" fill-rule="nonzero" fill-opacity="1" /><path clip-path="url(#clip960)" d="M2206.04 379.45 L2206.04 343.663 L2210.3 343.663 L2210.3 359.774 Q2210.3 363.13 2211.9 364.843 Q2213.49 366.556 2216.62 366.556 Q2220.04 366.556 2221.76 364.612 Q2223.49 362.667 2223.49 358.778 L2223.49 343.663 L2227.75 343.663 L2227.75 363.616 Q2227.75 365.005 2228.15 365.677 Q2228.56 366.325 2229.42 366.325 Q2229.63 366.325 2230 366.209 Q2230.37 366.07 2231.02 365.792 L2231.02 369.218 Q2230.07 369.751 2229.21 370.005 Q2228.38 370.26 2227.57 370.26 Q2225.97 370.26 2225.02 369.357 Q2224.07 368.454 2223.72 366.603 Q2222.57 368.431 2220.88 369.357 Q2219.21 370.26 2216.94 370.26 Q2214.58 370.26 2212.91 369.357 Q2211.27 368.454 2210.3 366.649 L2210.3 379.45 L2206.04 379.45 Z" fill="#000000" fill-rule="nonzero" fill-opacity="1" /><path clip-path="url(#clip960)" d="M2241.27 365.653 L2257.59 365.653 L2257.59 369.589 L2235.65 369.589 L2235.65 365.653 Q2238.31 362.899 2242.89 358.269 Q2247.5 353.616 2248.68 352.274 Q2250.92 349.751 2251.8 348.015 Q2252.71 346.255 2252.71 344.566 Q2252.71 341.811 2250.76 340.075 Q2248.84 338.339 2245.74 338.339 Q2243.54 338.339 2241.09 339.103 Q2238.66 339.867 2235.88 341.417 L2235.88 336.695 Q2238.7 335.561 2241.16 334.982 Q2243.61 334.404 2245.65 334.404 Q2251.02 334.404 2254.21 337.089 Q2257.41 339.774 2257.41 344.265 Q2257.41 346.394 2256.6 348.316 Q2255.81 350.214 2253.7 352.806 Q2253.12 353.478 2250.02 356.695 Q2246.92 359.89 2241.27 365.653 Z" fill="#000000" fill-rule="nonzero" fill-opacity="1" /></svg>
