<?xml version="1.0" encoding="UTF-8" standalone="no"?>
<!-- Generator: Adobe Illustrator 16.0.3, SVG Export Plug-In . SVG Version: 6.00 Build 0)  -->

<svg
   version="1.1"
   id="Ebene_1"
   x="0px"
   y="0px"
   width="220"
   height="90"
   viewBox="0 0 220.00001 90"
   enable-background="new 0 0 426.744 110"
   xml:space="preserve"
   sodipodi:docname="gfe_logo.svg"
   inkscape:version="1.3.2 (091e20ef0f, 2023-11-25)"
   xmlns:inkscape="http://www.inkscape.org/namespaces/inkscape"
   xmlns:sodipodi="http://sodipodi.sourceforge.net/DTD/sodipodi-0.dtd"
   xmlns:xlink="http://www.w3.org/1999/xlink"
   xmlns="http://www.w3.org/2000/svg"
   xmlns:svg="http://www.w3.org/2000/svg"><defs
   id="defs13" /><sodipodi:namedview
   id="namedview13"
   pagecolor="#ffffff"
   bordercolor="#cccccc"
   borderopacity="1"
   inkscape:showpageshadow="0"
   inkscape:pageopacity="1"
   inkscape:pagecheckerboard="0"
   inkscape:deskcolor="#d1d1d1"
   inkscape:zoom="1.6942242"
   inkscape:cx="213.07687"
   inkscape:cy="55.187501"
   inkscape:window-width="1920"
   inkscape:window-height="1163"
   inkscape:window-x="0"
   inkscape:window-y="0"
   inkscape:window-maximized="1"
   inkscape:current-layer="Ebene_1" />
<rect
   fill="#ffffff"
   width="218.2876"
   height="110"
   id="rect1"
   x="0"
   y="0"
   style="stroke-width:0.715205" />














<rect
   x="210.0533"
   y="20.055498"
   fill="#00549f"
   width="1.024"
   height="46.405998"
   id="rect10" />
<g
   id="g12"
   transform="translate(-2.7117012,-19.9265)">
	<defs
   id="defs10">
		<rect
   id="SVGID_9_"
   x="10.435"
   y="16.778999"
   width="405.86801"
   height="92.811996" />
	</defs>
	<clipPath
   id="SVGID_10_">
		<use
   xlink:href="#SVGID_9_"
   overflow="visible"
   id="use10" />
	</clipPath>
	<path
   clip-path="url(#SVGID_10_)"
   fill="#00549f"
   d="m 194.496,83.012 v -0.215 c 0,-0.13 0.012,-0.259 0.036,-0.39 0.023,-0.13 0.063,-0.246 0.118,-0.353 0.054,-0.105 0.128,-0.191 0.22,-0.255 0.092,-0.065 0.209,-0.098 0.353,-0.098 0.143,0 0.261,0.028 0.353,0.087 0.092,0.059 0.163,0.144 0.214,0.256 0.052,0.112 0.087,0.249 0.108,0.409 0.02,0.16 0.034,0.346 0.041,0.558 h -1.443 z m 2.793,0.839 v -0.316 c 0,-0.424 -0.027,-0.807 -0.081,-1.151 -0.055,-0.345 -0.157,-0.638 -0.307,-0.88 -0.151,-0.243 -0.356,-0.431 -0.619,-0.563 -0.263,-0.133 -0.599,-0.199 -1.008,-0.199 -0.478,0 -0.86,0.078 -1.146,0.235 -0.287,0.156 -0.507,0.368 -0.66,0.634 -0.154,0.267 -0.256,0.57 -0.307,0.911 -0.051,0.341 -0.077,0.696 -0.077,1.064 0,0.341 0.016,0.688 0.046,1.039 0.031,0.35 0.115,0.668 0.251,0.95 0.136,0.284 0.348,0.515 0.634,0.691 0.287,0.177 0.686,0.266 1.197,0.266 0.676,0 1.17,-0.172 1.484,-0.517 0.314,-0.345 0.484,-0.837 0.512,-1.478 h -1.269 c -0.041,0.347 -0.116,0.605 -0.225,0.776 -0.11,0.171 -0.284,0.256 -0.522,0.256 -0.13,0 -0.238,-0.035 -0.327,-0.106 -0.089,-0.072 -0.161,-0.167 -0.215,-0.287 -0.055,-0.12 -0.095,-0.256 -0.118,-0.409 -0.024,-0.154 -0.036,-0.312 -0.036,-0.476 v -0.44 z m -6.485,2.538 h 1.412 v -5.505 h -1.412 z m 0,-6.18 h 1.412 v -1.207 h -1.412 z m -3.658,2.07 c 0.092,-0.303 0.294,-0.455 0.608,-0.455 0.307,0 0.507,0.152 0.599,0.455 0.092,0.305 0.138,0.757 0.138,1.356 0,0.601 -0.046,1.052 -0.138,1.356 -0.092,0.304 -0.292,0.454 -0.599,0.454 -0.314,0 -0.516,-0.15 -0.608,-0.454 -0.092,-0.305 -0.139,-0.756 -0.139,-1.356 0,-0.599 0.047,-1.051 0.139,-1.356 m -1.55,5.909 h 1.411 v -2.312 h 0.021 c 0.15,0.218 0.319,0.382 0.506,0.491 0.188,0.109 0.415,0.163 0.681,0.163 0.58,0 1.006,-0.227 1.279,-0.681 0.273,-0.453 0.409,-1.191 0.409,-2.215 0,-1.024 -0.136,-1.762 -0.409,-2.215 -0.273,-0.453 -0.699,-0.681 -1.279,-0.681 -0.287,0 -0.527,0.057 -0.721,0.169 -0.195,0.112 -0.371,0.299 -0.527,0.558 h -0.021 v -0.583 h -1.35 z m -3.73,-5.33 c 0.013,-0.238 0.046,-0.442 0.097,-0.613 0.051,-0.172 0.126,-0.305 0.225,-0.399 0.1,-0.096 0.238,-0.144 0.415,-0.144 0.286,0 0.484,0.15 0.593,0.45 0.11,0.3 0.164,0.795 0.164,1.483 0,0.688 -0.054,1.184 -0.164,1.484 -0.109,0.3 -0.307,0.449 -0.593,0.449 -0.177,0 -0.315,-0.048 -0.415,-0.143 -0.099,-0.095 -0.174,-0.229 -0.225,-0.399 -0.051,-0.17 -0.084,-0.376 -0.097,-0.613 -0.013,-0.239 -0.02,-0.499 -0.02,-0.778 0,-0.279 0.007,-0.538 0.02,-0.777 m -1.33,2.046 c 0.068,0.361 0.184,0.665 0.348,0.911 0.163,0.245 0.385,0.428 0.665,0.547 0.279,0.12 0.631,0.177 1.054,0.169 0.402,0 0.741,-0.063 1.018,-0.189 0.276,-0.125 0.499,-0.311 0.67,-0.552 0.171,-0.243 0.294,-0.544 0.368,-0.906 0.075,-0.361 0.113,-0.777 0.113,-1.248 0,-0.479 -0.034,-0.898 -0.102,-1.263 -0.069,-0.366 -0.185,-0.671 -0.348,-0.916 -0.164,-0.246 -0.386,-0.429 -0.665,-0.548 -0.28,-0.119 -0.632,-0.177 -1.054,-0.169 -0.402,0 -0.742,0.063 -1.018,0.189 -0.277,0.126 -0.5,0.31 -0.671,0.552 -0.17,0.243 -0.293,0.545 -0.368,0.906 -0.075,0.361 -0.112,0.777 -0.112,1.248 0,0.485 0.033,0.909 0.102,1.269 m -4.913,-5.821 v 7.306 h 1.412 v -1.607 l 0.501,-0.654 1.177,2.262 h 1.555 l -1.821,-3.336 1.585,-2.169 h -1.555 l -1.422,2.056 h -0.02 v -3.856 h -1.412 z m -4.869,5.505 v 0.193 c 0,0.267 0.031,0.508 0.092,0.722 0.062,0.215 0.169,0.399 0.323,0.553 0.153,0.153 0.36,0.271 0.619,0.354 0.26,0.081 0.59,0.122 0.992,0.122 0.294,0 0.567,-0.035 0.819,-0.107 0.252,-0.071 0.469,-0.179 0.649,-0.322 0.181,-0.143 0.323,-0.324 0.425,-0.542 0.102,-0.218 0.153,-0.471 0.153,-0.757 0,-0.417 -0.092,-0.745 -0.276,-0.988 -0.184,-0.242 -0.497,-0.438 -0.941,-0.588 l -0.849,-0.287 c -0.239,-0.074 -0.4,-0.166 -0.486,-0.275 -0.085,-0.109 -0.128,-0.232 -0.128,-0.368 0,-0.198 0.066,-0.347 0.199,-0.445 0.133,-0.1 0.289,-0.148 0.466,-0.148 0.232,0 0.394,0.066 0.486,0.199 0.092,0.134 0.138,0.344 0.138,0.629 h 1.269 v -0.225 c 0,-0.498 -0.154,-0.883 -0.461,-1.156 -0.307,-0.272 -0.78,-0.409 -1.422,-0.409 -0.361,0 -0.67,0.045 -0.926,0.134 -0.256,0.089 -0.465,0.207 -0.629,0.357 -0.164,0.15 -0.283,0.325 -0.358,0.527 -0.075,0.201 -0.113,0.414 -0.113,0.639 0,0.39 0.099,0.708 0.297,0.957 0.198,0.248 0.491,0.442 0.88,0.578 l 0.992,0.358 c 0.137,0.054 0.256,0.128 0.358,0.22 0.103,0.092 0.154,0.227 0.154,0.404 0,0.218 -0.065,0.382 -0.195,0.49 -0.128,0.11 -0.302,0.164 -0.521,0.164 -0.239,0 -0.421,-0.073 -0.548,-0.22 -0.126,-0.146 -0.189,-0.34 -0.189,-0.578 v -0.184 h -1.269 z m -3.506,-1.73 c 0.014,-0.238 0.046,-0.442 0.097,-0.613 0.051,-0.172 0.127,-0.305 0.225,-0.399 0.099,-0.096 0.237,-0.144 0.414,-0.144 0.287,0 0.485,0.15 0.594,0.45 0.109,0.3 0.164,0.795 0.164,1.483 0,0.688 -0.055,1.184 -0.164,1.484 -0.109,0.3 -0.307,0.449 -0.594,0.449 -0.177,0 -0.315,-0.048 -0.414,-0.143 -0.098,-0.095 -0.174,-0.229 -0.225,-0.399 -0.051,-0.171 -0.083,-0.376 -0.097,-0.613 -0.014,-0.239 -0.021,-0.499 -0.021,-0.778 0,-0.279 0.007,-0.538 0.021,-0.777 m -1.33,2.046 c 0.068,0.361 0.184,0.665 0.348,0.911 0.163,0.245 0.385,0.428 0.665,0.547 0.28,0.12 0.631,0.177 1.053,0.169 0.404,0 0.742,-0.063 1.019,-0.189 0.276,-0.125 0.5,-0.311 0.67,-0.552 0.171,-0.243 0.293,-0.544 0.368,-0.906 0.076,-0.361 0.113,-0.777 0.113,-1.248 0,-0.479 -0.034,-0.898 -0.103,-1.263 -0.067,-0.366 -0.184,-0.671 -0.348,-0.916 -0.163,-0.246 -0.384,-0.429 -0.665,-0.548 -0.279,-0.119 -0.63,-0.177 -1.054,-0.169 -0.402,0 -0.741,0.063 -1.018,0.189 -0.276,0.126 -0.499,0.31 -0.67,0.552 -0.17,0.243 -0.292,0.545 -0.368,0.906 -0.075,0.361 -0.113,0.777 -0.113,1.248 0,0.485 0.035,0.909 0.103,1.269 m -3.464,1.485 h 1.412 v -3.305 c 0,-0.186 0.031,-0.34 0.092,-0.466 0.062,-0.126 0.143,-0.229 0.246,-0.308 0.102,-0.079 0.215,-0.135 0.337,-0.169 0.123,-0.033 0.246,-0.051 0.369,-0.051 0.076,0 0.148,0.002 0.22,0.005 0.071,0.003 0.145,0.008 0.22,0.016 V 80.76 c -0.041,-0.007 -0.083,-0.012 -0.128,-0.015 -0.044,-0.003 -0.087,-0.006 -0.128,-0.006 -0.293,0 -0.542,0.079 -0.747,0.24 -0.205,0.161 -0.379,0.373 -0.522,0.64 h -0.02 v -0.736 h -1.351 z m -5.213,-7.306 v 7.306 h 1.412 v -1.607 l 0.501,-0.654 1.177,2.262 h 1.555 l -1.821,-3.336 1.586,-2.169 h -1.555 l -1.422,2.056 h -0.021 v -3.856 h -1.412 z m -2.467,7.306 h 1.412 v -5.505 h -1.412 z m 0,-6.18 h 1.412 v -1.207 h -1.412 z m -7.832,6.18 h 1.412 v -3.623 c 0,-0.327 0.066,-0.564 0.199,-0.716 0.133,-0.15 0.312,-0.226 0.537,-0.226 0.198,0 0.339,0.063 0.425,0.185 0.085,0.123 0.128,0.3 0.128,0.532 v 3.848 h 1.412 v -3.623 c 0,-0.327 0.066,-0.564 0.199,-0.716 0.133,-0.15 0.312,-0.226 0.538,-0.226 0.197,0 0.338,0.063 0.424,0.185 0.085,0.123 0.128,0.3 0.128,0.532 v 3.848 h 1.412 v -4.001 c 0,-0.532 -0.111,-0.939 -0.332,-1.223 -0.222,-0.283 -0.568,-0.425 -1.039,-0.425 -0.335,0 -0.623,0.073 -0.865,0.221 -0.242,0.146 -0.418,0.366 -0.526,0.659 h -0.021 c -0.076,-0.286 -0.224,-0.505 -0.445,-0.654 -0.222,-0.151 -0.496,-0.226 -0.824,-0.226 -0.307,0 -0.572,0.055 -0.793,0.163 -0.222,0.11 -0.421,0.29 -0.598,0.543 h -0.021 v -0.563 h -1.35 z m -5.176,0 h 1.412 v -3.653 c 0,-0.606 0.249,-0.911 0.747,-0.911 0.211,0 0.365,0.057 0.461,0.17 0.095,0.111 0.143,0.312 0.143,0.599 v 3.796 h 1.412 v -4.083 c 0,-0.552 -0.122,-0.952 -0.363,-1.197 -0.243,-0.246 -0.589,-0.368 -1.039,-0.368 -0.307,0 -0.58,0.063 -0.818,0.189 -0.24,0.126 -0.434,0.325 -0.584,0.598 h -0.02 v -0.644 h -1.351 z m -3.613,-3.377 v -0.215 c 0,-0.13 0.011,-0.259 0.035,-0.39 0.024,-0.13 0.063,-0.246 0.118,-0.353 0.054,-0.105 0.128,-0.191 0.22,-0.255 0.092,-0.065 0.21,-0.098 0.353,-0.098 0.143,0 0.261,0.028 0.353,0.087 0.092,0.059 0.164,0.144 0.215,0.256 0.051,0.112 0.087,0.249 0.107,0.409 0.021,0.16 0.034,0.346 0.041,0.558 h -1.442 z m 2.793,0.839 v -0.316 c 0,-0.424 -0.028,-0.807 -0.082,-1.151 -0.055,-0.345 -0.158,-0.638 -0.307,-0.88 -0.15,-0.243 -0.357,-0.431 -0.619,-0.563 -0.263,-0.133 -0.599,-0.199 -1.008,-0.199 -0.478,0 -0.859,0.078 -1.146,0.235 -0.286,0.156 -0.506,0.368 -0.66,0.634 -0.153,0.267 -0.256,0.57 -0.307,0.911 -0.051,0.341 -0.076,0.696 -0.076,1.064 0,0.341 0.015,0.688 0.046,1.039 0.03,0.35 0.113,0.668 0.25,0.95 0.136,0.284 0.348,0.515 0.635,0.691 0.286,0.177 0.685,0.266 1.197,0.266 0.675,0 1.169,-0.172 1.483,-0.517 0.313,-0.345 0.484,-0.837 0.512,-1.478 h -1.269 c -0.041,0.347 -0.116,0.605 -0.225,0.776 -0.109,0.171 -0.283,0.256 -0.522,0.256 -0.13,0 -0.239,-0.035 -0.327,-0.106 -0.089,-0.072 -0.161,-0.167 -0.215,-0.287 -0.055,-0.12 -0.094,-0.256 -0.118,-0.409 -0.024,-0.154 -0.035,-0.312 -0.035,-0.476 v -0.44 z m -9.206,2.538 h 1.412 v -3.653 c 0,-0.606 0.249,-0.911 0.747,-0.911 0.211,0 0.364,0.057 0.461,0.17 0.095,0.111 0.143,0.312 0.143,0.599 v 3.796 h 1.412 v -4.083 c 0,-0.552 -0.122,-0.952 -0.363,-1.197 -0.243,-0.246 -0.589,-0.368 -1.039,-0.368 -0.307,0 -0.58,0.063 -0.818,0.189 -0.24,0.126 -0.434,0.325 -0.584,0.598 h -0.02 v -0.644 h -1.351 z m -3.729,-3.531 c 0.013,-0.238 0.046,-0.442 0.097,-0.613 0.051,-0.172 0.126,-0.305 0.225,-0.399 0.098,-0.096 0.236,-0.144 0.414,-0.144 0.287,0 0.484,0.15 0.594,0.45 0.108,0.3 0.164,0.795 0.164,1.483 0,0.688 -0.056,1.184 -0.164,1.484 -0.11,0.3 -0.307,0.449 -0.594,0.449 -0.178,0 -0.316,-0.048 -0.414,-0.143 -0.099,-0.095 -0.174,-0.229 -0.225,-0.399 -0.051,-0.171 -0.084,-0.376 -0.097,-0.613 -0.015,-0.239 -0.021,-0.499 -0.021,-0.778 0,-0.279 0.006,-0.538 0.021,-0.777 m -1.33,2.046 c 0.067,0.361 0.184,0.665 0.348,0.911 0.163,0.245 0.384,0.428 0.665,0.547 0.279,0.12 0.63,0.177 1.053,0.169 0.403,0 0.742,-0.063 1.019,-0.189 0.276,-0.125 0.499,-0.311 0.67,-0.552 0.17,-0.243 0.292,-0.544 0.368,-0.906 0.075,-0.361 0.113,-0.777 0.113,-1.248 0,-0.479 -0.035,-0.898 -0.103,-1.263 -0.068,-0.366 -0.184,-0.671 -0.348,-0.916 -0.163,-0.246 -0.385,-0.429 -0.665,-0.548 -0.28,-0.119 -0.631,-0.177 -1.054,-0.169 -0.403,0 -0.741,0.063 -1.018,0.189 -0.276,0.126 -0.5,0.31 -0.67,0.552 -0.171,0.243 -0.293,0.545 -0.368,0.906 -0.076,0.361 -0.113,0.777 -0.113,1.248 0,0.485 0.034,0.909 0.103,1.269 m -3.464,1.485 h 1.412 v -3.305 c 0,-0.186 0.031,-0.34 0.092,-0.466 0.062,-0.126 0.143,-0.229 0.246,-0.308 0.102,-0.079 0.215,-0.135 0.337,-0.169 0.123,-0.033 0.246,-0.051 0.369,-0.051 0.075,0 0.148,0.002 0.22,0.005 0.071,0.003 0.144,0.008 0.22,0.016 V 80.76 c -0.041,-0.007 -0.084,-0.012 -0.128,-0.015 -0.045,-0.003 -0.087,-0.006 -0.128,-0.006 -0.294,0 -0.542,0.079 -0.747,0.24 -0.205,0.161 -0.379,0.373 -0.522,0.64 h -0.02 v -0.736 h -1.351 z m -2.852,-5.505 h -0.717 v 0.962 h 0.717 v 3.151 c 0,0.278 0.016,0.512 0.051,0.695 0.033,0.185 0.097,0.332 0.189,0.445 0.092,0.112 0.223,0.192 0.394,0.24 0.17,0.048 0.395,0.071 0.675,0.071 0.164,0 0.318,-0.007 0.466,-0.021 0.146,-0.013 0.298,-0.027 0.455,-0.04 v -0.983 c -0.048,0.008 -0.099,0.014 -0.153,0.017 -0.056,0.003 -0.11,0.005 -0.164,0.005 -0.205,0 -0.34,-0.046 -0.404,-0.138 -0.066,-0.093 -0.097,-0.248 -0.097,-0.467 v -2.977 h 0.818 v -0.962 h -0.818 v -1.576 h -1.412 z m -5.61,-1.801 v 7.306 h 1.412 v -1.607 l 0.502,-0.654 1.176,2.262 h 1.556 l -1.822,-3.336 1.586,-2.169 h -1.555 l -1.422,2.056 h -0.021 v -3.856 h -1.412 z m -3.64,3.929 v -0.215 c 0,-0.13 0.011,-0.259 0.036,-0.39 0.023,-0.13 0.062,-0.246 0.117,-0.353 0.055,-0.105 0.128,-0.191 0.22,-0.255 0.093,-0.065 0.21,-0.098 0.353,-0.098 0.144,0 0.261,0.028 0.353,0.087 0.093,0.059 0.164,0.144 0.215,0.256 0.051,0.112 0.087,0.249 0.108,0.409 0.02,0.16 0.033,0.346 0.041,0.558 h -1.443 z m 2.793,0.839 v -0.316 c 0,-0.424 -0.027,-0.807 -0.082,-1.151 -0.055,-0.345 -0.157,-0.638 -0.307,-0.88 -0.15,-0.243 -0.357,-0.431 -0.619,-0.563 -0.263,-0.133 -0.598,-0.199 -1.007,-0.199 -0.478,0 -0.86,0.078 -1.146,0.235 -0.287,0.156 -0.507,0.368 -0.66,0.634 -0.154,0.267 -0.256,0.57 -0.307,0.911 -0.051,0.341 -0.077,0.696 -0.077,1.064 0,0.341 0.015,0.688 0.046,1.039 0.031,0.35 0.114,0.668 0.251,0.95 0.136,0.284 0.348,0.515 0.634,0.691 0.287,0.177 0.686,0.266 1.197,0.266 0.675,0 1.17,-0.172 1.484,-0.517 0.313,-0.345 0.484,-0.837 0.511,-1.478 h -1.268 c -0.041,0.347 -0.117,0.605 -0.225,0.776 -0.11,0.171 -0.284,0.256 -0.522,0.256 -0.13,0 -0.24,-0.035 -0.328,-0.106 -0.089,-0.072 -0.16,-0.167 -0.215,-0.287 -0.055,-0.12 -0.094,-0.256 -0.117,-0.409 -0.025,-0.154 -0.036,-0.312 -0.036,-0.476 v -0.44 z m -6.486,2.538 h 1.412 v -7.306 h -1.412 z m -5,-7.306 v 7.306 h 4.185 v -1.208 h -2.712 v -1.964 h 2.456 v -1.208 h -2.456 V 80.29 h 2.61 v -1.207 z"
   id="path10" />
	<path
   clip-path="url(#SVGID_10_)"
   fill="#00549f"
   d="m 195.88,74.786 h 1.412 v -3.305 c 0,-0.184 0.031,-0.339 0.092,-0.465 0.062,-0.126 0.143,-0.229 0.246,-0.308 0.102,-0.078 0.215,-0.135 0.337,-0.169 0.123,-0.033 0.246,-0.051 0.369,-0.051 0.074,0 0.148,0.002 0.22,0.005 0.071,0.003 0.144,0.008 0.22,0.016 v -1.351 c -0.041,-0.007 -0.084,-0.012 -0.128,-0.015 -0.045,-0.004 -0.087,-0.006 -0.128,-0.006 -0.294,0 -0.542,0.08 -0.747,0.241 -0.205,0.159 -0.379,0.372 -0.522,0.639 h -0.02 v -0.736 h -1.351 z m -4.543,-6.292 h 1.146 v -1.207 h -1.146 z m 1.76,0 h 1.146 v -1.207 h -1.146 z m 0.43,6.292 h 1.35 v -5.504 h -1.412 v 3.652 c 0,0.606 -0.249,0.911 -0.747,0.911 -0.211,0 -0.365,-0.057 -0.46,-0.169 -0.096,-0.112 -0.143,-0.313 -0.143,-0.599 v -3.796 h -1.412 v 4.082 c 0,0.553 0.12,0.952 0.363,1.197 0.241,0.246 0.588,0.369 1.038,0.369 0.307,0 0.58,-0.064 0.819,-0.19 0.238,-0.126 0.433,-0.325 0.583,-0.598 h 0.021 z m -5.659,0 h 1.411 v -4.543 h 0.819 v -0.961 h -0.819 v -0.48 c 0,-0.157 0.041,-0.27 0.123,-0.338 0.082,-0.068 0.221,-0.103 0.42,-0.103 h 0.133 c 0.061,0 0.108,0.003 0.143,0.01 v -1.003 c -0.26,-0.02 -0.512,-0.029 -0.757,-0.029 -0.225,0 -0.43,0.021 -0.614,0.065 -0.184,0.044 -0.34,0.118 -0.466,0.22 -0.126,0.103 -0.224,0.238 -0.291,0.409 -0.069,0.171 -0.102,0.379 -0.102,0.625 v 0.624 h -0.717 v 0.961 h 0.717 z m -6.17,0 h 1.412 v -3.305 c 0,-0.184 0.03,-0.339 0.092,-0.465 0.061,-0.126 0.143,-0.229 0.245,-0.308 0.103,-0.078 0.215,-0.135 0.338,-0.169 0.123,-0.033 0.246,-0.051 0.368,-0.051 0.075,0 0.149,0.002 0.22,0.005 0.072,0.003 0.145,0.008 0.22,0.016 v -1.351 c -0.041,-0.007 -0.084,-0.012 -0.128,-0.015 -0.045,-0.004 -0.087,-0.006 -0.127,-0.006 -0.294,0 -0.543,0.08 -0.747,0.241 -0.205,0.159 -0.379,0.372 -0.522,0.639 h -0.021 v -0.736 h -1.35 z m -3.73,-3.529 c 0.014,-0.238 0.046,-0.443 0.097,-0.614 0.052,-0.17 0.126,-0.303 0.226,-0.399 0.098,-0.095 0.236,-0.143 0.414,-0.143 0.286,0 0.484,0.15 0.593,0.45 0.109,0.3 0.164,0.795 0.164,1.483 0,0.689 -0.055,1.185 -0.164,1.484 -0.109,0.299 -0.307,0.45 -0.593,0.45 -0.178,0 -0.316,-0.049 -0.414,-0.144 -0.1,-0.096 -0.174,-0.229 -0.226,-0.398 -0.051,-0.171 -0.083,-0.376 -0.097,-0.614 -0.014,-0.239 -0.02,-0.499 -0.02,-0.778 0,-0.278 0.007,-0.539 0.02,-0.777 m -1.33,2.047 c 0.068,0.36 0.184,0.665 0.348,0.91 0.164,0.245 0.385,0.428 0.665,0.548 0.279,0.12 0.63,0.176 1.054,0.169 0.402,0 0.742,-0.064 1.018,-0.19 0.276,-0.126 0.499,-0.31 0.67,-0.552 0.17,-0.243 0.293,-0.545 0.368,-0.906 0.075,-0.36 0.113,-0.776 0.113,-1.248 0,-0.478 -0.035,-0.897 -0.102,-1.264 -0.069,-0.365 -0.184,-0.67 -0.348,-0.915 -0.164,-0.246 -0.386,-0.428 -0.665,-0.548 -0.281,-0.119 -0.632,-0.176 -1.054,-0.169 -0.403,0 -0.742,0.063 -1.018,0.189 -0.276,0.126 -0.5,0.311 -0.67,0.553 -0.171,0.242 -0.294,0.545 -0.369,0.905 -0.075,0.361 -0.112,0.777 -0.112,1.248 0.001,0.485 0.034,0.908 0.102,1.27 m -3.567,-2.625 c 0.092,-0.305 0.295,-0.455 0.609,-0.455 0.307,0 0.507,0.15 0.599,0.455 0.092,0.304 0.138,0.755 0.138,1.355 0,0.602 -0.046,1.052 -0.138,1.356 -0.092,0.304 -0.292,0.455 -0.599,0.455 -0.314,0 -0.517,-0.151 -0.609,-0.455 -0.092,-0.305 -0.138,-0.755 -0.138,-1.356 0.001,-0.6 0.046,-1.052 0.138,-1.355 m -1.55,4.107 h 1.351 v -0.583 h 0.02 c 0.157,0.259 0.333,0.445 0.527,0.559 0.195,0.111 0.435,0.169 0.721,0.169 0.58,0 1.006,-0.229 1.279,-0.682 0.273,-0.452 0.41,-1.191 0.41,-2.215 0,-1.022 -0.137,-1.762 -0.41,-2.215 -0.273,-0.453 -0.699,-0.681 -1.279,-0.681 -0.266,0 -0.493,0.055 -0.68,0.164 -0.188,0.109 -0.357,0.272 -0.506,0.49 h -0.021 V 67.48 h -1.412 z m -2.379,-1.667 c 0,0.156 -0.027,0.288 -0.082,0.395 -0.054,0.104 -0.124,0.191 -0.209,0.26 -0.085,0.069 -0.179,0.118 -0.282,0.149 -0.102,0.029 -0.201,0.046 -0.296,0.046 -0.192,0 -0.328,-0.075 -0.41,-0.226 -0.082,-0.151 -0.123,-0.331 -0.123,-0.543 0,-0.245 0.062,-0.439 0.185,-0.583 0.122,-0.143 0.327,-0.245 0.614,-0.307 0.089,-0.021 0.187,-0.053 0.296,-0.097 0.11,-0.045 0.212,-0.104 0.307,-0.18 z m -1.309,-2.148 v -0.154 c 0,-0.218 0.054,-0.391 0.163,-0.521 0.11,-0.13 0.273,-0.194 0.491,-0.194 0.239,0 0.408,0.06 0.507,0.179 0.099,0.12 0.148,0.285 0.148,0.497 0,0.184 -0.041,0.324 -0.123,0.419 -0.081,0.095 -0.228,0.171 -0.44,0.225 l -0.798,0.216 c -0.245,0.068 -0.455,0.146 -0.629,0.234 -0.174,0.088 -0.317,0.2 -0.43,0.333 -0.112,0.133 -0.196,0.293 -0.25,0.481 -0.055,0.187 -0.082,0.411 -0.082,0.67 0,0.184 0.023,0.37 0.071,0.558 0.049,0.188 0.123,0.356 0.226,0.506 0.102,0.15 0.238,0.273 0.409,0.368 0.171,0.097 0.378,0.145 0.624,0.145 0.341,0 0.619,-0.048 0.834,-0.145 0.215,-0.095 0.404,-0.286 0.568,-0.572 h 0.02 c 0.021,0.096 0.043,0.192 0.067,0.292 0.023,0.099 0.059,0.191 0.107,0.28 h 1.351 c -0.069,-0.163 -0.115,-0.316 -0.138,-0.46 -0.024,-0.143 -0.036,-0.345 -0.036,-0.604 v -2.896 c 0,-0.246 -0.026,-0.473 -0.077,-0.681 -0.051,-0.207 -0.148,-0.387 -0.292,-0.537 -0.143,-0.15 -0.345,-0.266 -0.608,-0.348 -0.263,-0.082 -0.602,-0.123 -1.018,-0.123 -0.266,0 -0.517,0.028 -0.752,0.087 -0.236,0.059 -0.44,0.154 -0.614,0.287 -0.174,0.133 -0.312,0.309 -0.415,0.526 -0.102,0.219 -0.153,0.484 -0.153,0.798 v 0.134 z m -3.701,3.815 h 1.412 V 67.48 h -1.412 z m -4.878,-1.8 v 0.194 c 0,0.266 0.031,0.506 0.092,0.721 0.062,0.215 0.169,0.399 0.323,0.553 0.153,0.153 0.36,0.271 0.619,0.354 0.26,0.082 0.59,0.123 0.992,0.123 0.294,0 0.567,-0.036 0.819,-0.108 0.252,-0.071 0.469,-0.179 0.649,-0.322 0.181,-0.143 0.323,-0.323 0.425,-0.542 0.102,-0.218 0.153,-0.471 0.153,-0.758 0,-0.416 -0.092,-0.744 -0.276,-0.986 -0.184,-0.242 -0.497,-0.438 -0.941,-0.589 L 161.26,71.34 c -0.239,-0.074 -0.4,-0.167 -0.486,-0.276 -0.085,-0.109 -0.128,-0.232 -0.128,-0.368 0,-0.198 0.066,-0.346 0.199,-0.445 0.133,-0.1 0.289,-0.148 0.466,-0.148 0.232,0 0.394,0.066 0.486,0.2 0.092,0.133 0.138,0.342 0.138,0.629 h 1.269 v -0.226 c 0,-0.498 -0.154,-0.883 -0.461,-1.155 -0.307,-0.274 -0.78,-0.41 -1.422,-0.41 -0.361,0 -0.67,0.044 -0.926,0.133 -0.256,0.089 -0.466,0.208 -0.629,0.359 -0.164,0.149 -0.283,0.324 -0.358,0.525 -0.075,0.202 -0.113,0.415 -0.113,0.641 0,0.389 0.099,0.708 0.297,0.956 0.198,0.248 0.491,0.442 0.88,0.578 l 0.992,0.358 c 0.137,0.054 0.256,0.128 0.358,0.22 0.103,0.092 0.154,0.228 0.154,0.404 0,0.218 -0.065,0.382 -0.195,0.491 -0.128,0.109 -0.302,0.164 -0.521,0.164 -0.239,0 -0.421,-0.074 -0.548,-0.221 -0.126,-0.146 -0.189,-0.34 -0.189,-0.578 v -0.184 h -1.269 z m -2.697,-3.704 h -0.716 v 0.961 h 0.716 v 3.152 c 0,0.279 0.017,0.511 0.051,0.696 0.035,0.184 0.097,0.332 0.19,0.444 0.092,0.112 0.224,0.192 0.393,0.24 0.171,0.048 0.396,0.072 0.676,0.072 0.163,0 0.319,-0.007 0.465,-0.021 0.148,-0.013 0.299,-0.026 0.456,-0.041 v -0.981 c -0.047,0.007 -0.099,0.012 -0.154,0.015 -0.054,0.004 -0.108,0.006 -0.164,0.006 -0.204,0 -0.338,-0.046 -0.404,-0.139 -0.064,-0.092 -0.097,-0.247 -0.097,-0.465 v -2.979 h 0.819 v -0.961 h -0.819 v -1.576 h -1.412 z m -3.341,5.504 h 1.413 v -4.543 h 0.819 v -0.961 h -0.819 v -0.48 c 0,-0.157 0.041,-0.27 0.122,-0.338 0.082,-0.068 0.222,-0.103 0.421,-0.103 h 0.133 c 0.061,0 0.108,0.003 0.143,0.01 v -1.003 c -0.26,-0.02 -0.512,-0.029 -0.757,-0.029 -0.226,0 -0.43,0.021 -0.615,0.065 -0.183,0.044 -0.339,0.118 -0.465,0.22 -0.127,0.103 -0.224,0.238 -0.291,0.409 -0.069,0.171 -0.104,0.379 -0.104,0.625 v 0.624 h -0.715 v 0.961 h 0.715 z m -2.713,-1.667 c 0,0.156 -0.028,0.288 -0.082,0.395 -0.055,0.104 -0.125,0.191 -0.21,0.26 -0.086,0.069 -0.179,0.118 -0.281,0.149 -0.102,0.029 -0.202,0.046 -0.297,0.046 -0.191,0 -0.327,-0.075 -0.409,-0.226 -0.082,-0.151 -0.123,-0.331 -0.123,-0.543 0,-0.245 0.062,-0.439 0.184,-0.583 0.123,-0.143 0.328,-0.245 0.614,-0.307 0.088,-0.021 0.187,-0.053 0.297,-0.097 0.108,-0.045 0.211,-0.104 0.307,-0.18 z m -1.31,-2.148 v -0.154 c 0,-0.218 0.054,-0.391 0.164,-0.521 0.108,-0.13 0.272,-0.194 0.491,-0.194 0.238,0 0.407,0.06 0.507,0.179 0.098,0.12 0.148,0.285 0.148,0.497 0,0.184 -0.041,0.324 -0.123,0.419 -0.082,0.095 -0.229,0.171 -0.44,0.225 l -0.798,0.216 c -0.245,0.068 -0.455,0.146 -0.629,0.234 -0.174,0.089 -0.317,0.2 -0.43,0.333 -0.112,0.133 -0.196,0.293 -0.251,0.481 -0.055,0.187 -0.081,0.411 -0.081,0.67 0,0.184 0.023,0.37 0.071,0.558 0.047,0.188 0.123,0.356 0.225,0.506 0.103,0.15 0.239,0.273 0.41,0.368 0.169,0.097 0.378,0.145 0.624,0.145 0.34,0 0.619,-0.048 0.834,-0.145 0.214,-0.095 0.404,-0.286 0.567,-0.572 h 0.021 c 0.02,0.096 0.042,0.192 0.066,0.292 0.024,0.099 0.06,0.191 0.108,0.28 h 1.35 c -0.068,-0.163 -0.114,-0.316 -0.138,-0.46 -0.024,-0.143 -0.035,-0.345 -0.035,-0.604 v -2.896 c 0,-0.246 -0.026,-0.473 -0.077,-0.681 -0.051,-0.207 -0.149,-0.387 -0.292,-0.537 -0.143,-0.15 -0.347,-0.266 -0.609,-0.348 -0.263,-0.082 -0.602,-0.123 -1.018,-0.123 -0.266,0 -0.516,0.028 -0.752,0.087 -0.235,0.059 -0.44,0.154 -0.614,0.287 -0.174,0.133 -0.312,0.309 -0.414,0.526 -0.102,0.219 -0.154,0.484 -0.154,0.798 v 0.134 z m -6.413,3.815 h 1.412 v -3.651 c 0,-0.607 0.249,-0.911 0.747,-0.911 0.211,0 0.364,0.056 0.46,0.169 0.095,0.112 0.144,0.312 0.144,0.598 v 3.796 h 1.412 v -4.082 c 0,-0.553 -0.122,-0.952 -0.364,-1.196 -0.242,-0.246 -0.588,-0.369 -1.038,-0.369 -0.621,0 -1.068,0.235 -1.341,0.706 h -0.02 v -2.363 h -1.412 z m -0.808,-3.518 c 0,-0.655 -0.166,-1.174 -0.497,-1.557 -0.331,-0.381 -0.823,-0.572 -1.478,-0.572 -0.328,0 -0.628,0.044 -0.901,0.133 -0.273,0.089 -0.508,0.244 -0.706,0.466 -0.198,0.222 -0.351,0.52 -0.46,0.89 -0.109,0.372 -0.164,0.842 -0.164,1.407 0,0.553 0.044,1.016 0.133,1.386 0.088,0.372 0.22,0.67 0.394,0.892 0.174,0.222 0.392,0.38 0.655,0.475 0.262,0.097 0.571,0.145 0.926,0.145 0.75,0 1.287,-0.195 1.612,-0.584 0.323,-0.389 0.486,-0.944 0.486,-1.667 h -1.351 c 0,0.45 -0.055,0.776 -0.164,0.981 -0.109,0.205 -0.283,0.308 -0.522,0.308 -0.157,0 -0.285,-0.036 -0.383,-0.108 -0.099,-0.071 -0.176,-0.186 -0.23,-0.342 -0.056,-0.157 -0.093,-0.356 -0.113,-0.6 -0.02,-0.241 -0.031,-0.533 -0.031,-0.875 0,-0.313 0.011,-0.59 0.031,-0.828 0.02,-0.238 0.057,-0.435 0.113,-0.589 0.054,-0.152 0.134,-0.269 0.24,-0.348 0.105,-0.079 0.247,-0.117 0.425,-0.117 0.129,0 0.236,0.032 0.322,0.098 0.085,0.063 0.149,0.149 0.194,0.256 0.044,0.104 0.075,0.225 0.092,0.357 0.017,0.134 0.026,0.265 0.026,0.395 h 1.351 z m -8.872,1.718 v 0.194 c 0,0.266 0.03,0.506 0.092,0.721 0.061,0.215 0.168,0.399 0.322,0.553 0.153,0.153 0.359,0.271 0.619,0.354 0.259,0.082 0.589,0.123 0.992,0.123 0.293,0 0.566,-0.036 0.819,-0.108 0.252,-0.071 0.469,-0.179 0.65,-0.322 0.18,-0.143 0.322,-0.323 0.424,-0.542 0.103,-0.218 0.154,-0.471 0.154,-0.758 0,-0.416 -0.092,-0.744 -0.276,-0.986 -0.185,-0.242 -0.499,-0.438 -0.942,-0.589 l -0.849,-0.286 c -0.239,-0.074 -0.401,-0.167 -0.486,-0.276 -0.086,-0.109 -0.128,-0.232 -0.128,-0.368 0,-0.198 0.067,-0.346 0.2,-0.445 0.133,-0.099 0.287,-0.148 0.465,-0.148 0.231,0 0.394,0.066 0.486,0.2 0.092,0.133 0.138,0.342 0.138,0.629 h 1.269 v -0.226 c 0,-0.498 -0.153,-0.883 -0.46,-1.155 -0.307,-0.274 -0.782,-0.41 -1.423,-0.41 -0.362,0 -0.67,0.044 -0.926,0.133 -0.255,0.089 -0.465,0.208 -0.629,0.359 -0.164,0.149 -0.283,0.324 -0.358,0.525 -0.076,0.202 -0.112,0.415 -0.112,0.641 0,0.389 0.098,0.708 0.296,0.956 0.198,0.248 0.491,0.442 0.88,0.578 l 0.993,0.358 c 0.136,0.054 0.255,0.128 0.358,0.22 0.102,0.092 0.153,0.228 0.153,0.404 0,0.218 -0.065,0.382 -0.194,0.491 -0.13,0.109 -0.304,0.164 -0.522,0.164 -0.239,0 -0.422,-0.074 -0.547,-0.221 -0.127,-0.146 -0.19,-0.34 -0.19,-0.578 V 72.987 H 133.1 Z m -4.959,1.8 h 1.412 v -3.651 c 0,-0.607 0.249,-0.911 0.747,-0.911 0.211,0 0.364,0.056 0.461,0.169 0.095,0.112 0.143,0.312 0.143,0.598 v 3.796 h 1.412 v -4.082 c 0,-0.553 -0.122,-0.952 -0.363,-1.196 -0.243,-0.246 -0.589,-0.369 -1.039,-0.369 -0.307,0 -0.58,0.063 -0.818,0.189 -0.24,0.126 -0.434,0.325 -0.584,0.599 h -0.02 v -0.645 h -1.351 z m -2.441,0 h 1.412 V 69.281 H 125.7 Z m 0,-6.18 h 1.412 V 67.399 H 125.7 Z m -3.647,2.804 v -0.215 c 0,-0.13 0.012,-0.259 0.036,-0.389 0.024,-0.13 0.063,-0.247 0.118,-0.354 0.054,-0.104 0.128,-0.19 0.22,-0.256 0.092,-0.063 0.21,-0.097 0.353,-0.097 0.143,0 0.261,0.029 0.353,0.087 0.092,0.058 0.163,0.143 0.215,0.256 0.051,0.113 0.087,0.249 0.107,0.409 0.021,0.161 0.034,0.346 0.041,0.558 h -1.443 z m 2.794,0.839 v -0.316 c 0,-0.423 -0.028,-0.808 -0.082,-1.151 -0.055,-0.345 -0.158,-0.638 -0.307,-0.88 -0.151,-0.243 -0.357,-0.43 -0.619,-0.563 -0.263,-0.134 -0.599,-0.2 -1.008,-0.2 -0.478,0 -0.86,0.079 -1.146,0.235 -0.287,0.156 -0.506,0.368 -0.66,0.635 -0.153,0.266 -0.256,0.569 -0.307,0.91 -0.051,0.341 -0.077,0.696 -0.077,1.064 0,0.341 0.016,0.687 0.046,1.038 0.031,0.351 0.114,0.669 0.251,0.952 0.136,0.283 0.348,0.514 0.634,0.69 0.287,0.178 0.686,0.267 1.198,0.267 0.675,0 1.169,-0.172 1.483,-0.518 0.313,-0.345 0.484,-0.837 0.512,-1.479 h -1.269 c -0.041,0.348 -0.117,0.606 -0.225,0.777 -0.11,0.172 -0.284,0.257 -0.522,0.257 -0.13,0 -0.239,-0.036 -0.327,-0.108 -0.089,-0.071 -0.161,-0.166 -0.215,-0.286 -0.055,-0.12 -0.094,-0.256 -0.118,-0.409 -0.024,-0.153 -0.036,-0.312 -0.036,-0.476 v -0.44 h 2.794 z m -11.841,2.537 h 1.412 v -3.622 c 0,-0.327 0.067,-0.565 0.2,-0.716 0.133,-0.149 0.312,-0.225 0.537,-0.225 0.197,0 0.34,0.061 0.425,0.184 0.085,0.123 0.128,0.3 0.128,0.532 v 3.847 h 1.412 v -3.622 c 0,-0.327 0.066,-0.565 0.199,-0.716 0.133,-0.149 0.312,-0.225 0.537,-0.225 0.198,0 0.34,0.061 0.425,0.184 0.085,0.123 0.128,0.3 0.128,0.532 v 3.847 h 1.412 v -4 c 0,-0.531 -0.111,-0.939 -0.333,-1.223 -0.222,-0.283 -0.568,-0.425 -1.038,-0.425 -0.335,0 -0.622,0.073 -0.865,0.22 -0.242,0.147 -0.417,0.367 -0.527,0.66 h -0.02 c -0.075,-0.286 -0.223,-0.504 -0.445,-0.654 -0.222,-0.15 -0.497,-0.226 -0.824,-0.226 -0.307,0 -0.571,0.055 -0.793,0.164 -0.222,0.109 -0.422,0.29 -0.599,0.542 h -0.02 v -0.563 h -1.351 z m -3.613,-3.376 v -0.215 c 0,-0.13 0.013,-0.259 0.036,-0.389 0.024,-0.13 0.064,-0.247 0.118,-0.354 0.054,-0.104 0.128,-0.19 0.22,-0.256 0.092,-0.063 0.21,-0.097 0.353,-0.097 0.143,0 0.261,0.029 0.353,0.087 0.092,0.058 0.164,0.143 0.215,0.256 0.051,0.113 0.087,0.249 0.107,0.409 0.021,0.161 0.034,0.346 0.041,0.558 h -1.443 z m 2.794,0.839 v -0.316 c 0,-0.423 -0.028,-0.808 -0.082,-1.151 -0.054,-0.345 -0.157,-0.638 -0.307,-0.88 -0.15,-0.243 -0.356,-0.43 -0.619,-0.563 -0.263,-0.134 -0.599,-0.2 -1.008,-0.2 -0.478,0 -0.859,0.079 -1.146,0.235 -0.286,0.156 -0.506,0.368 -0.66,0.635 -0.153,0.266 -0.256,0.569 -0.307,0.91 -0.051,0.341 -0.077,0.696 -0.077,1.064 0,0.341 0.016,0.687 0.047,1.038 0.03,0.351 0.114,0.669 0.25,0.952 0.136,0.283 0.348,0.514 0.635,0.69 0.286,0.178 0.685,0.267 1.197,0.267 0.675,0 1.169,-0.172 1.483,-0.518 0.314,-0.345 0.484,-0.837 0.512,-1.479 h -1.269 c -0.041,0.348 -0.115,0.606 -0.225,0.777 -0.109,0.172 -0.283,0.257 -0.522,0.257 -0.13,0 -0.238,-0.036 -0.327,-0.108 -0.089,-0.071 -0.161,-0.166 -0.215,-0.286 -0.054,-0.12 -0.094,-0.256 -0.118,-0.409 -0.023,-0.153 -0.036,-0.312 -0.036,-0.476 v -0.44 h 2.794 z m -5.109,-2.599 c 0,-0.744 -0.177,-1.315 -0.532,-1.714 -0.355,-0.399 -0.934,-0.598 -1.739,-0.598 -0.471,0 -0.863,0.077 -1.177,0.234 -0.314,0.156 -0.566,0.392 -0.757,0.701 -0.192,0.31 -0.326,0.698 -0.404,1.161 -0.079,0.464 -0.118,1.003 -0.118,1.617 0,0.634 0.028,1.191 0.082,1.673 0.054,0.48 0.161,0.885 0.322,1.212 0.161,0.328 0.382,0.575 0.665,0.742 0.284,0.167 0.65,0.251 1.1,0.251 0.348,0 0.647,-0.065 0.895,-0.195 0.249,-0.13 0.463,-0.337 0.64,-0.624 h 0.02 v 0.675 h 1.085 v -3.938 h -2.384 v 1.085 h 0.972 v 0.747 c 0,0.196 -0.031,0.37 -0.092,0.516 -0.062,0.147 -0.138,0.269 -0.23,0.364 -0.093,0.095 -0.192,0.166 -0.297,0.214 -0.106,0.049 -0.203,0.072 -0.292,0.072 -0.212,0 -0.383,-0.066 -0.516,-0.199 -0.133,-0.133 -0.236,-0.325 -0.307,-0.573 -0.072,-0.249 -0.121,-0.55 -0.149,-0.9 -0.027,-0.352 -0.041,-0.749 -0.041,-1.192 0,-0.914 0.079,-1.568 0.236,-1.964 0.156,-0.396 0.412,-0.594 0.767,-0.594 0.15,0 0.278,0.038 0.384,0.117 0.105,0.079 0.192,0.178 0.261,0.297 0.068,0.119 0.117,0.253 0.148,0.399 0.031,0.146 0.046,0.284 0.046,0.414 z"
   id="path11" />
	<path
   clip-path="url(#SVGID_10_)"
   fill="#00549f"
   d="m 38.984,73.379 c -0.001,0 -0.002,-0.001 -0.003,-0.001 -0.006,0 -0.011,0.003 -0.017,0.003 v 3.1 c 0.005,0 0.011,0.003 0.016,0.003 v 0.002 h 7.595 c -0.089,1.081 -0.378,2.071 -0.838,2.972 -0.46,0.899 -0.99,1.677 -1.765,2.329 -0.775,0.653 -1.695,1.165 -2.762,1.536 -1.067,0.372 -2.039,0.558 -3.341,0.558 -1.258,0 -2.454,-0.175 -3.588,-0.522 -1.134,-0.35 -2.128,-0.9 -2.98,-1.654 -0.853,-0.754 -1.532,-1.729 -2.037,-2.922 -0.507,-1.194 -0.758,-2.646 -0.758,-4.355 0,-1.282 0.179,-2.51 0.538,-3.681 0.36,-1.17 0.915,-2.194 1.667,-3.072 0.753,-0.878 1.706,-1.581 2.863,-2.109 1.156,-0.529 2.532,-0.794 4.126,-0.794 2.313,0 4.11,0.428 5.389,1.282 1.276,0.853 2.195,2.12 2.756,3.801 h 3.775 c -0.382,-1.637 -0.991,-2.988 -1.832,-4.054 -0.842,-1.068 -1.819,-1.907 -2.931,-2.516 -1.11,-0.608 -2.301,-1.029 -3.569,-1.265 -1.27,-0.237 -2.521,-0.355 -3.756,-0.355 -1.549,0 -3.082,0.242 -4.597,0.726 -1.515,0.484 -2.863,1.255 -4.042,2.313 -1.179,1.058 -2.134,2.415 -2.864,4.07 -0.73,1.652 -1.094,3.639 -1.094,5.959 0,1.328 0.206,2.712 0.624,4.151 0.414,1.441 1.116,2.765 2.103,3.97 0.989,1.204 2.297,2.193 3.925,2.971 1.627,0.777 3.644,1.164 6.045,1.164 1.28,0 2.658,-0.125 3.623,-0.371 0.965,-0.248 1.917,-0.569 2.658,-0.962 0.741,-0.396 1.523,-0.828 2.05,-1.3 0.528,-0.474 1.091,-0.96 1.452,-1.418 1.537,-1.953 2.613,-4.505 2.613,-9.557 H 38.984 Z"
   id="path12" />
</g>
<polygon
   fill="#00549f"
   points="71.77,72.544 71.77,75.641 57.43,75.641 57.43,86.379 53.861,86.379 53.861,62.345 72.477,62.345 72.477,65.442 57.43,65.442 57.43,72.544 "
   id="polygon12"
   transform="translate(-2.7117012,-19.9265)" />
<polygon
   fill="#00549f"
   points="79.009,75.506 79.009,83.282 95.099,83.282 95.099,86.379 75.441,86.379 75.441,62.345 94.763,62.345 94.763,65.442 79.009,65.442 79.009,72.41 94.292,72.41 94.292,75.506 "
   id="polygon13"
   transform="translate(-2.7117012,-19.9265)" />
</svg>
