<?xml version="1.0" encoding="UTF-8" standalone="no"?>
<!-- Created with Inkscape (http://www.inkscape.org/) -->

<svg
   version="1.1"
   id="svg1"
   width="471.76001"
   height="120.94667"
   viewBox="0 0 471.76001 120.94667"
   sodipodi:docname="rwth_acom_en_cmyk.svg"
   inkscape:version="1.3.2 (091e20ef0f, 2023-11-25)"
   xmlns:inkscape="http://www.inkscape.org/namespaces/inkscape"
   xmlns:sodipodi="http://sodipodi.sourceforge.net/DTD/sodipodi-0.dtd"
   xmlns="http://www.w3.org/2000/svg"
   xmlns:svg="http://www.w3.org/2000/svg">
  <defs
     id="defs1" />
  <sodipodi:namedview
     id="namedview1"
     pagecolor="#ffffff"
     bordercolor="#cccccc"
     borderopacity="1"
     inkscape:showpageshadow="0"
     inkscape:pageopacity="1"
     inkscape:pagecheckerboard="0"
     inkscape:deskcolor="#d1d1d1"
     inkscape:zoom="1.5325589"
     inkscape:cx="235.88"
     inkscape:cy="60.356571"
     inkscape:window-width="1920"
     inkscape:window-height="1163"
     inkscape:window-x="0"
     inkscape:window-y="0"
     inkscape:window-maximized="1"
     inkscape:current-layer="group-R5">
    <inkscape:page
       x="0"
       y="0"
       inkscape:label="1"
       id="page1"
       width="471.76001"
       height="120.94667"
       margin="0"
       bleed="0" />
  </sodipodi:namedview>
  <g
     id="g1"
     inkscape:groupmode="layer"
     inkscape:label="1">
    <g
       id="group-R5">
      <path
         id="path2"
         d="m 2833.46,412.031 h 20.51 c 19.61,0 30.18,-9.961 30.18,-29.875 0,-23.23 -11.78,-32.285 -32.6,-32.285 h -18.09 z M 2790,228.563 h 43.46 v 91.132 h 23.23 c 17.5,0 25.05,-10.261 25.65,-27.156 l 1.2,-41.348 c 0.31,-8.437 1.22,-16.582 5.43,-22.628 h 47.07 v 1.808 c -8.14,4.238 -9.34,15.996 -9.64,38.621 -0.61,45.571 -5.13,61.875 -34.7,65.793 v 0.598 c 24.43,5.137 35.91,24.441 35.91,53.113 0,36.817 -21.73,55.527 -57.35,55.527 H 2790 v -215.46"
         style="fill:#8ebfe9;fill-opacity:1;fill-rule:nonzero;stroke:none"
         transform="matrix(0.13333333,0,0,-0.13333333,0,120.94667)" />
      <path
         id="path3"
         d="M 2149.38,444.02 V 293.75 c 0,-57.637 33.48,-69.414 68.79,-69.414 35.31,0 68.8,14.48 68.8,69.414 v 150.27 h -43.44 V 293.75 c 0,-21.426 -5.14,-37.422 -25.36,-37.422 -20.22,0 -25.35,15.996 -25.35,37.422 v 150.27 h -43.44"
         style="fill:#8ebfe9;fill-opacity:1;fill-rule:nonzero;stroke:none"
         transform="matrix(0.13333333,0,0,-0.13333333,0,120.94667)" />
      <path
         id="path4"
         d="M 2297.61,444.02 V 228.574 h 39.83 v 150.867 h 0.6 l 53.11,-150.867 h 49.49 V 444.02 h -39.83 V 296.465 h -0.6 l -52.5,147.555 h -50.1"
         style="fill:#8ebfe9;fill-opacity:1;fill-rule:nonzero;stroke:none"
         transform="matrix(0.13333333,0,0,-0.13333333,0,120.94667)" />
      <path
         id="path5"
         d="m 2495.26,444.02 h -43.45 V 228.574 h 43.45 V 444.02"
         style="fill:#8ebfe9;fill-opacity:1;fill-rule:nonzero;stroke:none"
         transform="matrix(0.13333333,0,0,-0.13333333,0,120.94667)" />
      <path
         id="path6"
         d="m 2498.24,444.02 49.48,-215.446 h 55.83 l 49.49,215.446 h -44.96 l -31.99,-159.332 h -0.89 l -30.48,159.332 h -46.48"
         style="fill:#8ebfe9;fill-opacity:1;fill-rule:nonzero;stroke:none"
         transform="matrix(0.13333333,0,0,-0.13333333,0,120.94667)" />
      <path
         id="path7"
         d="M 2656.91,444.02 V 228.574 h 123.42 v 35.598 h -79.97 v 57.937 h 72.43 v 35.618 h -72.43 v 50.679 h 76.95 v 35.614 h -120.4"
         style="fill:#8ebfe9;fill-opacity:1;fill-rule:nonzero;stroke:none"
         transform="matrix(0.13333333,0,0,-0.13333333,0,120.94667)" />
      <path
         id="path8"
         d="m 2931.21,295.859 v -8.75 c 0,-39.843 19.31,-62.773 68.5,-62.773 47.07,0 74.83,20.519 74.83,66.094 0,26.25 -8.45,42.84 -41.04,57.031 l -33.49,14.473 c -18.41,7.851 -22.33,15.996 -22.33,29.277 0,12.668 5.13,25.051 24.74,25.051 16.59,0 23.54,-11.77 23.54,-31.992 h 41.64 v 6.043 c 0,41.335 -28.07,57.925 -66.69,57.925 -41.04,0 -66.68,-21.422 -66.68,-63.355 0,-35.918 17.8,-51.914 56.41,-65.188 28.68,-9.961 38.64,-17.195 38.64,-36.812 0,-18.11 -12.68,-26.555 -25.95,-26.555 -22.94,0 -28.67,12.969 -28.67,33.192 v 6.339 h -43.45"
         style="fill:#8ebfe9;fill-opacity:1;fill-rule:nonzero;stroke:none"
         transform="matrix(0.13333333,0,0,-0.13333333,0,120.94667)" />
      <path
         id="path9"
         d="m 3123.67,444.02 h -43.45 V 228.574 h 43.45 V 444.02"
         style="fill:#8ebfe9;fill-opacity:1;fill-rule:nonzero;stroke:none"
         transform="matrix(0.13333333,0,0,-0.13333333,0,120.94667)" />
      <path
         id="path10"
         d="m 3349.37,444.02 -30.18,-83.278 h -0.61 l -28.36,83.278 h -160.85 v -35.614 h 47.07 V 228.574 h 43.45 v 179.832 h 36.65 l 40.62,-95.047 v -84.785 h 43.46 v 84.785 l 55.83,130.661 h -47.08"
         style="fill:#8ebfe9;fill-opacity:1;fill-rule:nonzero;stroke:none"
         transform="matrix(0.13333333,0,0,-0.13333333,0,120.94667)" />
      <path
         id="path11"
         d="m 1767.66,463.617 h -72 v 216.406 h 118.07 c 32.02,0.012 59.63,-20.714 68.64,-48.199 8.34,-25.457 1.2,-53.117 -17.61,-72.808 2.5,-6.782 4.94,-12.09 7.26,-18.18 5.23,-12.051 10.01,-24.098 15.24,-36.004 l 17.12,-41.215 h -0.43 -72.57 c 0,-0.043 -0.58,1.738 -1.17,2.465 -2.9,6.383 -5.51,13.215 -8.41,19.594 l -17.56,41.66 c -6.97,16.84 -13.94,32.754 -20.9,49.578 8.69,0.242 15.19,-1.387 23.57,2.473 5.91,2.898 14.85,10.109 15.08,23.937 -0.23,6.852 -2.13,12.043 -6.66,17.442 -4.55,5.019 -11.13,8.742 -19.7,8.859 0,0 -27.98,0.008 -27.97,0 V 463.617"
         style="fill:#176fc1;fill-opacity:1;fill-rule:nonzero;stroke:none"
         transform="matrix(0.13333333,0,0,-0.13333333,0,120.94667)" />
      <path
         id="path12"
         d="m 2519.72,680.027 v -216.41 h -72.01 v 88.242 h -6.71 -43.1 -0.6 v -88.242 c -13.05,0 -27.13,0.145 -40.19,0 h -31.81 v 166.332 h -50.36 v -5.222 -15.668 -71.27 -74.172 h -0.57 -71.42 v 89.703 3.477 73.152 h -50.79 V 551.43 463.617 h -74.17 c -12.92,31.203 -26.56,62.699 -39.19,93.762 -1.46,6.531 -2.9,13.07 -4.8,19.453 V 463.617 h -74.31 c -14.74,34.254 -28.88,67.824 -43.58,102.582 -5.08,12.039 -9.25,21.836 -14.52,34.36 l -0.71,1.636 -11.45,26.852 -16.37,38.351 c -1.45,4.348 -3.76,8.282 -5.23,12.629 h 74.15 c 15.25,-37.007 30.63,-73.586 46.59,-110.015 l 0.44,-0.871 c -0.57,4.211 -1.89,9.582 -2.61,13.636 v 64.59 c 0.13,10.313 0,22.071 0,32.66 h 74.3 c 0.95,-2.355 1.47,-3.632 2.19,-5.519 8.7,-20.461 16.98,-40.778 25.69,-61.102 l 19.46,-44.265 c -0.44,4.648 -1.47,9.14 -2.04,13.636 v 97.25 h 5.94 50.53 182.87 51.96 v -13.5 -64.589 h 3.5 46.91 v 78.089 h 37.55 34.46"
         style="fill:#176fc1;fill-opacity:1;fill-rule:nonzero;stroke:none"
         transform="matrix(0.13333333,0,0,-0.13333333,0,120.94667)" />
      <path
         id="path13"
         d="m 2776.77,680.051 h -53.97 l -45.15,-170.594 -45.17,170.594 h -53.95 l -57.3,-216.434 h 45.47 l 10,45.774 h 57.62 l 9.99,-45.774 h 66.68 l 10,45.774 h 57.59 l 10,-45.774 h 45.47 z M 2584.3,545.16 l 20.91,97.301 h 0.59 l 20.92,-97.301 z m 144.26,0 20.92,97.301 h 0.6 l 20.93,-97.301 h -42.45"
         style="fill:#8ebfe9;fill-opacity:1;fill-rule:nonzero;stroke:none"
         transform="matrix(0.13333333,0,0,-0.13333333,0,120.94667)" />
      <path
         id="path14"
         d="m 2964.04,606.199 c 0,31.379 -4.51,76.949 -66.69,76.949 -65.16,0 -73.33,-46.468 -73.33,-111.949 0,-65.48 8.17,-111.953 73.33,-111.953 57.03,0 68.51,40.133 68.51,86.606 h -43.45 c 0,-46.473 -11.47,-54.622 -27.17,-54.622 -18.71,0 -27.75,11.766 -27.75,76.95 0,60.953 5.13,82.98 27.16,82.98 19.61,0 25.95,-13.582 25.95,-44.961 h 43.44"
         style="fill:#8ebfe9;fill-opacity:1;fill-rule:nonzero;stroke:none"
         transform="matrix(0.13333333,0,0,-0.13333333,0,120.94667)" />
      <path
         id="path15"
         d="m 2974.44,463.617 h 43.65 v 96.078 H 3069 v -96.078 h 43.66 V 680.023 H 3069 v -82.75 h -50.91 v 82.75 h -43.65 V 463.617"
         style="fill:#8ebfe9;fill-opacity:1;fill-rule:nonzero;stroke:none"
         transform="matrix(0.13333333,0,0,-0.13333333,0,120.94667)" />
      <path
         id="path16"
         d="M 3122.11,680.066 V 463.617 h 124 v 35.77 h -80.34 v 58.211 h 72.77 v 35.769 h -72.77 v 50.93 h 77.31 v 35.769 h -120.97"
         style="fill:#8ebfe9;fill-opacity:1;fill-rule:nonzero;stroke:none"
         transform="matrix(0.13333333,0,0,-0.13333333,0,120.94667)" />
      <path
         id="path17"
         d="M 3252.59,680.023 V 463.617 h 40.01 v 151.547 h 0.6 l 53.35,-151.547 h 49.71 v 216.406 h -40.01 V 531.816 h -0.61 l -52.74,148.207 h -50.31"
         style="fill:#8ebfe9;fill-opacity:1;fill-rule:nonzero;stroke:none"
         transform="matrix(0.13333333,0,0,-0.13333333,0,120.94667)" />
      <path
         id="path18"
         d="m 1548.93,226.77 h 10 v 453.55 h -10 V 226.77"
         style="fill:#176fc1;fill-opacity:1;fill-rule:nonzero;stroke:none"
         transform="matrix(0.13333333,0,0,-0.13333333,0,120.94667)" />
      <path
         id="path19"
         d="m 745.648,158.23 v 276.782 c -4.218,-1.516 -8.769,-1.504 -13.007,-0.078 v -110.09 l -48.121,48.125 c -1.899,-4.043 -5.129,-7.254 -9.129,-9.246 l 48.148,-48.149 H 613.281 c 0.68,-1.988 1.27,-4.031 1.27,-6.25 0,-2.398 -0.59,-4.629 -1.371,-6.746 h 110.371 l -56.559,-56.562 -54.644,54.636 c -1.977,-4.011 -5.2,-7.234 -9.239,-9.16 l 54.68,-54.676 -56.551,-56.55 v 110.523 c -2.066,-0.723 -4.218,-1.316 -6.535,-1.316 -2.293,0 -4.414,0.593 -6.461,1.308 v -110.32 l -48.043,48.023 c -2.019,-3.972 -5.219,-7.207 -9.281,-9.082 l 48.164,-48.164 H 468.848 c 1.449,-4.226 1.461,-8.789 -0.039,-13.008 z m -78.656,69.387 56.367,-56.379 H 610.621 Z m 65.649,-47.258 -56.45,56.457 56.45,56.446 z m -120.102,137.356 45.781,45.781 c -4.05,1.895 -7.269,5.125 -9.261,9.133 l -45.668,-45.676 c 3.996,-1.98 7.23,-5.195 9.148,-9.238 m 2.211,115.793 c -1.582,-1.582 -3.32,-2.871 -5.141,-4.004 l 39.45,-39.445 c 1.992,3.984 5.199,7.214 9.242,9.129 l -39.524,39.511 c -1.136,-1.836 -2.437,-3.601 -4.027,-5.191 m 43.543,110.137 -45.742,45.75 c -1.91,-4.047 -5.141,-7.262 -9.145,-9.25 l 45.641,-45.637 c 1.992,4 5.199,7.226 9.246,9.137 m 0.066,-35.711 c -4.058,1.89 -7.269,5.132 -9.265,9.121 l -39.485,-39.481 c 1.821,-1.121 3.559,-2.41 5.141,-3.992 1.598,-1.594 2.902,-3.367 4.039,-5.219 z m -36.168,-60.961 h 98.207 c -1.476,4.222 -1.476,8.773 -0.027,13.004 H 622.23 c 1,-4.293 0.977,-8.723 -0.039,-13.004 m 102.743,20.601 c 1.675,1.668 3.644,2.813 5.668,3.758 l -46.082,46.094 c -1.907,-4.051 -5.141,-7.262 -9.137,-9.25 l 45.98,-45.981 c 0.938,1.91 1.989,3.789 3.571,5.379 m -40.403,-77.867 46.059,46.055 c -2.02,0.945 -3.988,2.082 -5.656,3.75 -1.594,1.593 -2.645,3.48 -3.586,5.406 l -45.95,-45.965 c 3.993,-1.98 7.235,-5.191 9.133,-9.246 m -96.289,36.316 v -98.164 c 2.047,0.715 4.168,1.301 6.461,1.301 2.317,0 4.469,-0.586 6.535,-1.316 v 98.211 c -4.281,-1.016 -8.718,-1.028 -12.996,-0.032 m 0,55.032 c 4.278,1.011 8.715,1 12.996,-0.02 v 98.207 c -2.066,-0.726 -4.218,-1.316 -6.535,-1.316 -2.293,0 -4.414,0.59 -6.461,1.297 z m 157.406,-8.969 V 748.855 H 468.809 c 1.488,-4.222 1.488,-8.773 0.039,-13 h 110.293 l -47.918,-47.929 c 4.015,-1.942 7.238,-5.16 9.187,-9.192 l 47.832,47.829 V 616.305 c 2.047,0.711 4.168,1.3 6.461,1.3 2.317,0 4.469,-0.578 6.535,-1.32 v 110.27 l 56.512,-56.512 -54.531,-54.531 c 4.031,-1.938 7.25,-5.157 9.203,-9.188 l 54.516,54.531 56.48,-56.48 H 613.207 c 0.754,-2.09 1.344,-4.258 1.344,-6.609 0,-2.274 -0.59,-4.364 -1.289,-6.387 H 723.406 L 675.43,543.395 c 4,-2 7.23,-5.211 9.129,-9.258 l 48.082,48.082 V 472.152 c 4.238,1.43 8.789,1.442 13.007,-0.066 m -22.089,263.769 -56.621,-56.613 -56.606,56.613 z m 9.082,-122.308 -56.504,56.496 56.504,56.5 z m -218.582,74.328 -46.008,46.012 c -0.949,-2.024 -2.09,-3.992 -3.758,-5.664 -1.594,-1.586 -3.473,-2.637 -5.383,-3.578 l 45.992,-45.989 c 1.93,4.032 5.149,7.246 9.157,9.219 M 456.84,492.605 v 77.649 c -4.289,-1 -8.719,-1 -13,0 v -77.649 c 4.301,0.711 8.687,0.711 13,0 m 0,132.668 v 98.415 c -4.219,-1.481 -8.777,-1.481 -13,-0.032 v -98.383 c 4.281,1.012 8.711,1.012 13,0 m -60.942,53.383 45.872,45.879 c -1.969,0.949 -3.911,2.051 -5.547,3.688 -1.621,1.621 -2.703,3.539 -3.645,5.492 l -45.848,-45.84 c 4.012,-1.973 7.239,-5.187 9.168,-9.219 m 35.801,70.199 H 155.027 V 472.113 c 4.219,1.469 8.774,1.469 13.004,0.012 v 110.16 l 48.008,-48.023 c 1.93,4.043 5.16,7.254 9.172,9.222 l -47.902,47.895 h 110.113 c -0.703,2.023 -1.293,4.113 -1.293,6.387 0,2.351 0.59,4.519 1.332,6.609 H 177.156 l 56.543,56.539 54.571,-54.57 c 1.949,4.023 5.171,7.242 9.203,9.183 l -54.582,54.578 56.539,56.551 V 616.285 c 2.07,0.742 4.222,1.32 6.543,1.32 2.289,0 4.41,-0.589 6.461,-1.3 v 110.371 l 47.949,-47.949 c 1.937,4.027 5.168,7.242 9.187,9.187 l -47.937,47.941 H 431.66 c -1.449,4.227 -1.449,8.778 0.039,13 m -263.668,-22.269 56.481,-56.481 -56.481,-56.484 z m 122.227,9.269 -56.559,-56.558 -56.558,56.558 z M 288.18,589.316 242.387,543.523 c 4.023,-1.945 7.242,-5.168 9.183,-9.187 l 45.77,45.758 c -4.012,1.972 -7.242,5.187 -9.16,9.222 m -45.891,-81.304 39.621,-39.61 c 1.133,1.832 2.43,3.594 4.02,5.18 1.582,1.594 3.34,2.883 5.16,4.012 l -39.582,39.59 c -1.969,-4.008 -5.18,-7.239 -9.219,-9.172 m 9.27,-118.117 39.578,39.57 c -1.836,1.14 -3.61,2.437 -5.207,4.043 -1.578,1.57 -2.867,3.316 -4,5.137 l -39.563,-39.563 c 4.024,-1.941 7.242,-5.168 9.192,-9.187 m 45.703,-62.961 -45.774,45.761 c -1.968,-4.004 -5.179,-7.226 -9.218,-9.148 l 45.851,-45.859 c 1.906,4.05 5.141,7.253 9.141,9.246 m -18.809,133.043 h -98.312 c 1.453,-4.231 1.461,-8.782 -0.028,-13.004 h 98.379 c -1.019,4.281 -1.043,8.711 -0.039,13.004 M 175.582,439.512 c -1.652,-1.653 -3.59,-2.754 -5.582,-3.699 l 46.031,-46.028 c 1.918,4.043 5.153,7.246 9.16,9.219 l -45.98,45.98 c -0.941,-1.949 -2.02,-3.863 -3.629,-5.472 m 40.527,77.734 -46.031,-46.019 c 1.961,-0.954 3.883,-2.032 5.504,-3.653 1.641,-1.64 2.738,-3.57 3.676,-5.547 l 46.039,46.039 c -4.02,1.938 -7.234,5.157 -9.188,9.18 m 96.325,-36.183 v 98.16 c -2.051,-0.707 -4.172,-1.297 -6.461,-1.297 -2.321,0 -4.473,0.59 -6.543,1.316 v -98.207 c 4.281,1.02 8.718,1.031 13.004,0.028 m 0,-55.04 c -4.286,-0.996 -8.723,-0.984 -13.004,0.032 v -98.211 c 2.07,0.73 4.222,1.316 6.543,1.316 2.289,0 4.41,-0.586 6.461,-1.301 z m -157.407,8.95 V 158.23 h 276.672 c -1.488,4.219 -1.488,8.782 -0.039,13.008 H 321.672 l 48.176,48.188 c -4.055,1.883 -7.27,5.117 -9.278,9.097 l -48.136,-48.132 v 110.39 c -2.051,-0.715 -4.172,-1.308 -6.461,-1.308 -2.321,0 -4.473,0.593 -6.543,1.316 V 180.332 l -56.5,56.516 54.648,54.644 c -4.047,1.914 -7.258,5.141 -9.238,9.145 l -54.602,-54.602 -56.535,56.543 h 110.285 c -0.769,2.117 -1.359,4.348 -1.359,6.746 0,2.219 0.59,4.262 1.258,6.25 H 177.242 l 48.035,48.039 c -4.015,1.953 -7.234,5.176 -9.187,9.192 l -48.059,-48.071 v 110.227 c -4.23,-1.453 -8.785,-1.465 -13.004,0.012 m 22.301,-263.735 56.41,56.407 56.403,-56.407 z m -9.297,122.121 56.508,-56.511 -56.508,-56.528 z m 218.352,-73.933 46.137,-46.133 c 0.953,1.98 2.058,3.934 3.703,5.574 1.621,1.621 3.527,2.696 5.476,3.645 l -46.031,46.023 c -2.016,-3.992 -5.219,-7.226 -9.285,-9.109 m 15.84,176.695 25.164,25.188 c -1.766,1.257 -3.516,2.578 -5.106,4.179 -1.562,1.543 -2.851,3.274 -4.093,5 l -25.125,-25.129 c 1.796,-1.121 3.531,-2.402 5.097,-3.972 1.61,-1.614 2.918,-3.399 4.063,-5.266 m 20.058,85.484 c 1.559,1.559 3.282,2.848 5.008,4.098 l -25.16,25.16 c -1.117,-1.808 -2.399,-3.531 -3.969,-5.097 -1.613,-1.61 -3.398,-2.918 -5.262,-4.063 l 25.211,-25.199 c 1.262,1.773 2.579,3.512 4.172,5.101 m -35.633,170.852 39.7,-39.691 c 1.113,1.781 2.39,3.488 3.941,5.039 1.629,1.629 3.434,2.941 5.301,4.09 l -39.75,39.75 c -1.949,-4.016 -5.172,-7.243 -9.192,-9.188 m 39.602,-69.504 -33.148,-33.148 c 1.785,-1.117 3.5,-2.399 5.058,-3.95 1.621,-1.621 2.93,-3.417 4.07,-5.289 l 33.18,33.168 c -1.812,1.129 -3.539,2.411 -5.121,3.993 -1.598,1.597 -2.902,3.378 -4.039,5.226 m -3.391,21.422 H 324.48 c 0.75,-2.09 1.333,-4.258 1.333,-6.609 0,-2.274 -0.594,-4.364 -1.282,-6.387 h 98.266 c -0.984,4.285 -0.957,8.715 0.062,12.996 m -62.429,57.203 -46.012,-46.012 c 4.043,-1.933 7.254,-5.16 9.219,-9.171 l 46.011,46.011 c -4.027,1.93 -7.246,5.157 -9.218,9.172 m 8.871,-406.683 -45.711,45.71 c -1.988,-4.003 -5.199,-7.226 -9.25,-9.128 l 45.859,-45.864 c 1.879,4.067 5.121,7.27 9.102,9.282 m -44.852,47.683 h 98.461 c -1.051,4.27 -1.117,8.711 -0.152,12.996 h -98.207 c 0.668,-1.988 1.262,-4.031 1.262,-6.25 0,-2.398 -0.583,-4.629 -1.364,-6.746 m 105.84,26.785 c 1.563,1.567 3.281,2.844 5.082,3.957 l -33.18,33.184 c -1.14,-1.836 -2.441,-3.613 -4.031,-5.203 -1.578,-1.582 -3.332,-2.871 -5.14,-3.996 l 33.21,-33.211 c 1.137,1.863 2.454,3.648 4.059,5.269 m -34.258,-83.758 39.578,39.583 c -1.879,1.152 -3.691,2.457 -5.32,4.089 -1.551,1.543 -2.816,3.262 -3.941,5.039 L 386.93,254.895 c 3.976,-2.024 7.218,-5.227 9.101,-9.29 m -32.672,256.079 c -1.871,1.152 -3.668,2.461 -5.289,4.082 -1.562,1.558 -2.84,3.265 -3.961,5.058 l -33.242,-33.242 c 1.824,-1.129 3.571,-2.418 5.153,-4 1.601,-1.594 2.89,-3.355 4.031,-5.207 z m -48.808,78.371 39.457,-39.457 c 1.152,1.859 2.453,3.644 4.062,5.257 1.571,1.563 3.301,2.852 5.098,3.969 l -39.438,39.438 c -1.937,-4.028 -5.16,-7.246 -9.179,-9.207 M 358.07,401.387 c 1.598,1.601 3.36,2.898 5.2,4.023 l -33.243,33.25 c -1.136,-1.824 -2.429,-3.57 -4.007,-5.152 -1.59,-1.594 -3.348,-2.895 -5.192,-4.028 l 33.242,-33.242 c 1.129,1.828 2.418,3.567 4,5.149 m 5.258,-44.153 c -1.859,1.145 -3.648,2.454 -5.258,4.067 -1.57,1.558 -2.851,3.301 -3.968,5.094 l -39.446,-39.442 c 4.004,-1.98 7.235,-5.195 9.153,-9.238 z m 47.949,89.739 c -0.714,4.3 -0.714,8.691 -0.007,13.004 H 333.5 c 1.004,-4.293 0.98,-8.723 -0.039,-13.004 z M 443.84,414.48 v -77.656 c 4.281,1.008 8.711,1.008 13,0 v 77.656 c -4.313,-0.71 -8.699,-0.71 -13,0 m 0,-132.664 v -98.378 c 4.223,1.433 8.781,1.445 13,-0.04 v 98.418 c -4.289,-1.015 -8.719,-1.015 -13,0 m 33.93,20.762 h 98.453 c -0.774,2.117 -1.364,4.348 -1.364,6.746 0,2.219 0.59,4.262 1.258,6.25 h -98.195 c 0.969,-4.285 0.894,-8.726 -0.152,-12.996 m 62.761,-56.863 45.778,45.769 c -4.039,1.914 -7.262,5.149 -9.239,9.153 l -45.679,-45.688 c 4.007,-1.969 7.238,-5.191 9.14,-9.234 m -9.379,406.691 45.926,-45.929 c 1.992,3.996 5.203,7.23 9.25,9.136 l -45.969,45.965 c -1.961,-4.015 -5.179,-7.242 -9.207,-9.172 m 45.039,-48.031 h -98.382 c 1.031,-4.281 1.062,-8.711 0.074,-12.996 h 98.269 c -0.703,2.023 -1.293,4.113 -1.293,6.387 0,2.351 0.59,4.519 1.332,6.609 m -71.25,57.281 -39.8,-39.801 c 1.863,-1.14 3.636,-2.441 5.242,-4.05 1.566,-1.571 2.859,-3.297 3.988,-5.11 l 39.762,39.77 c -4.02,1.949 -7.242,5.172 -9.192,9.191 m -2.3,-115.801 c 1.547,1.551 3.257,2.833 5.039,3.942 l -33.223,33.23 c -1.144,-1.882 -2.453,-3.679 -4.074,-5.3 -1.555,-1.559 -3.266,-2.832 -5.039,-3.954 l 33.215,-33.214 c 1.144,1.867 2.453,3.664 4.082,5.296 m -4.012,-34.933 -25.231,-25.231 c 1.735,-1.25 3.442,-2.527 5,-4.086 1.59,-1.589 2.911,-3.339 4.18,-5.121 l 25.254,25.25 c -1.84,1.141 -3.605,2.442 -5.191,4.032 -1.59,1.578 -2.879,3.332 -4.012,5.156 m -20.231,-85.434 c -1.585,-1.593 -3.332,-2.91 -5.097,-4.172 l 25.238,-25.253 c 1.152,1.886 2.473,3.695 4.102,5.324 1.547,1.551 3.25,2.832 5.031,3.933 L 482.5,430.508 c -1.25,-1.738 -2.539,-3.469 -4.102,-5.02 m -8.015,-96.125 c 1.629,-1.629 2.937,-3.425 4.086,-5.32 l 33.269,33.27 c -1.797,1.132 -3.527,2.421 -5.097,3.988 -1.61,1.597 -2.911,3.394 -4.063,5.242 l -33.234,-33.242 c 1.785,-1.106 3.484,-2.383 5.039,-3.938 m 43.445,-74.5 -39.488,39.485 c -1.121,-1.789 -2.402,-3.508 -3.957,-5.071 -1.613,-1.613 -3.414,-2.922 -5.27,-4.062 l 39.629,-39.641 c 1.867,4.067 5.106,7.27 9.086,9.289 m -24.437,192.11 h 77.832 c -1.024,4.281 -1.039,8.711 -0.043,13.004 h -77.77 c 0.703,-4.313 0.703,-8.704 -0.019,-13.004 m 96.64,-120.008 -39.359,39.375 c -1.121,-1.789 -2.402,-3.496 -3.953,-5.039 -1.621,-1.633 -3.426,-2.942 -5.317,-4.094 l 39.477,-39.48 c 1.922,4.05 5.152,7.253 9.152,9.238 m -9.082,262.277 -39.39,-39.379 c 1.832,-1.136 3.578,-2.425 5.16,-4.008 1.601,-1.601 2.902,-3.359 4.027,-5.203 l 39.391,39.391 c -4.02,1.953 -7.246,5.184 -9.188,9.199 m -2.293,-155.734 c -1.574,1.57 -2.855,3.308 -3.988,5.125 L 537.48,405.449 c 1.852,-1.14 3.637,-2.453 5.239,-4.062 1.582,-1.574 2.863,-3.301 3.98,-5.098 l 33.18,33.164 c -1.836,1.145 -3.617,2.442 -5.223,4.055 m -37.222,68.176 33.226,-33.239 c 1.133,1.821 2.422,3.563 3.996,5.137 1.606,1.606 3.364,2.902 5.211,4.035 l -33.195,33.199 c -1.109,-1.793 -2.391,-3.503 -3.953,-5.05 -1.621,-1.621 -3.418,-2.93 -5.285,-4.082 M 505.059,228.633 458.891,182.449 c 1.91,-0.933 3.8,-1.98 5.402,-3.582 1.66,-1.66 2.797,-3.633 3.75,-5.652 l 46.27,46.277 c -4.043,1.903 -7.262,5.137 -9.254,9.141"
         style="fill:#b3cac9;fill-opacity:1;fill-rule:nonzero;stroke:none"
         transform="matrix(0.13333333,0,0,-0.13333333,0,120.94667)" />
      <path
         id="path20"
         d="m 752.992,467.574 c -7.75,7.746 -20.312,7.746 -28.058,0 -7.75,-7.75 -7.75,-20.312 0,-28.062 7.746,-7.742 20.308,-7.742 28.058,0 7.75,7.75 7.75,20.312 0,28.062 m -66.469,-86.226 c 0,10.957 -8.882,19.836 -19.839,19.836 -10.961,0 -19.844,-8.879 -19.844,-19.836 0,-10.965 8.883,-19.844 19.844,-19.844 10.957,0 19.839,8.879 19.839,19.844 m 0,144.453 c 0,10.961 -8.882,19.851 -19.839,19.851 -10.961,0 -19.844,-8.89 -19.844,-19.851 0,-10.946 8.883,-19.84 19.844,-19.84 10.957,0 19.839,8.894 19.839,19.84 m -71.98,-216.477 c 0,10.957 -8.879,19.836 -19.84,19.836 -10.957,0 -19.84,-8.879 -19.84,-19.836 0,-10.965 8.883,-19.851 19.84,-19.851 10.961,0 19.84,8.886 19.84,19.851 m 0,288.442 c 0,10.957 -8.879,19.836 -19.84,19.836 -10.957,0 -19.84,-8.879 -19.84,-19.836 0,-10.965 8.883,-19.84 19.84,-19.84 10.961,0 19.84,8.875 19.84,19.84 m -72.02,-360.422 c 0,10.957 -8.89,19.844 -19.843,19.844 -10.957,0 -19.848,-8.887 -19.848,-19.844 0,-10.957 8.891,-19.844 19.848,-19.844 10.953,0 19.843,8.887 19.843,19.844 m 0,432.851 c 0,10.957 -8.89,19.84 -19.843,19.84 -10.957,0 -19.848,-8.883 -19.848,-19.84 0,-10.961 8.891,-19.843 19.848,-19.843 10.953,0 19.843,8.882 19.843,19.843 M 464.281,150.801 c 7.75,7.754 7.75,20.312 0,28.066 -7.75,7.742 -20.304,7.742 -28.058,0 -7.75,-7.754 -7.75,-20.312 0,-28.066 7.754,-7.742 20.308,-7.742 28.058,0 m 0,577.422 c 7.75,7.75 7.75,20.312 0,28.062 -7.75,7.746 -20.304,7.746 -28.058,0 -7.75,-7.75 -7.75,-20.312 0,-28.062 7.754,-7.75 20.308,-7.75 28.058,0 M 397.953,237.344 c 0,10.957 -8.883,19.844 -19.84,19.844 -10.961,0 -19.843,-8.887 -19.843,-19.844 0,-10.957 8.882,-19.844 19.843,-19.844 10.957,0 19.84,8.887 19.84,19.844 m 0,432.851 c 0,10.957 -8.883,19.84 -19.84,19.84 -10.961,0 -19.843,-8.883 -19.843,-19.84 0,-10.961 8.882,-19.843 19.843,-19.843 10.957,0 19.84,8.882 19.84,19.843 M 325.816,309.324 c 0,10.957 -8.882,19.836 -19.843,19.836 -10.957,0 -19.852,-8.879 -19.852,-19.836 0,-10.965 8.895,-19.851 19.852,-19.851 10.961,0 19.843,8.886 19.843,19.851 m 0,288.442 c 0,10.957 -8.882,19.836 -19.843,19.836 -10.957,0 -19.852,-8.879 -19.852,-19.836 0,-10.965 8.895,-19.84 19.852,-19.84 10.961,0 19.843,8.875 19.843,19.84 M 253.672,381.348 c 0,10.957 -8.887,19.836 -19.84,19.836 -10.961,0 -19.848,-8.879 -19.848,-19.836 0,-10.965 8.887,-19.844 19.848,-19.844 10.953,0 19.84,8.879 19.84,19.844 m 0,144.453 c 0,10.961 -8.887,19.851 -19.84,19.851 -10.961,0 -19.848,-8.89 -19.848,-19.851 0,-10.946 8.887,-19.84 19.848,-19.84 10.953,0 19.84,8.894 19.84,19.84 M 175.57,439.512 c 7.754,7.75 7.754,20.312 0,28.062 -7.75,7.746 -20.304,7.746 -28.054,0 -7.754,-7.75 -7.754,-20.312 0,-28.062 7.75,-7.742 20.304,-7.742 28.054,0"
         style="fill:#719fa0;fill-opacity:1;fill-rule:nonzero;stroke:none"
         transform="matrix(0.13333333,0,0,-0.13333333,0,120.94667)" />
      <path
         id="path21"
         d="m 614.746,473.582 c -11.07,11.07 -29.019,11.07 -40.09,0 -11.07,-11.066 -11.07,-29.008 0,-40.074 11.071,-11.074 29.02,-11.074 40.09,0 11.07,11.066 11.07,29.008 0,40.074 M 542.727,361.301 c 11.066,11.062 11.066,29.012 0,40.086 -11.071,11.062 -29.02,11.062 -40.09,0 -11.071,-11.074 -11.071,-29.024 0,-40.086 11.07,-11.067 29.019,-11.074 40.09,0 m 0,144.461 c 11.066,11.074 11.066,29.023 0,40.093 -11.071,11.071 -29.02,11.071 -40.09,0 -11.071,-11.07 -11.071,-29.019 0,-40.093 11.07,-11.071 29.019,-11.071 40.09,0 M 470.375,289.277 c 11.07,11.067 11.078,29.012 0,40.086 -11.059,11.067 -29.008,11.067 -40.078,0 -11.074,-11.074 -11.074,-29.019 0,-40.086 11.07,-11.074 29.019,-11.074 40.078,0 m 0.012,288.45 c 11.066,11.066 11.066,29.015 0,40.086 -11.071,11.07 -29.02,11.07 -40.09,0 -11.074,-11.071 -11.074,-29.02 0,-40.086 11.07,-11.071 29.019,-11.071 40.09,0 M 398.152,361.301 c 11.071,11.062 11.071,29.012 0,40.086 -11.066,11.062 -29.015,11.062 -40.086,0 -11.07,-11.074 -11.07,-29.016 0.008,-40.086 11.063,-11.067 29.012,-11.074 40.078,0 m 0,144.461 c 11.071,11.074 11.071,29.023 0,40.093 -11.066,11.071 -29.015,11.071 -40.086,0 -11.07,-11.07 -11.07,-29.019 0,-40.093 11.071,-11.071 29.02,-11.071 40.086,0 m -72.136,-72.254 c 11.07,11.066 11.07,29.008 0,40.074 -11.071,11.07 -29.02,11.07 -40.086,0 -11.071,-11.066 -11.071,-29.008 0,-40.074 11.066,-11.074 29.015,-11.074 40.086,0"
         style="fill:#397d80;fill-opacity:1;fill-rule:nonzero;stroke:none"
         transform="matrix(0.13333333,0,0,-0.13333333,0,120.94667)" />
      <path
         id="path22"
         d="m 478.398,425.48 c 15.497,15.5 15.497,40.633 0,56.122 -15.5,15.5 -40.621,15.5 -56.117,0 -15.504,-15.504 -15.504,-40.622 0,-56.122 15.489,-15.5 40.617,-15.5 56.117,0"
         style="fill:#0b6167;fill-opacity:1;fill-rule:nonzero;stroke:none"
         transform="matrix(0.13333333,0,0,-0.13333333,0,120.94667)" />
      <path
         id="path23"
         d="m 834.848,226.77 h 13.203 v 57 h 0.203 l 12.699,-57 h 11.195 l 12.7,57 h 0.203 v -57 h 13.203 v 71.406 h -21.305 l -10.301,-50.403 h -0.199 l -10.199,50.403 h -21.402 z m 86.07,37.3 v 1.504 c 0,2.129 0.531,3.828 1.602,5.102 1.058,1.265 2.66,1.89 4.8,1.89 2.328,0 3.981,-0.574 4.95,-1.746 0.96,-1.172 1.453,-2.773 1.453,-4.843 0,-1.805 -0.403,-3.172 -1.203,-4.102 -0.801,-0.937 -2.243,-1.672 -4.301,-2.207 l -7.797,-2.102 c -2.402,-0.664 -4.449,-1.421 -6.152,-2.293 -1.704,-0.871 -3.098,-1.953 -4.204,-3.253 -1.097,-1.297 -1.918,-2.872 -2.445,-4.696 -0.543,-1.836 -0.801,-4.023 -0.801,-6.554 0,-1.793 0.231,-3.622 0.7,-5.45 0.457,-1.824 1.203,-3.472 2.203,-4.949 0.996,-1.465 2.328,-2.668 4,-3.601 1.66,-0.93 3.699,-1.399 6.097,-1.399 3.328,0 6.047,0.469 8.149,1.399 2.097,0.933 3.949,2.8 5.551,5.601 h 0.203 c 0.199,-0.926 0.41,-1.883 0.648,-2.851 0.231,-0.965 0.578,-1.875 1.051,-2.75 h 13.195 c -0.668,1.597 -1.117,3.101 -1.347,4.5 -0.239,1.406 -0.352,3.371 -0.352,5.898 v 28.301 c 0,2.402 -0.246,4.621 -0.746,6.648 -0.504,2.031 -1.449,3.781 -2.852,5.254 -1.402,1.469 -3.386,2.602 -5.953,3.399 -2.566,0.8 -5.887,1.203 -9.945,1.203 -2.602,0 -5.055,-0.285 -7.356,-0.852 -2.296,-0.562 -4.296,-1.504 -5.996,-2.801 -1.703,-1.3 -3.05,-3.015 -4.05,-5.144 -1,-2.129 -1.5,-4.738 -1.5,-7.805 v -1.301 z m 12.805,-20.996 c 0,-1.531 -0.27,-2.82 -0.801,-3.855 -0.543,-1.028 -1.223,-1.875 -2.055,-2.547 -0.84,-0.664 -1.746,-1.152 -2.746,-1.445 -1.004,-0.305 -1.969,-0.454 -2.902,-0.454 -1.867,0 -3.199,0.723 -3.996,2.2 -0.801,1.465 -1.203,3.23 -1.203,5.3 0,2.395 0.601,4.297 1.8,5.696 1.2,1.406 3.2,2.402 6,3.008 0.864,0.195 1.828,0.515 2.899,0.949 1.062,0.429 2.058,1.012 3.004,1.746 z m 26.507,37.5 h -7 v -9.402 h 7 v -30.801 c 0,-2.726 0.161,-5 0.5,-6.797 0.329,-1.804 0.95,-3.254 1.848,-4.355 0.902,-1.094 2.184,-1.875 3.852,-2.344 1.66,-0.469 3.859,-0.703 6.601,-0.703 1.598,0 3.106,0.066 4.547,0.195 1.43,0.137 2.91,0.274 4.453,0.403 v 9.597 c -0.472,-0.066 -0.972,-0.117 -1.5,-0.144 -0.543,-0.032 -1.074,-0.051 -1.601,-0.051 -2,0 -3.321,0.449 -3.95,1.348 -0.64,0.898 -0.953,2.421 -0.953,4.55 v 29.102 h 8.004 v 9.402 h -8.004 v 15.403 H 960.23 Z m 27.86,-53.804 h 13.8 v 35.703 c 0,5.925 2.43,8.894 7.3,8.894 2.06,0 3.56,-0.547 4.5,-1.64 0.93,-1.106 1.4,-3.055 1.4,-5.86 V 226.77 h 13.8 v 39.902 c 0,5.398 -1.19,9.305 -3.55,11.695 -2.37,2.403 -5.75,3.606 -10.15,3.606 -6.07,0 -10.44,-2.305 -13.1,-6.907 h -0.2 v 23.11 h -13.8 z m 89.95,24.8 v 3.098 c 0,4.133 -0.27,7.883 -0.8,11.25 -0.54,3.379 -1.54,6.23 -3,8.602 -1.47,2.375 -3.49,4.203 -6.05,5.5 -2.57,1.296 -5.85,1.953 -9.85,1.953 -4.67,0 -8.4,-0.774 -11.2,-2.305 -2.8,-1.523 -4.95,-3.594 -6.45,-6.191 -1.5,-2.61 -2.5,-5.579 -3,-8.907 -0.5,-3.332 -0.75,-6.797 -0.75,-10.398 0,-3.332 0.15,-6.723 0.45,-10.149 0.3,-3.425 1.11,-6.535 2.45,-9.296 1.33,-2.774 3.4,-5.032 6.2,-6.758 2.8,-1.731 6.7,-2.598 11.7,-2.598 6.6,0 11.43,1.68 14.5,5.051 3.06,3.367 4.73,8.183 5,14.449 h -12.4 c -0.4,-3.394 -1.14,-5.926 -2.2,-7.598 -1.07,-1.668 -2.77,-2.5 -5.1,-2.5 -1.27,0 -2.34,0.344 -3.2,1.047 -0.87,0.703 -1.57,1.629 -2.1,2.801 -0.54,1.176 -0.92,2.5 -1.15,3.996 -0.24,1.504 -0.35,3.059 -0.35,4.656 v 4.297 z m -27.3,8.203 v 2.102 c 0,1.27 0.11,2.527 0.35,3.801 0.23,1.265 0.61,2.422 1.15,3.445 0.53,1.035 1.25,1.875 2.15,2.5 0.9,0.637 2.05,0.945 3.45,0.945 1.4,0 2.55,-0.269 3.45,-0.847 0.9,-0.567 1.6,-1.399 2.1,-2.5 0.5,-1.094 0.85,-2.422 1.05,-3.992 0.2,-1.575 0.33,-3.379 0.4,-5.454 z m 35.3,-33.003 h 13.8 v 35.398 c 0,3.203 0.65,5.535 1.95,7.004 1.3,1.473 3.05,2.195 5.25,2.195 1.93,0 3.31,-0.597 4.15,-1.797 0.83,-1.203 1.25,-2.929 1.25,-5.195 V 226.77 h 13.8 v 35.398 c 0,3.203 0.65,5.535 1.95,7.004 1.3,1.473 3.05,2.195 5.25,2.195 1.93,0 3.31,-0.597 4.15,-1.797 0.83,-1.203 1.25,-2.929 1.25,-5.195 V 226.77 h 13.8 v 39.097 c 0,5.207 -1.09,9.184 -3.25,11.953 -2.17,2.778 -5.55,4.153 -10.15,4.153 -3.27,0 -6.09,-0.723 -8.45,-2.149 -2.37,-1.433 -4.09,-3.586 -5.15,-6.457 h -0.2 c -0.74,2.805 -2.19,4.934 -4.35,6.406 -2.17,1.465 -4.85,2.2 -8.05,2.2 -3,0 -5.59,-0.528 -7.75,-1.602 -2.17,-1.062 -4.12,-2.832 -5.85,-5.305 h -0.2 v 5.508 h -13.2 z m 88.42,37.3 v 1.504 c 0,2.129 0.53,3.828 1.6,5.102 1.06,1.265 2.66,1.89 4.8,1.89 2.33,0 3.98,-0.574 4.95,-1.746 0.96,-1.172 1.45,-2.773 1.45,-4.843 0,-1.805 -0.4,-3.172 -1.2,-4.102 -0.8,-0.937 -2.24,-1.672 -4.3,-2.207 l -7.8,-2.102 c -2.4,-0.664 -4.45,-1.421 -6.15,-2.293 -1.7,-0.871 -3.1,-1.953 -4.2,-3.253 -1.1,-1.297 -1.92,-2.872 -2.45,-4.696 -0.54,-1.836 -0.8,-4.023 -0.8,-6.554 0,-1.793 0.23,-3.622 0.7,-5.45 0.46,-1.824 1.2,-3.472 2.2,-4.949 1,-1.465 2.33,-2.668 4,-3.601 1.66,-0.93 3.7,-1.399 6.1,-1.399 3.33,0 6.05,0.469 8.15,1.399 2.1,0.933 3.95,2.8 5.55,5.601 h 0.2 c 0.2,-0.926 0.41,-1.883 0.65,-2.851 0.23,-0.965 0.58,-1.875 1.05,-2.75 h 13.2 c -0.67,1.597 -1.12,3.101 -1.35,4.5 -0.24,1.406 -0.35,3.371 -0.35,5.898 v 28.301 c 0,2.402 -0.25,4.621 -0.75,6.648 -0.5,2.031 -1.45,3.781 -2.85,5.254 -1.4,1.469 -3.39,2.602 -5.95,3.399 -2.57,0.8 -5.89,1.203 -9.95,1.203 -2.6,0 -5.05,-0.285 -7.35,-0.852 -2.3,-0.562 -4.3,-1.504 -6,-2.801 -1.7,-1.3 -3.05,-3.015 -4.05,-5.144 -1,-2.129 -1.5,-4.738 -1.5,-7.805 v -1.301 z m 12.8,-20.996 c 0,-1.531 -0.27,-2.82 -0.8,-3.855 -0.54,-1.028 -1.22,-1.875 -2.05,-2.547 -0.84,-0.664 -1.75,-1.152 -2.75,-1.445 -1,-0.305 -1.97,-0.454 -2.9,-0.454 -1.87,0 -3.2,0.723 -4,2.2 -0.8,1.465 -1.2,3.23 -1.2,5.3 0,2.395 0.6,4.297 1.8,5.696 1.2,1.406 3.2,2.402 6,3.008 0.86,0.195 1.83,0.515 2.9,0.949 1.06,0.429 2.06,1.012 3,1.746 z m 26.5,37.5 h -7 v -9.402 h 7 v -30.801 c 0,-2.726 0.17,-5 0.5,-6.797 0.34,-1.804 0.95,-3.254 1.85,-4.355 0.9,-1.094 2.19,-1.875 3.85,-2.344 1.67,-0.469 3.87,-0.703 6.6,-0.703 1.6,0 3.12,0.066 4.55,0.195 1.44,0.137 2.92,0.274 4.45,0.403 v 9.597 c -0.46,-0.066 -0.96,-0.117 -1.5,-0.144 -0.53,-0.032 -1.06,-0.051 -1.6,-0.051 -2,0 -3.31,0.449 -3.95,1.348 -0.63,0.898 -0.95,2.421 -0.95,4.55 v 29.102 h 8 v 9.402 h -8 v 15.403 h -13.8 z m 28.38,6.594 h 13.8 v 11.809 h -13.8 z m 0,-60.398 h 13.8 v 53.804 h -13.8 z m 63.27,34.402 c 0,6.394 -1.61,11.473 -4.85,15.195 -3.23,3.731 -8.05,5.606 -14.45,5.606 -3.2,0 -6.13,-0.43 -8.8,-1.297 -2.66,-0.871 -4.96,-2.387 -6.9,-4.555 -1.93,-2.168 -3.43,-5.066 -4.5,-8.699 -1.06,-3.633 -1.6,-8.223 -1.6,-13.75 0,-5.402 0.44,-9.922 1.3,-13.555 0.87,-3.625 2.15,-6.523 3.85,-8.691 1.7,-2.18 3.84,-3.723 6.4,-4.656 2.57,-0.93 5.59,-1.399 9.05,-1.399 7.34,0 12.59,1.902 15.75,5.703 3.17,3.797 4.75,9.231 4.75,16.297 h -13.2 c 0,-4.402 -0.53,-7.598 -1.6,-9.598 -1.06,-2.003 -2.76,-3 -5.1,-3 -1.53,0 -2.78,0.344 -3.75,1.047 -0.96,0.703 -1.71,1.825 -2.25,3.352 -0.53,1.531 -0.9,3.484 -1.1,5.848 -0.2,2.375 -0.3,5.222 -0.3,8.554 0,3.067 0.1,5.774 0.3,8.098 0.2,2.332 0.57,4.246 1.1,5.75 0.54,1.504 1.32,2.629 2.35,3.398 1.04,0.774 2.42,1.153 4.15,1.153 1.27,0 2.32,-0.325 3.15,-0.95 0.84,-0.632 1.47,-1.472 1.9,-2.5 0.44,-1.035 0.74,-2.207 0.9,-3.503 0.17,-1.297 0.25,-2.579 0.25,-3.848 z m 5.94,-16.797 v -1.902 c 0,-2.602 0.3,-4.953 0.9,-7.051 0.6,-2.102 1.65,-3.899 3.15,-5.402 1.5,-1.497 3.52,-2.649 6.05,-3.45 2.54,-0.8 5.77,-1.199 9.7,-1.199 2.87,0 5.54,0.352 8,1.055 2.47,0.691 4.59,1.75 6.35,3.144 1.77,1.407 3.15,3.172 4.15,5.301 1,2.133 1.5,4.602 1.5,7.402 0,4.067 -0.9,7.278 -2.7,9.653 -1.8,2.371 -4.86,4.273 -9.2,5.75 l -8.3,2.793 c -2.33,0.73 -3.91,1.633 -4.75,2.707 -0.83,1.062 -1.25,2.262 -1.25,3.594 0,1.929 0.65,3.386 1.95,4.351 1.3,0.969 2.82,1.445 4.55,1.445 2.27,0 3.85,-0.64 4.75,-1.941 0.9,-1.301 1.35,-3.352 1.35,-6.152 h 12.4 v 2.199 c 0,4.871 -1.5,8.633 -4.5,11.297 -3,2.676 -7.63,4.004 -13.9,4.004 -3.53,0 -6.55,-0.43 -9.05,-1.297 -2.5,-0.871 -4.55,-2.031 -6.15,-3.508 -1.6,-1.465 -2.76,-3.176 -3.5,-5.148 -0.73,-1.969 -1.1,-4.051 -1.1,-6.25 0,-3.797 0.97,-6.922 2.9,-9.344 1.94,-2.434 4.8,-4.324 8.6,-5.656 l 9.7,-3.497 c 1.34,-0.535 2.5,-1.25 3.5,-2.156 1,-0.898 1.5,-2.219 1.5,-3.945 0,-2.129 -0.63,-3.731 -1.9,-4.805 -1.26,-1.062 -2.96,-1.594 -5.1,-1.594 -2.33,0 -4.11,0.715 -5.35,2.153 -1.23,1.426 -1.85,3.316 -1.85,5.64 v 1.809 h -12.4"
         style="fill:#176fc1;fill-opacity:1;fill-rule:nonzero;stroke:none"
         transform="matrix(0.13333333,0,0,-0.13333333,0,120.94667)" />
      <path
         id="path24"
         d="m 879.449,387.461 c 0,2.598 -0.179,5.383 -0.547,8.352 -0.371,2.964 -1.281,5.718 -2.75,8.296 -1.472,2.571 -3.679,4.68 -6.648,6.348 -2.977,1.672 -7.024,2.5 -12.156,2.5 -5.399,0 -9.696,-0.918 -12.899,-2.754 -3.199,-1.824 -5.648,-4.375 -7.347,-7.644 -1.704,-3.274 -2.801,-7.176 -3.301,-11.746 -0.5,-4.575 -0.75,-9.551 -0.75,-14.954 0,-5.398 0.25,-10.379 0.75,-14.953 0.5,-4.566 1.597,-8.472 3.301,-11.746 1.699,-3.269 4.148,-5.82 7.347,-7.656 3.203,-1.824 7.5,-2.742 12.899,-2.742 4.73,0 8.582,0.769 11.554,2.293 2.969,1.535 5.27,3.625 6.899,6.25 1.633,2.636 2.75,5.683 3.347,9.148 0.602,3.481 0.903,7.133 0.903,11.008 h -14.403 c 0,-3.875 -0.226,-6.981 -0.699,-9.356 -0.469,-2.375 -1.101,-4.199 -1.898,-5.5 -0.801,-1.296 -1.75,-2.167 -2.852,-2.593 -1.097,-0.434 -2.277,-0.657 -3.551,-0.657 -1.527,0 -2.878,0.325 -4.05,0.95 -1.168,0.633 -2.129,1.875 -2.895,3.699 -0.773,1.836 -1.336,4.426 -1.707,7.754 -0.363,3.332 -0.547,7.695 -0.547,13.097 0,5.079 0.129,9.356 0.403,12.848 0.269,3.508 0.726,6.328 1.394,8.508 0.676,2.168 1.582,3.73 2.758,4.695 1.164,0.969 2.644,1.449 4.445,1.449 3.274,0 5.52,-1.171 6.75,-3.546 1.231,-2.371 1.852,-6.153 1.852,-11.348 z m 8.5,-32.805 c 0.66,-3.535 1.801,-6.504 3.399,-8.894 1.601,-2.403 3.765,-4.192 6.504,-5.352 2.73,-1.172 6.156,-1.719 10.296,-1.648 3.93,0 7.25,0.613 9.954,1.843 2.699,1.231 4.875,3.028 6.546,5.403 1.661,2.371 2.864,5.32 3.606,8.847 0.726,3.536 1.098,7.606 1.098,12.208 0,4.667 -0.344,8.777 -1,12.339 -0.672,3.578 -1.805,6.555 -3.403,8.957 -1.597,2.403 -3.765,4.18 -6.496,5.352 -2.746,1.16 -6.172,1.719 -10.305,1.648 -3.937,0 -7.25,-0.625 -9.949,-1.851 -2.703,-1.235 -4.89,-3.028 -6.551,-5.403 -1.668,-2.375 -2.871,-5.324 -3.597,-8.847 -0.742,-3.535 -1.102,-7.598 -1.102,-12.195 0,-4.739 0.332,-8.879 1,-12.407 m 13.004,20 c 0.125,2.324 0.449,4.328 0.945,5.996 0.504,1.672 1.231,2.969 2.204,3.911 0.957,0.925 2.308,1.394 4.046,1.394 2.805,0 4.735,-1.477 5.801,-4.402 1.063,-2.934 1.602,-7.766 1.602,-14.492 0,-6.743 -0.539,-11.575 -1.602,-14.504 -1.066,-2.93 -2.996,-4.407 -5.801,-4.407 -1.738,0 -3.089,0.469 -4.046,1.411 -0.973,0.925 -1.7,2.222 -2.204,3.894 -0.496,1.672 -0.82,3.672 -0.945,5.996 -0.144,2.332 -0.199,4.871 -0.199,7.61 0,2.722 0.055,5.261 0.199,7.593 m 36.426,-34.5 h 13.805 v 35.403 c 0,3.203 0.648,5.527 1.945,7 1.301,1.464 3.055,2.199 5.25,2.199 1.93,0 3.309,-0.598 4.148,-1.797 0.832,-1.203 1.25,-2.934 1.25,-5.207 v -37.598 h 13.801 v 35.403 c 0,3.203 0.652,5.527 1.953,7 1.297,1.464 3.047,2.199 5.25,2.199 1.93,0 3.309,-0.598 4.149,-1.797 0.832,-1.203 1.25,-2.934 1.25,-5.207 v -37.598 h 13.8 v 39.102 c 0,5.195 -1.09,9.18 -3.25,11.953 -2.171,2.766 -5.55,4.148 -10.148,4.148 -3.273,0 -6.09,-0.718 -8.453,-2.156 -2.367,-1.426 -4.086,-3.574 -5.149,-6.445 h -0.199 c -0.742,2.805 -2.191,4.93 -4.347,6.394 -2.176,1.477 -4.856,2.207 -8.055,2.207 -2.996,0 -5.59,-0.535 -7.746,-1.597 -2.176,-1.074 -4.121,-2.832 -5.852,-5.305 h -0.199 v 5.496 h -13.203 z m 76.321,-17.597 h 13.8 v 22.597 h 0.2 c 1.46,-2.129 3.11,-3.73 4.95,-4.797 1.83,-1.074 4.05,-1.597 6.65,-1.597 5.66,0 9.83,2.215 12.5,6.648 2.66,4.426 4,11.653 4,21.653 0,10 -1.34,17.214 -4,21.648 -2.67,4.426 -6.84,6.648 -12.5,6.648 -2.8,0 -5.15,-0.554 -7.05,-1.648 -1.9,-1.106 -3.62,-2.922 -5.15,-5.449 h -0.2 v 5.691 h -13.2 z m 15.15,57.746 c 0.9,2.976 2.88,4.453 5.95,4.453 3,0 4.95,-1.477 5.85,-4.453 0.9,-2.969 1.35,-7.375 1.35,-13.242 0,-5.872 -0.45,-10.286 -1.35,-13.254 -0.9,-2.969 -2.85,-4.454 -5.85,-4.454 -3.07,0 -5.05,1.485 -5.95,4.454 -0.9,2.968 -1.35,7.382 -1.35,13.254 0,5.867 0.45,10.273 1.35,13.242 m 63.02,-40.149 h 13.2 v 53.797 h -13.8 v -35.691 c 0,-5.938 -2.44,-8.907 -7.3,-8.907 -2.07,0 -3.57,0.547 -4.5,1.653 -0.94,1.101 -1.4,3.047 -1.4,5.847 v 37.098 h -13.8 v -39.898 c 0,-5.403 1.18,-9.297 3.55,-11.7 2.36,-2.394 5.75,-3.593 10.15,-3.593 3,0 5.66,0.613 8,1.843 2.33,1.231 4.23,3.184 5.7,5.848 h 0.2 z m 26.34,53.797 h -7 v -9.39 h 7 v -30.801 c 0,-2.739 0.16,-5 0.5,-6.809 0.33,-1.797 0.95,-3.242 1.85,-4.348 0.9,-1.101 2.18,-1.882 3.85,-2.351 1.66,-0.469 3.86,-0.691 6.6,-0.691 1.6,0 3.11,0.066 4.55,0.195 1.43,0.125 2.91,0.269 4.45,0.398 v 9.602 c -0.47,-0.07 -0.97,-0.117 -1.5,-0.149 -0.54,-0.031 -1.07,-0.046 -1.6,-0.046 -2,0 -3.32,0.449 -3.95,1.343 -0.64,0.903 -0.95,2.422 -0.95,4.555 v 29.102 h 8 v 9.39 h -8 v 15.402 h -13.8 z m 40.76,-16.492 v 1.492 c 0,2.133 0.53,3.828 1.6,5.102 1.06,1.265 2.66,1.902 4.8,1.902 2.33,0 3.98,-0.574 4.95,-1.746 0.96,-1.176 1.45,-2.785 1.45,-4.856 0,-1.796 -0.4,-3.164 -1.2,-4.101 -0.8,-0.93 -2.24,-1.668 -4.3,-2.195 l -7.8,-2.102 c -2.4,-0.676 -4.45,-1.426 -6.15,-2.305 -1.7,-0.871 -3.1,-1.941 -4.2,-3.242 -1.1,-1.301 -1.92,-2.871 -2.45,-4.707 -0.54,-1.824 -0.8,-4.015 -0.8,-6.543 0,-1.805 0.23,-3.625 0.7,-5.449 0.46,-1.836 1.2,-3.484 2.2,-4.949 1,-1.477 2.33,-2.676 4,-3.606 1.66,-0.926 3.7,-1.394 6.1,-1.394 3.33,0 6.05,0.468 8.15,1.394 2.1,0.93 3.95,2.805 5.55,5.606 h 0.2 c 0.2,-0.938 0.41,-1.883 0.65,-2.852 0.23,-0.976 0.58,-1.887 1.05,-2.754 h 13.2 c -0.67,1.602 -1.12,3.106 -1.35,4.5 -0.24,1.399 -0.35,3.371 -0.35,5.903 v 28.296 c 0,2.407 -0.25,4.622 -0.75,6.653 -0.5,2.031 -1.45,3.777 -2.85,5.254 -1.4,1.465 -3.39,2.597 -5.95,3.398 -2.57,0.801 -5.89,1.199 -9.95,1.199 -2.6,0 -5.05,-0.281 -7.35,-0.847 -2.3,-0.574 -4.3,-1.504 -6,-2.801 -1.7,-1.301 -3.05,-3.02 -4.05,-5.156 -1,-2.129 -1.5,-4.731 -1.5,-7.793 v -1.301 z m 12.8,-21.008 c 0,-1.519 -0.27,-2.82 -0.8,-3.848 -0.54,-1.035 -1.22,-1.882 -2.05,-2.546 -0.84,-0.672 -1.75,-1.153 -2.75,-1.454 -1,-0.292 -1.97,-0.453 -2.9,-0.453 -1.87,0 -3.2,0.735 -4,2.207 -0.8,1.465 -1.2,3.227 -1.2,5.293 0,2.407 0.6,4.309 1.8,5.703 1.2,1.399 3.2,2.407 6,3 0.86,0.208 1.83,0.516 2.9,0.95 1.06,0.425 2.06,1.023 3,1.758 z m 26.51,37.5 h -7 v -9.39 h 7 v -30.801 c 0,-2.739 0.16,-5 0.5,-6.809 0.33,-1.797 0.95,-3.242 1.85,-4.348 0.9,-1.101 2.18,-1.882 3.85,-2.351 1.66,-0.469 3.86,-0.691 6.6,-0.691 1.6,0 3.11,0.066 4.55,0.195 1.43,0.125 2.91,0.269 4.45,0.398 v 9.602 c -0.47,-0.07 -0.97,-0.117 -1.5,-0.149 -0.54,-0.031 -1.07,-0.046 -1.6,-0.046 -2,0 -3.32,0.449 -3.95,1.343 -0.64,0.903 -0.95,2.422 -0.95,4.555 v 29.102 h 8 v 9.39 h -8 v 15.402 h -13.8 z m 28.37,6.606 h 13.8 v 11.796 h -13.8 z m 0,-60.403 h 13.8 v 53.797 h -13.8 z m 23.27,14.5 c 0.67,-3.535 1.8,-6.504 3.4,-8.894 1.6,-2.403 3.77,-4.192 6.5,-5.352 2.74,-1.172 6.17,-1.719 10.3,-1.648 3.94,0 7.25,0.613 9.95,1.843 2.7,1.231 4.89,3.028 6.55,5.403 1.67,2.371 2.87,5.32 3.6,8.847 0.74,3.536 1.1,7.606 1.1,12.208 0,4.667 -0.33,8.777 -1,12.339 -0.66,3.578 -1.8,6.555 -3.4,8.957 -1.6,2.403 -3.76,4.18 -6.5,5.352 -2.73,1.16 -6.16,1.719 -10.3,1.648 -3.93,0 -7.25,-0.625 -9.95,-1.851 -2.7,-1.235 -4.88,-3.028 -6.55,-5.403 -1.66,-2.375 -2.86,-5.324 -3.6,-8.847 -0.73,-3.535 -1.1,-7.598 -1.1,-12.195 0,-4.739 0.34,-8.879 1,-12.407 m 13,20 c 0.14,2.324 0.45,4.328 0.95,5.996 0.5,1.672 1.24,2.969 2.2,3.911 0.97,0.925 2.32,1.394 4.05,1.394 2.8,0 4.74,-1.477 5.8,-4.402 1.07,-2.934 1.6,-7.766 1.6,-14.492 0,-6.743 -0.53,-11.575 -1.6,-14.504 -1.06,-2.93 -3,-4.407 -5.8,-4.407 -1.73,0 -3.08,0.469 -4.05,1.411 -0.96,0.925 -1.7,2.222 -2.2,3.894 -0.5,1.672 -0.81,3.672 -0.95,5.996 -0.13,2.332 -0.2,4.871 -0.2,7.61 0,2.722 0.07,5.261 0.2,7.593 m 36.43,-34.5 h 13.8 v 35.703 c 0,5.926 2.44,8.899 7.3,8.899 2.07,0 3.57,-0.547 4.5,-1.653 0.94,-1.093 1.4,-3.046 1.4,-5.847 v -37.102 h 13.8 v 39.903 c 0,5.402 -1.18,9.296 -3.55,11.699 -2.36,2.402 -5.75,3.601 -10.15,3.601 -3,0 -5.66,-0.625 -8,-1.851 -2.33,-1.235 -4.23,-3.188 -5.7,-5.852 h -0.2 v 6.297 h -13.2 z m 62.66,37.305 v 1.492 c 0,2.133 0.54,3.828 1.6,5.102 1.07,1.265 2.67,1.902 4.8,1.902 2.34,0 3.99,-0.574 4.95,-1.746 0.97,-1.176 1.45,-2.785 1.45,-4.856 0,-1.796 -0.4,-3.164 -1.2,-4.101 -0.8,-0.93 -2.23,-1.668 -4.3,-2.195 l -7.8,-2.102 c -2.4,-0.676 -4.45,-1.426 -6.15,-2.305 -1.7,-0.871 -3.1,-1.941 -4.2,-3.242 -1.1,-1.301 -1.91,-2.871 -2.45,-4.707 -0.53,-1.824 -0.8,-4.015 -0.8,-6.543 0,-1.805 0.24,-3.625 0.7,-5.449 0.47,-1.836 1.2,-3.484 2.2,-4.949 1,-1.477 2.34,-2.676 4,-3.606 1.67,-0.926 3.7,-1.394 6.1,-1.394 3.34,0 6.05,0.468 8.15,1.394 2.1,0.93 3.95,2.805 5.55,5.606 h 0.2 c 0.2,-0.938 0.42,-1.883 0.65,-2.852 0.24,-0.976 0.59,-1.887 1.05,-2.754 h 13.2 c -0.66,1.602 -1.11,3.106 -1.35,4.5 -0.23,1.399 -0.35,3.371 -0.35,5.903 v 28.296 c 0,2.407 -0.25,4.622 -0.75,6.653 -0.5,2.031 -1.45,3.777 -2.85,5.254 -1.4,1.465 -3.38,2.597 -5.95,3.398 -2.56,0.801 -5.88,1.199 -9.95,1.199 -2.6,0 -5.05,-0.281 -7.35,-0.847 -2.3,-0.574 -4.3,-1.504 -6,-2.801 -1.7,-1.301 -3.05,-3.02 -4.05,-5.156 -1,-2.129 -1.5,-4.731 -1.5,-7.793 v -1.301 z m 12.8,-21.008 c 0,-1.519 -0.26,-2.82 -0.8,-3.848 -0.53,-1.035 -1.21,-1.882 -2.05,-2.546 -0.83,-0.672 -1.75,-1.153 -2.75,-1.454 -1,-0.292 -1.96,-0.453 -2.9,-0.453 -1.86,0 -3.2,0.735 -4,2.207 -0.8,1.465 -1.2,3.227 -1.2,5.293 0,2.407 0.6,4.309 1.8,5.703 1.2,1.399 3.2,2.407 6,3 0.87,0.208 1.84,0.516 2.9,0.95 1.07,0.425 2.07,1.023 3,1.758 z m 23.58,-16.297 h 13.8 v 71.399 h -13.8 v -71.399"
         style="fill:#176fc1;fill-opacity:1;fill-rule:nonzero;stroke:none"
         transform="matrix(0.13333333,0,0,-0.13333333,0,120.94667)" />
      <path
         id="path25"
         d="m 857.25,512.543 h 0.199 l 6.903,-32.098 h -14 z m -27.699,-58.996 h 15 l 3.301,15.098 h 19 l 3.3,-15.098 h 15 l -18.902,71.394 h -17.797 z m 61.832,-17.602 h 13.797 v 22.602 h 0.203 c 1.469,-2.137 3.117,-3.734 4.949,-4.801 1.824,-1.074 4.047,-1.601 6.648,-1.601 5.672,0 9.833,2.218 12.5,6.648 2.668,4.43 4,11.652 4,21.652 0,10 -1.332,17.215 -4,21.649 -2.667,4.429 -6.828,6.652 -12.5,6.652 -2.8,0 -5.148,-0.555 -7.046,-1.652 -1.903,-1.102 -3.625,-2.918 -5.153,-5.453 h -0.203 v 5.703 h -13.195 z m 15.144,57.746 c 0.907,2.973 2.883,4.454 5.953,4.454 2.997,0 4.954,-1.481 5.848,-4.454 0.899,-2.968 1.352,-7.378 1.352,-13.246 0,-5.871 -0.453,-10.285 -1.352,-13.254 -0.894,-2.968 -2.851,-4.449 -5.848,-4.449 -3.07,0 -5.046,1.481 -5.953,4.449 -0.898,2.969 -1.347,7.383 -1.347,13.254 0,5.868 0.449,10.278 1.347,13.246 m 35.422,-57.746 h 13.805 v 22.602 h 0.199 c 1.469,-2.137 3.117,-3.734 4.945,-4.801 1.832,-1.074 4.051,-1.601 6.653,-1.601 5.668,0 9.828,2.218 12.5,6.648 2.668,4.43 3.996,11.652 3.996,21.652 0,10 -1.328,17.215 -3.996,21.649 -2.672,4.429 -6.832,6.652 -12.5,6.652 -2.801,0 -5.149,-0.555 -7.055,-1.652 -1.898,-1.102 -3.617,-2.918 -5.144,-5.453 h -0.2 v 5.703 h -13.203 z m 15.153,57.746 c 0.894,2.973 2.878,4.454 5.949,4.454 3,0 4.945,-1.481 5.851,-4.454 0.899,-2.968 1.348,-7.378 1.348,-13.246 0,-5.871 -0.449,-10.285 -1.348,-13.254 -0.906,-2.968 -2.851,-4.449 -5.851,-4.449 -3.071,0 -5.055,1.481 -5.949,4.449 -0.903,2.969 -1.348,7.383 -1.348,13.254 0,5.868 0.445,10.278 1.348,13.246 m 35.73,-40.144 h 13.798 v 71.394 h -13.798 z m 24.068,60.398 h 13.8 v 11.797 h -13.8 z m 0,-60.398 h 13.8 v 53.797 h -13.8 z m 63.37,24.797 v 3.101 c 0,4.125 -0.27,7.875 -0.8,11.25 -0.54,3.368 -1.54,6.227 -3,8.598 -1.47,2.367 -3.49,4.199 -6.05,5.5 -2.57,1.297 -5.85,1.953 -9.85,1.953 -4.67,0 -8.4,-0.773 -11.2,-2.301 -2.8,-1.535 -4.95,-3.601 -6.45,-6.203 -1.5,-2.601 -2.5,-5.57 -3,-8.898 -0.5,-3.332 -0.75,-6.805 -0.75,-10.403 0,-3.328 0.15,-6.718 0.45,-10.152 0.3,-3.426 1.11,-6.527 2.45,-9.297 1.33,-2.769 3.4,-5.015 6.2,-6.75 2.8,-1.73 6.7,-2.597 11.7,-2.597 6.6,0 11.43,1.679 14.5,5.046 3.06,3.372 4.73,8.18 5,14.45 h -12.4 c -0.4,-3.399 -1.14,-5.926 -2.2,-7.598 -1.07,-1.672 -2.77,-2.5 -5.1,-2.5 -1.27,0 -2.34,0.352 -3.2,1.051 -0.87,0.695 -1.57,1.629 -2.1,2.797 -0.54,1.172 -0.92,2.5 -1.15,4.004 -0.24,1.5 -0.35,3.046 -0.35,4.648 v 4.301 z m -27.3,8.199 v 2.102 c 0,1.265 0.11,2.527 0.35,3.796 0.23,1.27 0.61,2.422 1.15,3.454 0.53,1.031 1.25,1.871 2.15,2.5 0.9,0.628 2.05,0.945 3.45,0.945 1.4,0 2.55,-0.277 3.45,-0.848 0.9,-0.566 1.6,-1.398 2.1,-2.5 0.5,-1.097 0.85,-2.429 1.05,-4 0.2,-1.566 0.33,-3.379 0.4,-5.449 z m 62.83,-32.996 h 13.2 v 71.394 h -13.8 v -22.597 h -0.2 c -1.47,2.129 -3.12,3.73 -4.95,4.801 -1.84,1.07 -4.05,1.601 -6.65,1.601 -5.67,0 -9.84,-2.223 -12.5,-6.652 -2.67,-4.434 -4,-11.649 -4,-21.649 0,-10 1.33,-17.222 4,-21.652 2.66,-4.43 6.83,-6.648 12.5,-6.648 2.8,0 5.15,0.55 7.05,1.648 1.9,1.102 3.61,2.922 5.15,5.449 h 0.2 z m -13.75,40.144 c 0.9,2.973 2.85,4.454 5.85,4.454 3.06,0 5.05,-1.481 5.95,-4.454 0.9,-2.968 1.35,-7.378 1.35,-13.246 0,-5.871 -0.45,-10.285 -1.35,-13.254 -0.9,-2.968 -2.89,-4.449 -5.95,-4.449 -3,0 -4.95,1.481 -5.85,4.449 -0.9,2.969 -1.35,7.383 -1.35,13.254 0,5.868 0.45,10.278 1.35,13.246 m 72.45,-2.847 v 1.5 c 0,2.129 0.53,3.828 1.6,5.097 1.06,1.27 2.66,1.899 4.8,1.899 2.33,0 3.98,-0.574 4.95,-1.746 0.96,-1.172 1.45,-2.781 1.45,-4.852 0,-1.801 -0.4,-3.168 -1.2,-4.097 -0.8,-0.93 -2.24,-1.672 -4.3,-2.2 l -7.8,-2.105 c -2.4,-0.668 -4.45,-1.426 -6.15,-2.301 -1.7,-0.867 -3.1,-1.945 -4.2,-3.246 -1.1,-1.297 -1.92,-2.871 -2.45,-4.699 -0.54,-1.832 -0.8,-4.02 -0.8,-6.551 0,-1.801 0.23,-3.621 0.7,-5.449 0.46,-1.828 1.2,-3.481 2.2,-4.949 1,-1.469 2.33,-2.672 4,-3.598 1.66,-0.934 3.7,-1.402 6.1,-1.402 3.33,0 6.05,0.468 8.15,1.402 2.1,0.926 3.95,2.797 5.55,5.594 h 0.2 c 0.2,-0.926 0.41,-1.879 0.65,-2.848 0.23,-0.973 0.58,-1.879 1.05,-2.746 h 13.2 c -0.67,1.594 -1.12,3.094 -1.35,4.496 -0.24,1.398 -0.35,3.367 -0.35,5.902 v 28.297 c 0,2.403 -0.25,4.621 -0.75,6.649 -0.5,2.031 -1.45,3.781 -2.85,5.25 -1.4,1.472 -3.39,2.601 -5.95,3.402 -2.57,0.801 -5.89,1.203 -9.95,1.203 -2.6,0 -5.05,-0.285 -7.35,-0.855 -2.3,-0.567 -4.3,-1.5 -6,-2.797 -1.7,-1.301 -3.05,-3.02 -4.05,-5.153 -1,-2.128 -1.5,-4.726 -1.5,-7.796 v -1.301 z m 12.8,-21 c 0,-1.531 -0.27,-2.824 -0.8,-3.852 -0.54,-1.031 -1.22,-1.883 -2.05,-2.551 -0.84,-0.668 -1.75,-1.144 -2.75,-1.449 -1,-0.297 -1.97,-0.449 -2.9,-0.449 -1.87,0 -3.2,0.73 -4,2.203 -0.8,1.469 -1.2,3.227 -1.2,5.297 0,2.402 0.6,4.301 1.8,5.699 1.2,1.403 3.2,2.403 6,3 0.86,0.203 1.83,0.52 2.9,0.949 1.06,0.43 2.06,1.02 3,1.754 z m 23.25,-16.297 h 13.8 v 35.695 c 0,5.93 2.43,8.903 7.3,8.903 2.06,0 3.56,-0.551 4.5,-1.653 0.93,-1.101 1.4,-3.051 1.4,-5.847 v -37.098 h 13.8 v 39.894 c 0,5.403 -1.19,9.301 -3.55,11.7 -2.37,2.402 -5.75,3.605 -10.15,3.605 -3,0 -5.67,-0.621 -8,-1.851 -2.34,-1.231 -4.24,-3.184 -5.7,-5.848 h -0.2 v 6.297 h -13.2 z m 78.22,0 h 13.2 v 71.394 h -13.8 v -22.597 h -0.2 c -1.47,2.129 -3.12,3.73 -4.95,4.801 -1.84,1.07 -4.05,1.601 -6.65,1.601 -5.67,0 -9.84,-2.223 -12.5,-6.652 -2.67,-4.434 -4,-11.649 -4,-21.649 0,-10 1.33,-17.222 4,-21.652 2.66,-4.43 6.83,-6.648 12.5,-6.648 2.8,0 5.15,0.55 7.05,1.648 1.9,1.102 3.61,2.922 5.15,5.449 h 0.2 z m -13.75,40.144 c 0.9,2.973 2.85,4.454 5.85,4.454 3.06,0 5.05,-1.481 5.95,-4.454 0.9,-2.968 1.35,-7.378 1.35,-13.246 0,-5.871 -0.45,-10.285 -1.35,-13.254 -0.9,-2.968 -2.89,-4.449 -5.95,-4.449 -3,0 -4.95,1.481 -5.85,4.449 -0.9,2.969 -1.35,7.383 -1.35,13.254 0,5.868 0.45,10.278 1.35,13.246"
         style="fill:#176fc1;fill-opacity:1;fill-rule:nonzero;stroke:none"
         transform="matrix(0.13333333,0,0,-0.13333333,0,120.94667)" />
    </g>
  </g>
</svg>
